  0
SECTION
  2
BLOCKS
  0
ENDSEC
  0
SECTION
  2
ENTITIES
  0
LINE
  8
0
 10
-30.500000
 11
-29.834000
 20
0.000000
 21
6.341000
  0
LINE
  8
0
 10
-29.834000
 11
-27.863000
 20
6.341000
 21
12.405000
  0
LINE
  8
0
 10
-27.863000
 11
-24.675000
 20
12.405000
 21
17.927000
  0
LINE
  8
0
 10
-24.675000
 11
-20.408000
 20
17.927000
 21
22.666000
  0
LINE
  8
0
 10
-20.408000
 11
-15.250000
 20
22.666000
 21
26.414000
  0
LINE
  8
0
 10
-15.250000
 11
-9.425000
 20
26.414000
 21
29.007000
  0
LINE
  8
0
 10
-9.425000
 11
-3.188000
 20
29.007000
 21
30.333000
  0
LINE
  8
0
 10
-3.188000
 11
3.188000
 20
30.333000
 21
30.333000
  0
LINE
  8
0
 10
3.188000
 11
9.425000
 20
30.333000
 21
29.007000
  0
LINE
  8
0
 10
9.425000
 11
15.250000
 20
29.007000
 21
26.414000
  0
LINE
  8
0
 10
15.250000
 11
20.408000
 20
26.414000
 21
22.666000
  0
LINE
  8
0
 10
20.408000
 11
24.675000
 20
22.666000
 21
17.927000
  0
LINE
  8
0
 10
24.675000
 11
27.863000
 20
17.927000
 21
12.405000
  0
LINE
  8
0
 10
27.863000
 11
29.834000
 20
12.405000
 21
6.341000
  0
LINE
  8
0
 10
29.834000
 11
30.500000
 20
6.341000
 21
0.000000
  0
LINE
  8
0
 10
30.500000
 11
29.834000
 20
0.000000
 21
-6.341000
  0
LINE
  8
0
 10
29.834000
 11
27.863000
 20
-6.341000
 21
-12.405000
  0
LINE
  8
0
 10
27.863000
 11
24.675000
 20
-12.405000
 21
-17.927000
  0
LINE
  8
0
 10
24.675000
 11
20.408000
 20
-17.927000
 21
-22.666000
  0
LINE
  8
0
 10
20.408000
 11
15.250000
 20
-22.666000
 21
-26.414000
  0
LINE
  8
0
 10
15.250000
 11
9.425000
 20
-26.414000
 21
-29.007000
  0
LINE
  8
0
 10
9.425000
 11
3.188000
 20
-29.007000
 21
-30.333000
  0
LINE
  8
0
 10
3.188000
 11
-3.188000
 20
-30.333000
 21
-30.333000
  0
LINE
  8
0
 10
-3.188000
 11
-9.425000
 20
-30.333000
 21
-29.007000
  0
LINE
  8
0
 10
-9.425000
 11
-15.250000
 20
-29.007000
 21
-26.414000
  0
LINE
  8
0
 10
-15.250000
 11
-20.408000
 20
-26.414000
 21
-22.666000
  0
LINE
  8
0
 10
-20.408000
 11
-24.675000
 20
-22.666000
 21
-17.927000
  0
LINE
  8
0
 10
-24.675000
 11
-27.863000
 20
-17.927000
 21
-12.405000
  0
LINE
  8
0
 10
-27.863000
 11
-29.834000
 20
-12.405000
 21
-6.341000
  0
LINE
  8
0
 10
-29.834000
 11
-30.500000
 20
-6.341000
 21
0.000000
  0
LINE
  8
0
 10
-26.716000
 11
-26.322000
 20
-1.373000
 21
-1.127000
  0
LINE
  8
0
 10
-26.322000
 11
-25.944000
 20
-1.127000
 21
-0.909000
  0
LINE
  8
0
 10
-25.944000
 11
-25.585000
 20
-0.909000
 21
-0.718000
  0
LINE
  8
0
 10
-25.585000
 11
-25.246000
 20
-0.718000
 21
-0.553000
  0
LINE
  8
0
 10
-25.246000
 11
-24.929000
 20
-0.553000
 21
-0.413000
  0
LINE
  8
0
 10
-24.929000
 11
-24.920000
 20
-0.413000
 21
-0.413000
  0
LINE
  8
0
 10
-24.920000
 11
-24.920000
 20
-0.413000
 21
0.413000
  0
LINE
  8
0
 10
-24.920000
 11
-24.929000
 20
0.413000
 21
0.413000
  0
LINE
  8
0
 10
-24.929000
 11
-25.246000
 20
0.413000
 21
0.553000
  0
LINE
  8
0
 10
-25.246000
 11
-25.585000
 20
0.553000
 21
0.718000
  0
LINE
  8
0
 10
-25.585000
 11
-25.944000
 20
0.718000
 21
0.909000
  0
LINE
  8
0
 10
-25.944000
 11
-26.322000
 20
0.909000
 21
1.127000
  0
LINE
  8
0
 10
-26.322000
 11
-26.716000
 20
1.127000
 21
1.373000
  0
LINE
  8
0
 10
-26.716000
 11
-26.682000
 20
1.373000
 21
1.920000
  0
LINE
  8
0
 10
-26.682000
 11
-26.261000
 20
1.920000
 21
2.117000
  0
LINE
  8
0
 10
-26.261000
 11
-25.859000
 20
2.117000
 21
2.286000
  0
LINE
  8
0
 10
-25.859000
 11
-25.480000
 20
2.286000
 21
2.431000
  0
LINE
  8
0
 10
-25.480000
 11
-25.122000
 20
2.431000
 21
2.553000
  0
LINE
  8
0
 10
-25.122000
 11
-24.791000
 20
2.553000
 21
2.653000
  0
LINE
  8
0
 10
-24.791000
 11
-24.782000
 20
2.653000
 21
2.652000
  0
LINE
  8
0
 10
-24.782000
 11
-24.681000
 20
2.652000
 21
3.473000
  0
LINE
  8
0
 10
-24.681000
 11
-24.689000
 20
3.473000
 21
3.474000
  0
LINE
  8
0
 10
-24.689000
 11
-24.986000
 20
3.474000
 21
3.651000
  0
LINE
  8
0
 10
-24.986000
 11
-25.303000
 20
3.651000
 21
3.857000
  0
LINE
  8
0
 10
-25.303000
 11
-25.636000
 20
3.857000
 21
4.090000
  0
LINE
  8
0
 10
-25.636000
 11
-25.984000
 20
4.090000
 21
4.353000
  0
LINE
  8
0
 10
-25.984000
 11
-26.345000
 20
4.353000
 21
4.646000
  0
LINE
  8
0
 10
-26.345000
 11
-26.244000
 20
4.646000
 21
5.185000
  0
LINE
  8
0
 10
-26.244000
 11
-25.801000
 20
5.185000
 21
5.328000
  0
LINE
  8
0
 10
-25.801000
 11
-25.382000
 20
5.328000
 21
5.447000
  0
LINE
  8
0
 10
-25.382000
 11
-24.988000
 20
5.447000
 21
5.544000
  0
LINE
  8
0
 10
-24.988000
 11
-24.618000
 20
5.544000
 21
5.621000
  0
LINE
  8
0
 10
-24.618000
 11
-24.277000
 20
5.621000
 21
5.680000
  0
LINE
  8
0
 10
-24.277000
 11
-24.268000
 20
5.680000
 21
5.678000
  0
LINE
  8
0
 10
-24.268000
 11
-24.067000
 20
5.678000
 21
6.479000
  0
LINE
  8
0
 10
-24.067000
 11
-24.075000
 20
6.479000
 21
6.481000
  0
LINE
  8
0
 10
-24.075000
 11
-24.348000
 20
6.481000
 21
6.694000
  0
LINE
  8
0
 10
-24.348000
 11
-24.637000
 20
6.694000
 21
6.937000
  0
LINE
  8
0
 10
-24.637000
 11
-24.939000
 20
6.937000
 21
7.210000
  0
LINE
  8
0
 10
-24.939000
 11
-25.252000
 20
7.210000
 21
7.513000
  0
LINE
  8
0
 10
-25.252000
 11
-25.574000
 20
7.513000
 21
7.848000
  0
LINE
  8
0
 10
-25.574000
 11
-25.408000
 20
7.848000
 21
8.370000
  0
LINE
  8
0
 10
-25.408000
 11
-24.951000
 20
8.370000
 21
8.458000
  0
LINE
  8
0
 10
-24.951000
 11
-24.521000
 20
8.458000
 21
8.525000
  0
LINE
  8
0
 10
-24.521000
 11
-24.117000
 20
8.525000
 21
8.573000
  0
LINE
  8
0
 10
-24.117000
 11
-23.741000
 20
8.573000
 21
8.604000
  0
LINE
  8
0
 10
-23.741000
 11
-23.395000
 20
8.604000
 21
8.620000
  0
LINE
  8
0
 10
-23.395000
 11
-23.387000
 20
8.620000
 21
8.617000
  0
LINE
  8
0
 10
-23.387000
 11
-23.088000
 20
8.617000
 21
9.388000
  0
LINE
  8
0
 10
-23.088000
 11
-23.096000
 20
9.388000
 21
9.391000
  0
LINE
  8
0
 10
-23.096000
 11
-23.341000
 20
9.391000
 21
9.636000
  0
LINE
  8
0
 10
-23.341000
 11
-23.598000
 20
9.636000
 21
9.912000
  0
LINE
  8
0
 10
-23.598000
 11
-23.864000
 20
9.912000
 21
10.220000
  0
LINE
  8
0
 10
-23.864000
 11
-24.137000
 20
10.220000
 21
10.559000
  0
LINE
  8
0
 10
-24.137000
 11
-24.416000
 20
10.559000
 21
10.932000
  0
LINE
  8
0
 10
-24.416000
 11
-24.187000
 20
10.932000
 21
11.429000
  0
LINE
  8
0
 10
-24.187000
 11
-23.723000
 20
11.429000
 21
11.460000
  0
LINE
  8
0
 10
-23.723000
 11
-23.287000
 20
11.460000
 21
11.473000
  0
LINE
  8
0
 10
-23.287000
 11
-22.881000
 20
11.473000
 21
11.471000
  0
LINE
  8
0
 10
-22.881000
 11
-22.504000
 20
11.471000
 21
11.456000
  0
LINE
  8
0
 10
-22.504000
 11
-22.158000
 20
11.456000
 21
11.429000
  0
LINE
  8
0
 10
-22.158000
 11
-22.151000
 20
11.429000
 21
11.425000
  0
LINE
  8
0
 10
-22.151000
 11
-21.760000
 20
11.425000
 21
12.154000
  0
LINE
  8
0
 10
-21.760000
 11
-21.767000
 20
12.154000
 21
12.158000
  0
LINE
  8
0
 10
-21.767000
 11
-21.980000
 20
12.158000
 21
12.431000
  0
LINE
  8
0
 10
-21.980000
 11
-22.201000
 20
12.431000
 21
12.737000
  0
LINE
  8
0
 10
-22.201000
 11
-22.427000
 20
12.737000
 21
13.075000
  0
LINE
  8
0
 10
-22.427000
 11
-22.657000
 20
13.075000
 21
13.445000
  0
LINE
  8
0
 10
-22.657000
 11
-22.888000
 20
13.445000
 21
13.849000
  0
LINE
  8
0
 10
-22.888000
 11
-22.599000
 20
13.849000
 21
14.315000
  0
LINE
  8
0
 10
-22.599000
 11
-22.134000
 20
14.315000
 21
14.288000
  0
LINE
  8
0
 10
-22.134000
 11
-21.701000
 20
14.288000
 21
14.248000
  0
LINE
  8
0
 10
-21.701000
 11
-21.298000
 20
14.248000
 21
14.196000
  0
LINE
  8
0
 10
-21.298000
 11
-20.925000
 20
14.196000
 21
14.135000
  0
LINE
  8
0
 10
-20.925000
 11
-20.586000
 20
14.135000
 21
14.066000
  0
LINE
  8
0
 10
-20.586000
 11
-20.579000
 20
14.066000
 21
14.061000
  0
LINE
  8
0
 10
-20.579000
 11
-20.101000
 20
14.061000
 21
14.736000
  0
LINE
  8
0
 10
-20.101000
 11
-20.108000
 20
14.736000
 21
14.741000
  0
LINE
  8
0
 10
-20.108000
 11
-20.286000
 20
14.741000
 21
15.038000
  0
LINE
  8
0
 10
-20.286000
 11
-20.468000
 20
15.038000
 21
15.369000
  0
LINE
  8
0
 10
-20.468000
 11
-20.650000
 20
15.369000
 21
15.732000
  0
LINE
  8
0
 10
-20.650000
 11
-20.833000
 20
15.732000
 21
16.127000
  0
LINE
  8
0
 10
-20.833000
 11
-21.012000
 20
16.127000
 21
16.557000
  0
LINE
  8
0
 10
-21.012000
 11
-20.669000
 20
16.557000
 21
16.984000
  0
LINE
  8
0
 10
-20.669000
 11
-20.211000
 20
16.984000
 21
16.900000
  0
LINE
  8
0
 10
-20.211000
 11
-19.785000
 20
16.900000
 21
16.807000
  0
LINE
  8
0
 10
-19.785000
 11
-19.392000
 20
16.807000
 21
16.706000
  0
LINE
  8
0
 10
-19.392000
 11
-19.030000
 20
16.706000
 21
16.599000
  0
LINE
  8
0
 10
-19.030000
 11
-18.701000
 20
16.599000
 21
16.489000
  0
LINE
  8
0
 10
-18.701000
 11
-18.695000
 20
16.489000
 21
16.484000
  0
LINE
  8
0
 10
-18.695000
 11
-18.138000
 20
16.484000
 21
17.094000
  0
LINE
  8
0
 10
-18.138000
 11
-18.144000
 20
17.094000
 21
17.100000
  0
LINE
  8
0
 10
-18.144000
 11
-18.284000
 20
17.100000
 21
17.417000
  0
LINE
  8
0
 10
-18.284000
 11
-18.424000
 20
17.417000
 21
17.768000
  0
LINE
  8
0
 10
-18.424000
 11
-18.561000
 20
17.768000
 21
18.150000
  0
LINE
  8
0
 10
-18.561000
 11
-18.693000
 20
18.150000
 21
18.565000
  0
LINE
  8
0
 10
-18.693000
 11
-18.818000
 20
18.565000
 21
19.013000
  0
LINE
  8
0
 10
-18.818000
 11
-18.425000
 20
19.013000
 21
19.395000
  0
LINE
  8
0
 10
-18.425000
 11
-17.981000
 20
19.395000
 21
19.256000
  0
LINE
  8
0
 10
-17.981000
 11
-17.570000
 20
19.256000
 21
19.111000
  0
LINE
  8
0
 10
-17.570000
 11
-17.192000
 20
19.111000
 21
18.962000
  0
LINE
  8
0
 10
-17.192000
 11
-16.846000
 20
18.962000
 21
18.812000
  0
LINE
  8
0
 10
-16.846000
 11
-16.533000
 20
18.812000
 21
18.662000
  0
LINE
  8
0
 10
-16.533000
 11
-16.527000
 20
18.662000
 21
18.655000
  0
LINE
  8
0
 10
-16.527000
 11
-15.900000
 20
18.655000
 21
19.194000
  0
LINE
  8
0
 10
-15.900000
 11
-15.905000
 20
19.194000
 21
19.200000
  0
LINE
  8
0
 10
-15.905000
 11
-16.005000
 20
19.200000
 21
19.532000
  0
LINE
  8
0
 10
-16.005000
 11
-16.101000
 20
19.532000
 21
19.897000
  0
LINE
  8
0
 10
-16.101000
 11
-16.190000
 20
19.897000
 21
20.294000
  0
LINE
  8
0
 10
-16.190000
 11
-16.270000
 20
20.294000
 21
20.722000
  0
LINE
  8
0
 10
-16.270000
 11
-16.339000
 20
20.722000
 21
21.182000
  0
LINE
  8
0
 10
-16.339000
 11
-15.902000
 20
21.182000
 21
21.512000
  0
LINE
  8
0
 10
-15.902000
 11
-15.478000
 20
21.512000
 21
21.319000
  0
LINE
  8
0
 10
-15.478000
 11
-15.088000
 20
21.319000
 21
21.125000
  0
LINE
  8
0
 10
-15.088000
 11
-14.731000
 20
21.125000
 21
20.931000
  0
LINE
  8
0
 10
-14.731000
 11
-14.406000
 20
20.931000
 21
20.739000
  0
LINE
  8
0
 10
-14.406000
 11
-14.114000
 20
20.739000
 21
20.552000
  0
LINE
  8
0
 10
-14.114000
 11
-14.110000
 20
20.552000
 21
20.546000
  0
LINE
  8
0
 10
-14.110000
 11
-13.421000
 20
20.546000
 21
21.002000
  0
LINE
  8
0
 10
-13.421000
 11
-13.425000
 20
21.002000
 21
21.009000
  0
LINE
  8
0
 10
-13.425000
 11
-13.484000
 20
21.009000
 21
21.351000
  0
LINE
  8
0
 10
-13.484000
 11
-13.534000
 20
21.351000
 21
21.725000
  0
LINE
  8
0
 10
-13.534000
 11
-13.573000
 20
21.725000
 21
22.129000
  0
LINE
  8
0
 10
-13.573000
 11
-13.600000
 20
22.129000
 21
22.564000
  0
LINE
  8
0
 10
-13.600000
 11
-13.612000
 20
22.564000
 21
23.029000
  0
LINE
  8
0
 10
-13.612000
 11
-13.138000
 20
23.029000
 21
23.303000
  0
LINE
  8
0
 10
-13.138000
 11
-12.741000
 20
23.303000
 21
23.060000
  0
LINE
  8
0
 10
-12.741000
 11
-12.378000
 20
23.060000
 21
22.819000
  0
LINE
  8
0
 10
-12.378000
 11
-12.047000
 20
22.819000
 21
22.583000
  0
LINE
  8
0
 10
-12.047000
 11
-11.748000
 20
22.583000
 21
22.353000
  0
LINE
  8
0
 10
-11.748000
 11
-11.482000
 20
22.353000
 21
22.131000
  0
LINE
  8
0
 10
-11.482000
 11
-11.478000
 20
22.131000
 21
22.123000
  0
LINE
  8
0
 10
-11.478000
 11
-10.738000
 20
22.123000
 21
22.492000
  0
LINE
  8
0
 10
-10.738000
 11
-10.742000
 20
22.492000
 21
22.500000
  0
LINE
  8
0
 10
-10.742000
 11
-10.758000
 20
22.500000
 21
22.846000
  0
LINE
  8
0
 10
-10.758000
 11
-10.761000
 20
22.846000
 21
23.223000
  0
LINE
  8
0
 10
-10.761000
 11
-10.751000
 20
23.223000
 21
23.629000
  0
LINE
  8
0
 10
-10.751000
 11
-10.724000
 20
23.629000
 21
24.064000
  0
LINE
  8
0
 10
-10.724000
 11
-10.679000
 20
24.064000
 21
24.527000
  0
LINE
  8
0
 10
-10.679000
 11
-10.174000
 20
24.527000
 21
24.741000
  0
LINE
  8
0
 10
-10.174000
 11
-9.811000
 20
24.741000
 21
24.451000
  0
LINE
  8
0
 10
-9.811000
 11
-9.480000
 20
24.451000
 21
24.167000
  0
LINE
  8
0
 10
-9.480000
 11
-9.181000
 20
24.167000
 21
23.892000
  0
LINE
  8
0
 10
-9.181000
 11
-8.912000
 20
23.892000
 21
23.627000
  0
LINE
  8
0
 10
-8.912000
 11
-8.675000
 20
23.627000
 21
23.374000
  0
LINE
  8
0
 10
-8.675000
 11
-8.672000
 20
23.374000
 21
23.367000
  0
LINE
  8
0
 10
-8.672000
 11
-7.892000
 20
23.367000
 21
23.641000
  0
LINE
  8
0
 10
-7.892000
 11
-7.895000
 20
23.641000
 21
23.649000
  0
LINE
  8
0
 10
-7.895000
 11
-7.869000
 20
23.649000
 21
23.995000
  0
LINE
  8
0
 10
-7.869000
 11
-7.826000
 20
23.995000
 21
24.370000
  0
LINE
  8
0
 10
-7.826000
 11
-7.765000
 20
24.370000
 21
24.772000
  0
LINE
  8
0
 10
-7.765000
 11
-7.686000
 20
24.772000
 21
25.200000
  0
LINE
  8
0
 10
-7.686000
 11
-7.584000
 20
25.200000
 21
25.654000
  0
LINE
  8
0
 10
-7.584000
 11
-7.057000
 20
25.654000
 21
25.804000
  0
LINE
  8
0
 10
-7.057000
 11
-6.731000
 20
25.804000
 21
25.471000
  0
LINE
  8
0
 10
-6.731000
 11
-6.438000
 20
25.471000
 21
25.149000
  0
LINE
  8
0
 10
-6.438000
 11
-6.175000
 20
25.149000
 21
24.839000
  0
LINE
  8
0
 10
-6.175000
 11
-5.941000
 20
24.839000
 21
24.543000
  0
LINE
  8
0
 10
-5.941000
 11
-5.737000
 20
24.543000
 21
24.263000
  0
LINE
  8
0
 10
-5.737000
 11
-5.735000
 20
24.263000
 21
24.255000
  0
LINE
  8
0
 10
-5.735000
 11
-4.927000
 20
24.255000
 21
24.432000
  0
LINE
  8
0
 10
-4.927000
 11
-4.929000
 20
24.432000
 21
24.440000
  0
LINE
  8
0
 10
-4.929000
 11
-4.861000
 20
24.440000
 21
24.780000
  0
LINE
  8
0
 10
-4.861000
 11
-4.772000
 20
24.780000
 21
25.147000
  0
LINE
  8
0
 10
-4.772000
 11
-4.663000
 20
25.147000
 21
25.538000
  0
LINE
  8
0
 10
-4.663000
 11
-4.531000
 20
25.538000
 21
25.953000
  0
LINE
  8
0
 10
-4.531000
 11
-4.374000
 20
25.953000
 21
26.391000
  0
LINE
  8
0
 10
-4.374000
 11
-3.832000
 20
26.391000
 21
26.475000
  0
LINE
  8
0
 10
-3.832000
 11
-3.550000
 20
26.475000
 21
26.105000
  0
LINE
  8
0
 10
-3.550000
 11
-3.299000
 20
26.105000
 21
25.750000
  0
LINE
  8
0
 10
-3.299000
 11
-3.076000
 20
25.750000
 21
25.410000
  0
LINE
  8
0
 10
-3.076000
 11
-2.880000
 20
25.410000
 21
25.087000
  0
LINE
  8
0
 10
-2.880000
 11
-2.712000
 20
25.087000
 21
24.784000
  0
LINE
  8
0
 10
-2.712000
 11
-2.711000
 20
24.784000
 21
24.776000
  0
LINE
  8
0
 10
-2.711000
 11
-1.887000
 20
24.776000
 21
24.852000
  0
LINE
  8
0
 10
-1.887000
 11
-1.888000
 20
24.852000
 21
24.861000
  0
LINE
  8
0
 10
-1.888000
 11
-1.779000
 20
24.861000
 21
25.189000
  0
LINE
  8
0
 10
-1.779000
 11
-1.645000
 20
25.189000
 21
25.542000
  0
LINE
  8
0
 10
-1.645000
 11
-1.489000
 20
25.542000
 21
25.917000
  0
LINE
  8
0
 10
-1.489000
 11
-1.307000
 20
25.917000
 21
26.313000
  0
LINE
  8
0
 10
-1.307000
 11
-1.098000
 20
26.313000
 21
26.729000
  0
LINE
  8
0
 10
-1.098000
 11
-0.550000
 20
26.729000
 21
26.746000
  0
LINE
  8
0
 10
-0.550000
 11
-0.315000
 20
26.746000
 21
26.344000
  0
LINE
  8
0
 10
-0.315000
 11
-0.109000
 20
26.344000
 21
25.960000
  0
LINE
  8
0
 10
-0.109000
 11
0.070000
 20
25.960000
 21
25.595000
  0
LINE
  8
0
 10
0.070000
 11
0.225000
 20
25.595000
 21
25.251000
  0
LINE
  8
0
 10
0.225000
 11
0.354000
 20
25.251000
 21
24.930000
  0
LINE
  8
0
 10
0.354000
 11
0.354000
 20
24.930000
 21
24.921000
  0
LINE
  8
0
 10
0.354000
 11
1.181000
 20
24.921000
 21
24.896000
  0
LINE
  8
0
 10
1.181000
 11
1.181000
 20
24.896000
 21
24.904000
  0
LINE
  8
0
 10
1.181000
 11
1.330000
 20
24.904000
 21
25.217000
  0
LINE
  8
0
 10
1.330000
 11
1.506000
 20
25.217000
 21
25.551000
  0
LINE
  8
0
 10
1.506000
 11
1.707000
 20
25.551000
 21
25.904000
  0
LINE
  8
0
 10
1.707000
 11
1.937000
 20
25.904000
 21
26.274000
  0
LINE
  8
0
 10
1.937000
 11
2.195000
 20
26.274000
 21
26.661000
  0
LINE
  8
0
 10
2.195000
 11
2.741000
 20
26.661000
 21
26.611000
  0
LINE
  8
0
 10
2.741000
 11
2.924000
 20
26.611000
 21
26.183000
  0
LINE
  8
0
 10
2.924000
 11
3.082000
 20
26.183000
 21
25.777000
  0
LINE
  8
0
 10
3.082000
 11
3.215000
 20
25.777000
 21
25.393000
  0
LINE
  8
0
 10
3.215000
 11
3.326000
 20
25.393000
 21
25.032000
  0
LINE
  8
0
 10
3.326000
 11
3.415000
 20
25.032000
 21
24.697000
  0
LINE
  8
0
 10
3.415000
 11
3.414000
 20
24.697000
 21
24.689000
  0
LINE
  8
0
 10
3.414000
 11
4.231000
 20
24.689000
 21
24.562000
  0
LINE
  8
0
 10
4.231000
 11
4.232000
 20
24.562000
 21
24.570000
  0
LINE
  8
0
 10
4.232000
 11
4.419000
 20
24.570000
 21
24.862000
  0
LINE
  8
0
 10
4.419000
 11
4.634000
 20
24.862000
 21
25.172000
  0
LINE
  8
0
 10
4.634000
 11
4.878000
 20
25.172000
 21
25.498000
  0
LINE
  8
0
 10
4.878000
 11
5.151000
 20
25.498000
 21
25.837000
  0
LINE
  8
0
 10
5.151000
 11
5.455000
 20
25.837000
 21
26.189000
  0
LINE
  8
0
 10
5.455000
 11
5.990000
 20
26.189000
 21
26.072000
  0
LINE
  8
0
 10
5.990000
 11
6.120000
 20
26.072000
 21
25.625000
  0
LINE
  8
0
 10
6.120000
 11
6.226000
 20
25.625000
 21
25.203000
  0
LINE
  8
0
 10
6.226000
 11
6.311000
 20
25.203000
 21
24.805000
  0
LINE
  8
0
 10
6.311000
 11
6.377000
 20
24.805000
 21
24.433000
  0
LINE
  8
0
 10
6.377000
 11
6.424000
 20
24.433000
 21
24.090000
  0
LINE
  8
0
 10
6.424000
 11
6.422000
 20
24.090000
 21
24.082000
  0
LINE
  8
0
 10
6.422000
 11
7.218000
 20
24.082000
 21
23.856000
  0
LINE
  8
0
 10
7.218000
 11
7.220000
 20
23.856000
 21
23.864000
  0
LINE
  8
0
 10
7.220000
 11
7.441000
 20
23.864000
 21
24.131000
  0
LINE
  8
0
 10
7.441000
 11
7.693000
 20
24.131000
 21
24.412000
  0
LINE
  8
0
 10
7.693000
 11
7.974000
 20
24.412000
 21
24.705000
  0
LINE
  8
0
 10
7.974000
 11
8.287000
 20
24.705000
 21
25.008000
  0
LINE
  8
0
 10
8.287000
 11
8.632000
 20
25.008000
 21
25.320000
  0
LINE
  8
0
 10
8.632000
 11
9.149000
 20
25.320000
 21
25.138000
  0
LINE
  8
0
 10
9.149000
 11
9.222000
 20
25.138000
 21
24.679000
  0
LINE
  8
0
 10
9.222000
 11
9.276000
 20
24.679000
 21
24.246000
  0
LINE
  8
0
 10
9.276000
 11
9.311000
 20
24.246000
 21
23.842000
  0
LINE
  8
0
 10
9.311000
 11
9.331000
 20
23.842000
 21
23.465000
  0
LINE
  8
0
 10
9.331000
 11
9.336000
 20
23.465000
 21
23.118000
  0
LINE
  8
0
 10
9.336000
 11
9.333000
 20
23.118000
 21
23.110000
  0
LINE
  8
0
 10
9.333000
 11
10.094000
 20
23.110000
 21
22.788000
  0
LINE
  8
0
 10
10.094000
 11
10.098000
 20
22.788000
 21
22.796000
  0
LINE
  8
0
 10
10.098000
 11
10.350000
 20
22.796000
 21
23.033000
  0
LINE
  8
0
 10
10.350000
 11
10.634000
 20
23.033000
 21
23.282000
  0
LINE
  8
0
 10
10.634000
 11
10.950000
 20
23.282000
 21
23.538000
  0
LINE
  8
0
 10
10.950000
 11
11.297000
 20
23.538000
 21
23.801000
  0
LINE
  8
0
 10
11.297000
 11
11.678000
 20
23.801000
 21
24.068000
  0
LINE
  8
0
 10
11.678000
 11
12.169000
 20
24.068000
 21
23.823000
  0
LINE
  8
0
 10
12.169000
 11
12.185000
 20
23.823000
 21
23.358000
  0
LINE
  8
0
 10
12.185000
 11
12.185000
 20
23.358000
 21
22.923000
  0
LINE
  8
0
 10
12.185000
 11
12.170000
 20
22.923000
 21
22.517000
  0
LINE
  8
0
 10
12.170000
 11
12.144000
 20
22.517000
 21
22.140000
  0
LINE
  8
0
 10
12.144000
 11
12.106000
 20
22.140000
 21
21.796000
  0
LINE
  8
0
 10
12.106000
 11
12.102000
 20
21.796000
 21
21.789000
  0
LINE
  8
0
 10
12.102000
 11
12.818000
 20
21.789000
 21
21.375000
  0
LINE
  8
0
 10
12.818000
 11
12.822000
 20
21.375000
 21
21.382000
  0
LINE
  8
0
 10
12.822000
 11
13.102000
 20
21.382000
 21
21.587000
  0
LINE
  8
0
 10
13.102000
 11
13.415000
 20
21.587000
 21
21.798000
  0
LINE
  8
0
 10
13.415000
 11
13.759000
 20
21.798000
 21
22.014000
  0
LINE
  8
0
 10
13.759000
 11
14.136000
 20
22.014000
 21
22.232000
  0
LINE
  8
0
 10
14.136000
 11
14.547000
 20
22.232000
 21
22.450000
  0
LINE
  8
0
 10
14.547000
 11
15.004000
 20
22.450000
 21
22.148000
  0
LINE
  8
0
 10
15.004000
 11
14.963000
 20
22.148000
 21
21.684000
  0
LINE
  8
0
 10
14.963000
 11
14.910000
 20
21.684000
 21
21.252000
  0
LINE
  8
0
 10
14.910000
 11
14.845000
 20
21.252000
 21
20.850000
  0
LINE
  8
0
 10
14.845000
 11
14.773000
 20
20.850000
 21
20.480000
  0
LINE
  8
0
 10
14.773000
 11
14.693000
 20
20.480000
 21
20.143000
  0
LINE
  8
0
 10
14.693000
 11
14.688000
 20
20.143000
 21
20.136000
  0
LINE
  8
0
 10
14.688000
 11
15.348000
 20
20.136000
 21
19.638000
  0
LINE
  8
0
 10
15.348000
 11
15.353000
 20
19.638000
 21
19.644000
  0
LINE
  8
0
 10
15.353000
 11
15.655000
 20
19.644000
 21
19.813000
  0
LINE
  8
0
 10
15.655000
 11
15.992000
 20
19.813000
 21
19.985000
  0
LINE
  8
0
 10
15.992000
 11
16.360000
 20
19.985000
 21
20.156000
  0
LINE
  8
0
 10
16.360000
 11
16.761000
 20
20.156000
 21
20.326000
  0
LINE
  8
0
 10
16.761000
 11
17.196000
 20
20.326000
 21
20.492000
  0
LINE
  8
0
 10
17.196000
 11
17.612000
 20
20.492000
 21
20.136000
  0
LINE
  8
0
 10
17.612000
 11
17.515000
 20
20.136000
 21
19.681000
  0
LINE
  8
0
 10
17.515000
 11
17.408000
 20
19.681000
 21
19.258000
  0
LINE
  8
0
 10
17.408000
 11
17.295000
 20
19.258000
 21
18.868000
  0
LINE
  8
0
 10
17.295000
 11
17.177000
 20
18.868000
 21
18.509000
  0
LINE
  8
0
 10
17.177000
 11
17.057000
 20
18.509000
 21
18.185000
  0
LINE
  8
0
 10
17.057000
 11
17.051000
 20
18.185000
 21
18.179000
  0
LINE
  8
0
 10
17.051000
 11
17.645000
 20
18.179000
 21
17.603000
  0
LINE
  8
0
 10
17.645000
 11
17.651000
 20
17.603000
 21
17.609000
  0
LINE
  8
0
 10
17.651000
 11
17.972000
 20
17.609000
 21
17.739000
  0
LINE
  8
0
 10
17.972000
 11
18.327000
 20
17.739000
 21
17.868000
  0
LINE
  8
0
 10
18.327000
 11
18.713000
 20
17.868000
 21
17.993000
  0
LINE
  8
0
 10
18.713000
 11
19.132000
 20
17.993000
 21
18.112000
  0
LINE
  8
0
 10
19.132000
 11
19.584000
 20
18.112000
 21
18.224000
  0
LINE
  8
0
 10
19.584000
 11
19.953000
 20
18.224000
 21
17.819000
  0
LINE
  8
0
 10
19.953000
 11
19.800000
 20
17.819000
 21
17.379000
  0
LINE
  8
0
 10
19.800000
 11
19.643000
 20
17.379000
 21
16.973000
  0
LINE
  8
0
 10
19.643000
 11
19.483000
 20
16.973000
 21
16.600000
  0
LINE
  8
0
 10
19.483000
 11
19.322000
 20
16.600000
 21
16.258000
  0
LINE
  8
0
 10
19.322000
 11
19.162000
 20
16.258000
 21
15.951000
  0
LINE
  8
0
 10
19.162000
 11
19.156000
 20
15.951000
 21
15.946000
  0
LINE
  8
0
 10
19.156000
 11
19.675000
 20
15.946000
 21
15.301000
  0
LINE
  8
0
 10
19.675000
 11
19.681000
 20
15.301000
 21
15.306000
  0
LINE
  8
0
 10
19.681000
 11
20.015000
 20
15.306000
 21
15.396000
  0
LINE
  8
0
 10
20.015000
 11
20.383000
 20
15.396000
 21
15.480000
  0
LINE
  8
0
 10
20.383000
 11
20.782000
 20
15.480000
 21
15.557000
  0
LINE
  8
0
 10
20.782000
 11
21.213000
 20
15.557000
 21
15.624000
  0
LINE
  8
0
 10
21.213000
 11
21.675000
 20
15.624000
 21
15.679000
  0
LINE
  8
0
 10
21.675000
 11
21.992000
 20
15.679000
 21
15.232000
  0
LINE
  8
0
 10
21.992000
 11
21.786000
 20
15.232000
 21
14.814000
  0
LINE
  8
0
 10
21.786000
 11
21.580000
 20
14.814000
 21
14.431000
  0
LINE
  8
0
 10
21.580000
 11
21.375000
 20
14.431000
 21
14.080000
  0
LINE
  8
0
 10
21.375000
 11
21.173000
 20
14.080000
 21
13.761000
  0
LINE
  8
0
 10
21.173000
 11
20.977000
 20
13.761000
 21
13.475000
  0
LINE
  8
0
 10
20.977000
 11
20.970000
 20
13.475000
 21
13.471000
  0
LINE
  8
0
 10
20.970000
 11
21.405000
 20
13.471000
 21
12.768000
  0
LINE
  8
0
 10
21.405000
 11
21.413000
 20
12.768000
 21
12.772000
  0
LINE
  8
0
 10
21.413000
 11
21.756000
 20
12.772000
 21
12.820000
  0
LINE
  8
0
 10
21.756000
 11
22.131000
 20
12.820000
 21
12.858000
  0
LINE
  8
0
 10
22.131000
 11
22.537000
 20
12.858000
 21
12.885000
  0
LINE
  8
0
 10
22.537000
 11
22.972000
 20
12.885000
 21
12.899000
  0
LINE
  8
0
 10
22.972000
 11
23.437000
 20
12.899000
 21
12.897000
  0
LINE
  8
0
 10
23.437000
 11
23.697000
 20
12.897000
 21
12.414000
  0
LINE
  8
0
 10
23.697000
 11
23.441000
 20
12.414000
 21
12.025000
  0
LINE
  8
0
 10
23.441000
 11
23.190000
 20
12.025000
 21
11.669000
  0
LINE
  8
0
 10
23.190000
 11
22.943000
 20
11.669000
 21
11.346000
  0
LINE
  8
0
 10
22.943000
 11
22.704000
 20
11.346000
 21
11.054000
  0
LINE
  8
0
 10
22.704000
 11
22.474000
 20
11.054000
 21
10.795000
  0
LINE
  8
0
 10
22.474000
 11
22.467000
 20
10.795000
 21
10.791000
  0
LINE
  8
0
 10
22.467000
 11
22.813000
 20
10.791000
 21
10.041000
  0
LINE
  8
0
 10
22.813000
 11
22.820000
 20
10.041000
 21
10.044000
  0
LINE
  8
0
 10
22.820000
 11
23.166000
 20
10.044000
 21
10.049000
  0
LINE
  8
0
 10
23.166000
 11
23.544000
 20
10.049000
 21
10.041000
  0
LINE
  8
0
 10
23.544000
 11
23.949000
 20
10.041000
 21
10.018000
  0
LINE
  8
0
 10
23.949000
 11
24.383000
 20
10.018000
 21
9.978000
  0
LINE
  8
0
 10
24.383000
 11
24.845000
 20
9.978000
 21
9.919000
  0
LINE
  8
0
 10
24.845000
 11
25.043000
 20
9.919000
 21
9.408000
  0
LINE
  8
0
 10
25.043000
 11
24.741000
 20
9.408000
 21
9.053000
  0
LINE
  8
0
 10
24.741000
 11
24.448000
 20
9.053000
 21
8.731000
  0
LINE
  8
0
 10
24.448000
 11
24.164000
 20
8.731000
 21
8.441000
  0
LINE
  8
0
 10
24.164000
 11
23.890000
 20
8.441000
 21
8.181000
  0
LINE
  8
0
 10
23.890000
 11
23.630000
 20
8.181000
 21
7.951000
  0
LINE
  8
0
 10
23.630000
 11
23.622000
 20
7.951000
 21
7.948000
  0
LINE
  8
0
 10
23.622000
 11
23.873000
 20
7.948000
 21
7.161000
  0
LINE
  8
0
 10
23.873000
 11
23.881000
 20
7.161000
 21
7.163000
  0
LINE
  8
0
 10
23.881000
 11
24.226000
 20
7.163000
 21
7.126000
  0
LINE
  8
0
 10
24.226000
 11
24.599000
 20
7.126000
 21
7.072000
  0
LINE
  8
0
 10
24.599000
 11
24.999000
 20
7.072000
 21
6.999000
  0
LINE
  8
0
 10
24.999000
 11
25.424000
 20
6.999000
 21
6.906000
  0
LINE
  8
0
 10
25.424000
 11
25.875000
 20
6.906000
 21
6.790000
  0
LINE
  8
0
 10
25.875000
 11
26.009000
 20
6.790000
 21
6.259000
  0
LINE
  8
0
 10
26.009000
 11
25.666000
 20
6.259000
 21
5.944000
  0
LINE
  8
0
 10
25.666000
 11
25.336000
 20
5.944000
 21
5.661000
  0
LINE
  8
0
 10
25.336000
 11
25.018000
 20
5.661000
 21
5.407000
  0
LINE
  8
0
 10
25.018000
 11
24.714000
 20
5.407000
 21
5.183000
  0
LINE
  8
0
 10
24.714000
 11
24.428000
 20
5.183000
 21
4.987000
  0
LINE
  8
0
 10
24.428000
 11
24.420000
 20
4.987000
 21
4.985000
  0
LINE
  8
0
 10
24.420000
 11
24.572000
 20
4.985000
 21
4.173000
  0
LINE
  8
0
 10
24.572000
 11
24.580000
 20
4.173000
 21
4.174000
  0
LINE
  8
0
 10
24.580000
 11
24.918000
 20
4.174000
 21
4.095000
  0
LINE
  8
0
 10
24.918000
 11
25.282000
 20
4.095000
 21
3.995000
  0
LINE
  8
0
 10
25.282000
 11
25.670000
 20
3.995000
 21
3.874000
  0
LINE
  8
0
 10
25.670000
 11
26.080000
 20
3.874000
 21
3.729000
  0
LINE
  8
0
 10
26.080000
 11
26.514000
 20
3.729000
 21
3.559000
  0
LINE
  8
0
 10
26.514000
 11
26.581000
 20
3.559000
 21
3.015000
  0
LINE
  8
0
 10
26.581000
 11
26.202000
 20
3.015000
 21
2.745000
  0
LINE
  8
0
 10
26.202000
 11
25.839000
 20
2.745000
 21
2.504000
  0
LINE
  8
0
 10
25.839000
 11
25.493000
 20
2.504000
 21
2.292000
  0
LINE
  8
0
 10
25.493000
 11
25.164000
 20
2.292000
 21
2.106000
  0
LINE
  8
0
 10
25.164000
 11
24.856000
 20
2.106000
 21
1.947000
  0
LINE
  8
0
 10
24.856000
 11
24.848000
 20
1.947000
 21
1.946000
  0
LINE
  8
0
 10
24.848000
 11
24.898000
 20
1.946000
 21
1.122000
  0
LINE
  8
0
 10
24.898000
 11
24.907000
 20
1.122000
 21
1.122000
  0
LINE
  8
0
 10
24.907000
 11
25.232000
 20
1.122000
 21
1.002000
  0
LINE
  8
0
 10
25.232000
 11
25.581000
 20
1.002000
 21
0.858000
  0
LINE
  8
0
 10
25.581000
 11
25.951000
 20
0.858000
 21
0.690000
  0
LINE
  8
0
 10
25.951000
 11
26.341000
 20
0.690000
 21
0.496000
  0
LINE
  8
0
 10
26.341000
 11
26.750000
 20
0.496000
 21
0.274000
  0
LINE
  8
0
 10
26.750000
 11
26.750000
 20
0.274000
 21
-0.274000
  0
LINE
  8
0
 10
26.750000
 11
26.341000
 20
-0.274000
 21
-0.496000
  0
LINE
  8
0
 10
26.341000
 11
25.951000
 20
-0.496000
 21
-0.690000
  0
LINE
  8
0
 10
25.951000
 11
25.581000
 20
-0.690000
 21
-0.858000
  0
LINE
  8
0
 10
25.581000
 11
25.232000
 20
-0.858000
 21
-1.002000
  0
LINE
  8
0
 10
25.232000
 11
24.907000
 20
-1.002000
 21
-1.122000
  0
LINE
  8
0
 10
24.907000
 11
24.898000
 20
-1.122000
 21
-1.122000
  0
LINE
  8
0
 10
24.898000
 11
24.848000
 20
-1.122000
 21
-1.946000
  0
LINE
  8
0
 10
24.848000
 11
24.856000
 20
-1.946000
 21
-1.947000
  0
LINE
  8
0
 10
24.856000
 11
25.164000
 20
-1.947000
 21
-2.106000
  0
LINE
  8
0
 10
25.164000
 11
25.493000
 20
-2.106000
 21
-2.292000
  0
LINE
  8
0
 10
25.493000
 11
25.839000
 20
-2.292000
 21
-2.504000
  0
LINE
  8
0
 10
25.839000
 11
26.202000
 20
-2.504000
 21
-2.745000
  0
LINE
  8
0
 10
26.202000
 11
26.581000
 20
-2.745000
 21
-3.015000
  0
LINE
  8
0
 10
26.581000
 11
26.514000
 20
-3.015000
 21
-3.559000
  0
LINE
  8
0
 10
26.514000
 11
26.080000
 20
-3.559000
 21
-3.729000
  0
LINE
  8
0
 10
26.080000
 11
25.670000
 20
-3.729000
 21
-3.874000
  0
LINE
  8
0
 10
25.670000
 11
25.282000
 20
-3.874000
 21
-3.995000
  0
LINE
  8
0
 10
25.282000
 11
24.918000
 20
-3.995000
 21
-4.095000
  0
LINE
  8
0
 10
24.918000
 11
24.580000
 20
-4.095000
 21
-4.174000
  0
LINE
  8
0
 10
24.580000
 11
24.572000
 20
-4.174000
 21
-4.173000
  0
LINE
  8
0
 10
24.572000
 11
24.420000
 20
-4.173000
 21
-4.985000
  0
LINE
  8
0
 10
24.420000
 11
24.428000
 20
-4.985000
 21
-4.987000
  0
LINE
  8
0
 10
24.428000
 11
24.714000
 20
-4.987000
 21
-5.183000
  0
LINE
  8
0
 10
24.714000
 11
25.018000
 20
-5.183000
 21
-5.407000
  0
LINE
  8
0
 10
25.018000
 11
25.336000
 20
-5.407000
 21
-5.661000
  0
LINE
  8
0
 10
25.336000
 11
25.666000
 20
-5.661000
 21
-5.944000
  0
LINE
  8
0
 10
25.666000
 11
26.009000
 20
-5.944000
 21
-6.259000
  0
LINE
  8
0
 10
26.009000
 11
25.875000
 20
-6.259000
 21
-6.790000
  0
LINE
  8
0
 10
25.875000
 11
25.424000
 20
-6.790000
 21
-6.906000
  0
LINE
  8
0
 10
25.424000
 11
24.999000
 20
-6.906000
 21
-6.999000
  0
LINE
  8
0
 10
24.999000
 11
24.599000
 20
-6.999000
 21
-7.072000
  0
LINE
  8
0
 10
24.599000
 11
24.226000
 20
-7.072000
 21
-7.126000
  0
LINE
  8
0
 10
24.226000
 11
23.881000
 20
-7.126000
 21
-7.163000
  0
LINE
  8
0
 10
23.881000
 11
23.873000
 20
-7.163000
 21
-7.161000
  0
LINE
  8
0
 10
23.873000
 11
23.623000
 20
-7.161000
 21
-7.948000
  0
LINE
  8
0
 10
23.623000
 11
23.630000
 20
-7.948000
 21
-7.951000
  0
LINE
  8
0
 10
23.630000
 11
23.890000
 20
-7.951000
 21
-8.181000
  0
LINE
  8
0
 10
23.890000
 11
24.164000
 20
-8.181000
 21
-8.441000
  0
LINE
  8
0
 10
24.164000
 11
24.448000
 20
-8.441000
 21
-8.731000
  0
LINE
  8
0
 10
24.448000
 11
24.741000
 20
-8.731000
 21
-9.053000
  0
LINE
  8
0
 10
24.741000
 11
25.043000
 20
-9.053000
 21
-9.408000
  0
LINE
  8
0
 10
25.043000
 11
24.845000
 20
-9.408000
 21
-9.919000
  0
LINE
  8
0
 10
24.845000
 11
24.383000
 20
-9.919000
 21
-9.978000
  0
LINE
  8
0
 10
24.383000
 11
23.949000
 20
-9.978000
 21
-10.018000
  0
LINE
  8
0
 10
23.949000
 11
23.544000
 20
-10.018000
 21
-10.041000
  0
LINE
  8
0
 10
23.544000
 11
23.166000
 20
-10.041000
 21
-10.049000
  0
LINE
  8
0
 10
23.166000
 11
22.820000
 20
-10.049000
 21
-10.044000
  0
LINE
  8
0
 10
22.820000
 11
22.812000
 20
-10.044000
 21
-10.041000
  0
LINE
  8
0
 10
22.812000
 11
22.467000
 20
-10.041000
 21
-10.792000
  0
LINE
  8
0
 10
22.467000
 11
22.474000
 20
-10.792000
 21
-10.795000
  0
LINE
  8
0
 10
22.474000
 11
22.704000
 20
-10.795000
 21
-11.054000
  0
LINE
  8
0
 10
22.704000
 11
22.943000
 20
-11.054000
 21
-11.346000
  0
LINE
  8
0
 10
22.943000
 11
23.190000
 20
-11.346000
 21
-11.669000
  0
LINE
  8
0
 10
23.190000
 11
23.441000
 20
-11.669000
 21
-12.025000
  0
LINE
  8
0
 10
23.441000
 11
23.697000
 20
-12.025000
 21
-12.414000
  0
LINE
  8
0
 10
23.697000
 11
23.437000
 20
-12.414000
 21
-12.897000
  0
LINE
  8
0
 10
23.437000
 11
22.972000
 20
-12.897000
 21
-12.899000
  0
LINE
  8
0
 10
22.972000
 11
22.537000
 20
-12.899000
 21
-12.885000
  0
LINE
  8
0
 10
22.537000
 11
22.131000
 20
-12.885000
 21
-12.858000
  0
LINE
  8
0
 10
22.131000
 11
21.756000
 20
-12.858000
 21
-12.820000
  0
LINE
  8
0
 10
21.756000
 11
21.413000
 20
-12.820000
 21
-12.772000
  0
LINE
  8
0
 10
21.413000
 11
21.405000
 20
-12.772000
 21
-12.767000
  0
LINE
  8
0
 10
21.405000
 11
20.970000
 20
-12.767000
 21
-13.471000
  0
LINE
  8
0
 10
20.970000
 11
20.977000
 20
-13.471000
 21
-13.475000
  0
LINE
  8
0
 10
20.977000
 11
21.173000
 20
-13.475000
 21
-13.761000
  0
LINE
  8
0
 10
21.173000
 11
21.375000
 20
-13.761000
 21
-14.080000
  0
LINE
  8
0
 10
21.375000
 11
21.580000
 20
-14.080000
 21
-14.431000
  0
LINE
  8
0
 10
21.580000
 11
21.786000
 20
-14.431000
 21
-14.814000
  0
LINE
  8
0
 10
21.786000
 11
21.992000
 20
-14.814000
 21
-15.232000
  0
LINE
  8
0
 10
21.992000
 11
21.675000
 20
-15.232000
 21
-15.679000
  0
LINE
  8
0
 10
21.675000
 11
21.213000
 20
-15.679000
 21
-15.624000
  0
LINE
  8
0
 10
21.213000
 11
20.782000
 20
-15.624000
 21
-15.557000
  0
LINE
  8
0
 10
20.782000
 11
20.383000
 20
-15.557000
 21
-15.480000
  0
LINE
  8
0
 10
20.383000
 11
20.015000
 20
-15.480000
 21
-15.396000
  0
LINE
  8
0
 10
20.015000
 11
19.681000
 20
-15.396000
 21
-15.306000
  0
LINE
  8
0
 10
19.681000
 11
19.674000
 20
-15.306000
 21
-15.301000
  0
LINE
  8
0
 10
19.674000
 11
19.156000
 20
-15.301000
 21
-15.946000
  0
LINE
  8
0
 10
19.156000
 11
19.162000
 20
-15.946000
 21
-15.951000
  0
LINE
  8
0
 10
19.162000
 11
19.322000
 20
-15.951000
 21
-16.258000
  0
LINE
  8
0
 10
19.322000
 11
19.483000
 20
-16.258000
 21
-16.600000
  0
LINE
  8
0
 10
19.483000
 11
19.643000
 20
-16.600000
 21
-16.973000
  0
LINE
  8
0
 10
19.643000
 11
19.800000
 20
-16.973000
 21
-17.379000
  0
LINE
  8
0
 10
19.800000
 11
19.953000
 20
-17.379000
 21
-17.819000
  0
LINE
  8
0
 10
19.953000
 11
19.584000
 20
-17.819000
 21
-18.224000
  0
LINE
  8
0
 10
19.584000
 11
19.132000
 20
-18.224000
 21
-18.112000
  0
LINE
  8
0
 10
19.132000
 11
18.713000
 20
-18.112000
 21
-17.993000
  0
LINE
  8
0
 10
18.713000
 11
18.327000
 20
-17.993000
 21
-17.868000
  0
LINE
  8
0
 10
18.327000
 11
17.972000
 20
-17.868000
 21
-17.739000
  0
LINE
  8
0
 10
17.972000
 11
17.651000
 20
-17.739000
 21
-17.609000
  0
LINE
  8
0
 10
17.651000
 11
17.645000
 20
-17.609000
 21
-17.603000
  0
LINE
  8
0
 10
17.645000
 11
17.051000
 20
-17.603000
 21
-18.178000
  0
LINE
  8
0
 10
17.051000
 11
17.057000
 20
-18.178000
 21
-18.185000
  0
LINE
  8
0
 10
17.057000
 11
17.177000
 20
-18.185000
 21
-18.509000
  0
LINE
  8
0
 10
17.177000
 11
17.295000
 20
-18.509000
 21
-18.868000
  0
LINE
  8
0
 10
17.295000
 11
17.408000
 20
-18.868000
 21
-19.258000
  0
LINE
  8
0
 10
17.408000
 11
17.515000
 20
-19.258000
 21
-19.681000
  0
LINE
  8
0
 10
17.515000
 11
17.612000
 20
-19.681000
 21
-20.136000
  0
LINE
  8
0
 10
17.612000
 11
17.196000
 20
-20.136000
 21
-20.492000
  0
LINE
  8
0
 10
17.196000
 11
16.761000
 20
-20.492000
 21
-20.326000
  0
LINE
  8
0
 10
16.761000
 11
16.360000
 20
-20.326000
 21
-20.156000
  0
LINE
  8
0
 10
16.360000
 11
15.992000
 20
-20.156000
 21
-19.985000
  0
LINE
  8
0
 10
15.992000
 11
15.655000
 20
-19.985000
 21
-19.813000
  0
LINE
  8
0
 10
15.655000
 11
15.353000
 20
-19.813000
 21
-19.644000
  0
LINE
  8
0
 10
15.353000
 11
15.348000
 20
-19.644000
 21
-19.638000
  0
LINE
  8
0
 10
15.348000
 11
14.688000
 20
-19.638000
 21
-20.137000
  0
LINE
  8
0
 10
14.688000
 11
14.693000
 20
-20.137000
 21
-20.143000
  0
LINE
  8
0
 10
14.693000
 11
14.773000
 20
-20.143000
 21
-20.480000
  0
LINE
  8
0
 10
14.773000
 11
14.845000
 20
-20.480000
 21
-20.850000
  0
LINE
  8
0
 10
14.845000
 11
14.910000
 20
-20.850000
 21
-21.252000
  0
LINE
  8
0
 10
14.910000
 11
14.963000
 20
-21.252000
 21
-21.684000
  0
LINE
  8
0
 10
14.963000
 11
15.004000
 20
-21.684000
 21
-22.148000
  0
LINE
  8
0
 10
15.004000
 11
14.547000
 20
-22.148000
 21
-22.450000
  0
LINE
  8
0
 10
14.547000
 11
14.136000
 20
-22.450000
 21
-22.232000
  0
LINE
  8
0
 10
14.136000
 11
13.759000
 20
-22.232000
 21
-22.014000
  0
LINE
  8
0
 10
13.759000
 11
13.415000
 20
-22.014000
 21
-21.798000
  0
LINE
  8
0
 10
13.415000
 11
13.102000
 20
-21.798000
 21
-21.587000
  0
LINE
  8
0
 10
13.102000
 11
12.822000
 20
-21.587000
 21
-21.382000
  0
LINE
  8
0
 10
12.822000
 11
12.818000
 20
-21.382000
 21
-21.375000
  0
LINE
  8
0
 10
12.818000
 11
12.102000
 20
-21.375000
 21
-21.788000
  0
LINE
  8
0
 10
12.102000
 11
12.106000
 20
-21.788000
 21
-21.796000
  0
LINE
  8
0
 10
12.106000
 11
12.144000
 20
-21.796000
 21
-22.140000
  0
LINE
  8
0
 10
12.144000
 11
12.170000
 20
-22.140000
 21
-22.517000
  0
LINE
  8
0
 10
12.170000
 11
12.185000
 20
-22.517000
 21
-22.923000
  0
LINE
  8
0
 10
12.185000
 11
12.185000
 20
-22.923000
 21
-23.358000
  0
LINE
  8
0
 10
12.185000
 11
12.169000
 20
-23.358000
 21
-23.823000
  0
LINE
  8
0
 10
12.169000
 11
11.678000
 20
-23.823000
 21
-24.068000
  0
LINE
  8
0
 10
11.678000
 11
11.297000
 20
-24.068000
 21
-23.801000
  0
LINE
  8
0
 10
11.297000
 11
10.950000
 20
-23.801000
 21
-23.538000
  0
LINE
  8
0
 10
10.950000
 11
10.634000
 20
-23.538000
 21
-23.282000
  0
LINE
  8
0
 10
10.634000
 11
10.350000
 20
-23.282000
 21
-23.033000
  0
LINE
  8
0
 10
10.350000
 11
10.098000
 20
-23.033000
 21
-22.796000
  0
LINE
  8
0
 10
10.098000
 11
10.094000
 20
-22.796000
 21
-22.788000
  0
LINE
  8
0
 10
10.094000
 11
9.333000
 20
-22.788000
 21
-23.110000
  0
LINE
  8
0
 10
9.333000
 11
9.336000
 20
-23.110000
 21
-23.118000
  0
LINE
  8
0
 10
9.336000
 11
9.331000
 20
-23.118000
 21
-23.465000
  0
LINE
  8
0
 10
9.331000
 11
9.311000
 20
-23.465000
 21
-23.842000
  0
LINE
  8
0
 10
9.311000
 11
9.276000
 20
-23.842000
 21
-24.246000
  0
LINE
  8
0
 10
9.276000
 11
9.222000
 20
-24.246000
 21
-24.679000
  0
LINE
  8
0
 10
9.222000
 11
9.149000
 20
-24.679000
 21
-25.138000
  0
LINE
  8
0
 10
9.149000
 11
8.632000
 20
-25.138000
 21
-25.320000
  0
LINE
  8
0
 10
8.632000
 11
8.287000
 20
-25.320000
 21
-25.008000
  0
LINE
  8
0
 10
8.287000
 11
7.974000
 20
-25.008000
 21
-24.705000
  0
LINE
  8
0
 10
7.974000
 11
7.693000
 20
-24.705000
 21
-24.412000
  0
LINE
  8
0
 10
7.693000
 11
7.441000
 20
-24.412000
 21
-24.131000
  0
LINE
  8
0
 10
7.441000
 11
7.220000
 20
-24.131000
 21
-23.864000
  0
LINE
  8
0
 10
7.220000
 11
7.218000
 20
-23.864000
 21
-23.856000
  0
LINE
  8
0
 10
7.218000
 11
6.422000
 20
-23.856000
 21
-24.082000
  0
LINE
  8
0
 10
6.422000
 11
6.424000
 20
-24.082000
 21
-24.090000
  0
LINE
  8
0
 10
6.424000
 11
6.377000
 20
-24.090000
 21
-24.433000
  0
LINE
  8
0
 10
6.377000
 11
6.311000
 20
-24.433000
 21
-24.805000
  0
LINE
  8
0
 10
6.311000
 11
6.226000
 20
-24.805000
 21
-25.203000
  0
LINE
  8
0
 10
6.226000
 11
6.120000
 20
-25.203000
 21
-25.625000
  0
LINE
  8
0
 10
6.120000
 11
5.990000
 20
-25.625000
 21
-26.072000
  0
LINE
  8
0
 10
5.990000
 11
5.455000
 20
-26.072000
 21
-26.189000
  0
LINE
  8
0
 10
5.455000
 11
5.151000
 20
-26.189000
 21
-25.837000
  0
LINE
  8
0
 10
5.151000
 11
4.878000
 20
-25.837000
 21
-25.498000
  0
LINE
  8
0
 10
4.878000
 11
4.634000
 20
-25.498000
 21
-25.172000
  0
LINE
  8
0
 10
4.634000
 11
4.419000
 20
-25.172000
 21
-24.862000
  0
LINE
  8
0
 10
4.419000
 11
4.232000
 20
-24.862000
 21
-24.570000
  0
LINE
  8
0
 10
4.232000
 11
4.231000
 20
-24.570000
 21
-24.562000
  0
LINE
  8
0
 10
4.231000
 11
3.414000
 20
-24.562000
 21
-24.689000
  0
LINE
  8
0
 10
3.414000
 11
3.415000
 20
-24.689000
 21
-24.697000
  0
LINE
  8
0
 10
3.415000
 11
3.326000
 20
-24.697000
 21
-25.032000
  0
LINE
  8
0
 10
3.326000
 11
3.215000
 20
-25.032000
 21
-25.393000
  0
LINE
  8
0
 10
3.215000
 11
3.082000
 20
-25.393000
 21
-25.777000
  0
LINE
  8
0
 10
3.082000
 11
2.924000
 20
-25.777000
 21
-26.183000
  0
LINE
  8
0
 10
2.924000
 11
2.741000
 20
-26.183000
 21
-26.611000
  0
LINE
  8
0
 10
2.741000
 11
2.195000
 20
-26.611000
 21
-26.661000
  0
LINE
  8
0
 10
2.195000
 11
1.937000
 20
-26.661000
 21
-26.274000
  0
LINE
  8
0
 10
1.937000
 11
1.707000
 20
-26.274000
 21
-25.904000
  0
LINE
  8
0
 10
1.707000
 11
1.506000
 20
-25.904000
 21
-25.551000
  0
LINE
  8
0
 10
1.506000
 11
1.330000
 20
-25.551000
 21
-25.217000
  0
LINE
  8
0
 10
1.330000
 11
1.181000
 20
-25.217000
 21
-24.904000
  0
LINE
  8
0
 10
1.181000
 11
1.181000
 20
-24.904000
 21
-24.896000
  0
LINE
  8
0
 10
1.181000
 11
0.354000
 20
-24.896000
 21
-24.921000
  0
LINE
  8
0
 10
0.354000
 11
0.354000
 20
-24.921000
 21
-24.930000
  0
LINE
  8
0
 10
0.354000
 11
0.225000
 20
-24.930000
 21
-25.251000
  0
LINE
  8
0
 10
0.225000
 11
0.070000
 20
-25.251000
 21
-25.595000
  0
LINE
  8
0
 10
0.070000
 11
-0.109000
 20
-25.595000
 21
-25.960000
  0
LINE
  8
0
 10
-0.109000
 11
-0.315000
 20
-25.960000
 21
-26.344000
  0
LINE
  8
0
 10
-0.315000
 11
-0.550000
 20
-26.344000
 21
-26.746000
  0
LINE
  8
0
 10
-0.550000
 11
-1.098000
 20
-26.746000
 21
-26.729000
  0
LINE
  8
0
 10
-1.098000
 11
-1.307000
 20
-26.729000
 21
-26.313000
  0
LINE
  8
0
 10
-1.307000
 11
-1.489000
 20
-26.313000
 21
-25.917000
  0
LINE
  8
0
 10
-1.489000
 11
-1.645000
 20
-25.917000
 21
-25.542000
  0
LINE
  8
0
 10
-1.645000
 11
-1.779000
 20
-25.542000
 21
-25.189000
  0
LINE
  8
0
 10
-1.779000
 11
-1.888000
 20
-25.189000
 21
-24.861000
  0
LINE
  8
0
 10
-1.888000
 11
-1.887000
 20
-24.861000
 21
-24.852000
  0
LINE
  8
0
 10
-1.887000
 11
-2.711000
 20
-24.852000
 21
-24.776000
  0
LINE
  8
0
 10
-2.711000
 11
-2.712000
 20
-24.776000
 21
-24.784000
  0
LINE
  8
0
 10
-2.712000
 11
-2.880000
 20
-24.784000
 21
-25.087000
  0
LINE
  8
0
 10
-2.880000
 11
-3.076000
 20
-25.087000
 21
-25.410000
  0
LINE
  8
0
 10
-3.076000
 11
-3.299000
 20
-25.410000
 21
-25.750000
  0
LINE
  8
0
 10
-3.299000
 11
-3.550000
 20
-25.750000
 21
-26.105000
  0
LINE
  8
0
 10
-3.550000
 11
-3.832000
 20
-26.105000
 21
-26.475000
  0
LINE
  8
0
 10
-3.832000
 11
-4.374000
 20
-26.475000
 21
-26.391000
  0
LINE
  8
0
 10
-4.374000
 11
-4.531000
 20
-26.391000
 21
-25.953000
  0
LINE
  8
0
 10
-4.531000
 11
-4.663000
 20
-25.953000
 21
-25.538000
  0
LINE
  8
0
 10
-4.663000
 11
-4.772000
 20
-25.538000
 21
-25.147000
  0
LINE
  8
0
 10
-4.772000
 11
-4.861000
 20
-25.147000
 21
-24.780000
  0
LINE
  8
0
 10
-4.861000
 11
-4.929000
 20
-24.780000
 21
-24.440000
  0
LINE
  8
0
 10
-4.929000
 11
-4.927000
 20
-24.440000
 21
-24.432000
  0
LINE
  8
0
 10
-4.927000
 11
-5.735000
 20
-24.432000
 21
-24.255000
  0
LINE
  8
0
 10
-5.735000
 11
-5.737000
 20
-24.255000
 21
-24.263000
  0
LINE
  8
0
 10
-5.737000
 11
-5.941000
 20
-24.263000
 21
-24.543000
  0
LINE
  8
0
 10
-5.941000
 11
-6.175000
 20
-24.543000
 21
-24.839000
  0
LINE
  8
0
 10
-6.175000
 11
-6.438000
 20
-24.839000
 21
-25.149000
  0
LINE
  8
0
 10
-6.438000
 11
-6.731000
 20
-25.149000
 21
-25.471000
  0
LINE
  8
0
 10
-6.731000
 11
-7.057000
 20
-25.471000
 21
-25.804000
  0
LINE
  8
0
 10
-7.057000
 11
-7.584000
 20
-25.804000
 21
-25.654000
  0
LINE
  8
0
 10
-7.584000
 11
-7.686000
 20
-25.654000
 21
-25.200000
  0
LINE
  8
0
 10
-7.686000
 11
-7.765000
 20
-25.200000
 21
-24.772000
  0
LINE
  8
0
 10
-7.765000
 11
-7.826000
 20
-24.772000
 21
-24.370000
  0
LINE
  8
0
 10
-7.826000
 11
-7.869000
 20
-24.370000
 21
-23.995000
  0
LINE
  8
0
 10
-7.869000
 11
-7.895000
 20
-23.995000
 21
-23.649000
  0
LINE
  8
0
 10
-7.895000
 11
-7.892000
 20
-23.649000
 21
-23.641000
  0
LINE
  8
0
 10
-7.892000
 11
-8.672000
 20
-23.641000
 21
-23.366000
  0
LINE
  8
0
 10
-8.672000
 11
-8.675000
 20
-23.366000
 21
-23.374000
  0
LINE
  8
0
 10
-8.675000
 11
-8.912000
 20
-23.374000
 21
-23.627000
  0
LINE
  8
0
 10
-8.912000
 11
-9.181000
 20
-23.627000
 21
-23.892000
  0
LINE
  8
0
 10
-9.181000
 11
-9.480000
 20
-23.892000
 21
-24.167000
  0
LINE
  8
0
 10
-9.480000
 11
-9.811000
 20
-24.167000
 21
-24.451000
  0
LINE
  8
0
 10
-9.811000
 11
-10.174000
 20
-24.451000
 21
-24.741000
  0
LINE
  8
0
 10
-10.174000
 11
-10.679000
 20
-24.741000
 21
-24.527000
  0
LINE
  8
0
 10
-10.679000
 11
-10.724000
 20
-24.527000
 21
-24.064000
  0
LINE
  8
0
 10
-10.724000
 11
-10.751000
 20
-24.064000
 21
-23.629000
  0
LINE
  8
0
 10
-10.751000
 11
-10.761000
 20
-23.629000
 21
-23.223000
  0
LINE
  8
0
 10
-10.761000
 11
-10.758000
 20
-23.223000
 21
-22.846000
  0
LINE
  8
0
 10
-10.758000
 11
-10.742000
 20
-22.846000
 21
-22.500000
  0
LINE
  8
0
 10
-10.742000
 11
-10.738000
 20
-22.500000
 21
-22.492000
  0
LINE
  8
0
 10
-10.738000
 11
-11.478000
 20
-22.492000
 21
-22.124000
  0
LINE
  8
0
 10
-11.478000
 11
-11.482000
 20
-22.124000
 21
-22.131000
  0
LINE
  8
0
 10
-11.482000
 11
-11.748000
 20
-22.131000
 21
-22.353000
  0
LINE
  8
0
 10
-11.748000
 11
-12.047000
 20
-22.353000
 21
-22.583000
  0
LINE
  8
0
 10
-12.047000
 11
-12.378000
 20
-22.583000
 21
-22.819000
  0
LINE
  8
0
 10
-12.378000
 11
-12.741000
 20
-22.819000
 21
-23.060000
  0
LINE
  8
0
 10
-12.741000
 11
-13.138000
 20
-23.060000
 21
-23.303000
  0
LINE
  8
0
 10
-13.138000
 11
-13.612000
 20
-23.303000
 21
-23.029000
  0
LINE
  8
0
 10
-13.612000
 11
-13.600000
 20
-23.029000
 21
-22.564000
  0
LINE
  8
0
 10
-13.600000
 11
-13.573000
 20
-22.564000
 21
-22.129000
  0
LINE
  8
0
 10
-13.573000
 11
-13.534000
 20
-22.129000
 21
-21.725000
  0
LINE
  8
0
 10
-13.534000
 11
-13.484000
 20
-21.725000
 21
-21.351000
  0
LINE
  8
0
 10
-13.484000
 11
-13.425000
 20
-21.351000
 21
-21.009000
  0
LINE
  8
0
 10
-13.425000
 11
-13.421000
 20
-21.009000
 21
-21.002000
  0
LINE
  8
0
 10
-13.421000
 11
-14.109000
 20
-21.002000
 21
-20.545000
  0
LINE
  8
0
 10
-14.109000
 11
-14.114000
 20
-20.545000
 21
-20.552000
  0
LINE
  8
0
 10
-14.114000
 11
-14.406000
 20
-20.552000
 21
-20.739000
  0
LINE
  8
0
 10
-14.406000
 11
-14.731000
 20
-20.739000
 21
-20.931000
  0
LINE
  8
0
 10
-14.731000
 11
-15.088000
 20
-20.931000
 21
-21.125000
  0
LINE
  8
0
 10
-15.088000
 11
-15.478000
 20
-21.125000
 21
-21.319000
  0
LINE
  8
0
 10
-15.478000
 11
-15.902000
 20
-21.319000
 21
-21.512000
  0
LINE
  8
0
 10
-15.902000
 11
-16.339000
 20
-21.512000
 21
-21.182000
  0
LINE
  8
0
 10
-16.339000
 11
-16.270000
 20
-21.182000
 21
-20.722000
  0
LINE
  8
0
 10
-16.270000
 11
-16.190000
 20
-20.722000
 21
-20.294000
  0
LINE
  8
0
 10
-16.190000
 11
-16.101000
 20
-20.294000
 21
-19.897000
  0
LINE
  8
0
 10
-16.101000
 11
-16.005000
 20
-19.897000
 21
-19.532000
  0
LINE
  8
0
 10
-16.005000
 11
-15.905000
 20
-19.532000
 21
-19.200000
  0
LINE
  8
0
 10
-15.905000
 11
-15.900000
 20
-19.200000
 21
-19.194000
  0
LINE
  8
0
 10
-15.900000
 11
-16.528000
 20
-19.194000
 21
-18.656000
  0
LINE
  8
0
 10
-16.528000
 11
-16.533000
 20
-18.656000
 21
-18.662000
  0
LINE
  8
0
 10
-16.533000
 11
-16.846000
 20
-18.662000
 21
-18.812000
  0
LINE
  8
0
 10
-16.846000
 11
-17.192000
 20
-18.812000
 21
-18.962000
  0
LINE
  8
0
 10
-17.192000
 11
-17.570000
 20
-18.962000
 21
-19.111000
  0
LINE
  8
0
 10
-17.570000
 11
-17.981000
 20
-19.111000
 21
-19.256000
  0
LINE
  8
0
 10
-17.981000
 11
-18.425000
 20
-19.256000
 21
-19.395000
  0
LINE
  8
0
 10
-18.425000
 11
-18.818000
 20
-19.395000
 21
-19.013000
  0
LINE
  8
0
 10
-18.818000
 11
-18.693000
 20
-19.013000
 21
-18.565000
  0
LINE
  8
0
 10
-18.693000
 11
-18.561000
 20
-18.565000
 21
-18.150000
  0
LINE
  8
0
 10
-18.561000
 11
-18.424000
 20
-18.150000
 21
-17.768000
  0
LINE
  8
0
 10
-18.424000
 11
-18.284000
 20
-17.768000
 21
-17.417000
  0
LINE
  8
0
 10
-18.284000
 11
-18.144000
 20
-17.417000
 21
-17.100000
  0
LINE
  8
0
 10
-18.144000
 11
-18.138000
 20
-17.100000
 21
-17.094000
  0
LINE
  8
0
 10
-18.138000
 11
-18.695000
 20
-17.094000
 21
-16.483000
  0
LINE
  8
0
 10
-18.695000
 11
-18.701000
 20
-16.483000
 21
-16.489000
  0
LINE
  8
0
 10
-18.701000
 11
-19.030000
 20
-16.489000
 21
-16.599000
  0
LINE
  8
0
 10
-19.030000
 11
-19.392000
 20
-16.599000
 21
-16.706000
  0
LINE
  8
0
 10
-19.392000
 11
-19.785000
 20
-16.706000
 21
-16.807000
  0
LINE
  8
0
 10
-19.785000
 11
-20.211000
 20
-16.807000
 21
-16.900000
  0
LINE
  8
0
 10
-20.211000
 11
-20.669000
 20
-16.900000
 21
-16.984000
  0
LINE
  8
0
 10
-20.669000
 11
-21.012000
 20
-16.984000
 21
-16.557000
  0
LINE
  8
0
 10
-21.012000
 11
-20.833000
 20
-16.557000
 21
-16.127000
  0
LINE
  8
0
 10
-20.833000
 11
-20.650000
 20
-16.127000
 21
-15.732000
  0
LINE
  8
0
 10
-20.650000
 11
-20.468000
 20
-15.732000
 21
-15.369000
  0
LINE
  8
0
 10
-20.468000
 11
-20.286000
 20
-15.369000
 21
-15.038000
  0
LINE
  8
0
 10
-20.286000
 11
-20.108000
 20
-15.038000
 21
-14.741000
  0
LINE
  8
0
 10
-20.108000
 11
-20.101000
 20
-14.741000
 21
-14.736000
  0
LINE
  8
0
 10
-20.101000
 11
-20.579000
 20
-14.736000
 21
-14.061000
  0
LINE
  8
0
 10
-20.579000
 11
-20.586000
 20
-14.061000
 21
-14.066000
  0
LINE
  8
0
 10
-20.586000
 11
-20.925000
 20
-14.066000
 21
-14.135000
  0
LINE
  8
0
 10
-20.925000
 11
-21.298000
 20
-14.135000
 21
-14.196000
  0
LINE
  8
0
 10
-21.298000
 11
-21.701000
 20
-14.196000
 21
-14.248000
  0
LINE
  8
0
 10
-21.701000
 11
-22.134000
 20
-14.248000
 21
-14.288000
  0
LINE
  8
0
 10
-22.134000
 11
-22.599000
 20
-14.288000
 21
-14.315000
  0
LINE
  8
0
 10
-22.599000
 11
-22.888000
 20
-14.315000
 21
-13.849000
  0
LINE
  8
0
 10
-22.888000
 11
-22.657000
 20
-13.849000
 21
-13.445000
  0
LINE
  8
0
 10
-22.657000
 11
-22.427000
 20
-13.445000
 21
-13.075000
  0
LINE
  8
0
 10
-22.427000
 11
-22.201000
 20
-13.075000
 21
-12.737000
  0
LINE
  8
0
 10
-22.201000
 11
-21.980000
 20
-12.737000
 21
-12.431000
  0
LINE
  8
0
 10
-21.980000
 11
-21.767000
 20
-12.431000
 21
-12.158000
  0
LINE
  8
0
 10
-21.767000
 11
-21.760000
 20
-12.158000
 21
-12.154000
  0
LINE
  8
0
 10
-21.760000
 11
-22.151000
 20
-12.154000
 21
-11.425000
  0
LINE
  8
0
 10
-22.151000
 11
-22.158000
 20
-11.425000
 21
-11.429000
  0
LINE
  8
0
 10
-22.158000
 11
-22.504000
 20
-11.429000
 21
-11.456000
  0
LINE
  8
0
 10
-22.504000
 11
-22.881000
 20
-11.456000
 21
-11.471000
  0
LINE
  8
0
 10
-22.881000
 11
-23.287000
 20
-11.471000
 21
-11.473000
  0
LINE
  8
0
 10
-23.287000
 11
-23.723000
 20
-11.473000
 21
-11.460000
  0
LINE
  8
0
 10
-23.723000
 11
-24.187000
 20
-11.460000
 21
-11.429000
  0
LINE
  8
0
 10
-24.187000
 11
-24.416000
 20
-11.429000
 21
-10.932000
  0
LINE
  8
0
 10
-24.416000
 11
-24.137000
 20
-10.932000
 21
-10.559000
  0
LINE
  8
0
 10
-24.137000
 11
-23.864000
 20
-10.559000
 21
-10.220000
  0
LINE
  8
0
 10
-23.864000
 11
-23.598000
 20
-10.220000
 21
-9.912000
  0
LINE
  8
0
 10
-23.598000
 11
-23.341000
 20
-9.912000
 21
-9.636000
  0
LINE
  8
0
 10
-23.341000
 11
-23.096000
 20
-9.636000
 21
-9.391000
  0
LINE
  8
0
 10
-23.096000
 11
-23.089000
 20
-9.391000
 21
-9.388000
  0
LINE
  8
0
 10
-23.089000
 11
-23.387000
 20
-9.388000
 21
-8.617000
  0
LINE
  8
0
 10
-23.387000
 11
-23.395000
 20
-8.617000
 21
-8.620000
  0
LINE
  8
0
 10
-23.395000
 11
-23.741000
 20
-8.620000
 21
-8.604000
  0
LINE
  8
0
 10
-23.741000
 11
-24.117000
 20
-8.604000
 21
-8.573000
  0
LINE
  8
0
 10
-24.117000
 11
-24.521000
 20
-8.573000
 21
-8.525000
  0
LINE
  8
0
 10
-24.521000
 11
-24.951000
 20
-8.525000
 21
-8.458000
  0
LINE
  8
0
 10
-24.951000
 11
-25.408000
 20
-8.458000
 21
-8.370000
  0
LINE
  8
0
 10
-25.408000
 11
-25.574000
 20
-8.370000
 21
-7.848000
  0
LINE
  8
0
 10
-25.574000
 11
-25.252000
 20
-7.848000
 21
-7.513000
  0
LINE
  8
0
 10
-25.252000
 11
-24.939000
 20
-7.513000
 21
-7.210000
  0
LINE
  8
0
 10
-24.939000
 11
-24.637000
 20
-7.210000
 21
-6.937000
  0
LINE
  8
0
 10
-24.637000
 11
-24.348000
 20
-6.937000
 21
-6.694000
  0
LINE
  8
0
 10
-24.348000
 11
-24.075000
 20
-6.694000
 21
-6.481000
  0
LINE
  8
0
 10
-24.075000
 11
-24.067000
 20
-6.481000
 21
-6.479000
  0
LINE
  8
0
 10
-24.067000
 11
-24.268000
 20
-6.479000
 21
-5.678000
  0
LINE
  8
0
 10
-24.268000
 11
-24.277000
 20
-5.678000
 21
-5.680000
  0
LINE
  8
0
 10
-24.277000
 11
-24.618000
 20
-5.680000
 21
-5.621000
  0
LINE
  8
0
 10
-24.618000
 11
-24.988000
 20
-5.621000
 21
-5.544000
  0
LINE
  8
0
 10
-24.988000
 11
-25.382000
 20
-5.544000
 21
-5.447000
  0
LINE
  8
0
 10
-25.382000
 11
-25.801000
 20
-5.447000
 21
-5.328000
  0
LINE
  8
0
 10
-25.801000
 11
-26.244000
 20
-5.328000
 21
-5.185000
  0
LINE
  8
0
 10
-26.244000
 11
-26.345000
 20
-5.185000
 21
-4.646000
  0
LINE
  8
0
 10
-26.345000
 11
-25.984000
 20
-4.646000
 21
-4.353000
  0
LINE
  8
0
 10
-25.984000
 11
-25.636000
 20
-4.353000
 21
-4.090000
  0
LINE
  8
0
 10
-25.636000
 11
-25.303000
 20
-4.090000
 21
-3.857000
  0
LINE
  8
0
 10
-25.303000
 11
-24.986000
 20
-3.857000
 21
-3.651000
  0
LINE
  8
0
 10
-24.986000
 11
-24.689000
 20
-3.651000
 21
-3.474000
  0
LINE
  8
0
 10
-24.689000
 11
-24.681000
 20
-3.474000
 21
-3.473000
  0
LINE
  8
0
 10
-24.681000
 11
-24.782000
 20
-3.473000
 21
-2.652000
  0
LINE
  8
0
 10
-24.782000
 11
-24.791000
 20
-2.652000
 21
-2.653000
  0
LINE
  8
0
 10
-24.791000
 11
-25.122000
 20
-2.653000
 21
-2.553000
  0
LINE
  8
0
 10
-25.122000
 11
-25.480000
 20
-2.553000
 21
-2.431000
  0
LINE
  8
0
 10
-25.480000
 11
-25.859000
 20
-2.431000
 21
-2.286000
  0
LINE
  8
0
 10
-25.859000
 11
-26.261000
 20
-2.286000
 21
-2.117000
  0
LINE
  8
0
 10
-26.261000
 11
-26.682000
 20
-2.117000
 21
-1.920000
  0
LINE
  8
0
 10
-26.682000
 11
-26.716000
 20
-1.920000
 21
-1.373000
  0
LINE
  8
0
 10
-26.310000
 11
-25.797000
 20
-1.546000
 21
-1.053000
  0
LINE
  8
0
 10
-25.797000
 11
-25.345000
 20
-1.053000
 21
-0.735000
  0
LINE
  8
0
 10
-25.345000
 11
-24.990000
 20
-0.735000
 21
-0.559000
  0
LINE
  8
0
 10
-24.990000
 11
-24.764000
 20
-0.559000
 21
-0.488000
  0
LINE
  8
0
 10
-24.764000
 11
-24.687000
 20
-0.488000
 21
-0.474000
  0
LINE
  8
0
 10
-24.687000
 11
-24.328000
 20
-0.474000
 21
-0.448000
  0
LINE
  8
0
 10
-24.328000
 11
-24.329000
 20
-0.448000
 21
0.448000
  0
LINE
  8
0
 10
-24.329000
 11
-24.687000
 20
0.448000
 21
0.474000
  0
LINE
  8
0
 10
-24.687000
 11
-24.764000
 20
0.474000
 21
0.488000
  0
LINE
  8
0
 10
-24.764000
 11
-24.990000
 20
0.488000
 21
0.559000
  0
LINE
  8
0
 10
-24.990000
 11
-25.344000
 20
0.559000
 21
0.735000
  0
LINE
  8
0
 10
-25.344000
 11
-25.797000
 20
0.735000
 21
1.053000
  0
LINE
  8
0
 10
-25.797000
 11
-26.310000
 20
1.053000
 21
1.546000
  0
LINE
  8
0
 10
-26.310000
 11
-26.220000
 20
1.546000
 21
1.968000
  0
LINE
  8
0
 10
-26.220000
 11
-25.552000
 20
1.968000
 21
2.210000
  0
LINE
  8
0
 10
-25.552000
 11
-25.008000
 20
2.210000
 21
2.316000
  0
LINE
  8
0
 10
-25.008000
 11
-24.614000
 20
2.316000
 21
2.332000
  0
LINE
  8
0
 10
-24.614000
 11
-24.378000
 20
2.332000
 21
2.306000
  0
LINE
  8
0
 10
-24.378000
 11
-24.302000
 20
2.306000
 21
2.287000
  0
LINE
  8
0
 10
-24.302000
 11
-23.964000
 20
2.287000
 21
2.165000
  0
LINE
  8
0
 10
-23.964000
 11
-23.599000
 20
2.165000
 21
2.983000
  0
LINE
  8
0
 10
-23.599000
 11
-23.916000
 20
2.983000
 21
3.153000
  0
LINE
  8
0
 10
-23.916000
 11
-23.981000
 20
3.153000
 21
3.197000
  0
LINE
  8
0
 10
-23.981000
 11
-24.159000
 20
3.197000
 21
3.354000
  0
LINE
  8
0
 10
-24.159000
 11
-24.411000
 20
3.354000
 21
3.659000
  0
LINE
  8
0
 10
-24.411000
 11
-24.695000
 20
3.659000
 21
4.133000
  0
LINE
  8
0
 10
-24.695000
 11
-24.963000
 20
4.133000
 21
4.792000
  0
LINE
  8
0
 10
-24.963000
 11
-24.709000
 20
4.792000
 21
5.142000
  0
LINE
  8
0
 10
-24.709000
 11
-24.000000
 20
5.142000
 21
5.090000
  0
LINE
  8
0
 10
-24.000000
 11
-23.461000
 20
5.090000
 21
4.966000
  0
LINE
  8
0
 10
-23.461000
 11
-23.094000
 20
4.966000
 21
4.821000
  0
LINE
  8
0
 10
-23.094000
 11
-22.889000
 20
4.821000
 21
4.701000
  0
LINE
  8
0
 10
-22.889000
 11
-22.827000
 20
4.701000
 21
4.652000
  0
LINE
  8
0
 10
-22.827000
 11
-22.568000
 20
4.652000
 21
4.403000
  0
LINE
  8
0
 10
-22.568000
 11
-21.902000
 20
4.403000
 21
5.003000
  0
LINE
  8
0
 10
-21.902000
 11
-22.122000
 20
5.003000
 21
5.286000
  0
LINE
  8
0
 10
-22.122000
 11
-22.163000
 20
5.286000
 21
5.354000
  0
LINE
  8
0
 10
-22.163000
 11
-22.262000
 20
5.354000
 21
5.569000
  0
LINE
  8
0
 10
-22.262000
 11
-22.368000
 20
5.569000
 21
5.950000
  0
LINE
  8
0
 10
-22.368000
 11
-22.435000
 20
5.950000
 21
6.499000
  0
LINE
  8
0
 10
-22.435000
 11
-22.412000
 20
6.499000
 21
7.210000
  0
LINE
  8
0
 10
-22.412000
 11
-22.038000
 20
7.210000
 21
7.426000
  0
LINE
  8
0
 10
-22.038000
 11
-21.411000
 20
7.426000
 21
7.090000
  0
LINE
  8
0
 10
-21.411000
 11
-20.969000
 20
7.090000
 21
6.758000
  0
LINE
  8
0
 10
-20.969000
 11
-20.693000
 20
6.758000
 21
6.475000
  0
LINE
  8
0
 10
-20.693000
 11
-20.555000
 20
6.475000
 21
6.283000
  0
LINE
  8
0
 10
-20.555000
 11
-20.516000
 20
6.283000
 21
6.213000
  0
LINE
  8
0
 10
-20.516000
 11
-20.382000
 20
6.213000
 21
5.881000
  0
LINE
  8
0
 10
-20.382000
 11
-19.530000
 20
5.881000
 21
6.158000
  0
LINE
  8
0
 10
-19.530000
 11
-19.616000
 20
6.158000
 21
6.506000
  0
LINE
  8
0
 10
-19.616000
 11
-19.626000
 20
6.506000
 21
6.584000
  0
LINE
  8
0
 10
-19.626000
 11
-19.628000
 20
6.584000
 21
6.821000
  0
LINE
  8
0
 10
-19.628000
 11
-19.570000
 20
6.821000
 21
7.212000
  0
LINE
  8
0
 10
-19.570000
 11
-19.408000
 20
7.212000
 21
7.741000
  0
LINE
  8
0
 10
-19.408000
 11
-19.098000
 20
7.741000
 21
8.381000
  0
LINE
  8
0
 10
-19.098000
 11
-18.669000
 20
8.381000
 21
8.426000
  0
LINE
  8
0
 10
-18.669000
 11
-18.232000
 20
8.426000
 21
7.865000
  0
LINE
  8
0
 10
-18.232000
 11
-17.963000
 20
7.865000
 21
7.381000
  0
LINE
  8
0
 10
-17.963000
 11
-17.826000
 20
7.381000
 21
7.010000
  0
LINE
  8
0
 10
-17.826000
 11
-17.779000
 20
7.010000
 21
6.778000
  0
LINE
  8
0
 10
-17.779000
 11
-17.772000
 20
6.778000
 21
6.699000
  0
LINE
  8
0
 10
-17.772000
 11
-17.784000
 20
6.699000
 21
6.342000
  0
LINE
  8
0
 10
-17.784000
 11
-16.892000
 20
6.342000
 21
6.247000
  0
LINE
  8
0
 10
-16.892000
 11
-16.830000
 20
6.247000
 21
6.601000
  0
LINE
  8
0
 10
-16.830000
 11
-16.808000
 20
6.601000
 21
6.676000
  0
LINE
  8
0
 10
-16.808000
 11
-16.713000
 20
6.676000
 21
6.894000
  0
LINE
  8
0
 10
-16.713000
 11
-16.501000
 20
6.894000
 21
7.228000
  0
LINE
  8
0
 10
-16.501000
 11
-16.138000
 20
7.228000
 21
7.645000
  0
LINE
  8
0
 10
-16.138000
 11
-15.594000
 20
7.645000
 21
8.103000
  0
LINE
  8
0
 10
-15.594000
 11
-15.183000
 20
8.103000
 21
7.970000
  0
LINE
  8
0
 10
-15.183000
 11
-15.013000
 20
7.970000
 21
7.279000
  0
LINE
  8
0
 10
-15.013000
 11
-14.964000
 20
7.279000
 21
6.728000
  0
LINE
  8
0
 10
-14.964000
 11
-14.989000
 20
6.728000
 21
6.334000
  0
LINE
  8
0
 10
-14.989000
 11
-15.040000
 20
6.334000
 21
6.102000
  0
LINE
  8
0
 10
-15.040000
 11
-15.067000
 20
6.102000
 21
6.028000
  0
LINE
  8
0
 10
-15.067000
 11
-15.224000
 20
6.028000
 21
5.705000
  0
LINE
  8
0
 10
-15.224000
 11
-14.447000
 20
5.705000
 21
5.258000
  0
LINE
  8
0
 10
-14.447000
 11
-14.247000
 20
5.258000
 21
5.554000
  0
LINE
  8
0
 10
-14.247000
 11
-14.195000
 20
5.554000
 21
5.614000
  0
LINE
  8
0
 10
-14.195000
 11
-14.020000
 20
5.614000
 21
5.774000
  0
LINE
  8
0
 10
-14.020000
 11
-13.691000
 20
5.774000
 21
5.993000
  0
LINE
  8
0
 10
-13.691000
 11
-13.190000
 20
5.993000
 21
6.226000
  0
LINE
  8
0
 10
-13.190000
 11
-12.506000
 20
6.226000
 21
6.424000
  0
LINE
  8
0
 10
-12.506000
 11
-12.185000
 20
6.424000
 21
6.135000
  0
LINE
  8
0
 10
-12.185000
 11
-12.311000
 20
6.135000
 21
5.435000
  0
LINE
  8
0
 10
-12.311000
 11
-12.490000
 20
5.435000
 21
4.912000
  0
LINE
  8
0
 10
-12.490000
 11
-12.674000
 20
4.912000
 21
4.561000
  0
LINE
  8
0
 10
-12.674000
 11
-12.815000
 20
4.561000
 21
4.371000
  0
LINE
  8
0
 10
-12.815000
 11
-12.869000
 20
4.371000
 21
4.314000
  0
LINE
  8
0
 10
-12.869000
 11
-13.144000
 20
4.314000
 21
4.083000
  0
LINE
  8
0
 10
-13.144000
 11
-12.617000
 20
4.083000
 21
3.358000
  0
LINE
  8
0
 10
-12.617000
 11
-12.313000
 20
3.358000
 21
3.547000
  0
LINE
  8
0
 10
-12.313000
 11
-12.240000
 20
3.547000
 21
3.581000
  0
LINE
  8
0
 10
-12.240000
 11
-12.015000
 20
3.581000
 21
3.656000
  0
LINE
  8
0
 10
-12.015000
 11
-11.626000
 20
3.656000
 21
3.722000
  0
LINE
  8
0
 10
-11.626000
 11
-11.073000
 20
3.722000
 21
3.731000
  0
LINE
  8
0
 10
-11.073000
 11
-10.368000
 20
3.731000
 21
3.635000
  0
LINE
  8
0
 10
-10.368000
 11
-10.193000
 20
3.635000
 21
3.240000
  0
LINE
  8
0
 10
-10.193000
 11
-10.592000
 20
3.240000
 21
2.652000
  0
LINE
  8
0
 10
-10.592000
 11
-10.969000
 20
2.652000
 21
2.246000
  0
LINE
  8
0
 10
-10.969000
 11
-11.279000
 20
2.246000
 21
2.001000
  0
LINE
  8
0
 10
-11.279000
 11
-11.485000
 20
2.001000
 21
1.884000
  0
LINE
  8
0
 10
-11.485000
 11
-11.558000
 20
1.884000
 21
1.853000
  0
LINE
  8
0
 10
-11.558000
 11
-11.903000
 20
1.853000
 21
1.754000
  0
LINE
  8
0
 10
-11.903000
 11
-11.716000
 20
1.754000
 21
0.877000
  0
LINE
  8
0
 10
-11.716000
 11
-11.361000
 20
0.877000
 21
0.927000
  0
LINE
  8
0
 10
-11.361000
 11
-11.282000
 20
0.927000
 21
0.930000
  0
LINE
  8
0
 10
-11.282000
 11
-11.046000
 20
0.930000
 21
0.906000
  0
LINE
  8
0
 10
-11.046000
 11
-10.663000
 20
0.906000
 21
0.808000
  0
LINE
  8
0
 10
-10.663000
 11
-10.154000
 20
0.808000
 21
0.591000
  0
LINE
  8
0
 10
-10.154000
 11
-9.550000
 20
0.591000
 21
0.216000
  0
LINE
  8
0
 10
-9.550000
 11
-9.550000
 20
0.216000
 21
-0.216000
  0
LINE
  8
0
 10
-9.550000
 11
-10.154000
 20
-0.216000
 21
-0.592000
  0
LINE
  8
0
 10
-10.154000
 11
-10.663000
 20
-0.592000
 21
-0.808000
  0
LINE
  8
0
 10
-10.663000
 11
-11.046000
 20
-0.808000
 21
-0.906000
  0
LINE
  8
0
 10
-11.046000
 11
-11.282000
 20
-0.906000
 21
-0.929000
  0
LINE
  8
0
 10
-11.282000
 11
-11.361000
 20
-0.929000
 21
-0.927000
  0
LINE
  8
0
 10
-11.361000
 11
-11.716000
 20
-0.927000
 21
-0.878000
  0
LINE
  8
0
 10
-11.716000
 11
-11.903000
 20
-0.878000
 21
-1.754000
  0
LINE
  8
0
 10
-11.903000
 11
-11.557000
 20
-1.754000
 21
-1.854000
  0
LINE
  8
0
 10
-11.557000
 11
-11.485000
 20
-1.854000
 21
-1.883000
  0
LINE
  8
0
 10
-11.485000
 11
-11.278000
 20
-1.883000
 21
-2.001000
  0
LINE
  8
0
 10
-11.278000
 11
-10.969000
 20
-2.001000
 21
-2.246000
  0
LINE
  8
0
 10
-10.969000
 11
-10.592000
 20
-2.246000
 21
-2.651000
  0
LINE
  8
0
 10
-10.592000
 11
-10.193000
 20
-2.651000
 21
-3.239000
  0
LINE
  8
0
 10
-10.193000
 11
-10.368000
 20
-3.239000
 21
-3.634000
  0
LINE
  8
0
 10
-10.368000
 11
-11.073000
 20
-3.634000
 21
-3.731000
  0
LINE
  8
0
 10
-11.073000
 11
-11.626000
 20
-3.731000
 21
-3.722000
  0
LINE
  8
0
 10
-11.626000
 11
-12.016000
 20
-3.722000
 21
-3.656000
  0
LINE
  8
0
 10
-12.016000
 11
-12.241000
 20
-3.656000
 21
-3.581000
  0
LINE
  8
0
 10
-12.241000
 11
-12.312000
 20
-3.581000
 21
-3.547000
  0
LINE
  8
0
 10
-12.312000
 11
-12.617000
 20
-3.547000
 21
-3.357000
  0
LINE
  8
0
 10
-12.617000
 11
-13.144000
 20
-3.357000
 21
-4.082000
  0
LINE
  8
0
 10
-13.144000
 11
-12.869000
 20
-4.082000
 21
-4.314000
  0
LINE
  8
0
 10
-12.869000
 11
-12.815000
 20
-4.314000
 21
-4.370000
  0
LINE
  8
0
 10
-12.815000
 11
-12.674000
 20
-4.370000
 21
-4.561000
  0
LINE
  8
0
 10
-12.674000
 11
-12.490000
 20
-4.561000
 21
-4.912000
  0
LINE
  8
0
 10
-12.490000
 11
-12.311000
 20
-4.912000
 21
-5.435000
  0
LINE
  8
0
 10
-12.311000
 11
-12.185000
 20
-5.435000
 21
-6.135000
  0
LINE
  8
0
 10
-12.185000
 11
-12.506000
 20
-6.135000
 21
-6.424000
  0
LINE
  8
0
 10
-12.506000
 11
-13.190000
 20
-6.424000
 21
-6.226000
  0
LINE
  8
0
 10
-13.190000
 11
-13.691000
 20
-6.226000
 21
-5.993000
  0
LINE
  8
0
 10
-13.691000
 11
-14.021000
 20
-5.993000
 21
-5.774000
  0
LINE
  8
0
 10
-14.021000
 11
-14.196000
 20
-5.774000
 21
-5.614000
  0
LINE
  8
0
 10
-14.196000
 11
-14.246000
 20
-5.614000
 21
-5.554000
  0
LINE
  8
0
 10
-14.246000
 11
-14.447000
 20
-5.554000
 21
-5.256000
  0
LINE
  8
0
 10
-14.447000
 11
-15.223000
 20
-5.256000
 21
-5.705000
  0
LINE
  8
0
 10
-15.223000
 11
-15.067000
 20
-5.705000
 21
-6.027000
  0
LINE
  8
0
 10
-15.067000
 11
-15.041000
 20
-6.027000
 21
-6.102000
  0
LINE
  8
0
 10
-15.041000
 11
-14.990000
 20
-6.102000
 21
-6.333000
  0
LINE
  8
0
 10
-14.990000
 11
-14.965000
 20
-6.333000
 21
-6.728000
  0
LINE
  8
0
 10
-14.965000
 11
-15.013000
 20
-6.728000
 21
-7.279000
  0
LINE
  8
0
 10
-15.013000
 11
-15.183000
 20
-7.279000
 21
-7.970000
  0
LINE
  8
0
 10
-15.183000
 11
-15.594000
 20
-7.970000
 21
-8.103000
  0
LINE
  8
0
 10
-15.594000
 11
-16.137000
 20
-8.103000
 21
-7.645000
  0
LINE
  8
0
 10
-16.137000
 11
-16.501000
 20
-7.645000
 21
-7.228000
  0
LINE
  8
0
 10
-16.501000
 11
-16.713000
 20
-7.228000
 21
-6.893000
  0
LINE
  8
0
 10
-16.713000
 11
-16.808000
 20
-6.893000
 21
-6.676000
  0
LINE
  8
0
 10
-16.808000
 11
-16.830000
 20
-6.676000
 21
-6.600000
  0
LINE
  8
0
 10
-16.830000
 11
-16.893000
 20
-6.600000
 21
-6.248000
  0
LINE
  8
0
 10
-16.893000
 11
-17.784000
 20
-6.248000
 21
-6.342000
  0
LINE
  8
0
 10
-17.784000
 11
-17.772000
 20
-6.342000
 21
-6.699000
  0
LINE
  8
0
 10
-17.772000
 11
-17.779000
 20
-6.699000
 21
-6.778000
  0
LINE
  8
0
 10
-17.779000
 11
-17.826000
 20
-6.778000
 21
-7.011000
  0
LINE
  8
0
 10
-17.826000
 11
-17.963000
 20
-7.011000
 21
-7.382000
  0
LINE
  8
0
 10
-17.963000
 11
-18.233000
 20
-7.382000
 21
-7.865000
  0
LINE
  8
0
 10
-18.233000
 11
-18.668000
 20
-7.865000
 21
-8.426000
  0
LINE
  8
0
 10
-18.668000
 11
-19.098000
 20
-8.426000
 21
-8.381000
  0
LINE
  8
0
 10
-19.098000
 11
-19.408000
 20
-8.381000
 21
-7.741000
  0
LINE
  8
0
 10
-19.408000
 11
-19.571000
 20
-7.741000
 21
-7.213000
  0
LINE
  8
0
 10
-19.571000
 11
-19.627000
 20
-7.213000
 21
-6.821000
  0
LINE
  8
0
 10
-19.627000
 11
-19.626000
 20
-6.821000
 21
-6.584000
  0
LINE
  8
0
 10
-19.626000
 11
-19.616000
 20
-6.584000
 21
-6.506000
  0
LINE
  8
0
 10
-19.616000
 11
-19.529000
 20
-6.506000
 21
-6.158000
  0
LINE
  8
0
 10
-19.529000
 11
-20.383000
 20
-6.158000
 21
-5.880000
  0
LINE
  8
0
 10
-20.383000
 11
-20.517000
 20
-5.880000
 21
-6.213000
  0
LINE
  8
0
 10
-20.517000
 11
-20.554000
 20
-6.213000
 21
-6.282000
  0
LINE
  8
0
 10
-20.554000
 11
-20.693000
 20
-6.282000
 21
-6.475000
  0
LINE
  8
0
 10
-20.693000
 11
-20.969000
 20
-6.475000
 21
-6.758000
  0
LINE
  8
0
 10
-20.969000
 11
-21.411000
 20
-6.758000
 21
-7.090000
  0
LINE
  8
0
 10
-21.411000
 11
-22.038000
 20
-7.090000
 21
-7.426000
  0
LINE
  8
0
 10
-22.038000
 11
-22.412000
 20
-7.426000
 21
-7.210000
  0
LINE
  8
0
 10
-22.412000
 11
-22.435000
 20
-7.210000
 21
-6.500000
  0
LINE
  8
0
 10
-22.435000
 11
-22.369000
 20
-6.500000
 21
-5.950000
  0
LINE
  8
0
 10
-22.369000
 11
-22.262000
 20
-5.950000
 21
-5.570000
  0
LINE
  8
0
 10
-22.262000
 11
-22.163000
 20
-5.570000
 21
-5.354000
  0
LINE
  8
0
 10
-22.163000
 11
-22.122000
 20
-5.354000
 21
-5.286000
  0
LINE
  8
0
 10
-22.122000
 11
-21.902000
 20
-5.286000
 21
-5.003000
  0
LINE
  8
0
 10
-21.902000
 11
-22.567000
 20
-5.003000
 21
-4.404000
  0
LINE
  8
0
 10
-22.567000
 11
-22.826000
 20
-4.404000
 21
-4.652000
  0
LINE
  8
0
 10
-22.826000
 11
-22.889000
 20
-4.652000
 21
-4.700000
  0
LINE
  8
0
 10
-22.889000
 11
-23.093000
 20
-4.700000
 21
-4.820000
  0
LINE
  8
0
 10
-23.093000
 11
-23.461000
 20
-4.820000
 21
-4.967000
  0
LINE
  8
0
 10
-23.461000
 11
-24.001000
 20
-4.967000
 21
-5.090000
  0
LINE
  8
0
 10
-24.001000
 11
-24.709000
 20
-5.090000
 21
-5.141000
  0
LINE
  8
0
 10
-24.709000
 11
-24.964000
 20
-5.141000
 21
-4.792000
  0
LINE
  8
0
 10
-24.964000
 11
-24.695000
 20
-4.792000
 21
-4.133000
  0
LINE
  8
0
 10
-24.695000
 11
-24.410000
 20
-4.133000
 21
-3.659000
  0
LINE
  8
0
 10
-24.410000
 11
-24.158000
 20
-3.659000
 21
-3.354000
  0
LINE
  8
0
 10
-24.158000
 11
-23.981000
 20
-3.354000
 21
-3.197000
  0
LINE
  8
0
 10
-23.981000
 11
-23.916000
 20
-3.197000
 21
-3.152000
  0
LINE
  8
0
 10
-23.916000
 11
-23.599000
 20
-3.152000
 21
-2.984000
  0
LINE
  8
0
 10
-23.599000
 11
-23.964000
 20
-2.984000
 21
-2.165000
  0
LINE
  8
0
 10
-23.964000
 11
-24.301000
 20
-2.165000
 21
-2.287000
  0
LINE
  8
0
 10
-24.301000
 11
-24.378000
 20
-2.287000
 21
-2.306000
  0
LINE
  8
0
 10
-24.378000
 11
-24.613000
 20
-2.306000
 21
-2.332000
  0
LINE
  8
0
 10
-24.613000
 11
-25.009000
 20
-2.332000
 21
-2.316000
  0
LINE
  8
0
 10
-25.009000
 11
-25.551000
 20
-2.316000
 21
-2.210000
  0
LINE
  8
0
 10
-25.551000
 11
-26.221000
 20
-2.210000
 21
-1.968000
  0
LINE
  8
0
 10
-26.221000
 11
-26.310000
 20
-1.968000
 21
-1.546000
  0
LINE
  8
0
 10
-17.590000
 11
-17.554000
 20
3.606000
 21
3.798000
  0
LINE
  8
0
 10
-17.554000
 11
-17.470000
 20
3.798000
 21
3.975000
  0
LINE
  8
0
 10
-17.470000
 11
-17.343000
 20
3.975000
 21
4.124000
  0
LINE
  8
0
 10
-17.343000
 11
-17.181000
 20
4.124000
 21
4.234000
  0
LINE
  8
0
 10
-17.181000
 11
-16.997000
 20
4.234000
 21
4.301000
  0
LINE
  8
0
 10
-16.997000
 11
-16.802000
 20
4.301000
 21
4.315000
  0
LINE
  8
0
 10
-16.802000
 11
-16.609000
 20
4.315000
 21
4.280000
  0
LINE
  8
0
 10
-16.609000
 11
-16.433000
 20
4.280000
 21
4.195000
  0
LINE
  8
0
 10
-16.433000
 11
-16.284000
 20
4.195000
 21
4.069000
  0
LINE
  8
0
 10
-16.284000
 11
-16.173000
 20
4.069000
 21
3.907000
  0
LINE
  8
0
 10
-16.173000
 11
-16.107000
 20
3.907000
 21
3.722000
  0
LINE
  8
0
 10
-16.107000
 11
-16.093000
 20
3.722000
 21
3.527000
  0
LINE
  8
0
 10
-16.093000
 11
-16.128000
 20
3.527000
 21
3.335000
  0
LINE
  8
0
 10
-16.128000
 11
-16.213000
 20
3.335000
 21
3.158000
  0
LINE
  8
0
 10
-16.213000
 11
-16.339000
 20
3.158000
 21
3.009000
  0
LINE
  8
0
 10
-16.339000
 11
-16.501000
 20
3.009000
 21
2.899000
  0
LINE
  8
0
 10
-16.501000
 11
-16.685000
 20
2.899000
 21
2.832000
  0
LINE
  8
0
 10
-16.685000
 11
-16.880000
 20
2.832000
 21
2.818000
  0
LINE
  8
0
 10
-16.880000
 11
-17.073000
 20
2.818000
 21
2.853000
  0
LINE
  8
0
 10
-17.073000
 11
-17.249000
 20
2.853000
 21
2.938000
  0
LINE
  8
0
 10
-17.249000
 11
-17.399000
 20
2.938000
 21
3.064000
  0
LINE
  8
0
 10
-17.399000
 11
-17.509000
 20
3.064000
 21
3.226000
  0
LINE
  8
0
 10
-17.509000
 11
-17.575000
 20
3.226000
 21
3.411000
  0
LINE
  8
0
 10
-17.575000
 11
-17.590000
 20
3.411000
 21
3.606000
  0
LINE
  8
0
 10
-17.311000
 11
-17.220000
 20
-14.043000
 21
-13.621000
  0
LINE
  8
0
 10
-17.220000
 11
-16.552000
 20
-13.621000
 21
-13.378000
  0
LINE
  8
0
 10
-16.552000
 11
-16.008000
 20
-13.378000
 21
-13.273000
  0
LINE
  8
0
 10
-16.008000
 11
-15.614000
 20
-13.273000
 21
-13.256000
  0
LINE
  8
0
 10
-15.614000
 11
-15.378000
 20
-13.256000
 21
-13.283000
  0
LINE
  8
0
 10
-15.378000
 11
-15.301000
 20
-13.283000
 21
-13.302000
  0
LINE
  8
0
 10
-15.301000
 11
-14.964000
 20
-13.302000
 21
-13.425000
  0
LINE
  8
0
 10
-14.964000
 11
-14.600000
 20
-13.425000
 21
-12.605000
  0
LINE
  8
0
 10
-14.600000
 11
-14.916000
 20
-12.605000
 21
-12.436000
  0
LINE
  8
0
 10
-14.916000
 11
-14.980000
 20
-12.436000
 21
-12.391000
  0
LINE
  8
0
 10
-14.980000
 11
-15.158000
 20
-12.391000
 21
-12.234000
  0
LINE
  8
0
 10
-15.158000
 11
-15.410000
 20
-12.234000
 21
-11.929000
  0
LINE
  8
0
 10
-15.410000
 11
-15.695000
 20
-11.929000
 21
-11.455000
  0
LINE
  8
0
 10
-15.695000
 11
-15.963000
 20
-11.455000
 21
-10.797000
  0
LINE
  8
0
 10
-15.963000
 11
-15.709000
 20
-10.797000
 21
-10.447000
  0
LINE
  8
0
 10
-15.709000
 11
-15.001000
 20
-10.447000
 21
-10.498000
  0
LINE
  8
0
 10
-15.001000
 11
-14.461000
 20
-10.498000
 21
-10.621000
  0
LINE
  8
0
 10
-14.461000
 11
-14.093000
 20
-10.621000
 21
-10.768000
  0
LINE
  8
0
 10
-14.093000
 11
-13.889000
 20
-10.768000
 21
-10.888000
  0
LINE
  8
0
 10
-13.889000
 11
-13.826000
 20
-10.888000
 21
-10.936000
  0
LINE
  8
0
 10
-13.826000
 11
-13.568000
 20
-10.936000
 21
-11.184000
  0
LINE
  8
0
 10
-13.568000
 11
-12.903000
 20
-11.184000
 21
-10.585000
  0
LINE
  8
0
 10
-12.903000
 11
-13.122000
 20
-10.585000
 21
-10.302000
  0
LINE
  8
0
 10
-13.122000
 11
-13.163000
 20
-10.302000
 21
-10.235000
  0
LINE
  8
0
 10
-13.163000
 11
-13.262000
 20
-10.235000
 21
-10.018000
  0
LINE
  8
0
 10
-13.262000
 11
-13.368000
 20
-10.018000
 21
-9.638000
  0
LINE
  8
0
 10
-13.368000
 11
-13.434000
 20
-9.638000
 21
-9.089000
  0
LINE
  8
0
 10
-13.434000
 11
-13.411000
 20
-9.089000
 21
-8.379000
  0
LINE
  8
0
 10
-13.411000
 11
-13.038000
 20
-8.379000
 21
-8.163000
  0
LINE
  8
0
 10
-13.038000
 11
-12.411000
 20
-8.163000
 21
-8.498000
  0
LINE
  8
0
 10
-12.411000
 11
-11.968000
 20
-8.498000
 21
-8.830000
  0
LINE
  8
0
 10
-11.968000
 11
-11.692000
 20
-8.830000
 21
-9.114000
  0
LINE
  8
0
 10
-11.692000
 11
-11.554000
 20
-9.114000
 21
-9.307000
  0
LINE
  8
0
 10
-11.554000
 11
-11.518000
 20
-9.307000
 21
-9.375000
  0
LINE
  8
0
 10
-11.518000
 11
-11.383000
 20
-9.375000
 21
-9.708000
  0
LINE
  8
0
 10
-11.383000
 11
-10.529000
 20
-9.708000
 21
-9.430000
  0
LINE
  8
0
 10
-10.529000
 11
-10.615000
 20
-9.430000
 21
-9.082000
  0
LINE
  8
0
 10
-10.615000
 11
-10.626000
 20
-9.082000
 21
-9.004000
  0
LINE
  8
0
 10
-10.626000
 11
-10.628000
 20
-9.004000
 21
-8.768000
  0
LINE
  8
0
 10
-10.628000
 11
-10.571000
 20
-8.768000
 21
-8.376000
  0
LINE
  8
0
 10
-10.571000
 11
-10.408000
 20
-8.376000
 21
-7.847000
  0
LINE
  8
0
 10
-10.408000
 11
-10.098000
 20
-7.847000
 21
-7.208000
  0
LINE
  8
0
 10
-10.098000
 11
-9.668000
 20
-7.208000
 21
-7.162000
  0
LINE
  8
0
 10
-9.668000
 11
-9.233000
 20
-7.162000
 21
-7.723000
  0
LINE
  8
0
 10
-9.233000
 11
-8.963000
 20
-7.723000
 21
-8.207000
  0
LINE
  8
0
 10
-8.963000
 11
-8.826000
 20
-8.207000
 21
-8.577000
  0
LINE
  8
0
 10
-8.826000
 11
-8.778000
 20
-8.577000
 21
-8.810000
  0
LINE
  8
0
 10
-8.778000
 11
-8.772000
 20
-8.810000
 21
-8.889000
  0
LINE
  8
0
 10
-8.772000
 11
-8.783000
 20
-8.889000
 21
-9.247000
  0
LINE
  8
0
 10
-8.783000
 11
-7.894000
 20
-9.247000
 21
-9.340000
  0
LINE
  8
0
 10
-7.894000
 11
-7.830000
 20
-9.340000
 21
-8.988000
  0
LINE
  8
0
 10
-7.830000
 11
-7.808000
 20
-8.988000
 21
-8.912000
  0
LINE
  8
0
 10
-7.808000
 11
-7.713000
 20
-8.912000
 21
-8.695000
  0
LINE
  8
0
 10
-7.713000
 11
-7.501000
 20
-8.695000
 21
-8.360000
  0
LINE
  8
0
 10
-7.501000
 11
-7.137000
 20
-8.360000
 21
-7.944000
  0
LINE
  8
0
 10
-7.137000
 11
-6.594000
 20
-7.944000
 21
-7.486000
  0
LINE
  8
0
 10
-6.594000
 11
-6.183000
 20
-7.486000
 21
-7.619000
  0
LINE
  8
0
 10
-6.183000
 11
-6.013000
 20
-7.619000
 21
-8.310000
  0
LINE
  8
0
 10
-6.013000
 11
-5.964000
 20
-8.310000
 21
-8.860000
  0
LINE
  8
0
 10
-5.964000
 11
-5.990000
 20
-8.860000
 21
-9.255000
  0
LINE
  8
0
 10
-5.990000
 11
-6.041000
 20
-9.255000
 21
-9.487000
  0
LINE
  8
0
 10
-6.041000
 11
-6.067000
 20
-9.487000
 21
-9.561000
  0
LINE
  8
0
 10
-6.067000
 11
-6.224000
 20
-9.561000
 21
-9.883000
  0
LINE
  8
0
 10
-6.224000
 11
-5.448000
 20
-9.883000
 21
-10.331000
  0
LINE
  8
0
 10
-5.448000
 11
-5.247000
 20
-10.331000
 21
-10.035000
  0
LINE
  8
0
 10
-5.247000
 11
-5.196000
 20
-10.035000
 21
-9.974000
  0
LINE
  8
0
 10
-5.196000
 11
-5.021000
 20
-9.974000
 21
-9.814000
  0
LINE
  8
0
 10
-5.021000
 11
-4.691000
 20
-9.814000
 21
-9.596000
  0
LINE
  8
0
 10
-4.691000
 11
-4.190000
 20
-9.596000
 21
-9.363000
  0
LINE
  8
0
 10
-4.190000
 11
-3.506000
 20
-9.363000
 21
-9.165000
  0
LINE
  8
0
 10
-3.506000
 11
-3.185000
 20
-9.165000
 21
-9.453000
  0
LINE
  8
0
 10
-3.185000
 11
-3.311000
 20
-9.453000
 21
-10.154000
  0
LINE
  8
0
 10
-3.311000
 11
-3.490000
 20
-10.154000
 21
-10.676000
  0
LINE
  8
0
 10
-3.490000
 11
-3.674000
 20
-10.676000
 21
-11.027000
  0
LINE
  8
0
 10
-3.674000
 11
-3.815000
 20
-11.027000
 21
-11.218000
  0
LINE
  8
0
 10
-3.815000
 11
-3.869000
 20
-11.218000
 21
-11.275000
  0
LINE
  8
0
 10
-3.869000
 11
-4.144000
 20
-11.275000
 21
-11.505000
  0
LINE
  8
0
 10
-4.144000
 11
-3.617000
 20
-11.505000
 21
-12.230000
  0
LINE
  8
0
 10
-3.617000
 11
-3.312000
 20
-12.230000
 21
-12.041000
  0
LINE
  8
0
 10
-3.312000
 11
-3.241000
 20
-12.041000
 21
-12.007000
  0
LINE
  8
0
 10
-3.241000
 11
-3.016000
 20
-12.007000
 21
-11.932000
  0
LINE
  8
0
 10
-3.016000
 11
-2.626000
 20
-11.932000
 21
-11.867000
  0
LINE
  8
0
 10
-2.626000
 11
-2.073000
 20
-11.867000
 21
-11.857000
  0
LINE
  8
0
 10
-2.073000
 11
-1.369000
 20
-11.857000
 21
-11.954000
  0
LINE
  8
0
 10
-1.369000
 11
-1.192000
 20
-11.954000
 21
-12.349000
  0
LINE
  8
0
 10
-1.192000
 11
-1.592000
 20
-12.349000
 21
-12.937000
  0
LINE
  8
0
 10
-1.592000
 11
-1.969000
 20
-12.937000
 21
-13.343000
  0
LINE
  8
0
 10
-1.969000
 11
-2.278000
 20
-13.343000
 21
-13.587000
  0
LINE
  8
0
 10
-2.278000
 11
-2.486000
 20
-13.587000
 21
-13.705000
  0
LINE
  8
0
 10
-2.486000
 11
-2.557000
 20
-13.705000
 21
-13.735000
  0
LINE
  8
0
 10
-2.557000
 11
-2.903000
 20
-13.735000
 21
-13.834000
  0
LINE
  8
0
 10
-2.903000
 11
-2.716000
 20
-13.834000
 21
-14.711000
  0
LINE
  8
0
 10
-2.716000
 11
-2.361000
 20
-14.711000
 21
-14.661000
  0
LINE
  8
0
 10
-2.361000
 11
-2.282000
 20
-14.661000
 21
-14.659000
  0
LINE
  8
0
 10
-2.282000
 11
-2.046000
 20
-14.659000
 21
-14.682000
  0
LINE
  8
0
 10
-2.046000
 11
-1.663000
 20
-14.682000
 21
-14.781000
  0
LINE
  8
0
 10
-1.663000
 11
-1.154000
 20
-14.781000
 21
-14.997000
  0
LINE
  8
0
 10
-1.154000
 11
-0.550000
 20
-14.997000
 21
-15.373000
  0
LINE
  8
0
 10
-0.550000
 11
-0.550000
 20
-15.373000
 21
-15.804000
  0
LINE
  8
0
 10
-0.550000
 11
-1.154000
 20
-15.804000
 21
-16.179000
  0
LINE
  8
0
 10
-1.154000
 11
-1.663000
 20
-16.179000
 21
-16.397000
  0
LINE
  8
0
 10
-1.663000
 11
-2.046000
 20
-16.397000
 21
-16.495000
  0
LINE
  8
0
 10
-2.046000
 11
-2.282000
 20
-16.495000
 21
-16.518000
  0
LINE
  8
0
 10
-2.282000
 11
-2.361000
 20
-16.518000
 21
-16.515000
  0
LINE
  8
0
 10
-2.361000
 11
-2.717000
 20
-16.515000
 21
-16.466000
  0
LINE
  8
0
 10
-2.717000
 11
-2.903000
 20
-16.466000
 21
-17.342000
  0
LINE
  8
0
 10
-2.903000
 11
-2.559000
 20
-17.342000
 21
-17.441000
  0
LINE
  8
0
 10
-2.559000
 11
-2.485000
 20
-17.441000
 21
-17.472000
  0
LINE
  8
0
 10
-2.485000
 11
-2.279000
 20
-17.472000
 21
-17.589000
  0
LINE
  8
0
 10
-2.279000
 11
-1.969000
 20
-17.589000
 21
-17.835000
  0
LINE
  8
0
 10
-1.969000
 11
-1.592000
 20
-17.835000
 21
-18.240000
  0
LINE
  8
0
 10
-1.592000
 11
-1.193000
 20
-18.240000
 21
-18.828000
  0
LINE
  8
0
 10
-1.193000
 11
-1.368000
 20
-18.828000
 21
-19.223000
  0
LINE
  8
0
 10
-1.368000
 11
-2.074000
 20
-19.223000
 21
-19.320000
  0
LINE
  8
0
 10
-2.074000
 11
-2.626000
 20
-19.320000
 21
-19.311000
  0
LINE
  8
0
 10
-2.626000
 11
-3.015000
 20
-19.311000
 21
-19.245000
  0
LINE
  8
0
 10
-3.015000
 11
-3.240000
 20
-19.245000
 21
-19.170000
  0
LINE
  8
0
 10
-3.240000
 11
-3.312000
 20
-19.170000
 21
-19.135000
  0
LINE
  8
0
 10
-3.312000
 11
-3.616000
 20
-19.135000
 21
-18.947000
  0
LINE
  8
0
 10
-3.616000
 11
-4.143000
 20
-18.947000
 21
-19.671000
  0
LINE
  8
0
 10
-4.143000
 11
-3.869000
 20
-19.671000
 21
-19.902000
  0
LINE
  8
0
 10
-3.869000
 11
-3.814000
 20
-19.902000
 21
-19.959000
  0
LINE
  8
0
 10
-3.814000
 11
-3.674000
 20
-19.959000
 21
-20.150000
  0
LINE
  8
0
 10
-3.674000
 11
-3.491000
 20
-20.150000
 21
-20.500000
  0
LINE
  8
0
 10
-3.491000
 11
-3.311000
 20
-20.500000
 21
-21.023000
  0
LINE
  8
0
 10
-3.311000
 11
-3.186000
 20
-21.023000
 21
-21.724000
  0
LINE
  8
0
 10
-3.186000
 11
-3.506000
 20
-21.724000
 21
-22.012000
  0
LINE
  8
0
 10
-3.506000
 11
-4.190000
 20
-22.012000
 21
-21.815000
  0
LINE
  8
0
 10
-4.190000
 11
-4.691000
 20
-21.815000
 21
-21.582000
  0
LINE
  8
0
 10
-4.691000
 11
-5.020000
 20
-21.582000
 21
-21.362000
  0
LINE
  8
0
 10
-5.020000
 11
-5.195000
 20
-21.362000
 21
-21.202000
  0
LINE
  8
0
 10
-5.195000
 11
-5.247000
 20
-21.202000
 21
-21.142000
  0
LINE
  8
0
 10
-5.247000
 11
-5.448000
 20
-21.142000
 21
-20.846000
  0
LINE
  8
0
 10
-5.448000
 11
-6.224000
 20
-20.846000
 21
-21.294000
  0
LINE
  8
0
 10
-6.224000
 11
-6.067000
 20
-21.294000
 21
-21.616000
  0
LINE
  8
0
 10
-6.067000
 11
-6.041000
 20
-21.616000
 21
-21.691000
  0
LINE
  8
0
 10
-6.041000
 11
-5.990000
 20
-21.691000
 21
-21.922000
  0
LINE
  8
0
 10
-5.990000
 11
-5.964000
 20
-21.922000
 21
-22.317000
  0
LINE
  8
0
 10
-5.964000
 11
-6.014000
 20
-22.317000
 21
-22.868000
  0
LINE
  8
0
 10
-6.014000
 11
-6.184000
 20
-22.868000
 21
-23.558000
  0
LINE
  8
0
 10
-6.184000
 11
-6.594000
 20
-23.558000
 21
-23.692000
  0
LINE
  8
0
 10
-6.594000
 11
-7.138000
 20
-23.692000
 21
-23.233000
  0
LINE
  8
0
 10
-7.138000
 11
-7.501000
 20
-23.233000
 21
-22.816000
  0
LINE
  8
0
 10
-7.501000
 11
-7.712000
 20
-22.816000
 21
-22.482000
  0
LINE
  8
0
 10
-7.712000
 11
-7.808000
 20
-22.482000
 21
-22.265000
  0
LINE
  8
0
 10
-7.808000
 11
-7.830000
 20
-22.265000
 21
-22.189000
  0
LINE
  8
0
 10
-7.830000
 11
-7.893000
 20
-22.189000
 21
-21.836000
  0
LINE
  8
0
 10
-7.893000
 11
-8.784000
 20
-21.836000
 21
-21.930000
  0
LINE
  8
0
 10
-8.784000
 11
-8.772000
 20
-21.930000
 21
-22.288000
  0
LINE
  8
0
 10
-8.772000
 11
-8.778000
 20
-22.288000
 21
-22.366000
  0
LINE
  8
0
 10
-8.778000
 11
-8.826000
 20
-22.366000
 21
-22.599000
  0
LINE
  8
0
 10
-8.826000
 11
-8.964000
 20
-22.599000
 21
-22.970000
  0
LINE
  8
0
 10
-8.964000
 11
-9.232000
 20
-22.970000
 21
-23.453000
  0
LINE
  8
0
 10
-9.232000
 11
-9.669000
 20
-23.453000
 21
-24.015000
  0
LINE
  8
0
 10
-9.669000
 11
-10.098000
 20
-24.015000
 21
-23.970000
  0
LINE
  8
0
 10
-10.098000
 11
-10.408000
 20
-23.970000
 21
-23.329000
  0
LINE
  8
0
 10
-10.408000
 11
-10.570000
 20
-23.329000
 21
-22.800000
  0
LINE
  8
0
 10
-10.570000
 11
-10.628000
 20
-22.800000
 21
-22.410000
  0
LINE
  8
0
 10
-10.628000
 11
-10.626000
 20
-22.410000
 21
-22.173000
  0
LINE
  8
0
 10
-10.626000
 11
-10.615000
 20
-22.173000
 21
-22.094000
  0
LINE
  8
0
 10
-10.615000
 11
-10.529000
 20
-22.094000
 21
-21.746000
  0
LINE
  8
0
 10
-10.529000
 11
-11.381000
 20
-21.746000
 21
-21.469000
  0
LINE
  8
0
 10
-11.381000
 11
-11.516000
 20
-21.469000
 21
-21.801000
  0
LINE
  8
0
 10
-11.516000
 11
-11.554000
 20
-21.801000
 21
-21.871000
  0
LINE
  8
0
 10
-11.554000
 11
-11.693000
 20
-21.871000
 21
-22.063000
  0
LINE
  8
0
 10
-11.693000
 11
-11.969000
 20
-22.063000
 21
-22.346000
  0
LINE
  8
0
 10
-11.969000
 11
-12.411000
 20
-22.346000
 21
-22.679000
  0
LINE
  8
0
 10
-12.411000
 11
-13.038000
 20
-22.679000
 21
-23.014000
  0
LINE
  8
0
 10
-13.038000
 11
-13.412000
 20
-23.014000
 21
-22.798000
  0
LINE
  8
0
 10
-13.412000
 11
-13.435000
 20
-22.798000
 21
-22.088000
  0
LINE
  8
0
 10
-13.435000
 11
-13.368000
 20
-22.088000
 21
-21.538000
  0
LINE
  8
0
 10
-13.368000
 11
-13.262000
 20
-21.538000
 21
-21.158000
  0
LINE
  8
0
 10
-13.262000
 11
-13.164000
 20
-21.158000
 21
-20.942000
  0
LINE
  8
0
 10
-13.164000
 11
-13.122000
 20
-20.942000
 21
-20.874000
  0
LINE
  8
0
 10
-13.122000
 11
-12.902000
 20
-20.874000
 21
-20.591000
  0
LINE
  8
0
 10
-12.902000
 11
-13.568000
 20
-20.591000
 21
-19.992000
  0
LINE
  8
0
 10
-13.568000
 11
-13.827000
 20
-19.992000
 21
-20.240000
  0
LINE
  8
0
 10
-13.827000
 11
-13.888000
 20
-20.240000
 21
-20.289000
  0
LINE
  8
0
 10
-13.888000
 11
-14.094000
 20
-20.289000
 21
-20.409000
  0
LINE
  8
0
 10
-14.094000
 11
-14.461000
 20
-20.409000
 21
-20.554000
  0
LINE
  8
0
 10
-14.461000
 11
-15.000000
 20
-20.554000
 21
-20.678000
  0
LINE
  8
0
 10
-15.000000
 11
-15.710000
 20
-20.678000
 21
-20.730000
  0
LINE
  8
0
 10
-15.710000
 11
-15.963000
 20
-20.730000
 21
-20.381000
  0
LINE
  8
0
 10
-15.963000
 11
-15.696000
 20
-20.381000
 21
-19.721000
  0
LINE
  8
0
 10
-15.696000
 11
-15.411000
 20
-19.721000
 21
-19.247000
  0
LINE
  8
0
 10
-15.411000
 11
-15.159000
 20
-19.247000
 21
-18.942000
  0
LINE
  8
0
 10
-15.159000
 11
-14.981000
 20
-18.942000
 21
-18.785000
  0
LINE
  8
0
 10
-14.981000
 11
-14.916000
 20
-18.785000
 21
-18.741000
  0
LINE
  8
0
 10
-14.916000
 11
-14.600000
 20
-18.741000
 21
-18.572000
  0
LINE
  8
0
 10
-14.600000
 11
-14.964000
 20
-18.572000
 21
-17.754000
  0
LINE
  8
0
 10
-14.964000
 11
-15.302000
 20
-17.754000
 21
-17.876000
  0
LINE
  8
0
 10
-15.302000
 11
-15.378000
 20
-17.876000
 21
-17.895000
  0
LINE
  8
0
 10
-15.378000
 11
-15.614000
 20
-17.895000
 21
-17.921000
  0
LINE
  8
0
 10
-15.614000
 11
-16.008000
 20
-17.921000
 21
-17.905000
  0
LINE
  8
0
 10
-16.008000
 11
-16.552000
 20
-17.905000
 21
-17.799000
  0
LINE
  8
0
 10
-16.552000
 11
-17.221000
 20
-17.799000
 21
-17.557000
  0
LINE
  8
0
 10
-17.221000
 11
-17.310000
 20
-17.557000
 21
-17.134000
  0
LINE
  8
0
 10
-17.310000
 11
-16.797000
 20
-17.134000
 21
-16.642000
  0
LINE
  8
0
 10
-16.797000
 11
-16.345000
 20
-16.642000
 21
-16.324000
  0
LINE
  8
0
 10
-16.345000
 11
-15.990000
 20
-16.324000
 21
-16.148000
  0
LINE
  8
0
 10
-15.990000
 11
-15.764000
 20
-16.148000
 21
-16.077000
  0
LINE
  8
0
 10
-15.764000
 11
-15.687000
 20
-16.077000
 21
-16.063000
  0
LINE
  8
0
 10
-15.687000
 11
-15.328000
 20
-16.063000
 21
-16.037000
  0
LINE
  8
0
 10
-15.328000
 11
-15.329000
 20
-16.037000
 21
-15.140000
  0
LINE
  8
0
 10
-15.329000
 11
-15.687000
 20
-15.140000
 21
-15.115000
  0
LINE
  8
0
 10
-15.687000
 11
-15.763000
 20
-15.115000
 21
-15.101000
  0
LINE
  8
0
 10
-15.763000
 11
-15.990000
 20
-15.101000
 21
-15.030000
  0
LINE
  8
0
 10
-15.990000
 11
-16.345000
 20
-15.030000
 21
-14.854000
  0
LINE
  8
0
 10
-16.345000
 11
-16.797000
 20
-14.854000
 21
-14.535000
  0
LINE
  8
0
 10
-16.797000
 11
-17.311000
 20
-14.535000
 21
-14.043000
  0
LINE
  8
0
 10
-17.310000
 11
-16.797000
 20
14.042000
 21
14.535000
  0
LINE
  8
0
 10
-16.797000
 11
-16.344000
 20
14.535000
 21
14.853000
  0
LINE
  8
0
 10
-16.344000
 11
-15.990000
 20
14.853000
 21
15.029000
  0
LINE
  8
0
 10
-15.990000
 11
-15.764000
 20
15.029000
 21
15.100000
  0
LINE
  8
0
 10
-15.764000
 11
-15.687000
 20
15.100000
 21
15.115000
  0
LINE
  8
0
 10
-15.687000
 11
-15.329000
 20
15.115000
 21
15.140000
  0
LINE
  8
0
 10
-15.329000
 11
-15.329000
 20
15.140000
 21
16.036000
  0
LINE
  8
0
 10
-15.329000
 11
-15.686000
 20
16.036000
 21
16.062000
  0
LINE
  8
0
 10
-15.686000
 11
-15.764000
 20
16.062000
 21
16.077000
  0
LINE
  8
0
 10
-15.764000
 11
-15.990000
 20
16.077000
 21
16.148000
  0
LINE
  8
0
 10
-15.990000
 11
-16.345000
 20
16.148000
 21
16.324000
  0
LINE
  8
0
 10
-16.345000
 11
-16.797000
 20
16.324000
 21
16.642000
  0
LINE
  8
0
 10
-16.797000
 11
-17.310000
 20
16.642000
 21
17.134000
  0
LINE
  8
0
 10
-17.310000
 11
-17.221000
 20
17.134000
 21
17.557000
  0
LINE
  8
0
 10
-17.221000
 11
-16.551000
 20
17.557000
 21
17.798000
  0
LINE
  8
0
 10
-16.551000
 11
-16.009000
 20
17.798000
 21
17.904000
  0
LINE
  8
0
 10
-16.009000
 11
-15.614000
 20
17.904000
 21
17.920000
  0
LINE
  8
0
 10
-15.614000
 11
-15.378000
 20
17.920000
 21
17.894000
  0
LINE
  8
0
 10
-15.378000
 11
-15.301000
 20
17.894000
 21
17.876000
  0
LINE
  8
0
 10
-15.301000
 11
-14.964000
 20
17.876000
 21
17.754000
  0
LINE
  8
0
 10
-14.964000
 11
-14.599000
 20
17.754000
 21
18.573000
  0
LINE
  8
0
 10
-14.599000
 11
-14.916000
 20
18.573000
 21
18.741000
  0
LINE
  8
0
 10
-14.916000
 11
-14.982000
 20
18.741000
 21
18.785000
  0
LINE
  8
0
 10
-14.982000
 11
-15.160000
 20
18.785000
 21
18.943000
  0
LINE
  8
0
 10
-15.160000
 11
-15.411000
 20
18.943000
 21
19.247000
  0
LINE
  8
0
 10
-15.411000
 11
-15.696000
 20
19.247000
 21
19.721000
  0
LINE
  8
0
 10
-15.696000
 11
-15.964000
 20
19.721000
 21
20.380000
  0
LINE
  8
0
 10
-15.964000
 11
-15.709000
 20
20.380000
 21
20.730000
  0
LINE
  8
0
 10
-15.709000
 11
-15.000000
 20
20.730000
 21
20.678000
  0
LINE
  8
0
 10
-15.000000
 11
-14.461000
 20
20.678000
 21
20.555000
  0
LINE
  8
0
 10
-14.461000
 11
-14.094000
 20
20.555000
 21
20.409000
  0
LINE
  8
0
 10
-14.094000
 11
-13.888000
 20
20.409000
 21
20.289000
  0
LINE
  8
0
 10
-13.888000
 11
-13.827000
 20
20.289000
 21
20.241000
  0
LINE
  8
0
 10
-13.827000
 11
-13.568000
 20
20.241000
 21
19.992000
  0
LINE
  8
0
 10
-13.568000
 11
-12.902000
 20
19.992000
 21
20.592000
  0
LINE
  8
0
 10
-12.902000
 11
-13.122000
 20
20.592000
 21
20.874000
  0
LINE
  8
0
 10
-13.122000
 11
-13.164000
 20
20.874000
 21
20.942000
  0
LINE
  8
0
 10
-13.164000
 11
-13.262000
 20
20.942000
 21
21.158000
  0
LINE
  8
0
 10
-13.262000
 11
-13.368000
 20
21.158000
 21
21.538000
  0
LINE
  8
0
 10
-13.368000
 11
-13.435000
 20
21.538000
 21
22.088000
  0
LINE
  8
0
 10
-13.435000
 11
-13.412000
 20
22.088000
 21
22.798000
  0
LINE
  8
0
 10
-13.412000
 11
-13.038000
 20
22.798000
 21
23.014000
  0
LINE
  8
0
 10
-13.038000
 11
-12.411000
 20
23.014000
 21
22.679000
  0
LINE
  8
0
 10
-12.411000
 11
-11.969000
 20
22.679000
 21
22.346000
  0
LINE
  8
0
 10
-11.969000
 11
-11.692000
 20
22.346000
 21
22.064000
  0
LINE
  8
0
 10
-11.692000
 11
-11.554000
 20
22.064000
 21
21.871000
  0
LINE
  8
0
 10
-11.554000
 11
-11.517000
 20
21.871000
 21
21.802000
  0
LINE
  8
0
 10
-11.517000
 11
-11.382000
 20
21.802000
 21
21.468000
  0
LINE
  8
0
 10
-11.382000
 11
-10.529000
 20
21.468000
 21
21.746000
  0
LINE
  8
0
 10
-10.529000
 11
-10.615000
 20
21.746000
 21
22.094000
  0
LINE
  8
0
 10
-10.615000
 11
-10.627000
 20
22.094000
 21
22.172000
  0
LINE
  8
0
 10
-10.627000
 11
-10.628000
 20
22.172000
 21
22.409000
  0
LINE
  8
0
 10
-10.628000
 11
-10.570000
 20
22.409000
 21
22.800000
  0
LINE
  8
0
 10
-10.570000
 11
-10.408000
 20
22.800000
 21
23.329000
  0
LINE
  8
0
 10
-10.408000
 11
-10.098000
 20
23.329000
 21
23.970000
  0
LINE
  8
0
 10
-10.098000
 11
-9.669000
 20
23.970000
 21
24.015000
  0
LINE
  8
0
 10
-9.669000
 11
-9.232000
 20
24.015000
 21
23.453000
  0
LINE
  8
0
 10
-9.232000
 11
-8.964000
 20
23.453000
 21
22.970000
  0
LINE
  8
0
 10
-8.964000
 11
-8.825000
 20
22.970000
 21
22.599000
  0
LINE
  8
0
 10
-8.825000
 11
-8.777000
 20
22.599000
 21
22.367000
  0
LINE
  8
0
 10
-8.777000
 11
-8.772000
 20
22.367000
 21
22.288000
  0
LINE
  8
0
 10
-8.772000
 11
-8.784000
 20
22.288000
 21
21.929000
  0
LINE
  8
0
 10
-8.784000
 11
-7.893000
 20
21.929000
 21
21.836000
  0
LINE
  8
0
 10
-7.893000
 11
-7.830000
 20
21.836000
 21
22.189000
  0
LINE
  8
0
 10
-7.830000
 11
-7.807000
 20
22.189000
 21
22.264000
  0
LINE
  8
0
 10
-7.807000
 11
-7.713000
 20
22.264000
 21
22.481000
  0
LINE
  8
0
 10
-7.713000
 11
-7.501000
 20
22.481000
 21
22.816000
  0
LINE
  8
0
 10
-7.501000
 11
-7.138000
 20
22.816000
 21
23.233000
  0
LINE
  8
0
 10
-7.138000
 11
-6.594000
 20
23.233000
 21
23.692000
  0
LINE
  8
0
 10
-6.594000
 11
-6.184000
 20
23.692000
 21
23.558000
  0
LINE
  8
0
 10
-6.184000
 11
-6.014000
 20
23.558000
 21
22.868000
  0
LINE
  8
0
 10
-6.014000
 11
-5.964000
 20
22.868000
 21
22.317000
  0
LINE
  8
0
 10
-5.964000
 11
-5.989000
 20
22.317000
 21
21.921000
  0
LINE
  8
0
 10
-5.989000
 11
-6.041000
 20
21.921000
 21
21.691000
  0
LINE
  8
0
 10
-6.041000
 11
-6.067000
 20
21.691000
 21
21.616000
  0
LINE
  8
0
 10
-6.067000
 11
-6.224000
 20
21.616000
 21
21.294000
  0
LINE
  8
0
 10
-6.224000
 11
-5.447000
 20
21.294000
 21
20.846000
  0
LINE
  8
0
 10
-5.447000
 11
-5.247000
 20
20.846000
 21
21.142000
  0
LINE
  8
0
 10
-5.247000
 11
-5.195000
 20
21.142000
 21
21.202000
  0
LINE
  8
0
 10
-5.195000
 11
-5.020000
 20
21.202000
 21
21.363000
  0
LINE
  8
0
 10
-5.020000
 11
-4.691000
 20
21.363000
 21
21.582000
  0
LINE
  8
0
 10
-4.691000
 11
-4.188000
 20
21.582000
 21
21.814000
  0
LINE
  8
0
 10
-4.188000
 11
-3.507000
 20
21.814000
 21
22.012000
  0
LINE
  8
0
 10
-3.507000
 11
-3.186000
 20
22.012000
 21
21.724000
  0
LINE
  8
0
 10
-3.186000
 11
-3.311000
 20
21.724000
 21
21.023000
  0
LINE
  8
0
 10
-3.311000
 11
-3.490000
 20
21.023000
 21
20.501000
  0
LINE
  8
0
 10
-3.490000
 11
-3.674000
 20
20.501000
 21
20.150000
  0
LINE
  8
0
 10
-3.674000
 11
-3.814000
 20
20.150000
 21
19.959000
  0
LINE
  8
0
 10
-3.814000
 11
-3.868000
 20
19.959000
 21
19.902000
  0
LINE
  8
0
 10
-3.868000
 11
-4.144000
 20
19.902000
 21
19.672000
  0
LINE
  8
0
 10
-4.144000
 11
-3.616000
 20
19.672000
 21
18.945000
  0
LINE
  8
0
 10
-3.616000
 11
-3.312000
 20
18.945000
 21
19.136000
  0
LINE
  8
0
 10
-3.312000
 11
-3.241000
 20
19.136000
 21
19.170000
  0
LINE
  8
0
 10
-3.241000
 11
-3.016000
 20
19.170000
 21
19.244000
  0
LINE
  8
0
 10
-3.016000
 11
-2.625000
 20
19.244000
 21
19.312000
  0
LINE
  8
0
 10
-2.625000
 11
-2.074000
 20
19.312000
 21
19.320000
  0
LINE
  8
0
 10
-2.074000
 11
-1.368000
 20
19.320000
 21
19.222000
  0
LINE
  8
0
 10
-1.368000
 11
-1.193000
 20
19.222000
 21
18.828000
  0
LINE
  8
0
 10
-1.193000
 11
-1.591000
 20
18.828000
 21
18.240000
  0
LINE
  8
0
 10
-1.591000
 11
-1.968000
 20
18.240000
 21
17.834000
  0
LINE
  8
0
 10
-1.968000
 11
-2.278000
 20
17.834000
 21
17.590000
  0
LINE
  8
0
 10
-2.278000
 11
-2.485000
 20
17.590000
 21
17.472000
  0
LINE
  8
0
 10
-2.485000
 11
-2.558000
 20
17.472000
 21
17.442000
  0
LINE
  8
0
 10
-2.558000
 11
-2.902000
 20
17.442000
 21
17.342000
  0
LINE
  8
0
 10
-2.902000
 11
-2.716000
 20
17.342000
 21
16.467000
  0
LINE
  8
0
 10
-2.716000
 11
-2.361000
 20
16.467000
 21
16.516000
  0
LINE
  8
0
 10
-2.361000
 11
-2.283000
 20
16.516000
 21
16.518000
  0
LINE
  8
0
 10
-2.283000
 11
-2.046000
 20
16.518000
 21
16.495000
  0
LINE
  8
0
 10
-2.046000
 11
-1.663000
 20
16.495000
 21
16.396000
  0
LINE
  8
0
 10
-1.663000
 11
-1.154000
 20
16.396000
 21
16.179000
  0
LINE
  8
0
 10
-1.154000
 11
-0.550000
 20
16.179000
 21
15.804000
  0
LINE
  8
0
 10
-0.550000
 11
-0.549000
 20
15.804000
 21
15.372000
  0
LINE
  8
0
 10
-0.549000
 11
-1.154000
 20
15.372000
 21
14.997000
  0
LINE
  8
0
 10
-1.154000
 11
-1.663000
 20
14.997000
 21
14.781000
  0
LINE
  8
0
 10
-1.663000
 11
-2.047000
 20
14.781000
 21
14.683000
  0
LINE
  8
0
 10
-2.047000
 11
-2.282000
 20
14.683000
 21
14.660000
  0
LINE
  8
0
 10
-2.282000
 11
-2.361000
 20
14.660000
 21
14.662000
  0
LINE
  8
0
 10
-2.361000
 11
-2.717000
 20
14.662000
 21
14.712000
  0
LINE
  8
0
 10
-2.717000
 11
-2.902000
 20
14.712000
 21
13.834000
  0
LINE
  8
0
 10
-2.902000
 11
-2.558000
 20
13.834000
 21
13.735000
  0
LINE
  8
0
 10
-2.558000
 11
-2.485000
 20
13.735000
 21
13.706000
  0
LINE
  8
0
 10
-2.485000
 11
-2.278000
 20
13.706000
 21
13.588000
  0
LINE
  8
0
 10
-2.278000
 11
-1.969000
 20
13.588000
 21
13.342000
  0
LINE
  8
0
 10
-1.969000
 11
-1.592000
 20
13.342000
 21
12.937000
  0
LINE
  8
0
 10
-1.592000
 11
-1.193000
 20
12.937000
 21
12.349000
  0
LINE
  8
0
 10
-1.193000
 11
-1.369000
 20
12.349000
 21
11.954000
  0
LINE
  8
0
 10
-1.369000
 11
-2.073000
 20
11.954000
 21
11.857000
  0
LINE
  8
0
 10
-2.073000
 11
-2.626000
 20
11.857000
 21
11.866000
  0
LINE
  8
0
 10
-2.626000
 11
-3.016000
 20
11.866000
 21
11.932000
  0
LINE
  8
0
 10
-3.016000
 11
-3.241000
 20
11.932000
 21
12.007000
  0
LINE
  8
0
 10
-3.241000
 11
-3.311000
 20
12.007000
 21
12.042000
  0
LINE
  8
0
 10
-3.311000
 11
-3.616000
 20
12.042000
 21
12.232000
  0
LINE
  8
0
 10
-3.616000
 11
-4.143000
 20
12.232000
 21
11.506000
  0
LINE
  8
0
 10
-4.143000
 11
-3.869000
 20
11.506000
 21
11.275000
  0
LINE
  8
0
 10
-3.869000
 11
-3.815000
 20
11.275000
 21
11.217000
  0
LINE
  8
0
 10
-3.815000
 11
-3.674000
 20
11.217000
 21
11.027000
  0
LINE
  8
0
 10
-3.674000
 11
-3.491000
 20
11.027000
 21
10.677000
  0
LINE
  8
0
 10
-3.491000
 11
-3.311000
 20
10.677000
 21
10.154000
  0
LINE
  8
0
 10
-3.311000
 11
-3.186000
 20
10.154000
 21
9.454000
  0
LINE
  8
0
 10
-3.186000
 11
-3.507000
 20
9.454000
 21
9.164000
  0
LINE
  8
0
 10
-3.507000
 11
-4.189000
 20
9.164000
 21
9.362000
  0
LINE
  8
0
 10
-4.189000
 11
-4.691000
 20
9.362000
 21
9.596000
  0
LINE
  8
0
 10
-4.691000
 11
-5.020000
 20
9.596000
 21
9.814000
  0
LINE
  8
0
 10
-5.020000
 11
-5.195000
 20
9.814000
 21
9.975000
  0
LINE
  8
0
 10
-5.195000
 11
-5.246000
 20
9.975000
 21
10.034000
  0
LINE
  8
0
 10
-5.246000
 11
-5.448000
 20
10.034000
 21
10.331000
  0
LINE
  8
0
 10
-5.448000
 11
-6.224000
 20
10.331000
 21
9.884000
  0
LINE
  8
0
 10
-6.224000
 11
-6.067000
 20
9.884000
 21
9.560000
  0
LINE
  8
0
 10
-6.067000
 11
-6.041000
 20
9.560000
 21
9.487000
  0
LINE
  8
0
 10
-6.041000
 11
-5.989000
 20
9.487000
 21
9.255000
  0
LINE
  8
0
 10
-5.989000
 11
-5.964000
 20
9.255000
 21
8.860000
  0
LINE
  8
0
 10
-5.964000
 11
-6.013000
 20
8.860000
 21
8.309000
  0
LINE
  8
0
 10
-6.013000
 11
-6.184000
 20
8.309000
 21
7.619000
  0
LINE
  8
0
 10
-6.184000
 11
-6.594000
 20
7.619000
 21
7.485000
  0
LINE
  8
0
 10
-6.594000
 11
-7.138000
 20
7.485000
 21
7.944000
  0
LINE
  8
0
 10
-7.138000
 11
-7.502000
 20
7.944000
 21
8.361000
  0
LINE
  8
0
 10
-7.502000
 11
-7.713000
 20
8.361000
 21
8.695000
  0
LINE
  8
0
 10
-7.713000
 11
-7.808000
 20
8.695000
 21
8.912000
  0
LINE
  8
0
 10
-7.808000
 11
-7.830000
 20
8.912000
 21
8.987000
  0
LINE
  8
0
 10
-7.830000
 11
-7.892000
 20
8.987000
 21
9.341000
  0
LINE
  8
0
 10
-7.892000
 11
-8.784000
 20
9.341000
 21
9.248000
  0
LINE
  8
0
 10
-8.784000
 11
-8.772000
 20
9.248000
 21
8.889000
  0
LINE
  8
0
 10
-8.772000
 11
-8.778000
 20
8.889000
 21
8.810000
  0
LINE
  8
0
 10
-8.778000
 11
-8.827000
 20
8.810000
 21
8.578000
  0
LINE
  8
0
 10
-8.827000
 11
-8.963000
 20
8.578000
 21
8.207000
  0
LINE
  8
0
 10
-8.963000
 11
-9.233000
 20
8.207000
 21
7.723000
  0
LINE
  8
0
 10
-9.233000
 11
-9.668000
 20
7.723000
 21
7.162000
  0
LINE
  8
0
 10
-9.668000
 11
-10.099000
 20
7.162000
 21
7.207000
  0
LINE
  8
0
 10
-10.099000
 11
-10.408000
 20
7.207000
 21
7.847000
  0
LINE
  8
0
 10
-10.408000
 11
-10.570000
 20
7.847000
 21
8.376000
  0
LINE
  8
0
 10
-10.570000
 11
-10.627000
 20
8.376000
 21
8.767000
  0
LINE
  8
0
 10
-10.627000
 11
-10.627000
 20
8.767000
 21
9.004000
  0
LINE
  8
0
 10
-10.627000
 11
-10.616000
 20
9.004000
 21
9.083000
  0
LINE
  8
0
 10
-10.616000
 11
-10.530000
 20
9.083000
 21
9.430000
  0
LINE
  8
0
 10
-10.530000
 11
-11.382000
 20
9.430000
 21
9.708000
  0
LINE
  8
0
 10
-11.382000
 11
-11.517000
 20
9.708000
 21
9.376000
  0
LINE
  8
0
 10
-11.517000
 11
-11.554000
 20
9.376000
 21
9.307000
  0
LINE
  8
0
 10
-11.554000
 11
-11.692000
 20
9.307000
 21
9.114000
  0
LINE
  8
0
 10
-11.692000
 11
-11.969000
 20
9.114000
 21
8.831000
  0
LINE
  8
0
 10
-11.969000
 11
-12.411000
 20
8.831000
 21
8.498000
  0
LINE
  8
0
 10
-12.411000
 11
-13.038000
 20
8.498000
 21
8.163000
  0
LINE
  8
0
 10
-13.038000
 11
-13.412000
 20
8.163000
 21
8.378000
  0
LINE
  8
0
 10
-13.412000
 11
-13.435000
 20
8.378000
 21
9.089000
  0
LINE
  8
0
 10
-13.435000
 11
-13.368000
 20
9.089000
 21
9.638000
  0
LINE
  8
0
 10
-13.368000
 11
-13.261000
 20
9.638000
 21
10.019000
  0
LINE
  8
0
 10
-13.261000
 11
-13.163000
 20
10.019000
 21
10.235000
  0
LINE
  8
0
 10
-13.163000
 11
-13.123000
 20
10.235000
 21
10.303000
  0
LINE
  8
0
 10
-13.123000
 11
-12.902000
 20
10.303000
 21
10.585000
  0
LINE
  8
0
 10
-12.902000
 11
-13.568000
 20
10.585000
 21
11.185000
  0
LINE
  8
0
 10
-13.568000
 11
-13.826000
 20
11.185000
 21
10.936000
  0
LINE
  8
0
 10
-13.826000
 11
-13.889000
 20
10.936000
 21
10.888000
  0
LINE
  8
0
 10
-13.889000
 11
-14.093000
 20
10.888000
 21
10.768000
  0
LINE
  8
0
 10
-14.093000
 11
-14.461000
 20
10.768000
 21
10.623000
  0
LINE
  8
0
 10
-14.461000
 11
-15.000000
 20
10.623000
 21
10.499000
  0
LINE
  8
0
 10
-15.000000
 11
-15.709000
 20
10.499000
 21
10.447000
  0
LINE
  8
0
 10
-15.709000
 11
-15.963000
 20
10.447000
 21
10.797000
  0
LINE
  8
0
 10
-15.963000
 11
-15.695000
 20
10.797000
 21
11.455000
  0
LINE
  8
0
 10
-15.695000
 11
-15.411000
 20
11.455000
 21
11.930000
  0
LINE
  8
0
 10
-15.411000
 11
-15.159000
 20
11.930000
 21
12.234000
  0
LINE
  8
0
 10
-15.159000
 11
-14.981000
 20
12.234000
 21
12.392000
  0
LINE
  8
0
 10
-14.981000
 11
-14.916000
 20
12.392000
 21
12.436000
  0
LINE
  8
0
 10
-14.916000
 11
-14.599000
 20
12.436000
 21
12.604000
  0
LINE
  8
0
 10
-14.599000
 11
-14.964000
 20
12.604000
 21
13.423000
  0
LINE
  8
0
 10
-14.964000
 11
-15.300000
 20
13.423000
 21
13.301000
  0
LINE
  8
0
 10
-15.300000
 11
-15.378000
 20
13.301000
 21
13.284000
  0
LINE
  8
0
 10
-15.378000
 11
-15.614000
 20
13.284000
 21
13.257000
  0
LINE
  8
0
 10
-15.614000
 11
-16.008000
 20
13.257000
 21
13.273000
  0
LINE
  8
0
 10
-16.008000
 11
-16.552000
 20
13.273000
 21
13.378000
  0
LINE
  8
0
 10
-16.552000
 11
-17.220000
 20
13.378000
 21
13.621000
  0
LINE
  8
0
 10
-17.220000
 11
-17.310000
 20
13.621000
 21
14.042000
  0
LINE
  8
0
 10
-12.780000
 11
-12.774000
 20
13.306000
 21
13.502000
  0
LINE
  8
0
 10
-12.774000
 11
-12.719000
 20
13.502000
 21
13.690000
  0
LINE
  8
0
 10
-12.719000
 11
-12.616000
 20
13.690000
 21
13.856000
  0
LINE
  8
0
 10
-12.616000
 11
-12.475000
 20
13.856000
 21
13.991000
  0
LINE
  8
0
 10
-12.475000
 11
-12.302000
 20
13.991000
 21
14.084000
  0
LINE
  8
0
 10
-12.302000
 11
-12.112000
 20
14.084000
 21
14.131000
  0
LINE
  8
0
 10
-12.112000
 11
-11.917000
 20
14.131000
 21
14.125000
  0
LINE
  8
0
 10
-11.917000
 11
-11.728000
 20
14.125000
 21
14.070000
  0
LINE
  8
0
 10
-11.728000
 11
-11.563000
 20
14.070000
 21
13.967000
  0
LINE
  8
0
 10
-11.563000
 11
-11.427000
 20
13.967000
 21
13.825000
  0
LINE
  8
0
 10
-11.427000
 11
-11.334000
 20
13.825000
 21
13.653000
  0
LINE
  8
0
 10
-11.334000
 11
-11.288000
 20
13.653000
 21
13.463000
  0
LINE
  8
0
 10
-11.288000
 11
-11.293000
 20
13.463000
 21
13.267000
  0
LINE
  8
0
 10
-11.293000
 11
-11.349000
 20
13.267000
 21
13.079000
  0
LINE
  8
0
 10
-11.349000
 11
-11.451000
 20
13.079000
 21
12.912000
  0
LINE
  8
0
 10
-11.451000
 11
-11.593000
 20
12.912000
 21
12.777000
  0
LINE
  8
0
 10
-11.593000
 11
-11.766000
 20
12.777000
 21
12.685000
  0
LINE
  8
0
 10
-11.766000
 11
-11.955000
 20
12.685000
 21
12.638000
  0
LINE
  8
0
 10
-11.955000
 11
-12.151000
 20
12.638000
 21
12.644000
  0
LINE
  8
0
 10
-12.151000
 11
-12.339000
 20
12.644000
 21
12.699000
  0
LINE
  8
0
 10
-12.339000
 11
-12.505000
 20
12.699000
 21
12.802000
  0
LINE
  8
0
 10
-12.505000
 11
-12.640000
 20
12.802000
 21
12.944000
  0
LINE
  8
0
 10
-12.640000
 11
-12.734000
 20
12.944000
 21
13.115000
  0
LINE
  8
0
 10
-12.734000
 11
-12.780000
 20
13.115000
 21
13.306000
  0
LINE
  8
0
 10
-11.341000
 11
-10.700000
 20
-1.471000
 21
-0.963000
  0
LINE
  8
0
 10
-10.700000
 11
-10.151000
 20
-0.963000
 21
-0.639000
  0
LINE
  8
0
 10
-10.151000
 11
-9.731000
 20
-0.639000
 21
-0.465000
  0
LINE
  8
0
 10
-9.731000
 11
-9.467000
 20
-0.465000
 21
-0.395000
  0
LINE
  8
0
 10
-9.467000
 11
-9.377000
 20
-0.395000
 21
-0.383000
  0
LINE
  8
0
 10
-9.377000
 11
-9.321000
 20
-0.383000
 21
-0.381000
  0
LINE
  8
0
 10
-9.321000
 11
-9.321000
 20
-0.381000
 21
0.381000
  0
LINE
  8
0
 10
-9.321000
 11
-9.377000
 20
0.381000
 21
0.383000
  0
LINE
  8
0
 10
-9.377000
 11
-9.467000
 20
0.383000
 21
0.395000
  0
LINE
  8
0
 10
-9.467000
 11
-9.731000
 20
0.395000
 21
0.465000
  0
LINE
  8
0
 10
-9.731000
 11
-10.151000
 20
0.465000
 21
0.639000
  0
LINE
  8
0
 10
-10.151000
 11
-10.700000
 20
0.639000
 21
0.963000
  0
LINE
  8
0
 10
-10.700000
 11
-11.341000
 20
0.963000
 21
1.471000
  0
LINE
  8
0
 10
-11.341000
 11
-11.271000
 20
1.471000
 21
1.938000
  0
LINE
  8
0
 10
-11.271000
 11
-10.508000
 20
1.938000
 21
2.234000
  0
LINE
  8
0
 10
-10.508000
 11
-9.889000
 20
2.234000
 21
2.381000
  0
LINE
  8
0
 10
-9.889000
 11
-9.436000
 20
2.381000
 21
2.424000
  0
LINE
  8
0
 10
-9.436000
 11
-9.163000
 20
2.424000
 21
2.413000
  0
LINE
  8
0
 10
-9.163000
 11
-9.073000
 20
2.413000
 21
2.398000
  0
LINE
  8
0
 10
-9.073000
 11
-9.019000
 20
2.398000
 21
2.384000
  0
LINE
  8
0
 10
-9.019000
 11
-8.795000
 20
2.384000
 21
3.112000
  0
LINE
  8
0
 10
-8.795000
 11
-8.847000
 20
3.112000
 21
3.130000
  0
LINE
  8
0
 10
-8.847000
 11
-8.930000
 20
3.130000
 21
3.168000
  0
LINE
  8
0
 10
-8.930000
 11
-9.162000
 20
3.168000
 21
3.312000
  0
LINE
  8
0
 10
-9.162000
 11
-9.512000
 20
3.312000
 21
3.603000
  0
LINE
  8
0
 10
-9.512000
 11
-9.941000
 20
3.603000
 21
4.074000
  0
LINE
  8
0
 10
-9.941000
 11
-10.404000
 20
4.074000
 21
4.748000
  0
LINE
  8
0
 10
-10.404000
 11
-10.199000
 20
4.748000
 21
5.174000
  0
LINE
  8
0
 10
-10.199000
 11
-9.383000
 20
5.174000
 21
5.232000
  0
LINE
  8
0
 10
-9.383000
 11
-8.747000
 20
5.232000
 21
5.190000
  0
LINE
  8
0
 10
-8.747000
 11
-8.302000
 20
5.190000
 21
5.098000
  0
LINE
  8
0
 10
-8.302000
 11
-8.045000
 20
5.098000
 21
5.006000
  0
LINE
  8
0
 10
-8.045000
 11
-7.963000
 20
5.006000
 21
4.966000
  0
LINE
  8
0
 10
-7.963000
 11
-7.916000
 20
4.966000
 21
4.936000
  0
LINE
  8
0
 10
-7.916000
 11
-7.487000
 20
4.936000
 21
5.565000
  0
LINE
  8
0
 10
-7.487000
 11
-7.532000
 20
5.565000
 21
5.598000
  0
LINE
  8
0
 10
-7.532000
 11
-7.599000
 20
5.598000
 21
5.660000
  0
LINE
  8
0
 10
-7.599000
 11
-7.779000
 20
5.660000
 21
5.866000
  0
LINE
  8
0
 10
-7.779000
 11
-8.027000
 20
5.866000
 21
6.246000
  0
LINE
  8
0
 10
-8.027000
 11
-8.299000
 20
6.246000
 21
6.823000
  0
LINE
  8
0
 10
-8.299000
 11
-8.542000
 20
6.823000
 21
7.604000
  0
LINE
  8
0
 10
-8.542000
 11
-8.221000
 20
7.604000
 21
7.950000
  0
LINE
  8
0
 10
-8.221000
 11
-7.424000
 20
7.950000
 21
7.766000
  0
LINE
  8
0
 10
-7.424000
 11
-6.829000
 20
7.766000
 21
7.538000
  0
LINE
  8
0
 10
-6.829000
 11
-6.431000
 20
7.538000
 21
7.319000
  0
LINE
  8
0
 10
-6.431000
 11
-6.212000
 20
7.319000
 21
7.155000
  0
LINE
  8
0
 10
-6.212000
 11
-6.146000
 20
7.155000
 21
7.092000
  0
LINE
  8
0
 10
-6.146000
 11
-6.110000
 20
7.092000
 21
7.050000
  0
LINE
  8
0
 10
-6.110000
 11
-5.514000
 20
7.050000
 21
7.525000
  0
LINE
  8
0
 10
-5.514000
 11
-5.547000
 20
7.525000
 21
7.570000
  0
LINE
  8
0
 10
-5.547000
 11
-5.593000
 20
7.570000
 21
7.648000
  0
LINE
  8
0
 10
-5.593000
 11
-5.704000
 20
7.648000
 21
7.898000
  0
LINE
  8
0
 10
-5.704000
 11
-5.829000
 20
7.898000
 21
8.335000
  0
LINE
  8
0
 10
-5.829000
 11
-5.919000
 20
8.335000
 21
8.966000
  0
LINE
  8
0
 10
-5.919000
 11
-5.921000
 20
8.966000
 21
9.784000
  0
LINE
  8
0
 10
-5.921000
 11
-5.513000
 20
9.784000
 21
10.020000
  0
LINE
  8
0
 10
-5.513000
 11
-4.805000
 20
10.020000
 21
9.609000
  0
LINE
  8
0
 10
-4.805000
 11
-4.304000
 20
9.609000
 21
9.216000
  0
LINE
  8
0
 10
-4.304000
 11
-3.988000
 20
9.216000
 21
8.889000
  0
LINE
  8
0
 10
-3.988000
 11
-3.827000
 20
8.889000
 21
8.668000
  0
LINE
  8
0
 10
-3.827000
 11
-3.782000
 20
8.668000
 21
8.589000
  0
LINE
  8
0
 10
-3.782000
 11
-3.759000
 20
8.589000
 21
8.538000
  0
LINE
  8
0
 10
-3.759000
 11
-3.051000
 20
8.538000
 21
8.816000
  0
LINE
  8
0
 10
-3.051000
 11
-3.069000
 20
8.816000
 21
8.868000
  0
LINE
  8
0
 10
-3.069000
 11
-3.091000
 20
8.868000
 21
8.957000
  0
LINE
  8
0
 10
-3.091000
 11
-3.123000
 20
8.957000
 21
9.228000
  0
LINE
  8
0
 10
-3.123000
 11
-3.114000
 20
9.228000
 21
9.683000
  0
LINE
  8
0
 10
-3.114000
 11
-3.013000
 20
9.683000
 21
10.312000
  0
LINE
  8
0
 10
-3.013000
 11
-2.774000
 20
10.312000
 21
11.095000
  0
LINE
  8
0
 10
-2.774000
 11
-2.314000
 20
11.095000
 21
11.200000
  0
LINE
  8
0
 10
-2.314000
 11
-1.759000
 20
11.200000
 21
10.598000
  0
LINE
  8
0
 10
-1.759000
 11
-1.396000
 20
10.598000
 21
10.075000
  0
LINE
  8
0
 10
-1.396000
 11
-1.191000
 20
10.075000
 21
9.670000
  0
LINE
  8
0
 10
-1.191000
 11
-1.102000
 20
9.670000
 21
9.411000
  0
LINE
  8
0
 10
-1.102000
 11
-1.082000
 20
9.411000
 21
9.322000
  0
LINE
  8
0
 10
-1.082000
 11
-1.076000
 20
9.322000
 21
9.267000
  0
LINE
  8
0
 10
-1.076000
 11
-0.317000
 20
9.267000
 21
9.323000
  0
LINE
  8
0
 10
-0.317000
 11
-0.319000
 20
9.323000
 21
9.379000
  0
LINE
  8
0
 10
-0.319000
 11
-0.313000
 20
9.379000
 21
9.470000
  0
LINE
  8
0
 10
-0.313000
 11
-0.264000
 20
9.470000
 21
9.739000
  0
LINE
  8
0
 10
-0.264000
 11
-0.121000
 20
9.739000
 21
10.171000
  0
LINE
  8
0
 10
-0.121000
 11
0.160000
 20
10.171000
 21
10.742000
  0
LINE
  8
0
 10
0.160000
 11
0.619000
 20
10.742000
 21
11.420000
  0
LINE
  8
0
 10
0.619000
 11
1.090000
 20
11.420000
 21
11.384000
  0
LINE
  8
0
 10
1.090000
 11
1.443000
 20
11.384000
 21
10.646000
  0
LINE
  8
0
 10
1.443000
 11
1.636000
 20
10.646000
 21
10.039000
  0
LINE
  8
0
 10
1.636000
 11
1.713000
 20
10.039000
 21
9.591000
  0
LINE
  8
0
 10
1.713000
 11
1.721000
 20
9.591000
 21
9.317000
  0
LINE
  8
0
 10
1.721000
 11
1.713000
 20
9.317000
 21
9.227000
  0
LINE
  8
0
 10
1.713000
 11
1.703000
 20
9.227000
 21
9.172000
  0
LINE
  8
0
 10
1.703000
 11
2.446000
 20
9.172000
 21
9.003000
  0
LINE
  8
0
 10
2.446000
 11
2.460000
 20
9.003000
 21
9.056000
  0
LINE
  8
0
 10
2.460000
 11
2.492000
 20
9.056000
 21
9.141000
  0
LINE
  8
0
 10
2.492000
 11
2.618000
 20
9.141000
 21
9.384000
  0
LINE
  8
0
 10
2.618000
 11
2.882000
 20
9.384000
 21
9.754000
  0
LINE
  8
0
 10
2.882000
 11
3.319000
 20
9.754000
 21
10.218000
  0
LINE
  8
0
 10
3.319000
 11
3.958000
 20
10.218000
 21
10.730000
  0
LINE
  8
0
 10
3.958000
 11
4.397000
 20
10.730000
 21
10.557000
  0
LINE
  8
0
 10
4.397000
 11
4.516000
 20
10.557000
 21
9.748000
  0
LINE
  8
0
 10
4.516000
 11
4.522000
 20
9.748000
 21
9.111000
  0
LINE
  8
0
 10
4.522000
 11
4.463000
 20
9.111000
 21
8.660000
  0
LINE
  8
0
 10
4.463000
 11
4.391000
 20
8.660000
 21
8.396000
  0
LINE
  8
0
 10
4.391000
 11
4.357000
 20
8.396000
 21
8.312000
  0
LINE
  8
0
 10
4.357000
 11
4.331000
 20
8.312000
 21
8.263000
  0
LINE
  8
0
 10
4.331000
 11
4.990000
 20
8.263000
 21
7.882000
  0
LINE
  8
0
 10
4.990000
 11
5.020000
 20
7.882000
 21
7.929000
  0
LINE
  8
0
 10
5.020000
 11
5.076000
 20
7.929000
 21
8.001000
  0
LINE
  8
0
 10
5.076000
 11
5.268000
 20
8.001000
 21
8.195000
  0
LINE
  8
0
 10
5.268000
 11
5.629000
 20
8.195000
 21
8.472000
  0
LINE
  8
0
 10
5.629000
 11
6.184000
 20
8.472000
 21
8.785000
  0
LINE
  8
0
 10
6.184000
 11
6.944000
 20
8.785000
 21
9.087000
  0
LINE
  8
0
 10
6.944000
 11
7.313000
 20
9.087000
 21
8.792000
  0
LINE
  8
0
 10
7.313000
 11
7.189000
 20
8.792000
 21
7.983000
  0
LINE
  8
0
 10
7.189000
 11
7.007000
 20
7.983000
 21
7.373000
  0
LINE
  8
0
 10
7.007000
 11
6.818000
 20
7.373000
 21
6.960000
  0
LINE
  8
0
 10
6.818000
 11
6.671000
 20
6.960000
 21
6.729000
  0
LINE
  8
0
 10
6.671000
 11
6.613000
 20
6.729000
 21
6.658000
  0
LINE
  8
0
 10
6.613000
 11
6.574000
 20
6.658000
 21
6.619000
  0
LINE
  8
0
 10
6.574000
 11
7.091000
 20
6.619000
 21
6.061000
  0
LINE
  8
0
 10
7.091000
 11
7.134000
 20
6.061000
 21
6.097000
  0
LINE
  8
0
 10
7.134000
 11
7.209000
 20
6.097000
 21
6.149000
  0
LINE
  8
0
 10
7.209000
 11
7.450000
 20
6.149000
 21
6.279000
  0
LINE
  8
0
 10
7.450000
 11
7.876000
 20
6.279000
 21
6.436000
  0
LINE
  8
0
 10
7.876000
 11
8.498000
 20
6.436000
 21
6.572000
  0
LINE
  8
0
 10
8.498000
 11
9.314000
 20
6.572000
 21
6.636000
  0
LINE
  8
0
 10
9.314000
 11
9.580000
 20
6.636000
 21
6.246000
  0
LINE
  8
0
 10
9.580000
 11
9.223000
 20
6.246000
 21
5.510000
  0
LINE
  8
0
 10
9.223000
 11
8.869000
 20
5.510000
 21
4.980000
  0
LINE
  8
0
 10
8.869000
 11
8.566000
 20
4.980000
 21
4.641000
  0
LINE
  8
0
 10
8.566000
 11
8.358000
 20
4.641000
 21
4.464000
  0
LINE
  8
0
 10
8.358000
 11
8.282000
 20
4.464000
 21
4.413000
  0
LINE
  8
0
 10
8.282000
 11
8.233000
 20
4.413000
 21
4.387000
  0
LINE
  8
0
 10
8.233000
 11
8.563000
 20
4.387000
 21
3.702000
  0
LINE
  8
0
 10
8.563000
 11
8.614000
 20
3.702000
 21
3.724000
  0
LINE
  8
0
 10
8.614000
 11
8.701000
 20
3.724000
 21
3.751000
  0
LINE
  8
0
 10
8.701000
 11
8.969000
 20
3.751000
 21
3.804000
  0
LINE
  8
0
 10
8.969000
 11
9.423000
 20
3.804000
 21
3.829000
  0
LINE
  8
0
 10
9.423000
 11
10.058000
 20
3.829000
 21
3.775000
  0
LINE
  8
0
 10
10.058000
 11
10.856000
 20
3.775000
 21
3.596000
  0
LINE
  8
0
 10
10.856000
 11
10.996000
 20
3.596000
 21
3.145000
  0
LINE
  8
0
 10
10.996000
 11
10.437000
 20
3.145000
 21
2.547000
  0
LINE
  8
0
 10
10.437000
 11
9.942000
 20
2.547000
 21
2.145000
  0
LINE
  8
0
 10
9.942000
 11
9.554000
 20
2.145000
 21
1.910000
  0
LINE
  8
0
 10
9.554000
 11
9.302000
 20
1.910000
 21
1.802000
  0
LINE
  8
0
 10
9.302000
 11
9.215000
 20
1.802000
 21
1.776000
  0
LINE
  8
0
 10
9.215000
 11
9.160000
 20
1.776000
 21
1.765000
  0
LINE
  8
0
 10
9.160000
 11
9.274000
 20
1.765000
 21
1.013000
  0
LINE
  8
0
 10
9.274000
 11
9.329000
 20
1.013000
 21
1.019000
  0
LINE
  8
0
 10
9.329000
 11
9.420000
 20
1.019000
 21
1.020000
  0
LINE
  8
0
 10
9.420000
 11
9.692000
 20
1.020000
 21
0.991000
  0
LINE
  8
0
 10
9.692000
 11
10.133000
 20
0.991000
 21
0.881000
  0
LINE
  8
0
 10
10.133000
 11
10.724000
 20
0.881000
 21
0.643000
  0
LINE
  8
0
 10
10.724000
 11
11.434000
 20
0.643000
 21
0.236000
  0
LINE
  8
0
 10
11.434000
 11
11.434000
 20
0.236000
 21
-0.236000
  0
LINE
  8
0
 10
11.434000
 11
10.724000
 20
-0.236000
 21
-0.643000
  0
LINE
  8
0
 10
10.724000
 11
10.133000
 20
-0.643000
 21
-0.881000
  0
LINE
  8
0
 10
10.133000
 11
9.692000
 20
-0.881000
 21
-0.991000
  0
LINE
  8
0
 10
9.692000
 11
9.420000
 20
-0.991000
 21
-1.020000
  0
LINE
  8
0
 10
9.420000
 11
9.329000
 20
-1.020000
 21
-1.019000
  0
LINE
  8
0
 10
9.329000
 11
9.274000
 20
-1.019000
 21
-1.013000
  0
LINE
  8
0
 10
9.274000
 11
9.160000
 20
-1.013000
 21
-1.765000
  0
LINE
  8
0
 10
9.160000
 11
9.215000
 20
-1.765000
 21
-1.776000
  0
LINE
  8
0
 10
9.215000
 11
9.302000
 20
-1.776000
 21
-1.802000
  0
LINE
  8
0
 10
9.302000
 11
9.554000
 20
-1.802000
 21
-1.910000
  0
LINE
  8
0
 10
9.554000
 11
9.942000
 20
-1.910000
 21
-2.145000
  0
LINE
  8
0
 10
9.942000
 11
10.437000
 20
-2.145000
 21
-2.547000
  0
LINE
  8
0
 10
10.437000
 11
10.996000
 20
-2.547000
 21
-3.145000
  0
LINE
  8
0
 10
10.996000
 11
10.856000
 20
-3.145000
 21
-3.596000
  0
LINE
  8
0
 10
10.856000
 11
10.058000
 20
-3.596000
 21
-3.775000
  0
LINE
  8
0
 10
10.058000
 11
9.423000
 20
-3.775000
 21
-3.829000
  0
LINE
  8
0
 10
9.423000
 11
8.969000
 20
-3.829000
 21
-3.804000
  0
LINE
  8
0
 10
8.969000
 11
8.701000
 20
-3.804000
 21
-3.751000
  0
LINE
  8
0
 10
8.701000
 11
8.614000
 20
-3.751000
 21
-3.724000
  0
LINE
  8
0
 10
8.614000
 11
8.563000
 20
-3.724000
 21
-3.702000
  0
LINE
  8
0
 10
8.563000
 11
8.233000
 20
-3.702000
 21
-4.387000
  0
LINE
  8
0
 10
8.233000
 11
8.282000
 20
-4.387000
 21
-4.413000
  0
LINE
  8
0
 10
8.282000
 11
8.358000
 20
-4.413000
 21
-4.464000
  0
LINE
  8
0
 10
8.358000
 11
8.566000
 20
-4.464000
 21
-4.641000
  0
LINE
  8
0
 10
8.566000
 11
8.869000
 20
-4.641000
 21
-4.980000
  0
LINE
  8
0
 10
8.869000
 11
9.223000
 20
-4.980000
 21
-5.510000
  0
LINE
  8
0
 10
9.223000
 11
9.580000
 20
-5.510000
 21
-6.246000
  0
LINE
  8
0
 10
9.580000
 11
9.314000
 20
-6.246000
 21
-6.636000
  0
LINE
  8
0
 10
9.314000
 11
8.498000
 20
-6.636000
 21
-6.572000
  0
LINE
  8
0
 10
8.498000
 11
7.876000
 20
-6.572000
 21
-6.436000
  0
LINE
  8
0
 10
7.876000
 11
7.450000
 20
-6.436000
 21
-6.279000
  0
LINE
  8
0
 10
7.450000
 11
7.209000
 20
-6.279000
 21
-6.149000
  0
LINE
  8
0
 10
7.209000
 11
7.134000
 20
-6.149000
 21
-6.097000
  0
LINE
  8
0
 10
7.134000
 11
7.092000
 20
-6.097000
 21
-6.061000
  0
LINE
  8
0
 10
7.092000
 11
6.574000
 20
-6.061000
 21
-6.619000
  0
LINE
  8
0
 10
6.574000
 11
6.613000
 20
-6.619000
 21
-6.658000
  0
LINE
  8
0
 10
6.613000
 11
6.671000
 20
-6.658000
 21
-6.729000
  0
LINE
  8
0
 10
6.671000
 11
6.818000
 20
-6.729000
 21
-6.960000
  0
LINE
  8
0
 10
6.818000
 11
7.007000
 20
-6.960000
 21
-7.373000
  0
LINE
  8
0
 10
7.007000
 11
7.189000
 20
-7.373000
 21
-7.983000
  0
LINE
  8
0
 10
7.189000
 11
7.313000
 20
-7.983000
 21
-8.792000
  0
LINE
  8
0
 10
7.313000
 11
6.944000
 20
-8.792000
 21
-9.087000
  0
LINE
  8
0
 10
6.944000
 11
6.184000
 20
-9.087000
 21
-8.785000
  0
LINE
  8
0
 10
6.184000
 11
5.629000
 20
-8.785000
 21
-8.472000
  0
LINE
  8
0
 10
5.629000
 11
5.268000
 20
-8.472000
 21
-8.195000
  0
LINE
  8
0
 10
5.268000
 11
5.076000
 20
-8.195000
 21
-8.001000
  0
LINE
  8
0
 10
5.076000
 11
5.020000
 20
-8.001000
 21
-7.929000
  0
LINE
  8
0
 10
5.020000
 11
4.990000
 20
-7.929000
 21
-7.882000
  0
LINE
  8
0
 10
4.990000
 11
4.331000
 20
-7.882000
 21
-8.262000
  0
LINE
  8
0
 10
4.331000
 11
4.357000
 20
-8.262000
 21
-8.312000
  0
LINE
  8
0
 10
4.357000
 11
4.391000
 20
-8.312000
 21
-8.396000
  0
LINE
  8
0
 10
4.391000
 11
4.463000
 20
-8.396000
 21
-8.660000
  0
LINE
  8
0
 10
4.463000
 11
4.522000
 20
-8.660000
 21
-9.111000
  0
LINE
  8
0
 10
4.522000
 11
4.516000
 20
-9.111000
 21
-9.748000
  0
LINE
  8
0
 10
4.516000
 11
4.397000
 20
-9.748000
 21
-10.557000
  0
LINE
  8
0
 10
4.397000
 11
3.958000
 20
-10.557000
 21
-10.730000
  0
LINE
  8
0
 10
3.958000
 11
3.319000
 20
-10.730000
 21
-10.218000
  0
LINE
  8
0
 10
3.319000
 11
2.882000
 20
-10.218000
 21
-9.754000
  0
LINE
  8
0
 10
2.882000
 11
2.618000
 20
-9.754000
 21
-9.384000
  0
LINE
  8
0
 10
2.618000
 11
2.492000
 20
-9.384000
 21
-9.141000
  0
LINE
  8
0
 10
2.492000
 11
2.460000
 20
-9.141000
 21
-9.056000
  0
LINE
  8
0
 10
2.460000
 11
2.446000
 20
-9.056000
 21
-9.003000
  0
LINE
  8
0
 10
2.446000
 11
1.703000
 20
-9.003000
 21
-9.172000
  0
LINE
  8
0
 10
1.703000
 11
1.713000
 20
-9.172000
 21
-9.227000
  0
LINE
  8
0
 10
1.713000
 11
1.721000
 20
-9.227000
 21
-9.317000
  0
LINE
  8
0
 10
1.721000
 11
1.713000
 20
-9.317000
 21
-9.591000
  0
LINE
  8
0
 10
1.713000
 11
1.636000
 20
-9.591000
 21
-10.039000
  0
LINE
  8
0
 10
1.636000
 11
1.443000
 20
-10.039000
 21
-10.646000
  0
LINE
  8
0
 10
1.443000
 11
1.090000
 20
-10.646000
 21
-11.384000
  0
LINE
  8
0
 10
1.090000
 11
0.619000
 20
-11.384000
 21
-11.420000
  0
LINE
  8
0
 10
0.619000
 11
0.160000
 20
-11.420000
 21
-10.742000
  0
LINE
  8
0
 10
0.160000
 11
-0.121000
 20
-10.742000
 21
-10.171000
  0
LINE
  8
0
 10
-0.121000
 11
-0.264000
 20
-10.171000
 21
-9.739000
  0
LINE
  8
0
 10
-0.264000
 11
-0.313000
 20
-9.739000
 21
-9.470000
  0
LINE
  8
0
 10
-0.313000
 11
-0.319000
 20
-9.470000
 21
-9.379000
  0
LINE
  8
0
 10
-0.319000
 11
-0.317000
 20
-9.379000
 21
-9.323000
  0
LINE
  8
0
 10
-0.317000
 11
-1.076000
 20
-9.323000
 21
-9.267000
  0
LINE
  8
0
 10
-1.076000
 11
-1.082000
 20
-9.267000
 21
-9.322000
  0
LINE
  8
0
 10
-1.082000
 11
-1.102000
 20
-9.322000
 21
-9.411000
  0
LINE
  8
0
 10
-1.102000
 11
-1.191000
 20
-9.411000
 21
-9.670000
  0
LINE
  8
0
 10
-1.191000
 11
-1.396000
 20
-9.670000
 21
-10.075000
  0
LINE
  8
0
 10
-1.396000
 11
-1.759000
 20
-10.075000
 21
-10.598000
  0
LINE
  8
0
 10
-1.759000
 11
-2.314000
 20
-10.598000
 21
-11.200000
  0
LINE
  8
0
 10
-2.314000
 11
-2.774000
 20
-11.200000
 21
-11.095000
  0
LINE
  8
0
 10
-2.774000
 11
-3.013000
 20
-11.095000
 21
-10.312000
  0
LINE
  8
0
 10
-3.013000
 11
-3.114000
 20
-10.312000
 21
-9.683000
  0
LINE
  8
0
 10
-3.114000
 11
-3.123000
 20
-9.683000
 21
-9.228000
  0
LINE
  8
0
 10
-3.123000
 11
-3.091000
 20
-9.228000
 21
-8.957000
  0
LINE
  8
0
 10
-3.091000
 11
-3.069000
 20
-8.957000
 21
-8.868000
  0
LINE
  8
0
 10
-3.069000
 11
-3.051000
 20
-8.868000
 21
-8.816000
  0
LINE
  8
0
 10
-3.051000
 11
-3.760000
 20
-8.816000
 21
-8.538000
  0
LINE
  8
0
 10
-3.760000
 11
-3.782000
 20
-8.538000
 21
-8.589000
  0
LINE
  8
0
 10
-3.782000
 11
-3.827000
 20
-8.589000
 21
-8.668000
  0
LINE
  8
0
 10
-3.827000
 11
-3.988000
 20
-8.668000
 21
-8.889000
  0
LINE
  8
0
 10
-3.988000
 11
-4.304000
 20
-8.889000
 21
-9.216000
  0
LINE
  8
0
 10
-4.304000
 11
-4.805000
 20
-9.216000
 21
-9.609000
  0
LINE
  8
0
 10
-4.805000
 11
-5.513000
 20
-9.609000
 21
-10.020000
  0
LINE
  8
0
 10
-5.513000
 11
-5.921000
 20
-10.020000
 21
-9.784000
  0
LINE
  8
0
 10
-5.921000
 11
-5.919000
 20
-9.784000
 21
-8.966000
  0
LINE
  8
0
 10
-5.919000
 11
-5.829000
 20
-8.966000
 21
-8.335000
  0
LINE
  8
0
 10
-5.829000
 11
-5.704000
 20
-8.335000
 21
-7.898000
  0
LINE
  8
0
 10
-5.704000
 11
-5.593000
 20
-7.898000
 21
-7.648000
  0
LINE
  8
0
 10
-5.593000
 11
-5.547000
 20
-7.648000
 21
-7.570000
  0
LINE
  8
0
 10
-5.547000
 11
-5.514000
 20
-7.570000
 21
-7.525000
  0
LINE
  8
0
 10
-5.514000
 11
-6.110000
 20
-7.525000
 21
-7.050000
  0
LINE
  8
0
 10
-6.110000
 11
-6.146000
 20
-7.050000
 21
-7.092000
  0
LINE
  8
0
 10
-6.146000
 11
-6.212000
 20
-7.092000
 21
-7.155000
  0
LINE
  8
0
 10
-6.212000
 11
-6.431000
 20
-7.155000
 21
-7.319000
  0
LINE
  8
0
 10
-6.431000
 11
-6.829000
 20
-7.319000
 21
-7.538000
  0
LINE
  8
0
 10
-6.829000
 11
-7.424000
 20
-7.538000
 21
-7.766000
  0
LINE
  8
0
 10
-7.424000
 11
-8.221000
 20
-7.766000
 21
-7.950000
  0
LINE
  8
0
 10
-8.221000
 11
-8.542000
 20
-7.950000
 21
-7.604000
  0
LINE
  8
0
 10
-8.542000
 11
-8.299000
 20
-7.604000
 21
-6.823000
  0
LINE
  8
0
 10
-8.299000
 11
-8.027000
 20
-6.823000
 21
-6.246000
  0
LINE
  8
0
 10
-8.027000
 11
-7.779000
 20
-6.246000
 21
-5.866000
  0
LINE
  8
0
 10
-7.779000
 11
-7.599000
 20
-5.866000
 21
-5.660000
  0
LINE
  8
0
 10
-7.599000
 11
-7.532000
 20
-5.660000
 21
-5.598000
  0
LINE
  8
0
 10
-7.532000
 11
-7.487000
 20
-5.598000
 21
-5.565000
  0
LINE
  8
0
 10
-7.487000
 11
-7.916000
 20
-5.565000
 21
-4.937000
  0
LINE
  8
0
 10
-7.916000
 11
-7.963000
 20
-4.937000
 21
-4.966000
  0
LINE
  8
0
 10
-7.963000
 11
-8.045000
 20
-4.966000
 21
-5.006000
  0
LINE
  8
0
 10
-8.045000
 11
-8.302000
 20
-5.006000
 21
-5.098000
  0
LINE
  8
0
 10
-8.302000
 11
-8.747000
 20
-5.098000
 21
-5.190000
  0
LINE
  8
0
 10
-8.747000
 11
-9.383000
 20
-5.190000
 21
-5.232000
  0
LINE
  8
0
 10
-9.383000
 11
-10.199000
 20
-5.232000
 21
-5.174000
  0
LINE
  8
0
 10
-10.199000
 11
-10.404000
 20
-5.174000
 21
-4.748000
  0
LINE
  8
0
 10
-10.404000
 11
-9.941000
 20
-4.748000
 21
-4.074000
  0
LINE
  8
0
 10
-9.941000
 11
-9.512000
 20
-4.074000
 21
-3.603000
  0
LINE
  8
0
 10
-9.512000
 11
-9.162000
 20
-3.603000
 21
-3.312000
  0
LINE
  8
0
 10
-9.162000
 11
-8.930000
 20
-3.312000
 21
-3.168000
  0
LINE
  8
0
 10
-8.930000
 11
-8.847000
 20
-3.168000
 21
-3.130000
  0
LINE
  8
0
 10
-8.847000
 11
-8.795000
 20
-3.130000
 21
-3.111000
  0
LINE
  8
0
 10
-8.795000
 11
-9.019000
 20
-3.111000
 21
-2.384000
  0
LINE
  8
0
 10
-9.019000
 11
-9.073000
 20
-2.384000
 21
-2.398000
  0
LINE
  8
0
 10
-9.073000
 11
-9.163000
 20
-2.398000
 21
-2.413000
  0
LINE
  8
0
 10
-9.163000
 11
-9.436000
 20
-2.413000
 21
-2.424000
  0
LINE
  8
0
 10
-9.436000
 11
-9.889000
 20
-2.424000
 21
-2.381000
  0
LINE
  8
0
 10
-9.889000
 11
-10.508000
 20
-2.381000
 21
-2.234000
  0
LINE
  8
0
 10
-10.508000
 11
-11.271000
 20
-2.234000
 21
-1.938000
  0
LINE
  8
0
 10
-11.271000
 11
-11.341000
 20
-1.938000
 21
-1.471000
  0
LINE
  8
0
 10
-8.590000
 11
-8.575000
 20
-19.194000
 21
-18.999000
  0
LINE
  8
0
 10
-8.575000
 11
-8.509000
 20
-18.999000
 21
-18.814000
  0
LINE
  8
0
 10
-8.509000
 11
-8.399000
 20
-18.814000
 21
-18.653000
  0
LINE
  8
0
 10
-8.399000
 11
-8.249000
 20
-18.653000
 21
-18.526000
  0
LINE
  8
0
 10
-8.249000
 11
-8.073000
 20
-18.526000
 21
-18.441000
  0
LINE
  8
0
 10
-8.073000
 11
-7.880000
 20
-18.441000
 21
-18.407000
  0
LINE
  8
0
 10
-7.880000
 11
-7.685000
 20
-18.407000
 21
-18.421000
  0
LINE
  8
0
 10
-7.685000
 11
-7.501000
 20
-18.421000
 21
-18.488000
  0
LINE
  8
0
 10
-7.501000
 11
-7.339000
 20
-18.488000
 21
-18.597000
  0
LINE
  8
0
 10
-7.339000
 11
-7.212000
 20
-18.597000
 21
-18.746000
  0
LINE
  8
0
 10
-7.212000
 11
-7.128000
 20
-18.746000
 21
-18.923000
  0
LINE
  8
0
 10
-7.128000
 11
-7.093000
 20
-18.923000
 21
-19.115000
  0
LINE
  8
0
 10
-7.093000
 11
-7.107000
 20
-19.115000
 21
-19.310000
  0
LINE
  8
0
 10
-7.107000
 11
-7.174000
 20
-19.310000
 21
-19.495000
  0
LINE
  8
0
 10
-7.174000
 11
-7.283000
 20
-19.495000
 21
-19.657000
  0
LINE
  8
0
 10
-7.283000
 11
-7.433000
 20
-19.657000
 21
-19.784000
  0
LINE
  8
0
 10
-7.433000
 11
-7.610000
 20
-19.784000
 21
-19.868000
  0
LINE
  8
0
 10
-7.610000
 11
-7.802000
 20
-19.868000
 21
-19.904000
  0
LINE
  8
0
 10
-7.802000
 11
-7.997000
 20
-19.904000
 21
-19.889000
  0
LINE
  8
0
 10
-7.997000
 11
-8.182000
 20
-19.889000
 21
-19.823000
  0
LINE
  8
0
 10
-8.182000
 11
-8.343000
 20
-19.823000
 21
-19.712000
  0
LINE
  8
0
 10
-8.343000
 11
-8.469000
 20
-19.712000
 21
-19.563000
  0
LINE
  8
0
 10
-8.469000
 11
-8.555000
 20
-19.563000
 21
-19.387000
  0
LINE
  8
0
 10
-8.555000
 11
-8.590000
 20
-19.387000
 21
-19.194000
  0
LINE
  8
0
 10
-1.500000
 11
-1.467000
 20
0.000000
 21
0.312000
  0
LINE
  8
0
 10
-1.467000
 11
-1.370000
 20
0.312000
 21
0.610000
  0
LINE
  8
0
 10
-1.370000
 11
-1.214000
 20
0.610000
 21
0.882000
  0
LINE
  8
0
 10
-1.214000
 11
-1.004000
 20
0.882000
 21
1.115000
  0
LINE
  8
0
 10
-1.004000
 11
-0.750000
 20
1.115000
 21
1.299000
  0
LINE
  8
0
 10
-0.750000
 11
-0.464000
 20
1.299000
 21
1.427000
  0
LINE
  8
0
 10
-0.464000
 11
-0.157000
 20
1.427000
 21
1.492000
  0
LINE
  8
0
 10
-0.157000
 11
0.157000
 20
1.492000
 21
1.492000
  0
LINE
  8
0
 10
0.157000
 11
0.464000
 20
1.492000
 21
1.427000
  0
LINE
  8
0
 10
0.464000
 11
0.750000
 20
1.427000
 21
1.299000
  0
LINE
  8
0
 10
0.750000
 11
1.004000
 20
1.299000
 21
1.115000
  0
LINE
  8
0
 10
1.004000
 11
1.214000
 20
1.115000
 21
0.882000
  0
LINE
  8
0
 10
1.214000
 11
1.370000
 20
0.882000
 21
0.610000
  0
LINE
  8
0
 10
1.370000
 11
1.467000
 20
0.610000
 21
0.312000
  0
LINE
  8
0
 10
1.467000
 11
1.500000
 20
0.312000
 21
0.000000
  0
LINE
  8
0
 10
1.500000
 11
1.467000
 20
0.000000
 21
-0.312000
  0
LINE
  8
0
 10
1.467000
 11
1.370000
 20
-0.312000
 21
-0.610000
  0
LINE
  8
0
 10
1.370000
 11
1.214000
 20
-0.610000
 21
-0.882000
  0
LINE
  8
0
 10
1.214000
 11
1.004000
 20
-0.882000
 21
-1.115000
  0
LINE
  8
0
 10
1.004000
 11
0.750000
 20
-1.115000
 21
-1.299000
  0
LINE
  8
0
 10
0.750000
 11
0.464000
 20
-1.299000
 21
-1.427000
  0
LINE
  8
0
 10
0.464000
 11
0.157000
 20
-1.427000
 21
-1.492000
  0
LINE
  8
0
 10
0.157000
 11
-0.157000
 20
-1.492000
 21
-1.492000
  0
LINE
  8
0
 10
-0.157000
 11
-0.464000
 20
-1.492000
 21
-1.427000
  0
LINE
  8
0
 10
-0.464000
 11
-0.750000
 20
-1.427000
 21
-1.299000
  0
LINE
  8
0
 10
-0.750000
 11
-1.004000
 20
-1.299000
 21
-1.115000
  0
LINE
  8
0
 10
-1.004000
 11
-1.214000
 20
-1.115000
 21
-0.882000
  0
LINE
  8
0
 10
-1.214000
 11
-1.370000
 20
-0.882000
 21
-0.610000
  0
LINE
  8
0
 10
-1.370000
 11
-1.467000
 20
-0.610000
 21
-0.312000
  0
LINE
  8
0
 10
-1.467000
 11
-1.500000
 20
-0.312000
 21
0.000000
  0
LINE
  8
0
 10
0.689000
 11
1.203000
 20
-17.134000
 21
-16.641000
  0
LINE
  8
0
 10
1.203000
 11
1.655000
 20
-16.641000
 21
-16.323000
  0
LINE
  8
0
 10
1.655000
 11
2.010000
 20
-16.323000
 21
-16.149000
  0
LINE
  8
0
 10
2.010000
 11
2.236000
 20
-16.149000
 21
-16.076000
  0
LINE
  8
0
 10
2.236000
 11
2.314000
 20
-16.076000
 21
-16.062000
  0
LINE
  8
0
 10
2.314000
 11
2.670000
 20
-16.062000
 21
-16.037000
  0
LINE
  8
0
 10
2.670000
 11
2.670000
 20
-16.037000
 21
-15.140000
  0
LINE
  8
0
 10
2.670000
 11
2.313000
 20
-15.140000
 21
-15.114000
  0
LINE
  8
0
 10
2.313000
 11
2.236000
 20
-15.114000
 21
-15.100000
  0
LINE
  8
0
 10
2.236000
 11
2.010000
 20
-15.100000
 21
-15.029000
  0
LINE
  8
0
 10
2.010000
 11
1.655000
 20
-15.029000
 21
-14.853000
  0
LINE
  8
0
 10
1.655000
 11
1.203000
 20
-14.853000
 21
-14.535000
  0
LINE
  8
0
 10
1.203000
 11
0.690000
 20
-14.535000
 21
-14.043000
  0
LINE
  8
0
 10
0.690000
 11
0.780000
 20
-14.043000
 21
-13.621000
  0
LINE
  8
0
 10
0.780000
 11
1.449000
 20
-13.621000
 21
-13.379000
  0
LINE
  8
0
 10
1.449000
 11
1.991000
 20
-13.379000
 21
-13.273000
  0
LINE
  8
0
 10
1.991000
 11
2.386000
 20
-13.273000
 21
-13.257000
  0
LINE
  8
0
 10
2.386000
 11
2.622000
 20
-13.257000
 21
-13.284000
  0
LINE
  8
0
 10
2.622000
 11
2.699000
 20
-13.284000
 21
-13.301000
  0
LINE
  8
0
 10
2.699000
 11
3.036000
 20
-13.301000
 21
-13.424000
  0
LINE
  8
0
 10
3.036000
 11
3.401000
 20
-13.424000
 21
-12.604000
  0
LINE
  8
0
 10
3.401000
 11
3.084000
 20
-12.604000
 21
-12.436000
  0
LINE
  8
0
 10
3.084000
 11
3.019000
 20
-12.436000
 21
-12.392000
  0
LINE
  8
0
 10
3.019000
 11
2.842000
 20
-12.392000
 21
-12.234000
  0
LINE
  8
0
 10
2.842000
 11
2.590000
 20
-12.234000
 21
-11.929000
  0
LINE
  8
0
 10
2.590000
 11
2.305000
 20
-11.929000
 21
-11.455000
  0
LINE
  8
0
 10
2.305000
 11
2.037000
 20
-11.455000
 21
-10.796000
  0
LINE
  8
0
 10
2.037000
 11
2.291000
 20
-10.796000
 21
-10.447000
  0
LINE
  8
0
 10
2.291000
 11
3.000000
 20
-10.447000
 21
-10.498000
  0
LINE
  8
0
 10
3.000000
 11
3.539000
 20
-10.498000
 21
-10.622000
  0
LINE
  8
0
 10
3.539000
 11
3.907000
 20
-10.622000
 21
-10.768000
  0
LINE
  8
0
 10
3.907000
 11
4.111000
 20
-10.768000
 21
-10.888000
  0
LINE
  8
0
 10
4.111000
 11
4.174000
 20
-10.888000
 21
-10.936000
  0
LINE
  8
0
 10
4.174000
 11
4.432000
 20
-10.936000
 21
-11.186000
  0
LINE
  8
0
 10
4.432000
 11
5.098000
 20
-11.186000
 21
-10.585000
  0
LINE
  8
0
 10
5.098000
 11
4.878000
 20
-10.585000
 21
-10.302000
  0
LINE
  8
0
 10
4.878000
 11
4.836000
 20
-10.302000
 21
-10.235000
  0
LINE
  8
0
 10
4.836000
 11
4.738000
 20
-10.235000
 21
-10.019000
  0
LINE
  8
0
 10
4.738000
 11
4.632000
 20
-10.019000
 21
-9.638000
  0
LINE
  8
0
 10
4.632000
 11
4.565000
 20
-9.638000
 21
-9.089000
  0
LINE
  8
0
 10
4.565000
 11
4.588000
 20
-9.089000
 21
-8.379000
  0
LINE
  8
0
 10
4.588000
 11
4.962000
 20
-8.379000
 21
-8.163000
  0
LINE
  8
0
 10
4.962000
 11
5.589000
 20
-8.163000
 21
-8.498000
  0
LINE
  8
0
 10
5.589000
 11
6.031000
 20
-8.498000
 21
-8.830000
  0
LINE
  8
0
 10
6.031000
 11
6.308000
 20
-8.830000
 21
-9.113000
  0
LINE
  8
0
 10
6.308000
 11
6.446000
 20
-9.113000
 21
-9.306000
  0
LINE
  8
0
 10
6.446000
 11
6.483000
 20
-9.306000
 21
-9.375000
  0
LINE
  8
0
 10
6.483000
 11
6.618000
 20
-9.375000
 21
-9.708000
  0
LINE
  8
0
 10
6.618000
 11
7.471000
 20
-9.708000
 21
-9.431000
  0
LINE
  8
0
 10
7.471000
 11
7.384000
 20
-9.431000
 21
-9.083000
  0
LINE
  8
0
 10
7.384000
 11
7.374000
 20
-9.083000
 21
-9.004000
  0
LINE
  8
0
 10
7.374000
 11
7.372000
 20
-9.004000
 21
-8.767000
  0
LINE
  8
0
 10
7.372000
 11
7.429000
 20
-8.767000
 21
-8.376000
  0
LINE
  8
0
 10
7.429000
 11
7.592000
 20
-8.376000
 21
-7.847000
  0
LINE
  8
0
 10
7.592000
 11
7.901000
 20
-7.847000
 21
-7.207000
  0
LINE
  8
0
 10
7.901000
 11
8.331000
 20
-7.207000
 21
-7.162000
  0
LINE
  8
0
 10
8.331000
 11
8.768000
 20
-7.162000
 21
-7.724000
  0
LINE
  8
0
 10
8.768000
 11
9.036000
 20
-7.724000
 21
-8.207000
  0
LINE
  8
0
 10
9.036000
 11
9.174000
 20
-8.207000
 21
-8.578000
  0
LINE
  8
0
 10
9.174000
 11
9.222000
 20
-8.578000
 21
-8.811000
  0
LINE
  8
0
 10
9.222000
 11
9.228000
 20
-8.811000
 21
-8.889000
  0
LINE
  8
0
 10
9.228000
 11
9.217000
 20
-8.889000
 21
-9.248000
  0
LINE
  8
0
 10
9.217000
 11
10.108000
 20
-9.248000
 21
-9.342000
  0
LINE
  8
0
 10
10.108000
 11
10.171000
 20
-9.342000
 21
-8.988000
  0
LINE
  8
0
 10
10.171000
 11
10.192000
 20
-8.988000
 21
-8.912000
  0
LINE
  8
0
 10
10.192000
 11
10.287000
 20
-8.912000
 21
-8.694000
  0
LINE
  8
0
 10
10.287000
 11
10.498000
 20
-8.694000
 21
-8.361000
  0
LINE
  8
0
 10
10.498000
 11
10.862000
 20
-8.361000
 21
-7.944000
  0
LINE
  8
0
 10
10.862000
 11
11.406000
 20
-7.944000
 21
-7.485000
  0
LINE
  8
0
 10
11.406000
 11
11.816000
 20
-7.485000
 21
-7.619000
  0
LINE
  8
0
 10
11.816000
 11
11.987000
 20
-7.619000
 21
-8.309000
  0
LINE
  8
0
 10
11.987000
 11
12.036000
 20
-8.309000
 21
-8.860000
  0
LINE
  8
0
 10
12.036000
 11
12.011000
 20
-8.860000
 21
-9.254000
  0
LINE
  8
0
 10
12.011000
 11
11.960000
 20
-9.254000
 21
-9.487000
  0
LINE
  8
0
 10
11.960000
 11
11.933000
 20
-9.487000
 21
-9.560000
  0
LINE
  8
0
 10
11.933000
 11
11.777000
 20
-9.560000
 21
-9.882000
  0
LINE
  8
0
 10
11.777000
 11
12.553000
 20
-9.882000
 21
-10.332000
  0
LINE
  8
0
 10
12.553000
 11
12.754000
 20
-10.332000
 21
-10.034000
  0
LINE
  8
0
 10
12.754000
 11
12.804000
 20
-10.034000
 21
-9.974000
  0
LINE
  8
0
 10
12.804000
 11
12.980000
 20
-9.974000
 21
-9.814000
  0
LINE
  8
0
 10
12.980000
 11
13.309000
 20
-9.814000
 21
-9.595000
  0
LINE
  8
0
 10
13.309000
 11
13.810000
 20
-9.595000
 21
-9.362000
  0
LINE
  8
0
 10
13.810000
 11
14.493000
 20
-9.362000
 21
-9.164000
  0
LINE
  8
0
 10
14.493000
 11
14.814000
 20
-9.164000
 21
-9.453000
  0
LINE
  8
0
 10
14.814000
 11
14.689000
 20
-9.453000
 21
-10.154000
  0
LINE
  8
0
 10
14.689000
 11
14.509000
 20
-10.154000
 21
-10.677000
  0
LINE
  8
0
 10
14.509000
 11
14.326000
 20
-10.677000
 21
-11.027000
  0
LINE
  8
0
 10
14.326000
 11
14.185000
 20
-11.027000
 21
-11.217000
  0
LINE
  8
0
 10
14.185000
 11
14.132000
 20
-11.217000
 21
-11.275000
  0
LINE
  8
0
 10
14.132000
 11
13.857000
 20
-11.275000
 21
-11.506000
  0
LINE
  8
0
 10
13.857000
 11
14.383000
 20
-11.506000
 21
-12.231000
  0
LINE
  8
0
 10
14.383000
 11
14.688000
 20
-12.231000
 21
-12.041000
  0
LINE
  8
0
 10
14.688000
 11
14.759000
 20
-12.041000
 21
-12.007000
  0
LINE
  8
0
 10
14.759000
 11
14.984000
 20
-12.007000
 21
-11.933000
  0
LINE
  8
0
 10
14.984000
 11
15.374000
 20
-11.933000
 21
-11.867000
  0
LINE
  8
0
 10
15.374000
 11
15.926000
 20
-11.867000
 21
-11.857000
  0
LINE
  8
0
 10
15.926000
 11
16.631000
 20
-11.857000
 21
-11.954000
  0
LINE
  8
0
 10
16.631000
 11
16.807000
 20
-11.954000
 21
-12.349000
  0
LINE
  8
0
 10
16.807000
 11
16.408000
 20
-12.349000
 21
-12.937000
  0
LINE
  8
0
 10
16.408000
 11
16.031000
 20
-12.937000
 21
-13.342000
  0
LINE
  8
0
 10
16.031000
 11
15.721000
 20
-13.342000
 21
-13.588000
  0
LINE
  8
0
 10
15.721000
 11
15.515000
 20
-13.588000
 21
-13.705000
  0
LINE
  8
0
 10
15.515000
 11
15.442000
 20
-13.705000
 21
-13.735000
  0
LINE
  8
0
 10
15.442000
 11
15.097000
 20
-13.735000
 21
-13.834000
  0
LINE
  8
0
 10
15.097000
 11
15.284000
 20
-13.834000
 21
-14.711000
  0
LINE
  8
0
 10
15.284000
 11
15.639000
 20
-14.711000
 21
-14.662000
  0
LINE
  8
0
 10
15.639000
 11
15.718000
 20
-14.662000
 21
-14.660000
  0
LINE
  8
0
 10
15.718000
 11
15.954000
 20
-14.660000
 21
-14.682000
  0
LINE
  8
0
 10
15.954000
 11
16.337000
 20
-14.682000
 21
-14.781000
  0
LINE
  8
0
 10
16.337000
 11
16.846000
 20
-14.781000
 21
-14.997000
  0
LINE
  8
0
 10
16.846000
 11
17.450000
 20
-14.997000
 21
-15.372000
  0
LINE
  8
0
 10
17.450000
 11
17.450000
 20
-15.372000
 21
-15.804000
  0
LINE
  8
0
 10
17.450000
 11
16.847000
 20
-15.804000
 21
-16.179000
  0
LINE
  8
0
 10
16.847000
 11
16.337000
 20
-16.179000
 21
-16.396000
  0
LINE
  8
0
 10
16.337000
 11
15.953000
 20
-16.396000
 21
-16.494000
  0
LINE
  8
0
 10
15.953000
 11
15.718000
 20
-16.494000
 21
-16.518000
  0
LINE
  8
0
 10
15.718000
 11
15.639000
 20
-16.518000
 21
-16.516000
  0
LINE
  8
0
 10
15.639000
 11
15.285000
 20
-16.516000
 21
-16.466000
  0
LINE
  8
0
 10
15.285000
 11
15.098000
 20
-16.466000
 21
-17.343000
  0
LINE
  8
0
 10
15.098000
 11
15.442000
 20
-17.343000
 21
-17.442000
  0
LINE
  8
0
 10
15.442000
 11
15.515000
 20
-17.442000
 21
-17.472000
  0
LINE
  8
0
 10
15.515000
 11
15.722000
 20
-17.472000
 21
-17.589000
  0
LINE
  8
0
 10
15.722000
 11
16.032000
 20
-17.589000
 21
-17.834000
  0
LINE
  8
0
 10
16.032000
 11
16.409000
 20
-17.834000
 21
-18.240000
  0
LINE
  8
0
 10
16.409000
 11
16.807000
 20
-18.240000
 21
-18.828000
  0
LINE
  8
0
 10
16.807000
 11
16.631000
 20
-18.828000
 21
-19.223000
  0
LINE
  8
0
 10
16.631000
 11
15.927000
 20
-19.223000
 21
-19.320000
  0
LINE
  8
0
 10
15.927000
 11
15.374000
 20
-19.320000
 21
-19.311000
  0
LINE
  8
0
 10
15.374000
 11
14.985000
 20
-19.311000
 21
-19.244000
  0
LINE
  8
0
 10
14.985000
 11
14.759000
 20
-19.244000
 21
-19.170000
  0
LINE
  8
0
 10
14.759000
 11
14.689000
 20
-19.170000
 21
-19.135000
  0
LINE
  8
0
 10
14.689000
 11
14.384000
 20
-19.135000
 21
-18.945000
  0
LINE
  8
0
 10
14.384000
 11
13.856000
 20
-18.945000
 21
-19.671000
  0
LINE
  8
0
 10
13.856000
 11
14.132000
 20
-19.671000
 21
-19.903000
  0
LINE
  8
0
 10
14.132000
 11
14.185000
 20
-19.903000
 21
-19.959000
  0
LINE
  8
0
 10
14.185000
 11
14.326000
 20
-19.959000
 21
-20.149000
  0
LINE
  8
0
 10
14.326000
 11
14.510000
 20
-20.149000
 21
-20.500000
  0
LINE
  8
0
 10
14.510000
 11
14.689000
 20
-20.500000
 21
-21.023000
  0
LINE
  8
0
 10
14.689000
 11
14.814000
 20
-21.023000
 21
-21.723000
  0
LINE
  8
0
 10
14.814000
 11
14.494000
 20
-21.723000
 21
-22.012000
  0
LINE
  8
0
 10
14.494000
 11
13.812000
 20
-22.012000
 21
-21.815000
  0
LINE
  8
0
 10
13.812000
 11
13.309000
 20
-21.815000
 21
-21.582000
  0
LINE
  8
0
 10
13.309000
 11
12.980000
 20
-21.582000
 21
-21.363000
  0
LINE
  8
0
 10
12.980000
 11
12.805000
 20
-21.363000
 21
-21.202000
  0
LINE
  8
0
 10
12.805000
 11
12.753000
 20
-21.202000
 21
-21.142000
  0
LINE
  8
0
 10
12.753000
 11
12.552000
 20
-21.142000
 21
-20.846000
  0
LINE
  8
0
 10
12.552000
 11
11.777000
 20
-20.846000
 21
-21.293000
  0
LINE
  8
0
 10
11.777000
 11
11.934000
 20
-21.293000
 21
-21.616000
  0
LINE
  8
0
 10
11.934000
 11
11.959000
 20
-21.616000
 21
-21.690000
  0
LINE
  8
0
 10
11.959000
 11
12.011000
 20
-21.690000
 21
-21.921000
  0
LINE
  8
0
 10
12.011000
 11
12.036000
 20
-21.921000
 21
-22.317000
  0
LINE
  8
0
 10
12.036000
 11
11.987000
 20
-22.317000
 21
-22.868000
  0
LINE
  8
0
 10
11.987000
 11
11.816000
 20
-22.868000
 21
-23.558000
  0
LINE
  8
0
 10
11.816000
 11
11.405000
 20
-23.558000
 21
-23.692000
  0
LINE
  8
0
 10
11.405000
 11
10.862000
 20
-23.692000
 21
-23.234000
  0
LINE
  8
0
 10
10.862000
 11
10.500000
 20
-23.234000
 21
-22.816000
  0
LINE
  8
0
 10
10.500000
 11
10.287000
 20
-22.816000
 21
-22.481000
  0
LINE
  8
0
 10
10.287000
 11
10.193000
 20
-22.481000
 21
-22.264000
  0
LINE
  8
0
 10
10.193000
 11
10.170000
 20
-22.264000
 21
-22.189000
  0
LINE
  8
0
 10
10.170000
 11
10.108000
 20
-22.189000
 21
-21.835000
  0
LINE
  8
0
 10
10.108000
 11
9.217000
 20
-21.835000
 21
-21.930000
  0
LINE
  8
0
 10
9.217000
 11
9.228000
 20
-21.930000
 21
-22.288000
  0
LINE
  8
0
 10
9.228000
 11
9.222000
 20
-22.288000
 21
-22.367000
  0
LINE
  8
0
 10
9.222000
 11
9.175000
 20
-22.367000
 21
-22.599000
  0
LINE
  8
0
 10
9.175000
 11
9.036000
 20
-22.599000
 21
-22.969000
  0
LINE
  8
0
 10
9.036000
 11
8.768000
 20
-22.969000
 21
-23.453000
  0
LINE
  8
0
 10
8.768000
 11
8.332000
 20
-23.453000
 21
-24.015000
  0
LINE
  8
0
 10
8.332000
 11
7.901000
 20
-24.015000
 21
-23.970000
  0
LINE
  8
0
 10
7.901000
 11
7.592000
 20
-23.970000
 21
-23.330000
  0
LINE
  8
0
 10
7.592000
 11
7.430000
 20
-23.330000
 21
-22.801000
  0
LINE
  8
0
 10
7.430000
 11
7.372000
 20
-22.801000
 21
-22.409000
  0
LINE
  8
0
 10
7.372000
 11
7.374000
 20
-22.409000
 21
-22.172000
  0
LINE
  8
0
 10
7.374000
 11
7.384000
 20
-22.172000
 21
-22.094000
  0
LINE
  8
0
 10
7.384000
 11
7.471000
 20
-22.094000
 21
-21.746000
  0
LINE
  8
0
 10
7.471000
 11
6.618000
 20
-21.746000
 21
-21.469000
  0
LINE
  8
0
 10
6.618000
 11
6.484000
 20
-21.469000
 21
-21.802000
  0
LINE
  8
0
 10
6.484000
 11
6.446000
 20
-21.802000
 21
-21.870000
  0
LINE
  8
0
 10
6.446000
 11
6.308000
 20
-21.870000
 21
-22.064000
  0
LINE
  8
0
 10
6.308000
 11
6.031000
 20
-22.064000
 21
-22.346000
  0
LINE
  8
0
 10
6.031000
 11
5.589000
 20
-22.346000
 21
-22.679000
  0
LINE
  8
0
 10
5.589000
 11
4.962000
 20
-22.679000
 21
-23.014000
  0
LINE
  8
0
 10
4.962000
 11
4.587000
 20
-23.014000
 21
-22.798000
  0
LINE
  8
0
 10
4.587000
 11
4.565000
 20
-22.798000
 21
-22.088000
  0
LINE
  8
0
 10
4.565000
 11
4.631000
 20
-22.088000
 21
-21.538000
  0
LINE
  8
0
 10
4.631000
 11
4.738000
 20
-21.538000
 21
-21.159000
  0
LINE
  8
0
 10
4.738000
 11
4.837000
 20
-21.159000
 21
-20.941000
  0
LINE
  8
0
 10
4.837000
 11
4.878000
 20
-20.941000
 21
-20.875000
  0
LINE
  8
0
 10
4.878000
 11
5.098000
 20
-20.875000
 21
-20.592000
  0
LINE
  8
0
 10
5.098000
 11
4.433000
 20
-20.592000
 21
-19.992000
  0
LINE
  8
0
 10
4.433000
 11
4.174000
 20
-19.992000
 21
-20.241000
  0
LINE
  8
0
 10
4.174000
 11
4.111000
 20
-20.241000
 21
-20.289000
  0
LINE
  8
0
 10
4.111000
 11
3.907000
 20
-20.289000
 21
-20.409000
  0
LINE
  8
0
 10
3.907000
 11
3.538000
 20
-20.409000
 21
-20.555000
  0
LINE
  8
0
 10
3.538000
 11
3.000000
 20
-20.555000
 21
-20.678000
  0
LINE
  8
0
 10
3.000000
 11
2.291000
 20
-20.678000
 21
-20.730000
  0
LINE
  8
0
 10
2.291000
 11
2.036000
 20
-20.730000
 21
-20.380000
  0
LINE
  8
0
 10
2.036000
 11
2.305000
 20
-20.380000
 21
-19.722000
  0
LINE
  8
0
 10
2.305000
 11
2.589000
 20
-19.722000
 21
-19.247000
  0
LINE
  8
0
 10
2.589000
 11
2.841000
 20
-19.247000
 21
-18.943000
  0
LINE
  8
0
 10
2.841000
 11
3.019000
 20
-18.943000
 21
-18.785000
  0
LINE
  8
0
 10
3.019000
 11
3.084000
 20
-18.785000
 21
-18.741000
  0
LINE
  8
0
 10
3.084000
 11
3.401000
 20
-18.741000
 21
-18.572000
  0
LINE
  8
0
 10
3.401000
 11
3.036000
 20
-18.572000
 21
-17.753000
  0
LINE
  8
0
 10
3.036000
 11
2.699000
 20
-17.753000
 21
-17.875000
  0
LINE
  8
0
 10
2.699000
 11
2.622000
 20
-17.875000
 21
-17.893000
  0
LINE
  8
0
 10
2.622000
 11
2.386000
 20
-17.893000
 21
-17.921000
  0
LINE
  8
0
 10
2.386000
 11
1.991000
 20
-17.921000
 21
-17.904000
  0
LINE
  8
0
 10
1.991000
 11
1.448000
 20
-17.904000
 21
-17.798000
  0
LINE
  8
0
 10
1.448000
 11
0.780000
 20
-17.798000
 21
-17.556000
  0
LINE
  8
0
 10
0.780000
 11
0.689000
 20
-17.556000
 21
-17.134000
  0
LINE
  8
0
 10
0.690000
 11
1.203000
 20
14.043000
 21
14.536000
  0
LINE
  8
0
 10
1.203000
 11
1.655000
 20
14.536000
 21
14.853000
  0
LINE
  8
0
 10
1.655000
 11
2.010000
 20
14.853000
 21
15.029000
  0
LINE
  8
0
 10
2.010000
 11
2.236000
 20
15.029000
 21
15.100000
  0
LINE
  8
0
 10
2.236000
 11
2.313000
 20
15.100000
 21
15.114000
  0
LINE
  8
0
 10
2.313000
 11
2.671000
 20
15.114000
 21
15.140000
  0
LINE
  8
0
 10
2.671000
 11
2.670000
 20
15.140000
 21
16.037000
  0
LINE
  8
0
 10
2.670000
 11
2.313000
 20
16.037000
 21
16.062000
  0
LINE
  8
0
 10
2.313000
 11
2.236000
 20
16.062000
 21
16.077000
  0
LINE
  8
0
 10
2.236000
 11
2.010000
 20
16.077000
 21
16.149000
  0
LINE
  8
0
 10
2.010000
 11
1.655000
 20
16.149000
 21
16.323000
  0
LINE
  8
0
 10
1.655000
 11
1.203000
 20
16.323000
 21
16.641000
  0
LINE
  8
0
 10
1.203000
 11
0.690000
 20
16.641000
 21
17.135000
  0
LINE
  8
0
 10
0.690000
 11
0.780000
 20
17.135000
 21
17.556000
  0
LINE
  8
0
 10
0.780000
 11
1.448000
 20
17.556000
 21
17.798000
  0
LINE
  8
0
 10
1.448000
 11
1.991000
 20
17.798000
 21
17.904000
  0
LINE
  8
0
 10
1.991000
 11
2.386000
 20
17.904000
 21
17.921000
  0
LINE
  8
0
 10
2.386000
 11
2.622000
 20
17.921000
 21
17.893000
  0
LINE
  8
0
 10
2.622000
 11
2.699000
 20
17.893000
 21
17.875000
  0
LINE
  8
0
 10
2.699000
 11
3.036000
 20
17.875000
 21
17.753000
  0
LINE
  8
0
 10
3.036000
 11
3.400000
 20
17.753000
 21
18.571000
  0
LINE
  8
0
 10
3.400000
 11
3.084000
 20
18.571000
 21
18.741000
  0
LINE
  8
0
 10
3.084000
 11
3.019000
 20
18.741000
 21
18.785000
  0
LINE
  8
0
 10
3.019000
 11
2.842000
 20
18.785000
 21
18.943000
  0
LINE
  8
0
 10
2.842000
 11
2.588000
 20
18.943000
 21
19.247000
  0
LINE
  8
0
 10
2.588000
 11
2.305000
 20
19.247000
 21
19.723000
  0
LINE
  8
0
 10
2.305000
 11
2.037000
 20
19.723000
 21
20.380000
  0
LINE
  8
0
 10
2.037000
 11
2.291000
 20
20.380000
 21
20.731000
  0
LINE
  8
0
 10
2.291000
 11
3.000000
 20
20.731000
 21
20.678000
  0
LINE
  8
0
 10
3.000000
 11
3.539000
 20
20.678000
 21
20.554000
  0
LINE
  8
0
 10
3.539000
 11
3.907000
 20
20.554000
 21
20.409000
  0
LINE
  8
0
 10
3.907000
 11
4.111000
 20
20.409000
 21
20.289000
  0
LINE
  8
0
 10
4.111000
 11
4.175000
 20
20.289000
 21
20.240000
  0
LINE
  8
0
 10
4.175000
 11
4.432000
 20
20.240000
 21
19.992000
  0
LINE
  8
0
 10
4.432000
 11
5.098000
 20
19.992000
 21
20.592000
  0
LINE
  8
0
 10
5.098000
 11
4.878000
 20
20.592000
 21
20.875000
  0
LINE
  8
0
 10
4.878000
 11
4.836000
 20
20.875000
 21
20.942000
  0
LINE
  8
0
 10
4.836000
 11
4.738000
 20
20.942000
 21
21.157000
  0
LINE
  8
0
 10
4.738000
 11
4.632000
 20
21.157000
 21
21.539000
  0
LINE
  8
0
 10
4.632000
 11
4.565000
 20
21.539000
 21
22.087000
  0
LINE
  8
0
 10
4.565000
 11
4.588000
 20
22.087000
 21
22.798000
  0
LINE
  8
0
 10
4.588000
 11
4.962000
 20
22.798000
 21
23.014000
  0
LINE
  8
0
 10
4.962000
 11
5.589000
 20
23.014000
 21
22.679000
  0
LINE
  8
0
 10
5.589000
 11
6.031000
 20
22.679000
 21
22.346000
  0
LINE
  8
0
 10
6.031000
 11
6.308000
 20
22.346000
 21
22.064000
  0
LINE
  8
0
 10
6.308000
 11
6.446000
 20
22.064000
 21
21.870000
  0
LINE
  8
0
 10
6.446000
 11
6.483000
 20
21.870000
 21
21.801000
  0
LINE
  8
0
 10
6.483000
 11
6.618000
 20
21.801000
 21
21.468000
  0
LINE
  8
0
 10
6.618000
 11
7.470000
 20
21.468000
 21
21.746000
  0
LINE
  8
0
 10
7.470000
 11
7.384000
 20
21.746000
 21
22.094000
  0
LINE
  8
0
 10
7.384000
 11
7.374000
 20
22.094000
 21
22.172000
  0
LINE
  8
0
 10
7.374000
 11
7.372000
 20
22.172000
 21
22.409000
  0
LINE
  8
0
 10
7.372000
 11
7.430000
 20
22.409000
 21
22.801000
  0
LINE
  8
0
 10
7.430000
 11
7.592000
 20
22.801000
 21
23.330000
  0
LINE
  8
0
 10
7.592000
 11
7.902000
 20
23.330000
 21
23.969000
  0
LINE
  8
0
 10
7.902000
 11
8.332000
 20
23.969000
 21
24.015000
  0
LINE
  8
0
 10
8.332000
 11
8.768000
 20
24.015000
 21
23.453000
  0
LINE
  8
0
 10
8.768000
 11
9.038000
 20
23.453000
 21
22.970000
  0
LINE
  8
0
 10
9.038000
 11
9.174000
 20
22.970000
 21
22.600000
  0
LINE
  8
0
 10
9.174000
 11
9.222000
 20
22.600000
 21
22.367000
  0
LINE
  8
0
 10
9.222000
 11
9.227000
 20
22.367000
 21
22.288000
  0
LINE
  8
0
 10
9.227000
 11
9.216000
 20
22.288000
 21
21.929000
  0
LINE
  8
0
 10
9.216000
 11
10.107000
 20
21.929000
 21
21.836000
  0
LINE
  8
0
 10
10.107000
 11
10.170000
 20
21.836000
 21
22.190000
  0
LINE
  8
0
 10
10.170000
 11
10.192000
 20
22.190000
 21
22.265000
  0
LINE
  8
0
 10
10.192000
 11
10.287000
 20
22.265000
 21
22.482000
  0
LINE
  8
0
 10
10.287000
 11
10.499000
 20
22.482000
 21
22.816000
  0
LINE
  8
0
 10
10.499000
 11
10.862000
 20
22.816000
 21
23.234000
  0
LINE
  8
0
 10
10.862000
 11
11.406000
 20
23.234000
 21
23.691000
  0
LINE
  8
0
 10
11.406000
 11
11.817000
 20
23.691000
 21
23.558000
  0
LINE
  8
0
 10
11.817000
 11
11.987000
 20
23.558000
 21
22.867000
  0
LINE
  8
0
 10
11.987000
 11
12.036000
 20
22.867000
 21
22.317000
  0
LINE
  8
0
 10
12.036000
 11
12.011000
 20
22.317000
 21
21.922000
  0
LINE
  8
0
 10
12.011000
 11
11.959000
 20
21.922000
 21
21.690000
  0
LINE
  8
0
 10
11.959000
 11
11.933000
 20
21.690000
 21
21.617000
  0
LINE
  8
0
 10
11.933000
 11
11.777000
 20
21.617000
 21
21.294000
  0
LINE
  8
0
 10
11.777000
 11
12.552000
 20
21.294000
 21
20.846000
  0
LINE
  8
0
 10
12.552000
 11
12.753000
 20
20.846000
 21
21.142000
  0
LINE
  8
0
 10
12.753000
 11
12.805000
 20
21.142000
 21
21.202000
  0
LINE
  8
0
 10
12.805000
 11
12.980000
 20
21.202000
 21
21.362000
  0
LINE
  8
0
 10
12.980000
 11
13.309000
 20
21.362000
 21
21.582000
  0
LINE
  8
0
 10
13.309000
 11
13.810000
 20
21.582000
 21
21.814000
  0
LINE
  8
0
 10
13.810000
 11
14.494000
 20
21.814000
 21
22.012000
  0
LINE
  8
0
 10
14.494000
 11
14.815000
 20
22.012000
 21
21.724000
  0
LINE
  8
0
 10
14.815000
 11
14.689000
 20
21.724000
 21
21.023000
  0
LINE
  8
0
 10
14.689000
 11
14.510000
 20
21.023000
 21
20.500000
  0
LINE
  8
0
 10
14.510000
 11
14.326000
 20
20.500000
 21
20.151000
  0
LINE
  8
0
 10
14.326000
 11
14.186000
 20
20.151000
 21
19.959000
  0
LINE
  8
0
 10
14.186000
 11
14.131000
 20
19.959000
 21
19.902000
  0
LINE
  8
0
 10
14.131000
 11
13.857000
 20
19.902000
 21
19.671000
  0
LINE
  8
0
 10
13.857000
 11
14.384000
 20
19.671000
 21
18.946000
  0
LINE
  8
0
 10
14.384000
 11
14.688000
 20
18.946000
 21
19.136000
  0
LINE
  8
0
 10
14.688000
 11
14.759000
 20
19.136000
 21
19.170000
  0
LINE
  8
0
 10
14.759000
 11
14.984000
 20
19.170000
 21
19.244000
  0
LINE
  8
0
 10
14.984000
 11
15.374000
 20
19.244000
 21
19.310000
  0
LINE
  8
0
 10
15.374000
 11
15.927000
 20
19.310000
 21
19.320000
  0
LINE
  8
0
 10
15.927000
 11
16.632000
 20
19.320000
 21
19.222000
  0
LINE
  8
0
 10
16.632000
 11
16.807000
 20
19.222000
 21
18.828000
  0
LINE
  8
0
 10
16.807000
 11
16.408000
 20
18.828000
 21
18.240000
  0
LINE
  8
0
 10
16.408000
 11
16.031000
 20
18.240000
 21
17.835000
  0
LINE
  8
0
 10
16.031000
 11
15.721000
 20
17.835000
 21
17.589000
  0
LINE
  8
0
 10
15.721000
 11
15.515000
 20
17.589000
 21
17.472000
  0
LINE
  8
0
 10
15.515000
 11
15.442000
 20
17.472000
 21
17.442000
  0
LINE
  8
0
 10
15.442000
 11
15.098000
 20
17.442000
 21
17.342000
  0
LINE
  8
0
 10
15.098000
 11
15.285000
 20
17.342000
 21
16.466000
  0
LINE
  8
0
 10
15.285000
 11
15.639000
 20
16.466000
 21
16.515000
  0
LINE
  8
0
 10
15.639000
 11
15.718000
 20
16.515000
 21
16.518000
  0
LINE
  8
0
 10
15.718000
 11
15.954000
 20
16.518000
 21
16.495000
  0
LINE
  8
0
 10
15.954000
 11
16.337000
 20
16.495000
 21
16.396000
  0
LINE
  8
0
 10
16.337000
 11
16.846000
 20
16.396000
 21
16.180000
  0
LINE
  8
0
 10
16.846000
 11
17.450000
 20
16.180000
 21
15.804000
  0
LINE
  8
0
 10
17.450000
 11
17.450000
 20
15.804000
 21
15.372000
  0
LINE
  8
0
 10
17.450000
 11
16.846000
 20
15.372000
 21
14.997000
  0
LINE
  8
0
 10
16.846000
 11
16.337000
 20
14.997000
 21
14.781000
  0
LINE
  8
0
 10
16.337000
 11
15.954000
 20
14.781000
 21
14.682000
  0
LINE
  8
0
 10
15.954000
 11
15.717000
 20
14.682000
 21
14.659000
  0
LINE
  8
0
 10
15.717000
 11
15.639000
 20
14.659000
 21
14.662000
  0
LINE
  8
0
 10
15.639000
 11
15.284000
 20
14.662000
 21
14.711000
  0
LINE
  8
0
 10
15.284000
 11
15.098000
 20
14.711000
 21
13.834000
  0
LINE
  8
0
 10
15.098000
 11
15.441000
 20
13.834000
 21
13.735000
  0
LINE
  8
0
 10
15.441000
 11
15.515000
 20
13.735000
 21
13.705000
  0
LINE
  8
0
 10
15.515000
 11
15.721000
 20
13.705000
 21
13.588000
  0
LINE
  8
0
 10
15.721000
 11
16.031000
 20
13.588000
 21
13.342000
  0
LINE
  8
0
 10
16.031000
 11
16.408000
 20
13.342000
 21
12.937000
  0
LINE
  8
0
 10
16.408000
 11
16.807000
 20
12.937000
 21
12.349000
  0
LINE
  8
0
 10
16.807000
 11
16.632000
 20
12.349000
 21
11.954000
  0
LINE
  8
0
 10
16.632000
 11
15.926000
 20
11.954000
 21
11.857000
  0
LINE
  8
0
 10
15.926000
 11
15.374000
 20
11.857000
 21
11.867000
  0
LINE
  8
0
 10
15.374000
 11
14.984000
 20
11.867000
 21
11.933000
  0
LINE
  8
0
 10
14.984000
 11
14.759000
 20
11.933000
 21
12.007000
  0
LINE
  8
0
 10
14.759000
 11
14.688000
 20
12.007000
 21
12.042000
  0
LINE
  8
0
 10
14.688000
 11
14.384000
 20
12.042000
 21
12.232000
  0
LINE
  8
0
 10
14.384000
 11
13.857000
 20
12.232000
 21
11.506000
  0
LINE
  8
0
 10
13.857000
 11
14.131000
 20
11.506000
 21
11.275000
  0
LINE
  8
0
 10
14.131000
 11
14.186000
 20
11.275000
 21
11.218000
  0
LINE
  8
0
 10
14.186000
 11
14.326000
 20
11.218000
 21
11.027000
  0
LINE
  8
0
 10
14.326000
 11
14.510000
 20
11.027000
 21
10.676000
  0
LINE
  8
0
 10
14.510000
 11
14.689000
 20
10.676000
 21
10.154000
  0
LINE
  8
0
 10
14.689000
 11
14.814000
 20
10.154000
 21
9.453000
  0
LINE
  8
0
 10
14.814000
 11
14.494000
 20
9.453000
 21
9.165000
  0
LINE
  8
0
 10
14.494000
 11
13.811000
 20
9.165000
 21
9.363000
  0
LINE
  8
0
 10
13.811000
 11
13.309000
 20
9.363000
 21
9.595000
  0
LINE
  8
0
 10
13.309000
 11
12.980000
 20
9.595000
 21
9.815000
  0
LINE
  8
0
 10
12.980000
 11
12.805000
 20
9.815000
 21
9.975000
  0
LINE
  8
0
 10
12.805000
 11
12.753000
 20
9.975000
 21
10.035000
  0
LINE
  8
0
 10
12.753000
 11
12.552000
 20
10.035000
 21
10.331000
  0
LINE
  8
0
 10
12.552000
 11
11.776000
 20
10.331000
 21
9.883000
  0
LINE
  8
0
 10
11.776000
 11
11.933000
 20
9.883000
 21
9.560000
  0
LINE
  8
0
 10
11.933000
 11
11.960000
 20
9.560000
 21
9.487000
  0
LINE
  8
0
 10
11.960000
 11
12.011000
 20
9.487000
 21
9.254000
  0
LINE
  8
0
 10
12.011000
 11
12.036000
 20
9.254000
 21
8.860000
  0
LINE
  8
0
 10
12.036000
 11
11.987000
 20
8.860000
 21
8.310000
  0
LINE
  8
0
 10
11.987000
 11
11.817000
 20
8.310000
 21
7.618000
  0
LINE
  8
0
 10
11.817000
 11
11.406000
 20
7.618000
 21
7.486000
  0
LINE
  8
0
 10
11.406000
 11
10.862000
 20
7.486000
 21
7.943000
  0
LINE
  8
0
 10
10.862000
 11
10.499000
 20
7.943000
 21
8.361000
  0
LINE
  8
0
 10
10.499000
 11
10.287000
 20
8.361000
 21
8.694000
  0
LINE
  8
0
 10
10.287000
 11
10.192000
 20
8.694000
 21
8.912000
  0
LINE
  8
0
 10
10.192000
 11
10.170000
 20
8.912000
 21
8.987000
  0
LINE
  8
0
 10
10.170000
 11
10.107000
 20
8.987000
 21
9.341000
  0
LINE
  8
0
 10
10.107000
 11
9.217000
 20
9.341000
 21
9.248000
  0
LINE
  8
0
 10
9.217000
 11
9.228000
 20
9.248000
 21
8.889000
  0
LINE
  8
0
 10
9.228000
 11
9.222000
 20
8.889000
 21
8.811000
  0
LINE
  8
0
 10
9.222000
 11
9.174000
 20
8.811000
 21
8.577000
  0
LINE
  8
0
 10
9.174000
 11
9.037000
 20
8.577000
 21
8.207000
  0
LINE
  8
0
 10
9.037000
 11
8.769000
 20
8.207000
 21
7.723000
  0
LINE
  8
0
 10
8.769000
 11
8.332000
 20
7.723000
 21
7.163000
  0
LINE
  8
0
 10
8.332000
 11
7.902000
 20
7.163000
 21
7.207000
  0
LINE
  8
0
 10
7.902000
 11
7.592000
 20
7.207000
 21
7.847000
  0
LINE
  8
0
 10
7.592000
 11
7.430000
 20
7.847000
 21
8.376000
  0
LINE
  8
0
 10
7.430000
 11
7.372000
 20
8.376000
 21
8.767000
  0
LINE
  8
0
 10
7.372000
 11
7.374000
 20
8.767000
 21
9.004000
  0
LINE
  8
0
 10
7.374000
 11
7.385000
 20
9.004000
 21
9.083000
  0
LINE
  8
0
 10
7.385000
 11
7.471000
 20
9.083000
 21
9.431000
  0
LINE
  8
0
 10
7.471000
 11
6.618000
 20
9.431000
 21
9.709000
  0
LINE
  8
0
 10
6.618000
 11
6.483000
 20
9.709000
 21
9.375000
  0
LINE
  8
0
 10
6.483000
 11
6.446000
 20
9.375000
 21
9.307000
  0
LINE
  8
0
 10
6.446000
 11
6.308000
 20
9.307000
 21
9.113000
  0
LINE
  8
0
 10
6.308000
 11
6.031000
 20
9.113000
 21
8.830000
  0
LINE
  8
0
 10
6.031000
 11
5.589000
 20
8.830000
 21
8.498000
  0
LINE
  8
0
 10
5.589000
 11
4.962000
 20
8.498000
 21
8.163000
  0
LINE
  8
0
 10
4.962000
 11
4.588000
 20
8.163000
 21
8.379000
  0
LINE
  8
0
 10
4.588000
 11
4.565000
 20
8.379000
 21
9.089000
  0
LINE
  8
0
 10
4.565000
 11
4.632000
 20
9.089000
 21
9.638000
  0
LINE
  8
0
 10
4.632000
 11
4.738000
 20
9.638000
 21
10.020000
  0
LINE
  8
0
 10
4.738000
 11
4.836000
 20
10.020000
 21
10.235000
  0
LINE
  8
0
 10
4.836000
 11
4.878000
 20
10.235000
 21
10.302000
  0
LINE
  8
0
 10
4.878000
 11
5.099000
 20
10.302000
 21
10.586000
  0
LINE
  8
0
 10
5.099000
 11
4.432000
 20
10.586000
 21
11.184000
  0
LINE
  8
0
 10
4.432000
 11
4.174000
 20
11.184000
 21
10.936000
  0
LINE
  8
0
 10
4.174000
 11
4.111000
 20
10.936000
 21
10.888000
  0
LINE
  8
0
 10
4.111000
 11
3.907000
 20
10.888000
 21
10.768000
  0
LINE
  8
0
 10
3.907000
 11
3.539000
 20
10.768000
 21
10.622000
  0
LINE
  8
0
 10
3.539000
 11
3.000000
 20
10.622000
 21
10.498000
  0
LINE
  8
0
 10
3.000000
 11
2.291000
 20
10.498000
 21
10.446000
  0
LINE
  8
0
 10
2.291000
 11
2.037000
 20
10.446000
 21
10.797000
  0
LINE
  8
0
 10
2.037000
 11
2.305000
 20
10.797000
 21
11.454000
  0
LINE
  8
0
 10
2.305000
 11
2.589000
 20
11.454000
 21
11.930000
  0
LINE
  8
0
 10
2.589000
 11
2.842000
 20
11.930000
 21
12.234000
  0
LINE
  8
0
 10
2.842000
 11
3.019000
 20
12.234000
 21
12.392000
  0
LINE
  8
0
 10
3.019000
 11
3.084000
 20
12.392000
 21
12.436000
  0
LINE
  8
0
 10
3.084000
 11
3.400000
 20
12.436000
 21
12.605000
  0
LINE
  8
0
 10
3.400000
 11
3.036000
 20
12.605000
 21
13.424000
  0
LINE
  8
0
 10
3.036000
 11
2.699000
 20
13.424000
 21
13.301000
  0
LINE
  8
0
 10
2.699000
 11
2.622000
 20
13.301000
 21
13.284000
  0
LINE
  8
0
 10
2.622000
 11
2.386000
 20
13.284000
 21
13.256000
  0
LINE
  8
0
 10
2.386000
 11
1.991000
 20
13.256000
 21
13.273000
  0
LINE
  8
0
 10
1.991000
 11
1.448000
 20
13.273000
 21
13.380000
  0
LINE
  8
0
 10
1.448000
 11
0.780000
 20
13.380000
 21
13.621000
  0
LINE
  8
0
 10
0.780000
 11
0.690000
 20
13.621000
 21
14.043000
  0
LINE
  8
0
 10
4.200000
 11
4.223000
 20
0.000000
 21
0.218000
  0
LINE
  8
0
 10
4.223000
 11
4.291000
 20
0.218000
 21
0.427000
  0
LINE
  8
0
 10
4.291000
 11
4.401000
 20
0.427000
 21
0.617000
  0
LINE
  8
0
 10
4.401000
 11
4.547000
 20
0.617000
 21
0.780000
  0
LINE
  8
0
 10
4.547000
 11
4.725000
 20
0.780000
 21
0.909000
  0
LINE
  8
0
 10
4.725000
 11
4.926000
 20
0.909000
 21
0.999000
  0
LINE
  8
0
 10
4.926000
 11
5.140000
 20
0.999000
 21
1.044000
  0
LINE
  8
0
 10
5.140000
 11
5.360000
 20
1.044000
 21
1.044000
  0
LINE
  8
0
 10
5.360000
 11
5.574000
 20
1.044000
 21
0.999000
  0
LINE
  8
0
 10
5.574000
 11
5.775000
 20
0.999000
 21
0.909000
  0
LINE
  8
0
 10
5.775000
 11
5.953000
 20
0.909000
 21
0.780000
  0
LINE
  8
0
 10
5.953000
 11
6.099000
 20
0.780000
 21
0.617000
  0
LINE
  8
0
 10
6.099000
 11
6.209000
 20
0.617000
 21
0.427000
  0
LINE
  8
0
 10
6.209000
 11
6.277000
 20
0.427000
 21
0.218000
  0
LINE
  8
0
 10
6.277000
 11
6.300000
 20
0.218000
 21
0.000000
  0
LINE
  8
0
 10
6.300000
 11
6.277000
 20
0.000000
 21
-0.218000
  0
LINE
  8
0
 10
6.277000
 11
6.209000
 20
-0.218000
 21
-0.427000
  0
LINE
  8
0
 10
6.209000
 11
6.099000
 20
-0.427000
 21
-0.617000
  0
LINE
  8
0
 10
6.099000
 11
5.953000
 20
-0.617000
 21
-0.780000
  0
LINE
  8
0
 10
5.953000
 11
5.775000
 20
-0.780000
 21
-0.909000
  0
LINE
  8
0
 10
5.775000
 11
5.574000
 20
-0.909000
 21
-0.999000
  0
LINE
  8
0
 10
5.574000
 11
5.360000
 20
-0.999000
 21
-1.044000
  0
LINE
  8
0
 10
5.360000
 11
5.140000
 20
-1.044000
 21
-1.044000
  0
LINE
  8
0
 10
5.140000
 11
4.926000
 20
-1.044000
 21
-0.999000
  0
LINE
  8
0
 10
4.926000
 11
4.725000
 20
-0.999000
 21
-0.909000
  0
LINE
  8
0
 10
4.725000
 11
4.547000
 20
-0.909000
 21
-0.780000
  0
LINE
  8
0
 10
4.547000
 11
4.401000
 20
-0.780000
 21
-0.617000
  0
LINE
  8
0
 10
4.401000
 11
4.291000
 20
-0.617000
 21
-0.427000
  0
LINE
  8
0
 10
4.291000
 11
4.223000
 20
-0.427000
 21
-0.218000
  0
LINE
  8
0
 10
4.223000
 11
4.200000
 20
-0.218000
 21
0.000000
  0
LINE
  8
0
 10
5.220000
 11
5.267000
 20
-13.306000
 21
-13.116000
  0
LINE
  8
0
 10
5.267000
 11
5.360000
 20
-13.116000
 21
-12.943000
  0
LINE
  8
0
 10
5.360000
 11
5.494000
 20
-12.943000
 21
-12.802000
  0
LINE
  8
0
 10
5.494000
 11
5.661000
 20
-12.802000
 21
-12.699000
  0
LINE
  8
0
 10
5.661000
 11
5.848000
 20
-12.699000
 21
-12.644000
  0
LINE
  8
0
 10
5.848000
 11
6.045000
 20
-12.644000
 21
-12.638000
  0
LINE
  8
0
 10
6.045000
 11
6.234000
 20
-12.638000
 21
-12.684000
  0
LINE
  8
0
 10
6.234000
 11
6.407000
 20
-12.684000
 21
-12.777000
  0
LINE
  8
0
 10
6.407000
 11
6.549000
 20
-12.777000
 21
-12.913000
  0
LINE
  8
0
 10
6.549000
 11
6.651000
 20
-12.913000
 21
-13.079000
  0
LINE
  8
0
 10
6.651000
 11
6.706000
 20
-13.079000
 21
-13.267000
  0
LINE
  8
0
 10
6.706000
 11
6.712000
 20
-13.267000
 21
-13.462000
  0
LINE
  8
0
 10
6.712000
 11
6.666000
 20
-13.462000
 21
-13.653000
  0
LINE
  8
0
 10
6.666000
 11
6.573000
 20
-13.653000
 21
-13.825000
  0
LINE
  8
0
 10
6.573000
 11
6.438000
 20
-13.825000
 21
-13.967000
  0
LINE
  8
0
 10
6.438000
 11
6.272000
 20
-13.967000
 21
-14.070000
  0
LINE
  8
0
 10
6.272000
 11
6.083000
 20
-14.070000
 21
-14.125000
  0
LINE
  8
0
 10
6.083000
 11
5.887000
 20
-14.125000
 21
-14.131000
  0
LINE
  8
0
 10
5.887000
 11
5.697000
 20
-14.131000
 21
-14.084000
  0
LINE
  8
0
 10
5.697000
 11
5.526000
 20
-14.084000
 21
-13.991000
  0
LINE
  8
0
 10
5.526000
 11
5.383000
 20
-13.991000
 21
-13.856000
  0
LINE
  8
0
 10
5.383000
 11
5.280000
 20
-13.856000
 21
-13.690000
  0
LINE
  8
0
 10
5.280000
 11
5.226000
 20
-13.690000
 21
-13.502000
  0
LINE
  8
0
 10
5.226000
 11
5.220000
 20
-13.502000
 21
-13.306000
  0
LINE
  8
0
 10
9.690000
 11
10.203000
 20
-1.546000
 21
-1.053000
  0
LINE
  8
0
 10
10.203000
 11
10.655000
 20
-1.053000
 21
-0.735000
  0
LINE
  8
0
 10
10.655000
 11
11.010000
 20
-0.735000
 21
-0.560000
  0
LINE
  8
0
 10
11.010000
 11
11.236000
 20
-0.560000
 21
-0.488000
  0
LINE
  8
0
 10
11.236000
 11
11.313000
 20
-0.488000
 21
-0.474000
  0
LINE
  8
0
 10
11.313000
 11
11.671000
 20
-0.474000
 21
-0.449000
  0
LINE
  8
0
 10
11.671000
 11
11.671000
 20
-0.449000
 21
0.449000
  0
LINE
  8
0
 10
11.671000
 11
11.313000
 20
0.449000
 21
0.474000
  0
LINE
  8
0
 10
11.313000
 11
11.236000
 20
0.474000
 21
0.488000
  0
LINE
  8
0
 10
11.236000
 11
11.010000
 20
0.488000
 21
0.560000
  0
LINE
  8
0
 10
11.010000
 11
10.655000
 20
0.560000
 21
0.735000
  0
LINE
  8
0
 10
10.655000
 11
10.203000
 20
0.735000
 21
1.053000
  0
LINE
  8
0
 10
10.203000
 11
9.690000
 20
1.053000
 21
1.546000
  0
LINE
  8
0
 10
9.690000
 11
9.780000
 20
1.546000
 21
1.968000
  0
LINE
  8
0
 10
9.780000
 11
10.448000
 20
1.968000
 21
2.209000
  0
LINE
  8
0
 10
10.448000
 11
10.991000
 20
2.209000
 21
2.316000
  0
LINE
  8
0
 10
10.991000
 11
11.386000
 20
2.316000
 21
2.332000
  0
LINE
  8
0
 10
11.386000
 11
11.622000
 20
2.332000
 21
2.305000
  0
LINE
  8
0
 10
11.622000
 11
11.699000
 20
2.305000
 21
2.287000
  0
LINE
  8
0
 10
11.699000
 11
12.036000
 20
2.287000
 21
2.165000
  0
LINE
  8
0
 10
12.036000
 11
12.400000
 20
2.165000
 21
2.983000
  0
LINE
  8
0
 10
12.400000
 11
12.084000
 20
2.983000
 21
3.152000
  0
LINE
  8
0
 10
12.084000
 11
12.019000
 20
3.152000
 21
3.197000
  0
LINE
  8
0
 10
12.019000
 11
11.842000
 20
3.197000
 21
3.354000
  0
LINE
  8
0
 10
11.842000
 11
11.589000
 20
3.354000
 21
3.659000
  0
LINE
  8
0
 10
11.589000
 11
11.305000
 20
3.659000
 21
4.134000
  0
LINE
  8
0
 10
11.305000
 11
11.037000
 20
4.134000
 21
4.792000
  0
LINE
  8
0
 10
11.037000
 11
11.291000
 20
4.792000
 21
5.142000
  0
LINE
  8
0
 10
11.291000
 11
12.000000
 20
5.142000
 21
5.090000
  0
LINE
  8
0
 10
12.000000
 11
12.539000
 20
5.090000
 21
4.966000
  0
LINE
  8
0
 10
12.539000
 11
12.907000
 20
4.966000
 21
4.820000
  0
LINE
  8
0
 10
12.907000
 11
13.111000
 20
4.820000
 21
4.700000
  0
LINE
  8
0
 10
13.111000
 11
13.174000
 20
4.700000
 21
4.652000
  0
LINE
  8
0
 10
13.174000
 11
13.432000
 20
4.652000
 21
4.403000
  0
LINE
  8
0
 10
13.432000
 11
14.098000
 20
4.403000
 21
5.003000
  0
LINE
  8
0
 10
14.098000
 11
13.878000
 20
5.003000
 21
5.286000
  0
LINE
  8
0
 10
13.878000
 11
13.836000
 20
5.286000
 21
5.353000
  0
LINE
  8
0
 10
13.836000
 11
13.738000
 20
5.353000
 21
5.569000
  0
LINE
  8
0
 10
13.738000
 11
13.632000
 20
5.569000
 21
5.950000
  0
LINE
  8
0
 10
13.632000
 11
13.565000
 20
5.950000
 21
6.499000
  0
LINE
  8
0
 10
13.565000
 11
13.588000
 20
6.499000
 21
7.210000
  0
LINE
  8
0
 10
13.588000
 11
13.962000
 20
7.210000
 21
7.426000
  0
LINE
  8
0
 10
13.962000
 11
14.589000
 20
7.426000
 21
7.090000
  0
LINE
  8
0
 10
14.589000
 11
15.031000
 20
7.090000
 21
6.758000
  0
LINE
  8
0
 10
15.031000
 11
15.308000
 20
6.758000
 21
6.475000
  0
LINE
  8
0
 10
15.308000
 11
15.446000
 20
6.475000
 21
6.282000
  0
LINE
  8
0
 10
15.446000
 11
15.483000
 20
6.282000
 21
6.213000
  0
LINE
  8
0
 10
15.483000
 11
15.618000
 20
6.213000
 21
5.880000
  0
LINE
  8
0
 10
15.618000
 11
16.470000
 20
5.880000
 21
6.158000
  0
LINE
  8
0
 10
16.470000
 11
16.384000
 20
6.158000
 21
6.506000
  0
LINE
  8
0
 10
16.384000
 11
16.374000
 20
6.506000
 21
6.584000
  0
LINE
  8
0
 10
16.374000
 11
16.372000
 20
6.584000
 21
6.821000
  0
LINE
  8
0
 10
16.372000
 11
16.430000
 20
6.821000
 21
7.212000
  0
LINE
  8
0
 10
16.430000
 11
16.592000
 20
7.212000
 21
7.741000
  0
LINE
  8
0
 10
16.592000
 11
16.902000
 20
7.741000
 21
8.381000
  0
LINE
  8
0
 10
16.902000
 11
17.332000
 20
8.381000
 21
8.426000
  0
LINE
  8
0
 10
17.332000
 11
17.768000
 20
8.426000
 21
7.865000
  0
LINE
  8
0
 10
17.768000
 11
18.037000
 20
7.865000
 21
7.381000
  0
LINE
  8
0
 10
18.037000
 11
18.174000
 20
7.381000
 21
7.011000
  0
LINE
  8
0
 10
18.174000
 11
18.222000
 20
7.011000
 21
6.778000
  0
LINE
  8
0
 10
18.222000
 11
18.228000
 20
6.778000
 21
6.700000
  0
LINE
  8
0
 10
18.228000
 11
18.216000
 20
6.700000
 21
6.341000
  0
LINE
  8
0
 10
18.216000
 11
19.107000
 20
6.341000
 21
6.247000
  0
LINE
  8
0
 10
19.107000
 11
19.170000
 20
6.247000
 21
6.601000
  0
LINE
  8
0
 10
19.170000
 11
19.192000
 20
6.601000
 21
6.676000
  0
LINE
  8
0
 10
19.192000
 11
19.287000
 20
6.676000
 21
6.894000
  0
LINE
  8
0
 10
19.287000
 11
19.499000
 20
6.894000
 21
7.228000
  0
LINE
  8
0
 10
19.499000
 11
19.862000
 20
7.228000
 21
7.645000
  0
LINE
  8
0
 10
19.862000
 11
20.406000
 20
7.645000
 21
8.103000
  0
LINE
  8
0
 10
20.406000
 11
20.817000
 20
8.103000
 21
7.970000
  0
LINE
  8
0
 10
20.817000
 11
20.987000
 20
7.970000
 21
7.279000
  0
LINE
  8
0
 10
20.987000
 11
21.036000
 20
7.279000
 21
6.728000
  0
LINE
  8
0
 10
21.036000
 11
21.011000
 20
6.728000
 21
6.334000
  0
LINE
  8
0
 10
21.011000
 11
20.960000
 20
6.334000
 21
6.102000
  0
LINE
  8
0
 10
20.960000
 11
20.933000
 20
6.102000
 21
6.028000
  0
LINE
  8
0
 10
20.933000
 11
20.776000
 20
6.028000
 21
5.705000
  0
LINE
  8
0
 10
20.776000
 11
21.552000
 20
5.705000
 21
5.257000
  0
LINE
  8
0
 10
21.552000
 11
21.753000
 20
5.257000
 21
5.554000
  0
LINE
  8
0
 10
21.753000
 11
21.805000
 20
5.554000
 21
5.614000
  0
LINE
  8
0
 10
21.805000
 11
21.980000
 20
5.614000
 21
5.774000
  0
LINE
  8
0
 10
21.980000
 11
22.309000
 20
5.774000
 21
5.993000
  0
LINE
  8
0
 10
22.309000
 11
22.811000
 20
5.993000
 21
6.226000
  0
LINE
  8
0
 10
22.811000
 11
23.494000
 20
6.226000
 21
6.424000
  0
LINE
  8
0
 10
23.494000
 11
23.815000
 20
6.424000
 21
6.135000
  0
LINE
  8
0
 10
23.815000
 11
23.689000
 20
6.135000
 21
5.435000
  0
LINE
  8
0
 10
23.689000
 11
23.510000
 20
5.435000
 21
4.912000
  0
LINE
  8
0
 10
23.510000
 11
23.326000
 20
4.912000
 21
4.562000
  0
LINE
  8
0
 10
23.326000
 11
23.186000
 20
4.562000
 21
4.371000
  0
LINE
  8
0
 10
23.186000
 11
23.131000
 20
4.371000
 21
4.313000
  0
LINE
  8
0
 10
23.131000
 11
22.857000
 20
4.313000
 21
4.083000
  0
LINE
  8
0
 10
22.857000
 11
23.384000
 20
4.083000
 21
3.358000
  0
LINE
  8
0
 10
23.384000
 11
23.688000
 20
3.358000
 21
3.547000
  0
LINE
  8
0
 10
23.688000
 11
23.759000
 20
3.547000
 21
3.581000
  0
LINE
  8
0
 10
23.759000
 11
23.984000
 20
3.581000
 21
3.656000
  0
LINE
  8
0
 10
23.984000
 11
24.374000
 20
3.656000
 21
3.722000
  0
LINE
  8
0
 10
24.374000
 11
24.927000
 20
3.722000
 21
3.731000
  0
LINE
  8
0
 10
24.927000
 11
25.632000
 20
3.731000
 21
3.634000
  0
LINE
  8
0
 10
25.632000
 11
25.807000
 20
3.634000
 21
3.240000
  0
LINE
  8
0
 10
25.807000
 11
25.408000
 20
3.240000
 21
2.651000
  0
LINE
  8
0
 10
25.408000
 11
25.031000
 20
2.651000
 21
2.246000
  0
LINE
  8
0
 10
25.031000
 11
24.721000
 20
2.246000
 21
2.001000
  0
LINE
  8
0
 10
24.721000
 11
24.515000
 20
2.001000
 21
1.884000
  0
LINE
  8
0
 10
24.515000
 11
24.442000
 20
1.884000
 21
1.853000
  0
LINE
  8
0
 10
24.442000
 11
24.098000
 20
1.853000
 21
1.754000
  0
LINE
  8
0
 10
24.098000
 11
24.284000
 20
1.754000
 21
0.877000
  0
LINE
  8
0
 10
24.284000
 11
24.639000
 20
0.877000
 21
0.927000
  0
LINE
  8
0
 10
24.639000
 11
24.718000
 20
0.927000
 21
0.929000
  0
LINE
  8
0
 10
24.718000
 11
24.954000
 20
0.929000
 21
0.906000
  0
LINE
  8
0
 10
24.954000
 11
25.337000
 20
0.906000
 21
0.808000
  0
LINE
  8
0
 10
25.337000
 11
25.846000
 20
0.808000
 21
0.591000
  0
LINE
  8
0
 10
25.846000
 11
26.450000
 20
0.591000
 21
0.216000
  0
LINE
  8
0
 10
26.450000
 11
26.450000
 20
0.216000
 21
-0.216000
  0
LINE
  8
0
 10
26.450000
 11
25.846000
 20
-0.216000
 21
-0.591000
  0
LINE
  8
0
 10
25.846000
 11
25.337000
 20
-0.591000
 21
-0.808000
  0
LINE
  8
0
 10
25.337000
 11
24.954000
 20
-0.808000
 21
-0.906000
  0
LINE
  8
0
 10
24.954000
 11
24.718000
 20
-0.906000
 21
-0.929000
  0
LINE
  8
0
 10
24.718000
 11
24.639000
 20
-0.929000
 21
-0.927000
  0
LINE
  8
0
 10
24.639000
 11
24.284000
 20
-0.927000
 21
-0.877000
  0
LINE
  8
0
 10
24.284000
 11
24.098000
 20
-0.877000
 21
-1.754000
  0
LINE
  8
0
 10
24.098000
 11
24.442000
 20
-1.754000
 21
-1.853000
  0
LINE
  8
0
 10
24.442000
 11
24.515000
 20
-1.853000
 21
-1.884000
  0
LINE
  8
0
 10
24.515000
 11
24.721000
 20
-1.884000
 21
-2.001000
  0
LINE
  8
0
 10
24.721000
 11
25.031000
 20
-2.001000
 21
-2.246000
  0
LINE
  8
0
 10
25.031000
 11
25.408000
 20
-2.246000
 21
-2.651000
  0
LINE
  8
0
 10
25.408000
 11
25.807000
 20
-2.651000
 21
-3.240000
  0
LINE
  8
0
 10
25.807000
 11
25.632000
 20
-3.240000
 21
-3.634000
  0
LINE
  8
0
 10
25.632000
 11
24.927000
 20
-3.634000
 21
-3.731000
  0
LINE
  8
0
 10
24.927000
 11
24.374000
 20
-3.731000
 21
-3.722000
  0
LINE
  8
0
 10
24.374000
 11
23.984000
 20
-3.722000
 21
-3.656000
  0
LINE
  8
0
 10
23.984000
 11
23.759000
 20
-3.656000
 21
-3.581000
  0
LINE
  8
0
 10
23.759000
 11
23.688000
 20
-3.581000
 21
-3.547000
  0
LINE
  8
0
 10
23.688000
 11
23.384000
 20
-3.547000
 21
-3.357000
  0
LINE
  8
0
 10
23.384000
 11
22.857000
 20
-3.357000
 21
-4.082000
  0
LINE
  8
0
 10
22.857000
 11
23.131000
 20
-4.082000
 21
-4.313000
  0
LINE
  8
0
 10
23.131000
 11
23.186000
 20
-4.313000
 21
-4.371000
  0
LINE
  8
0
 10
23.186000
 11
23.326000
 20
-4.371000
 21
-4.562000
  0
LINE
  8
0
 10
23.326000
 11
23.510000
 20
-4.562000
 21
-4.912000
  0
LINE
  8
0
 10
23.510000
 11
23.689000
 20
-4.912000
 21
-5.435000
  0
LINE
  8
0
 10
23.689000
 11
23.815000
 20
-5.435000
 21
-6.135000
  0
LINE
  8
0
 10
23.815000
 11
23.494000
 20
-6.135000
 21
-6.424000
  0
LINE
  8
0
 10
23.494000
 11
22.811000
 20
-6.424000
 21
-6.226000
  0
LINE
  8
0
 10
22.811000
 11
22.309000
 20
-6.226000
 21
-5.993000
  0
LINE
  8
0
 10
22.309000
 11
21.980000
 20
-5.993000
 21
-5.774000
  0
LINE
  8
0
 10
21.980000
 11
21.805000
 20
-5.774000
 21
-5.614000
  0
LINE
  8
0
 10
21.805000
 11
21.753000
 20
-5.614000
 21
-5.554000
  0
LINE
  8
0
 10
21.753000
 11
21.552000
 20
-5.554000
 21
-5.257000
  0
LINE
  8
0
 10
21.552000
 11
20.776000
 20
-5.257000
 21
-5.705000
  0
LINE
  8
0
 10
20.776000
 11
20.933000
 20
-5.705000
 21
-6.028000
  0
LINE
  8
0
 10
20.933000
 11
20.960000
 20
-6.028000
 21
-6.102000
  0
LINE
  8
0
 10
20.960000
 11
21.011000
 20
-6.102000
 21
-6.334000
  0
LINE
  8
0
 10
21.011000
 11
21.036000
 20
-6.334000
 21
-6.728000
  0
LINE
  8
0
 10
21.036000
 11
20.987000
 20
-6.728000
 21
-7.279000
  0
LINE
  8
0
 10
20.987000
 11
20.817000
 20
-7.279000
 21
-7.970000
  0
LINE
  8
0
 10
20.817000
 11
20.406000
 20
-7.970000
 21
-8.103000
  0
LINE
  8
0
 10
20.406000
 11
19.862000
 20
-8.103000
 21
-7.645000
  0
LINE
  8
0
 10
19.862000
 11
19.499000
 20
-7.645000
 21
-7.228000
  0
LINE
  8
0
 10
19.499000
 11
19.287000
 20
-7.228000
 21
-6.894000
  0
LINE
  8
0
 10
19.287000
 11
19.192000
 20
-6.894000
 21
-6.676000
  0
LINE
  8
0
 10
19.192000
 11
19.170000
 20
-6.676000
 21
-6.601000
  0
LINE
  8
0
 10
19.170000
 11
19.107000
 20
-6.601000
 21
-6.248000
  0
LINE
  8
0
 10
19.107000
 11
18.216000
 20
-6.248000
 21
-6.341000
  0
LINE
  8
0
 10
18.216000
 11
18.228000
 20
-6.341000
 21
-6.700000
  0
LINE
  8
0
 10
18.228000
 11
18.222000
 20
-6.700000
 21
-6.778000
  0
LINE
  8
0
 10
18.222000
 11
18.174000
 20
-6.778000
 21
-7.011000
  0
LINE
  8
0
 10
18.174000
 11
18.037000
 20
-7.011000
 21
-7.381000
  0
LINE
  8
0
 10
18.037000
 11
17.768000
 20
-7.381000
 21
-7.865000
  0
LINE
  8
0
 10
17.768000
 11
17.332000
 20
-7.865000
 21
-8.426000
  0
LINE
  8
0
 10
17.332000
 11
16.902000
 20
-8.426000
 21
-8.381000
  0
LINE
  8
0
 10
16.902000
 11
16.592000
 20
-8.381000
 21
-7.741000
  0
LINE
  8
0
 10
16.592000
 11
16.430000
 20
-7.741000
 21
-7.212000
  0
LINE
  8
0
 10
16.430000
 11
16.372000
 20
-7.212000
 21
-6.821000
  0
LINE
  8
0
 10
16.372000
 11
16.374000
 20
-6.821000
 21
-6.584000
  0
LINE
  8
0
 10
16.374000
 11
16.384000
 20
-6.584000
 21
-6.506000
  0
LINE
  8
0
 10
16.384000
 11
16.471000
 20
-6.506000
 21
-6.157000
  0
LINE
  8
0
 10
16.471000
 11
15.618000
 20
-6.157000
 21
-5.880000
  0
LINE
  8
0
 10
15.618000
 11
15.483000
 20
-5.880000
 21
-6.213000
  0
LINE
  8
0
 10
15.483000
 11
15.446000
 20
-6.213000
 21
-6.282000
  0
LINE
  8
0
 10
15.446000
 11
15.308000
 20
-6.282000
 21
-6.475000
  0
LINE
  8
0
 10
15.308000
 11
15.031000
 20
-6.475000
 21
-6.758000
  0
LINE
  8
0
 10
15.031000
 11
14.589000
 20
-6.758000
 21
-7.090000
  0
LINE
  8
0
 10
14.589000
 11
13.962000
 20
-7.090000
 21
-7.426000
  0
LINE
  8
0
 10
13.962000
 11
13.588000
 20
-7.426000
 21
-7.210000
  0
LINE
  8
0
 10
13.588000
 11
13.565000
 20
-7.210000
 21
-6.499000
  0
LINE
  8
0
 10
13.565000
 11
13.632000
 20
-6.499000
 21
-5.950000
  0
LINE
  8
0
 10
13.632000
 11
13.738000
 20
-5.950000
 21
-5.569000
  0
LINE
  8
0
 10
13.738000
 11
13.836000
 20
-5.569000
 21
-5.353000
  0
LINE
  8
0
 10
13.836000
 11
13.878000
 20
-5.353000
 21
-5.286000
  0
LINE
  8
0
 10
13.878000
 11
14.099000
 20
-5.286000
 21
-5.003000
  0
LINE
  8
0
 10
14.099000
 11
13.432000
 20
-5.003000
 21
-4.404000
  0
LINE
  8
0
 10
13.432000
 11
13.174000
 20
-4.404000
 21
-4.652000
  0
LINE
  8
0
 10
13.174000
 11
13.111000
 20
-4.652000
 21
-4.700000
  0
LINE
  8
0
 10
13.111000
 11
12.907000
 20
-4.700000
 21
-4.820000
  0
LINE
  8
0
 10
12.907000
 11
12.539000
 20
-4.820000
 21
-4.966000
  0
LINE
  8
0
 10
12.539000
 11
12.000000
 20
-4.966000
 21
-5.090000
  0
LINE
  8
0
 10
12.000000
 11
11.291000
 20
-5.090000
 21
-5.142000
  0
LINE
  8
0
 10
11.291000
 11
11.037000
 20
-5.142000
 21
-4.792000
  0
LINE
  8
0
 10
11.037000
 11
11.305000
 20
-4.792000
 21
-4.134000
  0
LINE
  8
0
 10
11.305000
 11
11.589000
 20
-4.134000
 21
-3.659000
  0
LINE
  8
0
 10
11.589000
 11
11.842000
 20
-3.659000
 21
-3.354000
  0
LINE
  8
0
 10
11.842000
 11
12.019000
 20
-3.354000
 21
-3.197000
  0
LINE
  8
0
 10
12.019000
 11
12.084000
 20
-3.197000
 21
-3.152000
  0
LINE
  8
0
 10
12.084000
 11
12.400000
 20
-3.152000
 21
-2.984000
  0
LINE
  8
0
 10
12.400000
 11
12.035000
 20
-2.984000
 21
-2.165000
  0
LINE
  8
0
 10
12.035000
 11
11.699000
 20
-2.165000
 21
-2.287000
  0
LINE
  8
0
 10
11.699000
 11
11.622000
 20
-2.287000
 21
-2.305000
  0
LINE
  8
0
 10
11.622000
 11
11.386000
 20
-2.305000
 21
-2.332000
  0
LINE
  8
0
 10
11.386000
 11
10.991000
 20
-2.332000
 21
-2.316000
  0
LINE
  8
0
 10
10.991000
 11
10.448000
 20
-2.316000
 21
-2.209000
  0
LINE
  8
0
 10
10.448000
 11
9.780000
 20
-2.209000
 21
-1.968000
  0
LINE
  8
0
 10
9.780000
 11
9.690000
 20
-1.968000
 21
-1.546000
  0
LINE
  8
0
 10
12.000000
 11
12.026000
 20
15.588000
 21
15.782000
  0
LINE
  8
0
 10
12.026000
 11
12.100000
 20
15.782000
 21
15.964000
  0
LINE
  8
0
 10
12.100000
 11
12.220000
 20
15.964000
 21
16.118000
  0
LINE
  8
0
 10
12.220000
 11
12.375000
 20
16.118000
 21
16.238000
  0
LINE
  8
0
 10
12.375000
 11
12.556000
 20
16.238000
 21
16.312000
  0
LINE
  8
0
 10
12.556000
 11
12.751000
 20
16.312000
 21
16.339000
  0
LINE
  8
0
 10
12.751000
 11
12.944000
 20
16.339000
 21
16.312000
  0
LINE
  8
0
 10
12.944000
 11
13.124000
 20
16.312000
 21
16.238000
  0
LINE
  8
0
 10
13.124000
 11
13.280000
 20
16.238000
 21
16.118000
  0
LINE
  8
0
 10
13.280000
 11
13.400000
 20
16.118000
 21
15.964000
  0
LINE
  8
0
 10
13.400000
 11
13.474000
 20
15.964000
 21
15.782000
  0
LINE
  8
0
 10
13.474000
 11
13.500000
 20
15.782000
 21
15.589000
  0
LINE
  8
0
 10
13.500000
 11
13.474000
 20
15.589000
 21
15.394000
  0
LINE
  8
0
 10
13.474000
 11
13.400000
 20
15.394000
 21
15.213000
  0
LINE
  8
0
 10
13.400000
 11
13.280000
 20
15.213000
 21
15.058000
  0
LINE
  8
0
 10
13.280000
 11
13.125000
 20
15.058000
 21
14.939000
  0
LINE
  8
0
 10
13.125000
 11
12.944000
 20
14.939000
 21
14.864000
  0
LINE
  8
0
 10
12.944000
 11
12.750000
 20
14.864000
 21
14.838000
  0
LINE
  8
0
 10
12.750000
 11
12.556000
 20
14.838000
 21
14.864000
  0
LINE
  8
0
 10
12.556000
 11
12.375000
 20
14.864000
 21
14.939000
  0
LINE
  8
0
 10
12.375000
 11
12.220000
 20
14.939000
 21
15.058000
  0
LINE
  8
0
 10
12.220000
 11
12.100000
 20
15.058000
 21
15.213000
  0
LINE
  8
0
 10
12.100000
 11
12.026000
 20
15.213000
 21
15.394000
  0
LINE
  8
0
 10
12.026000
 11
12.000000
 20
15.394000
 21
15.588000
  0
LINE
  8
0
 10
21.000000
 11
21.026000
 20
0.000000
 21
0.194000
  0
LINE
  8
0
 10
21.026000
 11
21.100000
 20
0.194000
 21
0.375000
  0
LINE
  8
0
 10
21.100000
 11
21.220000
 20
0.375000
 21
0.530000
  0
LINE
  8
0
 10
21.220000
 11
21.375000
 20
0.530000
 21
0.650000
  0
LINE
  8
0
 10
21.375000
 11
21.556000
 20
0.650000
 21
0.724000
  0
LINE
  8
0
 10
21.556000
 11
21.750000
 20
0.724000
 21
0.750000
  0
LINE
  8
0
 10
21.750000
 11
21.944000
 20
0.750000
 21
0.724000
  0
LINE
  8
0
 10
21.944000
 11
22.125000
 20
0.724000
 21
0.650000
  0
LINE
  8
0
 10
22.125000
 11
22.280000
 20
0.650000
 21
0.530000
  0
LINE
  8
0
 10
22.280000
 11
22.400000
 20
0.530000
 21
0.375000
  0
LINE
  8
0
 10
22.400000
 11
22.474000
 20
0.375000
 21
0.194000
  0
LINE
  8
0
 10
22.474000
 11
22.500000
 20
0.194000
 21
0.000000
  0
LINE
  8
0
 10
22.500000
 11
22.474000
 20
0.000000
 21
-0.194000
  0
LINE
  8
0
 10
22.474000
 11
22.400000
 20
-0.194000
 21
-0.375000
  0
LINE
  8
0
 10
22.400000
 11
22.280000
 20
-0.375000
 21
-0.530000
  0
LINE
  8
0
 10
22.280000
 11
22.125000
 20
-0.530000
 21
-0.650000
  0
LINE
  8
0
 10
22.125000
 11
21.944000
 20
-0.650000
 21
-0.724000
  0
LINE
  8
0
 10
21.944000
 11
21.750000
 20
-0.724000
 21
-0.750000
  0
LINE
  8
0
 10
21.750000
 11
21.556000
 20
-0.750000
 21
-0.724000
  0
LINE
  8
0
 10
21.556000
 11
21.375000
 20
-0.724000
 21
-0.650000
  0
LINE
  8
0
 10
21.375000
 11
21.220000
 20
-0.650000
 21
-0.530000
  0
LINE
  8
0
 10
21.220000
 11
21.100000
 20
-0.530000
 21
-0.375000
  0
LINE
  8
0
 10
21.100000
 11
21.026000
 20
-0.375000
 21
-0.194000
  0
LINE
  8
0
 10
21.026000
 11
21.000000
 20
-0.194000
 21
0.000000
  0
ENDSEC
  0
SECTION
  2
OBJECTS
  0
DICTIONARY
  0
ENDSEC
  0
EOF
