  0
SECTION
  2
HEADER
  9
$ACADVER
  1
AC1015
  0
ENDSEC
  0
SECTION
  2
BLOCKS
  0
ENDSEC
  0
SECTION
  2
ENTITIES
  0
LWPOLYLINE
  8
0
  90
225
  70
1
 10
0.000000
 20
0.000000
 10
0.032000
 20
0.483000
 10
0.063000
 20
0.987000
 10
0.089000
 20
1.486000
 10
0.184000
 20
2.486000
 10
0.241000
 20
2.985000
 10
0.324000
 20
3.492000
 10
0.409000
 20
3.992000
 10
0.545000
 20
4.493000
 10
0.675000
 20
4.992000
 10
0.846000
 20
5.491000
 10
1.044000
 20
5.996000
 10
1.280000
 20
6.495000
 10
1.558000
 20
6.996000
 10
1.873000
 20
7.498000
 10
2.284000
 20
7.995000
 10
2.771000
 20
8.501000
 10
2.978000
 20
8.679000
 10
3.380000
 20
9.000000
 10
3.985000
 20
9.382000
 10
4.224000
 20
9.505000
 10
4.490000
 20
9.635000
 10
4.990000
 20
9.848000
 10
5.455000
 20
10.005000
 10
5.987000
 20
10.142000
 10
6.487000
 20
10.244000
 10
6.981000
 20
10.305000
 10
7.476000
 20
10.334000
 10
7.728000
 20
10.335000
 10
7.981000
 20
10.332000
 10
8.488000
 20
10.297000
 10
8.994000
 20
10.231000
 10
9.496000
 20
10.128000
 10
9.952000
 20
10.013000
 10
10.496000
 20
9.843000
 10
10.988000
 20
9.644000
 10
11.481000
 20
9.447000
 10
11.986000
 20
9.233000
 10
12.481000
 20
9.021000
 10
12.986000
 20
8.876000
 10
13.552000
 20
8.808000
 10
13.994000
 20
8.852000
 10
14.472000
 20
9.011000
 10
14.825000
 20
9.234000
 10
15.413000
 20
8.849000
 10
15.140000
 20
8.509000
 10
14.981000
 20
8.112000
 10
14.961000
 20
8.006000
 10
14.948000
 20
7.726000
 10
14.975000
 20
7.513000
 10
15.140000
 20
7.011000
 10
15.500000
 20
6.547000
 10
15.993000
 20
6.203000
 10
16.497000
 20
5.990000
 10
16.990000
 20
5.826000
 10
17.495000
 20
5.711000
 10
17.998000
 20
5.613000
 10
18.495000
 20
5.546000
 10
19.002000
 20
5.502000
 10
19.501000
 20
5.473000
 10
20.006000
 20
5.453000
 10
20.198000
 20
5.448000
 10
20.497000
 20
5.451000
 10
20.994000
 20
5.479000
 10
21.492000
 20
5.544000
 10
21.988000
 20
5.661000
 10
22.392000
 20
5.807000
 10
22.699000
 20
6.016000
 10
23.010000
 20
6.515000
 10
23.054000
 20
6.822000
 10
23.043000
 20
7.016000
 10
22.835000
 20
7.518000
 10
22.794000
 20
7.595000
 10
23.390000
 20
7.882000
 10
23.496000
 20
7.800000
 10
23.993000
 20
7.527000
 10
24.445000
 20
7.476000
 10
24.498000
 20
7.478000
 10
24.999000
 20
7.531000
 10
25.499000
 20
7.670000
 10
25.713000
 20
7.746000
 10
25.997000
 20
7.834000
 10
26.496000
 20
7.990000
 10
26.995000
 20
8.140000
 10
27.492000
 20
8.253000
 10
27.996000
 20
8.331000
 10
28.504000
 20
8.386000
 10
28.953000
 20
8.407000
 10
29.506000
 20
8.377000
 10
30.006000
 20
8.315000
 10
30.507000
 20
8.208000
 10
31.005000
 20
8.067000
 10
31.499000
 20
7.873000
 10
32.003000
 20
7.623000
 10
32.164000
 20
7.528000
 10
32.506000
 20
7.312000
 10
32.916000
 20
7.025000
 10
33.016000
 20
6.942000
 10
33.513000
 20
6.528000
 10
34.005000
 20
6.026000
 10
34.167000
 20
5.834000
 10
34.405000
 20
5.526000
 10
34.738000
 20
5.029000
 10
35.017000
 20
4.521000
 10
35.235000
 20
4.022000
 10
35.423000
 20
3.525000
 10
35.577000
 20
3.024000
 10
35.697000
 20
2.521000
 10
35.778000
 20
2.023000
 10
35.841000
 20
1.519000
 10
35.873000
 20
1.022000
 10
35.877000
 20
0.941000
 10
35.897000
 20
0.000000
 10
35.877000
 20
-0.941000
 10
35.873000
 20
-1.022000
 10
35.841000
 20
-1.519000
 10
35.778000
 20
-2.023000
 10
35.697000
 20
-2.521000
 10
35.577000
 20
-3.024000
 10
35.423000
 20
-3.525000
 10
35.235000
 20
-4.022000
 10
35.017000
 20
-4.521000
 10
34.738000
 20
-5.029000
 10
34.405000
 20
-5.526000
 10
34.167000
 20
-5.834000
 10
34.005000
 20
-6.026000
 10
33.513000
 20
-6.528000
 10
33.016000
 20
-6.942000
 10
32.916000
 20
-7.025000
 10
32.506000
 20
-7.312000
 10
32.164000
 20
-7.528000
 10
32.003000
 20
-7.623000
 10
31.499000
 20
-7.873000
 10
31.005000
 20
-8.067000
 10
30.507000
 20
-8.208000
 10
30.006000
 20
-8.315000
 10
29.506000
 20
-8.377000
 10
28.953000
 20
-8.407000
 10
28.504000
 20
-8.386000
 10
27.996000
 20
-8.331000
 10
27.492000
 20
-8.253000
 10
26.995000
 20
-8.140000
 10
26.496000
 20
-7.990000
 10
25.997000
 20
-7.834000
 10
25.713000
 20
-7.746000
 10
25.499000
 20
-7.670000
 10
24.999000
 20
-7.531000
 10
24.498000
 20
-7.478000
 10
24.445000
 20
-7.476000
 10
23.993000
 20
-7.527000
 10
23.496000
 20
-7.800000
 10
23.390000
 20
-7.882000
 10
22.794000
 20
-7.595000
 10
22.835000
 20
-7.518000
 10
23.043000
 20
-7.016000
 10
23.054000
 20
-6.822000
 10
23.010000
 20
-6.515000
 10
22.699000
 20
-6.016000
 10
22.392000
 20
-5.807000
 10
21.988000
 20
-5.661000
 10
21.492000
 20
-5.544000
 10
20.994000
 20
-5.479000
 10
20.497000
 20
-5.451000
 10
20.198000
 20
-5.448000
 10
20.006000
 20
-5.453000
 10
19.501000
 20
-5.473000
 10
19.002000
 20
-5.502000
 10
18.495000
 20
-5.546000
 10
17.998000
 20
-5.613000
 10
17.495000
 20
-5.711000
 10
16.990000
 20
-5.826000
 10
16.497000
 20
-5.990000
 10
15.993000
 20
-6.203000
 10
15.500000
 20
-6.547000
 10
15.140000
 20
-7.011000
 10
14.975000
 20
-7.513000
 10
14.948000
 20
-7.726000
 10
14.961000
 20
-8.006000
 10
14.981000
 20
-8.112000
 10
15.140000
 20
-8.509000
 10
15.413000
 20
-8.849000
 10
14.825000
 20
-9.234000
 10
14.472000
 20
-9.011000
 10
13.994000
 20
-8.852000
 10
13.552000
 20
-8.808000
 10
12.986000
 20
-8.876000
 10
12.481000
 20
-9.021000
 10
11.986000
 20
-9.233000
 10
11.481000
 20
-9.447000
 10
10.988000
 20
-9.644000
 10
10.496000
 20
-9.843000
 10
9.952000
 20
-10.013000
 10
9.496000
 20
-10.128000
 10
8.994000
 20
-10.231000
 10
8.488000
 20
-10.297000
 10
7.981000
 20
-10.332000
 10
7.728000
 20
-10.335000
 10
7.476000
 20
-10.334000
 10
6.981000
 20
-10.305000
 10
6.487000
 20
-10.244000
 10
5.987000
 20
-10.142000
 10
5.455000
 20
-10.005000
 10
4.990000
 20
-9.848000
 10
4.490000
 20
-9.635000
 10
4.224000
 20
-9.505000
 10
3.985000
 20
-9.382000
 10
3.380000
 20
-9.000000
 10
2.978000
 20
-8.679000
 10
2.771000
 20
-8.501000
 10
2.284000
 20
-7.995000
 10
1.873000
 20
-7.498000
 10
1.558000
 20
-6.996000
 10
1.280000
 20
-6.495000
 10
1.044000
 20
-5.996000
 10
0.846000
 20
-5.491000
 10
0.675000
 20
-4.992000
 10
0.545000
 20
-4.493000
 10
0.409000
 20
-3.992000
 10
0.324000
 20
-3.492000
 10
0.241000
 20
-2.985000
 10
0.184000
 20
-2.486000
 10
0.089000
 20
-1.486000
 10
0.063000
 20
-0.987000
 10
0.032000
 20
-0.483000
 10
0.000000
 20
0.000000
  0
ENDSEC
  0
SECTION
  2
OBJECTS
  0
DICTIONARY
  0
ENDSEC
  0
EOF
