  0
SECTION
  2
HEADER
  9
$ACADVER
  1
AC1015
  0
ENDSEC
  0
SECTION
  2
BLOCKS
  0
ENDSEC
  0
SECTION
  2
ENTITIES
  0
LWPOLYLINE
  8
0
  90
14
  70
1
 10
-13.884000
 20
-0.957000
 10
-13.884000
 20
0.957000
 10
-12.994000
 20
2.652000
 10
-11.418000
 20
3.740000
 10
-9.518000
 20
3.971000
 10
-7.728000
 20
3.292000
 10
-6.458000
 20
1.859000
 10
-6.000000
 20
0.000000
 10
-6.458000
 20
-1.859000
 10
-7.728000
 20
-3.292000
 10
-9.518000
 20
-3.971000
 10
-11.418000
 20
-3.740000
 10
-12.994000
 20
-2.652000
 10
-13.884000
 20
-0.957000
  0
LWPOLYLINE
  8
0
  90
14
  70
1
 10
-3.884000
 20
-0.957000
 10
-3.884000
 20
0.957000
 10
-2.994000
 20
2.652000
 10
-1.418000
 20
3.740000
 10
0.482000
 20
3.971000
 10
2.272000
 20
3.292000
 10
3.542000
 20
1.859000
 10
4.000000
 20
0.000000
 10
3.542000
 20
-1.859000
 10
2.272000
 20
-3.292000
 10
0.482000
 20
-3.971000
 10
-1.418000
 20
-3.740000
 10
-2.994000
 20
-2.652000
 10
-3.884000
 20
-0.957000
  0
LWPOLYLINE
  8
0
  90
14
  70
1
 10
6.116000
 20
-0.957000
 10
6.116000
 20
0.957000
 10
7.006000
 20
2.652000
 10
8.582000
 20
3.740000
 10
10.482000
 20
3.971000
 10
12.272000
 20
3.292000
 10
13.542000
 20
1.859000
 10
14.000000
 20
0.000000
 10
13.542000
 20
-1.859000
 10
12.272000
 20
-3.292000
 10
10.482000
 20
-3.971000
 10
8.582000
 20
-3.740000
 10
7.006000
 20
-2.652000
 10
6.116000
 20
-0.957000
  0
ENDSEC
  0
SECTION
  2
OBJECTS
  0
DICTIONARY
  0
ENDSEC
  0
EOF
