999
dxflib 2.2.0.0
  0
SECTION
  2
HEADER
  9
$ACADVER
  1
AC1015
  9
$HANDSEED
  5
FFFF
  9
$DIMASZ
 40
2.5
  9
$GRIDMODE
 70
1
  9
$PLIMMIN
 10
0.0
 20
0.0
  9
$DIMEXE
 40
1.25
  9
$DIMGAP
 40
0.625
  9
$PLIMMAX
 10
210.0
 20
297.0
  9
$INSUNITS
 70
4
  9
$DIMSTYLE
  2
Standard
  9
$CLAYER
  8
0
  9
$DIMEXO
 40
0.625
  9
$DIMTXT
 40
2.5
  9
$CLAYER
  8
0
  0
ENDSEC
  0
SECTION
  2
TABLES
  0
TABLE
  2
VPORT
  5
8
100
AcDbSymbolTable
 70
1
  0
VPORT
  5
30
100
AcDbSymbolTableRecord
100
AcDbViewportTableRecord
  2
*Active
 70
0
 10
0.0
 20
0.0
 11
1.0
 21
1.0
 12
286.3055555555554861
 22
148.5
 13
0.0
 23
0.0
 14
10.0
 24
10.0
 15
10.0
 25
10.0
 16
0.0
 26
0.0
 36
1.0
 17
0.0
 27
0.0
 37
0.0
 40
297.0
 41
1.92798353909465
 42
50.0
 43
0.0
 44
0.0
 50
0.0
 51
0.0
 71
0
 72
100
 73
1
 74
3
 75
1
 76
1
 77
0
 78
0
281
0
 65
1
110
0.0
120
0.0
130
0.0
111
1.0
121
0.0
131
0.0
112
0.0
122
1.0
132
0.0
 79
0
146
0.0
  0
ENDTAB
  0
TABLE
  2
LTYPE
  5
5
100
AcDbSymbolTable
 70
21
  0
LTYPE
  5
14
100
AcDbSymbolTableRecord
100
AcDbLinetypeTableRecord
  2
ByBlock
 70
0
  3

 72
65
 73
0
 40
0.0
  0
LTYPE
  5
15
100
AcDbSymbolTableRecord
100
AcDbLinetypeTableRecord
  2
ByLayer
 70
0
  3

 72
65
 73
0
 40
0.0
  0
LTYPE
  5
16
100
AcDbSymbolTableRecord
100
AcDbLinetypeTableRecord
  2
CONTINUOUS
 70
0
  3
Solid line
 72
65
 73
0
 40
0.0
  0
LTYPE
  5
31
100
AcDbSymbolTableRecord
100
AcDbLinetypeTableRecord
  2
DOT
 70
0
  3
Dot . . . . . . . . . . . . . . . . . . . . . .
 72
65
 73
2
 40
6.3499999999999996
 49
0.0
 74
0
 49
-6.3499999999999996
 74
0
  0
LTYPE
  5
32
100
AcDbSymbolTableRecord
100
AcDbLinetypeTableRecord
  2
DOT2
 70
0
  3
Dot (.5x) .....................................
 72
65
 73
2
 40
3.1749999999999998
 49
0.0
 74
0
 49
-3.1749999999999998
 74
0
  0
LTYPE
  5
33
100
AcDbSymbolTableRecord
100
AcDbLinetypeTableRecord
  2
DOTX2
 70
0
  3
Dot (2x) .  .  .  .  .  .  .  .  .  .  .  .  .
 72
65
 73
2
 40
12.6999999999999993
 49
0.0
 74
0
 49
-12.6999999999999993
 74
0
  0
LTYPE
  5
34
100
AcDbSymbolTableRecord
100
AcDbLinetypeTableRecord
  2
DASHED
 70
0
  3
Dashed __ __ __ __ __ __ __ __ __ __ __ __ __ _
 72
65
 73
2
 40
19.0500000000000007
 49
12.6999999999999993
 74
0
 49
-6.3499999999999996
 74
0
  0
LTYPE
  5
35
100
AcDbSymbolTableRecord
100
AcDbLinetypeTableRecord
  2
DASHED2
 70
0
  3
Dashed (.5x) _ _ _ _ _ _ _ _ _ _ _ _ _ _ _ _ _
 72
65
 73
2
 40
9.5250000000000004
 49
6.3499999999999996
 74
0
 49
-3.1749999999999998
 74
0
  0
LTYPE
  5
36
100
AcDbSymbolTableRecord
100
AcDbLinetypeTableRecord
  2
DASHEDX2
 70
0
  3
Dashed (2x) ____  ____  ____  ____  ____  ___
 72
65
 73
2
 40
38.1000000000000014
 49
25.3999999999999986
 74
0
 49
-12.6999999999999993
 74
0
  0
LTYPE
  5
37
100
AcDbSymbolTableRecord
100
AcDbLinetypeTableRecord
  2
DASHDOT
 70
0
  3
Dash dot __ . __ . __ . __ . __ . __ . __ . __
 72
65
 73
4
 40
25.3999999999999986
 49
12.6999999999999993
 74
0
 49
-6.3499999999999996
 74
0
 49
0.0
 74
0
 49
-6.3499999999999996
 74
0
  0
LTYPE
  5
38
100
AcDbSymbolTableRecord
100
AcDbLinetypeTableRecord
  2
DASHDOT2
 70
0
  3
Dash dot (.5x) _._._._._._._._._._._._._._._.
 72
65
 73
4
 40
12.6999999999999993
 49
6.3499999999999996
 74
0
 49
-3.1749999999999998
 74
0
 49
0.0
 74
0
 49
-3.1749999999999998
 74
0
  0
LTYPE
  5
39
100
AcDbSymbolTableRecord
100
AcDbLinetypeTableRecord
  2
DASHDOTX2
 70
0
  3
Dash dot (2x) ____  .  ____  .  ____  .  ___
 72
65
 73
4
 40
50.7999999999999972
 49
25.3999999999999986
 74
0
 49
-12.6999999999999993
 74
0
 49
0.0
 74
0
 49
-12.6999999999999993
 74
0
  0
LTYPE
  5
3A
100
AcDbSymbolTableRecord
100
AcDbLinetypeTableRecord
  2
DIVIDE
 70
0
  3
Divide ____ . . ____ . . ____ . . ____ . . ____
 72
65
 73
6
 40
31.75
 49
12.6999999999999993
 74
0
 49
-6.3499999999999996
 74
0
 49
0.0
 74
0
 49
-6.3499999999999996
 74
0
 49
0.0
 74
0
 49
-6.3499999999999996
 74
0
  0
LTYPE
  5
3B
100
AcDbSymbolTableRecord
100
AcDbLinetypeTableRecord
  2
DIVIDE2
 70
0
  3
Divide (.5x) __..__..__..__..__..__..__..__.._
 72
65
 73
6
 40
15.875
 49
6.3499999999999996
 74
0
 49
-3.1749999999999998
 74
0
 49
0.0
 74
0
 49
-3.1749999999999998
 74
0
 49
0.0
 74
0
 49
-3.1749999999999998
 74
0
  0
LTYPE
  5
3C
100
AcDbSymbolTableRecord
100
AcDbLinetypeTableRecord
  2
DIVIDEX2
 70
0
  3
Divide (2x) ________  .  .  ________  .  .  _
 72
65
 73
6
 40
63.5
 49
25.3999999999999986
 74
0
 49
-12.6999999999999993
 74
0
 49
0.0
 74
0
 49
-12.6999999999999993
 74
0
 49
0.0
 74
0
 49
-12.6999999999999993
 74
0
  0
LTYPE
  5
3D
100
AcDbSymbolTableRecord
100
AcDbLinetypeTableRecord
  2
CENTER
 70
0
  3
Center ____ _ ____ _ ____ _ ____ _ ____ _ ____
 72
65
 73
4
 40
50.7999999999999972
 49
31.75
 74
0
 49
-6.3499999999999996
 74
0
 49
6.3499999999999996
 74
0
 49
-6.3499999999999996
 74
0
  0
LTYPE
  5
3E
100
AcDbSymbolTableRecord
100
AcDbLinetypeTableRecord
  2
CENTER2
 70
0
  3
Center (.5x) ___ _ ___ _ ___ _ ___ _ ___ _ ___
 72
65
 73
4
 40
28.5749999999999993
 49
19.0500000000000007
 74
0
 49
-3.1749999999999998
 74
0
 49
3.1749999999999998
 74
0
 49
-3.1749999999999998
 74
0
  0
LTYPE
  5
3F
100
AcDbSymbolTableRecord
100
AcDbLinetypeTableRecord
  2
CENTERX2
 70
0
  3
Center (2x) ________  __  ________  __  _____
 72
65
 73
4
 40
101.5999999999999943
 49
63.5
 74
0
 49
-12.6999999999999993
 74
0
 49
12.6999999999999993
 74
0
 49
-12.6999999999999993
 74
0
  0
LTYPE
  5
40
100
AcDbSymbolTableRecord
100
AcDbLinetypeTableRecord
  2
BORDER
 70
0
  3
Border __ __ . __ __ . __ __ . __ __ . __ __ .
 72
65
 73
6
 40
44.4500000000000028
 49
12.6999999999999993
 74
0
 49
-6.3499999999999996
 74
0
 49
12.6999999999999993
 74
0
 49
-6.3499999999999996
 74
0
 49
0.0
 74
0
 49
-6.3499999999999996
 74
0
  0
LTYPE
  5
41
100
AcDbSymbolTableRecord
100
AcDbLinetypeTableRecord
  2
BORDER2
 70
0
  3
Border (.5x) __.__.__.__.__.__.__.__.__.__.__.
 72
65
 73
6
 40
22.2250000000000014
 49
6.3499999999999996
 74
0
 49
-3.1749999999999998
 74
0
 49
6.3499999999999996
 74
0
 49
-3.1749999999999998
 74
0
 49
0.0
 74
0
 49
-3.1749999999999998
 74
0
  0
LTYPE
  5
42
100
AcDbSymbolTableRecord
100
AcDbLinetypeTableRecord
  2
BORDERX2
 70
0
  3
Border (2x) ____  ____  .  ____  ____  .  ___
 72
65
 73
6
 40
88.9000000000000057
 49
25.3999999999999986
 74
0
 49
-12.6999999999999993
 74
0
 49
25.3999999999999986
 74
0
 49
-12.6999999999999993
 74
0
 49
0.0
 74
0
 49
-12.6999999999999993
 74
0
  0
ENDTAB
  0
TABLE
  2
LAYER
  5
2
100
AcDbSymbolTable
 70
12
  0
LAYER
  5
10
100
AcDbSymbolTableRecord
100
AcDbLayerTableRecord
  2
0
 70
0
 62
7
420
0
  6
CONTINUOUS
370
25
390
F
  0
LAYER
  5
43
100
AcDbSymbolTableRecord
100
AcDbLayerTableRecord
  2
SafeOrange_P1_181mm_181mm
 70
0
 62
30
420
16159262
  6
CONTINUOUS
370
0
390
F
  0
LAYER
  5
44
100
AcDbSymbolTableRecord
100
AcDbLayerTableRecord
  2
SafeOrange_P2_384mm_384mm
 70
0
 62
30
420
16159262
  6
CONTINUOUS
370
0
390
F
  0
LAYER
  5
45
100
AcDbSymbolTableRecord
100
AcDbLayerTableRecord
  2
SafeOrange_P3_790mm_384mm
 70
0
 62
30
420
16159262
  6
CONTINUOUS
370
0
390
F
  0
LAYER
  5
46
100
AcDbSymbolTableRecord
100
AcDbLayerTableRecord
  2
CuttingLines_0p003mm
 70
0
 62
5
420
255
  6
CONTINUOUS
370
0
390
F
  0
LAYER
  5
47
100
AcDbSymbolTableRecord
100
AcDbLayerTableRecord
  2
RasterFill_Heavy_0p03mm
 70
0
 62
7
420
0
  6
CONTINUOUS
370
0
390
F
  0
LAYER
  5
48
100
AcDbSymbolTableRecord
100
AcDbLayerTableRecord
  2
RasterFill_Light_0p03mm
 70
0
 62
254
420
15132390
  6
CONTINUOUS
370
0
390
F
  0
LAYER
  5
49
100
AcDbSymbolTableRecord
100
AcDbLayerTableRecord
  2
RasterFill_Medium_0p03mm
 70
0
 62
8
420
8421504
  6
CONTINUOUS
370
0
390
F
  0
LAYER
  5
4A
100
AcDbSymbolTableRecord
100
AcDbLayerTableRecord
  2
SafeOrange_Annotation
 70
0
 62
30
420
16159262
  6
CONTINUOUS
370
0
390
F
  0
LAYER
  5
4B
100
AcDbSymbolTableRecord
100
AcDbLayerTableRecord
  2
VectorLines_Medium_0p003mm
 70
0
 62
3
420
65280
  6
CONTINUOUS
370
0
390
F
  0
LAYER
  5
4C
100
AcDbSymbolTableRecord
100
AcDbLayerTableRecord
  2
VectorLines_Light_0p003mm
 70
0
 62
6
420
16711935
  6
CONTINUOUS
370
0
390
F
  0
LAYER
  5
4D
100
AcDbSymbolTableRecord
100
AcDbLayerTableRecord
  2
VectorLines_Heavy_0p003mm
 70
0
 62
1
420
16711680
  6
CONTINUOUS
370
0
390
F
  0
ENDTAB
  0
TABLE
  2
STYLE
  5
3
100
AcDbSymbolTable
 70
1
  0
STYLE
  5
11
100
AcDbSymbolTableRecord
100
AcDbTextStyleTableRecord
  2
Standard
 70
0
 40
0.0
 41
0.75
 50
0.0
 71
0
 42
2.5
  3
txt
  4

  0
ENDTAB
  0
TABLE
  2
VIEW
  5
6
100
AcDbSymbolTable
 70
0
  0
ENDTAB
  0
TABLE
  2
UCS
  5
7
100
AcDbSymbolTable
 70
0
  0
ENDTAB
  0
TABLE
  2
APPID
  5
9
100
AcDbSymbolTable
 70
1
  0
APPID
  5
12
100
AcDbSymbolTableRecord
100
AcDbRegAppTableRecord
  2
ACAD
 70
0
  0
ENDTAB
  0
TABLE
  2
DIMSTYLE
  5
A
100
AcDbSymbolTable
 70
1
100
AcDbDimStyleTable
 71
0
  0
DIMSTYLE
105
27
100
AcDbSymbolTableRecord
100
AcDbDimStyleTableRecord
  2
Standard
 41
2.5
 42
0.625
 43
3.75
 44
1.25
 70
0
 73
0
 74
0
 77
1
 78
8
140
2.5
141
2.5
143
0.03937007874016
147
0.625
171
3
172
1
271
2
272
2
274
3
278
44
283
0
284
8
340
11
  0
ENDTAB
  0
TABLE
  2
BLOCK_RECORD
  5
1
100
AcDbSymbolTable
 70
1
  0
BLOCK_RECORD
  5
1F
100
AcDbSymbolTableRecord
100
AcDbBlockTableRecord
  2
*Model_Space
340
22
  0
BLOCK_RECORD
  5
1B
100
AcDbSymbolTableRecord
100
AcDbBlockTableRecord
  2
*Paper_Space
340
1E
  0
BLOCK_RECORD
  5
23
100
AcDbSymbolTableRecord
100
AcDbBlockTableRecord
  2
*Paper_Space0
340
26
  0
ENDTAB
  0
ENDSEC
  0
SECTION
  2
BLOCKS
  0
BLOCK
  5
20
100
AcDbEntity
  8
0
100
AcDbBlockBegin
  2
*Model_Space
 70
0
 10
0.0
 20
0.0
 30
0.0
  3
*Model_Space
  1

  0
ENDBLK
  5
21
100
AcDbEntity
  8
0
100
AcDbBlockEnd
  0
BLOCK
  5
1C
100
AcDbEntity
 67
1
  8
0
100
AcDbBlockBegin
  2
*Paper_Space
 70
0
 10
0.0
 20
0.0
 30
0.0
  3
*Paper_Space
  1

  0
ENDBLK
  5
1D
100
AcDbEntity
 67
1
  8
0
100
AcDbBlockEnd
  0
BLOCK
  5
24
100
AcDbEntity
  8
0
100
AcDbBlockBegin
  2
*Paper_Space0
 70
0
 10
0.0
 20
0.0
 30
0.0
  3
*Paper_Space0
  1

  0
ENDBLK
  5
25
100
AcDbEntity
  8
0
100
AcDbBlockEnd
  0
ENDSEC
  0
SECTION
  2
ENTITIES
  0
ARC
  5
4E
100
AcDbEntity
  8
CuttingLines_0p003mm
 62
256
370
-1
  6
ByLayer
100
AcDbCircle
 10
9.9000000000000057
 20
5.0000000000000018
 30
0.0
 40
0.2
100
AcDbArc
 50
299.9999999999981242
 51
60.0000000000020037
  0
LINE
  5
4F
100
AcDbEntity
100
AcDbLine
  8
CuttingLines_0p003mm
 62
256
370
-1
  6
ByLayer
 10
10.0
 20
5.826794919243115
 30
0.0
 11
10.0
 21
5.1732050807569001
 31
0.0
  0
ARC
  5
50
100
AcDbEntity
  8
CuttingLines_0p003mm
 62
256
370
-1
  6
ByLayer
100
AcDbCircle
 10
10.1000000000000085
 20
6.0000000000000009
 30
0.0
 40
0.2
100
AcDbArc
 50
120.0000000000027711
 51
239.9999999999971863
  0
ARC
  5
51
100
AcDbEntity
  8
CuttingLines_0p003mm
 62
256
370
-1
  6
ByLayer
100
AcDbCircle
 10
6.1000000000000014
 20
5.9999999999999982
 30
0.0
 40
0.2
100
AcDbArc
 50
120.000000000000469
 51
239.9999999999995168
  0
LINE
  5
52
100
AcDbEntity
100
AcDbLine
  8
CuttingLines_0p003mm
 62
256
370
-1
  6
ByLayer
 10
6.0
 20
5.1732050807568868
 30
0.0
 11
6.0
 21
5.8267949192431132
 31
0.0
  0
ARC
  5
53
100
AcDbEntity
  8
CuttingLines_0p003mm
 62
256
370
-1
  6
ByLayer
100
AcDbCircle
 10
5.9000000000000057
 20
5.0
 30
0.0
 40
0.2
100
AcDbArc
 50
299.9999999999980673
 51
60.0000000000018758
  0
ARC
  5
54
100
AcDbEntity
  8
CuttingLines_0p003mm
 62
256
370
-1
  6
ByLayer
100
AcDbCircle
 10
2.100000000000001
 20
6.0
 30
0.0
 40
0.2
100
AcDbArc
 50
120.000000000000469
 51
239.9999999999995168
  0
LINE
  5
55
100
AcDbEntity
100
AcDbLine
  8
CuttingLines_0p003mm
 62
256
370
-1
  6
ByLayer
 10
2.0
 20
5.8267949192431132
 30
0.0
 11
2.0000000000000004
 21
5.1732050807569019
 31
0.0
  0
ARC
  5
56
100
AcDbEntity
  8
CuttingLines_0p003mm
 62
256
370
-1
  6
ByLayer
100
AcDbCircle
 10
1.9000000000000061
 20
4.9999999999999991
 30
0.0
 40
0.2
100
AcDbArc
 50
299.9999999999981242
 51
60.0000000000019185
  0
ARC
  5
57
100
AcDbEntity
  8
CuttingLines_0p003mm
 62
256
370
-1
  6
ByLayer
100
AcDbCircle
 10
-1.8999999999999972
 20
6.0
 30
0.0
 40
0.2
100
AcDbArc
 50
120.000000000000469
 51
239.9999999999995168
  0
LINE
  5
58
100
AcDbEntity
100
AcDbLine
  8
CuttingLines_0p003mm
 62
256
370
-1
  6
ByLayer
 10
-1.9999999999999993
 20
5.8267949192431132
 30
0.0
 11
-2.0000000000000009
 21
5.1732050807568868
 31
0.0
  0
ARC
  5
59
100
AcDbEntity
  8
CuttingLines_0p003mm
 62
256
370
-1
  6
ByLayer
100
AcDbCircle
 10
-2.1000000000000019
 20
5.0
 30
0.0
 40
0.2
100
AcDbArc
 50
300.0000000000004547
 51
59.9999999999994458
  0
ARC
  5
5A
100
AcDbEntity
  8
CuttingLines_0p003mm
 62
256
370
-1
  6
ByLayer
100
AcDbCircle
 10
-5.8999999999999986
 20
6.0
 30
0.0
 40
0.2
100
AcDbArc
 50
120.000000000000469
 51
239.9999999999995168
  0
LINE
  5
5B
100
AcDbEntity
100
AcDbLine
  8
CuttingLines_0p003mm
 62
256
370
-1
  6
ByLayer
 10
-5.9999999999999991
 20
5.1732050807568877
 30
0.0
 11
-6.0
 21
5.8267949192431132
 31
0.0
  0
ARC
  5
5C
100
AcDbEntity
  8
CuttingLines_0p003mm
 62
256
370
-1
  6
ByLayer
100
AcDbCircle
 10
-6.0999999999999943
 20
4.9999999999999991
 30
0.0
 40
0.2
100
AcDbArc
 50
299.9999999999980673
 51
60.0000000000018758
  0
ARC
  5
5D
100
AcDbEntity
  8
CuttingLines_0p003mm
 62
256
370
-1
  6
ByLayer
100
AcDbCircle
 10
-10.0999999999999996
 20
5.0000000000000018
 30
0.0
 40
0.2
100
AcDbArc
 50
300.0000000000004547
 51
59.9999999999995097
  0
LINE
  5
5E
100
AcDbEntity
100
AcDbLine
  8
CuttingLines_0p003mm
 62
256
370
-1
  6
ByLayer
 10
-9.9999999999999982
 20
5.8267949192431168
 30
0.0
 11
-10.0
 21
5.1732050807568877
 31
0.0
  0
ARC
  5
5F
100
AcDbEntity
  8
CuttingLines_0p003mm
 62
256
370
-1
  6
ByLayer
100
AcDbCircle
 10
-9.8999999999999968
 20
6.0000000000000187
 30
0.0
 40
0.2
100
AcDbArc
 50
120.000000000000469
 51
239.9999999999995168
  0
ARC
  5
60
100
AcDbEntity
  8
CuttingLines_0p003mm
 62
256
370
-1
  6
ByLayer
100
AcDbCircle
 10
-13.8999999999999986
 20
3.900000000000023
 30
0.0
 40
0.1
100
AcDbArc
 50
90.0
 51
180.0
  0
LINE
  5
61
100
AcDbEntity
100
AcDbLine
  8
CuttingLines_0p003mm
 62
256
370
-1
  6
ByLayer
 10
-9.9999999999999964
 20
6.9000000000000066
 30
0.0
 11
-9.9999999999999982
 21
6.1732050807568877
 31
0.0
  0
ARC
  5
62
100
AcDbEntity
  8
CuttingLines_0p003mm
 62
256
370
-1
  6
ByLayer
100
AcDbCircle
 10
-9.9000000000000004
 20
6.9000000000000048
 30
0.0
 40
0.1
100
AcDbArc
 50
90.0
 51
180.0
  0
LINE
  5
63
100
AcDbEntity
100
AcDbLine
  8
CuttingLines_0p003mm
 62
256
370
-1
  6
ByLayer
 10
-6.0999999999999979
 20
7.0000000000000018
 30
0.0
 11
-9.8999999999999968
 21
7.0000000000000053
 31
0.0
  0
LINE
  5
64
100
AcDbEntity
100
AcDbLine
  8
CuttingLines_0p003mm
 62
256
370
-1
  6
ByLayer
 10
-5.9999999999999982
 20
6.1732050807568886
 30
0.0
 11
-5.9999999999999991
 21
6.9000000000000057
 31
0.0
  0
ARC
  5
65
100
AcDbEntity
  8
CuttingLines_0p003mm
 62
256
370
-1
  6
ByLayer
100
AcDbCircle
 10
-6.1000000000000014
 20
6.9000000000000057
 30
0.0
 40
0.1
100
AcDbArc
 50
0.0
 51
90.0
  0
LINE
  5
66
100
AcDbEntity
100
AcDbLine
  8
CuttingLines_0p003mm
 62
256
370
-1
  6
ByLayer
 10
-2.0
 20
6.9000000000000057
 30
0.0
 11
-1.9999999999999978
 21
6.1732050807568868
 31
0.0
  0
ARC
  5
67
100
AcDbEntity
  8
CuttingLines_0p003mm
 62
256
370
-1
  6
ByLayer
100
AcDbCircle
 10
-1.8999999999999984
 20
6.9000000000000057
 30
0.0
 40
0.1
100
AcDbArc
 50
90.0
 51
180.0
  0
LINE
  5
68
100
AcDbEntity
100
AcDbLine
  8
CuttingLines_0p003mm
 62
256
370
-1
  6
ByLayer
 10
-1.8999999999999986
 20
7.0
 30
0.0
 11
1.8999999999999992
 21
6.9999999999999991
 31
0.0
  0
LINE
  5
69
100
AcDbEntity
100
AcDbLine
  8
CuttingLines_0p003mm
 62
256
370
-1
  6
ByLayer
 10
2.0000000000000009
 20
6.9000000000000057
 30
0.0
 11
2.0
 21
6.1732050807568868
 31
0.0
  0
ARC
  5
6A
100
AcDbEntity
  8
CuttingLines_0p003mm
 62
256
370
-1
  6
ByLayer
100
AcDbCircle
 10
1.899999999999999
 20
6.9000000000000057
 30
0.0
 40
0.1
100
AcDbArc
 50
0.0
 51
90.0
  0
LINE
  5
6B
100
AcDbEntity
100
AcDbLine
  8
CuttingLines_0p003mm
 62
256
370
-1
  6
ByLayer
 10
6.0
 20
6.1732050807568877
 30
0.0
 11
6.0000000000000018
 21
6.9000000000000048
 31
0.0
  0
ARC
  5
6C
100
AcDbEntity
  8
CuttingLines_0p003mm
 62
256
370
-1
  6
ByLayer
100
AcDbCircle
 10
6.1000000000000023
 20
6.9000000000000048
 30
0.0
 40
0.1
100
AcDbArc
 50
90.0
 51
180.0
  0
LINE
  5
6D
100
AcDbEntity
100
AcDbLine
  8
CuttingLines_0p003mm
 62
256
370
-1
  6
ByLayer
 10
6.1000000000000023
 20
6.9999999999999982
 30
0.0
 11
9.8999999999999986
 21
7.0
 31
0.0
  0
LINE
  5
6E
100
AcDbEntity
100
AcDbLine
  8
CuttingLines_0p003mm
 62
256
370
-1
  6
ByLayer
 10
10.0
 20
6.9000000000000039
 30
0.0
 11
10.0
 21
6.1732050807568868
 31
0.0
  0
ARC
  5
6F
100
AcDbEntity
  8
CuttingLines_0p003mm
 62
256
370
-1
  6
ByLayer
100
AcDbCircle
 10
9.8999999999999986
 20
6.9000000000000066
 30
0.0
 40
0.1
100
AcDbArc
 50
0.0
 51
90.0
  0
ARC
  5
70
100
AcDbEntity
  8
CuttingLines_0p003mm
 62
256
370
-1
  6
ByLayer
100
AcDbCircle
 10
13.8999999999999986
 20
3.8999999999999981
 30
0.0
 40
0.1
100
AcDbArc
 50
360.0
 51
90.0
  0
ARC
  5
71
100
AcDbEntity
  8
CuttingLines_0p003mm
 62
256
370
-1
  6
ByLayer
100
AcDbCircle
 10
-10.0
 20
3.9999999999999969
 30
0.0
 40
0.2
100
AcDbArc
 50
180.0
 51
90.0
  0
ARC
  5
72
100
AcDbEntity
  8
CuttingLines_0p003mm
 62
256
370
-1
  6
ByLayer
100
AcDbCircle
 10
-6.0
 20
3.9999999999999991
 30
0.0
 40
0.2
100
AcDbArc
 50
90.0
 51
0.0
  0
ARC
  5
73
100
AcDbEntity
  8
CuttingLines_0p003mm
 62
256
370
-1
  6
ByLayer
100
AcDbCircle
 10
-2.0
 20
4.0
 30
0.0
 40
0.2
100
AcDbArc
 50
180.0
 51
90.0
  0
ARC
  5
74
100
AcDbEntity
  8
CuttingLines_0p003mm
 62
256
370
-1
  6
ByLayer
100
AcDbCircle
 10
1.9999999999999996
 20
4.0000000000000009
 30
0.0
 40
0.2
100
AcDbArc
 50
90.0
 51
0.0
  0
ARC
  5
75
100
AcDbEntity
  8
CuttingLines_0p003mm
 62
256
370
-1
  6
ByLayer
100
AcDbCircle
 10
6.0
 20
3.9999999999999991
 30
0.0
 40
0.2
100
AcDbArc
 50
180.0
 51
90.0
  0
ARC
  5
76
100
AcDbEntity
  8
CuttingLines_0p003mm
 62
256
370
-1
  6
ByLayer
100
AcDbCircle
 10
10.0000000000000071
 20
4.0
 30
0.0
 40
0.2
100
AcDbArc
 50
90.0000000000020322
 51
0.0
  0
LINE
  5
77
100
AcDbEntity
100
AcDbLine
  8
CuttingLines_0p003mm
 62
256
370
-1
  6
ByLayer
 10
-10.0000000000000018
 20
-3.9999999999999942
 30
0.0
 11
9.9999999999999982
 21
-4.0000000000000018
 31
0.0
  0
ARC
  5
78
100
AcDbEntity
  8
CuttingLines_0p003mm
 62
256
370
-1
  6
ByLayer
100
AcDbCircle
 10
-8.0
 20
0.000000000000001
 30
0.0
 40
2.4500000000000002
100
AcDbArc
 50
275.6434797345725656
 51
354.3565202654274344
  0
ARC
  5
79
100
AcDbEntity
  8
CuttingLines_0p003mm
 62
256
370
-1
  6
ByLayer
100
AcDbCircle
 10
-10.0
 20
0.0000000000000012
 30
0.0
 40
0.5
100
AcDbArc
 50
151.1932596676497269
 51
208.8067403323502731
  0
ARC
  5
7A
100
AcDbEntity
  8
CuttingLines_0p003mm
 62
256
370
-1
  6
ByLayer
100
AcDbCircle
 10
-8.0
 20
-1.9999999999999998
 30
0.0
 40
0.5
100
AcDbArc
 50
241.1932596676497269
 51
298.8067403323502731
  0
ARC
  5
7B
100
AcDbEntity
  8
CuttingLines_0p003mm
 62
256
370
-1
  6
ByLayer
100
AcDbCircle
 10
-8.0
 20
0.000000000000001
 30
0.0
 40
2.4500000000000002
100
AcDbArc
 50
185.6434797345725656
 51
264.3565202654274344
  0
ARC
  5
7C
100
AcDbEntity
  8
CuttingLines_0p003mm
 62
256
370
-1
  6
ByLayer
100
AcDbCircle
 10
-8.0
 20
2.0000000000000018
 30
0.0
 40
0.5
100
AcDbArc
 50
61.1932596676497198
 51
118.8067403323502731
  0
ARC
  5
7D
100
AcDbEntity
  8
CuttingLines_0p003mm
 62
256
370
-1
  6
ByLayer
100
AcDbCircle
 10
-8.0
 20
0.000000000000001
 30
0.0
 40
2.4500000000000002
100
AcDbArc
 50
95.6434797345725372
 51
174.3565202654274344
  0
ARC
  5
7E
100
AcDbEntity
  8
CuttingLines_0p003mm
 62
256
370
-1
  6
ByLayer
100
AcDbCircle
 10
-6.0
 20
0.0000000000000007
 30
0.0
 40
0.5
100
AcDbArc
 50
331.1932596676497269
 51
28.8067403323502802
  0
ARC
  5
7F
100
AcDbEntity
  8
CuttingLines_0p003mm
 62
256
370
-1
  6
ByLayer
100
AcDbCircle
 10
-8.0
 20
0.000000000000001
 30
0.0
 40
2.4500000000000002
100
AcDbArc
 50
5.6434797345725594
 51
84.3565202654274913
  0
ARC
  5
80
100
AcDbEntity
  8
CuttingLines_0p003mm
 62
256
370
-1
  6
ByLayer
100
AcDbCircle
 10
0.0
 20
0.0
 30
0.0
 40
2.4500000000000002
100
AcDbArc
 50
275.6434797345725656
 51
354.3565202654274344
  0
ARC
  5
81
100
AcDbEntity
  8
CuttingLines_0p003mm
 62
256
370
-1
  6
ByLayer
100
AcDbCircle
 10
-2.0
 20
0.0000000000000002
 30
0.0
 40
0.5
100
AcDbArc
 50
151.1932596676497269
 51
208.8067403323502731
  0
ARC
  5
82
100
AcDbEntity
  8
CuttingLines_0p003mm
 62
256
370
-1
  6
ByLayer
100
AcDbCircle
 10
-0.0000000000000004
 20
-2.0
 30
0.0
 40
0.5
100
AcDbArc
 50
241.1932596676497269
 51
298.8067403323502731
  0
ARC
  5
83
100
AcDbEntity
  8
CuttingLines_0p003mm
 62
256
370
-1
  6
ByLayer
100
AcDbCircle
 10
0.0
 20
0.0
 30
0.0
 40
2.4500000000000002
100
AcDbArc
 50
185.6434797345725656
 51
264.3565202654274344
  0
ARC
  5
84
100
AcDbEntity
  8
CuttingLines_0p003mm
 62
256
370
-1
  6
ByLayer
100
AcDbCircle
 10
0.0000000000000001
 20
2.0
 30
0.0
 40
0.5
100
AcDbArc
 50
61.1932596676497198
 51
118.8067403323502731
  0
ARC
  5
85
100
AcDbEntity
  8
CuttingLines_0p003mm
 62
256
370
-1
  6
ByLayer
100
AcDbCircle
 10
0.0
 20
0.0
 30
0.0
 40
2.4500000000000002
100
AcDbArc
 50
95.6434797345725372
 51
174.3565202654274344
  0
ARC
  5
86
100
AcDbEntity
  8
CuttingLines_0p003mm
 62
256
370
-1
  6
ByLayer
100
AcDbCircle
 10
2.0
 20
0.0
 30
0.0
 40
0.5
100
AcDbArc
 50
331.1932596676497269
 51
28.8067403323502802
  0
ARC
  5
87
100
AcDbEntity
  8
CuttingLines_0p003mm
 62
256
370
-1
  6
ByLayer
100
AcDbCircle
 10
0.0
 20
0.0
 30
0.0
 40
2.4500000000000002
100
AcDbArc
 50
5.6434797345725594
 51
84.3565202654274913
  0
ARC
  5
88
100
AcDbEntity
  8
CuttingLines_0p003mm
 62
256
370
-1
  6
ByLayer
100
AcDbCircle
 10
8.0
 20
0.0
 30
0.0
 40
2.4500000000000002
100
AcDbArc
 50
275.6434797345725656
 51
354.3565202654274344
  0
ARC
  5
89
100
AcDbEntity
  8
CuttingLines_0p003mm
 62
256
370
-1
  6
ByLayer
100
AcDbCircle
 10
6.0
 20
0.0
 30
0.0
 40
0.5
100
AcDbArc
 50
151.1932596676497269
 51
208.8067403323502731
  0
ARC
  5
8A
100
AcDbEntity
  8
CuttingLines_0p003mm
 62
256
370
-1
  6
ByLayer
100
AcDbCircle
 10
7.9999999999999991
 20
-2.0000000000000027
 30
0.0
 40
0.5
100
AcDbArc
 50
241.1932596676497269
 51
298.8067403323502731
  0
ARC
  5
8B
100
AcDbEntity
  8
CuttingLines_0p003mm
 62
256
370
-1
  6
ByLayer
100
AcDbCircle
 10
8.0
 20
0.0
 30
0.0
 40
2.4500000000000002
100
AcDbArc
 50
185.6434797345725656
 51
264.3565202654274344
  0
ARC
  5
8C
100
AcDbEntity
  8
CuttingLines_0p003mm
 62
256
370
-1
  6
ByLayer
100
AcDbCircle
 10
8.0
 20
2.0000000000000009
 30
0.0
 40
0.5
100
AcDbArc
 50
61.1932596676497198
 51
118.8067403323502731
  0
ARC
  5
8D
100
AcDbEntity
  8
CuttingLines_0p003mm
 62
256
370
-1
  6
ByLayer
100
AcDbCircle
 10
8.0
 20
0.0
 30
0.0
 40
2.4500000000000002
100
AcDbArc
 50
95.6434797345725372
 51
174.3565202654274344
  0
ARC
  5
8E
100
AcDbEntity
  8
CuttingLines_0p003mm
 62
256
370
-1
  6
ByLayer
100
AcDbCircle
 10
10.0
 20
0.0
 30
0.0
 40
0.5
100
AcDbArc
 50
331.1932596676497269
 51
28.8067403323502802
  0
ARC
  5
8F
100
AcDbEntity
  8
CuttingLines_0p003mm
 62
256
370
-1
  6
ByLayer
100
AcDbCircle
 10
8.0
 20
0.0
 30
0.0
 40
2.4500000000000002
100
AcDbArc
 50
5.6434797345725594
 51
84.3565202654274913
  0
LINE
  5
90
100
AcDbEntity
100
AcDbLine
  8
CuttingLines_0p003mm
 62
256
370
-1
  6
ByLayer
 10
-10.2000000000000028
 20
4.0000000000000053
 30
0.0
 11
-13.8999999999999968
 21
4.0000000000000018
 31
0.0
  0
LINE
  5
91
100
AcDbEntity
100
AcDbLine
  8
CuttingLines_0p003mm
 62
256
370
-1
  6
ByLayer
 10
-10.0
 20
4.8267949192431141
 30
0.0
 11
-10.0
 21
4.1999999999999904
 31
0.0
  0
LINE
  5
92
100
AcDbEntity
100
AcDbLine
  8
CuttingLines_0p003mm
 62
256
370
-1
  6
ByLayer
 10
-6.0
 20
4.2000000000000037
 30
0.0
 11
-6.0
 21
4.8267949192431141
 31
0.0
  0
LINE
  5
93
100
AcDbEntity
100
AcDbLine
  8
CuttingLines_0p003mm
 62
256
370
-1
  6
ByLayer
 10
-1.9999999999999989
 20
4.8267949192431141
 30
0.0
 11
-1.9999999999999998
 21
4.2000000000000028
 31
0.0
  0
LINE
  5
94
100
AcDbEntity
100
AcDbLine
  8
CuttingLines_0p003mm
 62
256
370
-1
  6
ByLayer
 10
-2.200000000000002
 20
3.9999999999999996
 30
0.0
 11
-5.7999999999999972
 21
3.9999999999999996
 31
0.0
  0
LINE
  5
95
100
AcDbEntity
100
AcDbLine
  8
CuttingLines_0p003mm
 62
256
370
-1
  6
ByLayer
 10
1.9999999999999996
 20
4.8267949192431141
 30
0.0
 11
2.0000000000000004
 21
4.2000000000000028
 31
0.0
  0
LINE
  5
96
100
AcDbEntity
100
AcDbLine
  8
CuttingLines_0p003mm
 62
256
370
-1
  6
ByLayer
 10
6.0
 20
4.2000000000000028
 30
0.0
 11
6.0
 21
4.8267949192431132
 31
0.0
  0
LINE
  5
97
100
AcDbEntity
100
AcDbLine
  8
CuttingLines_0p003mm
 62
256
370
-1
  6
ByLayer
 10
2.2000000000000028
 20
3.9999999999999996
 30
0.0
 11
5.8000000000000043
 21
4.0000000000000009
 31
0.0
  0
LINE
  5
98
100
AcDbEntity
100
AcDbLine
  8
CuttingLines_0p003mm
 62
256
370
-1
  6
ByLayer
 10
10.0
 20
4.8267949192431132
 30
0.0
 11
10.0
 21
4.1999999999999886
 31
0.0
  0
LINE
  5
99
100
AcDbEntity
100
AcDbLine
  8
CuttingLines_0p003mm
 62
256
370
-1
  6
ByLayer
 10
10.2000000000000099
 20
4.0
 30
0.0
 11
13.8999999999999986
 21
3.9999999999999987
 31
0.0
  0
ARC
  5
9A
100
AcDbEntity
  8
CuttingLines_0p003mm
 62
256
370
-1
  6
ByLayer
100
AcDbCircle
 10
10.0
 20
-0.0000000000000024
 30
0.0
 40
4.0
100
AcDbArc
 50
270.0
 51
360.0
  0
LINE
  5
9B
100
AcDbEntity
100
AcDbLine
  8
CuttingLines_0p003mm
 62
256
370
-1
  6
ByLayer
 10
14.0
 20
3.8999999999999857
 30
0.0
 11
14.0
 21
-0.0000000000000034
 31
0.0
  0
ARC
  5
9C
100
AcDbEntity
  8
CuttingLines_0p003mm
 62
256
370
-1
  6
ByLayer
100
AcDbCircle
 10
-10.0
 20
0.0000000000000012
 30
0.0
 40
4.0
100
AcDbArc
 50
180.0
 51
270.0
  0
LINE
  5
9D
100
AcDbEntity
100
AcDbLine
  8
CuttingLines_0p003mm
 62
256
370
-1
  6
ByLayer
 10
-14.0
 20
3.9000000000000039
 30
0.0
 11
-14.0
 21
0.0000000000000017
 31
0.0
  0
ENDSEC
  0
SECTION
  2
OBJECTS
  0
DICTIONARY
  5
C
100
AcDbDictionary
280
0
281
1
  3
ACAD_GROUP
350
D
  3
ACAD_LAYOUT
350
1A
  3
ACAD_MLINESTYLE
350
17
  3
ACAD_PLOTSETTINGS
350
19
  3
ACAD_PLOTSTYLENAME
350
E
  3
AcDbVariableDictionary
350
9E
  0
DICTIONARY
  5
D
100
AcDbDictionary
280
0
281
1
  0
ACDBDICTIONARYWDFLT
  5
E
100
AcDbDictionary
281
1
  3
Normal
350
F
100
AcDbDictionaryWithDefault
340
F
  0
ACDBPLACEHOLDER
  5
F
  0
DICTIONARY
  5
17
100
AcDbDictionary
280
0
281
1
  3
Standard
350
18
  0
MLINESTYLE
  5
18
100
AcDbMlineStyle
  2
STANDARD
 70
0
  3

 62
256
 51
90.0
 52
90.0
 71
2
 49
0.5
 62
256
  6
BYLAYER
 49
-0.5
 62
256
  6
BYLAYER
  0
DICTIONARY
  5
19
100
AcDbDictionary
280
0
281
1
  0
DICTIONARY
  5
1A
100
AcDbDictionary
281
1
  3
Layout1
350
1E
  3
Layout2
350
26
  3
Model
350
22
  0
LAYOUT
  5
1E
100
AcDbPlotSettings
  1

  2
C:\Program Files\AutoCAD 2002\plotters\DWF ePlot (optimized for plotting).pc3
  4

  6

 40
0.0
 41
0.0
 42
0.0
 43
0.0
 44
0.0
 45
0.0
 46
0.0
 47
0.0
 48
0.0
 49
0.0
140
0.0
141
0.0
142
1.0
143
1.0
 70
688
 72
0
 73
0
 74
5
  7

 75
16
147
1.0
148
0.0
149
0.0
100
AcDbLayout
  1
Layout1
 70
1
 71
1
 10
0.0
 20
0.0
 11
420.0
 21
297.0
 12
0.0
 22
0.0
 32
0.0
 14
100000000000000000000.0
 24
100000000000000000000.0
 34
100000000000000000000.0
 15
-100000000000000000000.0
 25
-100000000000000000000.0
 35
-100000000000000000000.0
146
0.0
 13
0.0
 23
0.0
 33
0.0
 16
1.0
 26
0.0
 36
0.0
 17
0.0
 27
1.0
 37
0.0
 76
0
330
1B
  0
LAYOUT
  5
22
100
AcDbPlotSettings
  1

  2
C:\Program Files\AutoCAD 2002\plotters\DWF ePlot (optimized for plotting).pc3
  4

  6

 40
0.0
 41
0.0
 42
0.0
 43
0.0
 44
0.0
 45
0.0
 46
0.0
 47
0.0
 48
0.0
 49
0.0
140
0.0
141
0.0
142
1.0
143
1.0
 70
1712
 72
0
 73
0
 74
0
  7

 75
0
147
1.0
148
0.0
149
0.0
100
AcDbLayout
  1
Model
 70
1
 71
0
 10
0.0
 20
0.0
 11
12.0
 21
9.0
 12
0.0
 22
0.0
 32
0.0
 14
0.0
 24
0.0
 34
0.0
 15
0.0
 25
0.0
 35
0.0
146
0.0
 13
0.0
 23
0.0
 33
0.0
 16
1.0
 26
0.0
 36
0.0
 17
0.0
 27
1.0
 37
0.0
 76
0
330
1F
  0
LAYOUT
  5
26
100
AcDbPlotSettings
  1

  2
C:\Program Files\AutoCAD 2002\plotters\DWF ePlot (optimized for plotting).pc3
  4

  6

 40
0.0
 41
0.0
 42
0.0
 43
0.0
 44
0.0
 45
0.0
 46
0.0
 47
0.0
 48
0.0
 49
0.0
140
0.0
141
0.0
142
1.0
143
1.0
 70
688
 72
0
 73
0
 74
5
  7

 75
16
147
1.0
148
0.0
149
0.0
100
AcDbLayout
  1
Layout2
 70
1
 71
2
 10
0.0
 20
0.0
 11
12.0
 21
9.0
 12
0.0
 22
0.0
 32
0.0
 14
0.0
 24
0.0
 34
0.0
 15
0.0
 25
0.0
 35
0.0
146
0.0
 13
0.0
 23
0.0
 33
0.0
 16
1.0
 26
0.0
 36
0.0
 17
0.0
 27
1.0
 37
0.0
 76
0
330
23
  0
DICTIONARY
  5
9E
100
AcDbDictionary
281
1
  3
DIMASSOC
350
A0
  3
HIDETEXT
350
9F
  0
DICTIONARYVAR
  5
9F
100
DictionaryVariables
280
0
  1
2
  0
DICTIONARYVAR
  5
A0
100
DictionaryVariables
280
0
  1
1
  0
ENDSEC
  0
EOF
