999
dxflib 2.2.0.0
  0
SECTION
  2
HEADER
  9
$ACADVER
  1
AC1015
  9
$HANDSEED
  5
FFFF
  9
$OBSCOLOR
 70
257
  9
$DIMLIM
 70
0
  9
$LENSLENGTH
 40
50.0
  9
$LONGITUDE
 40
-122.3940000000000055
  9
$DIMLUNIT
 70
2
  9
$DIMTIX
 70
0
  9
$LOFTANG1
 40
1.570796326794897
  9
$LOFTANG2
 40
1.570796326794897
  9
$AUNITS
 70
0
  9
$SHOWHIST
280
1
  9
$QTEXTMODE
 70
0
  9
$USERR1
 40
0.0
  9
$DIMALTU
 70
2
  9
$USERR2
 40
0.0
  9
$UCSORGBOTTOM
 10
0.0
 20
0.0
 30
0.0
  9
$USERR3
 40
0.0
  9
$USERR4
 40
0.0
  9
$USERR5
 40
0.0
  9
$LIMMAX
 10
12.0
 20
9.0
  9
$PELEVATION
 40
0.0
  9
$DIMALTZ
 70
0
  9
$DIMADEC
 70
0
  9
$JOINSTYLE
280
0
  9
$TILEMODE
 70
1
  9
$DIMATFIT
 70
3
  9
$PEXTMIN
 10
100000000000000000000.0
 20
100000000000000000000.0
 30
100000000000000000000.0
  9
$TDUSRTIMER
 40
0.0000000116
  9
$DWGCODEPAGE
  3
ANSI_1252
  9
$SORTENTS
280
127
  9
$UCSORTHOVIEW
 70
0
  9
$DIMSOXD
 70
0
  9
$DIMTZIN
 70
0
  9
$SPLINETYPE
 70
6
  9
$DIMLFAC
 40
1.0
  9
$DIMSE1
 70
0
  9
$FILLETRAD
 40
0.5
  9
$DIMSE2
 70
0
  9
$PSTYLEMODE
290
1
  9
$TEXTSTYLE
  7
Standard
  9
$DIMTSZ
 40
0.0
  9
$PUCSXDIR
 10
1.0
 20
0.0
 30
0.0
  9
$DIMTFILL
 70
0
  9
$XCLIPFRAME
290
0
  9
$DIMTXSTY
  7
Standard
  9
$PLIMMAX
 10
12.0
 20
9.0
  9
$LOFTNORMALS
280
1
  9
$DIMTFILLCLR
 70
0
  9
$DIMTM
 40
0.0
  9
$UCSORG
 10
0.0
 20
0.0
 30
0.0
  9
$DIMJOGANG
 40
0.7853981633974483
  9
$DIMTP
 40
0.0
  9
$PSLTSCALE
 70
1
  9
$EXTNAMES
290
1
  9
$ANGBASE
 50
0.0
  9
$PUCSYDIR
 10
0.0
 20
1.0
 30
0.0
  9
$LIGHTGLYPHDISPLAY
280
1
  9
$DIMASZ
 40
0.18
  9
$PUCSORTHOVIEW
 70
0
  9
$UNITMODE
 70
0
  9
$INDEXCTL
280
0
  9
$MEASUREMENT
 70
0
  9
$INSBASE
 10
0.0
 20
0.0
 30
0.0
  9
$REALWORLDSCALE
290
1
  9
$EXTMAX
 10
1.6307125984251969
 20
1.397996062992126
 30
0.0
  9
$ELEVATION
 40
0.0
  9
$STEPSPERSEC
 40
2.0
  9
$TDCREATE
 40
2455201.4724583099596202
  9
$DIMDEC
 70
4
  9
$LATITUDE
 40
37.7950000000000017
  9
$CELTYPE
  6
ByLayer
  9
$MENU
  1
.
  9
$ANGDIR
 70
0
  9
$DIMALTTD
 70
2
  9
$TREEDEPTH
 70
3020
  9
$PROXYGRAPHICS
 70
1
  9
$LTSCALE
 40
1.0
  9
$DIMTMOVE
 70
0
  9
$DIMAZIN
 70
0
  9
$TDUPDATE
 40
2455201.4724583220668137
  9
$DIMTOLJ
 70
1
  9
$DIMCEN
 40
0.09
  9
$DIMTVP
 40
0.0
  9
$TRACEWID
 40
0.05
  9
$CMLSTYLE
  2
Standard
  9
$DISPSILH
 70
0
  9
$DIMSTYLE
  2
Standard
  9
$STEPSIZE
 40
6.0
  9
$SKETCHINC
 40
0.1
  9
$FILLMODE
 70
1
  9
$PLINEGEN
 70
0
  9
$DIMLWD
 70
-2
  9
$THICKNESS
 40
0.0
  9
$PUCSORG
 10
0.0
 20
0.0
 30
0.0
  9
$DIMLWE
 70
-2
  9
$CELTSCALE
 40
1.0
  9
$DIMALTTZ
 70
0
  9
$INSUNITS
 70
1
  9
$UCSORGBACK
 10
0.0
 20
0.0
 30
0.0
  9
$PLINEWID
 40
0.0
  9
$PEXTMAX
 10
-100000000000000000000.0
 20
-100000000000000000000.0
 30
-100000000000000000000.0
  9
$DIMJUST
 70
0
  9
$CSHADOW
280
0
  9
$DIMASSOC
280
2
  9
$UCSYDIR
 10
0.0
 20
1.0
 30
0.0
  9
$PUCSORGBACK
 10
0.0
 20
0.0
 30
0.0
  9
$PUCSORGBOTTOM
 10
0.0
 20
0.0
 30
0.0
  9
$PDSIZE
 40
0.0
  9
$DIMUPT
 70
0
  9
$TILEMODELIGHTSYNCH
280
1
  9
$DIMTAD
 70
0
  9
$SHADOWPLANELOCATION
 40
0.0
  9
$MAXACTVP
 70
64
  9
$UCSXDIR
 10
1.0
 20
0.0
 30
0.0
  9
$DIMSAH
 70
0
  9
$HALOGAP
280
0
  9
$TDUCREATE
 40
2455201.6807916429825127
  9
$DIMFRAC
 70
0
  9
$USERI1
 70
0
  9
$USERI2
 70
0
  9
$CELWEIGHT
370
-1
  9
$USERI3
 70
0
  9
$UCSORGRIGHT
 10
0.0
 20
0.0
 30
0.0
  9
$LWDISPLAY
290
0
  9
$SKPOLY
 70
0
  9
$USERI4
 70
0
  9
$USERI5
 70
0
  9
$LOFTPARAM
 70
7
  9
$LIMMIN
 10
0.0
 20
0.0
  9
$ACADMAINTVER
 70
25
  9
$UCSORGTOP
 10
0.0
 20
0.0
 30
0.0
  9
$PSOLHEIGHT
 40
4.0
  9
$MIRRTEXT
 70
1
  9
$TDUUPDATE
 40
2455201.6807916550897062
  9
$TEXTSIZE
 40
0.2
  9
$DIMGAP
 40
0.09
  9
$LUPREC
 70
4
  9
$INTERFERECOLOR
 62
256
  9
$CECOLOR
 62
256
  9
$TIMEZONE
 70
-8000
  9
$DIMSD1
 70
0
  9
$3DDWFPREC
 40
2.0
  9
$DIMSD2
 70
0
  9
$WORLDVIEW
 70
1
  9
$PUCSORGRIGHT
 10
0.0
 20
0.0
 30
0.0
  9
$PLIMCHECK
 70
0
  9
$DIMTFAC
 40
1.0
  9
$CMLJUST
 70
0
  9
$DWFFRAME
280
2
  9
$USRTIMER
 70
1
  9
$SURFU
 70
6
  9
$SURFV
 70
6
  9
$DIMASO
 70
1
  9
$PSOLWIDTH
 40
0.25
  9
$DIMDLE
 40
0.0
  9
$EXTMIN
 10
-1.758114173228347
 20
-0.652248031496063
 30
0.0
  9
$UCSORGLEFT
 10
0.0
 20
0.0
 30
0.0
  9
$OLESTARTUP
290
0
  9
$PUCSORGFRONT
 10
0.0
 20
0.0
 30
0.0
  9
$DIMDLI
 40
0.38
  9
$LUNITS
 70
2
  9
$DIMCLRD
 70
0
  9
$SHADEDIF
 70
70
  9
$DIMCLRE
 70
0
  9
$SPLINESEGS
 70
8
  9
$PUCSORGLEFT
 10
0.0
 20
0.0
 30
0.0
  9
$INTERSECTIONDISPLAY
280
0
  9
$DIMALTRND
 40
0.0
  9
$DIMRND
 40
0.0
  9
$DIMALT
 70
0
  9
$FINGERPRINTGUID
  2
{34E1E94D-210E-4379-9681-15304786D03C}
  9
$DIMCLRT
 70
0
  9
$DIMFXLON
 70
0
  9
$PUCSORGTOP
 10
0.0
 20
0.0
 30
0.0
  9
$OBSLTYPE
280
0
  9
$DIMTOH
 70
1
  9
$UCSORGFRONT
 10
0.0
 20
0.0
 30
0.0
  9
$VISRETAIN
 70
1
  9
$SHADEDGE
 70
3
  9
$CAMERADISPLAY
290
0
  9
$DIMTOL
 70
0
  9
$SURFTYPE
 70
6
  9
$VERSIONGUID
  2
{FAEB1C32-E019-11D5-929B-00C0DF256EC4}
  9
$CHAMFERA
 40
0.5
  9
$SURFTAB1
 70
6
  9
$CHAMFERB
 40
0.5
  9
$SURFTAB2
 70
6
  9
$CHAMFERC
 40
1.0
  9
$AUPREC
 70
0
  9
$NORTHDIRECTION
 40
0.0
  9
$CHAMFERD
 40
0.0
  9
$DIMTDEC
 70
4
  9
$PDMODE
 70
0
  9
$PLIMMIN
 10
0.0
 20
0.0
  9
$SPLFRAME
 70
0
  9
$SOLIDHIST
280
1
  9
$XEDIT
290
1
  9
$CAMERAHEIGHT
 40
0.0
  9
$DIMDSEP
 70
46
  9
$DIMARCSYM
 70
0
  9
$LIMCHECK
 70
0
  9
$PINSBASE
 10
0.0
 20
0.0
 30
0.0
  9
$ORTHOMODE
 70
0
  9
$PSVPSCALE
 40
0.0
  9
$CLAYER
  8
Layer 1
  9
$DIMSHO
 70
1
  9
$DIMTOFL
 70
0
  9
$LOFTMAG1
 40
0.0
  9
$DIMTXT
 40
0.18
  9
$DIMEXE
 40
0.18
  9
$TDINDWG
 40
0.0000000116
  9
$LOFTMAG2
 40
0.0
  9
$REGENMODE
 70
1
  9
$ATTMODE
 70
1
  9
$CMLSCALE
 40
1.0
  9
$DIMTIH
 70
1
  9
$DIMZIN
 70
0
  9
$CEPSNTYPE
380
0
  9
$DIMFXL
 40
1.0
  9
$HIDETEXT
280
1
  9
$DIMSCALE
 40
1.0
  9
$INTERSECTIONCOLOR
 70
257
  9
$DIMALTD
 70
2
  9
$DIMAUNIT
 70
0
  9
$DIMEXO
 40
0.0625
  9
$DIMALTF
 40
25.3999999999999986
  9
$DGNFRAME
280
2
  9
$ENDCAPS
280
0
  9
$CLAYER
  8
Layer 1
  0
ENDSEC
  0
SECTION
  2
TABLES
  0
TABLE
  2
VPORT
  5
8
100
AcDbSymbolTable
 70
1
  0
VPORT
  5
30
100
AcDbSymbolTableRecord
100
AcDbViewportTableRecord
  2
*Active
 70
0
 10
0.0
 20
0.0
 11
1.0
 21
1.0
 12
286.3055555555554861
 22
148.5
 13
0.0
 23
0.0
 14
10.0
 24
10.0
 15
10.0
 25
10.0
 16
0.0
 26
0.0
 36
1.0
 17
0.0
 27
0.0
 37
0.0
 40
297.0
 41
1.92798353909465
 42
50.0
 43
0.0
 44
0.0
 50
0.0
 51
0.0
 71
0
 72
100
 73
1
 74
3
 75
1
 76
1
 77
0
 78
0
281
0
 65
1
110
0.0
120
0.0
130
0.0
111
1.0
121
0.0
131
0.0
112
0.0
122
1.0
132
0.0
 79
0
146
0.0
  0
ENDTAB
  0
TABLE
  2
LTYPE
  5
5
100
AcDbSymbolTable
 70
21
  0
LTYPE
  5
14
100
AcDbSymbolTableRecord
100
AcDbLinetypeTableRecord
  2
ByBlock
 70
0
  3

 72
65
 73
0
 40
0.0
  0
LTYPE
  5
15
100
AcDbSymbolTableRecord
100
AcDbLinetypeTableRecord
  2
ByLayer
 70
0
  3

 72
65
 73
0
 40
0.0
  0
LTYPE
  5
16
100
AcDbSymbolTableRecord
100
AcDbLinetypeTableRecord
  2
CONTINUOUS
 70
0
  3
Solid line
 72
65
 73
0
 40
0.0
  0
LTYPE
  5
31
100
AcDbSymbolTableRecord
100
AcDbLinetypeTableRecord
  2
DOT
 70
0
  3
Dot . . . . . . . . . . . . . . . . . . . . . .
 72
65
 73
2
 40
6.3499999999999996
 49
0.0
 74
0
 49
-6.3499999999999996
 74
0
  0
LTYPE
  5
32
100
AcDbSymbolTableRecord
100
AcDbLinetypeTableRecord
  2
DOT2
 70
0
  3
Dot (.5x) .....................................
 72
65
 73
2
 40
3.1749999999999998
 49
0.0
 74
0
 49
-3.1749999999999998
 74
0
  0
LTYPE
  5
33
100
AcDbSymbolTableRecord
100
AcDbLinetypeTableRecord
  2
DOTX2
 70
0
  3
Dot (2x) .  .  .  .  .  .  .  .  .  .  .  .  .
 72
65
 73
2
 40
12.6999999999999993
 49
0.0
 74
0
 49
-12.6999999999999993
 74
0
  0
LTYPE
  5
34
100
AcDbSymbolTableRecord
100
AcDbLinetypeTableRecord
  2
DASHED
 70
0
  3
Dashed __ __ __ __ __ __ __ __ __ __ __ __ __ _
 72
65
 73
2
 40
19.0500000000000007
 49
12.6999999999999993
 74
0
 49
-6.3499999999999996
 74
0
  0
LTYPE
  5
35
100
AcDbSymbolTableRecord
100
AcDbLinetypeTableRecord
  2
DASHED2
 70
0
  3
Dashed (.5x) _ _ _ _ _ _ _ _ _ _ _ _ _ _ _ _ _
 72
65
 73
2
 40
9.5250000000000004
 49
6.3499999999999996
 74
0
 49
-3.1749999999999998
 74
0
  0
LTYPE
  5
36
100
AcDbSymbolTableRecord
100
AcDbLinetypeTableRecord
  2
DASHEDX2
 70
0
  3
Dashed (2x) ____  ____  ____  ____  ____  ___
 72
65
 73
2
 40
38.1000000000000014
 49
25.3999999999999986
 74
0
 49
-12.6999999999999993
 74
0
  0
LTYPE
  5
37
100
AcDbSymbolTableRecord
100
AcDbLinetypeTableRecord
  2
DASHDOT
 70
0
  3
Dash dot __ . __ . __ . __ . __ . __ . __ . __
 72
65
 73
4
 40
25.3999999999999986
 49
12.6999999999999993
 74
0
 49
-6.3499999999999996
 74
0
 49
0.0
 74
0
 49
-6.3499999999999996
 74
0
  0
LTYPE
  5
38
100
AcDbSymbolTableRecord
100
AcDbLinetypeTableRecord
  2
DASHDOT2
 70
0
  3
Dash dot (.5x) _._._._._._._._._._._._._._._.
 72
65
 73
4
 40
12.6999999999999993
 49
6.3499999999999996
 74
0
 49
-3.1749999999999998
 74
0
 49
0.0
 74
0
 49
-3.1749999999999998
 74
0
  0
LTYPE
  5
39
100
AcDbSymbolTableRecord
100
AcDbLinetypeTableRecord
  2
DASHDOTX2
 70
0
  3
Dash dot (2x) ____  .  ____  .  ____  .  ___
 72
65
 73
4
 40
50.7999999999999972
 49
25.3999999999999986
 74
0
 49
-12.6999999999999993
 74
0
 49
0.0
 74
0
 49
-12.6999999999999993
 74
0
  0
LTYPE
  5
3A
100
AcDbSymbolTableRecord
100
AcDbLinetypeTableRecord
  2
DIVIDE
 70
0
  3
Divide ____ . . ____ . . ____ . . ____ . . ____
 72
65
 73
6
 40
31.75
 49
12.6999999999999993
 74
0
 49
-6.3499999999999996
 74
0
 49
0.0
 74
0
 49
-6.3499999999999996
 74
0
 49
0.0
 74
0
 49
-6.3499999999999996
 74
0
  0
LTYPE
  5
3B
100
AcDbSymbolTableRecord
100
AcDbLinetypeTableRecord
  2
DIVIDE2
 70
0
  3
Divide (.5x) __..__..__..__..__..__..__..__.._
 72
65
 73
6
 40
15.875
 49
6.3499999999999996
 74
0
 49
-3.1749999999999998
 74
0
 49
0.0
 74
0
 49
-3.1749999999999998
 74
0
 49
0.0
 74
0
 49
-3.1749999999999998
 74
0
  0
LTYPE
  5
3C
100
AcDbSymbolTableRecord
100
AcDbLinetypeTableRecord
  2
DIVIDEX2
 70
0
  3
Divide (2x) ________  .  .  ________  .  .  _
 72
65
 73
6
 40
63.5
 49
25.3999999999999986
 74
0
 49
-12.6999999999999993
 74
0
 49
0.0
 74
0
 49
-12.6999999999999993
 74
0
 49
0.0
 74
0
 49
-12.6999999999999993
 74
0
  0
LTYPE
  5
3D
100
AcDbSymbolTableRecord
100
AcDbLinetypeTableRecord
  2
CENTER
 70
0
  3
Center ____ _ ____ _ ____ _ ____ _ ____ _ ____
 72
65
 73
4
 40
50.7999999999999972
 49
31.75
 74
0
 49
-6.3499999999999996
 74
0
 49
6.3499999999999996
 74
0
 49
-6.3499999999999996
 74
0
  0
LTYPE
  5
3E
100
AcDbSymbolTableRecord
100
AcDbLinetypeTableRecord
  2
CENTER2
 70
0
  3
Center (.5x) ___ _ ___ _ ___ _ ___ _ ___ _ ___
 72
65
 73
4
 40
28.5749999999999993
 49
19.0500000000000007
 74
0
 49
-3.1749999999999998
 74
0
 49
3.1749999999999998
 74
0
 49
-3.1749999999999998
 74
0
  0
LTYPE
  5
3F
100
AcDbSymbolTableRecord
100
AcDbLinetypeTableRecord
  2
CENTERX2
 70
0
  3
Center (2x) ________  __  ________  __  _____
 72
65
 73
4
 40
101.5999999999999943
 49
63.5
 74
0
 49
-12.6999999999999993
 74
0
 49
12.6999999999999993
 74
0
 49
-12.6999999999999993
 74
0
  0
LTYPE
  5
40
100
AcDbSymbolTableRecord
100
AcDbLinetypeTableRecord
  2
BORDER
 70
0
  3
Border __ __ . __ __ . __ __ . __ __ . __ __ .
 72
65
 73
6
 40
44.4500000000000028
 49
12.6999999999999993
 74
0
 49
-6.3499999999999996
 74
0
 49
12.6999999999999993
 74
0
 49
-6.3499999999999996
 74
0
 49
0.0
 74
0
 49
-6.3499999999999996
 74
0
  0
LTYPE
  5
41
100
AcDbSymbolTableRecord
100
AcDbLinetypeTableRecord
  2
BORDER2
 70
0
  3
Border (.5x) __.__.__.__.__.__.__.__.__.__.__.
 72
65
 73
6
 40
22.2250000000000014
 49
6.3499999999999996
 74
0
 49
-3.1749999999999998
 74
0
 49
6.3499999999999996
 74
0
 49
-3.1749999999999998
 74
0
 49
0.0
 74
0
 49
-3.1749999999999998
 74
0
  0
LTYPE
  5
42
100
AcDbSymbolTableRecord
100
AcDbLinetypeTableRecord
  2
BORDERX2
 70
0
  3
Border (2x) ____  ____  .  ____  ____  .  ___
 72
65
 73
6
 40
88.9000000000000057
 49
25.3999999999999986
 74
0
 49
-12.6999999999999993
 74
0
 49
25.3999999999999986
 74
0
 49
-12.6999999999999993
 74
0
 49
0.0
 74
0
 49
-12.6999999999999993
 74
0
  0
ENDTAB
  0
TABLE
  2
LAYER
  5
2
100
AcDbSymbolTable
 70
2
  0
LAYER
  5
10
100
AcDbSymbolTableRecord
100
AcDbLayerTableRecord
  2
0
 70
0
 62
7
420
16777215
  6
CONTINUOUS
370
-3
390
F
  0
LAYER
  5
43
100
AcDbSymbolTableRecord
100
AcDbLayerTableRecord
  2
Layer 1
 70
0
 62
7
420
0
  6
CONTINUOUS
370
-3
390
F
  0
ENDTAB
  0
TABLE
  2
STYLE
  5
3
100
AcDbSymbolTable
 70
1
  0
STYLE
  5
11
100
AcDbSymbolTableRecord
100
AcDbTextStyleTableRecord
  2
Standard
 70
0
 40
0.0
 41
0.75
 50
0.0
 71
0
 42
2.5
  3
txt
  4

  0
ENDTAB
  0
TABLE
  2
VIEW
  5
6
100
AcDbSymbolTable
 70
0
  0
ENDTAB
  0
TABLE
  2
UCS
  5
7
100
AcDbSymbolTable
 70
0
  0
ENDTAB
  0
TABLE
  2
APPID
  5
9
100
AcDbSymbolTable
 70
1
  0
APPID
  5
12
100
AcDbSymbolTableRecord
100
AcDbRegAppTableRecord
  2
ACAD
 70
0
  0
ENDTAB
  0
TABLE
  2
DIMSTYLE
  5
A
100
AcDbSymbolTable
 70
1
100
AcDbDimStyleTable
 71
0
  0
DIMSTYLE
105
27
100
AcDbSymbolTableRecord
100
AcDbDimStyleTableRecord
  2
Standard
 41
0.18
 42
0.0625
 43
3.75
 44
0.18
 70
0
 73
0
 74
0
 77
1
 78
8
140
0.18
141
2.5
143
0.03937007874016
147
0.09
171
3
172
1
271
2
272
2
274
3
278
44
283
0
284
8
340
11
  0
ENDTAB
  0
TABLE
  2
BLOCK_RECORD
  5
1
100
AcDbSymbolTable
 70
1
  0
BLOCK_RECORD
  5
1F
100
AcDbSymbolTableRecord
100
AcDbBlockTableRecord
  2
*Model_Space
340
22
  0
BLOCK_RECORD
  5
1B
100
AcDbSymbolTableRecord
100
AcDbBlockTableRecord
  2
*Paper_Space
340
1E
  0
BLOCK_RECORD
  5
23
100
AcDbSymbolTableRecord
100
AcDbBlockTableRecord
  2
*Paper_Space0
340
26
  0
ENDTAB
  0
ENDSEC
  0
SECTION
  2
BLOCKS
  0
BLOCK
  5
20
100
AcDbEntity
  8
0
100
AcDbBlockBegin
  2
*Model_Space
 70
0
 10
0.0
 20
0.0
 30
0.0
  3
*Model_Space
  1

  0
ENDBLK
  5
21
100
AcDbEntity
  8
0
100
AcDbBlockEnd
  0
BLOCK
  5
1C
100
AcDbEntity
 67
1
  8
0
100
AcDbBlockBegin
  2
*Paper_Space
 70
0
 10
0.0
 20
0.0
 30
0.0
  3
*Paper_Space
  1

  0
ENDBLK
  5
1D
100
AcDbEntity
 67
1
  8
0
100
AcDbBlockEnd
  0
BLOCK
  5
24
100
AcDbEntity
  8
0
100
AcDbBlockBegin
  2
*Paper_Space0
 70
0
 10
0.0
 20
0.0
 30
0.0
  3
*Paper_Space0
  1

  0
ENDBLK
  5
25
100
AcDbEntity
  8
0
100
AcDbBlockEnd
  0
ENDSEC
  0
SECTION
  2
ENTITIES
  0
ELLIPSE
  5
44
100
AcDbEntity
100
AcDbEllipse
  8
Layer 1
 62
5
420
255
370
9
  6
ByLayer
 10
-1.3976377952755905
 20
0.8464566929133854
 30
0.0
 11
0.0
 21
0.0590551181102362
 31
0.0
 40
1.0
 41
0.0
 42
6.2831853071795862
  0
ELLIPSE
  5
45
100
AcDbEntity
100
AcDbEllipse
  8
Layer 1
 62
5
420
255
370
9
  6
ByLayer
 10
-1.5157480314960636
 20
-0.8464566929133858
 30
0.0
 11
0.0
 21
0.0590551181102362
 31
0.0
 40
1.0
 41
0.0
 42
6.2831853071795862
  0
ELLIPSE
  5
46
100
AcDbEntity
100
AcDbEllipse
  8
Layer 1
 62
5
420
255
370
9
  6
ByLayer
 10
1.3976377952755905
 20
0.8464566929133854
 30
0.0
 11
0.0
 21
0.0590551181102362
 31
0.0
 40
1.0
 41
0.0
 42
6.2831853071795862
  0
ELLIPSE
  5
47
100
AcDbEntity
100
AcDbEllipse
  8
Layer 1
 62
5
420
255
370
9
  6
ByLayer
 10
1.5157480314960625
 20
-0.8464566929133858
 30
0.0
 11
0.0
 21
0.0590551181102362
 31
0.0
 40
1.0
 41
0.0
 42
6.2831853071795862
  0
SPLINE
  5
48
  8
Layer 1
 62
5
420
255
370
9
  6
ByLayer
100
AcDbEntity
100
AcDbSpline
 70
11
 71
3
 72
20
 73
16
 74
0
 40
0.0
 40
0.0
 40
0.0
 40
0.0
 40
0.0769230769230769
 40
0.1538461538461539
 40
0.2307692307692308
 40
0.3076923076923077
 40
0.3846153846153846
 40
0.4615384615384616
 40
0.5384615384615385
 40
0.6153846153846154
 40
0.6923076923076923
 40
0.7692307692307693
 40
0.8461538461538463
 40
0.9230769230769231
 40
1.0
 40
1.0
 40
1.0
 40
1.0
 10
-0.098425196850394
 20
0.000015748031496
 30
0.0
 10
-0.098425196850394
 20
0.0326299212598425
 30
0.0
 10
-0.1248622047244098
 20
0.0590669291338583
 30
0.0
 10
-0.1574763779527562
 20
0.0590669291338583
 30
0.0
 10
-0.1574763779527562
 20
0.0590669291338583
 30
0.0
 10
-0.1900944881889767
 20
0.0590708661417323
 30
0.0
 10
-0.2165314960629924
 20
0.0326299212598425
 30
0.0
 10
-0.2165314960629924
 20
0.000015748031496
 30
0.0
 10
-0.2165314960629924
 20
0.000015748031496
 30
0.0
 10
-0.2165354330708665
 20
-0.0325984251968504
 30
0.0
 10
-0.1900944881889767
 20
-0.0590354330708661
 30
0.0
 10
-0.1574803149606302
 20
-0.0590354330708661
 30
0.0
 10
-0.1574803149606302
 20
-0.0590354330708661
 30
0.0
 10
-0.1248622047244098
 20
-0.0590393700787402
 30
0.0
 10
-0.098425196850394
 20
-0.0325984251968504
 30
0.0
 10
-0.098425196850394
 20
0.000015748031496
 30
0.0
  0
SPLINE
  5
49
  8
Layer 1
 62
5
420
255
370
9
  6
ByLayer
100
AcDbEntity
100
AcDbSpline
 70
8
 71
3
 72
8
 73
4
 74
0
 40
0.0
 40
0.0
 40
0.0
 40
0.0
 40
1.0
 40
1.0
 40
1.0
 40
1.0
 10
-0.0590511811023625
 20
0.5275708661417323
 30
0.0
 10
-0.0590511811023625
 20
0.5275708661417323
 30
0.0
 10
-0.0590511811023625
 20
0.2126102362204725
 30
0.0
 10
-0.0590511811023625
 20
0.2126102362204725
 30
0.0
  0
SPLINE
  5
4A
  8
Layer 1
 62
5
420
255
370
9
  6
ByLayer
100
AcDbEntity
100
AcDbSpline
 70
8
 71
3
 72
8
 73
4
 74
0
 40
0.0
 40
0.0
 40
0.0
 40
0.0
 40
1.0
 40
1.0
 40
1.0
 40
1.0
 10
-0.2559015748031499
 20
0.5275708661417323
 30
0.0
 10
-0.2559015748031499
 20
0.5275708661417323
 30
0.0
 10
-0.0590511811023625
 20
0.5275708661417323
 30
0.0
 10
-0.0590511811023625
 20
0.5275708661417323
 30
0.0
  0
SPLINE
  5
4B
  8
Layer 1
 62
5
420
255
370
9
  6
ByLayer
100
AcDbEntity
100
AcDbSpline
 70
8
 71
3
 72
8
 73
4
 74
0
 40
0.0
 40
0.0
 40
0.0
 40
0.0
 40
1.0
 40
1.0
 40
1.0
 40
1.0
 10
-0.2559015748031499
 20
0.2126102362204725
 30
0.0
 10
-0.2559015748031499
 20
0.2126102362204725
 30
0.0
 10
-0.2559015748031499
 20
0.5275708661417323
 30
0.0
 10
-0.2559015748031499
 20
0.5275708661417323
 30
0.0
  0
SPLINE
  5
4C
  8
Layer 1
 62
5
420
255
370
9
  6
ByLayer
100
AcDbEntity
100
AcDbSpline
 70
8
 71
3
 72
8
 73
4
 74
0
 40
0.0
 40
0.0
 40
0.0
 40
0.0
 40
1.0
 40
1.0
 40
1.0
 40
1.0
 10
-0.0590511811023625
 20
0.2126102362204725
 30
0.0
 10
-0.0590511811023625
 20
0.2126102362204725
 30
0.0
 10
-0.2559015748031499
 20
0.2126102362204725
 30
0.0
 10
-0.2559015748031499
 20
0.2126102362204725
 30
0.0
  0
SPLINE
  5
4D
  8
Layer 1
 62
5
420
255
370
9
  6
ByLayer
100
AcDbEntity
100
AcDbSpline
 70
11
 71
3
 72
8
 73
4
 74
0
 40
0.0
 40
0.0
 40
0.0
 40
0.0
 40
1.0
 40
1.0
 40
1.0
 40
1.0
 10
-0.0590551181102365
 20
-0.2125826771653543
 30
0.0
 10
-0.0590551181102365
 20
-0.2125826771653543
 30
0.0
 10
-0.0590551181102365
 20
-0.2125826771653543
 30
0.0
 10
-0.0590551181102365
 20
-0.2125826771653543
 30
0.0
  0
SPLINE
  5
4E
  8
Layer 1
 62
5
420
255
370
9
  6
ByLayer
100
AcDbEntity
100
AcDbSpline
 70
8
 71
3
 72
8
 73
4
 74
0
 40
0.0
 40
0.0
 40
0.0
 40
0.0
 40
1.0
 40
1.0
 40
1.0
 40
1.0
 10
-0.2559055118110239
 20
-0.2125826771653543
 30
0.0
 10
-0.2559055118110239
 20
-0.2125826771653543
 30
0.0
 10
-0.0590551181102365
 20
-0.2125826771653543
 30
0.0
 10
-0.0590551181102365
 20
-0.2125826771653543
 30
0.0
  0
SPLINE
  5
4F
  8
Layer 1
 62
5
420
255
370
9
  6
ByLayer
100
AcDbEntity
100
AcDbSpline
 70
11
 71
3
 72
8
 73
4
 74
0
 40
0.0
 40
0.0
 40
0.0
 40
0.0
 40
1.0
 40
1.0
 40
1.0
 40
1.0
 10
-0.0590551181102365
 20
-0.2125826771653543
 30
0.0
 10
-0.0590551181102365
 20
-0.2125826771653543
 30
0.0
 10
-0.0590551181102365
 20
-0.2125826771653543
 30
0.0
 10
-0.0590551181102365
 20
-0.2125826771653543
 30
0.0
  0
SPLINE
  5
50
  8
Layer 1
 62
5
420
255
370
9
  6
ByLayer
100
AcDbEntity
100
AcDbSpline
 70
8
 71
3
 72
8
 73
4
 74
0
 40
0.0
 40
0.0
 40
0.0
 40
0.0
 40
1.0
 40
1.0
 40
1.0
 40
1.0
 10
-0.0590551181102365
 20
-0.2125826771653543
 30
0.0
 10
-0.0590551181102365
 20
-0.2125826771653543
 30
0.0
 10
-0.0590551181102365
 20
-0.5275433070866142
 30
0.0
 10
-0.0590551181102365
 20
-0.5275433070866142
 30
0.0
  0
SPLINE
  5
51
  8
Layer 1
 62
5
420
255
370
9
  6
ByLayer
100
AcDbEntity
100
AcDbSpline
 70
11
 71
3
 72
8
 73
4
 74
0
 40
0.0
 40
0.0
 40
0.0
 40
0.0
 40
1.0
 40
1.0
 40
1.0
 40
1.0
 10
-0.0590551181102365
 20
-0.5275433070866142
 30
0.0
 10
-0.0590551181102365
 20
-0.5275433070866142
 30
0.0
 10
-0.0590551181102365
 20
-0.5275433070866142
 30
0.0
 10
-0.0590551181102365
 20
-0.5275433070866142
 30
0.0
  0
SPLINE
  5
52
  8
Layer 1
 62
5
420
255
370
9
  6
ByLayer
100
AcDbEntity
100
AcDbSpline
 70
8
 71
3
 72
8
 73
4
 74
0
 40
0.0
 40
0.0
 40
0.0
 40
0.0
 40
1.0
 40
1.0
 40
1.0
 40
1.0
 10
-0.0590551181102365
 20
-0.5275433070866142
 30
0.0
 10
-0.0590551181102365
 20
-0.5275433070866142
 30
0.0
 10
-0.2559055118110239
 20
-0.5275433070866142
 30
0.0
 10
-0.2559055118110239
 20
-0.5275433070866142
 30
0.0
  0
SPLINE
  5
53
  8
Layer 1
 62
5
420
255
370
9
  6
ByLayer
100
AcDbEntity
100
AcDbSpline
 70
11
 71
3
 72
8
 73
4
 74
0
 40
0.0
 40
0.0
 40
0.0
 40
0.0
 40
1.0
 40
1.0
 40
1.0
 40
1.0
 10
-0.2559055118110239
 20
-0.2125826771653543
 30
0.0
 10
-0.2559055118110239
 20
-0.2125826771653543
 30
0.0
 10
-0.2559055118110239
 20
-0.2125826771653543
 30
0.0
 10
-0.2559055118110239
 20
-0.2125826771653543
 30
0.0
  0
SPLINE
  5
54
  8
Layer 1
 62
5
420
255
370
9
  6
ByLayer
100
AcDbEntity
100
AcDbSpline
 70
8
 71
3
 72
8
 73
4
 74
0
 40
0.0
 40
0.0
 40
0.0
 40
0.0
 40
1.0
 40
1.0
 40
1.0
 40
1.0
 10
-0.2559055118110239
 20
-0.5275433070866142
 30
0.0
 10
-0.2559055118110239
 20
-0.5275433070866142
 30
0.0
 10
-0.2559055118110239
 20
-0.2125826771653543
 30
0.0
 10
-0.2559055118110239
 20
-0.2125826771653543
 30
0.0
  0
SPLINE
  5
55
  8
Layer 1
 62
5
420
255
370
9
  6
ByLayer
100
AcDbEntity
100
AcDbSpline
 70
8
 71
3
 72
20
 73
16
 74
0
 40
0.0
 40
0.0
 40
0.0
 40
0.0
 40
0.0769230769230769
 40
0.1538461538461539
 40
0.2307692307692308
 40
0.3076923076923077
 40
0.3846153846153846
 40
0.4615384615384616
 40
0.5384615384615385
 40
0.6153846153846154
 40
0.6923076923076923
 40
0.7692307692307693
 40
0.8461538461538463
 40
0.9230769230769231
 40
1.0
 40
1.0
 40
1.0
 40
1.0
 10
0.4133858267716532
 20
-0.7913228346456693
 30
0.0
 10
0.4133858267716532
 20
-0.7587047244094487
 30
0.0
 10
0.3869448818897635
 20
-0.7322677165354331
 30
0.0
 10
0.354330708661417
 20
-0.7322677165354331
 30
0.0
 10
0.354330708661417
 20
-0.7322677165354331
 30
0.0
 10
0.3217125984251964
 20
-0.7322637795275591
 30
0.0
 10
0.2952755905511808
 20
-0.7587047244094487
 30
0.0
 10
0.2952755905511808
 20
-0.7913188976377953
 30
0.0
 10
0.2952755905511808
 20
-0.7913188976377953
 30
0.0
 10
0.2952716535433068
 20
-0.8239370078740158
 30
0.0
 10
0.3217125984251964
 20
-0.8503740157480315
 30
0.0
 10
0.354326771653543
 20
-0.8503740157480315
 30
0.0
 10
0.354326771653543
 20
-0.8503740157480315
 30
0.0
 10
0.3869448818897635
 20
-0.8503779527559054
 30
0.0
 10
0.4133818897637792
 20
-0.8239370078740158
 30
0.0
 10
0.4133818897637792
 20
-0.7913228346456693
 30
0.0
  0
SPLINE
  5
56
  8
Layer 1
 62
5
420
255
370
9
  6
ByLayer
100
AcDbEntity
100
AcDbSpline
 70
8
 71
3
 72
8
 73
4
 74
0
 40
0.0
 40
0.0
 40
0.0
 40
0.0
 40
1.0
 40
1.0
 40
1.0
 40
1.0
 10
0.9055078740157477
 20
-0.6928976377952756
 30
0.0
 10
0.9055078740157477
 20
-0.6928976377952756
 30
0.0
 10
0.9055118110236218
 20
-0.889748031496063
 30
0.0
 10
0.9055118110236218
 20
-0.889748031496063
 30
0.0
  0
SPLINE
  5
57
  8
Layer 1
 62
5
420
255
370
9
  6
ByLayer
100
AcDbEntity
100
AcDbSpline
 70
8
 71
3
 72
8
 73
4
 74
0
 40
0.0
 40
0.0
 40
0.0
 40
0.0
 40
1.0
 40
1.0
 40
1.0
 40
1.0
 10
0.5905472440944879
 20
-0.6928976377952756
 30
0.0
 10
0.5905472440944879
 20
-0.6928976377952756
 30
0.0
 10
0.9055078740157477
 20
-0.6928976377952756
 30
0.0
 10
0.9055078740157477
 20
-0.6928976377952756
 30
0.0
  0
SPLINE
  5
58
  8
Layer 1
 62
5
420
255
370
9
  6
ByLayer
100
AcDbEntity
100
AcDbSpline
 70
8
 71
3
 72
8
 73
4
 74
0
 40
0.0
 40
0.0
 40
0.0
 40
0.0
 40
1.0
 40
1.0
 40
1.0
 40
1.0
 10
0.5905511811023619
 20
-0.889748031496063
 30
0.0
 10
0.5905511811023619
 20
-0.889748031496063
 30
0.0
 10
0.5905472440944879
 20
-0.6928976377952756
 30
0.0
 10
0.5905472440944879
 20
-0.6928976377952756
 30
0.0
  0
SPLINE
  5
59
  8
Layer 1
 62
5
420
255
370
9
  6
ByLayer
100
AcDbEntity
100
AcDbSpline
 70
8
 71
3
 72
8
 73
4
 74
0
 40
0.0
 40
0.0
 40
0.0
 40
0.0
 40
1.0
 40
1.0
 40
1.0
 40
1.0
 10
0.9055118110236218
 20
-0.889748031496063
 30
0.0
 10
0.9055118110236218
 20
-0.889748031496063
 30
0.0
 10
0.5905511811023619
 20
-0.889748031496063
 30
0.0
 10
0.5905511811023619
 20
-0.889748031496063
 30
0.0
  0
SPLINE
  5
5A
  8
Layer 1
 62
5
420
255
370
9
  6
ByLayer
100
AcDbEntity
100
AcDbSpline
 70
11
 71
3
 72
8
 73
4
 74
0
 40
0.0
 40
0.0
 40
0.0
 40
0.0
 40
1.0
 40
1.0
 40
1.0
 40
1.0
 10
-0.5905472440944886
 20
-0.6928937007874016
 30
0.0
 10
-0.5905472440944886
 20
-0.6928937007874016
 30
0.0
 10
-0.5905472440944886
 20
-0.6928937007874016
 30
0.0
 10
-0.5905472440944886
 20
-0.6928937007874016
 30
0.0
  0
SPLINE
  5
5B
  8
Layer 1
 62
5
420
255
370
9
  6
ByLayer
100
AcDbEntity
100
AcDbSpline
 70
8
 71
3
 72
8
 73
4
 74
0
 40
0.0
 40
0.0
 40
0.0
 40
0.0
 40
1.0
 40
1.0
 40
1.0
 40
1.0
 10
-0.5905472440944886
 20
-0.6928937007874016
 30
0.0
 10
-0.5905472440944886
 20
-0.6928937007874016
 30
0.0
 10
-0.5905511811023625
 20
-0.889748031496063
 30
0.0
 10
-0.5905511811023625
 20
-0.889748031496063
 30
0.0
  0
SPLINE
  5
5C
  8
Layer 1
 62
5
420
255
370
9
  6
ByLayer
100
AcDbEntity
100
AcDbSpline
 70
11
 71
3
 72
8
 73
4
 74
0
 40
0.0
 40
0.0
 40
0.0
 40
0.0
 40
1.0
 40
1.0
 40
1.0
 40
1.0
 10
-0.5905472440944886
 20
-0.6928937007874016
 30
0.0
 10
-0.5905472440944886
 20
-0.6928937007874016
 30
0.0
 10
-0.5905472440944886
 20
-0.6928937007874016
 30
0.0
 10
-0.5905472440944886
 20
-0.6928937007874016
 30
0.0
  0
SPLINE
  5
5D
  8
Layer 1
 62
5
420
255
370
9
  6
ByLayer
100
AcDbEntity
100
AcDbSpline
 70
8
 71
3
 72
8
 73
4
 74
0
 40
0.0
 40
0.0
 40
0.0
 40
0.0
 40
1.0
 40
1.0
 40
1.0
 40
1.0
 10
-0.9055118110236223
 20
-0.6928937007874016
 30
0.0
 10
-0.9055118110236223
 20
-0.6928937007874016
 30
0.0
 10
-0.5905472440944886
 20
-0.6928937007874016
 30
0.0
 10
-0.5905472440944886
 20
-0.6928937007874016
 30
0.0
  0
SPLINE
  5
5E
  8
Layer 1
 62
5
420
255
370
9
  6
ByLayer
100
AcDbEntity
100
AcDbSpline
 70
11
 71
3
 72
8
 73
4
 74
0
 40
0.0
 40
0.0
 40
0.0
 40
0.0
 40
1.0
 40
1.0
 40
1.0
 40
1.0
 10
-0.9055118110236223
 20
-0.6928937007874016
 30
0.0
 10
-0.9055118110236223
 20
-0.6928937007874016
 30
0.0
 10
-0.9055118110236223
 20
-0.6928937007874016
 30
0.0
 10
-0.9055118110236223
 20
-0.6928937007874016
 30
0.0
  0
SPLINE
  5
5F
  8
Layer 1
 62
5
420
255
370
9
  6
ByLayer
100
AcDbEntity
100
AcDbSpline
 70
8
 71
3
 72
8
 73
4
 74
0
 40
0.0
 40
0.0
 40
0.0
 40
0.0
 40
1.0
 40
1.0
 40
1.0
 40
1.0
 10
-0.9055118110236223
 20
-0.889748031496063
 30
0.0
 10
-0.9055118110236223
 20
-0.889748031496063
 30
0.0
 10
-0.9055118110236223
 20
-0.6928937007874016
 30
0.0
 10
-0.9055118110236223
 20
-0.6928937007874016
 30
0.0
  0
SPLINE
  5
60
  8
Layer 1
 62
5
420
255
370
9
  6
ByLayer
100
AcDbEntity
100
AcDbSpline
 70
11
 71
3
 72
8
 73
4
 74
0
 40
0.0
 40
0.0
 40
0.0
 40
0.0
 40
1.0
 40
1.0
 40
1.0
 40
1.0
 10
-0.5905511811023625
 20
-0.889748031496063
 30
0.0
 10
-0.5905511811023625
 20
-0.889748031496063
 30
0.0
 10
-0.5905511811023625
 20
-0.889748031496063
 30
0.0
 10
-0.5905511811023625
 20
-0.889748031496063
 30
0.0
  0
SPLINE
  5
61
  8
Layer 1
 62
5
420
255
370
9
  6
ByLayer
100
AcDbEntity
100
AcDbSpline
 70
8
 71
3
 72
8
 73
4
 74
0
 40
0.0
 40
0.0
 40
0.0
 40
0.0
 40
1.0
 40
1.0
 40
1.0
 40
1.0
 10
-0.5905511811023625
 20
-0.889748031496063
 30
0.0
 10
-0.5905511811023625
 20
-0.889748031496063
 30
0.0
 10
-0.9055118110236223
 20
-0.889748031496063
 30
0.0
 10
-0.9055118110236223
 20
-0.889748031496063
 30
0.0
  0
SPLINE
  5
62
  8
Layer 1
 62
5
420
255
370
9
  6
ByLayer
100
AcDbEntity
100
AcDbSpline
 70
8
 71
3
 72
20
 73
16
 74
0
 40
0.0
 40
0.0
 40
0.0
 40
0.0
 40
0.0769230769230769
 40
0.1538461538461539
 40
0.2307692307692308
 40
0.3076923076923077
 40
0.3846153846153846
 40
0.4615384615384616
 40
0.5384615384615385
 40
0.6153846153846154
 40
0.6923076923076923
 40
0.7692307692307693
 40
0.8461538461538463
 40
0.9230769230769231
 40
1.0
 40
1.0
 40
1.0
 40
1.0
 10
0.4133858267716532
 20
0.7913503937007875
 30
0.0
 10
0.4133858267716532
 20
0.8239685039370075
 30
0.0
 10
0.3869448818897635
 20
0.8504055118110234
 30
0.0
 10
0.354330708661417
 20
0.8504055118110234
 30
0.0
 10
0.354330708661417
 20
0.8504055118110234
 30
0.0
 10
0.3217125984251964
 20
0.8504094488188976
 30
0.0
 10
0.2952755905511808
 20
0.8239685039370075
 30
0.0
 10
0.2952755905511808
 20
0.7913543307086615
 30
0.0
 10
0.2952755905511808
 20
0.7913543307086615
 30
0.0
 10
0.2952716535433068
 20
0.7587362204724415
 30
0.0
 10
0.3217125984251964
 20
0.7322992125984256
 30
0.0
 10
0.354326771653543
 20
0.7322992125984256
 30
0.0
 10
0.354326771653543
 20
0.7322992125984256
 30
0.0
 10
0.3869448818897635
 20
0.7322952755905516
 30
0.0
 10
0.4133818897637792
 20
0.7587362204724415
 30
0.0
 10
0.4133818897637792
 20
0.7913503937007875
 30
0.0
  0
SPLINE
  5
63
  8
Layer 1
 62
5
420
255
370
9
  6
ByLayer
100
AcDbEntity
100
AcDbSpline
 70
11
 71
3
 72
8
 73
4
 74
0
 40
0.0
 40
0.0
 40
0.0
 40
0.0
 40
1.0
 40
1.0
 40
1.0
 40
1.0
 10
0.9055118110236218
 20
0.8897755905511815
 30
0.0
 10
0.9055118110236218
 20
0.8897755905511815
 30
0.0
 10
0.9055118110236218
 20
0.8897755905511815
 30
0.0
 10
0.9055118110236218
 20
0.8897755905511815
 30
0.0
  0
SPLINE
  5
64
  8
Layer 1
 62
5
420
255
370
9
  6
ByLayer
100
AcDbEntity
100
AcDbSpline
 70
8
 71
3
 72
8
 73
4
 74
0
 40
0.0
 40
0.0
 40
0.0
 40
0.0
 40
1.0
 40
1.0
 40
1.0
 40
1.0
 10
0.9055118110236218
 20
0.8897755905511815
 30
0.0
 10
0.9055118110236218
 20
0.8897755905511815
 30
0.0
 10
0.9055118110236218
 20
0.6929251968503936
 30
0.0
 10
0.9055118110236218
 20
0.6929251968503936
 30
0.0
  0
SPLINE
  5
65
  8
Layer 1
 62
5
420
255
370
9
  6
ByLayer
100
AcDbEntity
100
AcDbSpline
 70
11
 71
3
 72
8
 73
4
 74
0
 40
0.0
 40
0.0
 40
0.0
 40
0.0
 40
1.0
 40
1.0
 40
1.0
 40
1.0
 10
0.9055118110236218
 20
0.8897755905511815
 30
0.0
 10
0.9055118110236218
 20
0.8897755905511815
 30
0.0
 10
0.9055118110236218
 20
0.8897755905511815
 30
0.0
 10
0.9055118110236218
 20
0.8897755905511815
 30
0.0
  0
SPLINE
  5
66
  8
Layer 1
 62
5
420
255
370
9
  6
ByLayer
100
AcDbEntity
100
AcDbSpline
 70
8
 71
3
 72
8
 73
4
 74
0
 40
0.0
 40
0.0
 40
0.0
 40
0.0
 40
1.0
 40
1.0
 40
1.0
 40
1.0
 10
0.5905511811023619
 20
0.8897755905511815
 30
0.0
 10
0.5905511811023619
 20
0.8897755905511815
 30
0.0
 10
0.9055118110236218
 20
0.8897755905511815
 30
0.0
 10
0.9055118110236218
 20
0.8897755905511815
 30
0.0
  0
SPLINE
  5
67
  8
Layer 1
 62
5
420
255
370
9
  6
ByLayer
100
AcDbEntity
100
AcDbSpline
 70
11
 71
3
 72
8
 73
4
 74
0
 40
0.0
 40
0.0
 40
0.0
 40
0.0
 40
1.0
 40
1.0
 40
1.0
 40
1.0
 10
0.9055118110236218
 20
0.6929251968503936
 30
0.0
 10
0.9055118110236218
 20
0.6929251968503936
 30
0.0
 10
0.9055118110236218
 20
0.6929251968503936
 30
0.0
 10
0.9055118110236218
 20
0.6929251968503936
 30
0.0
  0
SPLINE
  5
68
  8
Layer 1
 62
5
420
255
370
9
  6
ByLayer
100
AcDbEntity
100
AcDbSpline
 70
8
 71
3
 72
8
 73
4
 74
0
 40
0.0
 40
0.0
 40
0.0
 40
0.0
 40
1.0
 40
1.0
 40
1.0
 40
1.0
 10
0.9055118110236218
 20
0.6929251968503936
 30
0.0
 10
0.9055118110236218
 20
0.6929251968503936
 30
0.0
 10
0.5905511811023619
 20
0.6929251968503936
 30
0.0
 10
0.5905511811023619
 20
0.6929251968503936
 30
0.0
  0
SPLINE
  5
69
  8
Layer 1
 62
5
420
255
370
9
  6
ByLayer
100
AcDbEntity
100
AcDbSpline
 70
11
 71
3
 72
8
 73
4
 74
0
 40
0.0
 40
0.0
 40
0.0
 40
0.0
 40
1.0
 40
1.0
 40
1.0
 40
1.0
 10
0.5905511811023619
 20
0.8897755905511815
 30
0.0
 10
0.5905511811023619
 20
0.8897755905511815
 30
0.0
 10
0.5905511811023619
 20
0.8897755905511815
 30
0.0
 10
0.5905511811023619
 20
0.8897755905511815
 30
0.0
  0
SPLINE
  5
6A
  8
Layer 1
 62
5
420
255
370
9
  6
ByLayer
100
AcDbEntity
100
AcDbSpline
 70
8
 71
3
 72
8
 73
4
 74
0
 40
0.0
 40
0.0
 40
0.0
 40
0.0
 40
1.0
 40
1.0
 40
1.0
 40
1.0
 10
0.5905511811023619
 20
0.6929251968503936
 30
0.0
 10
0.5905511811023619
 20
0.6929251968503936
 30
0.0
 10
0.5905511811023619
 20
0.8897755905511815
 30
0.0
 10
0.5905511811023619
 20
0.8897755905511815
 30
0.0
  0
SPLINE
  5
6B
  8
Layer 1
 62
5
420
255
370
9
  6
ByLayer
100
AcDbEntity
100
AcDbSpline
 70
8
 71
3
 72
8
 73
4
 74
0
 40
0.0
 40
0.0
 40
0.0
 40
0.0
 40
1.0
 40
1.0
 40
1.0
 40
1.0
 10
-0.5905472440944886
 20
0.8897795275590554
 30
0.0
 10
-0.5905472440944886
 20
0.8897795275590554
 30
0.0
 10
-0.5905472440944886
 20
0.6929291338582675
 30
0.0
 10
-0.5905472440944886
 20
0.6929291338582675
 30
0.0
  0
SPLINE
  5
6C
  8
Layer 1
 62
5
420
255
370
9
  6
ByLayer
100
AcDbEntity
100
AcDbSpline
 70
8
 71
3
 72
8
 73
4
 74
0
 40
0.0
 40
0.0
 40
0.0
 40
0.0
 40
1.0
 40
1.0
 40
1.0
 40
1.0
 10
-0.9055078740157484
 20
0.8897795275590554
 30
0.0
 10
-0.9055078740157484
 20
0.8897795275590554
 30
0.0
 10
-0.5905472440944886
 20
0.8897795275590554
 30
0.0
 10
-0.5905472440944886
 20
0.8897795275590554
 30
0.0
  0
SPLINE
  5
6D
  8
Layer 1
 62
5
420
255
370
9
  6
ByLayer
100
AcDbEntity
100
AcDbSpline
 70
8
 71
3
 72
8
 73
4
 74
0
 40
0.0
 40
0.0
 40
0.0
 40
0.0
 40
1.0
 40
1.0
 40
1.0
 40
1.0
 10
-0.5905472440944886
 20
0.6929291338582675
 30
0.0
 10
-0.5905472440944886
 20
0.6929291338582675
 30
0.0
 10
-0.9055078740157484
 20
0.6929291338582675
 30
0.0
 10
-0.9055078740157484
 20
0.6929291338582675
 30
0.0
  0
SPLINE
  5
6E
  8
Layer 1
 62
5
420
255
370
9
  6
ByLayer
100
AcDbEntity
100
AcDbSpline
 70
8
 71
3
 72
8
 73
4
 74
0
 40
0.0
 40
0.0
 40
0.0
 40
0.0
 40
1.0
 40
1.0
 40
1.0
 40
1.0
 10
-0.9055078740157484
 20
0.6929291338582675
 30
0.0
 10
-0.9055078740157484
 20
0.6929291338582675
 30
0.0
 10
-0.9055078740157484
 20
0.8897795275590554
 30
0.0
 10
-0.9055078740157484
 20
0.8897795275590554
 30
0.0
  0
LINE
  5
6F
100
AcDbEntity
100
AcDbLine
  8
Layer 1
 62
5
420
255
370
-1
  6
ByLayer
 10
-1.6929133858267715
 20
-1.0236220472440944
 30
0.0
 11
-1.6929133858267715
 21
1.0236220472440944
 31
0.0
  0
LINE
  5
70
100
AcDbEntity
100
AcDbLine
  8
Layer 1
 62
5
420
255
370
-1
  6
ByLayer
 10
-1.6929133858267715
 20
1.0236220472440944
 30
0.0
 11
1.6929133858267715
 21
1.0236220472440944
 31
0.0
  0
LINE
  5
71
100
AcDbEntity
100
AcDbLine
  8
Layer 1
 62
5
420
255
370
-1
  6
ByLayer
 10
1.6929133858267715
 20
1.0236220472440944
 30
0.0
 11
1.6929133858267715
 21
-1.0236220472440944
 31
0.0
  0
LINE
  5
72
100
AcDbEntity
100
AcDbLine
  8
Layer 1
 62
5
420
255
370
-1
  6
ByLayer
 10
1.6929133858267715
 20
-1.0236220472440944
 30
0.0
 11
-1.6929133858267715
 21
-1.0236220472440944
 31
0.0
  0
ENDSEC
  0
SECTION
  2
OBJECTS
  0
DICTIONARY
  5
C
100
AcDbDictionary
280
0
281
1
  3
ACAD_GROUP
350
D
  3
ACAD_LAYOUT
350
1A
  3
ACAD_MLINESTYLE
350
17
  3
ACAD_PLOTSETTINGS
350
19
  3
ACAD_PLOTSTYLENAME
350
E
  3
AcDbVariableDictionary
350
73
  0
DICTIONARY
  5
D
100
AcDbDictionary
280
0
281
1
  0
ACDBDICTIONARYWDFLT
  5
E
100
AcDbDictionary
281
1
  3
Normal
350
F
100
AcDbDictionaryWithDefault
340
F
  0
ACDBPLACEHOLDER
  5
F
  0
DICTIONARY
  5
17
100
AcDbDictionary
280
0
281
1
  3
Standard
350
18
  0
MLINESTYLE
  5
18
100
AcDbMlineStyle
  2
STANDARD
 70
0
  3

 62
256
 51
90.0
 52
90.0
 71
2
 49
0.5
 62
256
  6
BYLAYER
 49
-0.5
 62
256
  6
BYLAYER
  0
DICTIONARY
  5
19
100
AcDbDictionary
280
0
281
1
  0
DICTIONARY
  5
1A
100
AcDbDictionary
281
1
  3
Layout1
350
1E
  3
Layout2
350
26
  3
Model
350
22
  0
LAYOUT
  5
1E
100
AcDbPlotSettings
  1

  2
C:\Program Files\AutoCAD 2002\plotters\DWF ePlot (optimized for plotting).pc3
  4

  6

 40
0.0
 41
0.0
 42
0.0
 43
0.0
 44
0.0
 45
0.0
 46
0.0
 47
0.0
 48
0.0
 49
0.0
140
0.0
141
0.0
142
1.0
143
1.0
 70
688
 72
0
 73
0
 74
5
  7

 75
16
147
1.0
148
0.0
149
0.0
100
AcDbLayout
  1
Layout1
 70
1
 71
1
 10
0.0
 20
0.0
 11
420.0
 21
297.0
 12
0.0
 22
0.0
 32
0.0
 14
100000000000000000000.0
 24
100000000000000000000.0
 34
100000000000000000000.0
 15
-100000000000000000000.0
 25
-100000000000000000000.0
 35
-100000000000000000000.0
146
0.0
 13
0.0
 23
0.0
 33
0.0
 16
1.0
 26
0.0
 36
0.0
 17
0.0
 27
1.0
 37
0.0
 76
0
330
1B
  0
LAYOUT
  5
22
100
AcDbPlotSettings
  1

  2
C:\Program Files\AutoCAD 2002\plotters\DWF ePlot (optimized for plotting).pc3
  4

  6

 40
0.0
 41
0.0
 42
0.0
 43
0.0
 44
0.0
 45
0.0
 46
0.0
 47
0.0
 48
0.0
 49
0.0
140
0.0
141
0.0
142
1.0
143
1.0
 70
1712
 72
0
 73
0
 74
0
  7

 75
0
147
1.0
148
0.0
149
0.0
100
AcDbLayout
  1
Model
 70
1
 71
0
 10
0.0
 20
0.0
 11
12.0
 21
9.0
 12
0.0
 22
0.0
 32
0.0
 14
0.0
 24
0.0
 34
0.0
 15
0.0
 25
0.0
 35
0.0
146
0.0
 13
0.0
 23
0.0
 33
0.0
 16
1.0
 26
0.0
 36
0.0
 17
0.0
 27
1.0
 37
0.0
 76
0
330
1F
  0
LAYOUT
  5
26
100
AcDbPlotSettings
  1

  2
C:\Program Files\AutoCAD 2002\plotters\DWF ePlot (optimized for plotting).pc3
  4

  6

 40
0.0
 41
0.0
 42
0.0
 43
0.0
 44
0.0
 45
0.0
 46
0.0
 47
0.0
 48
0.0
 49
0.0
140
0.0
141
0.0
142
1.0
143
1.0
 70
688
 72
0
 73
0
 74
5
  7

 75
16
147
1.0
148
0.0
149
0.0
100
AcDbLayout
  1
Layout2
 70
1
 71
2
 10
0.0
 20
0.0
 11
12.0
 21
9.0
 12
0.0
 22
0.0
 32
0.0
 14
0.0
 24
0.0
 34
0.0
 15
0.0
 25
0.0
 35
0.0
146
0.0
 13
0.0
 23
0.0
 33
0.0
 16
1.0
 26
0.0
 36
0.0
 17
0.0
 27
1.0
 37
0.0
 76
0
330
23
  0
DICTIONARY
  5
73
100
AcDbDictionary
281
1
  3
DIMASSOC
350
75
  3
HIDETEXT
350
74
  0
DICTIONARYVAR
  5
74
100
DictionaryVariables
280
0
  1
2
  0
DICTIONARYVAR
  5
75
100
DictionaryVariables
280
0
  1
1
  0
ENDSEC
  0
EOF
