999
dxflib 2.2.0.0
  0
SECTION
  2
HEADER
  9
$ACADVER
  1
AC1015
  9
$HANDSEED
  5
FFFF
  9
$DIMASZ
 40
2.5
  9
$GRIDMODE
 70
1
  9
$PLIMMIN
 10
0.0
 20
0.0
  9
$DIMEXE
 40
1.25
  9
$DIMGAP
 40
0.625
  9
$PLIMMAX
 10
210.0
 20
297.0
  9
$INSUNITS
 70
4
  9
$DIMSTYLE
  2
Standard
  9
$CLAYER
  8
CuttingLines_0p003mm
  9
$DIMEXO
 40
0.625
  9
$DIMTXT
 40
2.5
  9
$CLAYER
  8
CuttingLines_0p003mm
  0
ENDSEC
  0
SECTION
  2
TABLES
  0
TABLE
  2
VPORT
  5
8
100
AcDbSymbolTable
 70
1
  0
VPORT
  5
30
100
AcDbSymbolTableRecord
100
AcDbViewportTableRecord
  2
*Active
 70
0
 10
0.0
 20
0.0
 11
1.0
 21
1.0
 12
286.3055555555554861
 22
148.5
 13
0.0
 23
0.0
 14
10.0
 24
10.0
 15
10.0
 25
10.0
 16
0.0
 26
0.0
 36
1.0
 17
0.0
 27
0.0
 37
0.0
 40
297.0
 41
1.92798353909465
 42
50.0
 43
0.0
 44
0.0
 50
0.0
 51
0.0
 71
0
 72
100
 73
1
 74
3
 75
1
 76
1
 77
0
 78
0
281
0
 65
1
110
0.0
120
0.0
130
0.0
111
1.0
121
0.0
131
0.0
112
0.0
122
1.0
132
0.0
 79
0
146
0.0
  0
ENDTAB
  0
TABLE
  2
LTYPE
  5
5
100
AcDbSymbolTable
 70
21
  0
LTYPE
  5
14
100
AcDbSymbolTableRecord
100
AcDbLinetypeTableRecord
  2
ByBlock
 70
0
  3

 72
65
 73
0
 40
0.0
  0
LTYPE
  5
15
100
AcDbSymbolTableRecord
100
AcDbLinetypeTableRecord
  2
ByLayer
 70
0
  3

 72
65
 73
0
 40
0.0
  0
LTYPE
  5
16
100
AcDbSymbolTableRecord
100
AcDbLinetypeTableRecord
  2
CONTINUOUS
 70
0
  3
Solid line
 72
65
 73
0
 40
0.0
  0
LTYPE
  5
31
100
AcDbSymbolTableRecord
100
AcDbLinetypeTableRecord
  2
DOT
 70
0
  3
Dot . . . . . . . . . . . . . . . . . . . . . .
 72
65
 73
2
 40
6.3499999999999996
 49
0.0
 74
0
 49
-6.3499999999999996
 74
0
  0
LTYPE
  5
32
100
AcDbSymbolTableRecord
100
AcDbLinetypeTableRecord
  2
DOT2
 70
0
  3
Dot (.5x) .....................................
 72
65
 73
2
 40
3.1749999999999998
 49
0.0
 74
0
 49
-3.1749999999999998
 74
0
  0
LTYPE
  5
33
100
AcDbSymbolTableRecord
100
AcDbLinetypeTableRecord
  2
DOTX2
 70
0
  3
Dot (2x) .  .  .  .  .  .  .  .  .  .  .  .  .
 72
65
 73
2
 40
12.6999999999999993
 49
0.0
 74
0
 49
-12.6999999999999993
 74
0
  0
LTYPE
  5
34
100
AcDbSymbolTableRecord
100
AcDbLinetypeTableRecord
  2
DASHED
 70
0
  3
Dashed __ __ __ __ __ __ __ __ __ __ __ __ __ _
 72
65
 73
2
 40
19.0500000000000007
 49
12.6999999999999993
 74
0
 49
-6.3499999999999996
 74
0
  0
LTYPE
  5
35
100
AcDbSymbolTableRecord
100
AcDbLinetypeTableRecord
  2
DASHED2
 70
0
  3
Dashed (.5x) _ _ _ _ _ _ _ _ _ _ _ _ _ _ _ _ _
 72
65
 73
2
 40
9.5250000000000004
 49
6.3499999999999996
 74
0
 49
-3.1749999999999998
 74
0
  0
LTYPE
  5
36
100
AcDbSymbolTableRecord
100
AcDbLinetypeTableRecord
  2
DASHEDX2
 70
0
  3
Dashed (2x) ____  ____  ____  ____  ____  ___
 72
65
 73
2
 40
38.1000000000000014
 49
25.3999999999999986
 74
0
 49
-12.6999999999999993
 74
0
  0
LTYPE
  5
37
100
AcDbSymbolTableRecord
100
AcDbLinetypeTableRecord
  2
DASHDOT
 70
0
  3
Dash dot __ . __ . __ . __ . __ . __ . __ . __
 72
65
 73
4
 40
25.3999999999999986
 49
12.6999999999999993
 74
0
 49
-6.3499999999999996
 74
0
 49
0.0
 74
0
 49
-6.3499999999999996
 74
0
  0
LTYPE
  5
38
100
AcDbSymbolTableRecord
100
AcDbLinetypeTableRecord
  2
DASHDOT2
 70
0
  3
Dash dot (.5x) _._._._._._._._._._._._._._._.
 72
65
 73
4
 40
12.6999999999999993
 49
6.3499999999999996
 74
0
 49
-3.1749999999999998
 74
0
 49
0.0
 74
0
 49
-3.1749999999999998
 74
0
  0
LTYPE
  5
39
100
AcDbSymbolTableRecord
100
AcDbLinetypeTableRecord
  2
DASHDOTX2
 70
0
  3
Dash dot (2x) ____  .  ____  .  ____  .  ___
 72
65
 73
4
 40
50.7999999999999972
 49
25.3999999999999986
 74
0
 49
-12.6999999999999993
 74
0
 49
0.0
 74
0
 49
-12.6999999999999993
 74
0
  0
LTYPE
  5
3A
100
AcDbSymbolTableRecord
100
AcDbLinetypeTableRecord
  2
DIVIDE
 70
0
  3
Divide ____ . . ____ . . ____ . . ____ . . ____
 72
65
 73
6
 40
31.75
 49
12.6999999999999993
 74
0
 49
-6.3499999999999996
 74
0
 49
0.0
 74
0
 49
-6.3499999999999996
 74
0
 49
0.0
 74
0
 49
-6.3499999999999996
 74
0
  0
LTYPE
  5
3B
100
AcDbSymbolTableRecord
100
AcDbLinetypeTableRecord
  2
DIVIDE2
 70
0
  3
Divide (.5x) __..__..__..__..__..__..__..__.._
 72
65
 73
6
 40
15.875
 49
6.3499999999999996
 74
0
 49
-3.1749999999999998
 74
0
 49
0.0
 74
0
 49
-3.1749999999999998
 74
0
 49
0.0
 74
0
 49
-3.1749999999999998
 74
0
  0
LTYPE
  5
3C
100
AcDbSymbolTableRecord
100
AcDbLinetypeTableRecord
  2
DIVIDEX2
 70
0
  3
Divide (2x) ________  .  .  ________  .  .  _
 72
65
 73
6
 40
63.5
 49
25.3999999999999986
 74
0
 49
-12.6999999999999993
 74
0
 49
0.0
 74
0
 49
-12.6999999999999993
 74
0
 49
0.0
 74
0
 49
-12.6999999999999993
 74
0
  0
LTYPE
  5
3D
100
AcDbSymbolTableRecord
100
AcDbLinetypeTableRecord
  2
CENTER
 70
0
  3
Center ____ _ ____ _ ____ _ ____ _ ____ _ ____
 72
65
 73
4
 40
50.7999999999999972
 49
31.75
 74
0
 49
-6.3499999999999996
 74
0
 49
6.3499999999999996
 74
0
 49
-6.3499999999999996
 74
0
  0
LTYPE
  5
3E
100
AcDbSymbolTableRecord
100
AcDbLinetypeTableRecord
  2
CENTER2
 70
0
  3
Center (.5x) ___ _ ___ _ ___ _ ___ _ ___ _ ___
 72
65
 73
4
 40
28.5749999999999993
 49
19.0500000000000007
 74
0
 49
-3.1749999999999998
 74
0
 49
3.1749999999999998
 74
0
 49
-3.1749999999999998
 74
0
  0
LTYPE
  5
3F
100
AcDbSymbolTableRecord
100
AcDbLinetypeTableRecord
  2
CENTERX2
 70
0
  3
Center (2x) ________  __  ________  __  _____
 72
65
 73
4
 40
101.5999999999999943
 49
63.5
 74
0
 49
-12.6999999999999993
 74
0
 49
12.6999999999999993
 74
0
 49
-12.6999999999999993
 74
0
  0
LTYPE
  5
40
100
AcDbSymbolTableRecord
100
AcDbLinetypeTableRecord
  2
BORDER
 70
0
  3
Border __ __ . __ __ . __ __ . __ __ . __ __ .
 72
65
 73
6
 40
44.4500000000000028
 49
12.6999999999999993
 74
0
 49
-6.3499999999999996
 74
0
 49
12.6999999999999993
 74
0
 49
-6.3499999999999996
 74
0
 49
0.0
 74
0
 49
-6.3499999999999996
 74
0
  0
LTYPE
  5
41
100
AcDbSymbolTableRecord
100
AcDbLinetypeTableRecord
  2
BORDER2
 70
0
  3
Border (.5x) __.__.__.__.__.__.__.__.__.__.__.
 72
65
 73
6
 40
22.2250000000000014
 49
6.3499999999999996
 74
0
 49
-3.1749999999999998
 74
0
 49
6.3499999999999996
 74
0
 49
-3.1749999999999998
 74
0
 49
0.0
 74
0
 49
-3.1749999999999998
 74
0
  0
LTYPE
  5
42
100
AcDbSymbolTableRecord
100
AcDbLinetypeTableRecord
  2
BORDERX2
 70
0
  3
Border (2x) ____  ____  .  ____  ____  .  ___
 72
65
 73
6
 40
88.9000000000000057
 49
25.3999999999999986
 74
0
 49
-12.6999999999999993
 74
0
 49
25.3999999999999986
 74
0
 49
-12.6999999999999993
 74
0
 49
0.0
 74
0
 49
-12.6999999999999993
 74
0
  0
ENDTAB
  0
TABLE
  2
LAYER
  5
2
100
AcDbSymbolTable
 70
12
  0
LAYER
  5
10
100
AcDbSymbolTableRecord
100
AcDbLayerTableRecord
  2
0
 70
0
 62
7
420
0
  6
CONTINUOUS
370
25
390
F
  0
LAYER
  5
43
100
AcDbSymbolTableRecord
100
AcDbLayerTableRecord
  2
SafeOrange_P1_181mm_181mm
 70
0
 62
30
420
16159262
  6
CONTINUOUS
370
0
390
F
  0
LAYER
  5
44
100
AcDbSymbolTableRecord
100
AcDbLayerTableRecord
  2
SafeOrange_P2_384mm_384mm
 70
0
 62
30
420
16159262
  6
CONTINUOUS
370
0
390
F
  0
LAYER
  5
45
100
AcDbSymbolTableRecord
100
AcDbLayerTableRecord
  2
SafeOrange_P3_790mm_384mm
 70
0
 62
30
420
16159262
  6
CONTINUOUS
370
0
390
F
  0
LAYER
  5
46
100
AcDbSymbolTableRecord
100
AcDbLayerTableRecord
  2
CuttingLines_0p003mm
 70
0
 62
5
420
255
  6
CONTINUOUS
370
0
390
F
  0
LAYER
  5
47
100
AcDbSymbolTableRecord
100
AcDbLayerTableRecord
  2
RasterFill_Heavy_0p03mm
 70
0
 62
7
420
0
  6
CONTINUOUS
370
0
390
F
  0
LAYER
  5
48
100
AcDbSymbolTableRecord
100
AcDbLayerTableRecord
  2
RasterFill_Light_0p03mm
 70
0
 62
254
420
15132390
  6
CONTINUOUS
370
0
390
F
  0
LAYER
  5
49
100
AcDbSymbolTableRecord
100
AcDbLayerTableRecord
  2
RasterFill_Medium_0p03mm
 70
0
 62
8
420
8421504
  6
CONTINUOUS
370
0
390
F
  0
LAYER
  5
4A
100
AcDbSymbolTableRecord
100
AcDbLayerTableRecord
  2
SafeOrange_Annotation
 70
0
 62
30
420
16159262
  6
CONTINUOUS
370
0
390
F
  0
LAYER
  5
4B
100
AcDbSymbolTableRecord
100
AcDbLayerTableRecord
  2
VectorLines_Medium_0p003mm
 70
0
 62
3
420
65280
  6
CONTINUOUS
370
0
390
F
  0
LAYER
  5
4C
100
AcDbSymbolTableRecord
100
AcDbLayerTableRecord
  2
VectorLines_Light_0p003mm
 70
0
 62
6
420
16711935
  6
CONTINUOUS
370
0
390
F
  0
LAYER
  5
4D
100
AcDbSymbolTableRecord
100
AcDbLayerTableRecord
  2
VectorLines_Heavy_0p003mm
 70
0
 62
1
420
16711680
  6
CONTINUOUS
370
0
390
F
  0
ENDTAB
  0
TABLE
  2
STYLE
  5
3
100
AcDbSymbolTable
 70
1
  0
STYLE
  5
11
100
AcDbSymbolTableRecord
100
AcDbTextStyleTableRecord
  2
Standard
 70
0
 40
0.0
 41
0.75
 50
0.0
 71
0
 42
2.5
  3
txt
  4

  0
ENDTAB
  0
TABLE
  2
VIEW
  5
6
100
AcDbSymbolTable
 70
0
  0
ENDTAB
  0
TABLE
  2
UCS
  5
7
100
AcDbSymbolTable
 70
0
  0
ENDTAB
  0
TABLE
  2
APPID
  5
9
100
AcDbSymbolTable
 70
1
  0
APPID
  5
12
100
AcDbSymbolTableRecord
100
AcDbRegAppTableRecord
  2
ACAD
 70
0
  0
ENDTAB
  0
TABLE
  2
DIMSTYLE
  5
A
100
AcDbSymbolTable
 70
1
100
AcDbDimStyleTable
 71
0
  0
DIMSTYLE
105
27
100
AcDbSymbolTableRecord
100
AcDbDimStyleTableRecord
  2
Standard
 41
2.5
 42
0.625
 43
3.75
 44
1.25
 70
0
 73
0
 74
0
 77
1
 78
8
140
2.5
141
2.5
143
0.03937007874016
147
0.625
171
3
172
1
271
2
272
2
274
3
278
44
283
0
284
8
340
11
  0
ENDTAB
  0
TABLE
  2
BLOCK_RECORD
  5
1
100
AcDbSymbolTable
 70
1
  0
BLOCK_RECORD
  5
1F
100
AcDbSymbolTableRecord
100
AcDbBlockTableRecord
  2
*Model_Space
340
22
  0
BLOCK_RECORD
  5
1B
100
AcDbSymbolTableRecord
100
AcDbBlockTableRecord
  2
*Paper_Space
340
1E
  0
BLOCK_RECORD
  5
23
100
AcDbSymbolTableRecord
100
AcDbBlockTableRecord
  2
*Paper_Space0
340
26
  0
ENDTAB
  0
ENDSEC
  0
SECTION
  2
BLOCKS
  0
BLOCK
  5
20
100
AcDbEntity
  8
0
100
AcDbBlockBegin
  2
*Model_Space
 70
0
 10
0.0
 20
0.0
 30
0.0
  3
*Model_Space
  1

  0
ENDBLK
  5
21
100
AcDbEntity
  8
0
100
AcDbBlockEnd
  0
BLOCK
  5
1C
100
AcDbEntity
 67
1
  8
0
100
AcDbBlockBegin
  2
*Paper_Space
 70
0
 10
0.0
 20
0.0
 30
0.0
  3
*Paper_Space
  1

  0
ENDBLK
  5
1D
100
AcDbEntity
 67
1
  8
0
100
AcDbBlockEnd
  0
BLOCK
  5
24
100
AcDbEntity
  8
0
100
AcDbBlockBegin
  2
*Paper_Space0
 70
0
 10
0.0
 20
0.0
 30
0.0
  3
*Paper_Space0
  1

  0
ENDBLK
  5
25
100
AcDbEntity
  8
0
100
AcDbBlockEnd
  0
ENDSEC
  0
SECTION
  2
ENTITIES
  0
LINE
  5
4E
100
AcDbEntity
100
AcDbLine
  8
VectorLines_Heavy_0p003mm
 62
256
370
-1
  6
ByLayer
 10
-2.5000000000000129
 20
-5.9999999999999787
 30
0.0
 11
-2.5000000000000453
 21
-44.0000000000000071
 31
0.0
  0
LINE
  5
4F
100
AcDbEntity
100
AcDbLine
  8
VectorLines_Heavy_0p003mm
 62
256
370
-1
  6
ByLayer
 10
8.4999999999999538
 20
-12.0000000000000338
 30
0.0
 11
8.4999999999999485
 21
-36.0000000000000213
 31
0.0
  0
LINE
  5
50
100
AcDbEntity
100
AcDbLine
  8
VectorLines_Heavy_0p003mm
 62
256
370
-1
  6
ByLayer
 10
15.4999999999999591
 20
-29.9999999999999964
 30
0.0
 11
15.4999999999999467
 21
-36.0000000000000284
 31
0.0
  0
LINE
  5
51
100
AcDbEntity
100
AcDbLine
  8
VectorLines_Heavy_0p003mm
 62
256
370
-1
  6
ByLayer
 10
-8.500000000000016
 20
-11.9999999999999964
 30
0.0
 11
-8.5000000000000924
 21
-35.9999999999999858
 31
0.0
  0
LINE
  5
52
100
AcDbEntity
100
AcDbLine
  8
VectorLines_Heavy_0p003mm
 62
256
370
-1
  6
ByLayer
 10
-15.5000000000000604
 20
-35.9999999999999929
 30
0.0
 11
-15.5000000000000391
 21
-30.0
 31
0.0
  0
LINE
  5
53
100
AcDbEntity
100
AcDbLine
  8
VectorLines_Heavy_0p003mm
 62
256
370
-1
  6
ByLayer
 10
-32.5000000000000284
 20
-35.9999999999999645
 30
0.0
 11
-32.5000000000000213
 21
-29.9999999999999716
 31
0.0
  0
LINE
  5
54
100
AcDbEntity
100
AcDbLine
  8
VectorLines_Heavy_0p003mm
 62
256
370
-1
  6
ByLayer
 10
15.4999999999999503
 20
-12.0000000000000355
 30
0.0
 11
15.4999999999999627
 21
-18.0000000000000249
 31
0.0
  0
LINE
  5
55
100
AcDbEntity
100
AcDbLine
  8
VectorLines_Heavy_0p003mm
 62
256
370
-1
  6
ByLayer
 10
20.4999999999999822
 20
-6.0000000000000178
 30
0.0
 11
20.4999999999999858
 21
-17.9999999999999964
 31
0.0
  0
LINE
  5
56
100
AcDbEntity
100
AcDbLine
  8
VectorLines_Heavy_0p003mm
 62
256
370
-1
  6
ByLayer
 10
21.4999999999999822
 20
-6.0000000000000266
 30
0.0
 11
21.4999999999999929
 21
-17.9999999999999964
 31
0.0
  0
LINE
  5
57
100
AcDbEntity
100
AcDbLine
  8
VectorLines_Heavy_0p003mm
 62
256
370
-1
  6
ByLayer
 10
-20.5000000000000284
 20
-17.9999999999999858
 30
0.0
 11
-20.5000000000000071
 21
-5.9999999999999689
 31
0.0
  0
LINE
  5
58
100
AcDbEntity
100
AcDbLine
  8
VectorLines_Heavy_0p003mm
 62
256
370
-1
  6
ByLayer
 10
-21.500000000000032
 20
-17.9999999999999964
 30
0.0
 11
-21.5000000000000036
 21
-5.9999999999999636
 31
0.0
  0
LINE
  5
59
100
AcDbEntity
100
AcDbLine
  8
VectorLines_Heavy_0p003mm
 62
256
370
-1
  6
ByLayer
 10
-15.5000000000000018
 20
-11.9999999999999911
 30
0.0
 11
-15.5000000000000124
 21
-18.0
 31
0.0
  0
LINE
  5
5A
100
AcDbEntity
100
AcDbLine
  8
VectorLines_Heavy_0p003mm
 62
256
370
-1
  6
ByLayer
 10
-32.5000000000000213
 20
-12.0
 30
0.0
 11
-32.5000000000000213
 21
-18.0
 31
0.0
  0
LINE
  5
5B
100
AcDbEntity
100
AcDbLine
  8
VectorLines_Heavy_0p003mm
 62
256
370
-1
  6
ByLayer
 10
-39.5000000000000142
 20
-11.9999999999999911
 30
0.0
 11
-39.5000000000000213
 21
-35.9999999999999432
 31
0.0
  0
LINE
  5
5C
100
AcDbEntity
100
AcDbLine
  8
VectorLines_Heavy_0p003mm
 62
256
370
-1
  6
ByLayer
 10
32.4999999999999147
 20
-30.0000000000000213
 30
0.0
 11
32.4999999999999432
 21
-36.0000000000000284
 31
0.0
  0
LINE
  5
5D
100
AcDbEntity
100
AcDbLine
  8
VectorLines_Heavy_0p003mm
 62
256
370
-1
  6
ByLayer
 10
39.4999999999999858
 20
-12.0000000000000355
 30
0.0
 11
39.4999999999999289
 21
-36.0000000000000782
 31
0.0
  0
LINE
  5
5E
100
AcDbEntity
100
AcDbLine
  8
VectorLines_Heavy_0p003mm
 62
256
370
-1
  6
ByLayer
 10
32.4999999999999858
 20
-11.9999999999999982
 30
0.0
 11
32.4999999999999858
 21
-17.9999999999999929
 31
0.0
  0
LINE
  5
5F
100
AcDbEntity
100
AcDbLine
  8
VectorLines_Heavy_0p003mm
 62
256
370
-1
  6
ByLayer
 10
5.9999999999999885
 20
-3.4999999999999987
 30
0.0
 11
17.9999999999999893
 21
-3.5000000000000249
 31
0.0
  0
LINE
  5
60
100
AcDbEntity
100
AcDbLine
  8
VectorLines_Heavy_0p003mm
 62
256
370
-1
  6
ByLayer
 10
5.999999999999984
 20
-2.5000000000000027
 30
0.0
 11
17.9999999999999893
 21
-2.5000000000000173
 31
0.0
  0
LINE
  5
61
100
AcDbEntity
100
AcDbLine
  8
VectorLines_Heavy_0p003mm
 62
256
370
-1
  6
ByLayer
 10
-18.0
 20
-2.4999999999999716
 30
0.0
 11
-6.0
 21
-2.4999999999999791
 31
0.0
  0
LINE
  5
62
100
AcDbEntity
100
AcDbLine
  8
VectorLines_Heavy_0p003mm
 62
256
370
-1
  6
ByLayer
 10
-18.0
 20
-3.4999999999999702
 30
0.0
 11
-6.0000000000000027
 21
-3.4999999999999911
 31
0.0
  0
LINE
  5
63
100
AcDbEntity
100
AcDbLine
  8
VectorLines_Heavy_0p003mm
 62
256
370
-1
  6
ByLayer
 10
-32.5000000000000213
 20
18.0000000000000107
 30
0.0
 11
-32.5
 21
12.000000000000016
 31
0.0
  0
LINE
  5
64
100
AcDbEntity
100
AcDbLine
  8
VectorLines_Heavy_0p003mm
 62
256
370
-1
  6
ByLayer
 10
-20.5000000000000036
 20
6.0000000000000018
 30
0.0
 11
-20.5000000000000178
 21
18.0
 31
0.0
  0
LINE
  5
65
100
AcDbEntity
100
AcDbLine
  8
VectorLines_Heavy_0p003mm
 62
256
370
-1
  6
ByLayer
 10
-21.5000000000000107
 20
5.9999999999999902
 30
0.0
 11
-21.5
 21
18.0000000000000107
 31
0.0
  0
LINE
  5
66
100
AcDbEntity
100
AcDbLine
  8
VectorLines_Heavy_0p003mm
 62
256
370
-1
  6
ByLayer
 10
-15.4999999999999964
 20
18.0000000000000071
 30
0.0
 11
-15.5
 21
12.0000000000000053
 31
0.0
  0
LINE
  5
67
100
AcDbEntity
100
AcDbLine
  8
VectorLines_Heavy_0p003mm
 62
256
370
-1
  6
ByLayer
 10
21.4999999999999858
 20
6.0000000000000107
 30
0.0
 11
21.4999999999999858
 21
17.9999999999999893
 31
0.0
  0
LINE
  5
68
100
AcDbEntity
100
AcDbLine
  8
VectorLines_Heavy_0p003mm
 62
256
370
-1
  6
ByLayer
 10
20.4999999999999893
 20
6.000000000000008
 30
0.0
 11
20.4999999999999858
 21
17.9999999999999858
 31
0.0
  0
LINE
  5
69
100
AcDbEntity
100
AcDbLine
  8
VectorLines_Heavy_0p003mm
 62
256
370
-1
  6
ByLayer
 10
15.4999999999999858
 20
17.9999999999999858
 30
0.0
 11
15.4999999999999858
 21
12.0000000000000142
 31
0.0
  0
LINE
  5
6A
100
AcDbEntity
100
AcDbLine
  8
VectorLines_Heavy_0p003mm
 62
256
370
-1
  6
ByLayer
 10
32.4999999999999929
 20
17.999999999999968
 30
0.0
 11
32.4999999999999929
 21
12.0000000000000338
 31
0.0
  0
LINE
  5
6B
100
AcDbEntity
100
AcDbLine
  8
VectorLines_Heavy_0p003mm
 62
256
370
-1
  6
ByLayer
 10
-32.4999999999999787
 20
30.0000000000000213
 30
0.0
 11
-32.4999999999999929
 21
36.0000000000000142
 31
0.0
  0
LINE
  5
6C
100
AcDbEntity
100
AcDbLine
  8
VectorLines_Heavy_0p003mm
 62
256
370
-1
  6
ByLayer
 10
-15.4999999999999893
 20
36.0
 30
0.0
 11
-15.5000000000000053
 21
30.0000000000000142
 31
0.0
  0
LINE
  5
6D
100
AcDbEntity
100
AcDbLine
  8
VectorLines_Heavy_0p003mm
 62
256
370
-1
  6
ByLayer
 10
15.5000000000000107
 20
29.9999999999999716
 30
0.0
 11
15.4999999999999929
 21
36.0
 31
0.0
  0
LINE
  5
6E
100
AcDbEntity
100
AcDbLine
  8
VectorLines_Heavy_0p003mm
 62
256
370
-1
  6
ByLayer
 10
32.4999999999999929
 20
36.0000000000000355
 30
0.0
 11
32.4999999999999858
 21
29.9999999999999751
 31
0.0
  0
LINE
  5
6F
100
AcDbEntity
100
AcDbLine
  8
VectorLines_Heavy_0p003mm
 62
256
370
-1
  6
ByLayer
 10
39.4999999999999787
 20
36.0000000000000284
 30
0.0
 11
39.4999999999999929
 21
12.0000000000000604
 31
0.0
  0
LINE
  5
70
100
AcDbEntity
100
AcDbLine
  8
VectorLines_Heavy_0p003mm
 62
256
370
-1
  6
ByLayer
 10
2.4999999999999947
 20
-6.0000000000000009
 30
0.0
 11
2.4999999999999512
 21
-44.0000000000000142
 31
0.0
  0
LINE
  5
71
100
AcDbEntity
100
AcDbLine
  8
VectorLines_Heavy_0p003mm
 62
256
370
-1
  6
ByLayer
 10
-3.5000000000000075
 20
-5.9999999999999778
 30
0.0
 11
-3.5000000000000457
 21
-42.0
 31
0.0
  0
LINE
  5
72
100
AcDbEntity
100
AcDbLine
  8
VectorLines_Heavy_0p003mm
 62
256
370
-1
  6
ByLayer
 10
3.4999999999999951
 20
-6.0
 30
0.0
 11
3.4999999999999556
 21
-42.0
 31
0.0
  0
LINE
  5
73
100
AcDbEntity
100
AcDbLine
  8
VectorLines_Heavy_0p003mm
 62
256
370
-1
  6
ByLayer
 10
-39.4999999999999716
 20
36.0000000000000426
 30
0.0
 11
-39.5000000000000071
 21
12.0
 31
0.0
  0
LINE
  5
74
100
AcDbEntity
100
AcDbLine
  8
VectorLines_Heavy_0p003mm
 62
256
370
-1
  6
ByLayer
 10
-8.5000000000000195
 20
36.0000000000000142
 30
0.0
 11
-8.5000000000000213
 21
12.0
 31
0.0
  0
LINE
  5
75
100
AcDbEntity
100
AcDbLine
  8
VectorLines_Heavy_0p003mm
 62
256
370
-1
  6
ByLayer
 10
8.4999999999999716
 20
36.0
 30
0.0
 11
8.4999999999999858
 21
12.0000000000000266
 31
0.0
  0
LINE
  5
76
100
AcDbEntity
100
AcDbLine
  8
VectorLines_Heavy_0p003mm
 62
256
370
-1
  6
ByLayer
 10
-18.0000000000000249
 20
3.5000000000000377
 30
0.0
 11
17.9999999999999964
 21
3.5000000000000004
 31
0.0
  0
LINE
  5
77
100
AcDbEntity
100
AcDbLine
  8
VectorLines_Heavy_0p003mm
 62
256
370
-1
  6
ByLayer
 10
-18.0000000000000178
 20
2.5000000000000191
 30
0.0
 11
17.9999999999999893
 21
2.4999999999999862
 31
0.0
  0
LINE
  5
78
100
AcDbEntity
100
AcDbLine
  8
VectorLines_Heavy_0p003mm
 62
256
370
-1
  6
ByLayer
 10
-27.5000000000000249
 20
-17.9999999999999964
 30
0.0
 11
-27.4999999999999822
 21
18.0000000000000107
 31
0.0
  0
LINE
  5
79
100
AcDbEntity
100
AcDbLine
  8
VectorLines_Heavy_0p003mm
 62
256
370
-1
  6
ByLayer
 10
-26.5000000000000284
 20
-17.9999999999999858
 30
0.0
 11
-26.5
 21
18.0000000000000284
 31
0.0
  0
LINE
  5
7A
100
AcDbEntity
100
AcDbLine
  8
VectorLines_Heavy_0p003mm
 62
256
370
-1
  6
ByLayer
 10
26.5000000000000142
 20
17.9999999999999929
 30
0.0
 11
26.4999999999999645
 21
-18.0000000000000249
 31
0.0
  0
LINE
  5
7B
100
AcDbEntity
100
AcDbLine
  8
VectorLines_Heavy_0p003mm
 62
256
370
-1
  6
ByLayer
 10
27.5000000000000036
 20
17.9999999999999929
 30
0.0
 11
27.4999999999999716
 21
-18.0000000000000107
 31
0.0
  0
LINE
  5
7C
100
AcDbEntity
100
AcDbLine
  8
VectorLines_Heavy_0p003mm
 62
256
370
-1
  6
ByLayer
 10
-18.0000000000000142
 20
-26.4999999999999964
 30
0.0
 11
-30.0000000000000178
 21
-26.4999999999999751
 31
0.0
  0
LINE
  5
7D
100
AcDbEntity
100
AcDbLine
  8
VectorLines_Heavy_0p003mm
 62
256
370
-1
  6
ByLayer
 10
-18.0000000000000142
 20
-27.4999999999999787
 30
0.0
 11
-30.0000000000000107
 21
-27.5000000000000107
 31
0.0
  0
LINE
  5
7E
100
AcDbEntity
100
AcDbLine
  8
VectorLines_Heavy_0p003mm
 62
256
370
-1
  6
ByLayer
 10
17.9999999999999503
 20
-26.4999999999999751
 30
0.0
 11
29.9999999999999325
 21
-26.5000000000000142
 31
0.0
  0
LINE
  5
7F
100
AcDbEntity
100
AcDbLine
  8
VectorLines_Heavy_0p003mm
 62
256
370
-1
  6
ByLayer
 10
17.9999999999999538
 20
-27.499999999999968
 30
0.0
 11
29.9999999999999361
 21
-27.5000000000000142
 31
0.0
  0
LINE
  5
80
100
AcDbEntity
100
AcDbLine
  8
VectorLines_Heavy_0p003mm
 62
256
370
-1
  6
ByLayer
 10
-18.0
 20
27.5000000000000036
 30
0.0
 11
-30.0
 21
27.5000000000000107
 31
0.0
  0
LINE
  5
81
100
AcDbEntity
100
AcDbLine
  8
VectorLines_Heavy_0p003mm
 62
256
370
-1
  6
ByLayer
 10
-18.0000000000000036
 20
26.5000000000000036
 30
0.0
 11
-29.9999999999999964
 21
26.5000000000000142
 31
0.0
  0
LINE
  5
82
100
AcDbEntity
100
AcDbLine
  8
VectorLines_Heavy_0p003mm
 62
256
370
-1
  6
ByLayer
 10
17.9999999999999929
 20
27.4999999999999538
 30
0.0
 11
29.9999999999999858
 21
27.4999999999999893
 31
0.0
  0
LINE
  5
83
100
AcDbEntity
100
AcDbLine
  8
VectorLines_Heavy_0p003mm
 62
256
370
-1
  6
ByLayer
 10
17.9999999999999787
 20
26.4999999999999964
 30
0.0
 11
29.9999999999999929
 21
26.4999999999999787
 31
0.0
  0
LINE
  5
84
100
AcDbEntity
100
AcDbLine
  8
VectorLines_Heavy_0p003mm
 62
256
370
-1
  6
ByLayer
 10
-33.5000000000000284
 20
29.9999999999999822
 30
0.0
 11
-33.4999999999999858
 21
33.1277186767309999
 31
0.0
  0
LINE
  5
85
100
AcDbEntity
100
AcDbLine
  8
VectorLines_Heavy_0p003mm
 62
256
370
-1
  6
ByLayer
 10
-14.5
 20
33.1277186767309999
 30
0.0
 11
-14.5000000000000018
 21
30.0000000000000036
 31
0.0
  0
LINE
  5
86
100
AcDbEntity
100
AcDbLine
  8
VectorLines_Heavy_0p003mm
 62
256
370
-1
  6
ByLayer
 10
-38.5000000000000213
 20
33.1277186767310283
 30
0.0
 11
-38.5
 21
14.8722813232690072
 31
0.0
  0
LINE
  5
87
100
AcDbEntity
100
AcDbLine
  8
VectorLines_Heavy_0p003mm
 62
256
370
-1
  6
ByLayer
 10
-33.4999999999999929
 20
18.0
 30
0.0
 11
-33.4999999999999929
 21
14.8722813232690108
 31
0.0
  0
LINE
  5
88
100
AcDbEntity
100
AcDbLine
  8
VectorLines_Heavy_0p003mm
 62
256
370
-1
  6
ByLayer
 10
-14.5000000000000107
 20
18.0000000000000036
 30
0.0
 11
-14.5000000000000036
 21
14.8722813232690179
 31
0.0
  0
LINE
  5
89
100
AcDbEntity
100
AcDbLine
  8
VectorLines_Heavy_0p003mm
 62
256
370
-1
  6
ByLayer
 10
-9.4999999999999982
 20
33.1277186767309999
 30
0.0
 11
-9.5
 21
14.8722813232690214
 31
0.0
  0
LINE
  5
8A
100
AcDbEntity
100
AcDbLine
  8
VectorLines_Heavy_0p003mm
 62
256
370
-1
  6
ByLayer
 10
14.4999999999999822
 20
17.9999999999999858
 30
0.0
 11
14.499999999999984
 21
14.8722813232690463
 31
0.0
  0
LINE
  5
8B
100
AcDbEntity
100
AcDbLine
  8
VectorLines_Heavy_0p003mm
 62
256
370
-1
  6
ByLayer
 10
9.4999999999999787
 20
33.1277186767309999
 30
0.0
 11
9.4999999999999929
 21
14.8722813232690427
 31
0.0
  0
LINE
  5
8C
100
AcDbEntity
100
AcDbLine
  8
VectorLines_Heavy_0p003mm
 62
256
370
-1
  6
ByLayer
 10
14.5
 20
29.9999999999999716
 30
0.0
 11
14.4999999999999787
 21
33.1277186767309715
 31
0.0
  0
LINE
  5
8D
100
AcDbEntity
100
AcDbLine
  8
VectorLines_Heavy_0p003mm
 62
256
370
-1
  6
ByLayer
 10
33.4999999999999929
 20
33.127718676731007
 30
0.0
 11
33.4999999999999858
 21
29.9999999999999787
 31
0.0
  0
LINE
  5
8E
100
AcDbEntity
100
AcDbLine
  8
VectorLines_Heavy_0p003mm
 62
256
370
-1
  6
ByLayer
 10
33.5
 20
17.9999999999999609
 30
0.0
 11
33.4999999999999929
 21
14.8722813232691049
 31
0.0
  0
LINE
  5
8F
100
AcDbEntity
100
AcDbLine
  8
VectorLines_Heavy_0p003mm
 62
256
370
-1
  6
ByLayer
 10
38.4999999999999929
 20
33.127718676731007
 30
0.0
 11
38.4999999999999858
 21
14.8722813232691067
 31
0.0
  0
LINE
  5
90
100
AcDbEntity
100
AcDbLine
  8
VectorLines_Heavy_0p003mm
 62
256
370
-1
  6
ByLayer
 10
14.4999999999999574
 20
-14.8722813232690498
 30
0.0
 11
14.4999999999999591
 21
-18.0000000000000249
 31
0.0
  0
LINE
  5
91
100
AcDbEntity
100
AcDbLine
  8
VectorLines_Heavy_0p003mm
 62
256
370
-1
  6
ByLayer
 10
33.4999999999999929
 20
-14.8722813232690214
 30
0.0
 11
33.4999999999999858
 21
-17.9999999999999929
 31
0.0
  0
LINE
  5
92
100
AcDbEntity
100
AcDbLine
  8
VectorLines_Heavy_0p003mm
 62
256
370
-1
  6
ByLayer
 10
33.4999999999999432
 20
-30.0000000000000178
 30
0.0
 11
33.4999999999999858
 21
-33.1277186767309786
 31
0.0
  0
LINE
  5
93
100
AcDbEntity
100
AcDbLine
  8
VectorLines_Heavy_0p003mm
 62
256
370
-1
  6
ByLayer
 10
38.4999999999999858
 20
-14.8722813232690179
 30
0.0
 11
38.4999999999999361
 21
-33.1277186767310212
 31
0.0
  0
LINE
  5
94
100
AcDbEntity
100
AcDbLine
  8
VectorLines_Heavy_0p003mm
 62
256
370
-1
  6
ByLayer
 10
14.4999999999999378
 20
-30.0000000000000142
 30
0.0
 11
14.4999999999999361
 21
-33.1277186767310212
 31
0.0
  0
LINE
  5
95
100
AcDbEntity
100
AcDbLine
  8
VectorLines_Heavy_0p003mm
 62
256
370
-1
  6
ByLayer
 10
9.4999999999999485
 20
-14.8722813232690374
 30
0.0
 11
9.4999999999999343
 21
-33.1277186767310283
 31
0.0
  0
LINE
  5
96
100
AcDbEntity
100
AcDbLine
  8
VectorLines_Heavy_0p003mm
 62
256
370
-1
  6
ByLayer
 10
-14.5000000000000426
 20
-33.1277186767309502
 30
0.0
 11
-14.5000000000000178
 21
-30.0000000000000178
 31
0.0
  0
LINE
  5
97
100
AcDbEntity
100
AcDbLine
  8
VectorLines_Heavy_0p003mm
 62
256
370
-1
  6
ByLayer
 10
-14.500000000000016
 20
-14.8722813232690019
 30
0.0
 11
-14.5000000000000266
 21
-17.9999999999999929
 31
0.0
  0
LINE
  5
98
100
AcDbEntity
100
AcDbLine
  8
VectorLines_Heavy_0p003mm
 62
256
370
-1
  6
ByLayer
 10
-9.500000000000016
 20
-14.8722813232690072
 30
0.0
 11
-9.5000000000000764
 21
-33.1277186767309928
 31
0.0
  0
LINE
  5
99
100
AcDbEntity
100
AcDbLine
  8
VectorLines_Heavy_0p003mm
 62
256
370
-1
  6
ByLayer
 10
-33.5000000000000213
 20
-14.8722813232689965
 30
0.0
 11
-33.5000000000000213
 21
-18.0
 31
0.0
  0
LINE
  5
9A
100
AcDbEntity
100
AcDbLine
  8
VectorLines_Heavy_0p003mm
 62
256
370
-1
  6
ByLayer
 10
-38.5000000000000213
 20
-14.8722813232689965
 30
0.0
 11
-38.5000000000000071
 21
-33.1277186767309502
 31
0.0
  0
LINE
  5
9B
100
AcDbEntity
100
AcDbLine
  8
VectorLines_Heavy_0p003mm
 62
256
370
-1
  6
ByLayer
 10
-33.5000000000000142
 20
-33.1277186767309573
 30
0.0
 11
-33.5000000000000213
 21
-29.999999999999968
 31
0.0
  0
ENDSEC
  0
SECTION
  2
OBJECTS
  0
DICTIONARY
  5
C
100
AcDbDictionary
280
0
281
1
  3
ACAD_GROUP
350
D
  3
ACAD_LAYOUT
350
1A
  3
ACAD_MLINESTYLE
350
17
  3
ACAD_PLOTSETTINGS
350
19
  3
ACAD_PLOTSTYLENAME
350
E
  3
AcDbVariableDictionary
350
9C
  0
DICTIONARY
  5
D
100
AcDbDictionary
280
0
281
1
  0
ACDBDICTIONARYWDFLT
  5
E
100
AcDbDictionary
281
1
  3
Normal
350
F
100
AcDbDictionaryWithDefault
340
F
  0
ACDBPLACEHOLDER
  5
F
  0
DICTIONARY
  5
17
100
AcDbDictionary
280
0
281
1
  3
Standard
350
18
  0
MLINESTYLE
  5
18
100
AcDbMlineStyle
  2
STANDARD
 70
0
  3

 62
256
 51
90.0
 52
90.0
 71
2
 49
0.5
 62
256
  6
BYLAYER
 49
-0.5
 62
256
  6
BYLAYER
  0
DICTIONARY
  5
19
100
AcDbDictionary
280
0
281
1
  0
DICTIONARY
  5
1A
100
AcDbDictionary
281
1
  3
Layout1
350
1E
  3
Layout2
350
26
  3
Model
350
22
  0
LAYOUT
  5
1E
100
AcDbPlotSettings
  1

  2
C:\Program Files\AutoCAD 2002\plotters\DWF ePlot (optimized for plotting).pc3
  4

  6

 40
0.0
 41
0.0
 42
0.0
 43
0.0
 44
0.0
 45
0.0
 46
0.0
 47
0.0
 48
0.0
 49
0.0
140
0.0
141
0.0
142
1.0
143
1.0
 70
688
 72
0
 73
0
 74
5
  7

 75
16
147
1.0
148
0.0
149
0.0
100
AcDbLayout
  1
Layout1
 70
1
 71
1
 10
0.0
 20
0.0
 11
420.0
 21
297.0
 12
0.0
 22
0.0
 32
0.0
 14
100000000000000000000.0
 24
100000000000000000000.0
 34
100000000000000000000.0
 15
-100000000000000000000.0
 25
-100000000000000000000.0
 35
-100000000000000000000.0
146
0.0
 13
0.0
 23
0.0
 33
0.0
 16
1.0
 26
0.0
 36
0.0
 17
0.0
 27
1.0
 37
0.0
 76
0
330
1B
  0
LAYOUT
  5
22
100
AcDbPlotSettings
  1

  2
C:\Program Files\AutoCAD 2002\plotters\DWF ePlot (optimized for plotting).pc3
  4

  6

 40
0.0
 41
0.0
 42
0.0
 43
0.0
 44
0.0
 45
0.0
 46
0.0
 47
0.0
 48
0.0
 49
0.0
140
0.0
141
0.0
142
1.0
143
1.0
 70
1712
 72
0
 73
0
 74
0
  7

 75
0
147
1.0
148
0.0
149
0.0
100
AcDbLayout
  1
Model
 70
1
 71
0
 10
0.0
 20
0.0
 11
12.0
 21
9.0
 12
0.0
 22
0.0
 32
0.0
 14
0.0
 24
0.0
 34
0.0
 15
0.0
 25
0.0
 35
0.0
146
0.0
 13
0.0
 23
0.0
 33
0.0
 16
1.0
 26
0.0
 36
0.0
 17
0.0
 27
1.0
 37
0.0
 76
0
330
1F
  0
LAYOUT
  5
26
100
AcDbPlotSettings
  1

  2
C:\Program Files\AutoCAD 2002\plotters\DWF ePlot (optimized for plotting).pc3
  4

  6

 40
0.0
 41
0.0
 42
0.0
 43
0.0
 44
0.0
 45
0.0
 46
0.0
 47
0.0
 48
0.0
 49
0.0
140
0.0
141
0.0
142
1.0
143
1.0
 70
688
 72
0
 73
0
 74
5
  7

 75
16
147
1.0
148
0.0
149
0.0
100
AcDbLayout
  1
Layout2
 70
1
 71
2
 10
0.0
 20
0.0
 11
12.0
 21
9.0
 12
0.0
 22
0.0
 32
0.0
 14
0.0
 24
0.0
 34
0.0
 15
0.0
 25
0.0
 35
0.0
146
0.0
 13
0.0
 23
0.0
 33
0.0
 16
1.0
 26
0.0
 36
0.0
 17
0.0
 27
1.0
 37
0.0
 76
0
330
23
  0
DICTIONARY
  5
9C
100
AcDbDictionary
281
1
  3
DIMASSOC
350
9E
  3
HIDETEXT
350
9D
  0
DICTIONARYVAR
  5
9D
100
DictionaryVariables
280
0
  1
2
  0
DICTIONARYVAR
  5
9E
100
DictionaryVariables
280
0
  1
1
  0
ENDSEC
  0
EOF
