999
dxflib 2.2.0.0
  0
SECTION
  2
HEADER
  9
$ACADVER
  1
AC1015
  9
$HANDSEED
  5
FFFF
  9
$DIMASZ
 40
2.5
  9
$GRIDMODE
 70
1
  9
$PLIMMIN
 10
0.0
 20
0.0
  9
$DIMEXE
 40
1.25
  9
$DIMGAP
 40
0.625
  9
$PLIMMAX
 10
210.0
 20
297.0
  9
$INSUNITS
 70
4
  9
$DIMSTYLE
  2
Standard
  9
$CLAYER
  8
VectorLines_Light_0p003mm
  9
$DIMEXO
 40
0.625
  9
$DIMTXT
 40
2.5
  9
$CLAYER
  8
VectorLines_Light_0p003mm
  0
ENDSEC
  0
SECTION
  2
TABLES
  0
TABLE
  2
VPORT
  5
8
100
AcDbSymbolTable
 70
1
  0
VPORT
  5
30
100
AcDbSymbolTableRecord
100
AcDbViewportTableRecord
  2
*Active
 70
0
 10
0.0
 20
0.0
 11
1.0
 21
1.0
 12
286.3055555555554861
 22
148.5
 13
0.0
 23
0.0
 14
10.0
 24
10.0
 15
10.0
 25
10.0
 16
0.0
 26
0.0
 36
1.0
 17
0.0
 27
0.0
 37
0.0
 40
297.0
 41
1.92798353909465
 42
50.0
 43
0.0
 44
0.0
 50
0.0
 51
0.0
 71
0
 72
100
 73
1
 74
3
 75
1
 76
1
 77
0
 78
0
281
0
 65
1
110
0.0
120
0.0
130
0.0
111
1.0
121
0.0
131
0.0
112
0.0
122
1.0
132
0.0
 79
0
146
0.0
  0
ENDTAB
  0
TABLE
  2
LTYPE
  5
5
100
AcDbSymbolTable
 70
21
  0
LTYPE
  5
14
100
AcDbSymbolTableRecord
100
AcDbLinetypeTableRecord
  2
ByBlock
 70
0
  3

 72
65
 73
0
 40
0.0
  0
LTYPE
  5
15
100
AcDbSymbolTableRecord
100
AcDbLinetypeTableRecord
  2
ByLayer
 70
0
  3

 72
65
 73
0
 40
0.0
  0
LTYPE
  5
16
100
AcDbSymbolTableRecord
100
AcDbLinetypeTableRecord
  2
CONTINUOUS
 70
0
  3
Solid line
 72
65
 73
0
 40
0.0
  0
LTYPE
  5
31
100
AcDbSymbolTableRecord
100
AcDbLinetypeTableRecord
  2
DOT
 70
0
  3
Dot . . . . . . . . . . . . . . . . . . . . . .
 72
65
 73
2
 40
6.3499999999999996
 49
0.0
 74
0
 49
-6.3499999999999996
 74
0
  0
LTYPE
  5
32
100
AcDbSymbolTableRecord
100
AcDbLinetypeTableRecord
  2
DOT2
 70
0
  3
Dot (.5x) .....................................
 72
65
 73
2
 40
3.1749999999999998
 49
0.0
 74
0
 49
-3.1749999999999998
 74
0
  0
LTYPE
  5
33
100
AcDbSymbolTableRecord
100
AcDbLinetypeTableRecord
  2
DOTX2
 70
0
  3
Dot (2x) .  .  .  .  .  .  .  .  .  .  .  .  .
 72
65
 73
2
 40
12.6999999999999993
 49
0.0
 74
0
 49
-12.6999999999999993
 74
0
  0
LTYPE
  5
34
100
AcDbSymbolTableRecord
100
AcDbLinetypeTableRecord
  2
DASHED
 70
0
  3
Dashed __ __ __ __ __ __ __ __ __ __ __ __ __ _
 72
65
 73
2
 40
19.0500000000000007
 49
12.6999999999999993
 74
0
 49
-6.3499999999999996
 74
0
  0
LTYPE
  5
35
100
AcDbSymbolTableRecord
100
AcDbLinetypeTableRecord
  2
DASHED2
 70
0
  3
Dashed (.5x) _ _ _ _ _ _ _ _ _ _ _ _ _ _ _ _ _
 72
65
 73
2
 40
9.5250000000000004
 49
6.3499999999999996
 74
0
 49
-3.1749999999999998
 74
0
  0
LTYPE
  5
36
100
AcDbSymbolTableRecord
100
AcDbLinetypeTableRecord
  2
DASHEDX2
 70
0
  3
Dashed (2x) ____  ____  ____  ____  ____  ___
 72
65
 73
2
 40
38.1000000000000014
 49
25.3999999999999986
 74
0
 49
-12.6999999999999993
 74
0
  0
LTYPE
  5
37
100
AcDbSymbolTableRecord
100
AcDbLinetypeTableRecord
  2
DASHDOT
 70
0
  3
Dash dot __ . __ . __ . __ . __ . __ . __ . __
 72
65
 73
4
 40
25.3999999999999986
 49
12.6999999999999993
 74
0
 49
-6.3499999999999996
 74
0
 49
0.0
 74
0
 49
-6.3499999999999996
 74
0
  0
LTYPE
  5
38
100
AcDbSymbolTableRecord
100
AcDbLinetypeTableRecord
  2
DASHDOT2
 70
0
  3
Dash dot (.5x) _._._._._._._._._._._._._._._.
 72
65
 73
4
 40
12.6999999999999993
 49
6.3499999999999996
 74
0
 49
-3.1749999999999998
 74
0
 49
0.0
 74
0
 49
-3.1749999999999998
 74
0
  0
LTYPE
  5
39
100
AcDbSymbolTableRecord
100
AcDbLinetypeTableRecord
  2
DASHDOTX2
 70
0
  3
Dash dot (2x) ____  .  ____  .  ____  .  ___
 72
65
 73
4
 40
50.7999999999999972
 49
25.3999999999999986
 74
0
 49
-12.6999999999999993
 74
0
 49
0.0
 74
0
 49
-12.6999999999999993
 74
0
  0
LTYPE
  5
3A
100
AcDbSymbolTableRecord
100
AcDbLinetypeTableRecord
  2
DIVIDE
 70
0
  3
Divide ____ . . ____ . . ____ . . ____ . . ____
 72
65
 73
6
 40
31.75
 49
12.6999999999999993
 74
0
 49
-6.3499999999999996
 74
0
 49
0.0
 74
0
 49
-6.3499999999999996
 74
0
 49
0.0
 74
0
 49
-6.3499999999999996
 74
0
  0
LTYPE
  5
3B
100
AcDbSymbolTableRecord
100
AcDbLinetypeTableRecord
  2
DIVIDE2
 70
0
  3
Divide (.5x) __..__..__..__..__..__..__..__.._
 72
65
 73
6
 40
15.875
 49
6.3499999999999996
 74
0
 49
-3.1749999999999998
 74
0
 49
0.0
 74
0
 49
-3.1749999999999998
 74
0
 49
0.0
 74
0
 49
-3.1749999999999998
 74
0
  0
LTYPE
  5
3C
100
AcDbSymbolTableRecord
100
AcDbLinetypeTableRecord
  2
DIVIDEX2
 70
0
  3
Divide (2x) ________  .  .  ________  .  .  _
 72
65
 73
6
 40
63.5
 49
25.3999999999999986
 74
0
 49
-12.6999999999999993
 74
0
 49
0.0
 74
0
 49
-12.6999999999999993
 74
0
 49
0.0
 74
0
 49
-12.6999999999999993
 74
0
  0
LTYPE
  5
3D
100
AcDbSymbolTableRecord
100
AcDbLinetypeTableRecord
  2
CENTER
 70
0
  3
Center ____ _ ____ _ ____ _ ____ _ ____ _ ____
 72
65
 73
4
 40
50.7999999999999972
 49
31.75
 74
0
 49
-6.3499999999999996
 74
0
 49
6.3499999999999996
 74
0
 49
-6.3499999999999996
 74
0
  0
LTYPE
  5
3E
100
AcDbSymbolTableRecord
100
AcDbLinetypeTableRecord
  2
CENTER2
 70
0
  3
Center (.5x) ___ _ ___ _ ___ _ ___ _ ___ _ ___
 72
65
 73
4
 40
28.5749999999999993
 49
19.0500000000000007
 74
0
 49
-3.1749999999999998
 74
0
 49
3.1749999999999998
 74
0
 49
-3.1749999999999998
 74
0
  0
LTYPE
  5
3F
100
AcDbSymbolTableRecord
100
AcDbLinetypeTableRecord
  2
CENTERX2
 70
0
  3
Center (2x) ________  __  ________  __  _____
 72
65
 73
4
 40
101.5999999999999943
 49
63.5
 74
0
 49
-12.6999999999999993
 74
0
 49
12.6999999999999993
 74
0
 49
-12.6999999999999993
 74
0
  0
LTYPE
  5
40
100
AcDbSymbolTableRecord
100
AcDbLinetypeTableRecord
  2
BORDER
 70
0
  3
Border __ __ . __ __ . __ __ . __ __ . __ __ .
 72
65
 73
6
 40
44.4500000000000028
 49
12.6999999999999993
 74
0
 49
-6.3499999999999996
 74
0
 49
12.6999999999999993
 74
0
 49
-6.3499999999999996
 74
0
 49
0.0
 74
0
 49
-6.3499999999999996
 74
0
  0
LTYPE
  5
41
100
AcDbSymbolTableRecord
100
AcDbLinetypeTableRecord
  2
BORDER2
 70
0
  3
Border (.5x) __.__.__.__.__.__.__.__.__.__.__.
 72
65
 73
6
 40
22.2250000000000014
 49
6.3499999999999996
 74
0
 49
-3.1749999999999998
 74
0
 49
6.3499999999999996
 74
0
 49
-3.1749999999999998
 74
0
 49
0.0
 74
0
 49
-3.1749999999999998
 74
0
  0
LTYPE
  5
42
100
AcDbSymbolTableRecord
100
AcDbLinetypeTableRecord
  2
BORDERX2
 70
0
  3
Border (2x) ____  ____  .  ____  ____  .  ___
 72
65
 73
6
 40
88.9000000000000057
 49
25.3999999999999986
 74
0
 49
-12.6999999999999993
 74
0
 49
25.3999999999999986
 74
0
 49
-12.6999999999999993
 74
0
 49
0.0
 74
0
 49
-12.6999999999999993
 74
0
  0
ENDTAB
  0
TABLE
  2
LAYER
  5
2
100
AcDbSymbolTable
 70
12
  0
LAYER
  5
10
100
AcDbSymbolTableRecord
100
AcDbLayerTableRecord
  2
0
 70
0
 62
7
420
0
  6
CONTINUOUS
370
25
390
F
  0
LAYER
  5
43
100
AcDbSymbolTableRecord
100
AcDbLayerTableRecord
  2
SafeOrange_P1_181mm_181mm
 70
0
 62
30
420
16159262
  6
CONTINUOUS
370
0
390
F
  0
LAYER
  5
44
100
AcDbSymbolTableRecord
100
AcDbLayerTableRecord
  2
SafeOrange_P2_384mm_384mm
 70
0
 62
30
420
16159262
  6
CONTINUOUS
370
0
390
F
  0
LAYER
  5
45
100
AcDbSymbolTableRecord
100
AcDbLayerTableRecord
  2
SafeOrange_P3_790mm_384mm
 70
0
 62
30
420
16159262
  6
CONTINUOUS
370
0
390
F
  0
LAYER
  5
46
100
AcDbSymbolTableRecord
100
AcDbLayerTableRecord
  2
CuttingLines_0p003mm
 70
0
 62
5
420
255
  6
CONTINUOUS
370
0
390
F
  0
LAYER
  5
47
100
AcDbSymbolTableRecord
100
AcDbLayerTableRecord
  2
RasterFill_Heavy_0p03mm
 70
0
 62
7
420
0
  6
CONTINUOUS
370
0
390
F
  0
LAYER
  5
48
100
AcDbSymbolTableRecord
100
AcDbLayerTableRecord
  2
RasterFill_Light_0p03mm
 70
0
 62
254
420
15132390
  6
CONTINUOUS
370
0
390
F
  0
LAYER
  5
49
100
AcDbSymbolTableRecord
100
AcDbLayerTableRecord
  2
RasterFill_Medium_0p03mm
 70
0
 62
8
420
8421504
  6
CONTINUOUS
370
0
390
F
  0
LAYER
  5
4A
100
AcDbSymbolTableRecord
100
AcDbLayerTableRecord
  2
SafeOrange_Annotation
 70
0
 62
30
420
16159262
  6
CONTINUOUS
370
0
390
F
  0
LAYER
  5
4B
100
AcDbSymbolTableRecord
100
AcDbLayerTableRecord
  2
VectorLines_Medium_0p003mm
 70
0
 62
3
420
65280
  6
CONTINUOUS
370
0
390
F
  0
LAYER
  5
4C
100
AcDbSymbolTableRecord
100
AcDbLayerTableRecord
  2
VectorLines_Light_0p003mm
 70
0
 62
6
420
16711935
  6
CONTINUOUS
370
0
390
F
  0
LAYER
  5
4D
100
AcDbSymbolTableRecord
100
AcDbLayerTableRecord
  2
VectorLines_Heavy_0p003mm
 70
0
 62
1
420
16711680
  6
CONTINUOUS
370
0
390
F
  0
ENDTAB
  0
TABLE
  2
STYLE
  5
3
100
AcDbSymbolTable
 70
1
  0
STYLE
  5
11
100
AcDbSymbolTableRecord
100
AcDbTextStyleTableRecord
  2
Standard
 70
0
 40
0.0
 41
0.75
 50
0.0
 71
0
 42
2.5
  3
txt
  4

  0
ENDTAB
  0
TABLE
  2
VIEW
  5
6
100
AcDbSymbolTable
 70
0
  0
ENDTAB
  0
TABLE
  2
UCS
  5
7
100
AcDbSymbolTable
 70
0
  0
ENDTAB
  0
TABLE
  2
APPID
  5
9
100
AcDbSymbolTable
 70
1
  0
APPID
  5
12
100
AcDbSymbolTableRecord
100
AcDbRegAppTableRecord
  2
ACAD
 70
0
  0
ENDTAB
  0
TABLE
  2
DIMSTYLE
  5
A
100
AcDbSymbolTable
 70
1
100
AcDbDimStyleTable
 71
0
  0
DIMSTYLE
105
27
100
AcDbSymbolTableRecord
100
AcDbDimStyleTableRecord
  2
Standard
 41
2.5
 42
0.625
 43
3.75
 44
1.25
 70
0
 73
0
 74
0
 77
1
 78
8
140
2.5
141
2.5
143
0.03937007874016
147
0.625
171
3
172
1
271
2
272
2
274
3
278
44
283
0
284
8
340
11
  0
ENDTAB
  0
TABLE
  2
BLOCK_RECORD
  5
1
100
AcDbSymbolTable
 70
1
  0
BLOCK_RECORD
  5
1F
100
AcDbSymbolTableRecord
100
AcDbBlockTableRecord
  2
*Model_Space
340
22
  0
BLOCK_RECORD
  5
1B
100
AcDbSymbolTableRecord
100
AcDbBlockTableRecord
  2
*Paper_Space
340
1E
  0
BLOCK_RECORD
  5
23
100
AcDbSymbolTableRecord
100
AcDbBlockTableRecord
  2
*Paper_Space0
340
26
  0
ENDTAB
  0
ENDSEC
  0
SECTION
  2
BLOCKS
  0
BLOCK
  5
20
100
AcDbEntity
  8
0
100
AcDbBlockBegin
  2
*Model_Space
 70
0
 10
0.0
 20
0.0
 30
0.0
  3
*Model_Space
  1

  0
ENDBLK
  5
21
100
AcDbEntity
  8
0
100
AcDbBlockEnd
  0
BLOCK
  5
1C
100
AcDbEntity
 67
1
  8
0
100
AcDbBlockBegin
  2
*Paper_Space
 70
0
 10
0.0
 20
0.0
 30
0.0
  3
*Paper_Space
  1

  0
ENDBLK
  5
1D
100
AcDbEntity
 67
1
  8
0
100
AcDbBlockEnd
  0
BLOCK
  5
24
100
AcDbEntity
  8
0
100
AcDbBlockBegin
  2
*Paper_Space0
 70
0
 10
0.0
 20
0.0
 30
0.0
  3
*Paper_Space0
  1

  0
ENDBLK
  5
25
100
AcDbEntity
  8
0
100
AcDbBlockEnd
  0
ENDSEC
  0
SECTION
  2
ENTITIES
  0
ARC
  5
4E
100
AcDbEntity
  8
VectorLines_Light_0p003mm
 62
256
370
-1
  6
ByLayer
100
AcDbCircle
 10
-20.0
 20
12.0000000000000018
 30
0.0
 40
2.4500000000000002
100
AcDbArc
 50
275.6434797345725656
 51
354.3565202654274344
  0
ARC
  5
4F
100
AcDbEntity
  8
VectorLines_Light_0p003mm
 62
256
370
-1
  6
ByLayer
100
AcDbCircle
 10
-22.0
 20
11.9999999999999982
 30
0.0
 40
0.5
100
AcDbArc
 50
151.1932596676497269
 51
208.8067403323502731
  0
ARC
  5
50
100
AcDbEntity
  8
VectorLines_Light_0p003mm
 62
256
370
-1
  6
ByLayer
100
AcDbCircle
 10
-20.0
 20
10.0000000000000036
 30
0.0
 40
0.5
100
AcDbArc
 50
241.1932596676497269
 51
298.8067403323502731
  0
ARC
  5
51
100
AcDbEntity
  8
VectorLines_Light_0p003mm
 62
256
370
-1
  6
ByLayer
100
AcDbCircle
 10
-20.0
 20
12.0000000000000018
 30
0.0
 40
2.4500000000000002
100
AcDbArc
 50
185.6434797345725656
 51
264.3565202654274344
  0
ARC
  5
52
100
AcDbEntity
  8
VectorLines_Light_0p003mm
 62
256
370
-1
  6
ByLayer
100
AcDbCircle
 10
-20.0
 20
13.9999999999999982
 30
0.0
 40
0.5
100
AcDbArc
 50
61.1932596676497198
 51
118.8067403323502731
  0
ARC
  5
53
100
AcDbEntity
  8
VectorLines_Light_0p003mm
 62
256
370
-1
  6
ByLayer
100
AcDbCircle
 10
-20.0
 20
12.0000000000000018
 30
0.0
 40
2.4500000000000002
100
AcDbArc
 50
95.6434797345725372
 51
174.3565202654274344
  0
ARC
  5
54
100
AcDbEntity
  8
VectorLines_Light_0p003mm
 62
256
370
-1
  6
ByLayer
100
AcDbCircle
 10
-17.9999999999999964
 20
12.0000000000000089
 30
0.0
 40
0.5
100
AcDbArc
 50
331.1932596676497269
 51
28.8067403323502802
  0
ARC
  5
55
100
AcDbEntity
  8
VectorLines_Light_0p003mm
 62
256
370
-1
  6
ByLayer
100
AcDbCircle
 10
-20.0
 20
12.0000000000000018
 30
0.0
 40
2.4500000000000002
100
AcDbArc
 50
5.6434797345725594
 51
84.3565202654274913
  0
ARC
  5
56
100
AcDbEntity
  8
VectorLines_Light_0p003mm
 62
256
370
-1
  6
ByLayer
100
AcDbCircle
 10
-27.9999999999999964
 20
12.0000000000000142
 30
0.0
 40
2.4500000000000002
100
AcDbArc
 50
275.6434797345725656
 51
354.3565202654274344
  0
ARC
  5
57
100
AcDbEntity
  8
VectorLines_Light_0p003mm
 62
256
370
-1
  6
ByLayer
100
AcDbCircle
 10
-30.0
 20
11.9999999999999893
 30
0.0
 40
0.5
100
AcDbArc
 50
151.1932596676497269
 51
208.8067403323502731
  0
ARC
  5
58
100
AcDbEntity
  8
VectorLines_Light_0p003mm
 62
256
370
-1
  6
ByLayer
100
AcDbCircle
 10
-27.9999999999999964
 20
10.0000000000000089
 30
0.0
 40
0.5
100
AcDbArc
 50
241.1932596676497269
 51
298.8067403323502731
  0
ARC
  5
59
100
AcDbEntity
  8
VectorLines_Light_0p003mm
 62
256
370
-1
  6
ByLayer
100
AcDbCircle
 10
-27.9999999999999964
 20
12.0000000000000142
 30
0.0
 40
2.4500000000000002
100
AcDbArc
 50
185.6434797345725656
 51
264.3565202654274344
  0
ARC
  5
5A
100
AcDbEntity
  8
VectorLines_Light_0p003mm
 62
256
370
-1
  6
ByLayer
100
AcDbCircle
 10
-28.0
 20
14.0000000000000053
 30
0.0
 40
0.5
100
AcDbArc
 50
61.1932596676497198
 51
118.8067403323502731
  0
ARC
  5
5B
100
AcDbEntity
  8
VectorLines_Light_0p003mm
 62
256
370
-1
  6
ByLayer
100
AcDbCircle
 10
-27.9999999999999964
 20
12.0000000000000142
 30
0.0
 40
2.4500000000000002
100
AcDbArc
 50
95.6434797345725372
 51
174.3565202654274344
  0
ARC
  5
5C
100
AcDbEntity
  8
VectorLines_Light_0p003mm
 62
256
370
-1
  6
ByLayer
100
AcDbCircle
 10
-25.9999999999999964
 20
12.0000000000000071
 30
0.0
 40
0.5
100
AcDbArc
 50
331.1932596676497269
 51
28.8067403323502802
  0
ARC
  5
5D
100
AcDbEntity
  8
VectorLines_Light_0p003mm
 62
256
370
-1
  6
ByLayer
100
AcDbCircle
 10
-27.9999999999999964
 20
12.0000000000000142
 30
0.0
 40
2.4500000000000002
100
AcDbArc
 50
5.6434797345725594
 51
84.3565202654274913
  0
ARC
  5
5E
100
AcDbEntity
  8
VectorLines_Light_0p003mm
 62
256
370
-1
  6
ByLayer
100
AcDbCircle
 10
-28.0000000000000036
 20
-12.0000000000000089
 30
0.0
 40
2.4500000000000002
100
AcDbArc
 50
275.6434797345725656
 51
354.3565202654274344
  0
ARC
  5
5F
100
AcDbEntity
  8
VectorLines_Light_0p003mm
 62
256
370
-1
  6
ByLayer
100
AcDbCircle
 10
-30.0000000000000036
 20
-11.9999999999999822
 30
0.0
 40
0.5
100
AcDbArc
 50
151.1932596676497269
 51
208.8067403323502731
  0
ARC
  5
60
100
AcDbEntity
  8
VectorLines_Light_0p003mm
 62
256
370
-1
  6
ByLayer
100
AcDbCircle
 10
-28.0000000000000071
 20
-14.0
 30
0.0
 40
0.5
100
AcDbArc
 50
241.1932596676497269
 51
298.8067403323502731
  0
ARC
  5
61
100
AcDbEntity
  8
VectorLines_Light_0p003mm
 62
256
370
-1
  6
ByLayer
100
AcDbCircle
 10
-28.0000000000000036
 20
-12.0000000000000089
 30
0.0
 40
2.4500000000000002
100
AcDbArc
 50
185.6434797345725656
 51
264.3565202654274344
  0
ARC
  5
62
100
AcDbEntity
  8
VectorLines_Light_0p003mm
 62
256
370
-1
  6
ByLayer
100
AcDbCircle
 10
-28.0
 20
-10.0000000000000036
 30
0.0
 40
0.5
100
AcDbArc
 50
61.1932596676497198
 51
118.8067403323502731
  0
ARC
  5
63
100
AcDbEntity
  8
VectorLines_Light_0p003mm
 62
256
370
-1
  6
ByLayer
100
AcDbCircle
 10
-28.0000000000000036
 20
-12.0000000000000089
 30
0.0
 40
2.4500000000000002
100
AcDbArc
 50
95.6434797345725372
 51
174.3565202654274344
  0
ARC
  5
64
100
AcDbEntity
  8
VectorLines_Light_0p003mm
 62
256
370
-1
  6
ByLayer
100
AcDbCircle
 10
-26.0
 20
-12.0000000000000018
 30
0.0
 40
0.5
100
AcDbArc
 50
331.1932596676497269
 51
28.8067403323502802
  0
ARC
  5
65
100
AcDbEntity
  8
VectorLines_Light_0p003mm
 62
256
370
-1
  6
ByLayer
100
AcDbCircle
 10
-28.0000000000000036
 20
-12.0000000000000089
 30
0.0
 40
2.4500000000000002
100
AcDbArc
 50
5.6434797345725594
 51
84.3565202654274913
  0
ARC
  5
66
100
AcDbEntity
  8
VectorLines_Light_0p003mm
 62
256
370
-1
  6
ByLayer
100
AcDbCircle
 10
-20.0000000000000036
 20
-11.9999999999999964
 30
0.0
 40
2.4500000000000002
100
AcDbArc
 50
275.6434797345725656
 51
354.3565202654274344
  0
ARC
  5
67
100
AcDbEntity
  8
VectorLines_Light_0p003mm
 62
256
370
-1
  6
ByLayer
100
AcDbCircle
 10
-22.0000000000000036
 20
-11.9999999999999947
 30
0.0
 40
0.5
100
AcDbArc
 50
151.1932596676497269
 51
208.8067403323502731
  0
ARC
  5
68
100
AcDbEntity
  8
VectorLines_Light_0p003mm
 62
256
370
-1
  6
ByLayer
100
AcDbCircle
 10
-20.0
 20
-13.9999999999999911
 30
0.0
 40
0.5
100
AcDbArc
 50
241.1932596676497269
 51
298.8067403323502731
  0
ARC
  5
69
100
AcDbEntity
  8
VectorLines_Light_0p003mm
 62
256
370
-1
  6
ByLayer
100
AcDbCircle
 10
-20.0000000000000036
 20
-11.9999999999999964
 30
0.0
 40
2.4500000000000002
100
AcDbArc
 50
185.6434797345725656
 51
264.3565202654274344
  0
ARC
  5
6A
100
AcDbEntity
  8
VectorLines_Light_0p003mm
 62
256
370
-1
  6
ByLayer
100
AcDbCircle
 10
-20.0000000000000036
 20
-9.9999999999999982
 30
0.0
 40
0.5
100
AcDbArc
 50
61.1932596676497198
 51
118.8067403323502731
  0
ARC
  5
6B
100
AcDbEntity
  8
VectorLines_Light_0p003mm
 62
256
370
-1
  6
ByLayer
100
AcDbCircle
 10
-20.0000000000000036
 20
-11.9999999999999964
 30
0.0
 40
2.4500000000000002
100
AcDbArc
 50
95.6434797345725372
 51
174.3565202654274344
  0
ARC
  5
6C
100
AcDbEntity
  8
VectorLines_Light_0p003mm
 62
256
370
-1
  6
ByLayer
100
AcDbCircle
 10
-18.0
 20
-12.0000000000000036
 30
0.0
 40
0.5
100
AcDbArc
 50
331.1932596676497269
 51
28.8067403323502802
  0
ARC
  5
6D
100
AcDbEntity
  8
VectorLines_Light_0p003mm
 62
256
370
-1
  6
ByLayer
100
AcDbCircle
 10
-20.0000000000000036
 20
-11.9999999999999964
 30
0.0
 40
2.4500000000000002
100
AcDbArc
 50
5.6434797345725594
 51
84.3565202654274913
  0
ARC
  5
6E
100
AcDbEntity
  8
VectorLines_Light_0p003mm
 62
256
370
-1
  6
ByLayer
100
AcDbCircle
 10
-20.0000000000000036
 20
-36.0
 30
0.0
 40
2.4500000000000002
100
AcDbArc
 50
275.6434797345725656
 51
354.3565202654274344
  0
ARC
  5
6F
100
AcDbEntity
  8
VectorLines_Light_0p003mm
 62
256
370
-1
  6
ByLayer
100
AcDbCircle
 10
-21.9999999999999893
 20
-36.0000000000000142
 30
0.0
 40
0.5
100
AcDbArc
 50
151.1932596676497269
 51
208.8067403323502731
  0
ARC
  5
70
100
AcDbEntity
  8
VectorLines_Light_0p003mm
 62
256
370
-1
  6
ByLayer
100
AcDbCircle
 10
-20.0000000000000142
 20
-37.9999999999999929
 30
0.0
 40
0.5
100
AcDbArc
 50
241.1932596676497269
 51
298.8067403323502731
  0
ARC
  5
71
100
AcDbEntity
  8
VectorLines_Light_0p003mm
 62
256
370
-1
  6
ByLayer
100
AcDbCircle
 10
-20.0000000000000036
 20
-36.0
 30
0.0
 40
2.4500000000000002
100
AcDbArc
 50
185.6434797345725656
 51
264.3565202654274344
  0
ARC
  5
72
100
AcDbEntity
  8
VectorLines_Light_0p003mm
 62
256
370
-1
  6
ByLayer
100
AcDbCircle
 10
-20.0000000000000036
 20
-34.0000000000000071
 30
0.0
 40
0.5
100
AcDbArc
 50
61.1932596676497198
 51
118.8067403323502731
  0
ARC
  5
73
100
AcDbEntity
  8
VectorLines_Light_0p003mm
 62
256
370
-1
  6
ByLayer
100
AcDbCircle
 10
-20.0000000000000036
 20
-36.0
 30
0.0
 40
2.4500000000000002
100
AcDbArc
 50
95.6434797345725372
 51
174.3565202654274344
  0
ARC
  5
74
100
AcDbEntity
  8
VectorLines_Light_0p003mm
 62
256
370
-1
  6
ByLayer
100
AcDbCircle
 10
-18.0000000000000036
 20
-35.9999999999999929
 30
0.0
 40
0.5
100
AcDbArc
 50
331.1932596676497269
 51
28.8067403323502802
  0
ARC
  5
75
100
AcDbEntity
  8
VectorLines_Light_0p003mm
 62
256
370
-1
  6
ByLayer
100
AcDbCircle
 10
-20.0000000000000036
 20
-36.0
 30
0.0
 40
2.4500000000000002
100
AcDbArc
 50
5.6434797345725594
 51
84.3565202654274913
  0
ARC
  5
76
100
AcDbEntity
  8
VectorLines_Light_0p003mm
 62
256
370
-1
  6
ByLayer
100
AcDbCircle
 10
-27.9999999999999929
 20
-36.0
 30
0.0
 40
2.4500000000000002
100
AcDbArc
 50
275.6434797345725656
 51
354.3565202654274344
  0
ARC
  5
77
100
AcDbEntity
  8
VectorLines_Light_0p003mm
 62
256
370
-1
  6
ByLayer
100
AcDbCircle
 10
-29.9999999999999964
 20
-36.0
 30
0.0
 40
0.5
100
AcDbArc
 50
151.1932596676497269
 51
208.8067403323502731
  0
ARC
  5
78
100
AcDbEntity
  8
VectorLines_Light_0p003mm
 62
256
370
-1
  6
ByLayer
100
AcDbCircle
 10
-28.0000000000000107
 20
-37.9999999999999929
 30
0.0
 40
0.5
100
AcDbArc
 50
241.1932596676497269
 51
298.8067403323502731
  0
ARC
  5
79
100
AcDbEntity
  8
VectorLines_Light_0p003mm
 62
256
370
-1
  6
ByLayer
100
AcDbCircle
 10
-27.9999999999999929
 20
-36.0
 30
0.0
 40
2.4500000000000002
100
AcDbArc
 50
185.6434797345725656
 51
264.3565202654274344
  0
ARC
  5
7A
100
AcDbEntity
  8
VectorLines_Light_0p003mm
 62
256
370
-1
  6
ByLayer
100
AcDbCircle
 10
-28.0
 20
-34.0
 30
0.0
 40
0.5
100
AcDbArc
 50
61.1932596676497198
 51
118.8067403323502731
  0
ARC
  5
7B
100
AcDbEntity
  8
VectorLines_Light_0p003mm
 62
256
370
-1
  6
ByLayer
100
AcDbCircle
 10
-27.9999999999999929
 20
-36.0
 30
0.0
 40
2.4500000000000002
100
AcDbArc
 50
95.6434797345725372
 51
174.3565202654274344
  0
ARC
  5
7C
100
AcDbEntity
  8
VectorLines_Light_0p003mm
 62
256
370
-1
  6
ByLayer
100
AcDbCircle
 10
-26.0000000000000142
 20
-35.9999999999999929
 30
0.0
 40
0.5
100
AcDbArc
 50
331.1932596676497269
 51
28.8067403323502802
  0
ARC
  5
7D
100
AcDbEntity
  8
VectorLines_Light_0p003mm
 62
256
370
-1
  6
ByLayer
100
AcDbCircle
 10
-27.9999999999999929
 20
-36.0
 30
0.0
 40
2.4500000000000002
100
AcDbArc
 50
5.6434797345725594
 51
84.3565202654274913
  0
ARC
  5
7E
100
AcDbEntity
  8
VectorLines_Light_0p003mm
 62
256
370
-1
  6
ByLayer
100
AcDbCircle
 10
-27.9999999999999822
 20
36.0000000000000071
 30
0.0
 40
2.4500000000000002
100
AcDbArc
 50
275.6434797345725656
 51
354.3565202654274344
  0
ARC
  5
7F
100
AcDbEntity
  8
VectorLines_Light_0p003mm
 62
256
370
-1
  6
ByLayer
100
AcDbCircle
 10
-29.9999999999999858
 20
36.0000000000000071
 30
0.0
 40
0.5
100
AcDbArc
 50
151.1932596676497269
 51
208.8067403323502731
  0
ARC
  5
80
100
AcDbEntity
  8
VectorLines_Light_0p003mm
 62
256
370
-1
  6
ByLayer
100
AcDbCircle
 10
-27.9999999999999893
 20
34.0000000000000071
 30
0.0
 40
0.5
100
AcDbArc
 50
241.1932596676497269
 51
298.8067403323502731
  0
ARC
  5
81
100
AcDbEntity
  8
VectorLines_Light_0p003mm
 62
256
370
-1
  6
ByLayer
100
AcDbCircle
 10
-27.9999999999999822
 20
36.0000000000000071
 30
0.0
 40
2.4500000000000002
100
AcDbArc
 50
185.6434797345725656
 51
264.3565202654274344
  0
ARC
  5
82
100
AcDbEntity
  8
VectorLines_Light_0p003mm
 62
256
370
-1
  6
ByLayer
100
AcDbCircle
 10
-27.9999999999999893
 20
38.0000000000000213
 30
0.0
 40
0.5
100
AcDbArc
 50
61.1932596676497198
 51
118.8067403323502731
  0
ARC
  5
83
100
AcDbEntity
  8
VectorLines_Light_0p003mm
 62
256
370
-1
  6
ByLayer
100
AcDbCircle
 10
-27.9999999999999822
 20
36.0000000000000071
 30
0.0
 40
2.4500000000000002
100
AcDbArc
 50
95.6434797345725372
 51
174.3565202654274344
  0
ARC
  5
84
100
AcDbEntity
  8
VectorLines_Light_0p003mm
 62
256
370
-1
  6
ByLayer
100
AcDbCircle
 10
-26.0
 20
36.0
 30
0.0
 40
0.5
100
AcDbArc
 50
331.1932596676497269
 51
28.8067403323502802
  0
ARC
  5
85
100
AcDbEntity
  8
VectorLines_Light_0p003mm
 62
256
370
-1
  6
ByLayer
100
AcDbCircle
 10
-27.9999999999999822
 20
36.0000000000000071
 30
0.0
 40
2.4500000000000002
100
AcDbArc
 50
5.6434797345725594
 51
84.3565202654274913
  0
ARC
  5
86
100
AcDbEntity
  8
VectorLines_Light_0p003mm
 62
256
370
-1
  6
ByLayer
100
AcDbCircle
 10
-19.9999999999999929
 20
36.0000000000000071
 30
0.0
 40
2.4500000000000002
100
AcDbArc
 50
275.6434797345725656
 51
354.3565202654274344
  0
ARC
  5
87
100
AcDbEntity
  8
VectorLines_Light_0p003mm
 62
256
370
-1
  6
ByLayer
100
AcDbCircle
 10
-21.9999999999999964
 20
36.0000000000000071
 30
0.0
 40
0.5
100
AcDbArc
 50
151.1932596676497269
 51
208.8067403323502731
  0
ARC
  5
88
100
AcDbEntity
  8
VectorLines_Light_0p003mm
 62
256
370
-1
  6
ByLayer
100
AcDbCircle
 10
-19.9999999999999858
 20
34.0000000000000071
 30
0.0
 40
0.5
100
AcDbArc
 50
241.1932596676497269
 51
298.8067403323502731
  0
ARC
  5
89
100
AcDbEntity
  8
VectorLines_Light_0p003mm
 62
256
370
-1
  6
ByLayer
100
AcDbCircle
 10
-19.9999999999999929
 20
36.0000000000000071
 30
0.0
 40
2.4500000000000002
100
AcDbArc
 50
185.6434797345725656
 51
264.3565202654274344
  0
ARC
  5
8A
100
AcDbEntity
  8
VectorLines_Light_0p003mm
 62
256
370
-1
  6
ByLayer
100
AcDbCircle
 10
-20.0000000000000036
 20
38.0
 30
0.0
 40
0.5
100
AcDbArc
 50
61.1932596676497198
 51
118.8067403323502731
  0
ARC
  5
8B
100
AcDbEntity
  8
VectorLines_Light_0p003mm
 62
256
370
-1
  6
ByLayer
100
AcDbCircle
 10
-19.9999999999999929
 20
36.0000000000000071
 30
0.0
 40
2.4500000000000002
100
AcDbArc
 50
95.6434797345725372
 51
174.3565202654274344
  0
ARC
  5
8C
100
AcDbEntity
  8
VectorLines_Light_0p003mm
 62
256
370
-1
  6
ByLayer
100
AcDbCircle
 10
-18.0
 20
36.0
 30
0.0
 40
0.5
100
AcDbArc
 50
331.1932596676497269
 51
28.8067403323502802
  0
ARC
  5
8D
100
AcDbEntity
  8
VectorLines_Light_0p003mm
 62
256
370
-1
  6
ByLayer
100
AcDbCircle
 10
-19.9999999999999929
 20
36.0000000000000071
 30
0.0
 40
2.4500000000000002
100
AcDbArc
 50
5.6434797345725594
 51
84.3565202654274913
  0
ARC
  5
8E
100
AcDbEntity
  8
VectorLines_Light_0p003mm
 62
256
370
-1
  6
ByLayer
100
AcDbCircle
 10
-3.9999999999999969
 20
12.0000000000000036
 30
0.0
 40
2.4500000000000002
100
AcDbArc
 50
275.6434797345725656
 51
354.3565202654274344
  0
ARC
  5
8F
100
AcDbEntity
  8
VectorLines_Light_0p003mm
 62
256
370
-1
  6
ByLayer
100
AcDbCircle
 10
-6.0
 20
12.0
 30
0.0
 40
0.5
100
AcDbArc
 50
151.1932596676497269
 51
208.8067403323502731
  0
ARC
  5
90
100
AcDbEntity
  8
VectorLines_Light_0p003mm
 62
256
370
-1
  6
ByLayer
100
AcDbCircle
 10
-3.9999999999999991
 20
10.0
 30
0.0
 40
0.5
100
AcDbArc
 50
241.1932596676497269
 51
298.8067403323502731
  0
ARC
  5
91
100
AcDbEntity
  8
VectorLines_Light_0p003mm
 62
256
370
-1
  6
ByLayer
100
AcDbCircle
 10
-3.9999999999999969
 20
12.0000000000000036
 30
0.0
 40
2.4500000000000002
100
AcDbArc
 50
185.6434797345725656
 51
264.3565202654274344
  0
ARC
  5
92
100
AcDbEntity
  8
VectorLines_Light_0p003mm
 62
256
370
-1
  6
ByLayer
100
AcDbCircle
 10
-3.9999999999999951
 20
14.0000000000000036
 30
0.0
 40
0.5
100
AcDbArc
 50
61.1932596676497198
 51
118.8067403323502731
  0
ARC
  5
93
100
AcDbEntity
  8
VectorLines_Light_0p003mm
 62
256
370
-1
  6
ByLayer
100
AcDbCircle
 10
-3.9999999999999969
 20
12.0000000000000036
 30
0.0
 40
2.4500000000000002
100
AcDbArc
 50
95.6434797345725372
 51
174.3565202654274344
  0
ARC
  5
94
100
AcDbEntity
  8
VectorLines_Light_0p003mm
 62
256
370
-1
  6
ByLayer
100
AcDbCircle
 10
-2.0000000000000004
 20
12.0
 30
0.0
 40
0.5
100
AcDbArc
 50
331.1932596676497269
 51
28.8067403323502802
  0
ARC
  5
95
100
AcDbEntity
  8
VectorLines_Light_0p003mm
 62
256
370
-1
  6
ByLayer
100
AcDbCircle
 10
-3.9999999999999969
 20
12.0000000000000036
 30
0.0
 40
2.4500000000000002
100
AcDbArc
 50
5.6434797345725594
 51
84.3565202654274913
  0
ARC
  5
96
100
AcDbEntity
  8
VectorLines_Light_0p003mm
 62
256
370
-1
  6
ByLayer
100
AcDbCircle
 10
4.0000000000000027
 20
12.0
 30
0.0
 40
2.4500000000000002
100
AcDbArc
 50
275.6434797345725656
 51
354.3565202654274344
  0
ARC
  5
97
100
AcDbEntity
  8
VectorLines_Light_0p003mm
 62
256
370
-1
  6
ByLayer
100
AcDbCircle
 10
2.0000000000000013
 20
12.0
 30
0.0
 40
0.5
100
AcDbArc
 50
151.1932596676497269
 51
208.8067403323502731
  0
ARC
  5
98
100
AcDbEntity
  8
VectorLines_Light_0p003mm
 62
256
370
-1
  6
ByLayer
100
AcDbCircle
 10
4.0
 20
10.0
 30
0.0
 40
0.5
100
AcDbArc
 50
241.1932596676497269
 51
298.8067403323502731
  0
ARC
  5
99
100
AcDbEntity
  8
VectorLines_Light_0p003mm
 62
256
370
-1
  6
ByLayer
100
AcDbCircle
 10
4.0000000000000027
 20
12.0
 30
0.0
 40
2.4500000000000002
100
AcDbArc
 50
185.6434797345725656
 51
264.3565202654274344
  0
ARC
  5
9A
100
AcDbEntity
  8
VectorLines_Light_0p003mm
 62
256
370
-1
  6
ByLayer
100
AcDbCircle
 10
3.9999999999999987
 20
14.0
 30
0.0
 40
0.5
100
AcDbArc
 50
61.1932596676497198
 51
118.8067403323502731
  0
ARC
  5
9B
100
AcDbEntity
  8
VectorLines_Light_0p003mm
 62
256
370
-1
  6
ByLayer
100
AcDbCircle
 10
4.0000000000000027
 20
12.0
 30
0.0
 40
2.4500000000000002
100
AcDbArc
 50
95.6434797345725372
 51
174.3565202654274344
  0
ARC
  5
9C
100
AcDbEntity
  8
VectorLines_Light_0p003mm
 62
256
370
-1
  6
ByLayer
100
AcDbCircle
 10
5.9999999999999982
 20
12.0000000000000018
 30
0.0
 40
0.5
100
AcDbArc
 50
331.1932596676497269
 51
28.8067403323502802
  0
ARC
  5
9D
100
AcDbEntity
  8
VectorLines_Light_0p003mm
 62
256
370
-1
  6
ByLayer
100
AcDbCircle
 10
4.0000000000000027
 20
12.0
 30
0.0
 40
2.4500000000000002
100
AcDbArc
 50
5.6434797345725594
 51
84.3565202654274913
  0
ARC
  5
9E
100
AcDbEntity
  8
VectorLines_Light_0p003mm
 62
256
370
-1
  6
ByLayer
100
AcDbCircle
 10
3.9999999999999973
 20
-12.0000000000000018
 30
0.0
 40
2.4500000000000002
100
AcDbArc
 50
275.6434797345725656
 51
354.3565202654274344
  0
ARC
  5
9F
100
AcDbEntity
  8
VectorLines_Light_0p003mm
 62
256
370
-1
  6
ByLayer
100
AcDbCircle
 10
1.9999999999999987
 20
-12.0
 30
0.0
 40
0.5
100
AcDbArc
 50
151.1932596676497269
 51
208.8067403323502731
  0
ARC
  5
A0
100
AcDbEntity
  8
VectorLines_Light_0p003mm
 62
256
370
-1
  6
ByLayer
100
AcDbCircle
 10
3.9999999999999987
 20
-14.0
 30
0.0
 40
0.5
100
AcDbArc
 50
241.1932596676497269
 51
298.8067403323502731
  0
ARC
  5
A1
100
AcDbEntity
  8
VectorLines_Light_0p003mm
 62
256
370
-1
  6
ByLayer
100
AcDbCircle
 10
3.9999999999999973
 20
-12.0000000000000018
 30
0.0
 40
2.4500000000000002
100
AcDbArc
 50
185.6434797345725656
 51
264.3565202654274344
  0
ARC
  5
A2
100
AcDbEntity
  8
VectorLines_Light_0p003mm
 62
256
370
-1
  6
ByLayer
100
AcDbCircle
 10
3.9999999999999987
 20
-10.0
 30
0.0
 40
0.5
100
AcDbArc
 50
61.1932596676497198
 51
118.8067403323502731
  0
ARC
  5
A3
100
AcDbEntity
  8
VectorLines_Light_0p003mm
 62
256
370
-1
  6
ByLayer
100
AcDbCircle
 10
3.9999999999999973
 20
-12.0000000000000018
 30
0.0
 40
2.4500000000000002
100
AcDbArc
 50
95.6434797345725372
 51
174.3565202654274344
  0
ARC
  5
A4
100
AcDbEntity
  8
VectorLines_Light_0p003mm
 62
256
370
-1
  6
ByLayer
100
AcDbCircle
 10
5.9999999999999982
 20
-12.0000000000000018
 30
0.0
 40
0.5
100
AcDbArc
 50
331.1932596676497269
 51
28.8067403323502802
  0
ARC
  5
A5
100
AcDbEntity
  8
VectorLines_Light_0p003mm
 62
256
370
-1
  6
ByLayer
100
AcDbCircle
 10
3.9999999999999973
 20
-12.0000000000000018
 30
0.0
 40
2.4500000000000002
100
AcDbArc
 50
5.6434797345725594
 51
84.3565202654274913
  0
ARC
  5
A6
100
AcDbEntity
  8
VectorLines_Light_0p003mm
 62
256
370
-1
  6
ByLayer
100
AcDbCircle
 10
-4.0000000000000018
 20
-12.0
 30
0.0
 40
2.4500000000000002
100
AcDbArc
 50
275.6434797345725656
 51
354.3565202654274344
  0
ARC
  5
A7
100
AcDbEntity
  8
VectorLines_Light_0p003mm
 62
256
370
-1
  6
ByLayer
100
AcDbCircle
 10
-6.0000000000000018
 20
-11.9999999999999964
 30
0.0
 40
0.5
100
AcDbArc
 50
151.1932596676497269
 51
208.8067403323502731
  0
ARC
  5
A8
100
AcDbEntity
  8
VectorLines_Light_0p003mm
 62
256
370
-1
  6
ByLayer
100
AcDbCircle
 10
-4.0000000000000036
 20
-13.9999999999999982
 30
0.0
 40
0.5
100
AcDbArc
 50
241.1932596676497269
 51
298.8067403323502731
  0
ARC
  5
A9
100
AcDbEntity
  8
VectorLines_Light_0p003mm
 62
256
370
-1
  6
ByLayer
100
AcDbCircle
 10
-4.0000000000000018
 20
-12.0
 30
0.0
 40
2.4500000000000002
100
AcDbArc
 50
185.6434797345725656
 51
264.3565202654274344
  0
ARC
  5
AA
100
AcDbEntity
  8
VectorLines_Light_0p003mm
 62
256
370
-1
  6
ByLayer
100
AcDbCircle
 10
-4.0000000000000018
 20
-10.0000000000000018
 30
0.0
 40
0.5
100
AcDbArc
 50
61.1932596676497198
 51
118.8067403323502731
  0
ARC
  5
AB
100
AcDbEntity
  8
VectorLines_Light_0p003mm
 62
256
370
-1
  6
ByLayer
100
AcDbCircle
 10
-4.0000000000000018
 20
-12.0
 30
0.0
 40
2.4500000000000002
100
AcDbArc
 50
95.6434797345725372
 51
174.3565202654274344
  0
ARC
  5
AC
100
AcDbEntity
  8
VectorLines_Light_0p003mm
 62
256
370
-1
  6
ByLayer
100
AcDbCircle
 10
-2.0000000000000027
 20
-11.9999999999999964
 30
0.0
 40
0.5
100
AcDbArc
 50
331.1932596676497269
 51
28.8067403323502802
  0
ARC
  5
AD
100
AcDbEntity
  8
VectorLines_Light_0p003mm
 62
256
370
-1
  6
ByLayer
100
AcDbCircle
 10
-4.0000000000000018
 20
-12.0
 30
0.0
 40
2.4500000000000002
100
AcDbArc
 50
5.6434797345725594
 51
84.3565202654274913
  0
ARC
  5
AE
100
AcDbEntity
  8
VectorLines_Light_0p003mm
 62
256
370
-1
  6
ByLayer
100
AcDbCircle
 10
-3.9999999999999982
 20
36.0
 30
0.0
 40
2.4500000000000002
100
AcDbArc
 50
275.6434797345725656
 51
354.3565202654274344
  0
ARC
  5
AF
100
AcDbEntity
  8
VectorLines_Light_0p003mm
 62
256
370
-1
  6
ByLayer
100
AcDbCircle
 10
-6.0000000000000009
 20
36.0
 30
0.0
 40
0.5
100
AcDbArc
 50
151.1932596676497269
 51
208.8067403323502731
  0
ARC
  5
B0
100
AcDbEntity
  8
VectorLines_Light_0p003mm
 62
256
370
-1
  6
ByLayer
100
AcDbCircle
 10
-3.9999999999999938
 20
34.0
 30
0.0
 40
0.5
100
AcDbArc
 50
241.1932596676497269
 51
298.8067403323502731
  0
ARC
  5
B1
100
AcDbEntity
  8
VectorLines_Light_0p003mm
 62
256
370
-1
  6
ByLayer
100
AcDbCircle
 10
-3.9999999999999982
 20
36.0
 30
0.0
 40
2.4500000000000002
100
AcDbArc
 50
185.6434797345725656
 51
264.3565202654274344
  0
ARC
  5
B2
100
AcDbEntity
  8
VectorLines_Light_0p003mm
 62
256
370
-1
  6
ByLayer
100
AcDbCircle
 10
-4.0
 20
38.0
 30
0.0
 40
0.5
100
AcDbArc
 50
61.1932596676497198
 51
118.8067403323502731
  0
ARC
  5
B3
100
AcDbEntity
  8
VectorLines_Light_0p003mm
 62
256
370
-1
  6
ByLayer
100
AcDbCircle
 10
-3.9999999999999982
 20
36.0
 30
0.0
 40
2.4500000000000002
100
AcDbArc
 50
95.6434797345725372
 51
174.3565202654274344
  0
ARC
  5
B4
100
AcDbEntity
  8
VectorLines_Light_0p003mm
 62
256
370
-1
  6
ByLayer
100
AcDbCircle
 10
-1.9999999999999989
 20
36.0
 30
0.0
 40
0.5
100
AcDbArc
 50
331.1932596676497269
 51
28.8067403323502802
  0
ARC
  5
B5
100
AcDbEntity
  8
VectorLines_Light_0p003mm
 62
256
370
-1
  6
ByLayer
100
AcDbCircle
 10
-3.9999999999999982
 20
36.0
 30
0.0
 40
2.4500000000000002
100
AcDbArc
 50
5.6434797345725594
 51
84.3565202654274913
  0
ARC
  5
B6
100
AcDbEntity
  8
VectorLines_Light_0p003mm
 62
256
370
-1
  6
ByLayer
100
AcDbCircle
 10
3.9999999999999942
 20
36.0
 30
0.0
 40
2.4500000000000002
100
AcDbArc
 50
275.6434797345725656
 51
354.3565202654274344
  0
ARC
  5
B7
100
AcDbEntity
  8
VectorLines_Light_0p003mm
 62
256
370
-1
  6
ByLayer
100
AcDbCircle
 10
1.9999999999999953
 20
36.0
 30
0.0
 40
0.5
100
AcDbArc
 50
151.1932596676497269
 51
208.8067403323502731
  0
ARC
  5
B8
100
AcDbEntity
  8
VectorLines_Light_0p003mm
 62
256
370
-1
  6
ByLayer
100
AcDbCircle
 10
3.9999999999999973
 20
34.0
 30
0.0
 40
0.5
100
AcDbArc
 50
241.1932596676497269
 51
298.8067403323502731
  0
ARC
  5
B9
100
AcDbEntity
  8
VectorLines_Light_0p003mm
 62
256
370
-1
  6
ByLayer
100
AcDbCircle
 10
3.9999999999999942
 20
36.0
 30
0.0
 40
2.4500000000000002
100
AcDbArc
 50
185.6434797345725656
 51
264.3565202654274344
  0
ARC
  5
BA
100
AcDbEntity
  8
VectorLines_Light_0p003mm
 62
256
370
-1
  6
ByLayer
100
AcDbCircle
 10
4.0000000000000044
 20
38.0
 30
0.0
 40
0.5
100
AcDbArc
 50
61.1932596676497198
 51
118.8067403323502731
  0
ARC
  5
BB
100
AcDbEntity
  8
VectorLines_Light_0p003mm
 62
256
370
-1
  6
ByLayer
100
AcDbCircle
 10
3.9999999999999942
 20
36.0
 30
0.0
 40
2.4500000000000002
100
AcDbArc
 50
95.6434797345725372
 51
174.3565202654274344
  0
ARC
  5
BC
100
AcDbEntity
  8
VectorLines_Light_0p003mm
 62
256
370
-1
  6
ByLayer
100
AcDbCircle
 10
6.0000000000000044
 20
36.0
 30
0.0
 40
0.5
100
AcDbArc
 50
331.1932596676497269
 51
28.8067403323502802
  0
ARC
  5
BD
100
AcDbEntity
  8
VectorLines_Light_0p003mm
 62
256
370
-1
  6
ByLayer
100
AcDbCircle
 10
3.9999999999999942
 20
36.0
 30
0.0
 40
2.4500000000000002
100
AcDbArc
 50
5.6434797345725594
 51
84.3565202654274913
  0
ARC
  5
BE
100
AcDbEntity
  8
VectorLines_Light_0p003mm
 62
256
370
-1
  6
ByLayer
100
AcDbCircle
 10
28.0
 20
12.000000000000016
 30
0.0
 40
2.4500000000000002
100
AcDbArc
 50
275.6434797345725656
 51
354.3565202654274344
  0
ARC
  5
BF
100
AcDbEntity
  8
VectorLines_Light_0p003mm
 62
256
370
-1
  6
ByLayer
100
AcDbCircle
 10
26.0
 20
12.0
 30
0.0
 40
0.5
100
AcDbArc
 50
151.1932596676497269
 51
208.8067403323502731
  0
ARC
  5
C0
100
AcDbEntity
  8
VectorLines_Light_0p003mm
 62
256
370
-1
  6
ByLayer
100
AcDbCircle
 10
28.0
 20
10.0000000000000018
 30
0.0
 40
0.5
100
AcDbArc
 50
241.1932596676497269
 51
298.8067403323502731
  0
ARC
  5
C1
100
AcDbEntity
  8
VectorLines_Light_0p003mm
 62
256
370
-1
  6
ByLayer
100
AcDbCircle
 10
28.0
 20
12.000000000000016
 30
0.0
 40
2.4500000000000002
100
AcDbArc
 50
185.6434797345725656
 51
264.3565202654274344
  0
ARC
  5
C2
100
AcDbEntity
  8
VectorLines_Light_0p003mm
 62
256
370
-1
  6
ByLayer
100
AcDbCircle
 10
28.0
 20
14.0000000000000018
 30
0.0
 40
0.5
100
AcDbArc
 50
61.1932596676497198
 51
118.8067403323502731
  0
ARC
  5
C3
100
AcDbEntity
  8
VectorLines_Light_0p003mm
 62
256
370
-1
  6
ByLayer
100
AcDbCircle
 10
28.0
 20
12.000000000000016
 30
0.0
 40
2.4500000000000002
100
AcDbArc
 50
95.6434797345725372
 51
174.3565202654274344
  0
ARC
  5
C4
100
AcDbEntity
  8
VectorLines_Light_0p003mm
 62
256
370
-1
  6
ByLayer
100
AcDbCircle
 10
30.0
 20
11.9999999999999911
 30
0.0
 40
0.5
100
AcDbArc
 50
331.1932596676497269
 51
28.8067403323502802
  0
ARC
  5
C5
100
AcDbEntity
  8
VectorLines_Light_0p003mm
 62
256
370
-1
  6
ByLayer
100
AcDbCircle
 10
28.0
 20
12.000000000000016
 30
0.0
 40
2.4500000000000002
100
AcDbArc
 50
5.6434797345725594
 51
84.3565202654274913
  0
ARC
  5
C6
100
AcDbEntity
  8
VectorLines_Light_0p003mm
 62
256
370
-1
  6
ByLayer
100
AcDbCircle
 10
20.0
 20
12.0000000000000018
 30
0.0
 40
2.4500000000000002
100
AcDbArc
 50
275.6434797345725656
 51
354.3565202654274344
  0
ARC
  5
C7
100
AcDbEntity
  8
VectorLines_Light_0p003mm
 62
256
370
-1
  6
ByLayer
100
AcDbCircle
 10
18.0
 20
12.0000000000000036
 30
0.0
 40
0.5
100
AcDbArc
 50
151.1932596676497269
 51
208.8067403323502731
  0
ARC
  5
C8
100
AcDbEntity
  8
VectorLines_Light_0p003mm
 62
256
370
-1
  6
ByLayer
100
AcDbCircle
 10
20.0
 20
10.0000000000000018
 30
0.0
 40
0.5
100
AcDbArc
 50
241.1932596676497269
 51
298.8067403323502731
  0
ARC
  5
C9
100
AcDbEntity
  8
VectorLines_Light_0p003mm
 62
256
370
-1
  6
ByLayer
100
AcDbCircle
 10
20.0
 20
12.0000000000000018
 30
0.0
 40
2.4500000000000002
100
AcDbArc
 50
185.6434797345725656
 51
264.3565202654274344
  0
ARC
  5
CA
100
AcDbEntity
  8
VectorLines_Light_0p003mm
 62
256
370
-1
  6
ByLayer
100
AcDbCircle
 10
19.9999999999999929
 20
13.9999999999999964
 30
0.0
 40
0.5
100
AcDbArc
 50
61.1932596676497198
 51
118.8067403323502731
  0
ARC
  5
CB
100
AcDbEntity
  8
VectorLines_Light_0p003mm
 62
256
370
-1
  6
ByLayer
100
AcDbCircle
 10
20.0
 20
12.0000000000000018
 30
0.0
 40
2.4500000000000002
100
AcDbArc
 50
95.6434797345725372
 51
174.3565202654274344
  0
ARC
  5
CC
100
AcDbEntity
  8
VectorLines_Light_0p003mm
 62
256
370
-1
  6
ByLayer
100
AcDbCircle
 10
22.0
 20
12.0
 30
0.0
 40
0.5
100
AcDbArc
 50
331.1932596676497269
 51
28.8067403323502802
  0
ARC
  5
CD
100
AcDbEntity
  8
VectorLines_Light_0p003mm
 62
256
370
-1
  6
ByLayer
100
AcDbCircle
 10
20.0
 20
12.0000000000000018
 30
0.0
 40
2.4500000000000002
100
AcDbArc
 50
5.6434797345725594
 51
84.3565202654274913
  0
ARC
  5
CE
100
AcDbEntity
  8
VectorLines_Light_0p003mm
 62
256
370
-1
  6
ByLayer
100
AcDbCircle
 10
20.0
 20
-12.0000000000000018
 30
0.0
 40
2.4500000000000002
100
AcDbArc
 50
275.6434797345725656
 51
354.3565202654274344
  0
ARC
  5
CF
100
AcDbEntity
  8
VectorLines_Light_0p003mm
 62
256
370
-1
  6
ByLayer
100
AcDbCircle
 10
17.9999999999999964
 20
-12.0000000000000107
 30
0.0
 40
0.5
100
AcDbArc
 50
151.1932596676497269
 51
208.8067403323502731
  0
ARC
  5
D0
100
AcDbEntity
  8
VectorLines_Light_0p003mm
 62
256
370
-1
  6
ByLayer
100
AcDbCircle
 10
19.9999999999999893
 20
-14.0000000000000071
 30
0.0
 40
0.5
100
AcDbArc
 50
241.1932596676497269
 51
298.8067403323502731
  0
ARC
  5
D1
100
AcDbEntity
  8
VectorLines_Light_0p003mm
 62
256
370
-1
  6
ByLayer
100
AcDbCircle
 10
20.0
 20
-12.0000000000000018
 30
0.0
 40
2.4500000000000002
100
AcDbArc
 50
185.6434797345725656
 51
264.3565202654274344
  0
ARC
  5
D2
100
AcDbEntity
  8
VectorLines_Light_0p003mm
 62
256
370
-1
  6
ByLayer
100
AcDbCircle
 10
19.9999999999999893
 20
-10.0000000000000231
 30
0.0
 40
0.5
100
AcDbArc
 50
61.1932596676497198
 51
118.8067403323502731
  0
ARC
  5
D3
100
AcDbEntity
  8
VectorLines_Light_0p003mm
 62
256
370
-1
  6
ByLayer
100
AcDbCircle
 10
20.0
 20
-12.0000000000000018
 30
0.0
 40
2.4500000000000002
100
AcDbArc
 50
95.6434797345725372
 51
174.3565202654274344
  0
ARC
  5
D4
100
AcDbEntity
  8
VectorLines_Light_0p003mm
 62
256
370
-1
  6
ByLayer
100
AcDbCircle
 10
22.0
 20
-12.0000000000000018
 30
0.0
 40
0.5
100
AcDbArc
 50
331.1932596676497269
 51
28.8067403323502802
  0
ARC
  5
D5
100
AcDbEntity
  8
VectorLines_Light_0p003mm
 62
256
370
-1
  6
ByLayer
100
AcDbCircle
 10
20.0
 20
-12.0000000000000018
 30
0.0
 40
2.4500000000000002
100
AcDbArc
 50
5.6434797345725594
 51
84.3565202654274913
  0
ARC
  5
D6
100
AcDbEntity
  8
VectorLines_Light_0p003mm
 62
256
370
-1
  6
ByLayer
100
AcDbCircle
 10
28.0
 20
-12.0000000000000053
 30
0.0
 40
2.4500000000000002
100
AcDbArc
 50
275.6434797345725656
 51
354.3565202654274344
  0
ARC
  5
D7
100
AcDbEntity
  8
VectorLines_Light_0p003mm
 62
256
370
-1
  6
ByLayer
100
AcDbCircle
 10
25.9999999999999964
 20
-12.0000000000000107
 30
0.0
 40
0.5
100
AcDbArc
 50
151.1932596676497269
 51
208.8067403323502731
  0
ARC
  5
D8
100
AcDbEntity
  8
VectorLines_Light_0p003mm
 62
256
370
-1
  6
ByLayer
100
AcDbCircle
 10
27.9999999999999964
 20
-14.0000000000000071
 30
0.0
 40
0.5
100
AcDbArc
 50
241.1932596676497269
 51
298.8067403323502731
  0
ARC
  5
D9
100
AcDbEntity
  8
VectorLines_Light_0p003mm
 62
256
370
-1
  6
ByLayer
100
AcDbCircle
 10
28.0
 20
-12.0000000000000053
 30
0.0
 40
2.4500000000000002
100
AcDbArc
 50
185.6434797345725656
 51
264.3565202654274344
  0
ARC
  5
DA
100
AcDbEntity
  8
VectorLines_Light_0p003mm
 62
256
370
-1
  6
ByLayer
100
AcDbCircle
 10
27.9999999999999964
 20
-10.0000000000000124
 30
0.0
 40
0.5
100
AcDbArc
 50
61.1932596676497198
 51
118.8067403323502731
  0
ARC
  5
DB
100
AcDbEntity
  8
VectorLines_Light_0p003mm
 62
256
370
-1
  6
ByLayer
100
AcDbCircle
 10
28.0
 20
-12.0000000000000053
 30
0.0
 40
2.4500000000000002
100
AcDbArc
 50
95.6434797345725372
 51
174.3565202654274344
  0
ARC
  5
DC
100
AcDbEntity
  8
VectorLines_Light_0p003mm
 62
256
370
-1
  6
ByLayer
100
AcDbCircle
 10
29.9999999999999929
 20
-12.0000000000000053
 30
0.0
 40
0.5
100
AcDbArc
 50
331.1932596676497269
 51
28.8067403323502802
  0
ARC
  5
DD
100
AcDbEntity
  8
VectorLines_Light_0p003mm
 62
256
370
-1
  6
ByLayer
100
AcDbCircle
 10
28.0
 20
-12.0000000000000053
 30
0.0
 40
2.4500000000000002
100
AcDbArc
 50
5.6434797345725594
 51
84.3565202654274913
  0
ARC
  5
DE
100
AcDbEntity
  8
VectorLines_Light_0p003mm
 62
256
370
-1
  6
ByLayer
100
AcDbCircle
 10
27.9999999999999751
 20
-36.0000000000000071
 30
0.0
 40
2.4500000000000002
100
AcDbArc
 50
275.6434797345725656
 51
354.3565202654274344
  0
ARC
  5
DF
100
AcDbEntity
  8
VectorLines_Light_0p003mm
 62
256
370
-1
  6
ByLayer
100
AcDbCircle
 10
25.9999999999999929
 20
-36.0000000000000071
 30
0.0
 40
0.5
100
AcDbArc
 50
151.1932596676497269
 51
208.8067403323502731
  0
ARC
  5
E0
100
AcDbEntity
  8
VectorLines_Light_0p003mm
 62
256
370
-1
  6
ByLayer
100
AcDbCircle
 10
27.9999999999999929
 20
-38.0000000000000071
 30
0.0
 40
0.5
100
AcDbArc
 50
241.1932596676497269
 51
298.8067403323502731
  0
ARC
  5
E1
100
AcDbEntity
  8
VectorLines_Light_0p003mm
 62
256
370
-1
  6
ByLayer
100
AcDbCircle
 10
27.9999999999999751
 20
-36.0000000000000071
 30
0.0
 40
2.4500000000000002
100
AcDbArc
 50
185.6434797345725656
 51
264.3565202654274344
  0
ARC
  5
E2
100
AcDbEntity
  8
VectorLines_Light_0p003mm
 62
256
370
-1
  6
ByLayer
100
AcDbCircle
 10
27.9999999999999858
 20
-34.0000000000000071
 30
0.0
 40
0.5
100
AcDbArc
 50
61.1932596676497198
 51
118.8067403323502731
  0
ARC
  5
E3
100
AcDbEntity
  8
VectorLines_Light_0p003mm
 62
256
370
-1
  6
ByLayer
100
AcDbCircle
 10
27.9999999999999751
 20
-36.0000000000000071
 30
0.0
 40
2.4500000000000002
100
AcDbArc
 50
95.6434797345725372
 51
174.3565202654274344
  0
ARC
  5
E4
100
AcDbEntity
  8
VectorLines_Light_0p003mm
 62
256
370
-1
  6
ByLayer
100
AcDbCircle
 10
29.9999999999999822
 20
-36.0000000000000142
 30
0.0
 40
0.5
100
AcDbArc
 50
331.1932596676497269
 51
28.8067403323502802
  0
ARC
  5
E5
100
AcDbEntity
  8
VectorLines_Light_0p003mm
 62
256
370
-1
  6
ByLayer
100
AcDbCircle
 10
27.9999999999999751
 20
-36.0000000000000071
 30
0.0
 40
2.4500000000000002
100
AcDbArc
 50
5.6434797345725594
 51
84.3565202654274913
  0
ARC
  5
E6
100
AcDbEntity
  8
VectorLines_Light_0p003mm
 62
256
370
-1
  6
ByLayer
100
AcDbCircle
 10
19.9999999999999893
 20
-36.0000000000000071
 30
0.0
 40
2.4500000000000002
100
AcDbArc
 50
275.6434797345725656
 51
354.3565202654274344
  0
ARC
  5
E7
100
AcDbEntity
  8
VectorLines_Light_0p003mm
 62
256
370
-1
  6
ByLayer
100
AcDbCircle
 10
18.0
 20
-36.0000000000000142
 30
0.0
 40
0.5
100
AcDbArc
 50
151.1932596676497269
 51
208.8067403323502731
  0
ARC
  5
E8
100
AcDbEntity
  8
VectorLines_Light_0p003mm
 62
256
370
-1
  6
ByLayer
100
AcDbCircle
 10
20.0
 20
-38.0
 30
0.0
 40
0.5
100
AcDbArc
 50
241.1932596676497269
 51
298.8067403323502731
  0
ARC
  5
E9
100
AcDbEntity
  8
VectorLines_Light_0p003mm
 62
256
370
-1
  6
ByLayer
100
AcDbCircle
 10
19.9999999999999893
 20
-36.0000000000000071
 30
0.0
 40
2.4500000000000002
100
AcDbArc
 50
185.6434797345725656
 51
264.3565202654274344
  0
ARC
  5
EA
100
AcDbEntity
  8
VectorLines_Light_0p003mm
 62
256
370
-1
  6
ByLayer
100
AcDbCircle
 10
19.9999999999999822
 20
-34.0000000000000142
 30
0.0
 40
0.5
100
AcDbArc
 50
61.1932596676497198
 51
118.8067403323502731
  0
ARC
  5
EB
100
AcDbEntity
  8
VectorLines_Light_0p003mm
 62
256
370
-1
  6
ByLayer
100
AcDbCircle
 10
19.9999999999999893
 20
-36.0000000000000071
 30
0.0
 40
2.4500000000000002
100
AcDbArc
 50
95.6434797345725372
 51
174.3565202654274344
  0
ARC
  5
EC
100
AcDbEntity
  8
VectorLines_Light_0p003mm
 62
256
370
-1
  6
ByLayer
100
AcDbCircle
 10
21.9999999999999751
 20
-36.0000000000000213
 30
0.0
 40
0.5
100
AcDbArc
 50
331.1932596676497269
 51
28.8067403323502802
  0
ARC
  5
ED
100
AcDbEntity
  8
VectorLines_Light_0p003mm
 62
256
370
-1
  6
ByLayer
100
AcDbCircle
 10
19.9999999999999893
 20
-36.0000000000000071
 30
0.0
 40
2.4500000000000002
100
AcDbArc
 50
5.6434797345725594
 51
84.3565202654274913
  0
ARC
  5
EE
100
AcDbEntity
  8
VectorLines_Light_0p003mm
 62
256
370
-1
  6
ByLayer
100
AcDbCircle
 10
19.9999999999999964
 20
36.0000000000000142
 30
0.0
 40
2.4500000000000002
100
AcDbArc
 50
275.6434797345725656
 51
354.3565202654274344
  0
ARC
  5
EF
100
AcDbEntity
  8
VectorLines_Light_0p003mm
 62
256
370
-1
  6
ByLayer
100
AcDbCircle
 10
18.0
 20
36.0000000000000142
 30
0.0
 40
0.5
100
AcDbArc
 50
151.1932596676497269
 51
208.8067403323502731
  0
ARC
  5
F0
100
AcDbEntity
  8
VectorLines_Light_0p003mm
 62
256
370
-1
  6
ByLayer
100
AcDbCircle
 10
20.0
 20
34.0
 30
0.0
 40
0.5
100
AcDbArc
 50
241.1932596676497269
 51
298.8067403323502731
  0
ARC
  5
F1
100
AcDbEntity
  8
VectorLines_Light_0p003mm
 62
256
370
-1
  6
ByLayer
100
AcDbCircle
 10
19.9999999999999964
 20
36.0000000000000142
 30
0.0
 40
2.4500000000000002
100
AcDbArc
 50
185.6434797345725656
 51
264.3565202654274344
  0
ARC
  5
F2
100
AcDbEntity
  8
VectorLines_Light_0p003mm
 62
256
370
-1
  6
ByLayer
100
AcDbCircle
 10
20.0000000000000071
 20
37.9999999999999929
 30
0.0
 40
0.5
100
AcDbArc
 50
61.1932596676497198
 51
118.8067403323502731
  0
ARC
  5
F3
100
AcDbEntity
  8
VectorLines_Light_0p003mm
 62
256
370
-1
  6
ByLayer
100
AcDbCircle
 10
19.9999999999999964
 20
36.0000000000000142
 30
0.0
 40
2.4500000000000002
100
AcDbArc
 50
95.6434797345725372
 51
174.3565202654274344
  0
ARC
  5
F4
100
AcDbEntity
  8
VectorLines_Light_0p003mm
 62
256
370
-1
  6
ByLayer
100
AcDbCircle
 10
22.0
 20
36.0
 30
0.0
 40
0.5
100
AcDbArc
 50
331.1932596676497269
 51
28.8067403323502802
  0
ARC
  5
F5
100
AcDbEntity
  8
VectorLines_Light_0p003mm
 62
256
370
-1
  6
ByLayer
100
AcDbCircle
 10
19.9999999999999964
 20
36.0000000000000142
 30
0.0
 40
2.4500000000000002
100
AcDbArc
 50
5.6434797345725594
 51
84.3565202654274913
  0
ARC
  5
F6
100
AcDbEntity
  8
VectorLines_Light_0p003mm
 62
256
370
-1
  6
ByLayer
100
AcDbCircle
 10
28.0000000000000107
 20
35.9999999999999929
 30
0.0
 40
2.4500000000000002
100
AcDbArc
 50
275.6434797345725656
 51
354.3565202654274344
  0
ARC
  5
F7
100
AcDbEntity
  8
VectorLines_Light_0p003mm
 62
256
370
-1
  6
ByLayer
100
AcDbCircle
 10
26.0000000000000036
 20
36.0
 30
0.0
 40
0.5
100
AcDbArc
 50
151.1932596676497269
 51
208.8067403323502731
  0
ARC
  5
F8
100
AcDbEntity
  8
VectorLines_Light_0p003mm
 62
256
370
-1
  6
ByLayer
100
AcDbCircle
 10
28.0
 20
34.0
 30
0.0
 40
0.5
100
AcDbArc
 50
241.1932596676497269
 51
298.8067403323502731
  0
ARC
  5
F9
100
AcDbEntity
  8
VectorLines_Light_0p003mm
 62
256
370
-1
  6
ByLayer
100
AcDbCircle
 10
28.0000000000000107
 20
35.9999999999999929
 30
0.0
 40
2.4500000000000002
100
AcDbArc
 50
185.6434797345725656
 51
264.3565202654274344
  0
ARC
  5
FA
100
AcDbEntity
  8
VectorLines_Light_0p003mm
 62
256
370
-1
  6
ByLayer
100
AcDbCircle
 10
28.0000000000000036
 20
38.0000000000000071
 30
0.0
 40
0.5
100
AcDbArc
 50
61.1932596676497198
 51
118.8067403323502731
  0
ARC
  5
FB
100
AcDbEntity
  8
VectorLines_Light_0p003mm
 62
256
370
-1
  6
ByLayer
100
AcDbCircle
 10
28.0000000000000107
 20
35.9999999999999929
 30
0.0
 40
2.4500000000000002
100
AcDbArc
 50
95.6434797345725372
 51
174.3565202654274344
  0
ARC
  5
FC
100
AcDbEntity
  8
VectorLines_Light_0p003mm
 62
256
370
-1
  6
ByLayer
100
AcDbCircle
 10
30.0000000000000107
 20
35.9999999999999858
 30
0.0
 40
0.5
100
AcDbArc
 50
331.1932596676497269
 51
28.8067403323502802
  0
ARC
  5
FD
100
AcDbEntity
  8
VectorLines_Light_0p003mm
 62
256
370
-1
  6
ByLayer
100
AcDbCircle
 10
28.0000000000000107
 20
35.9999999999999929
 30
0.0
 40
2.4500000000000002
100
AcDbArc
 50
5.6434797345725594
 51
84.3565202654274913
  0
ARC
  5
FE
100
AcDbEntity
  8
VectorLines_Light_0p003mm
 62
256
370
-1
  6
ByLayer
100
AcDbCircle
 10
-12.0
 20
28.0000000000000036
 30
0.0
 40
2.4500000000000002
100
AcDbArc
 50
275.6434797345725656
 51
354.3565202654274344
  0
ARC
  5
FF
100
AcDbEntity
  8
VectorLines_Light_0p003mm
 62
256
370
-1
  6
ByLayer
100
AcDbCircle
 10
-14.0
 20
28.0
 30
0.0
 40
0.5
100
AcDbArc
 50
151.1932596676497269
 51
208.8067403323502731
  0
ARC
  5
100
100
AcDbEntity
  8
VectorLines_Light_0p003mm
 62
256
370
-1
  6
ByLayer
100
AcDbCircle
 10
-12.0000000000000018
 20
26.0
 30
0.0
 40
0.5
100
AcDbArc
 50
241.1932596676497269
 51
298.8067403323502731
  0
ARC
  5
101
100
AcDbEntity
  8
VectorLines_Light_0p003mm
 62
256
370
-1
  6
ByLayer
100
AcDbCircle
 10
-12.0
 20
28.0000000000000036
 30
0.0
 40
2.4500000000000002
100
AcDbArc
 50
185.6434797345725656
 51
264.3565202654274344
  0
ARC
  5
102
100
AcDbEntity
  8
VectorLines_Light_0p003mm
 62
256
370
-1
  6
ByLayer
100
AcDbCircle
 10
-11.9999999999999964
 20
29.9999999999999964
 30
0.0
 40
0.5
100
AcDbArc
 50
61.1932596676497198
 51
118.8067403323502731
  0
ARC
  5
103
100
AcDbEntity
  8
VectorLines_Light_0p003mm
 62
256
370
-1
  6
ByLayer
100
AcDbCircle
 10
-12.0
 20
28.0000000000000036
 30
0.0
 40
2.4500000000000002
100
AcDbArc
 50
95.6434797345725372
 51
174.3565202654274344
  0
ARC
  5
104
100
AcDbEntity
  8
VectorLines_Light_0p003mm
 62
256
370
-1
  6
ByLayer
100
AcDbCircle
 10
-9.9999999999999858
 20
28.0000000000000071
 30
0.0
 40
0.5
100
AcDbArc
 50
331.1932596676497269
 51
28.8067403323502802
  0
ARC
  5
105
100
AcDbEntity
  8
VectorLines_Light_0p003mm
 62
256
370
-1
  6
ByLayer
100
AcDbCircle
 10
-12.0
 20
28.0000000000000036
 30
0.0
 40
2.4500000000000002
100
AcDbArc
 50
5.6434797345725594
 51
84.3565202654274913
  0
ARC
  5
106
100
AcDbEntity
  8
VectorLines_Light_0p003mm
 62
256
370
-1
  6
ByLayer
100
AcDbCircle
 10
-11.9999999999999964
 20
20.0000000000000036
 30
0.0
 40
2.4500000000000002
100
AcDbArc
 50
275.6434797345725656
 51
354.3565202654274344
  0
ARC
  5
107
100
AcDbEntity
  8
VectorLines_Light_0p003mm
 62
256
370
-1
  6
ByLayer
100
AcDbCircle
 10
-13.9999999999999911
 20
20.0
 30
0.0
 40
0.5
100
AcDbArc
 50
151.1932596676497269
 51
208.8067403323502731
  0
ARC
  5
108
100
AcDbEntity
  8
VectorLines_Light_0p003mm
 62
256
370
-1
  6
ByLayer
100
AcDbCircle
 10
-11.9999999999999964
 20
18.0000000000000036
 30
0.0
 40
0.5
100
AcDbArc
 50
241.1932596676497269
 51
298.8067403323502731
  0
ARC
  5
109
100
AcDbEntity
  8
VectorLines_Light_0p003mm
 62
256
370
-1
  6
ByLayer
100
AcDbCircle
 10
-11.9999999999999964
 20
20.0000000000000036
 30
0.0
 40
2.4500000000000002
100
AcDbArc
 50
185.6434797345725656
 51
264.3565202654274344
  0
ARC
  5
10A
100
AcDbEntity
  8
VectorLines_Light_0p003mm
 62
256
370
-1
  6
ByLayer
100
AcDbCircle
 10
-11.9999999999999982
 20
22.0000000000000071
 30
0.0
 40
0.5
100
AcDbArc
 50
61.1932596676497198
 51
118.8067403323502731
  0
ARC
  5
10B
100
AcDbEntity
  8
VectorLines_Light_0p003mm
 62
256
370
-1
  6
ByLayer
100
AcDbCircle
 10
-11.9999999999999964
 20
20.0000000000000036
 30
0.0
 40
2.4500000000000002
100
AcDbArc
 50
95.6434797345725372
 51
174.3565202654274344
  0
ARC
  5
10C
100
AcDbEntity
  8
VectorLines_Light_0p003mm
 62
256
370
-1
  6
ByLayer
100
AcDbCircle
 10
-10.0
 20
20.0
 30
0.0
 40
0.5
100
AcDbArc
 50
331.1932596676497269
 51
28.8067403323502802
  0
ARC
  5
10D
100
AcDbEntity
  8
VectorLines_Light_0p003mm
 62
256
370
-1
  6
ByLayer
100
AcDbCircle
 10
-11.9999999999999964
 20
20.0000000000000036
 30
0.0
 40
2.4500000000000002
100
AcDbArc
 50
5.6434797345725594
 51
84.3565202654274913
  0
ARC
  5
10E
100
AcDbEntity
  8
VectorLines_Light_0p003mm
 62
256
370
-1
  6
ByLayer
100
AcDbCircle
 10
12.0000000000000018
 20
28.0000000000000036
 30
0.0
 40
2.4500000000000002
100
AcDbArc
 50
275.6434797345725656
 51
354.3565202654274344
  0
ARC
  5
10F
100
AcDbEntity
  8
VectorLines_Light_0p003mm
 62
256
370
-1
  6
ByLayer
100
AcDbCircle
 10
10.0000000000000018
 20
28.0
 30
0.0
 40
0.5
100
AcDbArc
 50
151.1932596676497269
 51
208.8067403323502731
  0
ARC
  5
110
100
AcDbEntity
  8
VectorLines_Light_0p003mm
 62
256
370
-1
  6
ByLayer
100
AcDbCircle
 10
12.0
 20
26.0
 30
0.0
 40
0.5
100
AcDbArc
 50
241.1932596676497269
 51
298.8067403323502731
  0
ARC
  5
111
100
AcDbEntity
  8
VectorLines_Light_0p003mm
 62
256
370
-1
  6
ByLayer
100
AcDbCircle
 10
12.0000000000000018
 20
28.0000000000000036
 30
0.0
 40
2.4500000000000002
100
AcDbArc
 50
185.6434797345725656
 51
264.3565202654274344
  0
ARC
  5
112
100
AcDbEntity
  8
VectorLines_Light_0p003mm
 62
256
370
-1
  6
ByLayer
100
AcDbCircle
 10
12.0
 20
29.9999999999999964
 30
0.0
 40
0.5
100
AcDbArc
 50
61.1932596676497198
 51
118.8067403323502731
  0
ARC
  5
113
100
AcDbEntity
  8
VectorLines_Light_0p003mm
 62
256
370
-1
  6
ByLayer
100
AcDbCircle
 10
12.0000000000000018
 20
28.0000000000000036
 30
0.0
 40
2.4500000000000002
100
AcDbArc
 50
95.6434797345725372
 51
174.3565202654274344
  0
ARC
  5
114
100
AcDbEntity
  8
VectorLines_Light_0p003mm
 62
256
370
-1
  6
ByLayer
100
AcDbCircle
 10
13.9999999999999964
 20
28.0000000000000036
 30
0.0
 40
0.5
100
AcDbArc
 50
331.1932596676497269
 51
28.8067403323502802
  0
ARC
  5
115
100
AcDbEntity
  8
VectorLines_Light_0p003mm
 62
256
370
-1
  6
ByLayer
100
AcDbCircle
 10
12.0000000000000018
 20
28.0000000000000036
 30
0.0
 40
2.4500000000000002
100
AcDbArc
 50
5.6434797345725594
 51
84.3565202654274913
  0
ARC
  5
116
100
AcDbEntity
  8
VectorLines_Light_0p003mm
 62
256
370
-1
  6
ByLayer
100
AcDbCircle
 10
12.0000000000000018
 20
20.0
 30
0.0
 40
2.4500000000000002
100
AcDbArc
 50
275.6434797345725656
 51
354.3565202654274344
  0
ARC
  5
117
100
AcDbEntity
  8
VectorLines_Light_0p003mm
 62
256
370
-1
  6
ByLayer
100
AcDbCircle
 10
9.9999999999999982
 20
20.0000000000000036
 30
0.0
 40
0.5
100
AcDbArc
 50
151.1932596676497269
 51
208.8067403323502731
  0
ARC
  5
118
100
AcDbEntity
  8
VectorLines_Light_0p003mm
 62
256
370
-1
  6
ByLayer
100
AcDbCircle
 10
11.9999999999999982
 20
18.0000000000000036
 30
0.0
 40
0.5
100
AcDbArc
 50
241.1932596676497269
 51
298.8067403323502731
  0
ARC
  5
119
100
AcDbEntity
  8
VectorLines_Light_0p003mm
 62
256
370
-1
  6
ByLayer
100
AcDbCircle
 10
12.0000000000000018
 20
20.0
 30
0.0
 40
2.4500000000000002
100
AcDbArc
 50
185.6434797345725656
 51
264.3565202654274344
  0
ARC
  5
11A
100
AcDbEntity
  8
VectorLines_Light_0p003mm
 62
256
370
-1
  6
ByLayer
100
AcDbCircle
 10
12.0000000000000071
 20
21.9999999999999929
 30
0.0
 40
0.5
100
AcDbArc
 50
61.1932596676497198
 51
118.8067403323502731
  0
ARC
  5
11B
100
AcDbEntity
  8
VectorLines_Light_0p003mm
 62
256
370
-1
  6
ByLayer
100
AcDbCircle
 10
12.0000000000000018
 20
20.0
 30
0.0
 40
2.4500000000000002
100
AcDbArc
 50
95.6434797345725372
 51
174.3565202654274344
  0
ARC
  5
11C
100
AcDbEntity
  8
VectorLines_Light_0p003mm
 62
256
370
-1
  6
ByLayer
100
AcDbCircle
 10
13.9999999999999982
 20
20.0
 30
0.0
 40
0.5
100
AcDbArc
 50
331.1932596676497269
 51
28.8067403323502802
  0
ARC
  5
11D
100
AcDbEntity
  8
VectorLines_Light_0p003mm
 62
256
370
-1
  6
ByLayer
100
AcDbCircle
 10
12.0000000000000018
 20
20.0
 30
0.0
 40
2.4500000000000002
100
AcDbArc
 50
5.6434797345725594
 51
84.3565202654274913
  0
ARC
  5
11E
100
AcDbEntity
  8
VectorLines_Light_0p003mm
 62
256
370
-1
  6
ByLayer
100
AcDbCircle
 10
36.0
 20
27.9999999999999929
 30
0.0
 40
2.4500000000000002
100
AcDbArc
 50
275.6434797345725656
 51
354.3565202654274344
  0
ARC
  5
11F
100
AcDbEntity
  8
VectorLines_Light_0p003mm
 62
256
370
-1
  6
ByLayer
100
AcDbCircle
 10
34.0
 20
27.9999999999999929
 30
0.0
 40
0.5
100
AcDbArc
 50
151.1932596676497269
 51
208.8067403323502731
  0
ARC
  5
120
100
AcDbEntity
  8
VectorLines_Light_0p003mm
 62
256
370
-1
  6
ByLayer
100
AcDbCircle
 10
36.0
 20
26.0
 30
0.0
 40
0.5
100
AcDbArc
 50
241.1932596676497269
 51
298.8067403323502731
  0
ARC
  5
121
100
AcDbEntity
  8
VectorLines_Light_0p003mm
 62
256
370
-1
  6
ByLayer
100
AcDbCircle
 10
36.0
 20
27.9999999999999929
 30
0.0
 40
2.4500000000000002
100
AcDbArc
 50
185.6434797345725656
 51
264.3565202654274344
  0
ARC
  5
122
100
AcDbEntity
  8
VectorLines_Light_0p003mm
 62
256
370
-1
  6
ByLayer
100
AcDbCircle
 10
36.0
 20
29.9999999999999964
 30
0.0
 40
0.5
100
AcDbArc
 50
61.1932596676497198
 51
118.8067403323502731
  0
ARC
  5
123
100
AcDbEntity
  8
VectorLines_Light_0p003mm
 62
256
370
-1
  6
ByLayer
100
AcDbCircle
 10
36.0
 20
27.9999999999999929
 30
0.0
 40
2.4500000000000002
100
AcDbArc
 50
95.6434797345725372
 51
174.3565202654274344
  0
ARC
  5
124
100
AcDbEntity
  8
VectorLines_Light_0p003mm
 62
256
370
-1
  6
ByLayer
100
AcDbCircle
 10
38.0
 20
28.0000000000000036
 30
0.0
 40
0.5
100
AcDbArc
 50
331.1932596676497269
 51
28.8067403323502802
  0
ARC
  5
125
100
AcDbEntity
  8
VectorLines_Light_0p003mm
 62
256
370
-1
  6
ByLayer
100
AcDbCircle
 10
36.0
 20
27.9999999999999929
 30
0.0
 40
2.4500000000000002
100
AcDbArc
 50
5.6434797345725594
 51
84.3565202654274913
  0
ARC
  5
126
100
AcDbEntity
  8
VectorLines_Light_0p003mm
 62
256
370
-1
  6
ByLayer
100
AcDbCircle
 10
36.0
 20
20.0000000000000071
 30
0.0
 40
2.4500000000000002
100
AcDbArc
 50
275.6434797345725656
 51
354.3565202654274344
  0
ARC
  5
127
100
AcDbEntity
  8
VectorLines_Light_0p003mm
 62
256
370
-1
  6
ByLayer
100
AcDbCircle
 10
34.0
 20
20.0
 30
0.0
 40
0.5
100
AcDbArc
 50
151.1932596676497269
 51
208.8067403323502731
  0
ARC
  5
128
100
AcDbEntity
  8
VectorLines_Light_0p003mm
 62
256
370
-1
  6
ByLayer
100
AcDbCircle
 10
36.0
 20
18.0000000000000036
 30
0.0
 40
0.5
100
AcDbArc
 50
241.1932596676497269
 51
298.8067403323502731
  0
ARC
  5
129
100
AcDbEntity
  8
VectorLines_Light_0p003mm
 62
256
370
-1
  6
ByLayer
100
AcDbCircle
 10
36.0
 20
20.0000000000000071
 30
0.0
 40
2.4500000000000002
100
AcDbArc
 50
185.6434797345725656
 51
264.3565202654274344
  0
ARC
  5
12A
100
AcDbEntity
  8
VectorLines_Light_0p003mm
 62
256
370
-1
  6
ByLayer
100
AcDbCircle
 10
36.0
 20
22.0
 30
0.0
 40
0.5
100
AcDbArc
 50
61.1932596676497198
 51
118.8067403323502731
  0
ARC
  5
12B
100
AcDbEntity
  8
VectorLines_Light_0p003mm
 62
256
370
-1
  6
ByLayer
100
AcDbCircle
 10
36.0
 20
20.0000000000000071
 30
0.0
 40
2.4500000000000002
100
AcDbArc
 50
95.6434797345725372
 51
174.3565202654274344
  0
ARC
  5
12C
100
AcDbEntity
  8
VectorLines_Light_0p003mm
 62
256
370
-1
  6
ByLayer
100
AcDbCircle
 10
38.0
 20
20.0
 30
0.0
 40
0.5
100
AcDbArc
 50
331.1932596676497269
 51
28.8067403323502802
  0
ARC
  5
12D
100
AcDbEntity
  8
VectorLines_Light_0p003mm
 62
256
370
-1
  6
ByLayer
100
AcDbCircle
 10
36.0
 20
20.0000000000000071
 30
0.0
 40
2.4500000000000002
100
AcDbArc
 50
5.6434797345725594
 51
84.3565202654274913
  0
ARC
  5
12E
100
AcDbEntity
  8
VectorLines_Light_0p003mm
 62
256
370
-1
  6
ByLayer
100
AcDbCircle
 10
-35.9999999999999929
 20
28.0000000000000107
 30
0.0
 40
2.4500000000000002
100
AcDbArc
 50
275.6434797345725656
 51
354.3565202654274344
  0
ARC
  5
12F
100
AcDbEntity
  8
VectorLines_Light_0p003mm
 62
256
370
-1
  6
ByLayer
100
AcDbCircle
 10
-37.9999999999999929
 20
28.0000000000000036
 30
0.0
 40
0.5
100
AcDbArc
 50
151.1932596676497269
 51
208.8067403323502731
  0
ARC
  5
130
100
AcDbEntity
  8
VectorLines_Light_0p003mm
 62
256
370
-1
  6
ByLayer
100
AcDbCircle
 10
-35.9999999999999929
 20
26.0000000000000107
 30
0.0
 40
0.5
100
AcDbArc
 50
241.1932596676497269
 51
298.8067403323502731
  0
ARC
  5
131
100
AcDbEntity
  8
VectorLines_Light_0p003mm
 62
256
370
-1
  6
ByLayer
100
AcDbCircle
 10
-35.9999999999999929
 20
28.0000000000000107
 30
0.0
 40
2.4500000000000002
100
AcDbArc
 50
185.6434797345725656
 51
264.3565202654274344
  0
ARC
  5
132
100
AcDbEntity
  8
VectorLines_Light_0p003mm
 62
256
370
-1
  6
ByLayer
100
AcDbCircle
 10
-36.0000000000000071
 20
29.9999999999999893
 30
0.0
 40
0.5
100
AcDbArc
 50
61.1932596676497198
 51
118.8067403323502731
  0
ARC
  5
133
100
AcDbEntity
  8
VectorLines_Light_0p003mm
 62
256
370
-1
  6
ByLayer
100
AcDbCircle
 10
-35.9999999999999929
 20
28.0000000000000107
 30
0.0
 40
2.4500000000000002
100
AcDbArc
 50
95.6434797345725372
 51
174.3565202654274344
  0
ARC
  5
134
100
AcDbEntity
  8
VectorLines_Light_0p003mm
 62
256
370
-1
  6
ByLayer
100
AcDbCircle
 10
-34.0
 20
27.9999999999999929
 30
0.0
 40
0.5
100
AcDbArc
 50
331.1932596676497269
 51
28.8067403323502802
  0
ARC
  5
135
100
AcDbEntity
  8
VectorLines_Light_0p003mm
 62
256
370
-1
  6
ByLayer
100
AcDbCircle
 10
-35.9999999999999929
 20
28.0000000000000107
 30
0.0
 40
2.4500000000000002
100
AcDbArc
 50
5.6434797345725594
 51
84.3565202654274913
  0
ARC
  5
136
100
AcDbEntity
  8
VectorLines_Light_0p003mm
 62
256
370
-1
  6
ByLayer
100
AcDbCircle
 10
-36.0000000000000071
 20
20.0000000000000036
 30
0.0
 40
2.4500000000000002
100
AcDbArc
 50
275.6434797345725656
 51
354.3565202654274344
  0
ARC
  5
137
100
AcDbEntity
  8
VectorLines_Light_0p003mm
 62
256
370
-1
  6
ByLayer
100
AcDbCircle
 10
-37.9999999999999929
 20
20.0000000000000107
 30
0.0
 40
0.5
100
AcDbArc
 50
151.1932596676497269
 51
208.8067403323502731
  0
ARC
  5
138
100
AcDbEntity
  8
VectorLines_Light_0p003mm
 62
256
370
-1
  6
ByLayer
100
AcDbCircle
 10
-36.0
 20
18.0000000000000071
 30
0.0
 40
0.5
100
AcDbArc
 50
241.1932596676497269
 51
298.8067403323502731
  0
ARC
  5
139
100
AcDbEntity
  8
VectorLines_Light_0p003mm
 62
256
370
-1
  6
ByLayer
100
AcDbCircle
 10
-36.0000000000000071
 20
20.0000000000000036
 30
0.0
 40
2.4500000000000002
100
AcDbArc
 50
185.6434797345725656
 51
264.3565202654274344
  0
ARC
  5
13A
100
AcDbEntity
  8
VectorLines_Light_0p003mm
 62
256
370
-1
  6
ByLayer
100
AcDbCircle
 10
-36.0
 20
22.0
 30
0.0
 40
0.5
100
AcDbArc
 50
61.1932596676497198
 51
118.8067403323502731
  0
ARC
  5
13B
100
AcDbEntity
  8
VectorLines_Light_0p003mm
 62
256
370
-1
  6
ByLayer
100
AcDbCircle
 10
-36.0000000000000071
 20
20.0000000000000036
 30
0.0
 40
2.4500000000000002
100
AcDbArc
 50
95.6434797345725372
 51
174.3565202654274344
  0
ARC
  5
13C
100
AcDbEntity
  8
VectorLines_Light_0p003mm
 62
256
370
-1
  6
ByLayer
100
AcDbCircle
 10
-33.9999999999999858
 20
20.0000000000000036
 30
0.0
 40
0.5
100
AcDbArc
 50
331.1932596676497269
 51
28.8067403323502802
  0
ARC
  5
13D
100
AcDbEntity
  8
VectorLines_Light_0p003mm
 62
256
370
-1
  6
ByLayer
100
AcDbCircle
 10
-36.0000000000000071
 20
20.0000000000000036
 30
0.0
 40
2.4500000000000002
100
AcDbArc
 50
5.6434797345725594
 51
84.3565202654274913
  0
ARC
  5
13E
100
AcDbEntity
  8
VectorLines_Light_0p003mm
 62
256
370
-1
  6
ByLayer
100
AcDbCircle
 10
-19.9999999999999929
 20
28.0000000000000036
 30
0.0
 40
2.4500000000000002
100
AcDbArc
 50
275.6434797345725656
 51
354.3565202654274344
  0
ARC
  5
13F
100
AcDbEntity
  8
VectorLines_Light_0p003mm
 62
256
370
-1
  6
ByLayer
100
AcDbCircle
 10
-21.9999999999999964
 20
28.0000000000000071
 30
0.0
 40
0.5
100
AcDbArc
 50
151.1932596676497269
 51
208.8067403323502731
  0
ARC
  5
140
100
AcDbEntity
  8
VectorLines_Light_0p003mm
 62
256
370
-1
  6
ByLayer
100
AcDbCircle
 10
-19.9999999999999858
 20
26.0000000000000178
 30
0.0
 40
0.5
100
AcDbArc
 50
241.1932596676497269
 51
298.8067403323502731
  0
ARC
  5
141
100
AcDbEntity
  8
VectorLines_Light_0p003mm
 62
256
370
-1
  6
ByLayer
100
AcDbCircle
 10
-19.9999999999999929
 20
28.0000000000000036
 30
0.0
 40
2.4500000000000002
100
AcDbArc
 50
185.6434797345725656
 51
264.3565202654274344
  0
ARC
  5
142
100
AcDbEntity
  8
VectorLines_Light_0p003mm
 62
256
370
-1
  6
ByLayer
100
AcDbCircle
 10
-20.0000000000000036
 20
29.9999999999999964
 30
0.0
 40
0.5
100
AcDbArc
 50
61.1932596676497198
 51
118.8067403323502731
  0
ARC
  5
143
100
AcDbEntity
  8
VectorLines_Light_0p003mm
 62
256
370
-1
  6
ByLayer
100
AcDbCircle
 10
-19.9999999999999929
 20
28.0000000000000036
 30
0.0
 40
2.4500000000000002
100
AcDbArc
 50
95.6434797345725372
 51
174.3565202654274344
  0
ARC
  5
144
100
AcDbEntity
  8
VectorLines_Light_0p003mm
 62
256
370
-1
  6
ByLayer
100
AcDbCircle
 10
-18.0
 20
28.0
 30
0.0
 40
0.5
100
AcDbArc
 50
331.1932596676497269
 51
28.8067403323502802
  0
ARC
  5
145
100
AcDbEntity
  8
VectorLines_Light_0p003mm
 62
256
370
-1
  6
ByLayer
100
AcDbCircle
 10
-19.9999999999999929
 20
28.0000000000000036
 30
0.0
 40
2.4500000000000002
100
AcDbArc
 50
5.6434797345725594
 51
84.3565202654274913
  0
ARC
  5
146
100
AcDbEntity
  8
VectorLines_Light_0p003mm
 62
256
370
-1
  6
ByLayer
100
AcDbCircle
 10
-27.9999999999999964
 20
28.0000000000000036
 30
0.0
 40
2.4500000000000002
100
AcDbArc
 50
275.6434797345725656
 51
354.3565202654274344
  0
ARC
  5
147
100
AcDbEntity
  8
VectorLines_Light_0p003mm
 62
256
370
-1
  6
ByLayer
100
AcDbCircle
 10
-29.9999999999999964
 20
28.0000000000000036
 30
0.0
 40
0.5
100
AcDbArc
 50
151.1932596676497269
 51
208.8067403323502731
  0
ARC
  5
148
100
AcDbEntity
  8
VectorLines_Light_0p003mm
 62
256
370
-1
  6
ByLayer
100
AcDbCircle
 10
-27.9999999999999964
 20
26.0
 30
0.0
 40
0.5
100
AcDbArc
 50
241.1932596676497269
 51
298.8067403323502731
  0
ARC
  5
149
100
AcDbEntity
  8
VectorLines_Light_0p003mm
 62
256
370
-1
  6
ByLayer
100
AcDbCircle
 10
-27.9999999999999964
 20
28.0000000000000036
 30
0.0
 40
2.4500000000000002
100
AcDbArc
 50
185.6434797345725656
 51
264.3565202654274344
  0
ARC
  5
14A
100
AcDbEntity
  8
VectorLines_Light_0p003mm
 62
256
370
-1
  6
ByLayer
100
AcDbCircle
 10
-28.0
 20
30.0000000000000036
 30
0.0
 40
0.5
100
AcDbArc
 50
61.1932596676497198
 51
118.8067403323502731
  0
ARC
  5
14B
100
AcDbEntity
  8
VectorLines_Light_0p003mm
 62
256
370
-1
  6
ByLayer
100
AcDbCircle
 10
-27.9999999999999964
 20
28.0000000000000036
 30
0.0
 40
2.4500000000000002
100
AcDbArc
 50
95.6434797345725372
 51
174.3565202654274344
  0
ARC
  5
14C
100
AcDbEntity
  8
VectorLines_Light_0p003mm
 62
256
370
-1
  6
ByLayer
100
AcDbCircle
 10
-25.9999999999999893
 20
27.9999999999999964
 30
0.0
 40
0.5
100
AcDbArc
 50
331.1932596676497269
 51
28.8067403323502802
  0
ARC
  5
14D
100
AcDbEntity
  8
VectorLines_Light_0p003mm
 62
256
370
-1
  6
ByLayer
100
AcDbCircle
 10
-27.9999999999999964
 20
28.0000000000000036
 30
0.0
 40
2.4500000000000002
100
AcDbArc
 50
5.6434797345725594
 51
84.3565202654274913
  0
ARC
  5
14E
100
AcDbEntity
  8
VectorLines_Light_0p003mm
 62
256
370
-1
  6
ByLayer
100
AcDbCircle
 10
-28.0
 20
20.0000000000000036
 30
0.0
 40
2.4500000000000002
100
AcDbArc
 50
275.6434797345725656
 51
354.3565202654274344
  0
ARC
  5
14F
100
AcDbEntity
  8
VectorLines_Light_0p003mm
 62
256
370
-1
  6
ByLayer
100
AcDbCircle
 10
-30.0
 20
19.9999999999999964
 30
0.0
 40
0.5
100
AcDbArc
 50
151.1932596676497269
 51
208.8067403323502731
  0
ARC
  5
150
100
AcDbEntity
  8
VectorLines_Light_0p003mm
 62
256
370
-1
  6
ByLayer
100
AcDbCircle
 10
-27.9999999999999964
 20
18.0000000000000036
 30
0.0
 40
0.5
100
AcDbArc
 50
241.1932596676497269
 51
298.8067403323502731
  0
ARC
  5
151
100
AcDbEntity
  8
VectorLines_Light_0p003mm
 62
256
370
-1
  6
ByLayer
100
AcDbCircle
 10
-28.0
 20
20.0000000000000036
 30
0.0
 40
2.4500000000000002
100
AcDbArc
 50
185.6434797345725656
 51
264.3565202654274344
  0
ARC
  5
152
100
AcDbEntity
  8
VectorLines_Light_0p003mm
 62
256
370
-1
  6
ByLayer
100
AcDbCircle
 10
-28.0000000000000036
 20
22.0
 30
0.0
 40
0.5
100
AcDbArc
 50
61.1932596676497198
 51
118.8067403323502731
  0
ARC
  5
153
100
AcDbEntity
  8
VectorLines_Light_0p003mm
 62
256
370
-1
  6
ByLayer
100
AcDbCircle
 10
-28.0
 20
20.0000000000000036
 30
0.0
 40
2.4500000000000002
100
AcDbArc
 50
95.6434797345725372
 51
174.3565202654274344
  0
ARC
  5
154
100
AcDbEntity
  8
VectorLines_Light_0p003mm
 62
256
370
-1
  6
ByLayer
100
AcDbCircle
 10
-25.9999999999999929
 20
20.0000000000000142
 30
0.0
 40
0.5
100
AcDbArc
 50
331.1932596676497269
 51
28.8067403323502802
  0
ARC
  5
155
100
AcDbEntity
  8
VectorLines_Light_0p003mm
 62
256
370
-1
  6
ByLayer
100
AcDbCircle
 10
-28.0
 20
20.0000000000000036
 30
0.0
 40
2.4500000000000002
100
AcDbArc
 50
5.6434797345725594
 51
84.3565202654274913
  0
ARC
  5
156
100
AcDbEntity
  8
VectorLines_Light_0p003mm
 62
256
370
-1
  6
ByLayer
100
AcDbCircle
 10
-20.0
 20
20.0000000000000036
 30
0.0
 40
2.4500000000000002
100
AcDbArc
 50
275.6434797345725656
 51
354.3565202654274344
  0
ARC
  5
157
100
AcDbEntity
  8
VectorLines_Light_0p003mm
 62
256
370
-1
  6
ByLayer
100
AcDbCircle
 10
-21.9999999999999893
 20
20.0000000000000107
 30
0.0
 40
0.5
100
AcDbArc
 50
151.1932596676497269
 51
208.8067403323502731
  0
ARC
  5
158
100
AcDbEntity
  8
VectorLines_Light_0p003mm
 62
256
370
-1
  6
ByLayer
100
AcDbCircle
 10
-20.0
 20
17.9999999999999964
 30
0.0
 40
0.5
100
AcDbArc
 50
241.1932596676497269
 51
298.8067403323502731
  0
ARC
  5
159
100
AcDbEntity
  8
VectorLines_Light_0p003mm
 62
256
370
-1
  6
ByLayer
100
AcDbCircle
 10
-20.0
 20
20.0000000000000036
 30
0.0
 40
2.4500000000000002
100
AcDbArc
 50
185.6434797345725656
 51
264.3565202654274344
  0
ARC
  5
15A
100
AcDbEntity
  8
VectorLines_Light_0p003mm
 62
256
370
-1
  6
ByLayer
100
AcDbCircle
 10
-20.0
 20
22.0000000000000071
 30
0.0
 40
0.5
100
AcDbArc
 50
61.1932596676497198
 51
118.8067403323502731
  0
ARC
  5
15B
100
AcDbEntity
  8
VectorLines_Light_0p003mm
 62
256
370
-1
  6
ByLayer
100
AcDbCircle
 10
-20.0
 20
20.0000000000000036
 30
0.0
 40
2.4500000000000002
100
AcDbArc
 50
95.6434797345725372
 51
174.3565202654274344
  0
ARC
  5
15C
100
AcDbEntity
  8
VectorLines_Light_0p003mm
 62
256
370
-1
  6
ByLayer
100
AcDbCircle
 10
-18.0
 20
20.0
 30
0.0
 40
0.5
100
AcDbArc
 50
331.1932596676497269
 51
28.8067403323502802
  0
ARC
  5
15D
100
AcDbEntity
  8
VectorLines_Light_0p003mm
 62
256
370
-1
  6
ByLayer
100
AcDbCircle
 10
-20.0
 20
20.0000000000000036
 30
0.0
 40
2.4500000000000002
100
AcDbArc
 50
5.6434797345725594
 51
84.3565202654274913
  0
ARC
  5
15E
100
AcDbEntity
  8
VectorLines_Light_0p003mm
 62
256
370
-1
  6
ByLayer
100
AcDbCircle
 10
-3.999999999999996
 20
28.0000000000000071
 30
0.0
 40
2.4500000000000002
100
AcDbArc
 50
275.6434797345725656
 51
354.3565202654274344
  0
ARC
  5
15F
100
AcDbEntity
  8
VectorLines_Light_0p003mm
 62
256
370
-1
  6
ByLayer
100
AcDbCircle
 10
-5.9999999999999911
 20
28.0000000000000071
 30
0.0
 40
0.5
100
AcDbArc
 50
151.1932596676497269
 51
208.8067403323502731
  0
ARC
  5
160
100
AcDbEntity
  8
VectorLines_Light_0p003mm
 62
256
370
-1
  6
ByLayer
100
AcDbCircle
 10
-3.9999999999999947
 20
26.0
 30
0.0
 40
0.5
100
AcDbArc
 50
241.1932596676497269
 51
298.8067403323502731
  0
ARC
  5
161
100
AcDbEntity
  8
VectorLines_Light_0p003mm
 62
256
370
-1
  6
ByLayer
100
AcDbCircle
 10
-3.999999999999996
 20
28.0000000000000071
 30
0.0
 40
2.4500000000000002
100
AcDbArc
 50
185.6434797345725656
 51
264.3565202654274344
  0
ARC
  5
162
100
AcDbEntity
  8
VectorLines_Light_0p003mm
 62
256
370
-1
  6
ByLayer
100
AcDbCircle
 10
-4.0000000000000027
 20
30.0
 30
0.0
 40
0.5
100
AcDbArc
 50
61.1932596676497198
 51
118.8067403323502731
  0
ARC
  5
163
100
AcDbEntity
  8
VectorLines_Light_0p003mm
 62
256
370
-1
  6
ByLayer
100
AcDbCircle
 10
-3.999999999999996
 20
28.0000000000000071
 30
0.0
 40
2.4500000000000002
100
AcDbArc
 50
95.6434797345725372
 51
174.3565202654274344
  0
ARC
  5
164
100
AcDbEntity
  8
VectorLines_Light_0p003mm
 62
256
370
-1
  6
ByLayer
100
AcDbCircle
 10
-1.9999999999999905
 20
28.0
 30
0.0
 40
0.5
100
AcDbArc
 50
331.1932596676497269
 51
28.8067403323502802
  0
ARC
  5
165
100
AcDbEntity
  8
VectorLines_Light_0p003mm
 62
256
370
-1
  6
ByLayer
100
AcDbCircle
 10
-3.999999999999996
 20
28.0000000000000071
 30
0.0
 40
2.4500000000000002
100
AcDbArc
 50
5.6434797345725594
 51
84.3565202654274913
  0
ARC
  5
166
100
AcDbEntity
  8
VectorLines_Light_0p003mm
 62
256
370
-1
  6
ByLayer
100
AcDbCircle
 10
-3.9999999999999964
 20
20.0
 30
0.0
 40
2.4500000000000002
100
AcDbArc
 50
275.6434797345725656
 51
354.3565202654274344
  0
ARC
  5
167
100
AcDbEntity
  8
VectorLines_Light_0p003mm
 62
256
370
-1
  6
ByLayer
100
AcDbCircle
 10
-5.9999999999999929
 20
20.0000000000000036
 30
0.0
 40
0.5
100
AcDbArc
 50
151.1932596676497269
 51
208.8067403323502731
  0
ARC
  5
168
100
AcDbEntity
  8
VectorLines_Light_0p003mm
 62
256
370
-1
  6
ByLayer
100
AcDbCircle
 10
-3.9999999999999982
 20
18.0
 30
0.0
 40
0.5
100
AcDbArc
 50
241.1932596676497269
 51
298.8067403323502731
  0
ARC
  5
169
100
AcDbEntity
  8
VectorLines_Light_0p003mm
 62
256
370
-1
  6
ByLayer
100
AcDbCircle
 10
-3.9999999999999964
 20
20.0
 30
0.0
 40
2.4500000000000002
100
AcDbArc
 50
185.6434797345725656
 51
264.3565202654274344
  0
ARC
  5
16A
100
AcDbEntity
  8
VectorLines_Light_0p003mm
 62
256
370
-1
  6
ByLayer
100
AcDbCircle
 10
-3.9999999999999951
 20
22.0000000000000036
 30
0.0
 40
0.5
100
AcDbArc
 50
61.1932596676497198
 51
118.8067403323502731
  0
ARC
  5
16B
100
AcDbEntity
  8
VectorLines_Light_0p003mm
 62
256
370
-1
  6
ByLayer
100
AcDbCircle
 10
-3.9999999999999964
 20
20.0
 30
0.0
 40
2.4500000000000002
100
AcDbArc
 50
95.6434797345725372
 51
174.3565202654274344
  0
ARC
  5
16C
100
AcDbEntity
  8
VectorLines_Light_0p003mm
 62
256
370
-1
  6
ByLayer
100
AcDbCircle
 10
-2.0
 20
20.0
 30
0.0
 40
0.5
100
AcDbArc
 50
331.1932596676497269
 51
28.8067403323502802
  0
ARC
  5
16D
100
AcDbEntity
  8
VectorLines_Light_0p003mm
 62
256
370
-1
  6
ByLayer
100
AcDbCircle
 10
-3.9999999999999964
 20
20.0
 30
0.0
 40
2.4500000000000002
100
AcDbArc
 50
5.6434797345725594
 51
84.3565202654274913
  0
ARC
  5
16E
100
AcDbEntity
  8
VectorLines_Light_0p003mm
 62
256
370
-1
  6
ByLayer
100
AcDbCircle
 10
3.9999999999999991
 20
28.0000000000000071
 30
0.0
 40
2.4500000000000002
100
AcDbArc
 50
275.6434797345725656
 51
354.3565202654274344
  0
ARC
  5
16F
100
AcDbEntity
  8
VectorLines_Light_0p003mm
 62
256
370
-1
  6
ByLayer
100
AcDbCircle
 10
1.9999999999999998
 20
28.0
 30
0.0
 40
0.5
100
AcDbArc
 50
151.1932596676497269
 51
208.8067403323502731
  0
ARC
  5
170
100
AcDbEntity
  8
VectorLines_Light_0p003mm
 62
256
370
-1
  6
ByLayer
100
AcDbCircle
 10
3.9999999999999978
 20
26.0
 30
0.0
 40
0.5
100
AcDbArc
 50
241.1932596676497269
 51
298.8067403323502731
  0
ARC
  5
171
100
AcDbEntity
  8
VectorLines_Light_0p003mm
 62
256
370
-1
  6
ByLayer
100
AcDbCircle
 10
3.9999999999999991
 20
28.0000000000000071
 30
0.0
 40
2.4500000000000002
100
AcDbArc
 50
185.6434797345725656
 51
264.3565202654274344
  0
ARC
  5
172
100
AcDbEntity
  8
VectorLines_Light_0p003mm
 62
256
370
-1
  6
ByLayer
100
AcDbCircle
 10
3.9999999999999991
 20
30.0
 30
0.0
 40
0.5
100
AcDbArc
 50
61.1932596676497198
 51
118.8067403323502731
  0
ARC
  5
173
100
AcDbEntity
  8
VectorLines_Light_0p003mm
 62
256
370
-1
  6
ByLayer
100
AcDbCircle
 10
3.9999999999999991
 20
28.0000000000000071
 30
0.0
 40
2.4500000000000002
100
AcDbArc
 50
95.6434797345725372
 51
174.3565202654274344
  0
ARC
  5
174
100
AcDbEntity
  8
VectorLines_Light_0p003mm
 62
256
370
-1
  6
ByLayer
100
AcDbCircle
 10
5.9999999999999938
 20
28.0000000000000036
 30
0.0
 40
0.5
100
AcDbArc
 50
331.1932596676497269
 51
28.8067403323502802
  0
ARC
  5
175
100
AcDbEntity
  8
VectorLines_Light_0p003mm
 62
256
370
-1
  6
ByLayer
100
AcDbCircle
 10
3.9999999999999991
 20
28.0000000000000071
 30
0.0
 40
2.4500000000000002
100
AcDbArc
 50
5.6434797345725594
 51
84.3565202654274913
  0
ARC
  5
176
100
AcDbEntity
  8
VectorLines_Light_0p003mm
 62
256
370
-1
  6
ByLayer
100
AcDbCircle
 10
3.9999999999999942
 20
20.0
 30
0.0
 40
2.4500000000000002
100
AcDbArc
 50
275.6434797345725656
 51
354.3565202654274344
  0
ARC
  5
177
100
AcDbEntity
  8
VectorLines_Light_0p003mm
 62
256
370
-1
  6
ByLayer
100
AcDbCircle
 10
1.9999999999999978
 20
20.0
 30
0.0
 40
0.5
100
AcDbArc
 50
151.1932596676497269
 51
208.8067403323502731
  0
ARC
  5
178
100
AcDbEntity
  8
VectorLines_Light_0p003mm
 62
256
370
-1
  6
ByLayer
100
AcDbCircle
 10
4.0
 20
18.0
 30
0.0
 40
0.5
100
AcDbArc
 50
241.1932596676497269
 51
298.8067403323502731
  0
ARC
  5
179
100
AcDbEntity
  8
VectorLines_Light_0p003mm
 62
256
370
-1
  6
ByLayer
100
AcDbCircle
 10
3.9999999999999942
 20
20.0
 30
0.0
 40
2.4500000000000002
100
AcDbArc
 50
185.6434797345725656
 51
264.3565202654274344
  0
ARC
  5
17A
100
AcDbEntity
  8
VectorLines_Light_0p003mm
 62
256
370
-1
  6
ByLayer
100
AcDbCircle
 10
4.0000000000000027
 20
22.0
 30
0.0
 40
0.5
100
AcDbArc
 50
61.1932596676497198
 51
118.8067403323502731
  0
ARC
  5
17B
100
AcDbEntity
  8
VectorLines_Light_0p003mm
 62
256
370
-1
  6
ByLayer
100
AcDbCircle
 10
3.9999999999999942
 20
20.0
 30
0.0
 40
2.4500000000000002
100
AcDbArc
 50
95.6434797345725372
 51
174.3565202654274344
  0
ARC
  5
17C
100
AcDbEntity
  8
VectorLines_Light_0p003mm
 62
256
370
-1
  6
ByLayer
100
AcDbCircle
 10
6.0
 20
20.0
 30
0.0
 40
0.5
100
AcDbArc
 50
331.1932596676497269
 51
28.8067403323502802
  0
ARC
  5
17D
100
AcDbEntity
  8
VectorLines_Light_0p003mm
 62
256
370
-1
  6
ByLayer
100
AcDbCircle
 10
3.9999999999999942
 20
20.0
 30
0.0
 40
2.4500000000000002
100
AcDbArc
 50
5.6434797345725594
 51
84.3565202654274913
  0
ARC
  5
17E
100
AcDbEntity
  8
VectorLines_Light_0p003mm
 62
256
370
-1
  6
ByLayer
100
AcDbCircle
 10
28.0000000000000036
 20
27.9999999999999964
 30
0.0
 40
2.4500000000000002
100
AcDbArc
 50
275.6434797345725656
 51
354.3565202654274344
  0
ARC
  5
17F
100
AcDbEntity
  8
VectorLines_Light_0p003mm
 62
256
370
-1
  6
ByLayer
100
AcDbCircle
 10
26.0000000000000107
 20
27.9999999999999893
 30
0.0
 40
0.5
100
AcDbArc
 50
151.1932596676497269
 51
208.8067403323502731
  0
ARC
  5
180
100
AcDbEntity
  8
VectorLines_Light_0p003mm
 62
256
370
-1
  6
ByLayer
100
AcDbCircle
 10
28.0
 20
25.9999999999999893
 30
0.0
 40
0.5
100
AcDbArc
 50
241.1932596676497269
 51
298.8067403323502731
  0
ARC
  5
181
100
AcDbEntity
  8
VectorLines_Light_0p003mm
 62
256
370
-1
  6
ByLayer
100
AcDbCircle
 10
28.0000000000000036
 20
27.9999999999999964
 30
0.0
 40
2.4500000000000002
100
AcDbArc
 50
185.6434797345725656
 51
264.3565202654274344
  0
ARC
  5
182
100
AcDbEntity
  8
VectorLines_Light_0p003mm
 62
256
370
-1
  6
ByLayer
100
AcDbCircle
 10
28.0
 20
30.0000000000000036
 30
0.0
 40
0.5
100
AcDbArc
 50
61.1932596676497198
 51
118.8067403323502731
  0
ARC
  5
183
100
AcDbEntity
  8
VectorLines_Light_0p003mm
 62
256
370
-1
  6
ByLayer
100
AcDbCircle
 10
28.0000000000000036
 20
27.9999999999999964
 30
0.0
 40
2.4500000000000002
100
AcDbArc
 50
95.6434797345725372
 51
174.3565202654274344
  0
ARC
  5
184
100
AcDbEntity
  8
VectorLines_Light_0p003mm
 62
256
370
-1
  6
ByLayer
100
AcDbCircle
 10
29.9999999999999964
 20
28.0000000000000036
 30
0.0
 40
0.5
100
AcDbArc
 50
331.1932596676497269
 51
28.8067403323502802
  0
ARC
  5
185
100
AcDbEntity
  8
VectorLines_Light_0p003mm
 62
256
370
-1
  6
ByLayer
100
AcDbCircle
 10
28.0000000000000036
 20
27.9999999999999964
 30
0.0
 40
2.4500000000000002
100
AcDbArc
 50
5.6434797345725594
 51
84.3565202654274913
  0
ARC
  5
186
100
AcDbEntity
  8
VectorLines_Light_0p003mm
 62
256
370
-1
  6
ByLayer
100
AcDbCircle
 10
20.0000000000000036
 20
27.9999999999999964
 30
0.0
 40
2.4500000000000002
100
AcDbArc
 50
275.6434797345725656
 51
354.3565202654274344
  0
ARC
  5
187
100
AcDbEntity
  8
VectorLines_Light_0p003mm
 62
256
370
-1
  6
ByLayer
100
AcDbCircle
 10
18.0000000000000036
 20
27.9999999999999964
 30
0.0
 40
0.5
100
AcDbArc
 50
151.1932596676497269
 51
208.8067403323502731
  0
ARC
  5
188
100
AcDbEntity
  8
VectorLines_Light_0p003mm
 62
256
370
-1
  6
ByLayer
100
AcDbCircle
 10
20.0000000000000071
 20
26.0000000000000071
 30
0.0
 40
0.5
100
AcDbArc
 50
241.1932596676497269
 51
298.8067403323502731
  0
ARC
  5
189
100
AcDbEntity
  8
VectorLines_Light_0p003mm
 62
256
370
-1
  6
ByLayer
100
AcDbCircle
 10
20.0000000000000036
 20
27.9999999999999964
 30
0.0
 40
2.4500000000000002
100
AcDbArc
 50
185.6434797345725656
 51
264.3565202654274344
  0
ARC
  5
18A
100
AcDbEntity
  8
VectorLines_Light_0p003mm
 62
256
370
-1
  6
ByLayer
100
AcDbCircle
 10
20.0000000000000142
 20
29.9999999999999893
 30
0.0
 40
0.5
100
AcDbArc
 50
61.1932596676497198
 51
118.8067403323502731
  0
ARC
  5
18B
100
AcDbEntity
  8
VectorLines_Light_0p003mm
 62
256
370
-1
  6
ByLayer
100
AcDbCircle
 10
20.0000000000000036
 20
27.9999999999999964
 30
0.0
 40
2.4500000000000002
100
AcDbArc
 50
95.6434797345725372
 51
174.3565202654274344
  0
ARC
  5
18C
100
AcDbEntity
  8
VectorLines_Light_0p003mm
 62
256
370
-1
  6
ByLayer
100
AcDbCircle
 10
22.0
 20
28.0000000000000036
 30
0.0
 40
0.5
100
AcDbArc
 50
331.1932596676497269
 51
28.8067403323502802
  0
ARC
  5
18D
100
AcDbEntity
  8
VectorLines_Light_0p003mm
 62
256
370
-1
  6
ByLayer
100
AcDbCircle
 10
20.0000000000000036
 20
27.9999999999999964
 30
0.0
 40
2.4500000000000002
100
AcDbArc
 50
5.6434797345725594
 51
84.3565202654274913
  0
ARC
  5
18E
100
AcDbEntity
  8
VectorLines_Light_0p003mm
 62
256
370
-1
  6
ByLayer
100
AcDbCircle
 10
20.0
 20
20.0000000000000036
 30
0.0
 40
2.4500000000000002
100
AcDbArc
 50
275.6434797345725656
 51
354.3565202654274344
  0
ARC
  5
18F
100
AcDbEntity
  8
VectorLines_Light_0p003mm
 62
256
370
-1
  6
ByLayer
100
AcDbCircle
 10
18.0000000000000071
 20
20.0
 30
0.0
 40
0.5
100
AcDbArc
 50
151.1932596676497269
 51
208.8067403323502731
  0
ARC
  5
190
100
AcDbEntity
  8
VectorLines_Light_0p003mm
 62
256
370
-1
  6
ByLayer
100
AcDbCircle
 10
20.0
 20
17.9999999999999964
 30
0.0
 40
0.5
100
AcDbArc
 50
241.1932596676497269
 51
298.8067403323502731
  0
ARC
  5
191
100
AcDbEntity
  8
VectorLines_Light_0p003mm
 62
256
370
-1
  6
ByLayer
100
AcDbCircle
 10
20.0
 20
20.0000000000000036
 30
0.0
 40
2.4500000000000002
100
AcDbArc
 50
185.6434797345725656
 51
264.3565202654274344
  0
ARC
  5
192
100
AcDbEntity
  8
VectorLines_Light_0p003mm
 62
256
370
-1
  6
ByLayer
100
AcDbCircle
 10
20.0
 20
22.0000000000000071
 30
0.0
 40
0.5
100
AcDbArc
 50
61.1932596676497198
 51
118.8067403323502731
  0
ARC
  5
193
100
AcDbEntity
  8
VectorLines_Light_0p003mm
 62
256
370
-1
  6
ByLayer
100
AcDbCircle
 10
20.0
 20
20.0000000000000036
 30
0.0
 40
2.4500000000000002
100
AcDbArc
 50
95.6434797345725372
 51
174.3565202654274344
  0
ARC
  5
194
100
AcDbEntity
  8
VectorLines_Light_0p003mm
 62
256
370
-1
  6
ByLayer
100
AcDbCircle
 10
22.0
 20
20.0000000000000036
 30
0.0
 40
0.5
100
AcDbArc
 50
331.1932596676497269
 51
28.8067403323502802
  0
ARC
  5
195
100
AcDbEntity
  8
VectorLines_Light_0p003mm
 62
256
370
-1
  6
ByLayer
100
AcDbCircle
 10
20.0
 20
20.0000000000000036
 30
0.0
 40
2.4500000000000002
100
AcDbArc
 50
5.6434797345725594
 51
84.3565202654274913
  0
ARC
  5
196
100
AcDbEntity
  8
VectorLines_Light_0p003mm
 62
256
370
-1
  6
ByLayer
100
AcDbCircle
 10
28.0
 20
19.9999999999999964
 30
0.0
 40
2.4500000000000002
100
AcDbArc
 50
275.6434797345725656
 51
354.3565202654274344
  0
ARC
  5
197
100
AcDbEntity
  8
VectorLines_Light_0p003mm
 62
256
370
-1
  6
ByLayer
100
AcDbCircle
 10
26.0
 20
20.0000000000000071
 30
0.0
 40
0.5
100
AcDbArc
 50
151.1932596676497269
 51
208.8067403323502731
  0
ARC
  5
198
100
AcDbEntity
  8
VectorLines_Light_0p003mm
 62
256
370
-1
  6
ByLayer
100
AcDbCircle
 10
28.0
 20
18.0000000000000036
 30
0.0
 40
0.5
100
AcDbArc
 50
241.1932596676497269
 51
298.8067403323502731
  0
ARC
  5
199
100
AcDbEntity
  8
VectorLines_Light_0p003mm
 62
256
370
-1
  6
ByLayer
100
AcDbCircle
 10
28.0
 20
19.9999999999999964
 30
0.0
 40
2.4500000000000002
100
AcDbArc
 50
185.6434797345725656
 51
264.3565202654274344
  0
ARC
  5
19A
100
AcDbEntity
  8
VectorLines_Light_0p003mm
 62
256
370
-1
  6
ByLayer
100
AcDbCircle
 10
28.0000000000000036
 20
22.0
 30
0.0
 40
0.5
100
AcDbArc
 50
61.1932596676497198
 51
118.8067403323502731
  0
ARC
  5
19B
100
AcDbEntity
  8
VectorLines_Light_0p003mm
 62
256
370
-1
  6
ByLayer
100
AcDbCircle
 10
28.0
 20
19.9999999999999964
 30
0.0
 40
2.4500000000000002
100
AcDbArc
 50
95.6434797345725372
 51
174.3565202654274344
  0
ARC
  5
19C
100
AcDbEntity
  8
VectorLines_Light_0p003mm
 62
256
370
-1
  6
ByLayer
100
AcDbCircle
 10
30.0
 20
19.9999999999999964
 30
0.0
 40
0.5
100
AcDbArc
 50
331.1932596676497269
 51
28.8067403323502802
  0
ARC
  5
19D
100
AcDbEntity
  8
VectorLines_Light_0p003mm
 62
256
370
-1
  6
ByLayer
100
AcDbCircle
 10
28.0
 20
19.9999999999999964
 30
0.0
 40
2.4500000000000002
100
AcDbArc
 50
5.6434797345725594
 51
84.3565202654274913
  0
ARC
  5
19E
100
AcDbEntity
  8
VectorLines_Light_0p003mm
 62
256
370
-1
  6
ByLayer
100
AcDbCircle
 10
-36.0
 20
4.0000000000000773
 30
0.0
 40
2.4500000000000002
100
AcDbArc
 50
275.6434797345725656
 51
354.3565202654274344
  0
ARC
  5
19F
100
AcDbEntity
  8
VectorLines_Light_0p003mm
 62
256
370
-1
  6
ByLayer
100
AcDbCircle
 10
-38.0
 20
3.9999999999999729
 30
0.0
 40
0.5
100
AcDbArc
 50
151.1932596676497269
 51
208.8067403323502731
  0
ARC
  5
1A0
100
AcDbEntity
  8
VectorLines_Light_0p003mm
 62
256
370
-1
  6
ByLayer
100
AcDbCircle
 10
-36.0
 20
1.9999999999999576
 30
0.0
 40
0.5
100
AcDbArc
 50
241.1932596676497269
 51
298.8067403323502731
  0
ARC
  5
1A1
100
AcDbEntity
  8
VectorLines_Light_0p003mm
 62
256
370
-1
  6
ByLayer
100
AcDbCircle
 10
-36.0
 20
4.0000000000000773
 30
0.0
 40
2.4500000000000002
100
AcDbArc
 50
185.6434797345725656
 51
264.3565202654274344
  0
ARC
  5
1A2
100
AcDbEntity
  8
VectorLines_Light_0p003mm
 62
256
370
-1
  6
ByLayer
100
AcDbCircle
 10
-36.0
 20
6.0000000000000062
 30
0.0
 40
0.5
100
AcDbArc
 50
61.1932596676497198
 51
118.8067403323502731
  0
ARC
  5
1A3
100
AcDbEntity
  8
VectorLines_Light_0p003mm
 62
256
370
-1
  6
ByLayer
100
AcDbCircle
 10
-36.0
 20
4.0000000000000773
 30
0.0
 40
2.4500000000000002
100
AcDbArc
 50
95.6434797345725372
 51
174.3565202654274344
  0
ARC
  5
1A4
100
AcDbEntity
  8
VectorLines_Light_0p003mm
 62
256
370
-1
  6
ByLayer
100
AcDbCircle
 10
-34.0
 20
4.0000000000000151
 30
0.0
 40
0.5
100
AcDbArc
 50
331.1932596676497269
 51
28.8067403323502802
  0
ARC
  5
1A5
100
AcDbEntity
  8
VectorLines_Light_0p003mm
 62
256
370
-1
  6
ByLayer
100
AcDbCircle
 10
-36.0
 20
4.0000000000000773
 30
0.0
 40
2.4500000000000002
100
AcDbArc
 50
5.6434797345725594
 51
84.3565202654274913
  0
ARC
  5
1A6
100
AcDbEntity
  8
VectorLines_Light_0p003mm
 62
256
370
-1
  6
ByLayer
100
AcDbCircle
 10
-36.0
 20
-4.0000000000000355
 30
0.0
 40
2.4500000000000002
100
AcDbArc
 50
275.6434797345725656
 51
354.3565202654274344
  0
ARC
  5
1A7
100
AcDbEntity
  8
VectorLines_Light_0p003mm
 62
256
370
-1
  6
ByLayer
100
AcDbCircle
 10
-38.0
 20
-3.9999999999999636
 30
0.0
 40
0.5
100
AcDbArc
 50
151.1932596676497269
 51
208.8067403323502731
  0
ARC
  5
1A8
100
AcDbEntity
  8
VectorLines_Light_0p003mm
 62
256
370
-1
  6
ByLayer
100
AcDbCircle
 10
-36.0
 20
-5.9999999999999991
 30
0.0
 40
0.5
100
AcDbArc
 50
241.1932596676497269
 51
298.8067403323502731
  0
ARC
  5
1A9
100
AcDbEntity
  8
VectorLines_Light_0p003mm
 62
256
370
-1
  6
ByLayer
100
AcDbCircle
 10
-36.0
 20
-4.0000000000000355
 30
0.0
 40
2.4500000000000002
100
AcDbArc
 50
185.6434797345725656
 51
264.3565202654274344
  0
ARC
  5
1AA
100
AcDbEntity
  8
VectorLines_Light_0p003mm
 62
256
370
-1
  6
ByLayer
100
AcDbCircle
 10
-36.0
 20
-1.9999999999999487
 30
0.0
 40
0.5
100
AcDbArc
 50
61.1932596676497198
 51
118.8067403323502731
  0
ARC
  5
1AB
100
AcDbEntity
  8
VectorLines_Light_0p003mm
 62
256
370
-1
  6
ByLayer
100
AcDbCircle
 10
-36.0
 20
-4.0000000000000355
 30
0.0
 40
2.4500000000000002
100
AcDbArc
 50
95.6434797345725372
 51
174.3565202654274344
  0
ARC
  5
1AC
100
AcDbEntity
  8
VectorLines_Light_0p003mm
 62
256
370
-1
  6
ByLayer
100
AcDbCircle
 10
-34.0
 20
-4.0000000000000062
 30
0.0
 40
0.5
100
AcDbArc
 50
331.1932596676497269
 51
28.8067403323502802
  0
ARC
  5
1AD
100
AcDbEntity
  8
VectorLines_Light_0p003mm
 62
256
370
-1
  6
ByLayer
100
AcDbCircle
 10
-36.0
 20
-4.0000000000000355
 30
0.0
 40
2.4500000000000002
100
AcDbArc
 50
5.6434797345725594
 51
84.3565202654274913
  0
ARC
  5
1AE
100
AcDbEntity
  8
VectorLines_Light_0p003mm
 62
256
370
-1
  6
ByLayer
100
AcDbCircle
 10
-12.0
 20
4.0000000000000009
 30
0.0
 40
2.4500000000000002
100
AcDbArc
 50
275.6434797345725656
 51
354.3565202654274344
  0
ARC
  5
1AF
100
AcDbEntity
  8
VectorLines_Light_0p003mm
 62
256
370
-1
  6
ByLayer
100
AcDbCircle
 10
-14.0
 20
4.0000000000000098
 30
0.0
 40
0.5
100
AcDbArc
 50
151.1932596676497269
 51
208.8067403323502731
  0
ARC
  5
1B0
100
AcDbEntity
  8
VectorLines_Light_0p003mm
 62
256
370
-1
  6
ByLayer
100
AcDbCircle
 10
-12.0
 20
2.0000000000000018
 30
0.0
 40
0.5
100
AcDbArc
 50
241.1932596676497269
 51
298.8067403323502731
  0
ARC
  5
1B1
100
AcDbEntity
  8
VectorLines_Light_0p003mm
 62
256
370
-1
  6
ByLayer
100
AcDbCircle
 10
-12.0
 20
4.0000000000000009
 30
0.0
 40
2.4500000000000002
100
AcDbArc
 50
185.6434797345725656
 51
264.3565202654274344
  0
ARC
  5
1B2
100
AcDbEntity
  8
VectorLines_Light_0p003mm
 62
256
370
-1
  6
ByLayer
100
AcDbCircle
 10
-12.0
 20
6.0000000000000027
 30
0.0
 40
0.5
100
AcDbArc
 50
61.1932596676497198
 51
118.8067403323502731
  0
ARC
  5
1B3
100
AcDbEntity
  8
VectorLines_Light_0p003mm
 62
256
370
-1
  6
ByLayer
100
AcDbCircle
 10
-12.0
 20
4.0000000000000009
 30
0.0
 40
2.4500000000000002
100
AcDbArc
 50
95.6434797345725372
 51
174.3565202654274344
  0
ARC
  5
1B4
100
AcDbEntity
  8
VectorLines_Light_0p003mm
 62
256
370
-1
  6
ByLayer
100
AcDbCircle
 10
-10.0
 20
3.9999999999999969
 30
0.0
 40
0.5
100
AcDbArc
 50
331.1932596676497269
 51
28.8067403323502802
  0
ARC
  5
1B5
100
AcDbEntity
  8
VectorLines_Light_0p003mm
 62
256
370
-1
  6
ByLayer
100
AcDbCircle
 10
-12.0
 20
4.0000000000000009
 30
0.0
 40
2.4500000000000002
100
AcDbArc
 50
5.6434797345725594
 51
84.3565202654274913
  0
ARC
  5
1B6
100
AcDbEntity
  8
VectorLines_Light_0p003mm
 62
256
370
-1
  6
ByLayer
100
AcDbCircle
 10
12.0
 20
4.0000000000000018
 30
0.0
 40
2.4500000000000002
100
AcDbArc
 50
275.6434797345725656
 51
354.3565202654274344
  0
ARC
  5
1B7
100
AcDbEntity
  8
VectorLines_Light_0p003mm
 62
256
370
-1
  6
ByLayer
100
AcDbCircle
 10
10.0
 20
3.9999999999999973
 30
0.0
 40
0.5
100
AcDbArc
 50
151.1932596676497269
 51
208.8067403323502731
  0
ARC
  5
1B8
100
AcDbEntity
  8
VectorLines_Light_0p003mm
 62
256
370
-1
  6
ByLayer
100
AcDbCircle
 10
12.0
 20
1.9999999999999989
 30
0.0
 40
0.5
100
AcDbArc
 50
241.1932596676497269
 51
298.8067403323502731
  0
ARC
  5
1B9
100
AcDbEntity
  8
VectorLines_Light_0p003mm
 62
256
370
-1
  6
ByLayer
100
AcDbCircle
 10
12.0
 20
4.0000000000000018
 30
0.0
 40
2.4500000000000002
100
AcDbArc
 50
185.6434797345725656
 51
264.3565202654274344
  0
ARC
  5
1BA
100
AcDbEntity
  8
VectorLines_Light_0p003mm
 62
256
370
-1
  6
ByLayer
100
AcDbCircle
 10
12.0
 20
6.0000000000000009
 30
0.0
 40
0.5
100
AcDbArc
 50
61.1932596676497198
 51
118.8067403323502731
  0
ARC
  5
1BB
100
AcDbEntity
  8
VectorLines_Light_0p003mm
 62
256
370
-1
  6
ByLayer
100
AcDbCircle
 10
12.0
 20
4.0000000000000018
 30
0.0
 40
2.4500000000000002
100
AcDbArc
 50
95.6434797345725372
 51
174.3565202654274344
  0
ARC
  5
1BC
100
AcDbEntity
  8
VectorLines_Light_0p003mm
 62
256
370
-1
  6
ByLayer
100
AcDbCircle
 10
14.0
 20
3.9999999999999996
 30
0.0
 40
0.5
100
AcDbArc
 50
331.1932596676497269
 51
28.8067403323502802
  0
ARC
  5
1BD
100
AcDbEntity
  8
VectorLines_Light_0p003mm
 62
256
370
-1
  6
ByLayer
100
AcDbCircle
 10
12.0
 20
4.0000000000000018
 30
0.0
 40
2.4500000000000002
100
AcDbArc
 50
5.6434797345725594
 51
84.3565202654274913
  0
ARC
  5
1BE
100
AcDbEntity
  8
VectorLines_Light_0p003mm
 62
256
370
-1
  6
ByLayer
100
AcDbCircle
 10
12.0
 20
-4.0000000000000027
 30
0.0
 40
2.4500000000000002
100
AcDbArc
 50
275.6434797345725656
 51
354.3565202654274344
  0
ARC
  5
1BF
100
AcDbEntity
  8
VectorLines_Light_0p003mm
 62
256
370
-1
  6
ByLayer
100
AcDbCircle
 10
9.9999999999999982
 20
-4.0000000000000018
 30
0.0
 40
0.5
100
AcDbArc
 50
151.1932596676497269
 51
208.8067403323502731
  0
ARC
  5
1C0
100
AcDbEntity
  8
VectorLines_Light_0p003mm
 62
256
370
-1
  6
ByLayer
100
AcDbCircle
 10
11.9999999999999982
 20
-6.0000000000000036
 30
0.0
 40
0.5
100
AcDbArc
 50
241.1932596676497269
 51
298.8067403323502731
  0
ARC
  5
1C1
100
AcDbEntity
  8
VectorLines_Light_0p003mm
 62
256
370
-1
  6
ByLayer
100
AcDbCircle
 10
12.0
 20
-4.0000000000000027
 30
0.0
 40
2.4500000000000002
100
AcDbArc
 50
185.6434797345725656
 51
264.3565202654274344
  0
ARC
  5
1C2
100
AcDbEntity
  8
VectorLines_Light_0p003mm
 62
256
370
-1
  6
ByLayer
100
AcDbCircle
 10
11.9999999999999964
 20
-2.0000000000000036
 30
0.0
 40
0.5
100
AcDbArc
 50
61.1932596676497198
 51
118.8067403323502731
  0
ARC
  5
1C3
100
AcDbEntity
  8
VectorLines_Light_0p003mm
 62
256
370
-1
  6
ByLayer
100
AcDbCircle
 10
12.0
 20
-4.0000000000000027
 30
0.0
 40
2.4500000000000002
100
AcDbArc
 50
95.6434797345725372
 51
174.3565202654274344
  0
ARC
  5
1C4
100
AcDbEntity
  8
VectorLines_Light_0p003mm
 62
256
370
-1
  6
ByLayer
100
AcDbCircle
 10
13.9999999999999982
 20
-4.0000000000000044
 30
0.0
 40
0.5
100
AcDbArc
 50
331.1932596676497269
 51
28.8067403323502802
  0
ARC
  5
1C5
100
AcDbEntity
  8
VectorLines_Light_0p003mm
 62
256
370
-1
  6
ByLayer
100
AcDbCircle
 10
12.0
 20
-4.0000000000000027
 30
0.0
 40
2.4500000000000002
100
AcDbArc
 50
5.6434797345725594
 51
84.3565202654274913
  0
ARC
  5
1C6
100
AcDbEntity
  8
VectorLines_Light_0p003mm
 62
256
370
-1
  6
ByLayer
100
AcDbCircle
 10
-12.0000000000000036
 20
-3.9999999999999987
 30
0.0
 40
2.4500000000000002
100
AcDbArc
 50
275.6434797345725656
 51
354.3565202654274344
  0
ARC
  5
1C7
100
AcDbEntity
  8
VectorLines_Light_0p003mm
 62
256
370
-1
  6
ByLayer
100
AcDbCircle
 10
-14.0
 20
-3.9999999999999996
 30
0.0
 40
0.5
100
AcDbArc
 50
151.1932596676497269
 51
208.8067403323502731
  0
ARC
  5
1C8
100
AcDbEntity
  8
VectorLines_Light_0p003mm
 62
256
370
-1
  6
ByLayer
100
AcDbCircle
 10
-12.0000000000000036
 20
-6.0
 30
0.0
 40
0.5
100
AcDbArc
 50
241.1932596676497269
 51
298.8067403323502731
  0
ARC
  5
1C9
100
AcDbEntity
  8
VectorLines_Light_0p003mm
 62
256
370
-1
  6
ByLayer
100
AcDbCircle
 10
-12.0000000000000036
 20
-3.9999999999999987
 30
0.0
 40
2.4500000000000002
100
AcDbArc
 50
185.6434797345725656
 51
264.3565202654274344
  0
ARC
  5
1CA
100
AcDbEntity
  8
VectorLines_Light_0p003mm
 62
256
370
-1
  6
ByLayer
100
AcDbCircle
 10
-12.0
 20
-1.9999999999999996
 30
0.0
 40
0.5
100
AcDbArc
 50
61.1932596676497198
 51
118.8067403323502731
  0
ARC
  5
1CB
100
AcDbEntity
  8
VectorLines_Light_0p003mm
 62
256
370
-1
  6
ByLayer
100
AcDbCircle
 10
-12.0000000000000036
 20
-3.9999999999999987
 30
0.0
 40
2.4500000000000002
100
AcDbArc
 50
95.6434797345725372
 51
174.3565202654274344
  0
ARC
  5
1CC
100
AcDbEntity
  8
VectorLines_Light_0p003mm
 62
256
370
-1
  6
ByLayer
100
AcDbCircle
 10
-10.0000000000000018
 20
-3.9999999999999942
 30
0.0
 40
0.5
100
AcDbArc
 50
331.1932596676497269
 51
28.8067403323502802
  0
ARC
  5
1CD
100
AcDbEntity
  8
VectorLines_Light_0p003mm
 62
256
370
-1
  6
ByLayer
100
AcDbCircle
 10
-12.0000000000000036
 20
-3.9999999999999987
 30
0.0
 40
2.4500000000000002
100
AcDbArc
 50
5.6434797345725594
 51
84.3565202654274913
  0
ARC
  5
1CE
100
AcDbEntity
  8
VectorLines_Light_0p003mm
 62
256
370
-1
  6
ByLayer
100
AcDbCircle
 10
36.0
 20
4.0000000000000355
 30
0.0
 40
2.4500000000000002
100
AcDbArc
 50
275.6434797345725656
 51
354.3565202654274344
  0
ARC
  5
1CF
100
AcDbEntity
  8
VectorLines_Light_0p003mm
 62
256
370
-1
  6
ByLayer
100
AcDbCircle
 10
34.0
 20
4.0000000000000107
 30
0.0
 40
0.5
100
AcDbArc
 50
151.1932596676497269
 51
208.8067403323502731
  0
ARC
  5
1D0
100
AcDbEntity
  8
VectorLines_Light_0p003mm
 62
256
370
-1
  6
ByLayer
100
AcDbCircle
 10
36.0
 20
1.9999999999999558
 30
0.0
 40
0.5
100
AcDbArc
 50
241.1932596676497269
 51
298.8067403323502731
  0
ARC
  5
1D1
100
AcDbEntity
  8
VectorLines_Light_0p003mm
 62
256
370
-1
  6
ByLayer
100
AcDbCircle
 10
36.0
 20
4.0000000000000355
 30
0.0
 40
2.4500000000000002
100
AcDbArc
 50
185.6434797345725656
 51
264.3565202654274344
  0
ARC
  5
1D2
100
AcDbEntity
  8
VectorLines_Light_0p003mm
 62
256
370
-1
  6
ByLayer
100
AcDbCircle
 10
36.0
 20
5.9999999999999973
 30
0.0
 40
0.5
100
AcDbArc
 50
61.1932596676497198
 51
118.8067403323502731
  0
ARC
  5
1D3
100
AcDbEntity
  8
VectorLines_Light_0p003mm
 62
256
370
-1
  6
ByLayer
100
AcDbCircle
 10
36.0
 20
4.0000000000000355
 30
0.0
 40
2.4500000000000002
100
AcDbArc
 50
95.6434797345725372
 51
174.3565202654274344
  0
ARC
  5
1D4
100
AcDbEntity
  8
VectorLines_Light_0p003mm
 62
256
370
-1
  6
ByLayer
100
AcDbCircle
 10
38.0
 20
3.9999999999999658
 30
0.0
 40
0.5
100
AcDbArc
 50
331.1932596676497269
 51
28.8067403323502802
  0
ARC
  5
1D5
100
AcDbEntity
  8
VectorLines_Light_0p003mm
 62
256
370
-1
  6
ByLayer
100
AcDbCircle
 10
36.0
 20
4.0000000000000355
 30
0.0
 40
2.4500000000000002
100
AcDbArc
 50
5.6434797345725594
 51
84.3565202654274913
  0
ARC
  5
1D6
100
AcDbEntity
  8
VectorLines_Light_0p003mm
 62
256
370
-1
  6
ByLayer
100
AcDbCircle
 10
36.0
 20
-4.0000000000000817
 30
0.0
 40
2.4500000000000002
100
AcDbArc
 50
275.6434797345725656
 51
354.3565202654274344
  0
ARC
  5
1D7
100
AcDbEntity
  8
VectorLines_Light_0p003mm
 62
256
370
-1
  6
ByLayer
100
AcDbCircle
 10
34.0
 20
-4.0000000000000044
 30
0.0
 40
0.5
100
AcDbArc
 50
151.1932596676497269
 51
208.8067403323502731
  0
ARC
  5
1D8
100
AcDbEntity
  8
VectorLines_Light_0p003mm
 62
256
370
-1
  6
ByLayer
100
AcDbCircle
 10
35.9999999999999929
 20
-6.0000000000000435
 30
0.0
 40
0.5
100
AcDbArc
 50
241.1932596676497269
 51
298.8067403323502731
  0
ARC
  5
1D9
100
AcDbEntity
  8
VectorLines_Light_0p003mm
 62
256
370
-1
  6
ByLayer
100
AcDbCircle
 10
36.0
 20
-4.0000000000000817
 30
0.0
 40
2.4500000000000002
100
AcDbArc
 50
185.6434797345725656
 51
264.3565202654274344
  0
ARC
  5
1DA
100
AcDbEntity
  8
VectorLines_Light_0p003mm
 62
256
370
-1
  6
ByLayer
100
AcDbCircle
 10
36.0
 20
-1.9999999999999618
 30
0.0
 40
0.5
100
AcDbArc
 50
61.1932596676497198
 51
118.8067403323502731
  0
ARC
  5
1DB
100
AcDbEntity
  8
VectorLines_Light_0p003mm
 62
256
370
-1
  6
ByLayer
100
AcDbCircle
 10
36.0
 20
-4.0000000000000817
 30
0.0
 40
2.4500000000000002
100
AcDbArc
 50
95.6434797345725372
 51
174.3565202654274344
  0
ARC
  5
1DC
100
AcDbEntity
  8
VectorLines_Light_0p003mm
 62
256
370
-1
  6
ByLayer
100
AcDbCircle
 10
38.0
 20
-3.9999999999999778
 30
0.0
 40
0.5
100
AcDbArc
 50
331.1932596676497269
 51
28.8067403323502802
  0
ARC
  5
1DD
100
AcDbEntity
  8
VectorLines_Light_0p003mm
 62
256
370
-1
  6
ByLayer
100
AcDbCircle
 10
36.0
 20
-4.0000000000000817
 30
0.0
 40
2.4500000000000002
100
AcDbArc
 50
5.6434797345725594
 51
84.3565202654274913
  0
ARC
  5
1DE
100
AcDbEntity
  8
VectorLines_Light_0p003mm
 62
256
370
-1
  6
ByLayer
100
AcDbCircle
 10
-28.0
 20
4.0000000000000178
 30
0.0
 40
2.4500000000000002
100
AcDbArc
 50
275.6434797345725656
 51
354.3565202654274344
  0
ARC
  5
1DF
100
AcDbEntity
  8
VectorLines_Light_0p003mm
 62
256
370
-1
  6
ByLayer
100
AcDbCircle
 10
-30.0
 20
4.000000000000008
 30
0.0
 40
0.5
100
AcDbArc
 50
151.1932596676497269
 51
208.8067403323502731
  0
ARC
  5
1E0
100
AcDbEntity
  8
VectorLines_Light_0p003mm
 62
256
370
-1
  6
ByLayer
100
AcDbCircle
 10
-28.0
 20
1.9999999999999643
 30
0.0
 40
0.5
100
AcDbArc
 50
241.1932596676497269
 51
298.8067403323502731
  0
ARC
  5
1E1
100
AcDbEntity
  8
VectorLines_Light_0p003mm
 62
256
370
-1
  6
ByLayer
100
AcDbCircle
 10
-28.0
 20
4.0000000000000178
 30
0.0
 40
2.4500000000000002
100
AcDbArc
 50
185.6434797345725656
 51
264.3565202654274344
  0
ARC
  5
1E2
100
AcDbEntity
  8
VectorLines_Light_0p003mm
 62
256
370
-1
  6
ByLayer
100
AcDbCircle
 10
-28.0
 20
6.000000000000008
 30
0.0
 40
0.5
100
AcDbArc
 50
61.1932596676497198
 51
118.8067403323502731
  0
ARC
  5
1E3
100
AcDbEntity
  8
VectorLines_Light_0p003mm
 62
256
370
-1
  6
ByLayer
100
AcDbCircle
 10
-28.0
 20
4.0000000000000178
 30
0.0
 40
2.4500000000000002
100
AcDbArc
 50
95.6434797345725372
 51
174.3565202654274344
  0
ARC
  5
1E4
100
AcDbEntity
  8
VectorLines_Light_0p003mm
 62
256
370
-1
  6
ByLayer
100
AcDbCircle
 10
-26.0
 20
3.9999999999999991
 30
0.0
 40
0.5
100
AcDbArc
 50
331.1932596676497269
 51
28.8067403323502802
  0
ARC
  5
1E5
100
AcDbEntity
  8
VectorLines_Light_0p003mm
 62
256
370
-1
  6
ByLayer
100
AcDbCircle
 10
-28.0
 20
4.0000000000000178
 30
0.0
 40
2.4500000000000002
100
AcDbArc
 50
5.6434797345725594
 51
84.3565202654274913
  0
ARC
  5
1E6
100
AcDbEntity
  8
VectorLines_Light_0p003mm
 62
256
370
-1
  6
ByLayer
100
AcDbCircle
 10
-20.0
 20
3.9999999999999956
 30
0.0
 40
2.4500000000000002
100
AcDbArc
 50
275.6434797345725656
 51
354.3565202654274344
  0
ARC
  5
1E7
100
AcDbEntity
  8
VectorLines_Light_0p003mm
 62
256
370
-1
  6
ByLayer
100
AcDbCircle
 10
-22.0
 20
4.0000000000000089
 30
0.0
 40
0.5
100
AcDbArc
 50
151.1932596676497269
 51
208.8067403323502731
  0
ARC
  5
1E8
100
AcDbEntity
  8
VectorLines_Light_0p003mm
 62
256
370
-1
  6
ByLayer
100
AcDbCircle
 10
-20.0
 20
1.9999999999999991
 30
0.0
 40
0.5
100
AcDbArc
 50
241.1932596676497269
 51
298.8067403323502731
  0
ARC
  5
1E9
100
AcDbEntity
  8
VectorLines_Light_0p003mm
 62
256
370
-1
  6
ByLayer
100
AcDbCircle
 10
-20.0
 20
3.9999999999999956
 30
0.0
 40
2.4500000000000002
100
AcDbArc
 50
185.6434797345725656
 51
264.3565202654274344
  0
ARC
  5
1EA
100
AcDbEntity
  8
VectorLines_Light_0p003mm
 62
256
370
-1
  6
ByLayer
100
AcDbCircle
 10
-20.0
 20
6.0000000000000053
 30
0.0
 40
0.5
100
AcDbArc
 50
61.1932596676497198
 51
118.8067403323502731
  0
ARC
  5
1EB
100
AcDbEntity
  8
VectorLines_Light_0p003mm
 62
256
370
-1
  6
ByLayer
100
AcDbCircle
 10
-20.0
 20
3.9999999999999956
 30
0.0
 40
2.4500000000000002
100
AcDbArc
 50
95.6434797345725372
 51
174.3565202654274344
  0
ARC
  5
1EC
100
AcDbEntity
  8
VectorLines_Light_0p003mm
 62
256
370
-1
  6
ByLayer
100
AcDbCircle
 10
-18.0
 20
3.9999999999999929
 30
0.0
 40
0.5
100
AcDbArc
 50
331.1932596676497269
 51
28.8067403323502802
  0
ARC
  5
1ED
100
AcDbEntity
  8
VectorLines_Light_0p003mm
 62
256
370
-1
  6
ByLayer
100
AcDbCircle
 10
-20.0
 20
3.9999999999999956
 30
0.0
 40
2.4500000000000002
100
AcDbArc
 50
5.6434797345725594
 51
84.3565202654274913
  0
ARC
  5
1EE
100
AcDbEntity
  8
VectorLines_Light_0p003mm
 62
256
370
-1
  6
ByLayer
100
AcDbCircle
 10
-20.0
 20
-3.9999999999999911
 30
0.0
 40
2.4500000000000002
100
AcDbArc
 50
275.6434797345725656
 51
354.3565202654274344
  0
ARC
  5
1EF
100
AcDbEntity
  8
VectorLines_Light_0p003mm
 62
256
370
-1
  6
ByLayer
100
AcDbCircle
 10
-22.0
 20
-4.0000000000000036
 30
0.0
 40
0.5
100
AcDbArc
 50
151.1932596676497269
 51
208.8067403323502731
  0
ARC
  5
1F0
100
AcDbEntity
  8
VectorLines_Light_0p003mm
 62
256
370
-1
  6
ByLayer
100
AcDbCircle
 10
-20.0
 20
-6.0000000000000009
 30
0.0
 40
0.5
100
AcDbArc
 50
241.1932596676497269
 51
298.8067403323502731
  0
ARC
  5
1F1
100
AcDbEntity
  8
VectorLines_Light_0p003mm
 62
256
370
-1
  6
ByLayer
100
AcDbCircle
 10
-20.0
 20
-3.9999999999999911
 30
0.0
 40
2.4500000000000002
100
AcDbArc
 50
185.6434797345725656
 51
264.3565202654274344
  0
ARC
  5
1F2
100
AcDbEntity
  8
VectorLines_Light_0p003mm
 62
256
370
-1
  6
ByLayer
100
AcDbCircle
 10
-20.0
 20
-1.999999999999994
 30
0.0
 40
0.5
100
AcDbArc
 50
61.1932596676497198
 51
118.8067403323502731
  0
ARC
  5
1F3
100
AcDbEntity
  8
VectorLines_Light_0p003mm
 62
256
370
-1
  6
ByLayer
100
AcDbCircle
 10
-20.0
 20
-3.9999999999999911
 30
0.0
 40
2.4500000000000002
100
AcDbArc
 50
95.6434797345725372
 51
174.3565202654274344
  0
ARC
  5
1F4
100
AcDbEntity
  8
VectorLines_Light_0p003mm
 62
256
370
-1
  6
ByLayer
100
AcDbCircle
 10
-18.0
 20
-3.9999999999999805
 30
0.0
 40
0.5
100
AcDbArc
 50
331.1932596676497269
 51
28.8067403323502802
  0
ARC
  5
1F5
100
AcDbEntity
  8
VectorLines_Light_0p003mm
 62
256
370
-1
  6
ByLayer
100
AcDbCircle
 10
-20.0
 20
-3.9999999999999911
 30
0.0
 40
2.4500000000000002
100
AcDbArc
 50
5.6434797345725594
 51
84.3565202654274913
  0
ARC
  5
1F6
100
AcDbEntity
  8
VectorLines_Light_0p003mm
 62
256
370
-1
  6
ByLayer
100
AcDbCircle
 10
-28.0
 20
-4.0000000000000115
 30
0.0
 40
2.4500000000000002
100
AcDbArc
 50
275.6434797345725656
 51
354.3565202654274344
  0
ARC
  5
1F7
100
AcDbEntity
  8
VectorLines_Light_0p003mm
 62
256
370
-1
  6
ByLayer
100
AcDbCircle
 10
-30.0
 20
-4.0000000000000009
 30
0.0
 40
0.5
100
AcDbArc
 50
151.1932596676497269
 51
208.8067403323502731
  0
ARC
  5
1F8
100
AcDbEntity
  8
VectorLines_Light_0p003mm
 62
256
370
-1
  6
ByLayer
100
AcDbCircle
 10
-28.0
 20
-6.0000000000000009
 30
0.0
 40
0.5
100
AcDbArc
 50
241.1932596676497269
 51
298.8067403323502731
  0
ARC
  5
1F9
100
AcDbEntity
  8
VectorLines_Light_0p003mm
 62
256
370
-1
  6
ByLayer
100
AcDbCircle
 10
-28.0
 20
-4.0000000000000115
 30
0.0
 40
2.4500000000000002
100
AcDbArc
 50
185.6434797345725656
 51
264.3565202654274344
  0
ARC
  5
1FA
100
AcDbEntity
  8
VectorLines_Light_0p003mm
 62
256
370
-1
  6
ByLayer
100
AcDbCircle
 10
-28.0
 20
-1.9999999999999201
 30
0.0
 40
0.5
100
AcDbArc
 50
61.1932596676497198
 51
118.8067403323502731
  0
ARC
  5
1FB
100
AcDbEntity
  8
VectorLines_Light_0p003mm
 62
256
370
-1
  6
ByLayer
100
AcDbCircle
 10
-28.0
 20
-4.0000000000000115
 30
0.0
 40
2.4500000000000002
100
AcDbArc
 50
95.6434797345725372
 51
174.3565202654274344
  0
ARC
  5
1FC
100
AcDbEntity
  8
VectorLines_Light_0p003mm
 62
256
370
-1
  6
ByLayer
100
AcDbCircle
 10
-26.0
 20
-3.9999999999999933
 30
0.0
 40
0.5
100
AcDbArc
 50
331.1932596676497269
 51
28.8067403323502802
  0
ARC
  5
1FD
100
AcDbEntity
  8
VectorLines_Light_0p003mm
 62
256
370
-1
  6
ByLayer
100
AcDbCircle
 10
-28.0
 20
-4.0000000000000115
 30
0.0
 40
2.4500000000000002
100
AcDbArc
 50
5.6434797345725594
 51
84.3565202654274913
  0
ARC
  5
1FE
100
AcDbEntity
  8
VectorLines_Light_0p003mm
 62
256
370
-1
  6
ByLayer
100
AcDbCircle
 10
-3.9999999999999991
 20
4.0
 30
0.0
 40
2.4500000000000002
100
AcDbArc
 50
275.6434797345725656
 51
354.3565202654274344
  0
ARC
  5
1FF
100
AcDbEntity
  8
VectorLines_Light_0p003mm
 62
256
370
-1
  6
ByLayer
100
AcDbCircle
 10
-6.0
 20
3.9999999999999991
 30
0.0
 40
0.5
100
AcDbArc
 50
151.1932596676497269
 51
208.8067403323502731
  0
ARC
  5
200
100
AcDbEntity
  8
VectorLines_Light_0p003mm
 62
256
370
-1
  6
ByLayer
100
AcDbCircle
 10
-3.9999999999999991
 20
2.0000000000000004
 30
0.0
 40
0.5
100
AcDbArc
 50
241.1932596676497269
 51
298.8067403323502731
  0
ARC
  5
201
100
AcDbEntity
  8
VectorLines_Light_0p003mm
 62
256
370
-1
  6
ByLayer
100
AcDbCircle
 10
-3.9999999999999991
 20
4.0
 30
0.0
 40
2.4500000000000002
100
AcDbArc
 50
185.6434797345725656
 51
264.3565202654274344
  0
ARC
  5
202
100
AcDbEntity
  8
VectorLines_Light_0p003mm
 62
256
370
-1
  6
ByLayer
100
AcDbCircle
 10
-4.0
 20
5.9999999999999982
 30
0.0
 40
0.5
100
AcDbArc
 50
61.1932596676497198
 51
118.8067403323502731
  0
ARC
  5
203
100
AcDbEntity
  8
VectorLines_Light_0p003mm
 62
256
370
-1
  6
ByLayer
100
AcDbCircle
 10
-3.9999999999999991
 20
4.0
 30
0.0
 40
2.4500000000000002
100
AcDbArc
 50
95.6434797345725372
 51
174.3565202654274344
  0
ARC
  5
204
100
AcDbEntity
  8
VectorLines_Light_0p003mm
 62
256
370
-1
  6
ByLayer
100
AcDbCircle
 10
-1.9999999999999996
 20
3.9999999999999991
 30
0.0
 40
0.5
100
AcDbArc
 50
331.1932596676497269
 51
28.8067403323502802
  0
ARC
  5
205
100
AcDbEntity
  8
VectorLines_Light_0p003mm
 62
256
370
-1
  6
ByLayer
100
AcDbCircle
 10
-3.9999999999999991
 20
4.0
 30
0.0
 40
2.4500000000000002
100
AcDbArc
 50
5.6434797345725594
 51
84.3565202654274913
  0
ARC
  5
206
100
AcDbEntity
  8
VectorLines_Light_0p003mm
 62
256
370
-1
  6
ByLayer
100
AcDbCircle
 10
3.9999999999999991
 20
4.0
 30
0.0
 40
2.4500000000000002
100
AcDbArc
 50
275.6434797345725656
 51
354.3565202654274344
  0
ARC
  5
207
100
AcDbEntity
  8
VectorLines_Light_0p003mm
 62
256
370
-1
  6
ByLayer
100
AcDbCircle
 10
1.9999999999999991
 20
4.0
 30
0.0
 40
0.5
100
AcDbArc
 50
151.1932596676497269
 51
208.8067403323502731
  0
ARC
  5
208
100
AcDbEntity
  8
VectorLines_Light_0p003mm
 62
256
370
-1
  6
ByLayer
100
AcDbCircle
 10
3.9999999999999987
 20
1.9999999999999996
 30
0.0
 40
0.5
100
AcDbArc
 50
241.1932596676497269
 51
298.8067403323502731
  0
ARC
  5
209
100
AcDbEntity
  8
VectorLines_Light_0p003mm
 62
256
370
-1
  6
ByLayer
100
AcDbCircle
 10
3.9999999999999991
 20
4.0
 30
0.0
 40
2.4500000000000002
100
AcDbArc
 50
185.6434797345725656
 51
264.3565202654274344
  0
ARC
  5
20A
100
AcDbEntity
  8
VectorLines_Light_0p003mm
 62
256
370
-1
  6
ByLayer
100
AcDbCircle
 10
3.9999999999999991
 20
6.0
 30
0.0
 40
0.5
100
AcDbArc
 50
61.1932596676497198
 51
118.8067403323502731
  0
ARC
  5
20B
100
AcDbEntity
  8
VectorLines_Light_0p003mm
 62
256
370
-1
  6
ByLayer
100
AcDbCircle
 10
3.9999999999999991
 20
4.0
 30
0.0
 40
2.4500000000000002
100
AcDbArc
 50
95.6434797345725372
 51
174.3565202654274344
  0
ARC
  5
20C
100
AcDbEntity
  8
VectorLines_Light_0p003mm
 62
256
370
-1
  6
ByLayer
100
AcDbCircle
 10
5.9999999999999991
 20
3.9999999999999973
 30
0.0
 40
0.5
100
AcDbArc
 50
331.1932596676497269
 51
28.8067403323502802
  0
ARC
  5
20D
100
AcDbEntity
  8
VectorLines_Light_0p003mm
 62
256
370
-1
  6
ByLayer
100
AcDbCircle
 10
3.9999999999999991
 20
4.0
 30
0.0
 40
2.4500000000000002
100
AcDbArc
 50
5.6434797345725594
 51
84.3565202654274913
  0
ARC
  5
20E
100
AcDbEntity
  8
VectorLines_Light_0p003mm
 62
256
370
-1
  6
ByLayer
100
AcDbCircle
 10
4.0
 20
-4.0000000000000009
 30
0.0
 40
2.4500000000000002
100
AcDbArc
 50
275.6434797345725656
 51
354.3565202654274344
  0
ARC
  5
20F
100
AcDbEntity
  8
VectorLines_Light_0p003mm
 62
256
370
-1
  6
ByLayer
100
AcDbCircle
 10
1.9999999999999987
 20
-3.9999999999999991
 30
0.0
 40
0.5
100
AcDbArc
 50
151.1932596676497269
 51
208.8067403323502731
  0
ARC
  5
210
100
AcDbEntity
  8
VectorLines_Light_0p003mm
 62
256
370
-1
  6
ByLayer
100
AcDbCircle
 10
3.9999999999999991
 20
-5.9999999999999973
 30
0.0
 40
0.5
100
AcDbArc
 50
241.1932596676497269
 51
298.8067403323502731
  0
ARC
  5
211
100
AcDbEntity
  8
VectorLines_Light_0p003mm
 62
256
370
-1
  6
ByLayer
100
AcDbCircle
 10
4.0
 20
-4.0000000000000009
 30
0.0
 40
2.4500000000000002
100
AcDbArc
 50
185.6434797345725656
 51
264.3565202654274344
  0
ARC
  5
212
100
AcDbEntity
  8
VectorLines_Light_0p003mm
 62
256
370
-1
  6
ByLayer
100
AcDbCircle
 10
3.9999999999999987
 20
-2.0000000000000004
 30
0.0
 40
0.5
100
AcDbArc
 50
61.1932596676497198
 51
118.8067403323502731
  0
ARC
  5
213
100
AcDbEntity
  8
VectorLines_Light_0p003mm
 62
256
370
-1
  6
ByLayer
100
AcDbCircle
 10
4.0
 20
-4.0000000000000009
 30
0.0
 40
2.4500000000000002
100
AcDbArc
 50
95.6434797345725372
 51
174.3565202654274344
  0
ARC
  5
214
100
AcDbEntity
  8
VectorLines_Light_0p003mm
 62
256
370
-1
  6
ByLayer
100
AcDbCircle
 10
5.9999999999999973
 20
-4.0000000000000036
 30
0.0
 40
0.5
100
AcDbArc
 50
331.1932596676497269
 51
28.8067403323502802
  0
ARC
  5
215
100
AcDbEntity
  8
VectorLines_Light_0p003mm
 62
256
370
-1
  6
ByLayer
100
AcDbCircle
 10
4.0
 20
-4.0000000000000009
 30
0.0
 40
2.4500000000000002
100
AcDbArc
 50
5.6434797345725594
 51
84.3565202654274913
  0
ARC
  5
216
100
AcDbEntity
  8
VectorLines_Light_0p003mm
 62
256
370
-1
  6
ByLayer
100
AcDbCircle
 10
-4.0000000000000009
 20
-4.0
 30
0.0
 40
2.4500000000000002
100
AcDbArc
 50
275.6434797345725656
 51
354.3565202654274344
  0
ARC
  5
217
100
AcDbEntity
  8
VectorLines_Light_0p003mm
 62
256
370
-1
  6
ByLayer
100
AcDbCircle
 10
-6.0
 20
-3.9999999999999978
 30
0.0
 40
0.5
100
AcDbArc
 50
151.1932596676497269
 51
208.8067403323502731
  0
ARC
  5
218
100
AcDbEntity
  8
VectorLines_Light_0p003mm
 62
256
370
-1
  6
ByLayer
100
AcDbCircle
 10
-4.0000000000000027
 20
-5.9999999999999964
 30
0.0
 40
0.5
100
AcDbArc
 50
241.1932596676497269
 51
298.8067403323502731
  0
ARC
  5
219
100
AcDbEntity
  8
VectorLines_Light_0p003mm
 62
256
370
-1
  6
ByLayer
100
AcDbCircle
 10
-4.0000000000000009
 20
-4.0
 30
0.0
 40
2.4500000000000002
100
AcDbArc
 50
185.6434797345725656
 51
264.3565202654274344
  0
ARC
  5
21A
100
AcDbEntity
  8
VectorLines_Light_0p003mm
 62
256
370
-1
  6
ByLayer
100
AcDbCircle
 10
-4.0
 20
-1.9999999999999993
 30
0.0
 40
0.5
100
AcDbArc
 50
61.1932596676497198
 51
118.8067403323502731
  0
ARC
  5
21B
100
AcDbEntity
  8
VectorLines_Light_0p003mm
 62
256
370
-1
  6
ByLayer
100
AcDbCircle
 10
-4.0000000000000009
 20
-4.0
 30
0.0
 40
2.4500000000000002
100
AcDbArc
 50
95.6434797345725372
 51
174.3565202654274344
  0
ARC
  5
21C
100
AcDbEntity
  8
VectorLines_Light_0p003mm
 62
256
370
-1
  6
ByLayer
100
AcDbCircle
 10
-2.0000000000000004
 20
-3.9999999999999987
 30
0.0
 40
0.5
100
AcDbArc
 50
331.1932596676497269
 51
28.8067403323502802
  0
ARC
  5
21D
100
AcDbEntity
  8
VectorLines_Light_0p003mm
 62
256
370
-1
  6
ByLayer
100
AcDbCircle
 10
-4.0000000000000009
 20
-4.0
 30
0.0
 40
2.4500000000000002
100
AcDbArc
 50
5.6434797345725594
 51
84.3565202654274913
  0
ARC
  5
21E
100
AcDbEntity
  8
VectorLines_Light_0p003mm
 62
256
370
-1
  6
ByLayer
100
AcDbCircle
 10
20.0
 20
3.9999999999999925
 30
0.0
 40
2.4500000000000002
100
AcDbArc
 50
275.6434797345725656
 51
354.3565202654274344
  0
ARC
  5
21F
100
AcDbEntity
  8
VectorLines_Light_0p003mm
 62
256
370
-1
  6
ByLayer
100
AcDbCircle
 10
18.0
 20
3.9999999999999938
 30
0.0
 40
0.5
100
AcDbArc
 50
151.1932596676497269
 51
208.8067403323502731
  0
ARC
  5
220
100
AcDbEntity
  8
VectorLines_Light_0p003mm
 62
256
370
-1
  6
ByLayer
100
AcDbCircle
 10
20.0
 20
1.9999999999999969
 30
0.0
 40
0.5
100
AcDbArc
 50
241.1932596676497269
 51
298.8067403323502731
  0
ARC
  5
221
100
AcDbEntity
  8
VectorLines_Light_0p003mm
 62
256
370
-1
  6
ByLayer
100
AcDbCircle
 10
20.0
 20
3.9999999999999925
 30
0.0
 40
2.4500000000000002
100
AcDbArc
 50
185.6434797345725656
 51
264.3565202654274344
  0
ARC
  5
222
100
AcDbEntity
  8
VectorLines_Light_0p003mm
 62
256
370
-1
  6
ByLayer
100
AcDbCircle
 10
20.0
 20
6.0000000000000053
 30
0.0
 40
0.5
100
AcDbArc
 50
61.1932596676497198
 51
118.8067403323502731
  0
ARC
  5
223
100
AcDbEntity
  8
VectorLines_Light_0p003mm
 62
256
370
-1
  6
ByLayer
100
AcDbCircle
 10
20.0
 20
3.9999999999999925
 30
0.0
 40
2.4500000000000002
100
AcDbArc
 50
95.6434797345725372
 51
174.3565202654274344
  0
ARC
  5
224
100
AcDbEntity
  8
VectorLines_Light_0p003mm
 62
256
370
-1
  6
ByLayer
100
AcDbCircle
 10
22.0
 20
4.0000000000000044
 30
0.0
 40
0.5
100
AcDbArc
 50
331.1932596676497269
 51
28.8067403323502802
  0
ARC
  5
225
100
AcDbEntity
  8
VectorLines_Light_0p003mm
 62
256
370
-1
  6
ByLayer
100
AcDbCircle
 10
20.0
 20
3.9999999999999925
 30
0.0
 40
2.4500000000000002
100
AcDbArc
 50
5.6434797345725594
 51
84.3565202654274913
  0
ARC
  5
226
100
AcDbEntity
  8
VectorLines_Light_0p003mm
 62
256
370
-1
  6
ByLayer
100
AcDbCircle
 10
28.0
 20
4.0000000000000124
 30
0.0
 40
2.4500000000000002
100
AcDbArc
 50
275.6434797345725656
 51
354.3565202654274344
  0
ARC
  5
227
100
AcDbEntity
  8
VectorLines_Light_0p003mm
 62
256
370
-1
  6
ByLayer
100
AcDbCircle
 10
26.0
 20
4.0000000000000018
 30
0.0
 40
0.5
100
AcDbArc
 50
151.1932596676497269
 51
208.8067403323502731
  0
ARC
  5
228
100
AcDbEntity
  8
VectorLines_Light_0p003mm
 62
256
370
-1
  6
ByLayer
100
AcDbCircle
 10
28.0
 20
1.9999999999999616
 30
0.0
 40
0.5
100
AcDbArc
 50
241.1932596676497269
 51
298.8067403323502731
  0
ARC
  5
229
100
AcDbEntity
  8
VectorLines_Light_0p003mm
 62
256
370
-1
  6
ByLayer
100
AcDbCircle
 10
28.0
 20
4.0000000000000124
 30
0.0
 40
2.4500000000000002
100
AcDbArc
 50
185.6434797345725656
 51
264.3565202654274344
  0
ARC
  5
22A
100
AcDbEntity
  8
VectorLines_Light_0p003mm
 62
256
370
-1
  6
ByLayer
100
AcDbCircle
 10
28.0
 20
6.0000000000000089
 30
0.0
 40
0.5
100
AcDbArc
 50
61.1932596676497198
 51
118.8067403323502731
  0
ARC
  5
22B
100
AcDbEntity
  8
VectorLines_Light_0p003mm
 62
256
370
-1
  6
ByLayer
100
AcDbCircle
 10
28.0
 20
4.0000000000000124
 30
0.0
 40
2.4500000000000002
100
AcDbArc
 50
95.6434797345725372
 51
174.3565202654274344
  0
ARC
  5
22C
100
AcDbEntity
  8
VectorLines_Light_0p003mm
 62
256
370
-1
  6
ByLayer
100
AcDbCircle
 10
30.0
 20
4.0000000000000009
 30
0.0
 40
0.5
100
AcDbArc
 50
331.1932596676497269
 51
28.8067403323502802
  0
ARC
  5
22D
100
AcDbEntity
  8
VectorLines_Light_0p003mm
 62
256
370
-1
  6
ByLayer
100
AcDbCircle
 10
28.0
 20
4.0000000000000124
 30
0.0
 40
2.4500000000000002
100
AcDbArc
 50
5.6434797345725594
 51
84.3565202654274913
  0
ARC
  5
22E
100
AcDbEntity
  8
VectorLines_Light_0p003mm
 62
256
370
-1
  6
ByLayer
100
AcDbCircle
 10
28.0
 20
-4.0000000000000098
 30
0.0
 40
2.4500000000000002
100
AcDbArc
 50
275.6434797345725656
 51
354.3565202654274344
  0
ARC
  5
22F
100
AcDbEntity
  8
VectorLines_Light_0p003mm
 62
256
370
-1
  6
ByLayer
100
AcDbCircle
 10
26.0
 20
-4.0000000000000027
 30
0.0
 40
0.5
100
AcDbArc
 50
151.1932596676497269
 51
208.8067403323502731
  0
ARC
  5
230
100
AcDbEntity
  8
VectorLines_Light_0p003mm
 62
256
370
-1
  6
ByLayer
100
AcDbCircle
 10
27.9999999999999964
 20
-6.000000000000024
 30
0.0
 40
0.5
100
AcDbArc
 50
241.1932596676497269
 51
298.8067403323502731
  0
ARC
  5
231
100
AcDbEntity
  8
VectorLines_Light_0p003mm
 62
256
370
-1
  6
ByLayer
100
AcDbCircle
 10
28.0
 20
-4.0000000000000098
 30
0.0
 40
2.4500000000000002
100
AcDbArc
 50
185.6434797345725656
 51
264.3565202654274344
  0
ARC
  5
232
100
AcDbEntity
  8
VectorLines_Light_0p003mm
 62
256
370
-1
  6
ByLayer
100
AcDbCircle
 10
28.0
 20
-1.9999999999999802
 30
0.0
 40
0.5
100
AcDbArc
 50
61.1932596676497198
 51
118.8067403323502731
  0
ARC
  5
233
100
AcDbEntity
  8
VectorLines_Light_0p003mm
 62
256
370
-1
  6
ByLayer
100
AcDbCircle
 10
28.0
 20
-4.0000000000000098
 30
0.0
 40
2.4500000000000002
100
AcDbArc
 50
95.6434797345725372
 51
174.3565202654274344
  0
ARC
  5
234
100
AcDbEntity
  8
VectorLines_Light_0p003mm
 62
256
370
-1
  6
ByLayer
100
AcDbCircle
 10
30.0
 20
-3.9999999999999987
 30
0.0
 40
0.5
100
AcDbArc
 50
331.1932596676497269
 51
28.8067403323502802
  0
ARC
  5
235
100
AcDbEntity
  8
VectorLines_Light_0p003mm
 62
256
370
-1
  6
ByLayer
100
AcDbCircle
 10
28.0
 20
-4.0000000000000098
 30
0.0
 40
2.4500000000000002
100
AcDbArc
 50
5.6434797345725594
 51
84.3565202654274913
  0
ARC
  5
236
100
AcDbEntity
  8
VectorLines_Light_0p003mm
 62
256
370
-1
  6
ByLayer
100
AcDbCircle
 10
20.0
 20
-3.9999999999999982
 30
0.0
 40
2.4500000000000002
100
AcDbArc
 50
275.6434797345725656
 51
354.3565202654274344
  0
ARC
  5
237
100
AcDbEntity
  8
VectorLines_Light_0p003mm
 62
256
370
-1
  6
ByLayer
100
AcDbCircle
 10
18.0
 20
-4.0000000000000036
 30
0.0
 40
0.5
100
AcDbArc
 50
151.1932596676497269
 51
208.8067403323502731
  0
ARC
  5
238
100
AcDbEntity
  8
VectorLines_Light_0p003mm
 62
256
370
-1
  6
ByLayer
100
AcDbCircle
 10
19.9999999999999964
 20
-6.000000000000016
 30
0.0
 40
0.5
100
AcDbArc
 50
241.1932596676497269
 51
298.8067403323502731
  0
ARC
  5
239
100
AcDbEntity
  8
VectorLines_Light_0p003mm
 62
256
370
-1
  6
ByLayer
100
AcDbCircle
 10
20.0
 20
-3.9999999999999982
 30
0.0
 40
2.4500000000000002
100
AcDbArc
 50
185.6434797345725656
 51
264.3565202654274344
  0
ARC
  5
23A
100
AcDbEntity
  8
VectorLines_Light_0p003mm
 62
256
370
-1
  6
ByLayer
100
AcDbCircle
 10
20.0
 20
-2.0000000000000018
 30
0.0
 40
0.5
100
AcDbArc
 50
61.1932596676497198
 51
118.8067403323502731
  0
ARC
  5
23B
100
AcDbEntity
  8
VectorLines_Light_0p003mm
 62
256
370
-1
  6
ByLayer
100
AcDbCircle
 10
20.0
 20
-3.9999999999999982
 30
0.0
 40
2.4500000000000002
100
AcDbArc
 50
95.6434797345725372
 51
174.3565202654274344
  0
ARC
  5
23C
100
AcDbEntity
  8
VectorLines_Light_0p003mm
 62
256
370
-1
  6
ByLayer
100
AcDbCircle
 10
22.0
 20
-4.0000000000000018
 30
0.0
 40
0.5
100
AcDbArc
 50
331.1932596676497269
 51
28.8067403323502802
  0
ARC
  5
23D
100
AcDbEntity
  8
VectorLines_Light_0p003mm
 62
256
370
-1
  6
ByLayer
100
AcDbCircle
 10
20.0
 20
-3.9999999999999982
 30
0.0
 40
2.4500000000000002
100
AcDbArc
 50
5.6434797345725594
 51
84.3565202654274913
  0
ARC
  5
23E
100
AcDbEntity
  8
VectorLines_Light_0p003mm
 62
256
370
-1
  6
ByLayer
100
AcDbCircle
 10
-12.0000000000000018
 20
-20.0
 30
0.0
 40
2.4500000000000002
100
AcDbArc
 50
275.6434797345725656
 51
354.3565202654274344
  0
ARC
  5
23F
100
AcDbEntity
  8
VectorLines_Light_0p003mm
 62
256
370
-1
  6
ByLayer
100
AcDbCircle
 10
-14.0000000000000071
 20
-19.9999999999999893
 30
0.0
 40
0.5
100
AcDbArc
 50
151.1932596676497269
 51
208.8067403323502731
  0
ARC
  5
240
100
AcDbEntity
  8
VectorLines_Light_0p003mm
 62
256
370
-1
  6
ByLayer
100
AcDbCircle
 10
-12.0
 20
-22.0
 30
0.0
 40
0.5
100
AcDbArc
 50
241.1932596676497269
 51
298.8067403323502731
  0
ARC
  5
241
100
AcDbEntity
  8
VectorLines_Light_0p003mm
 62
256
370
-1
  6
ByLayer
100
AcDbCircle
 10
-12.0000000000000018
 20
-20.0
 30
0.0
 40
2.4500000000000002
100
AcDbArc
 50
185.6434797345725656
 51
264.3565202654274344
  0
ARC
  5
242
100
AcDbEntity
  8
VectorLines_Light_0p003mm
 62
256
370
-1
  6
ByLayer
100
AcDbCircle
 10
-11.9999999999999947
 20
-18.0000000000000036
 30
0.0
 40
0.5
100
AcDbArc
 50
61.1932596676497198
 51
118.8067403323502731
  0
ARC
  5
243
100
AcDbEntity
  8
VectorLines_Light_0p003mm
 62
256
370
-1
  6
ByLayer
100
AcDbCircle
 10
-12.0000000000000018
 20
-20.0
 30
0.0
 40
2.4500000000000002
100
AcDbArc
 50
95.6434797345725372
 51
174.3565202654274344
  0
ARC
  5
244
100
AcDbEntity
  8
VectorLines_Light_0p003mm
 62
256
370
-1
  6
ByLayer
100
AcDbCircle
 10
-10.0000000000000018
 20
-19.9999999999999964
 30
0.0
 40
0.5
100
AcDbArc
 50
331.1932596676497269
 51
28.8067403323502802
  0
ARC
  5
245
100
AcDbEntity
  8
VectorLines_Light_0p003mm
 62
256
370
-1
  6
ByLayer
100
AcDbCircle
 10
-12.0000000000000018
 20
-20.0
 30
0.0
 40
2.4500000000000002
100
AcDbArc
 50
5.6434797345725594
 51
84.3565202654274913
  0
ARC
  5
246
100
AcDbEntity
  8
VectorLines_Light_0p003mm
 62
256
370
-1
  6
ByLayer
100
AcDbCircle
 10
-12.0000000000000053
 20
-28.0
 30
0.0
 40
2.4500000000000002
100
AcDbArc
 50
275.6434797345725656
 51
354.3565202654274344
  0
ARC
  5
247
100
AcDbEntity
  8
VectorLines_Light_0p003mm
 62
256
370
-1
  6
ByLayer
100
AcDbCircle
 10
-14.0000000000000036
 20
-27.9999999999999929
 30
0.0
 40
0.5
100
AcDbArc
 50
151.1932596676497269
 51
208.8067403323502731
  0
ARC
  5
248
100
AcDbEntity
  8
VectorLines_Light_0p003mm
 62
256
370
-1
  6
ByLayer
100
AcDbCircle
 10
-12.0000000000000036
 20
-29.9999999999999964
 30
0.0
 40
0.5
100
AcDbArc
 50
241.1932596676497269
 51
298.8067403323502731
  0
ARC
  5
249
100
AcDbEntity
  8
VectorLines_Light_0p003mm
 62
256
370
-1
  6
ByLayer
100
AcDbCircle
 10
-12.0000000000000053
 20
-28.0
 30
0.0
 40
2.4500000000000002
100
AcDbArc
 50
185.6434797345725656
 51
264.3565202654274344
  0
ARC
  5
24A
100
AcDbEntity
  8
VectorLines_Light_0p003mm
 62
256
370
-1
  6
ByLayer
100
AcDbCircle
 10
-12.0000000000000089
 20
-25.9999999999999964
 30
0.0
 40
0.5
100
AcDbArc
 50
61.1932596676497198
 51
118.8067403323502731
  0
ARC
  5
24B
100
AcDbEntity
  8
VectorLines_Light_0p003mm
 62
256
370
-1
  6
ByLayer
100
AcDbCircle
 10
-12.0000000000000053
 20
-28.0
 30
0.0
 40
2.4500000000000002
100
AcDbArc
 50
95.6434797345725372
 51
174.3565202654274344
  0
ARC
  5
24C
100
AcDbEntity
  8
VectorLines_Light_0p003mm
 62
256
370
-1
  6
ByLayer
100
AcDbCircle
 10
-10.0000000000000107
 20
-27.9999999999999964
 30
0.0
 40
0.5
100
AcDbArc
 50
331.1932596676497269
 51
28.8067403323502802
  0
ARC
  5
24D
100
AcDbEntity
  8
VectorLines_Light_0p003mm
 62
256
370
-1
  6
ByLayer
100
AcDbCircle
 10
-12.0000000000000053
 20
-28.0
 30
0.0
 40
2.4500000000000002
100
AcDbArc
 50
5.6434797345725594
 51
84.3565202654274913
  0
ARC
  5
24E
100
AcDbEntity
  8
VectorLines_Light_0p003mm
 62
256
370
-1
  6
ByLayer
100
AcDbCircle
 10
11.9999999999999947
 20
-20.0000000000000036
 30
0.0
 40
2.4500000000000002
100
AcDbArc
 50
275.6434797345725656
 51
354.3565202654274344
  0
ARC
  5
24F
100
AcDbEntity
  8
VectorLines_Light_0p003mm
 62
256
370
-1
  6
ByLayer
100
AcDbCircle
 10
9.9999999999999982
 20
-20.0000000000000036
 30
0.0
 40
0.5
100
AcDbArc
 50
151.1932596676497269
 51
208.8067403323502731
  0
ARC
  5
250
100
AcDbEntity
  8
VectorLines_Light_0p003mm
 62
256
370
-1
  6
ByLayer
100
AcDbCircle
 10
11.9999999999999929
 20
-22.0000000000000036
 30
0.0
 40
0.5
100
AcDbArc
 50
241.1932596676497269
 51
298.8067403323502731
  0
ARC
  5
251
100
AcDbEntity
  8
VectorLines_Light_0p003mm
 62
256
370
-1
  6
ByLayer
100
AcDbCircle
 10
11.9999999999999947
 20
-20.0000000000000036
 30
0.0
 40
2.4500000000000002
100
AcDbArc
 50
185.6434797345725656
 51
264.3565202654274344
  0
ARC
  5
252
100
AcDbEntity
  8
VectorLines_Light_0p003mm
 62
256
370
-1
  6
ByLayer
100
AcDbCircle
 10
11.9999999999999876
 20
-18.0000000000000107
 30
0.0
 40
0.5
100
AcDbArc
 50
61.1932596676497198
 51
118.8067403323502731
  0
ARC
  5
253
100
AcDbEntity
  8
VectorLines_Light_0p003mm
 62
256
370
-1
  6
ByLayer
100
AcDbCircle
 10
11.9999999999999947
 20
-20.0000000000000036
 30
0.0
 40
2.4500000000000002
100
AcDbArc
 50
95.6434797345725372
 51
174.3565202654274344
  0
ARC
  5
254
100
AcDbEntity
  8
VectorLines_Light_0p003mm
 62
256
370
-1
  6
ByLayer
100
AcDbCircle
 10
13.9999999999999964
 20
-19.9999999999999929
 30
0.0
 40
0.5
100
AcDbArc
 50
331.1932596676497269
 51
28.8067403323502802
  0
ARC
  5
255
100
AcDbEntity
  8
VectorLines_Light_0p003mm
 62
256
370
-1
  6
ByLayer
100
AcDbCircle
 10
11.9999999999999947
 20
-20.0000000000000036
 30
0.0
 40
2.4500000000000002
100
AcDbArc
 50
5.6434797345725594
 51
84.3565202654274913
  0
ARC
  5
256
100
AcDbEntity
  8
VectorLines_Light_0p003mm
 62
256
370
-1
  6
ByLayer
100
AcDbCircle
 10
11.9999999999999947
 20
-28.0000000000000036
 30
0.0
 40
2.4500000000000002
100
AcDbArc
 50
275.6434797345725656
 51
354.3565202654274344
  0
ARC
  5
257
100
AcDbEntity
  8
VectorLines_Light_0p003mm
 62
256
370
-1
  6
ByLayer
100
AcDbCircle
 10
10.0000000000000018
 20
-28.0
 30
0.0
 40
0.5
100
AcDbArc
 50
151.1932596676497269
 51
208.8067403323502731
  0
ARC
  5
258
100
AcDbEntity
  8
VectorLines_Light_0p003mm
 62
256
370
-1
  6
ByLayer
100
AcDbCircle
 10
11.9999999999999947
 20
-30.0
 30
0.0
 40
0.5
100
AcDbArc
 50
241.1932596676497269
 51
298.8067403323502731
  0
ARC
  5
259
100
AcDbEntity
  8
VectorLines_Light_0p003mm
 62
256
370
-1
  6
ByLayer
100
AcDbCircle
 10
11.9999999999999947
 20
-28.0000000000000036
 30
0.0
 40
2.4500000000000002
100
AcDbArc
 50
185.6434797345725656
 51
264.3565202654274344
  0
ARC
  5
25A
100
AcDbEntity
  8
VectorLines_Light_0p003mm
 62
256
370
-1
  6
ByLayer
100
AcDbCircle
 10
12.0
 20
-26.0
 30
0.0
 40
0.5
100
AcDbArc
 50
61.1932596676497198
 51
118.8067403323502731
  0
ARC
  5
25B
100
AcDbEntity
  8
VectorLines_Light_0p003mm
 62
256
370
-1
  6
ByLayer
100
AcDbCircle
 10
11.9999999999999947
 20
-28.0000000000000036
 30
0.0
 40
2.4500000000000002
100
AcDbArc
 50
95.6434797345725372
 51
174.3565202654274344
  0
ARC
  5
25C
100
AcDbEntity
  8
VectorLines_Light_0p003mm
 62
256
370
-1
  6
ByLayer
100
AcDbCircle
 10
13.9999999999999964
 20
-28.0000000000000036
 30
0.0
 40
0.5
100
AcDbArc
 50
331.1932596676497269
 51
28.8067403323502802
  0
ARC
  5
25D
100
AcDbEntity
  8
VectorLines_Light_0p003mm
 62
256
370
-1
  6
ByLayer
100
AcDbCircle
 10
11.9999999999999947
 20
-28.0000000000000036
 30
0.0
 40
2.4500000000000002
100
AcDbArc
 50
5.6434797345725594
 51
84.3565202654274913
  0
ARC
  5
25E
100
AcDbEntity
  8
VectorLines_Light_0p003mm
 62
256
370
-1
  6
ByLayer
100
AcDbCircle
 10
36.0
 20
-20.0000000000000036
 30
0.0
 40
2.4500000000000002
100
AcDbArc
 50
275.6434797345725656
 51
354.3565202654274344
  0
ARC
  5
25F
100
AcDbEntity
  8
VectorLines_Light_0p003mm
 62
256
370
-1
  6
ByLayer
100
AcDbCircle
 10
34.0000000000000071
 20
-20.0000000000000036
 30
0.0
 40
0.5
100
AcDbArc
 50
151.1932596676497269
 51
208.8067403323502731
  0
ARC
  5
260
100
AcDbEntity
  8
VectorLines_Light_0p003mm
 62
256
370
-1
  6
ByLayer
100
AcDbCircle
 10
36.0
 20
-22.0000000000000284
 30
0.0
 40
0.5
100
AcDbArc
 50
241.1932596676497269
 51
298.8067403323502731
  0
ARC
  5
261
100
AcDbEntity
  8
VectorLines_Light_0p003mm
 62
256
370
-1
  6
ByLayer
100
AcDbCircle
 10
36.0
 20
-20.0000000000000036
 30
0.0
 40
2.4500000000000002
100
AcDbArc
 50
185.6434797345725656
 51
264.3565202654274344
  0
ARC
  5
262
100
AcDbEntity
  8
VectorLines_Light_0p003mm
 62
256
370
-1
  6
ByLayer
100
AcDbCircle
 10
35.9999999999999787
 20
-18.0000000000000426
 30
0.0
 40
0.5
100
AcDbArc
 50
61.1932596676497198
 51
118.8067403323502731
  0
ARC
  5
263
100
AcDbEntity
  8
VectorLines_Light_0p003mm
 62
256
370
-1
  6
ByLayer
100
AcDbCircle
 10
36.0
 20
-20.0000000000000036
 30
0.0
 40
2.4500000000000002
100
AcDbArc
 50
95.6434797345725372
 51
174.3565202654274344
  0
ARC
  5
264
100
AcDbEntity
  8
VectorLines_Light_0p003mm
 62
256
370
-1
  6
ByLayer
100
AcDbCircle
 10
37.9999999999999929
 20
-20.0000000000000142
 30
0.0
 40
0.5
100
AcDbArc
 50
331.1932596676497269
 51
28.8067403323502802
  0
ARC
  5
265
100
AcDbEntity
  8
VectorLines_Light_0p003mm
 62
256
370
-1
  6
ByLayer
100
AcDbCircle
 10
36.0
 20
-20.0000000000000036
 30
0.0
 40
2.4500000000000002
100
AcDbArc
 50
5.6434797345725594
 51
84.3565202654274913
  0
ARC
  5
266
100
AcDbEntity
  8
VectorLines_Light_0p003mm
 62
256
370
-1
  6
ByLayer
100
AcDbCircle
 10
36.0
 20
-27.9999999999999929
 30
0.0
 40
2.4500000000000002
100
AcDbArc
 50
275.6434797345725656
 51
354.3565202654274344
  0
ARC
  5
267
100
AcDbEntity
  8
VectorLines_Light_0p003mm
 62
256
370
-1
  6
ByLayer
100
AcDbCircle
 10
34.0
 20
-28.0
 30
0.0
 40
0.5
100
AcDbArc
 50
151.1932596676497269
 51
208.8067403323502731
  0
ARC
  5
268
100
AcDbEntity
  8
VectorLines_Light_0p003mm
 62
256
370
-1
  6
ByLayer
100
AcDbCircle
 10
36.0
 20
-29.9999999999999964
 30
0.0
 40
0.5
100
AcDbArc
 50
241.1932596676497269
 51
298.8067403323502731
  0
ARC
  5
269
100
AcDbEntity
  8
VectorLines_Light_0p003mm
 62
256
370
-1
  6
ByLayer
100
AcDbCircle
 10
36.0
 20
-27.9999999999999929
 30
0.0
 40
2.4500000000000002
100
AcDbArc
 50
185.6434797345725656
 51
264.3565202654274344
  0
ARC
  5
26A
100
AcDbEntity
  8
VectorLines_Light_0p003mm
 62
256
370
-1
  6
ByLayer
100
AcDbCircle
 10
35.9999999999999929
 20
-26.0000000000000142
 30
0.0
 40
0.5
100
AcDbArc
 50
61.1932596676497198
 51
118.8067403323502731
  0
ARC
  5
26B
100
AcDbEntity
  8
VectorLines_Light_0p003mm
 62
256
370
-1
  6
ByLayer
100
AcDbCircle
 10
36.0
 20
-27.9999999999999929
 30
0.0
 40
2.4500000000000002
100
AcDbArc
 50
95.6434797345725372
 51
174.3565202654274344
  0
ARC
  5
26C
100
AcDbEntity
  8
VectorLines_Light_0p003mm
 62
256
370
-1
  6
ByLayer
100
AcDbCircle
 10
37.9999999999999929
 20
-28.0000000000000107
 30
0.0
 40
0.5
100
AcDbArc
 50
331.1932596676497269
 51
28.8067403323502802
  0
ARC
  5
26D
100
AcDbEntity
  8
VectorLines_Light_0p003mm
 62
256
370
-1
  6
ByLayer
100
AcDbCircle
 10
36.0
 20
-27.9999999999999929
 30
0.0
 40
2.4500000000000002
100
AcDbArc
 50
5.6434797345725594
 51
84.3565202654274913
  0
ARC
  5
26E
100
AcDbEntity
  8
VectorLines_Light_0p003mm
 62
256
370
-1
  6
ByLayer
100
AcDbCircle
 10
-36.0000000000000071
 20
-19.9999999999999929
 30
0.0
 40
2.4500000000000002
100
AcDbArc
 50
275.6434797345725656
 51
354.3565202654274344
  0
ARC
  5
26F
100
AcDbEntity
  8
VectorLines_Light_0p003mm
 62
256
370
-1
  6
ByLayer
100
AcDbCircle
 10
-38.0
 20
-20.0
 30
0.0
 40
0.5
100
AcDbArc
 50
151.1932596676497269
 51
208.8067403323502731
  0
ARC
  5
270
100
AcDbEntity
  8
VectorLines_Light_0p003mm
 62
256
370
-1
  6
ByLayer
100
AcDbCircle
 10
-36.0000000000000071
 20
-21.9999999999999964
 30
0.0
 40
0.5
100
AcDbArc
 50
241.1932596676497269
 51
298.8067403323502731
  0
ARC
  5
271
100
AcDbEntity
  8
VectorLines_Light_0p003mm
 62
256
370
-1
  6
ByLayer
100
AcDbCircle
 10
-36.0000000000000071
 20
-19.9999999999999929
 30
0.0
 40
2.4500000000000002
100
AcDbArc
 50
185.6434797345725656
 51
264.3565202654274344
  0
ARC
  5
272
100
AcDbEntity
  8
VectorLines_Light_0p003mm
 62
256
370
-1
  6
ByLayer
100
AcDbCircle
 10
-36.0000000000000142
 20
-18.0
 30
0.0
 40
0.5
100
AcDbArc
 50
61.1932596676497198
 51
118.8067403323502731
  0
ARC
  5
273
100
AcDbEntity
  8
VectorLines_Light_0p003mm
 62
256
370
-1
  6
ByLayer
100
AcDbCircle
 10
-36.0000000000000071
 20
-19.9999999999999929
 30
0.0
 40
2.4500000000000002
100
AcDbArc
 50
95.6434797345725372
 51
174.3565202654274344
  0
ARC
  5
274
100
AcDbEntity
  8
VectorLines_Light_0p003mm
 62
256
370
-1
  6
ByLayer
100
AcDbCircle
 10
-34.0
 20
-20.0
 30
0.0
 40
0.5
100
AcDbArc
 50
331.1932596676497269
 51
28.8067403323502802
  0
ARC
  5
275
100
AcDbEntity
  8
VectorLines_Light_0p003mm
 62
256
370
-1
  6
ByLayer
100
AcDbCircle
 10
-36.0000000000000071
 20
-19.9999999999999929
 30
0.0
 40
2.4500000000000002
100
AcDbArc
 50
5.6434797345725594
 51
84.3565202654274913
  0
ARC
  5
276
100
AcDbEntity
  8
VectorLines_Light_0p003mm
 62
256
370
-1
  6
ByLayer
100
AcDbCircle
 10
-36.0
 20
-28.0
 30
0.0
 40
2.4500000000000002
100
AcDbArc
 50
275.6434797345725656
 51
354.3565202654274344
  0
ARC
  5
277
100
AcDbEntity
  8
VectorLines_Light_0p003mm
 62
256
370
-1
  6
ByLayer
100
AcDbCircle
 10
-38.0000000000000071
 20
-28.0000000000000036
 30
0.0
 40
0.5
100
AcDbArc
 50
151.1932596676497269
 51
208.8067403323502731
  0
ARC
  5
278
100
AcDbEntity
  8
VectorLines_Light_0p003mm
 62
256
370
-1
  6
ByLayer
100
AcDbCircle
 10
-36.0000000000000071
 20
-29.9999999999999858
 30
0.0
 40
0.5
100
AcDbArc
 50
241.1932596676497269
 51
298.8067403323502731
  0
ARC
  5
279
100
AcDbEntity
  8
VectorLines_Light_0p003mm
 62
256
370
-1
  6
ByLayer
100
AcDbCircle
 10
-36.0
 20
-28.0
 30
0.0
 40
2.4500000000000002
100
AcDbArc
 50
185.6434797345725656
 51
264.3565202654274344
  0
ARC
  5
27A
100
AcDbEntity
  8
VectorLines_Light_0p003mm
 62
256
370
-1
  6
ByLayer
100
AcDbCircle
 10
-36.0
 20
-26.0
 30
0.0
 40
0.5
100
AcDbArc
 50
61.1932596676497198
 51
118.8067403323502731
  0
ARC
  5
27B
100
AcDbEntity
  8
VectorLines_Light_0p003mm
 62
256
370
-1
  6
ByLayer
100
AcDbCircle
 10
-36.0
 20
-28.0
 30
0.0
 40
2.4500000000000002
100
AcDbArc
 50
95.6434797345725372
 51
174.3565202654274344
  0
ARC
  5
27C
100
AcDbEntity
  8
VectorLines_Light_0p003mm
 62
256
370
-1
  6
ByLayer
100
AcDbCircle
 10
-34.0000000000000071
 20
-27.9999999999999893
 30
0.0
 40
0.5
100
AcDbArc
 50
331.1932596676497269
 51
28.8067403323502802
  0
ARC
  5
27D
100
AcDbEntity
  8
VectorLines_Light_0p003mm
 62
256
370
-1
  6
ByLayer
100
AcDbCircle
 10
-36.0
 20
-28.0
 30
0.0
 40
2.4500000000000002
100
AcDbArc
 50
5.6434797345725594
 51
84.3565202654274913
  0
ARC
  5
27E
100
AcDbEntity
  8
VectorLines_Light_0p003mm
 62
256
370
-1
  6
ByLayer
100
AcDbCircle
 10
-20.0000000000000036
 20
-20.0
 30
0.0
 40
2.4500000000000002
100
AcDbArc
 50
275.6434797345725656
 51
354.3565202654274344
  0
ARC
  5
27F
100
AcDbEntity
  8
VectorLines_Light_0p003mm
 62
256
370
-1
  6
ByLayer
100
AcDbCircle
 10
-22.0000000000000071
 20
-20.0
 30
0.0
 40
0.5
100
AcDbArc
 50
151.1932596676497269
 51
208.8067403323502731
  0
ARC
  5
280
100
AcDbEntity
  8
VectorLines_Light_0p003mm
 62
256
370
-1
  6
ByLayer
100
AcDbCircle
 10
-20.0000000000000071
 20
-21.9999999999999964
 30
0.0
 40
0.5
100
AcDbArc
 50
241.1932596676497269
 51
298.8067403323502731
  0
ARC
  5
281
100
AcDbEntity
  8
VectorLines_Light_0p003mm
 62
256
370
-1
  6
ByLayer
100
AcDbCircle
 10
-20.0000000000000036
 20
-20.0
 30
0.0
 40
2.4500000000000002
100
AcDbArc
 50
185.6434797345725656
 51
264.3565202654274344
  0
ARC
  5
282
100
AcDbEntity
  8
VectorLines_Light_0p003mm
 62
256
370
-1
  6
ByLayer
100
AcDbCircle
 10
-20.0000000000000036
 20
-17.9999999999999929
 30
0.0
 40
0.5
100
AcDbArc
 50
61.1932596676497198
 51
118.8067403323502731
  0
ARC
  5
283
100
AcDbEntity
  8
VectorLines_Light_0p003mm
 62
256
370
-1
  6
ByLayer
100
AcDbCircle
 10
-20.0000000000000036
 20
-20.0
 30
0.0
 40
2.4500000000000002
100
AcDbArc
 50
95.6434797345725372
 51
174.3565202654274344
  0
ARC
  5
284
100
AcDbEntity
  8
VectorLines_Light_0p003mm
 62
256
370
-1
  6
ByLayer
100
AcDbCircle
 10
-18.0000000000000071
 20
-19.9999999999999929
 30
0.0
 40
0.5
100
AcDbArc
 50
331.1932596676497269
 51
28.8067403323502802
  0
ARC
  5
285
100
AcDbEntity
  8
VectorLines_Light_0p003mm
 62
256
370
-1
  6
ByLayer
100
AcDbCircle
 10
-20.0000000000000036
 20
-20.0
 30
0.0
 40
2.4500000000000002
100
AcDbArc
 50
5.6434797345725594
 51
84.3565202654274913
  0
ARC
  5
286
100
AcDbEntity
  8
VectorLines_Light_0p003mm
 62
256
370
-1
  6
ByLayer
100
AcDbCircle
 10
-28.0000000000000036
 20
-19.9999999999999929
 30
0.0
 40
2.4500000000000002
100
AcDbArc
 50
275.6434797345725656
 51
354.3565202654274344
  0
ARC
  5
287
100
AcDbEntity
  8
VectorLines_Light_0p003mm
 62
256
370
-1
  6
ByLayer
100
AcDbCircle
 10
-30.0000000000000036
 20
-19.9999999999999929
 30
0.0
 40
0.5
100
AcDbArc
 50
151.1932596676497269
 51
208.8067403323502731
  0
ARC
  5
288
100
AcDbEntity
  8
VectorLines_Light_0p003mm
 62
256
370
-1
  6
ByLayer
100
AcDbCircle
 10
-28.0000000000000071
 20
-21.9999999999999964
 30
0.0
 40
0.5
100
AcDbArc
 50
241.1932596676497269
 51
298.8067403323502731
  0
ARC
  5
289
100
AcDbEntity
  8
VectorLines_Light_0p003mm
 62
256
370
-1
  6
ByLayer
100
AcDbCircle
 10
-28.0000000000000036
 20
-19.9999999999999929
 30
0.0
 40
2.4500000000000002
100
AcDbArc
 50
185.6434797345725656
 51
264.3565202654274344
  0
ARC
  5
28A
100
AcDbEntity
  8
VectorLines_Light_0p003mm
 62
256
370
-1
  6
ByLayer
100
AcDbCircle
 10
-28.0
 20
-18.0
 30
0.0
 40
0.5
100
AcDbArc
 50
61.1932596676497198
 51
118.8067403323502731
  0
ARC
  5
28B
100
AcDbEntity
  8
VectorLines_Light_0p003mm
 62
256
370
-1
  6
ByLayer
100
AcDbCircle
 10
-28.0000000000000036
 20
-19.9999999999999929
 30
0.0
 40
2.4500000000000002
100
AcDbArc
 50
95.6434797345725372
 51
174.3565202654274344
  0
ARC
  5
28C
100
AcDbEntity
  8
VectorLines_Light_0p003mm
 62
256
370
-1
  6
ByLayer
100
AcDbCircle
 10
-26.0
 20
-20.0000000000000071
 30
0.0
 40
0.5
100
AcDbArc
 50
331.1932596676497269
 51
28.8067403323502802
  0
ARC
  5
28D
100
AcDbEntity
  8
VectorLines_Light_0p003mm
 62
256
370
-1
  6
ByLayer
100
AcDbCircle
 10
-28.0000000000000036
 20
-19.9999999999999929
 30
0.0
 40
2.4500000000000002
100
AcDbArc
 50
5.6434797345725594
 51
84.3565202654274913
  0
ARC
  5
28E
100
AcDbEntity
  8
VectorLines_Light_0p003mm
 62
256
370
-1
  6
ByLayer
100
AcDbCircle
 10
-28.0000000000000071
 20
-27.9999999999999964
 30
0.0
 40
2.4500000000000002
100
AcDbArc
 50
275.6434797345725656
 51
354.3565202654274344
  0
ARC
  5
28F
100
AcDbEntity
  8
VectorLines_Light_0p003mm
 62
256
370
-1
  6
ByLayer
100
AcDbCircle
 10
-30.0000000000000036
 20
-28.0
 30
0.0
 40
0.5
100
AcDbArc
 50
151.1932596676497269
 51
208.8067403323502731
  0
ARC
  5
290
100
AcDbEntity
  8
VectorLines_Light_0p003mm
 62
256
370
-1
  6
ByLayer
100
AcDbCircle
 10
-28.0000000000000071
 20
-29.9999999999999929
 30
0.0
 40
0.5
100
AcDbArc
 50
241.1932596676497269
 51
298.8067403323502731
  0
ARC
  5
291
100
AcDbEntity
  8
VectorLines_Light_0p003mm
 62
256
370
-1
  6
ByLayer
100
AcDbCircle
 10
-28.0000000000000071
 20
-27.9999999999999964
 30
0.0
 40
2.4500000000000002
100
AcDbArc
 50
185.6434797345725656
 51
264.3565202654274344
  0
ARC
  5
292
100
AcDbEntity
  8
VectorLines_Light_0p003mm
 62
256
370
-1
  6
ByLayer
100
AcDbCircle
 10
-27.9999999999999964
 20
-25.9999999999999893
 30
0.0
 40
0.5
100
AcDbArc
 50
61.1932596676497198
 51
118.8067403323502731
  0
ARC
  5
293
100
AcDbEntity
  8
VectorLines_Light_0p003mm
 62
256
370
-1
  6
ByLayer
100
AcDbCircle
 10
-28.0000000000000071
 20
-27.9999999999999964
 30
0.0
 40
2.4500000000000002
100
AcDbArc
 50
95.6434797345725372
 51
174.3565202654274344
  0
ARC
  5
294
100
AcDbEntity
  8
VectorLines_Light_0p003mm
 62
256
370
-1
  6
ByLayer
100
AcDbCircle
 10
-26.0000000000000178
 20
-27.9999999999999858
 30
0.0
 40
0.5
100
AcDbArc
 50
331.1932596676497269
 51
28.8067403323502802
  0
ARC
  5
295
100
AcDbEntity
  8
VectorLines_Light_0p003mm
 62
256
370
-1
  6
ByLayer
100
AcDbCircle
 10
-28.0000000000000071
 20
-27.9999999999999964
 30
0.0
 40
2.4500000000000002
100
AcDbArc
 50
5.6434797345725594
 51
84.3565202654274913
  0
ARC
  5
296
100
AcDbEntity
  8
VectorLines_Light_0p003mm
 62
256
370
-1
  6
ByLayer
100
AcDbCircle
 10
-20.0000000000000036
 20
-27.9999999999999964
 30
0.0
 40
2.4500000000000002
100
AcDbArc
 50
275.6434797345725656
 51
354.3565202654274344
  0
ARC
  5
297
100
AcDbEntity
  8
VectorLines_Light_0p003mm
 62
256
370
-1
  6
ByLayer
100
AcDbCircle
 10
-22.0000000000000036
 20
-28.0000000000000036
 30
0.0
 40
0.5
100
AcDbArc
 50
151.1932596676497269
 51
208.8067403323502731
  0
ARC
  5
298
100
AcDbEntity
  8
VectorLines_Light_0p003mm
 62
256
370
-1
  6
ByLayer
100
AcDbCircle
 10
-20.0000000000000178
 20
-29.9999999999999893
 30
0.0
 40
0.5
100
AcDbArc
 50
241.1932596676497269
 51
298.8067403323502731
  0
ARC
  5
299
100
AcDbEntity
  8
VectorLines_Light_0p003mm
 62
256
370
-1
  6
ByLayer
100
AcDbCircle
 10
-20.0000000000000036
 20
-27.9999999999999964
 30
0.0
 40
2.4500000000000002
100
AcDbArc
 50
185.6434797345725656
 51
264.3565202654274344
  0
ARC
  5
29A
100
AcDbEntity
  8
VectorLines_Light_0p003mm
 62
256
370
-1
  6
ByLayer
100
AcDbCircle
 10
-20.0000000000000142
 20
-25.9999999999999893
 30
0.0
 40
0.5
100
AcDbArc
 50
61.1932596676497198
 51
118.8067403323502731
  0
ARC
  5
29B
100
AcDbEntity
  8
VectorLines_Light_0p003mm
 62
256
370
-1
  6
ByLayer
100
AcDbCircle
 10
-20.0000000000000036
 20
-27.9999999999999964
 30
0.0
 40
2.4500000000000002
100
AcDbArc
 50
95.6434797345725372
 51
174.3565202654274344
  0
ARC
  5
29C
100
AcDbEntity
  8
VectorLines_Light_0p003mm
 62
256
370
-1
  6
ByLayer
100
AcDbCircle
 10
-18.0000000000000071
 20
-27.9999999999999964
 30
0.0
 40
0.5
100
AcDbArc
 50
331.1932596676497269
 51
28.8067403323502802
  0
ARC
  5
29D
100
AcDbEntity
  8
VectorLines_Light_0p003mm
 62
256
370
-1
  6
ByLayer
100
AcDbCircle
 10
-20.0000000000000036
 20
-27.9999999999999964
 30
0.0
 40
2.4500000000000002
100
AcDbArc
 50
5.6434797345725594
 51
84.3565202654274913
  0
ARC
  5
29E
100
AcDbEntity
  8
VectorLines_Light_0p003mm
 62
256
370
-1
  6
ByLayer
100
AcDbCircle
 10
-3.9999999999999973
 20
-20.0
 30
0.0
 40
2.4500000000000002
100
AcDbArc
 50
275.6434797345725656
 51
354.3565202654274344
  0
ARC
  5
29F
100
AcDbEntity
  8
VectorLines_Light_0p003mm
 62
256
370
-1
  6
ByLayer
100
AcDbCircle
 10
-5.9999999999999973
 20
-20.0
 30
0.0
 40
0.5
100
AcDbArc
 50
151.1932596676497269
 51
208.8067403323502731
  0
ARC
  5
2A0
100
AcDbEntity
  8
VectorLines_Light_0p003mm
 62
256
370
-1
  6
ByLayer
100
AcDbCircle
 10
-4.0000000000000009
 20
-22.0
 30
0.0
 40
0.5
100
AcDbArc
 50
241.1932596676497269
 51
298.8067403323502731
  0
ARC
  5
2A1
100
AcDbEntity
  8
VectorLines_Light_0p003mm
 62
256
370
-1
  6
ByLayer
100
AcDbCircle
 10
-3.9999999999999973
 20
-20.0
 30
0.0
 40
2.4500000000000002
100
AcDbArc
 50
185.6434797345725656
 51
264.3565202654274344
  0
ARC
  5
2A2
100
AcDbEntity
  8
VectorLines_Light_0p003mm
 62
256
370
-1
  6
ByLayer
100
AcDbCircle
 10
-4.0000000000000027
 20
-18.0
 30
0.0
 40
0.5
100
AcDbArc
 50
61.1932596676497198
 51
118.8067403323502731
  0
ARC
  5
2A3
100
AcDbEntity
  8
VectorLines_Light_0p003mm
 62
256
370
-1
  6
ByLayer
100
AcDbCircle
 10
-3.9999999999999973
 20
-20.0
 30
0.0
 40
2.4500000000000002
100
AcDbArc
 50
95.6434797345725372
 51
174.3565202654274344
  0
ARC
  5
2A4
100
AcDbEntity
  8
VectorLines_Light_0p003mm
 62
256
370
-1
  6
ByLayer
100
AcDbCircle
 10
-2.0000000000000004
 20
-20.0
 30
0.0
 40
0.5
100
AcDbArc
 50
331.1932596676497269
 51
28.8067403323502802
  0
ARC
  5
2A5
100
AcDbEntity
  8
VectorLines_Light_0p003mm
 62
256
370
-1
  6
ByLayer
100
AcDbCircle
 10
-3.9999999999999973
 20
-20.0
 30
0.0
 40
2.4500000000000002
100
AcDbArc
 50
5.6434797345725594
 51
84.3565202654274913
  0
ARC
  5
2A6
100
AcDbEntity
  8
VectorLines_Light_0p003mm
 62
256
370
-1
  6
ByLayer
100
AcDbCircle
 10
-4.000000000000008
 20
-28.0
 30
0.0
 40
2.4500000000000002
100
AcDbArc
 50
275.6434797345725656
 51
354.3565202654274344
  0
ARC
  5
2A7
100
AcDbEntity
  8
VectorLines_Light_0p003mm
 62
256
370
-1
  6
ByLayer
100
AcDbCircle
 10
-5.9999999999999982
 20
-28.0000000000000071
 30
0.0
 40
0.5
100
AcDbArc
 50
151.1932596676497269
 51
208.8067403323502731
  0
ARC
  5
2A8
100
AcDbEntity
  8
VectorLines_Light_0p003mm
 62
256
370
-1
  6
ByLayer
100
AcDbCircle
 10
-3.9999999999999969
 20
-30.0
 30
0.0
 40
0.5
100
AcDbArc
 50
241.1932596676497269
 51
298.8067403323502731
  0
ARC
  5
2A9
100
AcDbEntity
  8
VectorLines_Light_0p003mm
 62
256
370
-1
  6
ByLayer
100
AcDbCircle
 10
-4.000000000000008
 20
-28.0
 30
0.0
 40
2.4500000000000002
100
AcDbArc
 50
185.6434797345725656
 51
264.3565202654274344
  0
ARC
  5
2AA
100
AcDbEntity
  8
VectorLines_Light_0p003mm
 62
256
370
-1
  6
ByLayer
100
AcDbCircle
 10
-4.0000000000000018
 20
-26.0
 30
0.0
 40
0.5
100
AcDbArc
 50
61.1932596676497198
 51
118.8067403323502731
  0
ARC
  5
2AB
100
AcDbEntity
  8
VectorLines_Light_0p003mm
 62
256
370
-1
  6
ByLayer
100
AcDbCircle
 10
-4.000000000000008
 20
-28.0
 30
0.0
 40
2.4500000000000002
100
AcDbArc
 50
95.6434797345725372
 51
174.3565202654274344
  0
ARC
  5
2AC
100
AcDbEntity
  8
VectorLines_Light_0p003mm
 62
256
370
-1
  6
ByLayer
100
AcDbCircle
 10
-2.0000000000000031
 20
-28.0
 30
0.0
 40
0.5
100
AcDbArc
 50
331.1932596676497269
 51
28.8067403323502802
  0
ARC
  5
2AD
100
AcDbEntity
  8
VectorLines_Light_0p003mm
 62
256
370
-1
  6
ByLayer
100
AcDbCircle
 10
-4.000000000000008
 20
-28.0
 30
0.0
 40
2.4500000000000002
100
AcDbArc
 50
5.6434797345725594
 51
84.3565202654274913
  0
ARC
  5
2AE
100
AcDbEntity
  8
VectorLines_Light_0p003mm
 62
256
370
-1
  6
ByLayer
100
AcDbCircle
 10
3.9999999999999898
 20
-20.0
 30
0.0
 40
2.4500000000000002
100
AcDbArc
 50
275.6434797345725656
 51
354.3565202654274344
  0
ARC
  5
2AF
100
AcDbEntity
  8
VectorLines_Light_0p003mm
 62
256
370
-1
  6
ByLayer
100
AcDbCircle
 10
1.9999999999999929
 20
-20.0
 30
0.0
 40
0.5
100
AcDbArc
 50
151.1932596676497269
 51
208.8067403323502731
  0
ARC
  5
2B0
100
AcDbEntity
  8
VectorLines_Light_0p003mm
 62
256
370
-1
  6
ByLayer
100
AcDbCircle
 10
3.999999999999992
 20
-22.0000000000000036
 30
0.0
 40
0.5
100
AcDbArc
 50
241.1932596676497269
 51
298.8067403323502731
  0
ARC
  5
2B1
100
AcDbEntity
  8
VectorLines_Light_0p003mm
 62
256
370
-1
  6
ByLayer
100
AcDbCircle
 10
3.9999999999999898
 20
-20.0
 30
0.0
 40
2.4500000000000002
100
AcDbArc
 50
185.6434797345725656
 51
264.3565202654274344
  0
ARC
  5
2B2
100
AcDbEntity
  8
VectorLines_Light_0p003mm
 62
256
370
-1
  6
ByLayer
100
AcDbCircle
 10
3.9999999999999956
 20
-18.0
 30
0.0
 40
0.5
100
AcDbArc
 50
61.1932596676497198
 51
118.8067403323502731
  0
ARC
  5
2B3
100
AcDbEntity
  8
VectorLines_Light_0p003mm
 62
256
370
-1
  6
ByLayer
100
AcDbCircle
 10
3.9999999999999898
 20
-20.0
 30
0.0
 40
2.4500000000000002
100
AcDbArc
 50
95.6434797345725372
 51
174.3565202654274344
  0
ARC
  5
2B4
100
AcDbEntity
  8
VectorLines_Light_0p003mm
 62
256
370
-1
  6
ByLayer
100
AcDbCircle
 10
5.9999999999999902
 20
-20.0000000000000036
 30
0.0
 40
0.5
100
AcDbArc
 50
331.1932596676497269
 51
28.8067403323502802
  0
ARC
  5
2B5
100
AcDbEntity
  8
VectorLines_Light_0p003mm
 62
256
370
-1
  6
ByLayer
100
AcDbCircle
 10
3.9999999999999898
 20
-20.0
 30
0.0
 40
2.4500000000000002
100
AcDbArc
 50
5.6434797345725594
 51
84.3565202654274913
  0
ARC
  5
2B6
100
AcDbEntity
  8
VectorLines_Light_0p003mm
 62
256
370
-1
  6
ByLayer
100
AcDbCircle
 10
3.9999999999999982
 20
-28.0000000000000071
 30
0.0
 40
2.4500000000000002
100
AcDbArc
 50
275.6434797345725656
 51
354.3565202654274344
  0
ARC
  5
2B7
100
AcDbEntity
  8
VectorLines_Light_0p003mm
 62
256
370
-1
  6
ByLayer
100
AcDbCircle
 10
1.9999999999999931
 20
-28.0
 30
0.0
 40
0.5
100
AcDbArc
 50
151.1932596676497269
 51
208.8067403323502731
  0
ARC
  5
2B8
100
AcDbEntity
  8
VectorLines_Light_0p003mm
 62
256
370
-1
  6
ByLayer
100
AcDbCircle
 10
3.9999999999999849
 20
-30.0000000000000036
 30
0.0
 40
0.5
100
AcDbArc
 50
241.1932596676497269
 51
298.8067403323502731
  0
ARC
  5
2B9
100
AcDbEntity
  8
VectorLines_Light_0p003mm
 62
256
370
-1
  6
ByLayer
100
AcDbCircle
 10
3.9999999999999982
 20
-28.0000000000000071
 30
0.0
 40
2.4500000000000002
100
AcDbArc
 50
185.6434797345725656
 51
264.3565202654274344
  0
ARC
  5
2BA
100
AcDbEntity
  8
VectorLines_Light_0p003mm
 62
256
370
-1
  6
ByLayer
100
AcDbCircle
 10
3.9999999999999916
 20
-26.0000000000000071
 30
0.0
 40
0.5
100
AcDbArc
 50
61.1932596676497198
 51
118.8067403323502731
  0
ARC
  5
2BB
100
AcDbEntity
  8
VectorLines_Light_0p003mm
 62
256
370
-1
  6
ByLayer
100
AcDbCircle
 10
3.9999999999999982
 20
-28.0000000000000071
 30
0.0
 40
2.4500000000000002
100
AcDbArc
 50
95.6434797345725372
 51
174.3565202654274344
  0
ARC
  5
2BC
100
AcDbEntity
  8
VectorLines_Light_0p003mm
 62
256
370
-1
  6
ByLayer
100
AcDbCircle
 10
5.9999999999999867
 20
-28.0000000000000036
 30
0.0
 40
0.5
100
AcDbArc
 50
331.1932596676497269
 51
28.8067403323502802
  0
ARC
  5
2BD
100
AcDbEntity
  8
VectorLines_Light_0p003mm
 62
256
370
-1
  6
ByLayer
100
AcDbCircle
 10
3.9999999999999982
 20
-28.0000000000000071
 30
0.0
 40
2.4500000000000002
100
AcDbArc
 50
5.6434797345725594
 51
84.3565202654274913
  0
ARC
  5
2BE
100
AcDbEntity
  8
VectorLines_Light_0p003mm
 62
256
370
-1
  6
ByLayer
100
AcDbCircle
 10
27.9999999999999964
 20
-20.0000000000000036
 30
0.0
 40
2.4500000000000002
100
AcDbArc
 50
275.6434797345725656
 51
354.3565202654274344
  0
ARC
  5
2BF
100
AcDbEntity
  8
VectorLines_Light_0p003mm
 62
256
370
-1
  6
ByLayer
100
AcDbCircle
 10
25.9999999999999893
 20
-20.0000000000000142
 30
0.0
 40
0.5
100
AcDbArc
 50
151.1932596676497269
 51
208.8067403323502731
  0
ARC
  5
2C0
100
AcDbEntity
  8
VectorLines_Light_0p003mm
 62
256
370
-1
  6
ByLayer
100
AcDbCircle
 10
28.0000000000000036
 20
-22.0000000000000036
 30
0.0
 40
0.5
100
AcDbArc
 50
241.1932596676497269
 51
298.8067403323502731
  0
ARC
  5
2C1
100
AcDbEntity
  8
VectorLines_Light_0p003mm
 62
256
370
-1
  6
ByLayer
100
AcDbCircle
 10
27.9999999999999964
 20
-20.0000000000000036
 30
0.0
 40
2.4500000000000002
100
AcDbArc
 50
185.6434797345725656
 51
264.3565202654274344
  0
ARC
  5
2C2
100
AcDbEntity
  8
VectorLines_Light_0p003mm
 62
256
370
-1
  6
ByLayer
100
AcDbCircle
 10
27.9999999999999964
 20
-18.0000000000000071
 30
0.0
 40
0.5
100
AcDbArc
 50
61.1932596676497198
 51
118.8067403323502731
  0
ARC
  5
2C3
100
AcDbEntity
  8
VectorLines_Light_0p003mm
 62
256
370
-1
  6
ByLayer
100
AcDbCircle
 10
27.9999999999999964
 20
-20.0000000000000036
 30
0.0
 40
2.4500000000000002
100
AcDbArc
 50
95.6434797345725372
 51
174.3565202654274344
  0
ARC
  5
2C4
100
AcDbEntity
  8
VectorLines_Light_0p003mm
 62
256
370
-1
  6
ByLayer
100
AcDbCircle
 10
29.9999999999999893
 20
-20.0000000000000178
 30
0.0
 40
0.5
100
AcDbArc
 50
331.1932596676497269
 51
28.8067403323502802
  0
ARC
  5
2C5
100
AcDbEntity
  8
VectorLines_Light_0p003mm
 62
256
370
-1
  6
ByLayer
100
AcDbCircle
 10
27.9999999999999964
 20
-20.0000000000000036
 30
0.0
 40
2.4500000000000002
100
AcDbArc
 50
5.6434797345725594
 51
84.3565202654274913
  0
ARC
  5
2C6
100
AcDbEntity
  8
VectorLines_Light_0p003mm
 62
256
370
-1
  6
ByLayer
100
AcDbCircle
 10
20.0
 20
-20.0000000000000036
 30
0.0
 40
2.4500000000000002
100
AcDbArc
 50
275.6434797345725656
 51
354.3565202654274344
  0
ARC
  5
2C7
100
AcDbEntity
  8
VectorLines_Light_0p003mm
 62
256
370
-1
  6
ByLayer
100
AcDbCircle
 10
17.9999999999999964
 20
-20.0
 30
0.0
 40
0.5
100
AcDbArc
 50
151.1932596676497269
 51
208.8067403323502731
  0
ARC
  5
2C8
100
AcDbEntity
  8
VectorLines_Light_0p003mm
 62
256
370
-1
  6
ByLayer
100
AcDbCircle
 10
19.9999999999999893
 20
-22.0000000000000178
 30
0.0
 40
0.5
100
AcDbArc
 50
241.1932596676497269
 51
298.8067403323502731
  0
ARC
  5
2C9
100
AcDbEntity
  8
VectorLines_Light_0p003mm
 62
256
370
-1
  6
ByLayer
100
AcDbCircle
 10
20.0
 20
-20.0000000000000036
 30
0.0
 40
2.4500000000000002
100
AcDbArc
 50
185.6434797345725656
 51
264.3565202654274344
  0
ARC
  5
2CA
100
AcDbEntity
  8
VectorLines_Light_0p003mm
 62
256
370
-1
  6
ByLayer
100
AcDbCircle
 10
19.9999999999999929
 20
-18.0000000000000071
 30
0.0
 40
0.5
100
AcDbArc
 50
61.1932596676497198
 51
118.8067403323502731
  0
ARC
  5
2CB
100
AcDbEntity
  8
VectorLines_Light_0p003mm
 62
256
370
-1
  6
ByLayer
100
AcDbCircle
 10
20.0
 20
-20.0000000000000036
 30
0.0
 40
2.4500000000000002
100
AcDbArc
 50
95.6434797345725372
 51
174.3565202654274344
  0
ARC
  5
2CC
100
AcDbEntity
  8
VectorLines_Light_0p003mm
 62
256
370
-1
  6
ByLayer
100
AcDbCircle
 10
22.0000000000000036
 20
-19.9999999999999964
 30
0.0
 40
0.5
100
AcDbArc
 50
331.1932596676497269
 51
28.8067403323502802
  0
ARC
  5
2CD
100
AcDbEntity
  8
VectorLines_Light_0p003mm
 62
256
370
-1
  6
ByLayer
100
AcDbCircle
 10
20.0
 20
-20.0000000000000036
 30
0.0
 40
2.4500000000000002
100
AcDbArc
 50
5.6434797345725594
 51
84.3565202654274913
  0
ARC
  5
2CE
100
AcDbEntity
  8
VectorLines_Light_0p003mm
 62
256
370
-1
  6
ByLayer
100
AcDbCircle
 10
19.9999999999999893
 20
-28.0000000000000036
 30
0.0
 40
2.4500000000000002
100
AcDbArc
 50
275.6434797345725656
 51
354.3565202654274344
  0
ARC
  5
2CF
100
AcDbEntity
  8
VectorLines_Light_0p003mm
 62
256
370
-1
  6
ByLayer
100
AcDbCircle
 10
17.9999999999999964
 20
-28.0000000000000036
 30
0.0
 40
0.5
100
AcDbArc
 50
151.1932596676497269
 51
208.8067403323502731
  0
ARC
  5
2D0
100
AcDbEntity
  8
VectorLines_Light_0p003mm
 62
256
370
-1
  6
ByLayer
100
AcDbCircle
 10
20.0
 20
-29.9999999999999964
 30
0.0
 40
0.5
100
AcDbArc
 50
241.1932596676497269
 51
298.8067403323502731
  0
ARC
  5
2D1
100
AcDbEntity
  8
VectorLines_Light_0p003mm
 62
256
370
-1
  6
ByLayer
100
AcDbCircle
 10
19.9999999999999893
 20
-28.0000000000000036
 30
0.0
 40
2.4500000000000002
100
AcDbArc
 50
185.6434797345725656
 51
264.3565202654274344
  0
ARC
  5
2D2
100
AcDbEntity
  8
VectorLines_Light_0p003mm
 62
256
370
-1
  6
ByLayer
100
AcDbCircle
 10
20.0000000000000071
 20
-26.0000000000000071
 30
0.0
 40
0.5
100
AcDbArc
 50
61.1932596676497198
 51
118.8067403323502731
  0
ARC
  5
2D3
100
AcDbEntity
  8
VectorLines_Light_0p003mm
 62
256
370
-1
  6
ByLayer
100
AcDbCircle
 10
19.9999999999999893
 20
-28.0000000000000036
 30
0.0
 40
2.4500000000000002
100
AcDbArc
 50
95.6434797345725372
 51
174.3565202654274344
  0
ARC
  5
2D4
100
AcDbEntity
  8
VectorLines_Light_0p003mm
 62
256
370
-1
  6
ByLayer
100
AcDbCircle
 10
21.9999999999999929
 20
-28.0000000000000107
 30
0.0
 40
0.5
100
AcDbArc
 50
331.1932596676497269
 51
28.8067403323502802
  0
ARC
  5
2D5
100
AcDbEntity
  8
VectorLines_Light_0p003mm
 62
256
370
-1
  6
ByLayer
100
AcDbCircle
 10
19.9999999999999893
 20
-28.0000000000000036
 30
0.0
 40
2.4500000000000002
100
AcDbArc
 50
5.6434797345725594
 51
84.3565202654274913
  0
ARC
  5
2D6
100
AcDbEntity
  8
VectorLines_Light_0p003mm
 62
256
370
-1
  6
ByLayer
100
AcDbCircle
 10
27.9999999999999964
 20
-28.0000000000000071
 30
0.0
 40
2.4500000000000002
100
AcDbArc
 50
275.6434797345725656
 51
354.3565202654274344
  0
ARC
  5
2D7
100
AcDbEntity
  8
VectorLines_Light_0p003mm
 62
256
370
-1
  6
ByLayer
100
AcDbCircle
 10
25.9999999999999929
 20
-28.0000000000000036
 30
0.0
 40
0.5
100
AcDbArc
 50
151.1932596676497269
 51
208.8067403323502731
  0
ARC
  5
2D8
100
AcDbEntity
  8
VectorLines_Light_0p003mm
 62
256
370
-1
  6
ByLayer
100
AcDbCircle
 10
27.9999999999999964
 20
-30.0000000000000071
 30
0.0
 40
0.5
100
AcDbArc
 50
241.1932596676497269
 51
298.8067403323502731
  0
ARC
  5
2D9
100
AcDbEntity
  8
VectorLines_Light_0p003mm
 62
256
370
-1
  6
ByLayer
100
AcDbCircle
 10
27.9999999999999964
 20
-28.0000000000000071
 30
0.0
 40
2.4500000000000002
100
AcDbArc
 50
185.6434797345725656
 51
264.3565202654274344
  0
ARC
  5
2DA
100
AcDbEntity
  8
VectorLines_Light_0p003mm
 62
256
370
-1
  6
ByLayer
100
AcDbCircle
 10
27.9999999999999929
 20
-26.0000000000000036
 30
0.0
 40
0.5
100
AcDbArc
 50
61.1932596676497198
 51
118.8067403323502731
  0
ARC
  5
2DB
100
AcDbEntity
  8
VectorLines_Light_0p003mm
 62
256
370
-1
  6
ByLayer
100
AcDbCircle
 10
27.9999999999999964
 20
-28.0000000000000071
 30
0.0
 40
2.4500000000000002
100
AcDbArc
 50
95.6434797345725372
 51
174.3565202654274344
  0
ARC
  5
2DC
100
AcDbEntity
  8
VectorLines_Light_0p003mm
 62
256
370
-1
  6
ByLayer
100
AcDbCircle
 10
29.9999999999999929
 20
-28.0000000000000071
 30
0.0
 40
0.5
100
AcDbArc
 50
331.1932596676497269
 51
28.8067403323502802
  0
ARC
  5
2DD
100
AcDbEntity
  8
VectorLines_Light_0p003mm
 62
256
370
-1
  6
ByLayer
100
AcDbCircle
 10
27.9999999999999964
 20
-28.0000000000000071
 30
0.0
 40
2.4500000000000002
100
AcDbArc
 50
5.6434797345725594
 51
84.3565202654274913
  0
ENDSEC
  0
SECTION
  2
OBJECTS
  0
DICTIONARY
  5
C
100
AcDbDictionary
280
0
281
1
  3
ACAD_GROUP
350
D
  3
ACAD_LAYOUT
350
1A
  3
ACAD_MLINESTYLE
350
17
  3
ACAD_PLOTSETTINGS
350
19
  3
ACAD_PLOTSTYLENAME
350
E
  3
AcDbVariableDictionary
350
2DE
  0
DICTIONARY
  5
D
100
AcDbDictionary
280
0
281
1
  0
ACDBDICTIONARYWDFLT
  5
E
100
AcDbDictionary
281
1
  3
Normal
350
F
100
AcDbDictionaryWithDefault
340
F
  0
ACDBPLACEHOLDER
  5
F
  0
DICTIONARY
  5
17
100
AcDbDictionary
280
0
281
1
  3
Standard
350
18
  0
MLINESTYLE
  5
18
100
AcDbMlineStyle
  2
STANDARD
 70
0
  3

 62
256
 51
90.0
 52
90.0
 71
2
 49
0.5
 62
256
  6
BYLAYER
 49
-0.5
 62
256
  6
BYLAYER
  0
DICTIONARY
  5
19
100
AcDbDictionary
280
0
281
1
  0
DICTIONARY
  5
1A
100
AcDbDictionary
281
1
  3
Layout1
350
1E
  3
Layout2
350
26
  3
Model
350
22
  0
LAYOUT
  5
1E
100
AcDbPlotSettings
  1

  2
C:\Program Files\AutoCAD 2002\plotters\DWF ePlot (optimized for plotting).pc3
  4

  6

 40
0.0
 41
0.0
 42
0.0
 43
0.0
 44
0.0
 45
0.0
 46
0.0
 47
0.0
 48
0.0
 49
0.0
140
0.0
141
0.0
142
1.0
143
1.0
 70
688
 72
0
 73
0
 74
5
  7

 75
16
147
1.0
148
0.0
149
0.0
100
AcDbLayout
  1
Layout1
 70
1
 71
1
 10
0.0
 20
0.0
 11
420.0
 21
297.0
 12
0.0
 22
0.0
 32
0.0
 14
100000000000000000000.0
 24
100000000000000000000.0
 34
100000000000000000000.0
 15
-100000000000000000000.0
 25
-100000000000000000000.0
 35
-100000000000000000000.0
146
0.0
 13
0.0
 23
0.0
 33
0.0
 16
1.0
 26
0.0
 36
0.0
 17
0.0
 27
1.0
 37
0.0
 76
0
330
1B
  0
LAYOUT
  5
22
100
AcDbPlotSettings
  1

  2
C:\Program Files\AutoCAD 2002\plotters\DWF ePlot (optimized for plotting).pc3
  4

  6

 40
0.0
 41
0.0
 42
0.0
 43
0.0
 44
0.0
 45
0.0
 46
0.0
 47
0.0
 48
0.0
 49
0.0
140
0.0
141
0.0
142
1.0
143
1.0
 70
1712
 72
0
 73
0
 74
0
  7

 75
0
147
1.0
148
0.0
149
0.0
100
AcDbLayout
  1
Model
 70
1
 71
0
 10
0.0
 20
0.0
 11
12.0
 21
9.0
 12
0.0
 22
0.0
 32
0.0
 14
0.0
 24
0.0
 34
0.0
 15
0.0
 25
0.0
 35
0.0
146
0.0
 13
0.0
 23
0.0
 33
0.0
 16
1.0
 26
0.0
 36
0.0
 17
0.0
 27
1.0
 37
0.0
 76
0
330
1F
  0
LAYOUT
  5
26
100
AcDbPlotSettings
  1

  2
C:\Program Files\AutoCAD 2002\plotters\DWF ePlot (optimized for plotting).pc3
  4

  6

 40
0.0
 41
0.0
 42
0.0
 43
0.0
 44
0.0
 45
0.0
 46
0.0
 47
0.0
 48
0.0
 49
0.0
140
0.0
141
0.0
142
1.0
143
1.0
 70
688
 72
0
 73
0
 74
5
  7

 75
16
147
1.0
148
0.0
149
0.0
100
AcDbLayout
  1
Layout2
 70
1
 71
2
 10
0.0
 20
0.0
 11
12.0
 21
9.0
 12
0.0
 22
0.0
 32
0.0
 14
0.0
 24
0.0
 34
0.0
 15
0.0
 25
0.0
 35
0.0
146
0.0
 13
0.0
 23
0.0
 33
0.0
 16
1.0
 26
0.0
 36
0.0
 17
0.0
 27
1.0
 37
0.0
 76
0
330
23
  0
DICTIONARY
  5
2DE
100
AcDbDictionary
281
1
  3
DIMASSOC
350
2E0
  3
HIDETEXT
350
2DF
  0
DICTIONARYVAR
  5
2DF
100
DictionaryVariables
280
0
  1
2
  0
DICTIONARYVAR
  5
2E0
100
DictionaryVariables
280
0
  1
1
  0
ENDSEC
  0
EOF
