999
dxflib 2.2.0.0
  0
SECTION
  2
HEADER
  9
$ACADVER
  1
AC1015
  9
$HANDSEED
  5
FFFF
  9
$DIMASZ
 40
2.5
  9
$GRIDMODE
 70
1
  9
$PLIMMIN
 10
0.0
 20
0.0
  9
$DIMEXE
 40
1.25
  9
$DIMGAP
 40
0.625
  9
$PLIMMAX
 10
210.0
 20
297.0
  9
$INSUNITS
 70
4
  9
$DIMSTYLE
  2
Standard
  9
$CLAYER
  8
VectorLines_Light_0p003mm
  9
$DIMEXO
 40
0.625
  9
$DIMTXT
 40
2.5
  9
$CLAYER
  8
CuttingLines_0p003mm
  0
ENDSEC
  0
SECTION
  2
TABLES
  0
TABLE
  2
VPORT
  5
8
100
AcDbSymbolTable
 70
1
  0
VPORT
  5
30
100
AcDbSymbolTableRecord
100
AcDbViewportTableRecord
  2
*Active
 70
0
 10
0.0
 20
0.0
 11
1.0
 21
1.0
 12
286.3055555555554861
 22
148.5
 13
0.0
 23
0.0
 14
10.0
 24
10.0
 15
10.0
 25
10.0
 16
0.0
 26
0.0
 36
1.0
 17
0.0
 27
0.0
 37
0.0
 40
297.0
 41
1.92798353909465
 42
50.0
 43
0.0
 44
0.0
 50
0.0
 51
0.0
 71
0
 72
100
 73
1
 74
3
 75
1
 76
1
 77
0
 78
0
281
0
 65
1
110
0.0
120
0.0
130
0.0
111
1.0
121
0.0
131
0.0
112
0.0
122
1.0
132
0.0
 79
0
146
0.0
  0
ENDTAB
  0
TABLE
  2
LTYPE
  5
5
100
AcDbSymbolTable
 70
21
  0
LTYPE
  5
14
100
AcDbSymbolTableRecord
100
AcDbLinetypeTableRecord
  2
ByBlock
 70
0
  3

 72
65
 73
0
 40
0.0
  0
LTYPE
  5
15
100
AcDbSymbolTableRecord
100
AcDbLinetypeTableRecord
  2
ByLayer
 70
0
  3

 72
65
 73
0
 40
0.0
  0
LTYPE
  5
16
100
AcDbSymbolTableRecord
100
AcDbLinetypeTableRecord
  2
CONTINUOUS
 70
0
  3
Solid line
 72
65
 73
0
 40
0.0
  0
LTYPE
  5
31
100
AcDbSymbolTableRecord
100
AcDbLinetypeTableRecord
  2
DOT
 70
0
  3
Dot . . . . . . . . . . . . . . . . . . . . . .
 72
65
 73
2
 40
6.3499999999999996
 49
0.0
 74
0
 49
-6.3499999999999996
 74
0
  0
LTYPE
  5
32
100
AcDbSymbolTableRecord
100
AcDbLinetypeTableRecord
  2
DOT2
 70
0
  3
Dot (.5x) .....................................
 72
65
 73
2
 40
3.1749999999999998
 49
0.0
 74
0
 49
-3.1749999999999998
 74
0
  0
LTYPE
  5
33
100
AcDbSymbolTableRecord
100
AcDbLinetypeTableRecord
  2
DOTX2
 70
0
  3
Dot (2x) .  .  .  .  .  .  .  .  .  .  .  .  .
 72
65
 73
2
 40
12.6999999999999993
 49
0.0
 74
0
 49
-12.6999999999999993
 74
0
  0
LTYPE
  5
34
100
AcDbSymbolTableRecord
100
AcDbLinetypeTableRecord
  2
DASHED
 70
0
  3
Dashed __ __ __ __ __ __ __ __ __ __ __ __ __ _
 72
65
 73
2
 40
19.0500000000000007
 49
12.6999999999999993
 74
0
 49
-6.3499999999999996
 74
0
  0
LTYPE
  5
35
100
AcDbSymbolTableRecord
100
AcDbLinetypeTableRecord
  2
DASHED2
 70
0
  3
Dashed (.5x) _ _ _ _ _ _ _ _ _ _ _ _ _ _ _ _ _
 72
65
 73
2
 40
9.5250000000000004
 49
6.3499999999999996
 74
0
 49
-3.1749999999999998
 74
0
  0
LTYPE
  5
36
100
AcDbSymbolTableRecord
100
AcDbLinetypeTableRecord
  2
DASHEDX2
 70
0
  3
Dashed (2x) ____  ____  ____  ____  ____  ___
 72
65
 73
2
 40
38.1000000000000014
 49
25.3999999999999986
 74
0
 49
-12.6999999999999993
 74
0
  0
LTYPE
  5
37
100
AcDbSymbolTableRecord
100
AcDbLinetypeTableRecord
  2
DASHDOT
 70
0
  3
Dash dot __ . __ . __ . __ . __ . __ . __ . __
 72
65
 73
4
 40
25.3999999999999986
 49
12.6999999999999993
 74
0
 49
-6.3499999999999996
 74
0
 49
0.0
 74
0
 49
-6.3499999999999996
 74
0
  0
LTYPE
  5
38
100
AcDbSymbolTableRecord
100
AcDbLinetypeTableRecord
  2
DASHDOT2
 70
0
  3
Dash dot (.5x) _._._._._._._._._._._._._._._.
 72
65
 73
4
 40
12.6999999999999993
 49
6.3499999999999996
 74
0
 49
-3.1749999999999998
 74
0
 49
0.0
 74
0
 49
-3.1749999999999998
 74
0
  0
LTYPE
  5
39
100
AcDbSymbolTableRecord
100
AcDbLinetypeTableRecord
  2
DASHDOTX2
 70
0
  3
Dash dot (2x) ____  .  ____  .  ____  .  ___
 72
65
 73
4
 40
50.7999999999999972
 49
25.3999999999999986
 74
0
 49
-12.6999999999999993
 74
0
 49
0.0
 74
0
 49
-12.6999999999999993
 74
0
  0
LTYPE
  5
3A
100
AcDbSymbolTableRecord
100
AcDbLinetypeTableRecord
  2
DIVIDE
 70
0
  3
Divide ____ . . ____ . . ____ . . ____ . . ____
 72
65
 73
6
 40
31.75
 49
12.6999999999999993
 74
0
 49
-6.3499999999999996
 74
0
 49
0.0
 74
0
 49
-6.3499999999999996
 74
0
 49
0.0
 74
0
 49
-6.3499999999999996
 74
0
  0
LTYPE
  5
3B
100
AcDbSymbolTableRecord
100
AcDbLinetypeTableRecord
  2
DIVIDE2
 70
0
  3
Divide (.5x) __..__..__..__..__..__..__..__.._
 72
65
 73
6
 40
15.875
 49
6.3499999999999996
 74
0
 49
-3.1749999999999998
 74
0
 49
0.0
 74
0
 49
-3.1749999999999998
 74
0
 49
0.0
 74
0
 49
-3.1749999999999998
 74
0
  0
LTYPE
  5
3C
100
AcDbSymbolTableRecord
100
AcDbLinetypeTableRecord
  2
DIVIDEX2
 70
0
  3
Divide (2x) ________  .  .  ________  .  .  _
 72
65
 73
6
 40
63.5
 49
25.3999999999999986
 74
0
 49
-12.6999999999999993
 74
0
 49
0.0
 74
0
 49
-12.6999999999999993
 74
0
 49
0.0
 74
0
 49
-12.6999999999999993
 74
0
  0
LTYPE
  5
3D
100
AcDbSymbolTableRecord
100
AcDbLinetypeTableRecord
  2
CENTER
 70
0
  3
Center ____ _ ____ _ ____ _ ____ _ ____ _ ____
 72
65
 73
4
 40
50.7999999999999972
 49
31.75
 74
0
 49
-6.3499999999999996
 74
0
 49
6.3499999999999996
 74
0
 49
-6.3499999999999996
 74
0
  0
LTYPE
  5
3E
100
AcDbSymbolTableRecord
100
AcDbLinetypeTableRecord
  2
CENTER2
 70
0
  3
Center (.5x) ___ _ ___ _ ___ _ ___ _ ___ _ ___
 72
65
 73
4
 40
28.5749999999999993
 49
19.0500000000000007
 74
0
 49
-3.1749999999999998
 74
0
 49
3.1749999999999998
 74
0
 49
-3.1749999999999998
 74
0
  0
LTYPE
  5
3F
100
AcDbSymbolTableRecord
100
AcDbLinetypeTableRecord
  2
CENTERX2
 70
0
  3
Center (2x) ________  __  ________  __  _____
 72
65
 73
4
 40
101.5999999999999943
 49
63.5
 74
0
 49
-12.6999999999999993
 74
0
 49
12.6999999999999993
 74
0
 49
-12.6999999999999993
 74
0
  0
LTYPE
  5
40
100
AcDbSymbolTableRecord
100
AcDbLinetypeTableRecord
  2
BORDER
 70
0
  3
Border __ __ . __ __ . __ __ . __ __ . __ __ .
 72
65
 73
6
 40
44.4500000000000028
 49
12.6999999999999993
 74
0
 49
-6.3499999999999996
 74
0
 49
12.6999999999999993
 74
0
 49
-6.3499999999999996
 74
0
 49
0.0
 74
0
 49
-6.3499999999999996
 74
0
  0
LTYPE
  5
41
100
AcDbSymbolTableRecord
100
AcDbLinetypeTableRecord
  2
BORDER2
 70
0
  3
Border (.5x) __.__.__.__.__.__.__.__.__.__.__.
 72
65
 73
6
 40
22.2250000000000014
 49
6.3499999999999996
 74
0
 49
-3.1749999999999998
 74
0
 49
6.3499999999999996
 74
0
 49
-3.1749999999999998
 74
0
 49
0.0
 74
0
 49
-3.1749999999999998
 74
0
  0
LTYPE
  5
42
100
AcDbSymbolTableRecord
100
AcDbLinetypeTableRecord
  2
BORDERX2
 70
0
  3
Border (2x) ____  ____  .  ____  ____  .  ___
 72
65
 73
6
 40
88.9000000000000057
 49
25.3999999999999986
 74
0
 49
-12.6999999999999993
 74
0
 49
25.3999999999999986
 74
0
 49
-12.6999999999999993
 74
0
 49
0.0
 74
0
 49
-12.6999999999999993
 74
0
  0
ENDTAB
  0
TABLE
  2
LAYER
  5
2
100
AcDbSymbolTable
 70
12
  0
LAYER
  5
10
100
AcDbSymbolTableRecord
100
AcDbLayerTableRecord
  2
0
 70
0
 62
7
420
0
  6
CONTINUOUS
370
25
390
F
  0
LAYER
  5
43
100
AcDbSymbolTableRecord
100
AcDbLayerTableRecord
  2
SafeOrange_P1_181mm_181mm
 70
0
 62
30
420
16159262
  6
CONTINUOUS
370
0
390
F
  0
LAYER
  5
44
100
AcDbSymbolTableRecord
100
AcDbLayerTableRecord
  2
SafeOrange_P2_384mm_384mm
 70
0
 62
30
420
16159262
  6
CONTINUOUS
370
0
390
F
  0
LAYER
  5
45
100
AcDbSymbolTableRecord
100
AcDbLayerTableRecord
  2
SafeOrange_P3_790mm_384mm
 70
0
 62
30
420
16159262
  6
CONTINUOUS
370
0
390
F
  0
LAYER
  5
46
100
AcDbSymbolTableRecord
100
AcDbLayerTableRecord
  2
CuttingLines_0p003mm
 70
0
 62
5
420
255
  6
CONTINUOUS
370
0
390
F
  0
LAYER
  5
47
100
AcDbSymbolTableRecord
100
AcDbLayerTableRecord
  2
RasterFill_Heavy_0p03mm
 70
0
 62
7
420
0
  6
CONTINUOUS
370
0
390
F
  0
LAYER
  5
48
100
AcDbSymbolTableRecord
100
AcDbLayerTableRecord
  2
RasterFill_Light_0p03mm
 70
0
 62
254
420
15132390
  6
CONTINUOUS
370
0
390
F
  0
LAYER
  5
49
100
AcDbSymbolTableRecord
100
AcDbLayerTableRecord
  2
RasterFill_Medium_0p03mm
 70
0
 62
8
420
8421504
  6
CONTINUOUS
370
0
390
F
  0
LAYER
  5
4A
100
AcDbSymbolTableRecord
100
AcDbLayerTableRecord
  2
SafeOrange_Annotation
 70
0
 62
30
420
16159262
  6
CONTINUOUS
370
0
390
F
  0
LAYER
  5
4B
100
AcDbSymbolTableRecord
100
AcDbLayerTableRecord
  2
VectorLines_Medium_0p003mm
 70
0
 62
3
420
65280
  6
CONTINUOUS
370
0
390
F
  0
LAYER
  5
4C
100
AcDbSymbolTableRecord
100
AcDbLayerTableRecord
  2
VectorLines_Light_0p003mm
 70
0
 62
6
420
16711935
  6
CONTINUOUS
370
0
390
F
  0
LAYER
  5
4D
100
AcDbSymbolTableRecord
100
AcDbLayerTableRecord
  2
VectorLines_Heavy_0p003mm
 70
0
 62
1
420
16711680
  6
CONTINUOUS
370
0
390
F
  0
ENDTAB
  0
TABLE
  2
STYLE
  5
3
100
AcDbSymbolTable
 70
1
  0
STYLE
  5
11
100
AcDbSymbolTableRecord
100
AcDbTextStyleTableRecord
  2
Standard
 70
0
 40
0.0
 41
0.75
 50
0.0
 71
0
 42
2.5
  3
txt
  4

  0
ENDTAB
  0
TABLE
  2
VIEW
  5
6
100
AcDbSymbolTable
 70
0
  0
ENDTAB
  0
TABLE
  2
UCS
  5
7
100
AcDbSymbolTable
 70
0
  0
ENDTAB
  0
TABLE
  2
APPID
  5
9
100
AcDbSymbolTable
 70
1
  0
APPID
  5
12
100
AcDbSymbolTableRecord
100
AcDbRegAppTableRecord
  2
ACAD
 70
0
  0
ENDTAB
  0
TABLE
  2
DIMSTYLE
  5
A
100
AcDbSymbolTable
 70
1
100
AcDbDimStyleTable
 71
0
  0
DIMSTYLE
105
27
100
AcDbSymbolTableRecord
100
AcDbDimStyleTableRecord
  2
Standard
 41
2.5
 42
0.625
 43
3.75
 44
1.25
 70
0
 73
0
 74
0
 77
1
 78
8
140
2.5
141
2.5
143
0.03937007874016
147
0.625
171
3
172
1
271
2
272
2
274
3
278
44
283
0
284
8
340
11
  0
ENDTAB
  0
TABLE
  2
BLOCK_RECORD
  5
1
100
AcDbSymbolTable
 70
1
  0
BLOCK_RECORD
  5
1F
100
AcDbSymbolTableRecord
100
AcDbBlockTableRecord
  2
*Model_Space
340
22
  0
BLOCK_RECORD
  5
1B
100
AcDbSymbolTableRecord
100
AcDbBlockTableRecord
  2
*Paper_Space
340
1E
  0
BLOCK_RECORD
  5
23
100
AcDbSymbolTableRecord
100
AcDbBlockTableRecord
  2
*Paper_Space0
340
26
  0
BLOCK_RECORD
  5
4E
100
AcDbSymbolTableRecord
100
AcDbBlockTableRecord
  2
HBP_MakerGear_Enhanced_Y_Holes_CL-0
340
0
  0
ENDTAB
  0
ENDSEC
  0
SECTION
  2
BLOCKS
  0
BLOCK
  5
20
100
AcDbEntity
  8
0
100
AcDbBlockBegin
  2
*Model_Space
 70
0
 10
0.0
 20
0.0
 30
0.0
  3
*Model_Space
  1

  0
ENDBLK
  5
21
100
AcDbEntity
  8
0
100
AcDbBlockEnd
  0
BLOCK
  5
1C
100
AcDbEntity
 67
1
  8
0
100
AcDbBlockBegin
  2
*Paper_Space
 70
0
 10
0.0
 20
0.0
 30
0.0
  3
*Paper_Space
  1

  0
ENDBLK
  5
1D
100
AcDbEntity
 67
1
  8
0
100
AcDbBlockEnd
  0
BLOCK
  5
24
100
AcDbEntity
  8
0
100
AcDbBlockBegin
  2
*Paper_Space0
 70
0
 10
0.0
 20
0.0
 30
0.0
  3
*Paper_Space0
  1

  0
ENDBLK
  5
25
100
AcDbEntity
  8
0
100
AcDbBlockEnd
  0
BLOCK
  5
4F
100
AcDbEntity
  8
0
100
AcDbBlockBegin
  2
HBP_MakerGear_Enhanced_Y_Holes_CL-0
 70
0
 10
0.0
 20
0.0
 30
0.0
  3
HBP_MakerGear_Enhanced_Y_Holes_CL-0
  1

  0
ELLIPSE
  5
50
100
AcDbEntity
100
AcDbEllipse
  8
CuttingLines_0p003mm
 62
256
370
-1
  6
ByLayer
 10
-21.5000000000000178
 20
-35.4999999999999787
 30
0.0
 11
-1.4999999999999993
 21
0.0000000000000002
 31
0.0
 40
1.0
 41
0.0
 42
6.2831853071795862
  0
ELLIPSE
  5
51
100
AcDbEntity
100
AcDbEllipse
  8
CuttingLines_0p003mm
 62
256
370
-1
  6
ByLayer
 10
21.4999999999999609
 20
-38.5000000000000284
 30
0.0
 11
-1.4999999999999993
 21
0.0000000000000002
 31
0.0
 40
1.0
 41
0.0
 42
6.2831853071795862
  0
ELLIPSE
  5
52
100
AcDbEntity
100
AcDbEllipse
  8
CuttingLines_0p003mm
 62
256
370
-1
  6
ByLayer
 10
-21.4999999999999929
 20
35.5
 30
0.0
 11
-1.4999999999999993
 21
0.0000000000000002
 31
0.0
 40
1.0
 41
0.0
 42
6.2831853071795862
  0
ELLIPSE
  5
53
100
AcDbEntity
100
AcDbEllipse
  8
CuttingLines_0p003mm
 62
256
370
-1
  6
ByLayer
 10
21.5000000000000071
 20
38.4999999999999787
 30
0.0
 11
-1.4999999999999993
 21
0.0000000000000002
 31
0.0
 40
1.0
 41
0.0
 42
6.2831853071795862
  0
SPLINE
  5
54
  8
CuttingLines_0p003mm
 62
256
370
-1
  6
ByLayer
100
AcDbEntity
100
AcDbSpline
 70
11
 71
3
 72
20
 73
16
 74
0
 40
0.0
 40
0.0
 40
0.0
 40
0.0
 40
0.0769230769230769
 40
0.1538461538461539
 40
0.2307692307692308
 40
0.3076923076923077
 40
0.3846153846153846
 40
0.4615384615384616
 40
0.5384615384615385
 40
0.6153846153846154
 40
0.6923076923076923
 40
0.7692307692307693
 40
0.8461538461538463
 40
0.9230769230769231
 40
1.0
 40
1.0
 40
1.0
 40
1.0
 10
-0.0003999999978387
 20
-2.5000000000000075
 30
0.0
 10
-0.8287999999999998
 20
-2.5000000000000075
 30
0.0
 10
-1.5003000000000017
 20
-3.1715000000000084
 30
0.0
 10
-1.5003000000000024
 20
-3.9999000000000069
 30
0.0
 10
-1.5003000000000024
 20
-3.9999000000000069
 30
0.0
 10
-1.5003999999999988
 20
-4.8284000000000082
 30
0.0
 10
-0.8287999999999974
 20
-5.4999000000000065
 30
0.0
 10
-0.0004000000052058
 20
-5.4999000000000065
 30
0.0
 10
-0.0004000000052058
 20
-5.4999000000000065
 30
0.0
 10
0.8279999999999994
 20
-5.5000000000000089
 30
0.0
 10
1.4995000000000007
 20
-4.8284000000000082
 30
0.0
 10
1.4994999999999967
 20
-4.000000000000008
 30
0.0
 10
1.4994999999999967
 20
-4.000000000000008
 30
0.0
 10
1.4995999999999994
 20
-3.1715000000000098
 30
0.0
 10
0.8279999999999998
 20
-2.5000000000000075
 30
0.0
 10
-0.0003999999978387
 20
-2.5000000000000075
 30
0.0
  0
SPLINE
  5
55
  8
CuttingLines_0p003mm
 62
256
370
-1
  6
ByLayer
100
AcDbEntity
100
AcDbSpline
 70
8
 71
3
 72
8
 73
4
 74
0
 40
0.0
 40
0.0
 40
0.0
 40
0.0
 40
1.0
 40
1.0
 40
1.0
 40
1.0
 10
-13.4002999999999997
 20
-1.4999000000000016
 30
0.0
 10
-13.4002999999999997
 20
-1.4999000000000016
 30
0.0
 10
-5.4003000000000014
 20
-1.4999000000000069
 30
0.0
 10
-5.4003000000000014
 20
-1.4999000000000069
 30
0.0
  0
SPLINE
  5
56
  8
CuttingLines_0p003mm
 62
256
370
-1
  6
ByLayer
100
AcDbEntity
100
AcDbSpline
 70
8
 71
3
 72
8
 73
4
 74
0
 40
0.0
 40
0.0
 40
0.0
 40
0.0
 40
1.0
 40
1.0
 40
1.0
 40
1.0
 10
-13.4002999999999997
 20
-6.4999000000000056
 30
0.0
 10
-13.4002999999999997
 20
-6.4999000000000056
 30
0.0
 10
-13.4002999999999997
 20
-1.4999000000000016
 30
0.0
 10
-13.4002999999999997
 20
-1.4999000000000016
 30
0.0
  0
SPLINE
  5
57
  8
CuttingLines_0p003mm
 62
256
370
-1
  6
ByLayer
100
AcDbEntity
100
AcDbSpline
 70
8
 71
3
 72
8
 73
4
 74
0
 40
0.0
 40
0.0
 40
0.0
 40
0.0
 40
1.0
 40
1.0
 40
1.0
 40
1.0
 10
-5.4003000000000032
 20
-6.4999000000000073
 30
0.0
 10
-5.4003000000000032
 20
-6.4999000000000073
 30
0.0
 10
-13.4002999999999997
 20
-6.4999000000000056
 30
0.0
 10
-13.4002999999999997
 20
-6.4999000000000056
 30
0.0
  0
SPLINE
  5
58
  8
CuttingLines_0p003mm
 62
256
370
-1
  6
ByLayer
100
AcDbEntity
100
AcDbSpline
 70
8
 71
3
 72
8
 73
4
 74
0
 40
0.0
 40
0.0
 40
0.0
 40
0.0
 40
1.0
 40
1.0
 40
1.0
 40
1.0
 10
-5.4003000000000014
 20
-1.4999000000000069
 30
0.0
 10
-5.4003000000000014
 20
-1.4999000000000069
 30
0.0
 10
-5.4003000000000032
 20
-6.4999000000000073
 30
0.0
 10
-5.4003000000000032
 20
-6.4999000000000073
 30
0.0
  0
SPLINE
  5
59
  8
CuttingLines_0p003mm
 62
256
370
-1
  6
ByLayer
100
AcDbEntity
100
AcDbSpline
 70
11
 71
3
 72
8
 73
4
 74
0
 40
0.0
 40
0.0
 40
0.0
 40
0.0
 40
1.0
 40
1.0
 40
1.0
 40
1.0
 10
5.3995999999999986
 20
-1.5000000000000113
 30
0.0
 10
5.3995999999999986
 20
-1.5000000000000113
 30
0.0
 10
5.3995999999999986
 20
-1.5000000000000113
 30
0.0
 10
5.3995999999999986
 20
-1.5000000000000113
 30
0.0
  0
SPLINE
  5
5A
  8
CuttingLines_0p003mm
 62
256
370
-1
  6
ByLayer
100
AcDbEntity
100
AcDbSpline
 70
8
 71
3
 72
8
 73
4
 74
0
 40
0.0
 40
0.0
 40
0.0
 40
0.0
 40
1.0
 40
1.0
 40
1.0
 40
1.0
 10
5.3995999999999986
 20
-6.500000000000008
 30
0.0
 10
5.3995999999999986
 20
-6.500000000000008
 30
0.0
 10
5.3995999999999986
 20
-1.5000000000000113
 30
0.0
 10
5.3995999999999986
 20
-1.5000000000000113
 30
0.0
  0
SPLINE
  5
5B
  8
CuttingLines_0p003mm
 62
256
370
-1
  6
ByLayer
100
AcDbEntity
100
AcDbSpline
 70
11
 71
3
 72
8
 73
4
 74
0
 40
0.0
 40
0.0
 40
0.0
 40
0.0
 40
1.0
 40
1.0
 40
1.0
 40
1.0
 10
5.3995999999999986
 20
-1.5000000000000113
 30
0.0
 10
5.3995999999999986
 20
-1.5000000000000113
 30
0.0
 10
5.3995999999999986
 20
-1.5000000000000113
 30
0.0
 10
5.3995999999999986
 20
-1.5000000000000113
 30
0.0
  0
SPLINE
  5
5C
  8
CuttingLines_0p003mm
 62
256
370
-1
  6
ByLayer
100
AcDbEntity
100
AcDbSpline
 70
8
 71
3
 72
8
 73
4
 74
0
 40
0.0
 40
0.0
 40
0.0
 40
0.0
 40
1.0
 40
1.0
 40
1.0
 40
1.0
 10
5.3995999999999986
 20
-1.5000000000000113
 30
0.0
 10
5.3995999999999986
 20
-1.5000000000000113
 30
0.0
 10
13.3996000000000013
 20
-1.5000000000000111
 30
0.0
 10
13.3996000000000013
 20
-1.5000000000000111
 30
0.0
  0
SPLINE
  5
5D
  8
CuttingLines_0p003mm
 62
256
370
-1
  6
ByLayer
100
AcDbEntity
100
AcDbSpline
 70
11
 71
3
 72
8
 73
4
 74
0
 40
0.0
 40
0.0
 40
0.0
 40
0.0
 40
1.0
 40
1.0
 40
1.0
 40
1.0
 10
13.3996000000000013
 20
-1.5000000000000111
 30
0.0
 10
13.3996000000000013
 20
-1.5000000000000111
 30
0.0
 10
13.3996000000000013
 20
-1.5000000000000111
 30
0.0
 10
13.3996000000000013
 20
-1.5000000000000111
 30
0.0
  0
SPLINE
  5
5E
  8
CuttingLines_0p003mm
 62
256
370
-1
  6
ByLayer
100
AcDbEntity
100
AcDbSpline
 70
8
 71
3
 72
8
 73
4
 74
0
 40
0.0
 40
0.0
 40
0.0
 40
0.0
 40
1.0
 40
1.0
 40
1.0
 40
1.0
 10
13.3996000000000013
 20
-1.5000000000000111
 30
0.0
 10
13.3996000000000013
 20
-1.5000000000000111
 30
0.0
 10
13.3996000000000031
 20
-6.5000000000000018
 30
0.0
 10
13.3996000000000031
 20
-6.5000000000000018
 30
0.0
  0
SPLINE
  5
5F
  8
CuttingLines_0p003mm
 62
256
370
-1
  6
ByLayer
100
AcDbEntity
100
AcDbSpline
 70
11
 71
3
 72
8
 73
4
 74
0
 40
0.0
 40
0.0
 40
0.0
 40
0.0
 40
1.0
 40
1.0
 40
1.0
 40
1.0
 10
5.3995999999999986
 20
-6.500000000000008
 30
0.0
 10
5.3995999999999986
 20
-6.500000000000008
 30
0.0
 10
5.3995999999999986
 20
-6.500000000000008
 30
0.0
 10
5.3995999999999986
 20
-6.500000000000008
 30
0.0
  0
SPLINE
  5
60
  8
CuttingLines_0p003mm
 62
256
370
-1
  6
ByLayer
100
AcDbEntity
100
AcDbSpline
 70
8
 71
3
 72
8
 73
4
 74
0
 40
0.0
 40
0.0
 40
0.0
 40
0.0
 40
1.0
 40
1.0
 40
1.0
 40
1.0
 10
13.3996000000000031
 20
-6.5000000000000018
 30
0.0
 10
13.3996000000000031
 20
-6.5000000000000018
 30
0.0
 10
5.3995999999999986
 20
-6.500000000000008
 30
0.0
 10
5.3995999999999986
 20
-6.500000000000008
 30
0.0
  0
SPLINE
  5
61
  8
CuttingLines_0p003mm
 62
256
370
-1
  6
ByLayer
100
AcDbEntity
100
AcDbSpline
 70
8
 71
3
 72
20
 73
16
 74
0
 40
0.0
 40
0.0
 40
0.0
 40
0.0
 40
0.0769230769230769
 40
0.1538461538461539
 40
0.2307692307692308
 40
0.3076923076923077
 40
0.3846153846153846
 40
0.4615384615384616
 40
0.5384615384615385
 40
0.6153846153846154
 40
0.6923076923076923
 40
0.7692307692307693
 40
0.8461538461538463
 40
0.9230769230769231
 40
1.0
 40
1.0
 40
1.0
 40
1.0
 10
20.0996000000000024
 20
10.4999999999999893
 30
0.0
 10
19.2711000000000006
 20
10.4999999999999787
 30
0.0
 10
18.5996000000000095
 20
9.8283999999999807
 30
0.0
 10
18.5995999999999988
 20
8.9999999999999893
 30
0.0
 10
18.5995999999999988
 20
8.9999999999999893
 30
0.0
 10
18.599499999999999
 20
8.171499999999984
 30
0.0
 10
19.2711000000000006
 20
7.4999999999999787
 30
0.0
 10
20.0995000000000061
 20
7.4999999999999805
 30
0.0
 10
20.0995000000000061
 20
7.4999999999999805
 30
0.0
 10
20.9280000000000008
 20
7.4998999999999976
 30
0.0
 10
21.5995000000000026
 20
8.1714999999999858
 30
0.0
 10
21.5995000000000026
 20
8.9998999999999754
 30
0.0
 10
21.5995000000000026
 20
8.9998999999999754
 30
0.0
 10
21.5995999999999988
 20
9.8283999999999825
 30
0.0
 10
20.9280000000000008
 20
10.4998999999999914
 30
0.0
 10
20.0995999999999988
 20
10.4998999999999896
 30
0.0
  0
SPLINE
  5
62
  8
CuttingLines_0p003mm
 62
256
370
-1
  6
ByLayer
100
AcDbEntity
100
AcDbSpline
 70
8
 71
3
 72
8
 73
4
 74
0
 40
0.0
 40
0.0
 40
0.0
 40
0.0
 40
1.0
 40
1.0
 40
1.0
 40
1.0
 10
17.5995999999999952
 20
22.9998999999999931
 30
0.0
 10
17.5995999999999952
 20
22.9998999999999931
 30
0.0
 10
22.599600000000013
 20
22.9999999999999787
 30
0.0
 10
22.599600000000013
 20
22.9999999999999787
 30
0.0
  0
SPLINE
  5
63
  8
CuttingLines_0p003mm
 62
256
370
-1
  6
ByLayer
100
AcDbEntity
100
AcDbSpline
 70
8
 71
3
 72
8
 73
4
 74
0
 40
0.0
 40
0.0
 40
0.0
 40
0.0
 40
1.0
 40
1.0
 40
1.0
 40
1.0
 10
17.5995999999999988
 20
14.9998999999999931
 30
0.0
 10
17.5995999999999988
 20
14.9998999999999931
 30
0.0
 10
17.5995999999999952
 20
22.9998999999999931
 30
0.0
 10
17.5995999999999952
 20
22.9998999999999931
 30
0.0
  0
SPLINE
  5
64
  8
CuttingLines_0p003mm
 62
256
370
-1
  6
ByLayer
100
AcDbEntity
100
AcDbSpline
 70
8
 71
3
 72
8
 73
4
 74
0
 40
0.0
 40
0.0
 40
0.0
 40
0.0
 40
1.0
 40
1.0
 40
1.0
 40
1.0
 10
22.5996000000000024
 20
14.9999999999999858
 30
0.0
 10
22.5996000000000024
 20
14.9999999999999858
 30
0.0
 10
17.5995999999999988
 20
14.9998999999999931
 30
0.0
 10
17.5995999999999988
 20
14.9998999999999931
 30
0.0
  0
SPLINE
  5
65
  8
CuttingLines_0p003mm
 62
256
370
-1
  6
ByLayer
100
AcDbEntity
100
AcDbSpline
 70
8
 71
3
 72
8
 73
4
 74
0
 40
0.0
 40
0.0
 40
0.0
 40
0.0
 40
1.0
 40
1.0
 40
1.0
 40
1.0
 10
22.599600000000013
 20
22.9999999999999787
 30
0.0
 10
22.599600000000013
 20
22.9999999999999787
 30
0.0
 10
22.5996000000000024
 20
14.9999999999999858
 30
0.0
 10
22.5996000000000024
 20
14.9999999999999858
 30
0.0
  0
SPLINE
  5
66
  8
CuttingLines_0p003mm
 62
256
370
-1
  6
ByLayer
100
AcDbEntity
100
AcDbSpline
 70
11
 71
3
 72
8
 73
4
 74
0
 40
0.0
 40
0.0
 40
0.0
 40
0.0
 40
1.0
 40
1.0
 40
1.0
 40
1.0
 10
17.5995000000000026
 20
-14.999900000000002
 30
0.0
 10
17.5995000000000026
 20
-14.999900000000002
 30
0.0
 10
17.5995000000000026
 20
-14.999900000000002
 30
0.0
 10
17.5995000000000026
 20
-14.999900000000002
 30
0.0
  0
SPLINE
  5
67
  8
CuttingLines_0p003mm
 62
256
370
-1
  6
ByLayer
100
AcDbEntity
100
AcDbSpline
 70
8
 71
3
 72
8
 73
4
 74
0
 40
0.0
 40
0.0
 40
0.0
 40
0.0
 40
1.0
 40
1.0
 40
1.0
 40
1.0
 10
17.5995000000000026
 20
-14.999900000000002
 30
0.0
 10
17.5995000000000026
 20
-14.999900000000002
 30
0.0
 10
22.5996000000000024
 20
-15.0000000000000018
 30
0.0
 10
22.5996000000000024
 20
-15.0000000000000018
 30
0.0
  0
SPLINE
  5
68
  8
CuttingLines_0p003mm
 62
256
370
-1
  6
ByLayer
100
AcDbEntity
100
AcDbSpline
 70
11
 71
3
 72
8
 73
4
 74
0
 40
0.0
 40
0.0
 40
0.0
 40
0.0
 40
1.0
 40
1.0
 40
1.0
 40
1.0
 10
17.5995000000000026
 20
-14.999900000000002
 30
0.0
 10
17.5995000000000026
 20
-14.999900000000002
 30
0.0
 10
17.5995000000000026
 20
-14.999900000000002
 30
0.0
 10
17.5995000000000026
 20
-14.999900000000002
 30
0.0
  0
SPLINE
  5
69
  8
CuttingLines_0p003mm
 62
256
370
-1
  6
ByLayer
100
AcDbEntity
100
AcDbSpline
 70
8
 71
3
 72
8
 73
4
 74
0
 40
0.0
 40
0.0
 40
0.0
 40
0.0
 40
1.0
 40
1.0
 40
1.0
 40
1.0
 10
17.5995000000000097
 20
-23.0
 30
0.0
 10
17.5995000000000097
 20
-23.0
 30
0.0
 10
17.5995000000000026
 20
-14.999900000000002
 30
0.0
 10
17.5995000000000026
 20
-14.999900000000002
 30
0.0
  0
SPLINE
  5
6A
  8
CuttingLines_0p003mm
 62
256
370
-1
  6
ByLayer
100
AcDbEntity
100
AcDbSpline
 70
11
 71
3
 72
8
 73
4
 74
0
 40
0.0
 40
0.0
 40
0.0
 40
0.0
 40
1.0
 40
1.0
 40
1.0
 40
1.0
 10
17.5995000000000097
 20
-23.0
 30
0.0
 10
17.5995000000000097
 20
-23.0
 30
0.0
 10
17.5995000000000097
 20
-23.0
 30
0.0
 10
17.5995000000000097
 20
-23.0
 30
0.0
  0
SPLINE
  5
6B
  8
CuttingLines_0p003mm
 62
256
370
-1
  6
ByLayer
100
AcDbEntity
100
AcDbSpline
 70
8
 71
3
 72
8
 73
4
 74
0
 40
0.0
 40
0.0
 40
0.0
 40
0.0
 40
1.0
 40
1.0
 40
1.0
 40
1.0
 10
22.5995999999999917
 20
-23.0000000000000249
 30
0.0
 10
22.5995999999999917
 20
-23.0000000000000249
 30
0.0
 10
17.5995000000000097
 20
-23.0
 30
0.0
 10
17.5995000000000097
 20
-23.0
 30
0.0
  0
SPLINE
  5
6C
  8
CuttingLines_0p003mm
 62
256
370
-1
  6
ByLayer
100
AcDbEntity
100
AcDbSpline
 70
11
 71
3
 72
8
 73
4
 74
0
 40
0.0
 40
0.0
 40
0.0
 40
0.0
 40
1.0
 40
1.0
 40
1.0
 40
1.0
 10
22.5996000000000024
 20
-15.0000000000000018
 30
0.0
 10
22.5996000000000024
 20
-15.0000000000000018
 30
0.0
 10
22.5996000000000024
 20
-15.0000000000000018
 30
0.0
 10
22.5996000000000024
 20
-15.0000000000000018
 30
0.0
  0
SPLINE
  5
6D
  8
CuttingLines_0p003mm
 62
256
370
-1
  6
ByLayer
100
AcDbEntity
100
AcDbSpline
 70
8
 71
3
 72
8
 73
4
 74
0
 40
0.0
 40
0.0
 40
0.0
 40
0.0
 40
1.0
 40
1.0
 40
1.0
 40
1.0
 10
22.5996000000000024
 20
-15.0000000000000018
 30
0.0
 10
22.5996000000000024
 20
-15.0000000000000018
 30
0.0
 10
22.5995999999999917
 20
-23.0000000000000249
 30
0.0
 10
22.5995999999999917
 20
-23.0000000000000249
 30
0.0
  0
SPLINE
  5
6E
  8
CuttingLines_0p003mm
 62
256
370
-1
  6
ByLayer
100
AcDbEntity
100
AcDbSpline
 70
8
 71
3
 72
20
 73
16
 74
0
 40
0.0
 40
0.0
 40
0.0
 40
0.0
 40
0.0769230769230769
 40
0.1538461538461539
 40
0.2307692307692308
 40
0.3076923076923077
 40
0.3846153846153846
 40
0.4615384615384616
 40
0.5384615384615385
 40
0.6153846153846154
 40
0.6923076923076923
 40
0.7692307692307693
 40
0.8461538461538463
 40
0.9230769230769231
 40
1.0
 40
1.0
 40
1.0
 40
1.0
 10
-20.1003000000000007
 20
10.4999999999999929
 30
0.0
 10
-20.9287999999999883
 20
10.4999999999999929
 30
0.0
 10
-21.6002999999999901
 20
9.8283999999999985
 30
0.0
 10
-21.6002999999999936
 20
8.9999999999999911
 30
0.0
 10
-21.6002999999999936
 20
8.9999999999999911
 30
0.0
 10
-21.6003999999999969
 20
8.1714999999999876
 30
0.0
 10
-20.9287999999999919
 20
7.4999999999999938
 30
0.0
 10
-20.1004000000000005
 20
7.4999999999999893
 30
0.0
 10
-20.1004000000000005
 20
7.4999999999999893
 30
0.0
 10
-19.2719000000000165
 20
7.4998999999999887
 30
0.0
 10
-18.6004000000000076
 20
8.1714999999999893
 30
0.0
 10
-18.6004000000000111
 20
8.9998999999999878
 30
0.0
 10
-18.6004000000000111
 20
8.9998999999999878
 30
0.0
 10
-18.6003000000000114
 20
9.8283999999999931
 30
0.0
 10
-19.2719000000000094
 20
10.4998999999999949
 30
0.0
 10
-20.1002999999999972
 20
10.4998999999999931
 30
0.0
  0
SPLINE
  5
6F
  8
CuttingLines_0p003mm
 62
256
370
-1
  6
ByLayer
100
AcDbEntity
100
AcDbSpline
 70
11
 71
3
 72
8
 73
4
 74
0
 40
0.0
 40
0.0
 40
0.0
 40
0.0
 40
1.0
 40
1.0
 40
1.0
 40
1.0
 10
-22.6003000000000078
 20
22.9999999999999929
 30
0.0
 10
-22.6003000000000078
 20
22.9999999999999929
 30
0.0
 10
-22.6003000000000078
 20
22.9999999999999929
 30
0.0
 10
-22.6003000000000078
 20
22.9999999999999929
 30
0.0
  0
SPLINE
  5
70
  8
CuttingLines_0p003mm
 62
256
370
-1
  6
ByLayer
100
AcDbEntity
100
AcDbSpline
 70
8
 71
3
 72
8
 73
4
 74
0
 40
0.0
 40
0.0
 40
0.0
 40
0.0
 40
1.0
 40
1.0
 40
1.0
 40
1.0
 10
-22.6003000000000078
 20
22.9999999999999929
 30
0.0
 10
-22.6003000000000078
 20
22.9999999999999929
 30
0.0
 10
-17.6002999999999865
 20
22.9999999999999964
 30
0.0
 10
-17.6002999999999865
 20
22.9999999999999964
 30
0.0
  0
SPLINE
  5
71
  8
CuttingLines_0p003mm
 62
256
370
-1
  6
ByLayer
100
AcDbEntity
100
AcDbSpline
 70
11
 71
3
 72
8
 73
4
 74
0
 40
0.0
 40
0.0
 40
0.0
 40
0.0
 40
1.0
 40
1.0
 40
1.0
 40
1.0
 10
-22.6003000000000078
 20
22.9999999999999929
 30
0.0
 10
-22.6003000000000078
 20
22.9999999999999929
 30
0.0
 10
-22.6003000000000078
 20
22.9999999999999929
 30
0.0
 10
-22.6003000000000078
 20
22.9999999999999929
 30
0.0
  0
SPLINE
  5
72
  8
CuttingLines_0p003mm
 62
256
370
-1
  6
ByLayer
100
AcDbEntity
100
AcDbSpline
 70
8
 71
3
 72
8
 73
4
 74
0
 40
0.0
 40
0.0
 40
0.0
 40
0.0
 40
1.0
 40
1.0
 40
1.0
 40
1.0
 10
-22.6003000000000043
 20
14.9999999999999964
 30
0.0
 10
-22.6003000000000043
 20
14.9999999999999964
 30
0.0
 10
-22.6003000000000078
 20
22.9999999999999929
 30
0.0
 10
-22.6003000000000078
 20
22.9999999999999929
 30
0.0
  0
SPLINE
  5
73
  8
CuttingLines_0p003mm
 62
256
370
-1
  6
ByLayer
100
AcDbEntity
100
AcDbSpline
 70
11
 71
3
 72
8
 73
4
 74
0
 40
0.0
 40
0.0
 40
0.0
 40
0.0
 40
1.0
 40
1.0
 40
1.0
 40
1.0
 10
-17.6002999999999865
 20
22.9999999999999964
 30
0.0
 10
-17.6002999999999865
 20
22.9999999999999964
 30
0.0
 10
-17.6002999999999865
 20
22.9999999999999964
 30
0.0
 10
-17.6002999999999865
 20
22.9999999999999964
 30
0.0
  0
SPLINE
  5
74
  8
CuttingLines_0p003mm
 62
256
370
-1
  6
ByLayer
100
AcDbEntity
100
AcDbSpline
 70
8
 71
3
 72
8
 73
4
 74
0
 40
0.0
 40
0.0
 40
0.0
 40
0.0
 40
1.0
 40
1.0
 40
1.0
 40
1.0
 10
-17.6002999999999865
 20
22.9999999999999964
 30
0.0
 10
-17.6002999999999865
 20
22.9999999999999964
 30
0.0
 10
-17.6002999999999936
 20
14.9999999999999964
 30
0.0
 10
-17.6002999999999936
 20
14.9999999999999964
 30
0.0
  0
SPLINE
  5
75
  8
CuttingLines_0p003mm
 62
256
370
-1
  6
ByLayer
100
AcDbEntity
100
AcDbSpline
 70
11
 71
3
 72
8
 73
4
 74
0
 40
0.0
 40
0.0
 40
0.0
 40
0.0
 40
1.0
 40
1.0
 40
1.0
 40
1.0
 10
-22.6003000000000043
 20
14.9999999999999964
 30
0.0
 10
-22.6003000000000043
 20
14.9999999999999964
 30
0.0
 10
-22.6003000000000043
 20
14.9999999999999964
 30
0.0
 10
-22.6003000000000043
 20
14.9999999999999964
 30
0.0
  0
SPLINE
  5
76
  8
CuttingLines_0p003mm
 62
256
370
-1
  6
ByLayer
100
AcDbEntity
100
AcDbSpline
 70
8
 71
3
 72
8
 73
4
 74
0
 40
0.0
 40
0.0
 40
0.0
 40
0.0
 40
1.0
 40
1.0
 40
1.0
 40
1.0
 10
-17.6002999999999936
 20
14.9999999999999964
 30
0.0
 10
-17.6002999999999936
 20
14.9999999999999964
 30
0.0
 10
-22.6003000000000043
 20
14.9999999999999964
 30
0.0
 10
-22.6003000000000043
 20
14.9999999999999964
 30
0.0
  0
SPLINE
  5
77
  8
CuttingLines_0p003mm
 62
256
370
-1
  6
ByLayer
100
AcDbEntity
100
AcDbSpline
 70
8
 71
3
 72
8
 73
4
 74
0
 40
0.0
 40
0.0
 40
0.0
 40
0.0
 40
1.0
 40
1.0
 40
1.0
 40
1.0
 10
-22.6004000000000076
 20
-14.9999000000000073
 30
0.0
 10
-22.6004000000000076
 20
-14.9999000000000073
 30
0.0
 10
-17.6004000000000005
 20
-14.9999000000000002
 30
0.0
 10
-17.6004000000000005
 20
-14.9999000000000002
 30
0.0
  0
SPLINE
  5
78
  8
CuttingLines_0p003mm
 62
256
370
-1
  6
ByLayer
100
AcDbEntity
100
AcDbSpline
 70
8
 71
3
 72
8
 73
4
 74
0
 40
0.0
 40
0.0
 40
0.0
 40
0.0
 40
1.0
 40
1.0
 40
1.0
 40
1.0
 10
-22.600400000000004
 20
-22.9999000000000073
 30
0.0
 10
-22.600400000000004
 20
-22.9999000000000073
 30
0.0
 10
-22.6004000000000076
 20
-14.9999000000000073
 30
0.0
 10
-22.6004000000000076
 20
-14.9999000000000073
 30
0.0
  0
SPLINE
  5
79
  8
CuttingLines_0p003mm
 62
256
370
-1
  6
ByLayer
100
AcDbEntity
100
AcDbSpline
 70
8
 71
3
 72
8
 73
4
 74
0
 40
0.0
 40
0.0
 40
0.0
 40
0.0
 40
1.0
 40
1.0
 40
1.0
 40
1.0
 10
-17.6004000000000005
 20
-14.9999000000000002
 30
0.0
 10
-17.6004000000000005
 20
-14.9999000000000002
 30
0.0
 10
-17.6003999999999827
 20
-22.9999000000000144
 30
0.0
 10
-17.6003999999999827
 20
-22.9999000000000144
 30
0.0
  0
SPLINE
  5
7A
  8
CuttingLines_0p003mm
 62
256
370
-1
  6
ByLayer
100
AcDbEntity
100
AcDbSpline
 70
8
 71
3
 72
8
 73
4
 74
0
 40
0.0
 40
0.0
 40
0.0
 40
0.0
 40
1.0
 40
1.0
 40
1.0
 40
1.0
 10
-17.6003999999999827
 20
-22.9999000000000144
 30
0.0
 10
-17.6003999999999827
 20
-22.9999000000000144
 30
0.0
 10
-22.600400000000004
 20
-22.9999000000000073
 30
0.0
 10
-22.600400000000004
 20
-22.9999000000000073
 30
0.0
  0
SPLINE
  5
7B
  8
CuttingLines_0p003mm
 62
256
370
-1
  6
ByLayer
100
AcDbEntity
100
AcDbSpline
 70
8
 71
3
 72
20
 73
16
 74
0
 40
0.0
 40
0.0
 40
0.0
 40
0.0
 40
0.0769230769230769
 40
0.1538461538461539
 40
0.2307692307692308
 40
0.3076923076923077
 40
0.3846153846153846
 40
0.4615384615384616
 40
0.5384615384615385
 40
0.6153846153846154
 40
0.6923076923076923
 40
0.7692307692307693
 40
0.8461538461538463
 40
0.9230769230769231
 40
1.0
 40
1.0
 40
1.0
 40
1.0
 10
-45.9619000000000071
 20
-44.4617000000000004
 30
0.0
 10
-46.790300000000002
 20
-44.4616999999999933
 30
0.0
 10
-47.4618000000000109
 20
-45.1332999999999984
 30
0.0
 10
-47.4618000000000038
 20
-45.9617000000000004
 30
0.0
 10
-47.4618000000000038
 20
-45.9617000000000004
 30
0.0
 10
-47.4619000000000071
 20
-46.7901999999999916
 30
0.0
 10
-46.7902999999999949
 20
-47.4616999999999933
 30
0.0
 10
-45.9619000000000142
 20
-47.4616999999999862
 30
0.0
 10
-45.9619000000000142
 20
-47.4616999999999862
 30
0.0
 10
-45.1333999999999946
 20
-47.4617999999999896
 30
0.0
 10
-44.4619000000000213
 20
-46.7902000000000129
 30
0.0
 10
-44.4619000000000213
 20
-45.9617999999999824
 30
0.0
 10
-44.4619000000000213
 20
-45.9617999999999824
 30
0.0
 10
-44.461800000000018
 20
-45.1333000000000055
 30
0.0
 10
-45.1333999999999875
 20
-44.4617999999999967
 30
0.0
 10
-45.9618000000000109
 20
-44.4618000000000038
 30
0.0
  0
SPLINE
  5
7C
  8
CuttingLines_0p003mm
 62
256
370
-1
  6
ByLayer
100
AcDbEntity
100
AcDbSpline
 70
8
 71
3
 72
20
 73
16
 74
0
 40
0.0
 40
0.0
 40
0.0
 40
0.0
 40
0.0769230769230769
 40
0.1538461538461539
 40
0.2307692307692308
 40
0.3076923076923077
 40
0.3846153846153846
 40
0.4615384615384616
 40
0.5384615384615385
 40
0.6153846153846154
 40
0.6923076923076923
 40
0.7692307692307693
 40
0.8461538461538463
 40
0.9230769230769231
 40
1.0
 40
1.0
 40
1.0
 40
1.0
 10
45.9617999999999896
 20
-44.4618000000000109
 30
0.0
 10
45.1334000000000017
 20
-44.4618000000000038
 30
0.0
 10
44.4618999999999787
 20
-45.1333000000000197
 30
0.0
 10
44.4618999999999858
 20
-45.9617000000000004
 30
0.0
 10
44.4618999999999858
 20
-45.9617000000000004
 30
0.0
 10
44.4617999999999896
 20
-46.7902000000000271
 30
0.0
 10
45.1333999999999804
 20
-47.4617000000000218
 30
0.0
 10
45.9617999999999896
 20
-47.4616999999999791
 30
0.0
 10
45.9617999999999896
 20
-47.4616999999999791
 30
0.0
 10
46.7902999999999736
 20
-47.4618000000000038
 30
0.0
 10
47.461800000000018
 20
-46.7902000000000129
 30
0.0
 10
47.4617999999999896
 20
-45.961800000000018
 30
0.0
 10
47.4617999999999896
 20
-45.961800000000018
 30
0.0
 10
47.4619000000000071
 20
-45.1333000000000055
 30
0.0
 10
46.7903000000000162
 20
-44.4617999999999896
 30
0.0
 10
45.9618999999999645
 20
-44.4618000000000251
 30
0.0
  0
SPLINE
  5
7D
  8
CuttingLines_0p003mm
 62
256
370
-1
  6
ByLayer
100
AcDbEntity
100
AcDbSpline
 70
8
 71
3
 72
20
 73
16
 74
0
 40
0.0
 40
0.0
 40
0.0
 40
0.0
 40
0.0769230769230769
 40
0.1538461538461539
 40
0.2307692307692308
 40
0.3076923076923077
 40
0.3846153846153846
 40
0.4615384615384616
 40
0.5384615384615385
 40
0.6153846153846154
 40
0.6923076923076923
 40
0.7692307692307693
 40
0.8461538461538463
 40
0.9230769230769231
 40
1.0
 40
1.0
 40
1.0
 40
1.0
 10
-45.9617999999999896
 20
47.4620000000000033
 30
0.0
 10
-46.7902999999999807
 20
47.4619999999999962
 30
0.0
 10
-47.4617999999999896
 20
46.7903999999999911
 30
0.0
 10
-47.4617999999999824
 20
45.9620000000000033
 30
0.0
 10
-47.4617999999999824
 20
45.9620000000000033
 30
0.0
 10
-47.4618999999999787
 20
45.1335000000000122
 30
0.0
 10
-46.7902999999999736
 20
44.4620000000000033
 30
0.0
 10
-45.9618999999999858
 20
44.4620000000000033
 30
0.0
 10
-45.9618999999999858
 20
44.4620000000000033
 30
0.0
 10
-45.1333999999999875
 20
44.4618999999999929
 30
0.0
 10
-44.4619
 20
45.1335000000000122
 30
0.0
 10
-44.4619000000000071
 20
45.9618999999999858
 30
0.0
 10
-44.4619000000000071
 20
45.9618999999999858
 30
0.0
 10
-44.4617999999999967
 20
46.7903999999999911
 30
0.0
 10
-45.1333999999999733
 20
47.4619
 30
0.0
 10
-45.9618000000000038
 20
47.4618999999999858
 30
0.0
  0
SPLINE
  5
7E
  8
CuttingLines_0p003mm
 62
256
370
-1
  6
ByLayer
100
AcDbEntity
100
AcDbSpline
 70
11
 71
3
 72
20
 73
16
 74
0
 40
0.0
 40
0.0
 40
0.0
 40
0.0
 40
0.0769230769230769
 40
0.1538461538461539
 40
0.2307692307692308
 40
0.3076923076923077
 40
0.3846153846153846
 40
0.4615384615384616
 40
0.5384615384615385
 40
0.6153846153846154
 40
0.6923076923076923
 40
0.7692307692307693
 40
0.8461538461538463
 40
0.9230769230769231
 40
1.0
 40
1.0
 40
1.0
 40
1.0
 10
45.9619
 20
47.4618999999999858
 30
0.0
 10
45.1334000000000088
 20
47.4618999999999716
 30
0.0
 10
44.4619
 20
46.7903999999999769
 30
0.0
 10
44.4619
 20
45.9619999999999891
 30
0.0
 10
44.4619
 20
45.9619999999999891
 30
0.0
 10
44.4617999999999896
 20
45.133499999999998
 30
0.0
 10
45.1334000000000088
 20
44.4619999999999891
 30
0.0
 10
45.9617999999999896
 20
44.4619999999999962
 30
0.0
 10
45.9617999999999896
 20
44.4619999999999962
 30
0.0
 10
46.790300000000002
 20
44.4618999999999929
 30
0.0
 10
47.4618000000000109
 20
45.1335000000000122
 30
0.0
 10
47.4618000000000109
 20
45.9618999999999858
 30
0.0
 10
47.4618000000000109
 20
45.9618999999999858
 30
0.0
 10
47.4619000000000071
 20
46.7903999999999769
 30
0.0
 10
46.7903000000000091
 20
47.4618999999999787
 30
0.0
 10
45.9619
 20
47.4618999999999858
 30
0.0
  0
SPLINE
  5
7F
  8
CuttingLines_0p003mm
 62
256
370
-1
  6
ByLayer
100
AcDbEntity
100
AcDbSpline
 70
8
 71
3
 72
20
 73
16
 74
0
 40
0.0
 40
0.0
 40
0.0
 40
0.0
 40
0.0769230769230769
 40
0.1538461538461539
 40
0.2307692307692308
 40
0.3076923076923077
 40
0.3846153846153846
 40
0.4615384615384616
 40
0.5384615384615385
 40
0.6153846153846154
 40
0.6923076923076923
 40
0.7692307692307693
 40
0.8461538461538463
 40
0.9230769230769231
 40
1.0
 40
1.0
 40
1.0
 40
1.0
 10
-0.0000000000000082
 20
-44.4617000000000075
 30
0.0
 10
-0.8284000000000195
 20
-44.4617000000000075
 30
0.0
 10
-1.4999000000000156
 20
-45.1333000000000055
 30
0.0
 10
-1.4999000000000073
 20
-45.9617000000000004
 30
0.0
 10
-1.4999000000000073
 20
-45.9617000000000004
 30
0.0
 10
-1.4999999999999982
 20
-46.7902000000000129
 30
0.0
 10
-0.8283999999999838
 20
-47.4616999999999933
 30
0.0
 10
-0.0000000000000087
 20
-47.4616999999999933
 30
0.0
 10
-0.0000000000000087
 20
-47.4616999999999933
 30
0.0
 10
0.8284000000000061
 20
-47.4617999999999896
 30
0.0
 10
1.499899999999978
 20
-46.79020000000002
 30
0.0
 10
1.4998999999999707
 20
-45.9618000000000038
 30
0.0
 10
1.4998999999999707
 20
-45.9618000000000038
 30
0.0
 10
1.4999999999999918
 20
-45.1333000000000055
 30
0.0
 10
0.8283999999999907
 20
-44.4618000000000038
 30
0.0
 10
-0.0000000000000082
 20
-44.4618000000000038
 30
0.0
  0
SPLINE
  5
80
  8
CuttingLines_0p003mm
 62
256
370
-1
  6
ByLayer
100
AcDbEntity
100
AcDbSpline
 70
8
 71
3
 72
20
 73
16
 74
0
 40
0.0
 40
0.0
 40
0.0
 40
0.0
 40
0.0769230769230769
 40
0.1538461538461539
 40
0.2307692307692308
 40
0.3076923076923077
 40
0.3846153846153846
 40
0.4615384615384616
 40
0.5384615384615385
 40
0.6153846153846154
 40
0.6923076923076923
 40
0.7692307692307693
 40
0.8461538461538463
 40
0.9230769230769231
 40
1.0
 40
1.0
 40
1.0
 40
1.0
 10
0.0000000000000029
 20
47.4619999999999891
 30
0.0
 10
-0.8284000000000026
 20
47.4619999999999891
 30
0.0
 10
-1.4998999999999856
 20
46.7903999999999769
 30
0.0
 10
-1.4998999999999927
 20
45.9619999999999891
 30
0.0
 10
-1.4998999999999927
 20
45.9619999999999891
 30
0.0
 10
-1.4999999999999964
 20
45.1335000000000051
 30
0.0
 10
-0.8283999999999911
 20
44.4620000000000033
 30
0.0
 10
0.0000000000000027
 20
44.4619999999999962
 30
0.0
 10
0.0000000000000027
 20
44.4619999999999962
 30
0.0
 10
0.8283999999999957
 20
44.4618999999999929
 30
0.0
 10
1.499899999999998
 20
45.1335000000000051
 30
0.0
 10
1.4998999999999978
 20
45.9618999999999929
 30
0.0
 10
1.4998999999999978
 20
45.9618999999999929
 30
0.0
 10
1.500000000000002
 20
46.7903999999999769
 30
0.0
 10
0.8283999999999999
 20
47.4618999999999929
 30
0.0
 10
0.0000000000000029
 20
47.4618999999999858
 30
0.0
  0
SPLINE
  5
81
  8
CuttingLines_0p003mm
 62
256
370
-1
  6
ByLayer
100
AcDbEntity
100
AcDbSpline
 70
11
 71
3
 72
20
 73
16
 74
0
 40
0.0
 40
0.0
 40
0.0
 40
0.0
 40
0.0769230769230769
 40
0.1538461538461539
 40
0.2307692307692308
 40
0.3076923076923077
 40
0.3846153846153846
 40
0.4615384615384616
 40
0.5384615384615385
 40
0.6153846153846154
 40
0.6923076923076923
 40
0.7692307692307693
 40
0.8461538461538463
 40
0.9230769230769231
 40
1.0
 40
1.0
 40
1.0
 40
1.0
 10
-24.6245999999999832
 20
-35.5003000000000171
 30
0.0
 10
-24.624600000000008
 20
-33.7747000000000028
 30
0.0
 10
-23.2252000000000152
 20
-32.3753000000000029
 30
0.0
 10
-21.4996000000000045
 20
-32.3753000000000029
 30
0.0
 10
-21.4996000000000045
 20
-32.3753000000000029
 30
0.0
 10
-19.7740000000000045
 20
-32.3753000000000029
 30
0.0
 10
-18.3745999999999832
 20
-33.774700000000017
 30
0.0
 10
-18.3746000000000222
 20
-35.5002999999999957
 30
0.0
 10
-18.3746000000000222
 20
-35.5002999999999957
 30
0.0
 10
-18.3745999999999938
 20
-37.2258999999999887
 30
0.0
 10
-19.7739999999999831
 20
-38.6253000000000171
 30
0.0
 10
-21.4996000000000116
 20
-38.6252999999999957
 30
0.0
 10
-21.4996000000000116
 20
-38.6252999999999957
 30
0.0
 10
-23.2251999999999938
 20
-38.6253000000000029
 30
0.0
 10
-24.6246000000000116
 20
-37.2258999999999816
 30
0.0
 10
-24.6245999999999832
 20
-35.5003000000000171
 30
0.0
  0
SPLINE
  5
82
  8
CuttingLines_0p003mm
 62
256
370
-1
  6
ByLayer
100
AcDbEntity
100
AcDbSpline
 70
11
 71
3
 72
20
 73
16
 74
0
 40
0.0
 40
0.0
 40
0.0
 40
0.0
 40
0.0769230769230769
 40
0.1538461538461539
 40
0.2307692307692308
 40
0.3076923076923077
 40
0.3846153846153846
 40
0.4615384615384616
 40
0.5384615384615385
 40
0.6153846153846154
 40
0.6923076923076923
 40
0.7692307692307693
 40
0.8461538461538463
 40
0.9230769230769231
 40
1.0
 40
1.0
 40
1.0
 40
1.0
 10
18.3753999999999955
 20
-38.5002999999999957
 30
0.0
 10
18.375399999999992
 20
-36.7746999999999886
 30
0.0
 10
19.7747999999999919
 20
-35.3753000000000029
 30
0.0
 10
21.5003999999999955
 20
-35.3753000000000029
 30
0.0
 10
21.5003999999999955
 20
-35.3753000000000029
 30
0.0
 10
23.2260000000000026
 20
-35.3753000000000029
 30
0.0
 10
24.6253999999999778
 20
-36.7747000000000028
 30
0.0
 10
24.6253999999999706
 20
-38.50030000000001
 30
0.0
 10
24.6253999999999706
 20
-38.50030000000001
 30
0.0
 10
24.6253999999999778
 20
-40.22590000000001
 30
0.0
 10
23.2259999999999813
 20
-41.6253000000000029
 30
0.0
 10
21.5003999999999706
 20
-41.62530000000001
 30
0.0
 10
21.5003999999999706
 20
-41.62530000000001
 30
0.0
 10
19.7748000000000062
 20
-41.6252999999999886
 30
0.0
 10
18.3754000000000062
 20
-40.2258999999999958
 30
0.0
 10
18.3753999999999955
 20
-38.5002999999999957
 30
0.0
  0
SPLINE
  5
83
  8
CuttingLines_0p003mm
 62
256
370
-1
  6
ByLayer
100
AcDbEntity
100
AcDbSpline
 70
11
 71
3
 72
20
 73
16
 74
0
 40
0.0
 40
0.0
 40
0.0
 40
0.0
 40
0.0769230769230769
 40
0.1538461538461539
 40
0.2307692307692308
 40
0.3076923076923077
 40
0.3846153846153846
 40
0.4615384615384616
 40
0.5384615384615385
 40
0.6153846153846154
 40
0.6923076923076923
 40
0.7692307692307693
 40
0.8461538461538463
 40
0.9230769230769231
 40
1.0
 40
1.0
 40
1.0
 40
1.0
 10
-24.6245999999999938
 20
35.49969999999999
 30
0.0
 10
-24.6245999999999867
 20
37.2252999999999901
 30
0.0
 10
-23.2251999999999903
 20
38.62469999999999
 30
0.0
 10
-21.4995999999999903
 20
38.62469999999999
 30
0.0
 10
-21.4995999999999903
 20
38.62469999999999
 30
0.0
 10
-19.7739999999999903
 20
38.6246999999999829
 30
0.0
 10
-18.3746000000000009
 20
37.2252999999999901
 30
0.0
 10
-18.3745999999999903
 20
35.4996999999999829
 30
0.0
 10
-18.3745999999999903
 20
35.4996999999999829
 30
0.0
 10
-18.3745999999999974
 20
33.7741000000000042
 30
0.0
 10
-19.7739999999999974
 20
32.3746999999999829
 30
0.0
 10
-21.4995999999999903
 20
32.37469999999999
 30
0.0
 10
-21.4995999999999903
 20
32.37469999999999
 30
0.0
 10
-23.2251999999999903
 20
32.37469999999999
 30
0.0
 10
-24.6245999999999903
 20
33.7741000000000042
 30
0.0
 10
-24.6245999999999938
 20
35.49969999999999
 30
0.0
  0
SPLINE
  5
84
  8
CuttingLines_0p003mm
 62
256
370
-1
  6
ByLayer
100
AcDbEntity
100
AcDbSpline
 70
11
 71
3
 72
20
 73
16
 74
0
 40
0.0
 40
0.0
 40
0.0
 40
0.0
 40
0.0769230769230769
 40
0.1538461538461539
 40
0.2307692307692308
 40
0.3076923076923077
 40
0.3846153846153846
 40
0.4615384615384616
 40
0.5384615384615385
 40
0.6153846153846154
 40
0.6923076923076923
 40
0.7692307692307693
 40
0.8461538461538463
 40
0.9230769230769231
 40
1.0
 40
1.0
 40
1.0
 40
1.0
 10
18.3754000000000026
 20
38.4996999999999971
 30
0.0
 10
18.3753999999999955
 20
40.2253000000000114
 30
0.0
 10
19.774799999999999
 20
41.6246999999999971
 30
0.0
 10
21.5004000000000026
 20
41.62469999999999
 30
0.0
 10
21.5004000000000026
 20
41.62469999999999
 30
0.0
 10
23.2260000000000097
 20
41.6246999999999829
 30
0.0
 10
24.6253999999999991
 20
40.2253000000000043
 30
0.0
 10
24.6253999999999955
 20
38.49969999999999
 30
0.0
 10
24.6253999999999955
 20
38.49969999999999
 30
0.0
 10
24.625399999999992
 20
36.7740999999999971
 30
0.0
 10
23.2260000000000062
 20
35.37469999999999
 30
0.0
 10
21.5004000000000026
 20
35.3746999999999971
 30
0.0
 10
21.5004000000000026
 20
35.3746999999999971
 30
0.0
 10
19.7748000000000026
 20
35.3746999999999971
 30
0.0
 10
18.3753999999999991
 20
36.7740999999999971
 30
0.0
 10
18.3754000000000026
 20
38.4996999999999971
 30
0.0
  0
SPLINE
  5
85
  8
CuttingLines_0p003mm
 62
256
370
-1
  6
ByLayer
100
AcDbEntity
100
AcDbSpline
 70
11
 71
3
 72
20
 73
16
 74
0
 40
0.0
 40
0.0
 40
0.0
 40
0.0
 40
0.0769230769230769
 40
0.1538461538461539
 40
0.2307692307692308
 40
0.3076923076923077
 40
0.3846153846153846
 40
0.4615384615384616
 40
0.5384615384615385
 40
0.6153846153846154
 40
0.6923076923076923
 40
0.7692307692307693
 40
0.8461538461538463
 40
0.9230769230769231
 40
1.0
 40
1.0
 40
1.0
 40
1.0
 10
21.2504000000000026
 20
38.4996999999999971
 30
0.0
 10
21.2504000000000026
 20
38.6378000000000057
 30
0.0
 10
21.3623000000000047
 20
38.7496999999999758
 30
0.0
 10
21.5004000000000062
 20
38.7496999999999758
 30
0.0
 10
21.5004000000000062
 20
38.7496999999999758
 30
0.0
 10
21.6384000000000043
 20
38.7496999999999758
 30
0.0
 10
21.7504000000000026
 20
38.6378000000000057
 30
0.0
 10
21.7504000000000026
 20
38.4996999999999971
 30
0.0
 10
21.7504000000000026
 20
38.4996999999999971
 30
0.0
 10
21.7504000000000026
 20
38.3615999999999886
 30
0.0
 10
21.6384000000000007
 20
38.24969999999999
 30
0.0
 10
21.5004000000000062
 20
38.2496999999999758
 30
0.0
 10
21.5004000000000062
 20
38.2496999999999758
 30
0.0
 10
21.3623000000000083
 20
38.2496999999999829
 30
0.0
 10
21.2504000000000026
 20
38.3615999999999886
 30
0.0
 10
21.2504000000000026
 20
38.4996999999999971
 30
0.0
  0
SPLINE
  5
86
  8
CuttingLines_0p003mm
 62
256
370
-1
  6
ByLayer
100
AcDbEntity
100
AcDbSpline
 70
11
 71
3
 72
20
 73
16
 74
0
 40
0.0
 40
0.0
 40
0.0
 40
0.0
 40
0.0769230769230769
 40
0.1538461538461539
 40
0.2307692307692308
 40
0.3076923076923077
 40
0.3846153846153846
 40
0.4615384615384616
 40
0.5384615384615385
 40
0.6153846153846154
 40
0.6923076923076923
 40
0.7692307692307693
 40
0.8461538461538463
 40
0.9230769230769231
 40
1.0
 40
1.0
 40
1.0
 40
1.0
 10
21.2503999999999955
 20
-38.5002999999999957
 30
0.0
 10
21.2503999999999706
 20
-38.3622000000000085
 30
0.0
 10
21.3622999999999728
 20
-38.2503000000000242
 30
0.0
 10
21.5003999999999849
 20
-38.2503000000000171
 30
0.0
 10
21.5003999999999849
 20
-38.2503000000000171
 30
0.0
 10
21.6383999999999759
 20
-38.2503000000000242
 30
0.0
 10
21.7503999999999813
 20
-38.3622000000000014
 30
0.0
 10
21.7504000000000133
 20
-38.5002999999999886
 30
0.0
 10
21.7504000000000133
 20
-38.5002999999999886
 30
0.0
 10
21.7503999999999813
 20
-38.6384000000000185
 30
0.0
 10
21.6384000000000043
 20
-38.7502999999999886
 30
0.0
 10
21.5004000000000062
 20
-38.7502999999999886
 30
0.0
 10
21.5004000000000062
 20
-38.7502999999999886
 30
0.0
 10
21.3622999999999728
 20
-38.7503000000000029
 30
0.0
 10
21.2503999999999849
 20
-38.6384000000000114
 30
0.0
 10
21.2503999999999955
 20
-38.5002999999999957
 30
0.0
  0
SPLINE
  5
87
  8
CuttingLines_0p003mm
 62
256
370
-1
  6
ByLayer
100
AcDbEntity
100
AcDbSpline
 70
11
 71
3
 72
20
 73
16
 74
0
 40
0.0
 40
0.0
 40
0.0
 40
0.0
 40
0.0769230769230769
 40
0.1538461538461539
 40
0.2307692307692308
 40
0.3076923076923077
 40
0.3846153846153846
 40
0.4615384615384616
 40
0.5384615384615385
 40
0.6153846153846154
 40
0.6923076923076923
 40
0.7692307692307693
 40
0.8461538461538463
 40
0.9230769230769231
 40
1.0
 40
1.0
 40
1.0
 40
1.0
 10
-21.7495999999999903
 20
35.4996999999999829
 30
0.0
 10
-21.7495999999999938
 20
35.6377999999999773
 30
0.0
 10
-21.6376999999999917
 20
35.7496999999999971
 30
0.0
 10
-21.4996000000000009
 20
35.74969999999999
 30
0.0
 10
-21.4996000000000009
 20
35.74969999999999
 30
0.0
 10
-21.3615999999999993
 20
35.74969999999999
 30
0.0
 10
-21.2495999999999903
 20
35.6377999999999915
 30
0.0
 10
-21.2495999999999903
 20
35.4996999999999829
 30
0.0
 10
-21.2495999999999903
 20
35.4996999999999829
 30
0.0
 10
-21.2496000000000009
 20
35.3615999999999957
 30
0.0
 10
-21.3615999999999993
 20
35.24969999999999
 30
0.0
 10
-21.4995999999999867
 20
35.2496999999999971
 30
0.0
 10
-21.4995999999999867
 20
35.2496999999999971
 30
0.0
 10
-21.6376999999999953
 20
35.24969999999999
 30
0.0
 10
-21.7495999999999974
 20
35.3615999999999957
 30
0.0
 10
-21.7495999999999903
 20
35.4996999999999829
 30
0.0
  0
SPLINE
  5
88
  8
CuttingLines_0p003mm
 62
256
370
-1
  6
ByLayer
100
AcDbEntity
100
AcDbSpline
 70
11
 71
3
 72
20
 73
16
 74
0
 40
0.0
 40
0.0
 40
0.0
 40
0.0
 40
0.0769230769230769
 40
0.1538461538461539
 40
0.2307692307692308
 40
0.3076923076923077
 40
0.3846153846153846
 40
0.4615384615384616
 40
0.5384615384615385
 40
0.6153846153846154
 40
0.6923076923076923
 40
0.7692307692307693
 40
0.8461538461538463
 40
0.9230769230769231
 40
1.0
 40
1.0
 40
1.0
 40
1.0
 10
-21.7495999999999903
 20
-35.5003000000000242
 30
0.0
 10
-21.7496000000000151
 20
-35.3621999999999943
 30
0.0
 10
-21.6377000000000095
 20
-35.2502999999999886
 30
0.0
 10
-21.4995999999999903
 20
-35.2503000000000029
 30
0.0
 10
-21.4995999999999903
 20
-35.2503000000000029
 30
0.0
 10
-21.3616000000000206
 20
-35.2502999999999815
 30
0.0
 10
-21.2495999999999903
 20
-35.3622000000000085
 30
0.0
 10
-21.2495999999999903
 20
-35.50030000000001
 30
0.0
 10
-21.2495999999999903
 20
-35.50030000000001
 30
0.0
 10
-21.2496000000000222
 20
-35.6383999999999759
 30
0.0
 10
-21.3616000000000135
 20
-35.7502999999999957
 30
0.0
 10
-21.4996000000000222
 20
-35.7502999999999886
 30
0.0
 10
-21.4996000000000222
 20
-35.7502999999999886
 30
0.0
 10
-21.6377000000000237
 20
-35.7502999999999815
 30
0.0
 10
-21.7495999999999903
 20
-35.6383999999999901
 30
0.0
 10
-21.7495999999999903
 20
-35.5003000000000242
 30
0.0
  0
ENDBLK
  5
89
100
AcDbEntity
  8
0
100
AcDbBlockEnd
  0
ENDSEC
  0
SECTION
  2
ENTITIES
  0
LINE
  5
8A
100
AcDbEntity
100
AcDbLine
  8
CuttingLines_0p003mm
 62
256
370
-1
  6
ByLayer
 10
-56.0
 20
5.999999999999976
 30
0.0
 11
-56.0
 21
-5.9999999999999618
 31
0.0
  0
CIRCLE
  5
8B
100
AcDbEntity
100
AcDbCircle
  8
CuttingLines_0p003mm
 62
256
370
-1
  6
ByLayer
 10
52.0
 20
4.0000000000000542
 30
0.0
 40
1.5
  0
CIRCLE
  5
8C
100
AcDbEntity
100
AcDbCircle
  8
CuttingLines_0p003mm
 62
256
370
-1
  6
ByLayer
 10
52.0
 20
-4.0000000000000524
 30
0.0
 40
1.5
  0
CIRCLE
  5
8D
100
AcDbEntity
100
AcDbCircle
  8
CuttingLines_0p003mm
 62
256
370
-1
  6
ByLayer
 10
-52.0
 20
4.0000000000000693
 30
0.0
 40
1.5
  0
CIRCLE
  5
8E
100
AcDbEntity
100
AcDbCircle
  8
CuttingLines_0p003mm
 62
256
370
-1
  6
ByLayer
 10
-52.0
 20
-4.000000000000056
 30
0.0
 40
1.5
  0
CIRCLE
  5
8F
100
AcDbEntity
100
AcDbCircle
  8
CuttingLines_0p003mm
 62
256
370
-1
  6
ByLayer
 10
-4.0000000000000009
 20
51.9999999999999929
 30
0.0
 40
1.5
  0
CIRCLE
  5
90
100
AcDbEntity
100
AcDbCircle
  8
CuttingLines_0p003mm
 62
256
370
-1
  6
ByLayer
 10
3.9999999999999951
 20
51.9999999999999929
 30
0.0
 40
1.5
  0
CIRCLE
  5
91
100
AcDbEntity
100
AcDbCircle
  8
CuttingLines_0p003mm
 62
256
370
-1
  6
ByLayer
 10
46.0
 20
45.9999999999999929
 30
0.0
 40
1.6000000000000001
  0
CIRCLE
  5
92
100
AcDbEntity
100
AcDbCircle
  8
CuttingLines_0p003mm
 62
256
370
-1
  6
ByLayer
 10
-45.9999999999999929
 20
46.0
 30
0.0
 40
1.6000000000000001
  0
CIRCLE
  5
93
100
AcDbEntity
100
AcDbCircle
  8
CuttingLines_0p003mm
 62
256
370
-1
  6
ByLayer
 10
45.9999999999999929
 20
-46.0000000000000071
 30
0.0
 40
1.6000000000000001
  0
CIRCLE
  5
94
100
AcDbEntity
100
AcDbCircle
  8
CuttingLines_0p003mm
 62
256
370
-1
  6
ByLayer
 10
-46.0000000000000071
 20
-45.9999999999999929
 30
0.0
 40
1.6000000000000001
  0
LINE
  5
95
100
AcDbEntity
100
AcDbLine
  8
CuttingLines_0p003mm
 62
256
370
-1
  6
ByLayer
 10
-6.0000000000000151
 20
55.9999999999999858
 30
0.0
 11
5.9999999999999956
 21
55.9999999999999929
 31
0.0
  0
LINE
  5
96
100
AcDbEntity
100
AcDbLine
  8
CuttingLines_0p003mm
 62
256
370
-1
  6
ByLayer
 10
56.0
 20
5.9999999999999769
 30
0.0
 11
56.0
 21
-6.0000000000000329
 31
0.0
  0
LINE
  5
97
100
AcDbEntity
100
AcDbLine
  8
CuttingLines_0p003mm
 62
256
370
-1
  6
ByLayer
 10
-51.9999999999999858
 20
48.0000000000000071
 30
0.0
 11
-52.0
 21
10.0000000000000462
 31
0.0
  0
LINE
  5
98
100
AcDbEntity
100
AcDbLine
  8
CuttingLines_0p003mm
 62
256
370
-1
  6
ByLayer
 10
-47.9999999999999787
 20
52.0000000000000213
 30
0.0
 11
-10.0000000000000018
 21
52.0
 31
0.0
  0
LINE
  5
99
100
AcDbEntity
100
AcDbLine
  8
CuttingLines_0p003mm
 62
256
370
-1
  6
ByLayer
 10
10.0000000000000018
 20
51.9999999999999716
 30
0.0
 11
48.0000000000000071
 21
51.9999999999999858
 31
0.0
  0
LINE
  5
9A
100
AcDbEntity
100
AcDbLine
  8
CuttingLines_0p003mm
 62
256
370
-1
  6
ByLayer
 10
52.0000000000000071
 20
47.9999999999999929
 30
0.0
 11
52.0
 21
10.0000000000000373
 31
0.0
  0
LINE
  5
9B
100
AcDbEntity
100
AcDbLine
  8
CuttingLines_0p003mm
 62
256
370
-1
  6
ByLayer
 10
52.0
 20
-10.0000000000000302
 30
0.0
 11
51.9999999999999929
 21
-47.9999999999999858
 31
0.0
  0
LINE
  5
9C
100
AcDbEntity
100
AcDbLine
  8
CuttingLines_0p003mm
 62
256
370
-1
  6
ByLayer
 10
-48.0000000000000284
 20
-51.9999999999999929
 30
0.0
 11
47.9999999999999716
 21
-52.0000000000000213
 31
0.0
  0
LINE
  5
9D
100
AcDbEntity
100
AcDbLine
  8
CuttingLines_0p003mm
 62
256
370
-1
  6
ByLayer
 10
-52.0
 20
-10.0000000000000355
 30
0.0
 11
-52.0000000000000071
 21
-48.0000000000000071
 31
0.0
  0
ARC
  5
9E
100
AcDbEntity
  8
CuttingLines_0p003mm
 62
256
370
-1
  6
ByLayer
100
AcDbCircle
 10
-47.9999999999999929
 20
48.0
 30
0.0
 40
4.0
100
AcDbArc
 50
90.0
 51
180.0
  0
ARC
  5
9F
100
AcDbEntity
  8
CuttingLines_0p003mm
 62
256
370
-1
  6
ByLayer
100
AcDbCircle
 10
48.0
 20
47.9999999999999929
 30
0.0
 40
4.0
100
AcDbArc
 50
0.0
 51
90.0
  0
ARC
  5
A0
100
AcDbEntity
  8
CuttingLines_0p003mm
 62
256
370
-1
  6
ByLayer
100
AcDbCircle
 10
47.9999999999999361
 20
-48.0000000000000497
 30
0.0
 40
4.0
100
AcDbArc
 50
270.0
 51
0.0
  0
ARC
  5
A1
100
AcDbEntity
  8
CuttingLines_0p003mm
 62
256
370
-1
  6
ByLayer
100
AcDbCircle
 10
-48.0000000000000142
 20
-48.0
 30
0.0
 40
4.0
100
AcDbArc
 50
180.0
 51
270.0
  0
LINE
  5
A2
100
AcDbEntity
100
AcDbLine
  8
CuttingLines_0p003mm
 62
256
370
-1
  6
ByLayer
 10
-56.0
 20
5.999999999999976
 30
0.0
 11
-52.0
 21
10.0000000000000462
 31
0.0
  0
LINE
  5
A3
100
AcDbEntity
100
AcDbLine
  8
CuttingLines_0p003mm
 62
256
370
-1
  6
ByLayer
 10
-56.0
 20
-5.9999999999999618
 30
0.0
 11
-52.0
 21
-10.0000000000000355
 31
0.0
  0
LINE
  5
A4
100
AcDbEntity
100
AcDbLine
  8
CuttingLines_0p003mm
 62
256
370
-1
  6
ByLayer
 10
-10.0000000000000018
 20
52.0
 30
0.0
 11
-6.0000000000000151
 21
55.9999999999999858
 31
0.0
  0
LINE
  5
A5
100
AcDbEntity
100
AcDbLine
  8
CuttingLines_0p003mm
 62
256
370
-1
  6
ByLayer
 10
5.9999999999999956
 20
55.9999999999999929
 30
0.0
 11
10.0000000000000018
 21
51.9999999999999716
 31
0.0
  0
LINE
  5
A6
100
AcDbEntity
100
AcDbLine
  8
CuttingLines_0p003mm
 62
256
370
-1
  6
ByLayer
 10
56.0
 20
5.9999999999999769
 30
0.0
 11
52.0
 21
10.0000000000000373
 31
0.0
  0
LINE
  5
A7
100
AcDbEntity
100
AcDbLine
  8
CuttingLines_0p003mm
 62
256
370
-1
  6
ByLayer
 10
56.0
 20
-6.0000000000000329
 30
0.0
 11
52.0
 21
-10.0000000000000302
 31
0.0
  0
SPLINE
  5
A8
  8
CuttingLines_0p003mm
 62
256
370
-1
  6
ByLayer
100
AcDbEntity
100
AcDbSpline
 70
8
 71
3
 72
20
 73
16
 74
0
 40
0.0
 40
0.0
 40
0.0
 40
0.0
 40
0.0769230769230769
 40
0.1538461538461539
 40
0.2307692307692308
 40
0.3076923076923077
 40
0.3846153846153846
 40
0.4615384615384616
 40
0.5384615384615385
 40
0.6153846153846154
 40
0.6923076923076923
 40
0.7692307692307693
 40
0.8461538461538463
 40
0.9230769230769231
 40
1.0
 40
1.0
 40
1.0
 40
1.0
 10
-0.0000000000000082
 20
-44.4617000000000075
 30
0.0
 10
-0.8284000000000195
 20
-44.4617000000000075
 30
0.0
 10
-1.4999000000000156
 20
-45.1333000000000055
 30
0.0
 10
-1.4999000000000073
 20
-45.9617000000000004
 30
0.0
 10
-1.4999000000000073
 20
-45.9617000000000004
 30
0.0
 10
-1.4999999999999982
 20
-46.7902000000000129
 30
0.0
 10
-0.8283999999999838
 20
-47.4616999999999933
 30
0.0
 10
-0.0000000000000087
 20
-47.4616999999999933
 30
0.0
 10
-0.0000000000000087
 20
-47.4616999999999933
 30
0.0
 10
0.8284000000000061
 20
-47.4617999999999896
 30
0.0
 10
1.499899999999978
 20
-46.79020000000002
 30
0.0
 10
1.4998999999999707
 20
-45.9618000000000038
 30
0.0
 10
1.4998999999999707
 20
-45.9618000000000038
 30
0.0
 10
1.4999999999999918
 20
-45.1333000000000055
 30
0.0
 10
0.8283999999999907
 20
-44.4618000000000038
 30
0.0
 10
-0.0000000000000082
 20
-44.4618000000000038
 30
0.0
  0
SPLINE
  5
A9
  8
CuttingLines_0p003mm
 62
256
370
-1
  6
ByLayer
100
AcDbEntity
100
AcDbSpline
 70
8
 71
3
 72
20
 73
16
 74
0
 40
0.0
 40
0.0
 40
0.0
 40
0.0
 40
0.0769230769230769
 40
0.1538461538461539
 40
0.2307692307692308
 40
0.3076923076923077
 40
0.3846153846153846
 40
0.4615384615384616
 40
0.5384615384615385
 40
0.6153846153846154
 40
0.6923076923076923
 40
0.7692307692307693
 40
0.8461538461538463
 40
0.9230769230769231
 40
1.0
 40
1.0
 40
1.0
 40
1.0
 10
0.0000000000000029
 20
47.4619999999999891
 30
0.0
 10
-0.8284000000000026
 20
47.4619999999999891
 30
0.0
 10
-1.4998999999999749
 20
46.7903999999999698
 30
0.0
 10
-1.4998999999999825
 20
45.9619999999999891
 30
0.0
 10
-1.4998999999999825
 20
45.9619999999999891
 30
0.0
 10
-1.4999999999999964
 20
45.1335000000000051
 30
0.0
 10
-0.8283999999999814
 20
44.4620000000000104
 30
0.0
 10
0.0000000000000027
 20
44.4619999999999962
 30
0.0
 10
0.0000000000000027
 20
44.4619999999999962
 30
0.0
 10
0.8283999999999957
 20
44.4618999999999929
 30
0.0
 10
1.499899999999998
 20
45.1335000000000051
 30
0.0
 10
1.4998999999999978
 20
45.9618999999999929
 30
0.0
 10
1.4998999999999978
 20
45.9618999999999929
 30
0.0
 10
1.500000000000002
 20
46.7903999999999769
 30
0.0
 10
0.8283999999999999
 20
47.4618999999999929
 30
0.0
 10
0.0000000000000029
 20
47.4618999999999858
 30
0.0
  0
ENDSEC
  0
SECTION
  2
OBJECTS
  0
DICTIONARY
  5
C
100
AcDbDictionary
280
0
281
1
  3
ACAD_GROUP
350
D
  3
ACAD_LAYOUT
350
1A
  3
ACAD_MLINESTYLE
350
17
  3
ACAD_PLOTSETTINGS
350
19
  3
ACAD_PLOTSTYLENAME
350
E
  3
AcDbVariableDictionary
350
AA
  0
DICTIONARY
  5
D
100
AcDbDictionary
280
0
281
1
  0
ACDBDICTIONARYWDFLT
  5
E
100
AcDbDictionary
281
1
  3
Normal
350
F
100
AcDbDictionaryWithDefault
340
F
  0
ACDBPLACEHOLDER
  5
F
  0
DICTIONARY
  5
17
100
AcDbDictionary
280
0
281
1
  3
Standard
350
18
  0
MLINESTYLE
  5
18
100
AcDbMlineStyle
  2
STANDARD
 70
0
  3

 62
256
 51
90.0
 52
90.0
 71
2
 49
0.5
 62
256
  6
BYLAYER
 49
-0.5
 62
256
  6
BYLAYER
  0
DICTIONARY
  5
19
100
AcDbDictionary
280
0
281
1
  0
DICTIONARY
  5
1A
100
AcDbDictionary
281
1
  3
Layout1
350
1E
  3
Layout2
350
26
  3
Model
350
22
  0
LAYOUT
  5
1E
100
AcDbPlotSettings
  1

  2
C:\Program Files\AutoCAD 2002\plotters\DWF ePlot (optimized for plotting).pc3
  4

  6

 40
0.0
 41
0.0
 42
0.0
 43
0.0
 44
0.0
 45
0.0
 46
0.0
 47
0.0
 48
0.0
 49
0.0
140
0.0
141
0.0
142
1.0
143
1.0
 70
688
 72
0
 73
0
 74
5
  7

 75
16
147
1.0
148
0.0
149
0.0
100
AcDbLayout
  1
Layout1
 70
1
 71
1
 10
0.0
 20
0.0
 11
420.0
 21
297.0
 12
0.0
 22
0.0
 32
0.0
 14
100000000000000000000.0
 24
100000000000000000000.0
 34
100000000000000000000.0
 15
-100000000000000000000.0
 25
-100000000000000000000.0
 35
-100000000000000000000.0
146
0.0
 13
0.0
 23
0.0
 33
0.0
 16
1.0
 26
0.0
 36
0.0
 17
0.0
 27
1.0
 37
0.0
 76
0
330
1B
  0
LAYOUT
  5
22
100
AcDbPlotSettings
  1

  2
C:\Program Files\AutoCAD 2002\plotters\DWF ePlot (optimized for plotting).pc3
  4

  6

 40
0.0
 41
0.0
 42
0.0
 43
0.0
 44
0.0
 45
0.0
 46
0.0
 47
0.0
 48
0.0
 49
0.0
140
0.0
141
0.0
142
1.0
143
1.0
 70
1712
 72
0
 73
0
 74
0
  7

 75
0
147
1.0
148
0.0
149
0.0
100
AcDbLayout
  1
Model
 70
1
 71
0
 10
0.0
 20
0.0
 11
12.0
 21
9.0
 12
0.0
 22
0.0
 32
0.0
 14
0.0
 24
0.0
 34
0.0
 15
0.0
 25
0.0
 35
0.0
146
0.0
 13
0.0
 23
0.0
 33
0.0
 16
1.0
 26
0.0
 36
0.0
 17
0.0
 27
1.0
 37
0.0
 76
0
330
1F
  0
LAYOUT
  5
26
100
AcDbPlotSettings
  1

  2
C:\Program Files\AutoCAD 2002\plotters\DWF ePlot (optimized for plotting).pc3
  4

  6

 40
0.0
 41
0.0
 42
0.0
 43
0.0
 44
0.0
 45
0.0
 46
0.0
 47
0.0
 48
0.0
 49
0.0
140
0.0
141
0.0
142
1.0
143
1.0
 70
688
 72
0
 73
0
 74
5
  7

 75
16
147
1.0
148
0.0
149
0.0
100
AcDbLayout
  1
Layout2
 70
1
 71
2
 10
0.0
 20
0.0
 11
12.0
 21
9.0
 12
0.0
 22
0.0
 32
0.0
 14
0.0
 24
0.0
 34
0.0
 15
0.0
 25
0.0
 35
0.0
146
0.0
 13
0.0
 23
0.0
 33
0.0
 16
1.0
 26
0.0
 36
0.0
 17
0.0
 27
1.0
 37
0.0
 76
0
330
23
  0
DICTIONARY
  5
AA
100
AcDbDictionary
281
1
  3
DIMASSOC
350
AC
  3
HIDETEXT
350
AB
  0
DICTIONARYVAR
  5
AB
100
DictionaryVariables
280
0
  1
2
  0
DICTIONARYVAR
  5
AC
100
DictionaryVariables
280
0
  1
1
  0
ENDSEC
  0
EOF
