  0
SECTION
  2
BLOCKS
  0
ENDSEC
  0
SECTION
  2
ENTITIES
  0
LINE
  8
0
 10
-90
 11
-90
 20
-12
 21
12
  0
LINE
  8
0
 10
-90
 11
-68.082
 20
12
 21
15.167
  0
LINE
  8
0
 10
-68.082
 11
-67.615
 20
15.167
 21
18.117
  0
LINE
  8
0
 10
-67.615
 11
-62.37
 20
18.117
 21
31.779
  0
LINE
  8
0
 10
-62.37
 11
-58.782
 20
31.779
 21
37.306
  0
LINE
  8
0
 10
-58.782
 11
-72.125
 20
37.306
 21
55.154
  0
LINE
  8
0
 10
-72.125
 11
-55.154
 20
55.154
 21
72.125
  0
LINE
  8
0
 10
-55.154
 11
-37.306
 20
72.125
 21
58.782
  0
LINE
  8
0
 10
-37.306
 11
-31.779
 20
58.782
 21
62.37
  0
LINE
  8
0
 10
-31.779
 11
-18.117
 20
62.37
 21
67.615
  0
LINE
  8
0
 10
-18.117
 11
-15.167
 20
67.615
 21
68.082
  0
LINE
  8
0
 10
-15.167
 11
-12
 20
68.082
 21
90
  0
LINE
  8
0
 10
-12
 11
12
 20
90
 21
90
  0
LINE
  8
0
 10
12
 11
15.177
 20
90
 21
68.005
  0
LINE
  8
0
 10
15.177
 11
25.085
 20
68.005
 21
65.351
  0
LINE
  8
0
 10
25.085
 11
37.578
 20
65.351
 21
58.985
  0
LINE
  8
0
 10
37.578
 11
55.154
 20
58.985
 21
72.125
  0
LINE
  8
0
 10
55.154
 11
72.125
 20
72.125
 21
55.154
  0
LINE
  8
0
 10
72.125
 11
58.985
 20
55.154
 21
37.578
  0
LINE
  8
0
 10
58.985
 11
65.351
 20
37.578
 21
25.085
  0
LINE
  8
0
 10
65.351
 11
68.005
 20
25.085
 21
15.177
  0
LINE
  8
0
 10
68.005
 11
90
 20
15.177
 21
12
  0
LINE
  8
0
 10
90
 11
90
 20
12
 21
-12
  0
LINE
  8
0
 10
90
 11
68.082
 20
-12
 21
-15.167
  0
LINE
  8
0
 10
68.082
 11
67.615
 20
-15.167
 21
-18.117
  0
LINE
  8
0
 10
67.615
 11
62.37
 20
-18.117
 21
-31.779
  0
LINE
  8
0
 10
62.37
 11
58.782
 20
-31.779
 21
-37.306
  0
LINE
  8
0
 10
58.782
 11
72.125
 20
-37.306
 21
-55.154
  0
LINE
  8
0
 10
72.125
 11
55.154
 20
-55.154
 21
-72.125
  0
LINE
  8
0
 10
55.154
 11
37.306
 20
-72.125
 21
-58.782
  0
LINE
  8
0
 10
37.306
 11
31.779
 20
-58.782
 21
-62.37
  0
LINE
  8
0
 10
31.779
 11
29.493
 20
-62.37
 21
-63.248
  0
LINE
  8
0
 10
29.493
 11
10.533
 20
-63.248
 21
-22.588
  0
LINE
  8
0
 10
10.533
 11
11.35
 20
-22.588
 21
-22.275
  0
LINE
  8
0
 10
11.35
 11
15.733
 20
-22.275
 21
-19.428
  0
LINE
  8
0
 10
15.733
 11
19.428
 20
-19.428
 21
-15.733
  0
LINE
  8
0
 10
19.428
 11
22.275
 20
-15.733
 21
-11.35
  0
LINE
  8
0
 10
22.275
 11
24.148
 20
-11.35
 21
-6.471
  0
LINE
  8
0
 10
24.148
 11
24.966
 20
-6.471
 21
-1.309
  0
LINE
  8
0
 10
24.966
 11
24.692
 20
-1.309
 21
3.91
  0
LINE
  8
0
 10
24.692
 11
23.339
 20
3.91
 21
8.96
  0
LINE
  8
0
 10
23.339
 11
20.967
 20
8.96
 21
13.616
  0
LINE
  8
0
 10
20.967
 11
17.678
 20
13.616
 21
17.678
  0
LINE
  8
0
 10
17.678
 11
13.616
 20
17.678
 21
20.967
  0
LINE
  8
0
 10
13.616
 11
8.96
 20
20.967
 21
23.339
  0
LINE
  8
0
 10
8.96
 11
3.91
 20
23.339
 21
24.692
  0
LINE
  8
0
 10
3.91
 11
-1.309
 20
24.692
 21
24.966
  0
LINE
  8
0
 10
-1.309
 11
-6.471
 20
24.966
 21
24.148
  0
LINE
  8
0
 10
-6.471
 11
-11.35
 20
24.148
 21
22.275
  0
LINE
  8
0
 10
-11.35
 11
-15.733
 20
22.275
 21
19.428
  0
LINE
  8
0
 10
-15.733
 11
-19.428
 20
19.428
 21
15.733
  0
LINE
  8
0
 10
-19.428
 11
-22.275
 20
15.733
 21
11.35
  0
LINE
  8
0
 10
-22.275
 11
-24.148
 20
11.35
 21
6.471
  0
LINE
  8
0
 10
-24.148
 11
-24.966
 20
6.471
 21
1.309
  0
LINE
  8
0
 10
-24.966
 11
-24.692
 20
1.309
 21
-3.91
  0
LINE
  8
0
 10
-24.692
 11
-23.339
 20
-3.91
 21
-8.96
  0
LINE
  8
0
 10
-23.339
 11
-20.967
 20
-8.96
 21
-13.616
  0
LINE
  8
0
 10
-20.967
 11
-17.678
 20
-13.616
 21
-17.678
  0
LINE
  8
0
 10
-17.678
 11
-13.616
 20
-17.678
 21
-20.967
  0
LINE
  8
0
 10
-13.616
 11
-10.514
 20
-20.967
 21
-22.548
  0
LINE
  8
0
 10
-10.514
 11
-29.439
 20
-22.548
 21
-63.133
  0
LINE
  8
0
 10
-29.439
 11
-37.578
 20
-63.133
 21
-58.985
  0
LINE
  8
0
 10
-37.578
 11
-55.154
 20
-58.985
 21
-72.125
  0
LINE
  8
0
 10
-55.154
 11
-72.125
 20
-72.125
 21
-55.154
  0
LINE
  8
0
 10
-72.125
 11
-58.985
 20
-55.154
 21
-37.578
  0
LINE
  8
0
 10
-58.985
 11
-65.351
 20
-37.578
 21
-25.085
  0
LINE
  8
0
 10
-65.351
 11
-68.005
 20
-25.085
 21
-15.177
  0
LINE
  8
0
 10
-68.005
 11
-90
 20
-15.177
 21
-12
  0
LINE
  8
0
 10
-86
 11
-86
 20
-8.578
 21
8.578
  0
LINE
  8
0
 10
-86
 11
-68.082
 20
8.578
 21
11.167
  0
LINE
  8
0
 10
-68.082
 11
-68.069
 20
11.167
 21
11.252
  0
LINE
  8
0
 10
-68.069
 11
-66.551
 20
11.252
 21
11.471
  0
LINE
  8
0
 10
-66.551
 11
-66.441
 20
11.471
 21
12.168
  0
LINE
  8
0
 10
-66.441
 11
-65.254
 20
12.168
 21
12.339
  0
LINE
  8
0
 10
-65.254
 11
-65.064
 20
12.339
 21
13.538
  0
LINE
  8
0
 10
-65.064
 11
-64.386
 20
13.538
 21
13.636
  0
LINE
  8
0
 10
-64.386
 11
-64.145
 20
13.636
 21
15.158
  0
LINE
  8
0
 10
-64.145
 11
-64.082
 20
15.158
 21
15.167
  0
LINE
  8
0
 10
-64.082
 11
-63.814
 20
15.167
 21
16.859
  0
LINE
  8
0
 10
-63.814
 11
-58.674
 20
16.859
 21
30.248
  0
LINE
  8
0
 10
-58.674
 11
-55.086
 20
30.248
 21
35.775
  0
LINE
  8
0
 10
-55.086
 11
-55.455
 20
35.775
 21
36.269
  0
LINE
  8
0
 10
-55.455
 11
-54.782
 20
36.269
 21
37.306
  0
LINE
  8
0
 10
-54.782
 11
-55.477
 20
37.306
 21
38.235
  0
LINE
  8
0
 10
-55.477
 11
-55.086
 20
38.235
 21
38.837
  0
LINE
  8
0
 10
-55.086
 11
-56.001
 20
38.837
 21
40.061
  0
LINE
  8
0
 10
-56.001
 11
-55.954
 20
40.061
 21
40.134
  0
LINE
  8
0
 10
-55.954
 11
-66.877
 20
40.134
 21
54.746
  0
LINE
  8
0
 10
-66.877
 11
-54.746
 20
54.746
 21
66.877
  0
LINE
  8
0
 10
-54.746
 11
-40.134
 20
66.877
 21
55.954
  0
LINE
  8
0
 10
-40.134
 11
-40.061
 20
55.954
 21
56.001
  0
LINE
  8
0
 10
-40.061
 11
-38.837
 20
56.001
 21
55.086
  0
LINE
  8
0
 10
-38.837
 11
-38.235
 20
55.086
 21
55.477
  0
LINE
  8
0
 10
-38.235
 11
-37.306
 20
55.477
 21
54.782
  0
LINE
  8
0
 10
-37.306
 11
-36.269
 20
54.782
 21
55.455
  0
LINE
  8
0
 10
-36.269
 11
-35.775
 20
55.455
 21
55.086
  0
LINE
  8
0
 10
-35.775
 11
-30.248
 20
55.086
 21
58.674
  0
LINE
  8
0
 10
-30.248
 11
-16.859
 20
58.674
 21
63.814
  0
LINE
  8
0
 10
-16.859
 11
-15.167
 20
63.814
 21
64.082
  0
LINE
  8
0
 10
-15.167
 11
-15.158
 20
64.082
 21
64.145
  0
LINE
  8
0
 10
-15.158
 11
-13.636
 20
64.145
 21
64.386
  0
LINE
  8
0
 10
-13.636
 11
-13.538
 20
64.386
 21
65.064
  0
LINE
  8
0
 10
-13.538
 11
-12.339
 20
65.064
 21
65.254
  0
LINE
  8
0
 10
-12.339
 11
-12.168
 20
65.254
 21
66.441
  0
LINE
  8
0
 10
-12.168
 11
-11.471
 20
66.441
 21
66.551
  0
LINE
  8
0
 10
-11.471
 11
-11.252
 20
66.551
 21
68.069
  0
LINE
  8
0
 10
-11.252
 11
-11.167
 20
68.069
 21
68.082
  0
LINE
  8
0
 10
-11.167
 11
-8.578
 20
68.082
 21
86
  0
LINE
  8
0
 10
-8.578
 11
8.578
 20
86
 21
86
  0
LINE
  8
0
 10
8.578
 11
11.177
 20
86
 21
68.005
  0
LINE
  8
0
 10
11.177
 11
11.263
 20
68.005
 21
67.982
  0
LINE
  8
0
 10
11.263
 11
11.481
 20
67.982
 21
66.474
  0
LINE
  8
0
 10
11.481
 11
12.189
 20
66.474
 21
66.284
  0
LINE
  8
0
 10
12.189
 11
12.349
 20
66.284
 21
65.177
  0
LINE
  8
0
 10
12.349
 11
13.568
 20
65.177
 21
64.851
  0
LINE
  8
0
 10
13.568
 11
13.646
 20
64.851
 21
64.309
  0
LINE
  8
0
 10
13.646
 11
23.554
 20
64.309
 21
61.655
  0
LINE
  8
0
 10
23.554
 11
36.047
 20
61.655
 21
55.289
  0
LINE
  8
0
 10
36.047
 11
36.426
 20
55.289
 21
55.572
  0
LINE
  8
0
 10
36.426
 11
37.578
 20
55.572
 21
54.985
  0
LINE
  8
0
 10
37.578
 11
38.44
 20
54.985
 21
55.63
  0
LINE
  8
0
 10
38.44
 11
39.109
 20
55.63
 21
55.289
  0
LINE
  8
0
 10
39.109
 11
40.325
 20
55.289
 21
56.198
  0
LINE
  8
0
 10
40.325
 11
40.406
 20
56.198
 21
56.157
  0
LINE
  8
0
 10
40.406
 11
54.746
 20
56.157
 21
66.877
  0
LINE
  8
0
 10
54.746
 11
66.877
 20
66.877
 21
54.746
  0
LINE
  8
0
 10
66.877
 11
56.157
 20
54.746
 21
40.406
  0
LINE
  8
0
 10
56.157
 11
56.198
 20
40.406
 21
40.325
  0
LINE
  8
0
 10
56.198
 11
55.289
 20
40.325
 21
39.109
  0
LINE
  8
0
 10
55.289
 11
55.63
 20
39.109
 21
38.44
  0
LINE
  8
0
 10
55.63
 11
54.985
 20
38.44
 21
37.578
  0
LINE
  8
0
 10
54.985
 11
55.572
 20
37.578
 21
36.426
  0
LINE
  8
0
 10
55.572
 11
55.289
 20
36.426
 21
36.047
  0
LINE
  8
0
 10
55.289
 11
61.655
 20
36.047
 21
23.554
  0
LINE
  8
0
 10
61.655
 11
64.309
 20
23.554
 21
13.646
  0
LINE
  8
0
 10
64.309
 11
64.851
 20
13.646
 21
13.568
  0
LINE
  8
0
 10
64.851
 11
65.177
 20
13.568
 21
12.349
  0
LINE
  8
0
 10
65.177
 11
66.284
 20
12.349
 21
12.189
  0
LINE
  8
0
 10
66.284
 11
66.474
 20
12.189
 21
11.481
  0
LINE
  8
0
 10
66.474
 11
67.982
 20
11.481
 21
11.263
  0
LINE
  8
0
 10
67.982
 11
68.005
 20
11.263
 21
11.177
  0
LINE
  8
0
 10
68.005
 11
86
 20
11.177
 21
8.578
  0
LINE
  8
0
 10
86
 11
86
 20
8.578
 21
-8.578
  0
LINE
  8
0
 10
86
 11
68.082
 20
-8.578
 21
-11.167
  0
LINE
  8
0
 10
68.082
 11
68.069
 20
-11.167
 21
-11.252
  0
LINE
  8
0
 10
68.069
 11
66.551
 20
-11.252
 21
-11.471
  0
LINE
  8
0
 10
66.551
 11
66.441
 20
-11.471
 21
-12.168
  0
LINE
  8
0
 10
66.441
 11
65.254
 20
-12.168
 21
-12.339
  0
LINE
  8
0
 10
65.254
 11
65.064
 20
-12.339
 21
-13.538
  0
LINE
  8
0
 10
65.064
 11
64.386
 20
-13.538
 21
-13.636
  0
LINE
  8
0
 10
64.386
 11
64.145
 20
-13.636
 21
-15.158
  0
LINE
  8
0
 10
64.145
 11
64.082
 20
-15.158
 21
-15.167
  0
LINE
  8
0
 10
64.082
 11
63.814
 20
-15.167
 21
-16.859
  0
LINE
  8
0
 10
63.814
 11
58.674
 20
-16.859
 21
-30.248
  0
LINE
  8
0
 10
58.674
 11
55.086
 20
-30.248
 21
-35.775
  0
LINE
  8
0
 10
55.086
 11
55.455
 20
-35.775
 21
-36.269
  0
LINE
  8
0
 10
55.455
 11
54.782
 20
-36.269
 21
-37.306
  0
LINE
  8
0
 10
54.782
 11
55.477
 20
-37.306
 21
-38.235
  0
LINE
  8
0
 10
55.477
 11
55.086
 20
-38.235
 21
-38.837
  0
LINE
  8
0
 10
55.086
 11
56.001
 20
-38.837
 21
-40.061
  0
LINE
  8
0
 10
56.001
 11
55.954
 20
-40.061
 21
-40.134
  0
LINE
  8
0
 10
55.954
 11
66.877
 20
-40.134
 21
-54.746
  0
LINE
  8
0
 10
66.877
 11
54.746
 20
-54.746
 21
-66.877
  0
LINE
  8
0
 10
54.746
 11
40.134
 20
-66.877
 21
-55.954
  0
LINE
  8
0
 10
40.134
 11
40.061
 20
-55.954
 21
-56.001
  0
LINE
  8
0
 10
40.061
 11
38.837
 20
-56.001
 21
-55.086
  0
LINE
  8
0
 10
38.837
 11
38.235
 20
-55.086
 21
-55.477
  0
LINE
  8
0
 10
38.235
 11
37.306
 20
-55.477
 21
-54.782
  0
LINE
  8
0
 10
37.306
 11
36.269
 20
-54.782
 21
-55.455
  0
LINE
  8
0
 10
36.269
 11
35.775
 20
-55.455
 21
-55.086
  0
LINE
  8
0
 10
35.775
 11
31.416
 20
-55.086
 21
-57.916
  0
LINE
  8
0
 10
31.416
 11
15.674
 20
-57.916
 21
-24.157
  0
LINE
  8
0
 10
15.674
 11
17.264
 20
-24.157
 21
-23.124
  0
LINE
  8
0
 10
17.264
 11
17.337
 20
-23.124
 21
-23.051
  0
LINE
  8
0
 10
17.337
 11
18.561
 20
-23.051
 21
-22.256
  0
LINE
  8
0
 10
18.561
 11
22.256
 20
-22.256
 21
-18.561
  0
LINE
  8
0
 10
22.256
 11
23.051
 20
-18.561
 21
-17.337
  0
LINE
  8
0
 10
23.051
 11
23.124
 20
-17.337
 21
-17.264
  0
LINE
  8
0
 10
23.124
 11
25.971
 20
-17.264
 21
-12.881
  0
LINE
  8
0
 10
25.971
 11
27.844
 20
-12.881
 21
-8.002
  0
LINE
  8
0
 10
27.844
 11
28.043
 20
-8.002
 21
-6.743
  0
LINE
  8
0
 10
28.043
 11
28.148
 20
-6.743
 21
-6.471
  0
LINE
  8
0
 10
28.148
 11
28.966
 20
-6.471
 21
-1.309
  0
LINE
  8
0
 10
28.966
 11
28.692
 20
-1.309
 21
3.91
  0
LINE
  8
0
 10
28.692
 11
28.414
 20
3.91
 21
4.948
  0
LINE
  8
0
 10
28.414
 11
28.388
 20
4.948
 21
5.441
  0
LINE
  8
0
 10
28.388
 11
27.035
 20
5.441
 21
10.491
  0
LINE
  8
0
 10
27.035
 11
24.663
 20
10.491
 21
15.147
  0
LINE
  8
0
 10
24.663
 11
24.104
 20
15.147
 21
15.837
  0
LINE
  8
0
 10
24.104
 11
23.795
 20
15.837
 21
16.444
  0
LINE
  8
0
 10
23.795
 11
20.506
 20
16.444
 21
20.506
  0
LINE
  8
0
 10
20.506
 11
16.444
 20
20.506
 21
23.795
  0
LINE
  8
0
 10
16.444
 11
15.837
 20
23.795
 21
24.104
  0
LINE
  8
0
 10
15.837
 11
15.147
 20
24.104
 21
24.663
  0
LINE
  8
0
 10
15.147
 11
10.491
 20
24.663
 21
27.035
  0
LINE
  8
0
 10
10.491
 11
5.441
 20
27.035
 21
28.388
  0
LINE
  8
0
 10
5.441
 11
4.948
 20
28.388
 21
28.414
  0
LINE
  8
0
 10
4.948
 11
3.91
 20
28.414
 21
28.692
  0
LINE
  8
0
 10
3.91
 11
-1.309
 20
28.692
 21
28.966
  0
LINE
  8
0
 10
-1.309
 11
-6.471
 20
28.966
 21
28.148
  0
LINE
  8
0
 10
-6.471
 11
-6.743
 20
28.148
 21
28.043
  0
LINE
  8
0
 10
-6.743
 11
-8.002
 20
28.043
 21
27.844
  0
LINE
  8
0
 10
-8.002
 11
-12.881
 20
27.844
 21
25.971
  0
LINE
  8
0
 10
-12.881
 11
-17.264
 20
25.971
 21
23.124
  0
LINE
  8
0
 10
-17.264
 11
-17.337
 20
23.124
 21
23.051
  0
LINE
  8
0
 10
-17.337
 11
-18.561
 20
23.051
 21
22.256
  0
LINE
  8
0
 10
-18.561
 11
-22.256
 20
22.256
 21
18.561
  0
LINE
  8
0
 10
-22.256
 11
-23.051
 20
18.561
 21
17.337
  0
LINE
  8
0
 10
-23.051
 11
-23.124
 20
17.337
 21
17.264
  0
LINE
  8
0
 10
-23.124
 11
-25.971
 20
17.264
 21
12.881
  0
LINE
  8
0
 10
-25.971
 11
-27.844
 20
12.881
 21
8.002
  0
LINE
  8
0
 10
-27.844
 11
-28.043
 20
8.002
 21
6.743
  0
LINE
  8
0
 10
-28.043
 11
-28.148
 20
6.743
 21
6.471
  0
LINE
  8
0
 10
-28.148
 11
-28.966
 20
6.471
 21
1.309
  0
LINE
  8
0
 10
-28.966
 11
-28.692
 20
1.309
 21
-3.91
  0
LINE
  8
0
 10
-28.692
 11
-28.414
 20
-3.91
 21
-4.948
  0
LINE
  8
0
 10
-28.414
 11
-28.388
 20
-4.948
 21
-5.441
  0
LINE
  8
0
 10
-28.388
 11
-27.035
 20
-5.441
 21
-10.491
  0
LINE
  8
0
 10
-27.035
 11
-24.663
 20
-10.491
 21
-15.147
  0
LINE
  8
0
 10
-24.663
 11
-24.104
 20
-15.147
 21
-15.837
  0
LINE
  8
0
 10
-24.104
 11
-23.795
 20
-15.837
 21
-16.444
  0
LINE
  8
0
 10
-23.795
 11
-20.506
 20
-16.444
 21
-20.506
  0
LINE
  8
0
 10
-20.506
 11
-16.444
 20
-20.506
 21
-23.795
  0
LINE
  8
0
 10
-16.444
 11
-15.837
 20
-23.795
 21
-24.104
  0
LINE
  8
0
 10
-15.837
 11
-15.701
 20
-24.104
 21
-24.214
  0
LINE
  8
0
 10
-15.701
 11
-31.316
 20
-24.214
 21
-57.7
  0
LINE
  8
0
 10
-31.316
 11
-36.047
 20
-57.7
 21
-55.289
  0
LINE
  8
0
 10
-36.047
 11
-36.426
 20
-55.289
 21
-55.572
  0
LINE
  8
0
 10
-36.426
 11
-37.578
 20
-55.572
 21
-54.985
  0
LINE
  8
0
 10
-37.578
 11
-38.44
 20
-54.985
 21
-55.63
  0
LINE
  8
0
 10
-38.44
 11
-39.109
 20
-55.63
 21
-55.289
  0
LINE
  8
0
 10
-39.109
 11
-40.325
 20
-55.289
 21
-56.198
  0
LINE
  8
0
 10
-40.325
 11
-40.406
 20
-56.198
 21
-56.157
  0
LINE
  8
0
 10
-40.406
 11
-54.746
 20
-56.157
 21
-66.877
  0
LINE
  8
0
 10
-54.746
 11
-66.877
 20
-66.877
 21
-54.746
  0
LINE
  8
0
 10
-66.877
 11
-56.157
 20
-54.746
 21
-40.406
  0
LINE
  8
0
 10
-56.157
 11
-56.198
 20
-40.406
 21
-40.325
  0
LINE
  8
0
 10
-56.198
 11
-55.289
 20
-40.325
 21
-39.109
  0
LINE
  8
0
 10
-55.289
 11
-55.63
 20
-39.109
 21
-38.44
  0
LINE
  8
0
 10
-55.63
 11
-54.985
 20
-38.44
 21
-37.578
  0
LINE
  8
0
 10
-54.985
 11
-55.572
 20
-37.578
 21
-36.426
  0
LINE
  8
0
 10
-55.572
 11
-55.289
 20
-36.426
 21
-36.047
  0
LINE
  8
0
 10
-55.289
 11
-61.655
 20
-36.047
 21
-23.554
  0
LINE
  8
0
 10
-61.655
 11
-64.309
 20
-23.554
 21
-13.646
  0
LINE
  8
0
 10
-64.309
 11
-64.851
 20
-13.646
 21
-13.568
  0
LINE
  8
0
 10
-64.851
 11
-65.177
 20
-13.568
 21
-12.349
  0
LINE
  8
0
 10
-65.177
 11
-66.284
 20
-12.349
 21
-12.189
  0
LINE
  8
0
 10
-66.284
 11
-66.474
 20
-12.189
 21
-11.481
  0
LINE
  8
0
 10
-66.474
 11
-67.982
 20
-11.481
 21
-11.263
  0
LINE
  8
0
 10
-67.982
 11
-68.005
 20
-11.263
 21
-11.177
  0
LINE
  8
0
 10
-68.005
 11
-86
 20
-11.177
 21
-8.578
  0
ENDSEC
  0
SECTION
  2
OBJECTS
  0
DICTIONARY
  0
ENDSEC
  0
EOF
