  0
SECTION
  2
HEADER
  9
$ACADVER
  1
AC1009
  9
$EXTMIN
 10
0.0
 20
0.0
 30
0.0
  9
$EXTMAX
 10
1000.0
 20
1000.0
 30
0.0
  9
$FILLMODE
 70
 0
  9
$SPLFRAME
 70
 1
  0
ENDSEC
  0
SECTION
  2
TABLES
  0
TABLE
  2
LAYER
 70
1
  0
LAYER
  2
0
 70
     0
 62
     7
  6
CONTINUOUS
  0
ENDTAB
  0
ENDSEC
  0
SECTION
  2
ENTITIES
  0
POLYLINE
  8
0
 62
     0
 66
     1
 10
0
 20
0
 30
0.0
 70
     1
 40
0
 41
0
  0
VERTEX
  8
0
 10
0.409397
 20
0.0278863
 30
0.0
 40
0
 41
0
  0
VERTEX
  8
0
 10
0.450304
 20
0.116536
 30
0.0
 40
0
 41
0
  0
VERTEX
  8
0
 10
0.503635
 20
0.181694
 30
0.0
 40
0
 41
0
  0
VERTEX
  8
0
 10
0.563857
 20
0.227051
 30
0.0
 40
0
 41
0
  0
VERTEX
  8
0
 10
0.625433
 20
0.256076
 30
0.0
 40
0
 41
0
  0
VERTEX
  8
0
 10
0.682889
 20
0.272461
 30
0.0
 40
0
 41
0
  0
VERTEX
  8
0
 10
0.73074
 20
0.279676
 30
0.0
 40
0
 41
0
  0
VERTEX
  8
0
 10
0.76351
 20
0.281412
 30
0.0
 40
0
 41
0
  0
VERTEX
  8
0
 10
0.775662
 20
0.281142
 30
0.0
 40
0
 41
0
  0
VERTEX
  8
0
 10
0.956218
 20
0.395617
 30
0.0
 40
0
 41
0
  0
VERTEX
  8
0
 10
0.931261
 20
0.533149
 30
0.0
 40
0
 41
0
  0
VERTEX
  8
0
 10
0.906087
 20
0.604546
 30
0.0
 40
0
 41
0
  0
VERTEX
  8
0
 10
0.896104
 20
0.682617
 30
0.0
 40
0
 41
0
  0
VERTEX
  8
0
 10
0.905817
 20
0.769476
 30
0.0
 40
0
 41
0
  0
VERTEX
  8
0
 10
0.939833
 20
0.867133
 30
0.0
 40
0
 41
0
  0
VERTEX
  8
0
 10
0.931261
 20
1.00412
 30
0.0
 40
0
 41
0
  0
VERTEX
  8
0
 10
0.891928
 20
0.976238
 30
0.0
 40
0
 41
0
  0
VERTEX
  8
0
 10
0.858128
 20
0.971625
 30
0.0
 40
0
 41
0
  0
VERTEX
  8
0
 10
0.826606
 20
0.976887
 30
0.0
 40
0
 41
0
  0
VERTEX
  8
0
 10
0.794271
 20
0.978461
 30
0.0
 40
0
 41
0
  0
VERTEX
  8
0
 10
0.744792
 20
1.00157
 30
0.0
 40
0
 41
0
  0
VERTEX
  8
0
 10
0.696072
 20
1.02637
 30
0.0
 40
0
 41
0
  0
VERTEX
  8
0
 10
0.651421
 20
1.06147
 30
0.0
 40
0
 41
0
  0
VERTEX
  8
0
 10
0.614421
 20
1.11545
 30
0.0
 40
0
 41
0
  0
VERTEX
  8
0
 10
0.578179
 20
1.16998
 30
0.0
 40
0
 41
0
  0
VERTEX
  8
0
 10
0.552735
 20
1.22184
 30
0.0
 40
0
 41
0
  0
VERTEX
  8
0
 10
0.534614
 20
1.27186
 30
0.0
 40
0
 41
0
  0
VERTEX
  8
0
 10
0.520236
 20
1.32102
 30
0.0
 40
0
 41
0
  0
VERTEX
  8
0
 10
0.503743
 20
1.40657
 30
0.0
 40
0
 41
0
  0
VERTEX
  8
0
 10
0.502875
 20
1.4796
 30
0.0
 40
0
 41
0
  0
VERTEX
  8
0
 10
0.512804
 20
1.54406
 30
0.0
 40
0
 41
0
  0
VERTEX
  8
0
 10
0.528808
 20
1.60362
 30
0.0
 40
0
 41
0
  0
VERTEX
  8
0
 10
0.482585
 20
1.65044
 30
0.0
 40
0
 41
0
  0
VERTEX
  8
0
 10
0.446778
 20
1.70589
 30
0.0
 40
0
 41
0
  0
VERTEX
  8
0
 10
0.424154
 20
1.77229
 30
0.0
 40
0
 41
0
  0
VERTEX
  8
0
 10
0.417481
 20
1.85194
 30
0.0
 40
0
 41
0
  0
VERTEX
  8
0
 10
0.460667
 20
2.21061
 30
0.0
 40
0
 41
0
  0
VERTEX
  8
0
 10
0.438639
 20
2.41569
 30
0.0
 40
0
 41
0
  0
VERTEX
  8
0
 10
0.442437
 20
2.65744
 30
0.0
 40
0
 41
0
  0
VERTEX
  8
0
 10
0.348958
 20
2.75971
 30
0.0
 40
0
 41
0
  0
VERTEX
  8
0
 10
0.315972
 20
2.77126
 30
0.0
 40
0
 41
0
  0
VERTEX
  8
0
 10
0.282986
 20
2.76144
 30
0.0
 40
0
 41
0
  0
VERTEX
  8
0
 10
0.25
 20
2.73904
 30
0.0
 40
0
 41
0
  0
VERTEX
  8
0
 10
0.217068
 20
2.71272
 30
0.0
 40
0
 41
0
  0
VERTEX
  8
0
 10
0.19515
 20
2.75375
 30
0.0
 40
0
 41
0
  0
VERTEX
  8
0
 10
0.171713
 20
2.78097
 30
0.0
 40
0
 41
0
  0
VERTEX
  8
0
 10
0.147081
 20
2.79747
 30
0.0
 40
0
 41
0
  0
VERTEX
  8
0
 10
0.121636
 20
2.80647
 30
0.0
 40
0
 41
0
  0
VERTEX
  8
0
 10
0.0957031
 20
2.81104
 30
0.0
 40
0
 41
0
  0
VERTEX
  8
0
 10
0.0696072
 20
2.81424
 30
0.0
 40
0
 41
0
  0
VERTEX
  8
0
 10
0.0437283
 20
2.81928
 30
0.0
 40
0
 41
0
  0
VERTEX
  8
0
 10
0.0183919
 20
2.82921
 30
0.0
 40
0
 41
0
  0
VERTEX
  8
0
 10
0.147894
 20
2.90554
 30
0.0
 40
0
 41
0
  0
VERTEX
  8
0
 10
0.219781
 20
2.97721
 30
0.0
 40
0
 41
0
  0
VERTEX
  8
0
 10
0.196289
 20
3.01454
 30
0.0
 40
0
 41
0
  0
VERTEX
  8
0
 10
0.18929
 20
3.05761
 30
0.0
 40
0
 41
0
  0
VERTEX
  8
0
 10
0.183376
 20
3.10704
 30
0.0
 40
0
 41
0
  0
VERTEX
  8
0
 10
0.163303
 20
3.16314
 30
0.0
 40
0
 41
0
  0
VERTEX
  8
0
 10
0.167156
 20
3.27013
 30
0.0
 40
0
 41
0
  0
VERTEX
  8
0
 10
0.210721
 20
3.29872
 30
0.0
 40
0
 41
0
  0
VERTEX
  8
0
 10
0.26785
 20
3.31478
 30
0.0
 40
0
 41
0
  0
VERTEX
  8
0
 10
0.315701
 20
3.32428
 30
0.0
 40
0
 41
0
  0
VERTEX
  8
0
 10
0.358615
 20
3.32362
 30
0.0
 40
0
 41
0
  0
VERTEX
  8
0
 10
0.400771
 20
3.30903
 30
0.0
 40
0
 41
0
  0
VERTEX
  8
0
 10
0.446506
 20
3.27686
 30
0.0
 40
0
 41
0
  0
VERTEX
  8
0
 10
0.500108
 20
3.22342
 30
0.0
 40
0
 41
0
  0
VERTEX
  8
0
 10
0.565756
 20
3.14501
 30
0.0
 40
0
 41
0
  0
VERTEX
  8
0
 10
0.647894
 20
3.03788
 30
0.0
 40
0
 41
0
  0
VERTEX
  8
0
 10
0.669487
 20
2.88238
 30
0.0
 40
0
 41
0
  0
VERTEX
  8
0
 10
0.73725
 20
2.75444
 30
0.0
 40
0
 41
0
  0
VERTEX
  8
0
 10
0.824164
 20
2.64546
 30
0.0
 40
0
 41
0
  0
VERTEX
  8
0
 10
0.903429
 20
2.54682
 30
0.0
 40
0
 41
0
  0
VERTEX
  8
0
 10
0.972385
 20
2.37582
 30
0.0
 40
0
 41
0
  0
VERTEX
  8
0
 10
1.00418
 20
2.34076
 30
0.0
 40
0
 41
0
  0
VERTEX
  8
0
 10
1.04758
 20
2.31711
 30
0.0
 40
0
 41
0
  0
VERTEX
  8
0
 10
1.09098
 20
2.29758
 30
0.0
 40
0
 41
0
  0
VERTEX
  8
0
 10
1.12283
 20
2.27474
 30
0.0
 40
0
 41
0
  0
VERTEX
  8
0
 10
1.20475
 20
2.24582
 30
0.0
 40
0
 41
0
  0
VERTEX
  8
0
 10
1.29199
 20
2.22065
 30
0.0
 40
0
 41
0
  0
VERTEX
  8
0
 10
1.38346
 20
2.16976
 30
0.0
 40
0
 41
0
  0
VERTEX
  8
0
 10
1.47831
 20
2.06358
 30
0.0
 40
0
 41
0
  0
VERTEX
  8
0
 10
1.62076
 20
2.1441
 30
0.0
 40
0
 41
0
  0
VERTEX
  8
0
 10
1.77908
 20
2.15169
 30
0.0
 40
0
 41
0
  0
VERTEX
  8
0
 10
1.70139
 20
2.26693
 30
0.0
 40
0
 41
0
  0
VERTEX
  8
0
 10
1.66775
 20
2.40858
 30
0.0
 40
0
 41
0
  0
VERTEX
  8
0
 10
1.68115
 20
2.48514
 30
0.0
 40
0
 41
0
  0
VERTEX
  8
0
 10
1.70161
 20
2.55453
 30
0.0
 40
0
 41
0
  0
VERTEX
  8
0
 10
1.73296
 20
2.61307
 30
0.0
 40
0
 41
0
  0
VERTEX
  8
0
 10
1.77908
 20
2.6569
 30
0.0
 40
0
 41
0
  0
VERTEX
  8
0
 10
1.95036
 20
2.78537
 30
0.0
 40
0
 41
0
  0
VERTEX
  8
0
 10
1.90756
 20
2.52849
 30
0.0
 40
0
 41
0
  0
VERTEX
  8
0
 10
1.99832
 20
2.66
 30
0.0
 40
0
 41
0
  0
VERTEX
  8
0
 10
2.11708
 20
2.78537
 30
0.0
 40
0
 41
0
  0
VERTEX
  8
0
 10
2.0759
 20
2.59674
 30
0.0
 40
0
 41
0
  0
VERTEX
  8
0
 10
2.03597
 20
2.43972
 30
0.0
 40
0
 41
0
  0
VERTEX
  8
0
 10
2.24485
 20
2.71685
 30
0.0
 40
0
 41
0
  0
VERTEX
  8
0
 10
2.23981
 20
2.51574
 30
0.0
 40
0
 41
0
  0
VERTEX
  8
0
 10
2.37261
 20
2.34006
 30
0.0
 40
0
 41
0
  0
VERTEX
  8
0
 10
2.38861
 20
2.2596
 30
0.0
 40
0
 41
0
  0
VERTEX
  8
0
 10
2.41644
 20
2.19906
 30
0.0
 40
0
 41
0
  0
VERTEX
  8
0
 10
2.45426
 20
2.15554
 30
0.0
 40
0
 41
0
  0
VERTEX
  8
0
 10
2.50037
 20
2.12597
 30
0.0
 40
0
 41
0
  0
VERTEX
  8
0
 10
2.55838
 20
2.02322
 30
0.0
 40
0
 41
0
  0
VERTEX
  8
0
 10
2.49289
 20
1.91515
 30
0.0
 40
0
 41
0
  0
VERTEX
  8
0
 10
2.48128
 20
1.80094
 30
0.0
 40
0
 41
0
  0
VERTEX
  8
0
 10
2.47271
 20
1.67318
 30
0.0
 40
0
 41
0
  0
VERTEX
  8
0
 10
2.51899
 20
1.63803
 30
0.0
 40
0
 41
0
  0
VERTEX
  8
0
 10
2.55903
 20
1.58724
 30
0.0
 40
0
 41
0
  0
VERTEX
  8
0
 10
2.59478
 20
1.52567
 30
0.0
 40
0
 41
0
  0
VERTEX
  8
0
 10
2.62815
 20
1.45801
 30
0.0
 40
0
 41
0
  0
VERTEX
  8
0
 10
2.59261
 20
1.31245
 30
0.0
 40
0
 41
0
  0
VERTEX
  8
0
 10
2.47271
 20
1.26964
 30
0.0
 40
0
 41
0
  0
VERTEX
  8
0
 10
2.3871
 20
1.14117
 30
0.0
 40
0
 41
0
  0
VERTEX
  8
0
 10
2.38596
 20
1.08767
 30
0.0
 40
0
 41
0
  0
VERTEX
  8
0
 10
2.39908
 20
1.03819
 30
0.0
 40
0
 41
0
  0
VERTEX
  8
0
 10
2.42757
 20
0.99311
 30
0.0
 40
0
 41
0
  0
VERTEX
  8
0
 10
2.47271
 20
0.952746
 30
0.0
 40
0
 41
0
  0
VERTEX
  8
0
 10
2.59261
 20
0.807183
 30
0.0
 40
0
 41
0
  0
VERTEX
  8
0
 10
2.65256
 20
0.678711
 30
0.0
 40
0
 41
0
  0
VERTEX
  8
0
 10
2.72108
 20
0.421821
 30
0.0
 40
0
 41
0
  0
VERTEX
  8
0
 10
2.75586
 20
0.298014
 30
0.0
 40
0
 41
0
  0
VERTEX
  8
0
 10
2.76258
 20
0.333333
 30
0.0
 40
0
 41
0
  0
VERTEX
  8
0
 10
2.77078
 20
0.358507
 30
0.0
 40
0
 41
0
  0
VERTEX
  8
0
 10
2.78006
 20
0.375706
 30
0.0
 40
0
 41
0
  0
VERTEX
  8
0
 10
2.79021
 20
0.387261
 30
0.0
 40
0
 41
0
  0
VERTEX
  8
0
 10
2.80083
 20
0.3954
 30
0.0
 40
0
 41
0
  0
VERTEX
  8
0
 10
2.81158
 20
0.402399
 30
0.0
 40
0
 41
0
  0
VERTEX
  8
0
 10
2.82221
 20
0.410428
 30
0.0
 40
0
 41
0
  0
VERTEX
  8
0
 10
2.83242
 20
0.421821
 30
0.0
 40
0
 41
0
  0
VERTEX
  8
0
 10
2.9221
 20
0.435113
 30
0.0
 40
0
 41
0
  0
VERTEX
  8
0
 10
2.99983
 20
0.415582
 30
0.0
 40
0
 41
0
  0
VERTEX
  8
0
 10
3.06392
 20
0.386882
 30
0.0
 40
0
 41
0
  0
VERTEX
  8
0
 10
3.11257
 20
0.372613
 30
0.0
 40
0
 41
0
  0
VERTEX
  8
0
 10
3.09435
 20
0.36556
 30
0.0
 40
0
 41
0
  0
VERTEX
  8
0
 10
3.06993
 20
0.363172
 30
0.0
 40
0
 41
0
  0
VERTEX
  8
0
 10
3.04172
 20
0.363499
 30
0.0
 40
0
 41
0
  0
VERTEX
  8
0
 10
3.01215
 20
0.364692
 30
0.0
 40
0
 41
0
  0
VERTEX
  8
0
 10
2.98356
 20
0.364963
 30
0.0
 40
0
 41
0
  0
VERTEX
  8
0
 10
2.95833
 20
0.362304
 30
0.0
 40
0
 41
0
  0
VERTEX
  8
0
 10
2.93892
 20
0.354872
 30
0.0
 40
0
 41
0
  0
VERTEX
  8
0
 10
2.92768
 20
0.340821
 30
0.0
 40
0
 41
0
  0
VERTEX
  8
0
 10
2.91812
 20
0.333117
 30
0.0
 40
0
 41
0
  0
VERTEX
  8
0
 10
2.89675
 20
0.326335
 30
0.0
 40
0
 41
0
  0
VERTEX
  8
0
 10
2.87131
 20
0.31939
 30
0.0
 40
0
 41
0
  0
VERTEX
  8
0
 10
2.8495
 20
0.311089
 30
0.0
 40
0
 41
0
  0
VERTEX
  8
0
 10
2.83892
 20
0.300347
 30
0.0
 40
0
 41
0
  0
VERTEX
  8
0
 10
2.84744
 20
0.286025
 30
0.0
 40
0
 41
0
  0
VERTEX
  8
0
 10
2.88265
 20
0.266982
 30
0.0
 40
0
 41
0
  0
VERTEX
  8
0
 10
2.95231
 20
0.241971
 30
0.0
 40
0
 41
0
  0
VERTEX
  8
0
 10
3.08931
 20
0.224881
 30
0.0
 40
0
 41
0
  0
VERTEX
  8
0
 10
3.17497
 20
0.224881
 30
0.0
 40
0
 41
0
  0
VERTEX
  8
0
 10
3.15853
 20
0.214681
 30
0.0
 40
0
 41
0
  0
VERTEX
  8
0
 10
3.14751
 20
0.204969
 30
0.0
 40
0
 41
0
  0
VERTEX
  8
0
 10
3.13857
 20
0.195475
 30
0.0
 40
0
 41
0
  0
VERTEX
  8
0
 10
3.12847
 20
0.185872
 30
0.0
 40
0
 41
0
  0
VERTEX
  8
0
 10
3.11393
 20
0.175836
 30
0.0
 40
0
 41
0
  0
VERTEX
  8
0
 10
3.09174
 20
0.165093
 30
0.0
 40
0
 41
0
  0
VERTEX
  8
0
 10
3.05865
 20
0.153267
 30
0.0
 40
0
 41
0
  0
VERTEX
  8
0
 10
3.01139
 20
0.140082
 30
0.0
 40
0
 41
0
  0
VERTEX
  8
0
 10
2.90093
 20
0.156358
 30
0.0
 40
0
 41
0
  0
VERTEX
  8
0
 10
2.90625
 20
0.134983
 30
0.0
 40
0
 41
0
  0
VERTEX
  8
0
 10
2.91482
 20
0.113553
 30
0.0
 40
0
 41
0
  0
VERTEX
  8
0
 10
2.94
 20
0.0921224
 30
0.0
 40
0
 41
0
  0
VERTEX
  8
0
 10
2.99511
 20
0.0706922
 30
0.0
 40
0
 41
0
  0
VERTEX
  8
0
 10
3.12358
 20
0.0536025
 30
0.0
 40
0
 41
0
  0
VERTEX
  8
0
 10
2.95231
 20
0.0123698
 30
0.0
 40
0
 41
0
  0
VERTEX
  8
0
 10
2.87543
 20
0.0520833
 30
0.0
 40
0
 41
0
  0
VERTEX
  8
0
 10
2.78407
 20
0.0920139
 30
0.0
 40
0
 41
0
  0
VERTEX
  8
0
 10
2.69353
 20
0.14719
 30
0.0
 40
0
 41
0
  0
VERTEX
  8
0
 10
2.61931
 20
0.232693
 30
0.0
 40
0
 41
0
  0
VERTEX
  8
0
 10
2.61426
 20
0.300401
 30
0.0
 40
0
 41
0
  0
VERTEX
  8
0
 10
2.58182
 20
0.381131
 30
0.0
 40
0
 41
0
  0
VERTEX
  8
0
 10
2.53842
 20
0.464031
 30
0.0
 40
0
 41
0
  0
VERTEX
  8
0
 10
2.50037
 20
0.538303
 30
0.0
 40
0
 41
0
  0
VERTEX
  8
0
 10
2.38906
 20
0.594781
 30
0.0
 40
0
 41
0
  0
VERTEX
  8
0
 10
2.33686
 20
0.611708
 30
0.0
 40
0
 41
0
  0
VERTEX
  8
0
 10
2.28717
 20
0.638129
 30
0.0
 40
0
 41
0
  0
VERTEX
  8
0
 10
2.24561
 20
0.676758
 30
0.0
 40
0
 41
0
  0
VERTEX
  8
0
 10
2.21799
 20
0.730414
 30
0.0
 40
0
 41
0
  0
VERTEX
  8
0
 10
2.20036
 20
0.731879
 30
0.0
 40
0
 41
0
  0
VERTEX
  8
0
 10
2.1856
 20
0.739854
 30
0.0
 40
0
 41
0
  0
VERTEX
  8
0
 10
2.17264
 20
0.751085
 30
0.0
 40
0
 41
0
  0
VERTEX
  8
0
 10
2.16058
 20
0.762153
 30
0.0
 40
0
 41
0
  0
VERTEX
  8
0
 10
2.1486
 20
0.769857
 30
0.0
 40
0
 41
0
  0
VERTEX
  8
0
 10
2.13564
 20
0.770779
 30
0.0
 40
0
 41
0
  0
VERTEX
  8
0
 10
2.12082
 20
0.761664
 30
0.0
 40
0
 41
0
  0
VERTEX
  8
0
 10
2.10325
 20
0.73915
 30
0.0
 40
0
 41
0
  0
VERTEX
  8
0
 10
2.02669
 20
0.693414
 30
0.0
 40
0
 41
0
  0
VERTEX
  8
0
 10
1.98867
 20
0.719781
 30
0.0
 40
0
 41
0
  0
VERTEX
  8
0
 10
1.96104
 20
0.733236
 30
0.0
 40
0
 41
0
  0
VERTEX
  8
0
 10
1.94162
 20
0.736382
 30
0.0
 40
0
 41
0
  0
VERTEX
  8
0
 10
1.92828
 20
0.731933
 30
0.0
 40
0
 41
0
  0
VERTEX
  8
0
 10
1.91894
 20
0.722439
 30
0.0
 40
0
 41
0
  0
VERTEX
  8
0
 10
1.91151
 20
0.710613
 30
0.0
 40
0
 41
0
  0
VERTEX
  8
0
 10
1.90386
 20
0.69911
 30
0.0
 40
0
 41
0
  0
VERTEX
  8
0
 10
1.89382
 20
0.690483
 30
0.0
 40
0
 41
0
  0
VERTEX
  8
0
 10
1.87972
 20
0.70676
 30
0.0
 40
0
 41
0
  0
VERTEX
  8
0
 10
1.87239
 20
0.722114
 30
0.0
 40
0
 41
0
  0
VERTEX
  8
0
 10
1.86757
 20
0.734754
 30
0.0
 40
0
 41
0
  0
VERTEX
  8
0
 10
1.86111
 20
0.743001
 30
0.0
 40
0
 41
0
  0
VERTEX
  8
0
 10
1.84868
 20
0.744954
 30
0.0
 40
0
 41
0
  0
VERTEX
  8
0
 10
1.82611
 20
0.738986
 30
0.0
 40
0
 41
0
  0
VERTEX
  8
0
 10
1.78928
 20
0.723199
 30
0.0
 40
0
 41
0
  0
VERTEX
  8
0
 10
1.73383
 20
0.695856
 30
0.0
 40
0
 41
0
  0
VERTEX
  8
0
 10
1.71647
 20
0.687825
 30
0.0
 40
0
 41
0
  0
VERTEX
  8
0
 10
1.69982
 20
0.677626
 30
0.0
 40
0
 41
0
  0
VERTEX
  8
0
 10
1.68321
 20
0.667426
 30
0.0
 40
0
 41
0
  0
VERTEX
  8
0
 10
1.66581
 20
0.65956
 30
0.0
 40
0
 41
0
  0
VERTEX
  8
0
 10
1.64686
 20
0.65625
 30
0.0
 40
0
 41
0
  0
VERTEX
  8
0
 10
1.62565
 20
0.659668
 30
0.0
 40
0
 41
0
  0
VERTEX
  8
0
 10
1.60151
 20
0.672146
 30
0.0
 40
0
 41
0
  0
VERTEX
  8
0
 10
1.57357
 20
0.695856
 30
0.0
 40
0
 41
0
  0
VERTEX
  8
0
 10
1.53532
 20
0.624132
 30
0.0
 40
0
 41
0
  0
VERTEX
  8
0
 10
1.49192
 20
0.567871
 30
0.0
 40
0
 41
0
  0
VERTEX
  8
0
 10
1.44412
 20
0.524794
 30
0.0
 40
0
 41
0
  0
VERTEX
  8
0
 10
1.39274
 20
0.492512
 30
0.0
 40
0
 41
0
  0
VERTEX
  8
0
 10
1.33284
 20
0.43674
 30
0.0
 40
0
 41
0
  0
VERTEX
  8
0
 10
1.30414
 20
0.375597
 30
0.0
 40
0
 41
0
  0
VERTEX
  8
0
 10
1.27024
 20
0.316786
 30
0.0
 40
0
 41
0
  0
VERTEX
  8
0
 10
1.19482
 20
0.26785
 30
0.0
 40
0
 41
0
  0
VERTEX
  8
0
 10
1.05979
 20
0.227051
 30
0.0
 40
0
 41
0
  0
VERTEX
  8
0
 10
0.98649
 20
0.218153
 30
0.0
 40
0
 41
0
  0
VERTEX
  8
0
 10
0.912706
 20
0.224881
 30
0.0
 40
0
 41
0
  0
VERTEX
  8
0
 10
0.839518
 20
0.130642
 30
0.0
 40
0
 41
0
  0
VERTEX
  8
0
 10
0.862793
 20
0.0364583
 30
0.0
 40
0
 41
0
  0
VERTEX
  8
0
 10
0.711806
 20
0.0123698
 30
0.0
 40
0
 41
0
  0
VERTEX
  8
0
 10
0.775662
 20
0.101291
 30
0.0
 40
0
 41
0
  0
VERTEX
  8
0
 10
0.739692
 20
0.187175
 30
0.0
 40
0
 41
0
  0
VERTEX
  8
0
 10
0.631293
 20
0.176867
 30
0.0
 40
0
 41
0
  0
VERTEX
  8
0
 10
0.409397
 20
0.0278863
 30
0.0
 40
0
 41
0
  0
SEQEND
 8
0
  0
POLYLINE
  8
0
 62
     1
 66
     1
 10
0
 20
0
 30
0.0
 70
     1
 40
1.298
 41
1.298
  0
VERTEX
  8
0
 10
0.409397
 20
0.0278863
 30
0.0
 40
0.0180278
 41
0.0180278
  0
VERTEX
  8
0
 10
0.450304
 20
0.116536
 30
0.0
 40
0.0180278
 41
0.0180278
  0
VERTEX
  8
0
 10
0.503635
 20
0.181694
 30
0.0
 40
0.0180278
 41
0.0180278
  0
VERTEX
  8
0
 10
0.563857
 20
0.227051
 30
0.0
 40
0.0180278
 41
0.0180278
  0
VERTEX
  8
0
 10
0.625433
 20
0.256076
 30
0.0
 40
0.0180278
 41
0.0180278
  0
VERTEX
  8
0
 10
0.682889
 20
0.272461
 30
0.0
 40
0.0180278
 41
0.0180278
  0
VERTEX
  8
0
 10
0.73074
 20
0.279676
 30
0.0
 40
0.0180278
 41
0.0180278
  0
VERTEX
  8
0
 10
0.76351
 20
0.281412
 30
0.0
 40
0.0180278
 41
0.0180278
  0
VERTEX
  8
0
 10
0.775662
 20
0.281142
 30
0.0
 40
0.0180278
 41
0.0180278
  0
VERTEX
  8
0
 10
0.956218
 20
0.395617
 30
0.0
 40
0.0180278
 41
0.0180278
  0
VERTEX
  8
0
 10
0.931261
 20
0.533149
 30
0.0
 40
0.0180278
 41
0.0180278
  0
VERTEX
  8
0
 10
0.906087
 20
0.604546
 30
0.0
 40
0.0180278
 41
0.0180278
  0
VERTEX
  8
0
 10
0.896104
 20
0.682617
 30
0.0
 40
0.0180278
 41
0.0180278
  0
VERTEX
  8
0
 10
0.905817
 20
0.769476
 30
0.0
 40
0.0180278
 41
0.0180278
  0
VERTEX
  8
0
 10
0.939833
 20
0.867133
 30
0.0
 40
0.0180278
 41
0.0180278
  0
VERTEX
  8
0
 10
0.931261
 20
1.00412
 30
0.0
 40
0.0180278
 41
0.0180278
  0
VERTEX
  8
0
 10
0.891928
 20
0.976238
 30
0.0
 40
0.0180278
 41
0.0180278
  0
VERTEX
  8
0
 10
0.858128
 20
0.971625
 30
0.0
 40
0.0180278
 41
0.0180278
  0
VERTEX
  8
0
 10
0.826606
 20
0.976887
 30
0.0
 40
0.0180278
 41
0.0180278
  0
VERTEX
  8
0
 10
0.794271
 20
0.978461
 30
0.0
 40
0.0180278
 41
0.0180278
  0
VERTEX
  8
0
 10
0.744792
 20
1.00157
 30
0.0
 40
0.0180278
 41
0.0180278
  0
VERTEX
  8
0
 10
0.696072
 20
1.02637
 30
0.0
 40
0.0180278
 41
0.0180278
  0
VERTEX
  8
0
 10
0.651421
 20
1.06147
 30
0.0
 40
0.0180278
 41
0.0180278
  0
VERTEX
  8
0
 10
0.614421
 20
1.11545
 30
0.0
 40
0.0180278
 41
0.0180278
  0
VERTEX
  8
0
 10
0.578179
 20
1.16998
 30
0.0
 40
0.0180278
 41
0.0180278
  0
VERTEX
  8
0
 10
0.552735
 20
1.22184
 30
0.0
 40
0.0180278
 41
0.0180278
  0
VERTEX
  8
0
 10
0.534614
 20
1.27186
 30
0.0
 40
0.0180278
 41
0.0180278
  0
VERTEX
  8
0
 10
0.520236
 20
1.32102
 30
0.0
 40
0.0180278
 41
0.0180278
  0
VERTEX
  8
0
 10
0.503743
 20
1.40657
 30
0.0
 40
0.0180278
 41
0.0180278
  0
VERTEX
  8
0
 10
0.502875
 20
1.4796
 30
0.0
 40
0.0180278
 41
0.0180278
  0
VERTEX
  8
0
 10
0.512804
 20
1.54406
 30
0.0
 40
0.0180278
 41
0.0180278
  0
VERTEX
  8
0
 10
0.528808
 20
1.60362
 30
0.0
 40
0.0180278
 41
0.0180278
  0
VERTEX
  8
0
 10
0.482585
 20
1.65044
 30
0.0
 40
0.0180278
 41
0.0180278
  0
VERTEX
  8
0
 10
0.446778
 20
1.70589
 30
0.0
 40
0.0180278
 41
0.0180278
  0
VERTEX
  8
0
 10
0.424154
 20
1.77229
 30
0.0
 40
0.0180278
 41
0.0180278
  0
VERTEX
  8
0
 10
0.417481
 20
1.85194
 30
0.0
 40
0.0180278
 41
0.0180278
  0
VERTEX
  8
0
 10
0.460667
 20
2.21061
 30
0.0
 40
0.0180278
 41
0.0180278
  0
VERTEX
  8
0
 10
0.438639
 20
2.41569
 30
0.0
 40
0.0180278
 41
0.0180278
  0
VERTEX
  8
0
 10
0.442437
 20
2.65744
 30
0.0
 40
0.0180278
 41
0.0180278
  0
VERTEX
  8
0
 10
0.348958
 20
2.75971
 30
0.0
 40
0.0180278
 41
0.0180278
  0
VERTEX
  8
0
 10
0.315972
 20
2.77126
 30
0.0
 40
0.0180278
 41
0.0180278
  0
VERTEX
  8
0
 10
0.282986
 20
2.76144
 30
0.0
 40
0.0180278
 41
0.0180278
  0
VERTEX
  8
0
 10
0.25
 20
2.73904
 30
0.0
 40
0.0180278
 41
0.0180278
  0
VERTEX
  8
0
 10
0.217068
 20
2.71272
 30
0.0
 40
0.0180278
 41
0.0180278
  0
VERTEX
  8
0
 10
0.19515
 20
2.75375
 30
0.0
 40
0.0180278
 41
0.0180278
  0
VERTEX
  8
0
 10
0.171713
 20
2.78097
 30
0.0
 40
0.0180278
 41
0.0180278
  0
VERTEX
  8
0
 10
0.147081
 20
2.79747
 30
0.0
 40
0.0180278
 41
0.0180278
  0
VERTEX
  8
0
 10
0.121636
 20
2.80647
 30
0.0
 40
0.0180278
 41
0.0180278
  0
VERTEX
  8
0
 10
0.0957031
 20
2.81104
 30
0.0
 40
0.0180278
 41
0.0180278
  0
VERTEX
  8
0
 10
0.0696072
 20
2.81424
 30
0.0
 40
0.0180278
 41
0.0180278
  0
VERTEX
  8
0
 10
0.0437283
 20
2.81928
 30
0.0
 40
0.0180278
 41
0.0180278
  0
VERTEX
  8
0
 10
0.0183919
 20
2.82921
 30
0.0
 40
0.0180278
 41
0.0180278
  0
VERTEX
  8
0
 10
0.147894
 20
2.90554
 30
0.0
 40
0.0180278
 41
0.0180278
  0
VERTEX
  8
0
 10
0.219781
 20
2.97721
 30
0.0
 40
0.0180278
 41
0.0180278
  0
VERTEX
  8
0
 10
0.196289
 20
3.01454
 30
0.0
 40
0.0180278
 41
0.0180278
  0
VERTEX
  8
0
 10
0.18929
 20
3.05761
 30
0.0
 40
0.0180278
 41
0.0180278
  0
VERTEX
  8
0
 10
0.183376
 20
3.10704
 30
0.0
 40
0.0180278
 41
0.0180278
  0
VERTEX
  8
0
 10
0.163303
 20
3.16314
 30
0.0
 40
0.0180278
 41
0.0180278
  0
VERTEX
  8
0
 10
0.167156
 20
3.27013
 30
0.0
 40
0.0180278
 41
0.0180278
  0
VERTEX
  8
0
 10
0.210721
 20
3.29872
 30
0.0
 40
0.0180278
 41
0.0180278
  0
VERTEX
  8
0
 10
0.26785
 20
3.31478
 30
0.0
 40
0.0180278
 41
0.0180278
  0
VERTEX
  8
0
 10
0.315701
 20
3.32428
 30
0.0
 40
0.0180278
 41
0.0180278
  0
VERTEX
  8
0
 10
0.358615
 20
3.32362
 30
0.0
 40
0.0180278
 41
0.0180278
  0
VERTEX
  8
0
 10
0.400771
 20
3.30903
 30
0.0
 40
0.0180278
 41
0.0180278
  0
VERTEX
  8
0
 10
0.446506
 20
3.27686
 30
0.0
 40
0.0180278
 41
0.0180278
  0
VERTEX
  8
0
 10
0.500108
 20
3.22342
 30
0.0
 40
0.0180278
 41
0.0180278
  0
VERTEX
  8
0
 10
0.565756
 20
3.14501
 30
0.0
 40
0.0180278
 41
0.0180278
  0
VERTEX
  8
0
 10
0.647894
 20
3.03788
 30
0.0
 40
0.0180278
 41
0.0180278
  0
VERTEX
  8
0
 10
0.669487
 20
2.88238
 30
0.0
 40
0.0180278
 41
0.0180278
  0
VERTEX
  8
0
 10
0.73725
 20
2.75444
 30
0.0
 40
0.0180278
 41
0.0180278
  0
VERTEX
  8
0
 10
0.824164
 20
2.64546
 30
0.0
 40
0.0180278
 41
0.0180278
  0
VERTEX
  8
0
 10
0.903429
 20
2.54682
 30
0.0
 40
0.0180278
 41
0.0180278
  0
VERTEX
  8
0
 10
0.972385
 20
2.37582
 30
0.0
 40
0.0180278
 41
0.0180278
  0
VERTEX
  8
0
 10
1.00418
 20
2.34076
 30
0.0
 40
0.0180278
 41
0.0180278
  0
VERTEX
  8
0
 10
1.04758
 20
2.31711
 30
0.0
 40
0.0180278
 41
0.0180278
  0
VERTEX
  8
0
 10
1.09098
 20
2.29758
 30
0.0
 40
0.0180278
 41
0.0180278
  0
VERTEX
  8
0
 10
1.12283
 20
2.27474
 30
0.0
 40
0.0180278
 41
0.0180278
  0
VERTEX
  8
0
 10
1.20475
 20
2.24582
 30
0.0
 40
0.0180278
 41
0.0180278
  0
VERTEX
  8
0
 10
1.29199
 20
2.22065
 30
0.0
 40
0.0180278
 41
0.0180278
  0
VERTEX
  8
0
 10
1.38346
 20
2.16976
 30
0.0
 40
0.0180278
 41
0.0180278
  0
VERTEX
  8
0
 10
1.47831
 20
2.06358
 30
0.0
 40
0.0180278
 41
0.0180278
  0
VERTEX
  8
0
 10
1.62076
 20
2.1441
 30
0.0
 40
0.0180278
 41
0.0180278
  0
VERTEX
  8
0
 10
1.77908
 20
2.15169
 30
0.0
 40
0.0180278
 41
0.0180278
  0
VERTEX
  8
0
 10
1.70139
 20
2.26693
 30
0.0
 40
0.0180278
 41
0.0180278
  0
VERTEX
  8
0
 10
1.66775
 20
2.40858
 30
0.0
 40
0.0180278
 41
0.0180278
  0
VERTEX
  8
0
 10
1.68115
 20
2.48514
 30
0.0
 40
0.0180278
 41
0.0180278
  0
VERTEX
  8
0
 10
1.70161
 20
2.55453
 30
0.0
 40
0.0180278
 41
0.0180278
  0
VERTEX
  8
0
 10
1.73296
 20
2.61307
 30
0.0
 40
0.0180278
 41
0.0180278
  0
VERTEX
  8
0
 10
1.77908
 20
2.6569
 30
0.0
 40
0.0180278
 41
0.0180278
  0
VERTEX
  8
0
 10
1.95036
 20
2.78537
 30
0.0
 40
0.0180278
 41
0.0180278
  0
VERTEX
  8
0
 10
1.90756
 20
2.52849
 30
0.0
 40
0.0180278
 41
0.0180278
  0
VERTEX
  8
0
 10
1.99832
 20
2.66
 30
0.0
 40
0.0180278
 41
0.0180278
  0
VERTEX
  8
0
 10
2.11708
 20
2.78537
 30
0.0
 40
0.0180278
 41
0.0180278
  0
VERTEX
  8
0
 10
2.0759
 20
2.59674
 30
0.0
 40
0.0180278
 41
0.0180278
  0
VERTEX
  8
0
 10
2.03597
 20
2.43972
 30
0.0
 40
0.0180278
 41
0.0180278
  0
VERTEX
  8
0
 10
2.24485
 20
2.71685
 30
0.0
 40
0.0180278
 41
0.0180278
  0
VERTEX
  8
0
 10
2.23981
 20
2.51574
 30
0.0
 40
0.0180278
 41
0.0180278
  0
VERTEX
  8
0
 10
2.37261
 20
2.34006
 30
0.0
 40
0.0180278
 41
0.0180278
  0
VERTEX
  8
0
 10
2.38861
 20
2.2596
 30
0.0
 40
0.0180278
 41
0.0180278
  0
VERTEX
  8
0
 10
2.41644
 20
2.19906
 30
0.0
 40
0.0180278
 41
0.0180278
  0
VERTEX
  8
0
 10
2.45426
 20
2.15554
 30
0.0
 40
0.0180278
 41
0.0180278
  0
VERTEX
  8
0
 10
2.50037
 20
2.12597
 30
0.0
 40
0.0180278
 41
0.0180278
  0
VERTEX
  8
0
 10
2.55838
 20
2.02322
 30
0.0
 40
0.0180278
 41
0.0180278
  0
VERTEX
  8
0
 10
2.49289
 20
1.91515
 30
0.0
 40
0.0180278
 41
0.0180278
  0
VERTEX
  8
0
 10
2.48128
 20
1.80094
 30
0.0
 40
0.0180278
 41
0.0180278
  0
VERTEX
  8
0
 10
2.47271
 20
1.67318
 30
0.0
 40
0.0180278
 41
0.0180278
  0
VERTEX
  8
0
 10
2.51899
 20
1.63803
 30
0.0
 40
0.0180278
 41
0.0180278
  0
VERTEX
  8
0
 10
2.55903
 20
1.58724
 30
0.0
 40
0.0180278
 41
0.0180278
  0
VERTEX
  8
0
 10
2.59478
 20
1.52567
 30
0.0
 40
0.0180278
 41
0.0180278
  0
VERTEX
  8
0
 10
2.62815
 20
1.45801
 30
0.0
 40
0.0180278
 41
0.0180278
  0
VERTEX
  8
0
 10
2.59261
 20
1.31245
 30
0.0
 40
0.0180278
 41
0.0180278
  0
VERTEX
  8
0
 10
2.47271
 20
1.26964
 30
0.0
 40
0.0180278
 41
0.0180278
  0
VERTEX
  8
0
 10
2.3871
 20
1.14117
 30
0.0
 40
0.0180278
 41
0.0180278
  0
VERTEX
  8
0
 10
2.38596
 20
1.08767
 30
0.0
 40
0.0180278
 41
0.0180278
  0
VERTEX
  8
0
 10
2.39908
 20
1.03819
 30
0.0
 40
0.0180278
 41
0.0180278
  0
VERTEX
  8
0
 10
2.42757
 20
0.99311
 30
0.0
 40
0.0180278
 41
0.0180278
  0
VERTEX
  8
0
 10
2.47271
 20
0.952746
 30
0.0
 40
0.0180278
 41
0.0180278
  0
VERTEX
  8
0
 10
2.59261
 20
0.807183
 30
0.0
 40
0.0180278
 41
0.0180278
  0
VERTEX
  8
0
 10
2.65256
 20
0.678711
 30
0.0
 40
0.0180278
 41
0.0180278
  0
VERTEX
  8
0
 10
2.72108
 20
0.421821
 30
0.0
 40
0.0180278
 41
0.0180278
  0
VERTEX
  8
0
 10
2.75586
 20
0.298014
 30
0.0
 40
0.0180278
 41
0.0180278
  0
VERTEX
  8
0
 10
2.76258
 20
0.333333
 30
0.0
 40
0.0180278
 41
0.0180278
  0
VERTEX
  8
0
 10
2.77078
 20
0.358507
 30
0.0
 40
0.0180278
 41
0.0180278
  0
VERTEX
  8
0
 10
2.78006
 20
0.375706
 30
0.0
 40
0.0180278
 41
0.0180278
  0
VERTEX
  8
0
 10
2.79021
 20
0.387261
 30
0.0
 40
0.0180278
 41
0.0180278
  0
VERTEX
  8
0
 10
2.80083
 20
0.3954
 30
0.0
 40
0.0180278
 41
0.0180278
  0
VERTEX
  8
0
 10
2.81158
 20
0.402399
 30
0.0
 40
0.0180278
 41
0.0180278
  0
VERTEX
  8
0
 10
2.82221
 20
0.410428
 30
0.0
 40
0.0180278
 41
0.0180278
  0
VERTEX
  8
0
 10
2.83242
 20
0.421821
 30
0.0
 40
0.0180278
 41
0.0180278
  0
VERTEX
  8
0
 10
2.9221
 20
0.435113
 30
0.0
 40
0.0180278
 41
0.0180278
  0
VERTEX
  8
0
 10
2.99983
 20
0.415582
 30
0.0
 40
0.0180278
 41
0.0180278
  0
VERTEX
  8
0
 10
3.06392
 20
0.386882
 30
0.0
 40
0.0180278
 41
0.0180278
  0
VERTEX
  8
0
 10
3.11257
 20
0.372613
 30
0.0
 40
0.0180278
 41
0.0180278
  0
VERTEX
  8
0
 10
3.09435
 20
0.36556
 30
0.0
 40
0.0180278
 41
0.0180278
  0
VERTEX
  8
0
 10
3.06993
 20
0.363172
 30
0.0
 40
0.0180278
 41
0.0180278
  0
VERTEX
  8
0
 10
3.04172
 20
0.363499
 30
0.0
 40
0.0180278
 41
0.0180278
  0
VERTEX
  8
0
 10
3.01215
 20
0.364692
 30
0.0
 40
0.0180278
 41
0.0180278
  0
VERTEX
  8
0
 10
2.98356
 20
0.364963
 30
0.0
 40
0.0180278
 41
0.0180278
  0
VERTEX
  8
0
 10
2.95833
 20
0.362304
 30
0.0
 40
0.0180278
 41
0.0180278
  0
VERTEX
  8
0
 10
2.93892
 20
0.354872
 30
0.0
 40
0.0180278
 41
0.0180278
  0
VERTEX
  8
0
 10
2.92768
 20
0.340821
 30
0.0
 40
0.0180278
 41
0.0180278
  0
VERTEX
  8
0
 10
2.91812
 20
0.333117
 30
0.0
 40
0.0180278
 41
0.0180278
  0
VERTEX
  8
0
 10
2.89675
 20
0.326335
 30
0.0
 40
0.0180278
 41
0.0180278
  0
VERTEX
  8
0
 10
2.87131
 20
0.31939
 30
0.0
 40
0.0180278
 41
0.0180278
  0
VERTEX
  8
0
 10
2.8495
 20
0.311089
 30
0.0
 40
0.0180278
 41
0.0180278
  0
VERTEX
  8
0
 10
2.83892
 20
0.300347
 30
0.0
 40
0.0180278
 41
0.0180278
  0
VERTEX
  8
0
 10
2.84744
 20
0.286025
 30
0.0
 40
0.0180278
 41
0.0180278
  0
VERTEX
  8
0
 10
2.88265
 20
0.266982
 30
0.0
 40
0.0180278
 41
0.0180278
  0
VERTEX
  8
0
 10
2.95231
 20
0.241971
 30
0.0
 40
0.0180278
 41
0.0180278
  0
VERTEX
  8
0
 10
3.08931
 20
0.224881
 30
0.0
 40
0.0180278
 41
0.0180278
  0
VERTEX
  8
0
 10
3.17497
 20
0.224881
 30
0.0
 40
0.0180278
 41
0.0180278
  0
VERTEX
  8
0
 10
3.15853
 20
0.214681
 30
0.0
 40
0.0180278
 41
0.0180278
  0
VERTEX
  8
0
 10
3.14751
 20
0.204969
 30
0.0
 40
0.0180278
 41
0.0180278
  0
VERTEX
  8
0
 10
3.13857
 20
0.195475
 30
0.0
 40
0.0180278
 41
0.0180278
  0
VERTEX
  8
0
 10
3.12847
 20
0.185872
 30
0.0
 40
0.0180278
 41
0.0180278
  0
VERTEX
  8
0
 10
3.11393
 20
0.175836
 30
0.0
 40
0.0180278
 41
0.0180278
  0
VERTEX
  8
0
 10
3.09174
 20
0.165093
 30
0.0
 40
0.0180278
 41
0.0180278
  0
VERTEX
  8
0
 10
3.05865
 20
0.153267
 30
0.0
 40
0.0180278
 41
0.0180278
  0
VERTEX
  8
0
 10
3.01139
 20
0.140082
 30
0.0
 40
0.0180278
 41
0.0180278
  0
VERTEX
  8
0
 10
2.90093
 20
0.156358
 30
0.0
 40
0.0180278
 41
0.0180278
  0
VERTEX
  8
0
 10
2.90625
 20
0.134983
 30
0.0
 40
0.0180278
 41
0.0180278
  0
VERTEX
  8
0
 10
2.91482
 20
0.113553
 30
0.0
 40
0.0180278
 41
0.0180278
  0
VERTEX
  8
0
 10
2.94
 20
0.0921224
 30
0.0
 40
0.0180278
 41
0.0180278
  0
VERTEX
  8
0
 10
2.99511
 20
0.0706922
 30
0.0
 40
0.0180278
 41
0.0180278
  0
VERTEX
  8
0
 10
3.12358
 20
0.0536025
 30
0.0
 40
0.0180278
 41
0.0180278
  0
VERTEX
  8
0
 10
2.95231
 20
0.0123698
 30
0.0
 40
0.0180278
 41
0.0180278
  0
VERTEX
  8
0
 10
2.87543
 20
0.0520833
 30
0.0
 40
0.0180278
 41
0.0180278
  0
VERTEX
  8
0
 10
2.78407
 20
0.0920139
 30
0.0
 40
0.0180278
 41
0.0180278
  0
VERTEX
  8
0
 10
2.69353
 20
0.14719
 30
0.0
 40
0.0180278
 41
0.0180278
  0
VERTEX
  8
0
 10
2.61931
 20
0.232693
 30
0.0
 40
0.0180278
 41
0.0180278
  0
VERTEX
  8
0
 10
2.61426
 20
0.300401
 30
0.0
 40
0.0180278
 41
0.0180278
  0
VERTEX
  8
0
 10
2.58182
 20
0.381131
 30
0.0
 40
0.0180278
 41
0.0180278
  0
VERTEX
  8
0
 10
2.53842
 20
0.464031
 30
0.0
 40
0.0180278
 41
0.0180278
  0
VERTEX
  8
0
 10
2.50037
 20
0.538303
 30
0.0
 40
0.0180278
 41
0.0180278
  0
VERTEX
  8
0
 10
2.38906
 20
0.594781
 30
0.0
 40
0.0180278
 41
0.0180278
  0
VERTEX
  8
0
 10
2.33686
 20
0.611708
 30
0.0
 40
0.0180278
 41
0.0180278
  0
VERTEX
  8
0
 10
2.28717
 20
0.638129
 30
0.0
 40
0.0180278
 41
0.0180278
  0
VERTEX
  8
0
 10
2.24561
 20
0.676758
 30
0.0
 40
0.0180278
 41
0.0180278
  0
VERTEX
  8
0
 10
2.21799
 20
0.730414
 30
0.0
 40
0.0180278
 41
0.0180278
  0
VERTEX
  8
0
 10
2.20036
 20
0.731879
 30
0.0
 40
0.0180278
 41
0.0180278
  0
VERTEX
  8
0
 10
2.1856
 20
0.739854
 30
0.0
 40
0.0180278
 41
0.0180278
  0
VERTEX
  8
0
 10
2.17264
 20
0.751085
 30
0.0
 40
0.0180278
 41
0.0180278
  0
VERTEX
  8
0
 10
2.16058
 20
0.762153
 30
0.0
 40
0.0180278
 41
0.0180278
  0
VERTEX
  8
0
 10
2.1486
 20
0.769857
 30
0.0
 40
0.0180278
 41
0.0180278
  0
VERTEX
  8
0
 10
2.13564
 20
0.770779
 30
0.0
 40
0.0180278
 41
0.0180278
  0
VERTEX
  8
0
 10
2.12082
 20
0.761664
 30
0.0
 40
0.0180278
 41
0.0180278
  0
VERTEX
  8
0
 10
2.10325
 20
0.73915
 30
0.0
 40
0.0180278
 41
0.0180278
  0
VERTEX
  8
0
 10
2.02669
 20
0.693414
 30
0.0
 40
0.0180278
 41
0.0180278
  0
VERTEX
  8
0
 10
1.98867
 20
0.719781
 30
0.0
 40
0.0180278
 41
0.0180278
  0
VERTEX
  8
0
 10
1.96104
 20
0.733236
 30
0.0
 40
0.0180278
 41
0.0180278
  0
VERTEX
  8
0
 10
1.94162
 20
0.736382
 30
0.0
 40
0.0180278
 41
0.0180278
  0
VERTEX
  8
0
 10
1.92828
 20
0.731933
 30
0.0
 40
0.0180278
 41
0.0180278
  0
VERTEX
  8
0
 10
1.91894
 20
0.722439
 30
0.0
 40
0.0180278
 41
0.0180278
  0
VERTEX
  8
0
 10
1.91151
 20
0.710613
 30
0.0
 40
0.0180278
 41
0.0180278
  0
VERTEX
  8
0
 10
1.90386
 20
0.69911
 30
0.0
 40
0.0180278
 41
0.0180278
  0
VERTEX
  8
0
 10
1.89382
 20
0.690483
 30
0.0
 40
0.0180278
 41
0.0180278
  0
VERTEX
  8
0
 10
1.87972
 20
0.70676
 30
0.0
 40
0.0180278
 41
0.0180278
  0
VERTEX
  8
0
 10
1.87239
 20
0.722114
 30
0.0
 40
0.0180278
 41
0.0180278
  0
VERTEX
  8
0
 10
1.86757
 20
0.734754
 30
0.0
 40
0.0180278
 41
0.0180278
  0
VERTEX
  8
0
 10
1.86111
 20
0.743001
 30
0.0
 40
0.0180278
 41
0.0180278
  0
VERTEX
  8
0
 10
1.84868
 20
0.744954
 30
0.0
 40
0.0180278
 41
0.0180278
  0
VERTEX
  8
0
 10
1.82611
 20
0.738986
 30
0.0
 40
0.0180278
 41
0.0180278
  0
VERTEX
  8
0
 10
1.78928
 20
0.723199
 30
0.0
 40
0.0180278
 41
0.0180278
  0
VERTEX
  8
0
 10
1.73383
 20
0.695856
 30
0.0
 40
0.0180278
 41
0.0180278
  0
VERTEX
  8
0
 10
1.71647
 20
0.687825
 30
0.0
 40
0.0180278
 41
0.0180278
  0
VERTEX
  8
0
 10
1.69982
 20
0.677626
 30
0.0
 40
0.0180278
 41
0.0180278
  0
VERTEX
  8
0
 10
1.68321
 20
0.667426
 30
0.0
 40
0.0180278
 41
0.0180278
  0
VERTEX
  8
0
 10
1.66581
 20
0.65956
 30
0.0
 40
0.0180278
 41
0.0180278
  0
VERTEX
  8
0
 10
1.64686
 20
0.65625
 30
0.0
 40
0.0180278
 41
0.0180278
  0
VERTEX
  8
0
 10
1.62565
 20
0.659668
 30
0.0
 40
0.0180278
 41
0.0180278
  0
VERTEX
  8
0
 10
1.60151
 20
0.672146
 30
0.0
 40
0.0180278
 41
0.0180278
  0
VERTEX
  8
0
 10
1.57357
 20
0.695856
 30
0.0
 40
0.0180278
 41
0.0180278
  0
VERTEX
  8
0
 10
1.53532
 20
0.624132
 30
0.0
 40
0.0180278
 41
0.0180278
  0
VERTEX
  8
0
 10
1.49192
 20
0.567871
 30
0.0
 40
0.0180278
 41
0.0180278
  0
VERTEX
  8
0
 10
1.44412
 20
0.524794
 30
0.0
 40
0.0180278
 41
0.0180278
  0
VERTEX
  8
0
 10
1.39274
 20
0.492512
 30
0.0
 40
0.0180278
 41
0.0180278
  0
VERTEX
  8
0
 10
1.33284
 20
0.43674
 30
0.0
 40
0.0180278
 41
0.0180278
  0
VERTEX
  8
0
 10
1.30414
 20
0.375597
 30
0.0
 40
0.0180278
 41
0.0180278
  0
VERTEX
  8
0
 10
1.27024
 20
0.316786
 30
0.0
 40
0.0180278
 41
0.0180278
  0
VERTEX
  8
0
 10
1.19482
 20
0.26785
 30
0.0
 40
0.0180278
 41
0.0180278
  0
VERTEX
  8
0
 10
1.05979
 20
0.227051
 30
0.0
 40
0.0180278
 41
0.0180278
  0
VERTEX
  8
0
 10
0.98649
 20
0.218153
 30
0.0
 40
0.0180278
 41
0.0180278
  0
VERTEX
  8
0
 10
0.912706
 20
0.224881
 30
0.0
 40
0.0180278
 41
0.0180278
  0
VERTEX
  8
0
 10
0.839518
 20
0.130642
 30
0.0
 40
0.0180278
 41
0.0180278
  0
VERTEX
  8
0
 10
0.862793
 20
0.0364583
 30
0.0
 40
0.0180278
 41
0.0180278
  0
VERTEX
  8
0
 10
0.711806
 20
0.0123698
 30
0.0
 40
0.0180278
 41
0.0180278
  0
VERTEX
  8
0
 10
0.775662
 20
0.101291
 30
0.0
 40
0.0180278
 41
0.0180278
  0
VERTEX
  8
0
 10
0.739692
 20
0.187175
 30
0.0
 40
0.0180278
 41
0.0180278
  0
VERTEX
  8
0
 10
0.631293
 20
0.176867
 30
0.0
 40
0.0180278
 41
0.0180278
  0
VERTEX
  8
0
 10
0.409397
 20
0.0278863
 30
0.0
 40
0.0180278
 41
0.0180278
  0
SEQEND
 8
0
  0
ENDSEC
  0
EOF
