999
dxflib 2.2.0.0
  0
SECTION
  2
HEADER
  9
$ACADVER
  1
AC1015
  9
$HANDSEED
  5
FFFF
  9
$DIMASZ
 40
2.5
  9
$FILLMODE
 70
0
  9
$PLIMMIN
 10
0.0
 20
0.0
  9
$DIMEXE
 40
1.25
  9
$DIMGAP
 40
0.625
  9
$PLIMMAX
 10
210.0
 20
297.0
  9
$EXTMIN
 10
0.0
 20
0.0
 30
0.0
  9
$EXTMAX
 10
1000.0
 20
1000.0
 30
0.0
  9
$SPLFRAME
 70
1
  9
$INSUNITS
 70
4
  9
$DIMSTYLE
  2
Standard
  9
$DIMEXO
 40
0.625
  9
$DIMTXT
 40
2.5
  9
$CLAYER
  8
0
  0
ENDSEC
  0
SECTION
  2
TABLES
  0
TABLE
  2
VPORT
  5
8
100
AcDbSymbolTable
 70
1
  0
VPORT
  5
30
100
AcDbSymbolTableRecord
100
AcDbViewportTableRecord
  2
*Active
 70
0
 10
0.0
 20
0.0
 11
1.0
 21
1.0
 12
286.3055555555554861
 22
148.5
 13
0.0
 23
0.0
 14
10.0
 24
10.0
 15
10.0
 25
10.0
 16
0.0
 26
0.0
 36
1.0
 17
0.0
 27
0.0
 37
0.0
 40
297.0
 41
1.92798353909465
 42
50.0
 43
0.0
 44
0.0
 50
0.0
 51
0.0
 71
0
 72
100
 73
1
 74
3
 75
1
 76
1
 77
0
 78
0
281
0
 65
1
110
0.0
120
0.0
130
0.0
111
1.0
121
0.0
131
0.0
112
0.0
122
1.0
132
0.0
 79
0
146
0.0
  0
ENDTAB
  0
TABLE
  2
LTYPE
  5
5
100
AcDbSymbolTable
 70
21
  0
LTYPE
  5
14
100
AcDbSymbolTableRecord
100
AcDbLinetypeTableRecord
  2
ByBlock
 70
0
  3

 72
65
 73
0
 40
0.0
  0
LTYPE
  5
15
100
AcDbSymbolTableRecord
100
AcDbLinetypeTableRecord
  2
ByLayer
 70
0
  3

 72
65
 73
0
 40
0.0
  0
LTYPE
  5
16
100
AcDbSymbolTableRecord
100
AcDbLinetypeTableRecord
  2
CONTINUOUS
 70
0
  3
Solid line
 72
65
 73
0
 40
0.0
  0
LTYPE
  5
31
100
AcDbSymbolTableRecord
100
AcDbLinetypeTableRecord
  2
DOT
 70
0
  3
Dot . . . . . . . . . . . . . . . . . . . . . .
 72
65
 73
2
 40
6.3499999999999996
 49
0.0
 74
0
 49
-6.3499999999999996
 74
0
  0
LTYPE
  5
32
100
AcDbSymbolTableRecord
100
AcDbLinetypeTableRecord
  2
DOT2
 70
0
  3
Dot (.5x) .....................................
 72
65
 73
2
 40
3.1749999999999998
 49
0.0
 74
0
 49
-3.1749999999999998
 74
0
  0
LTYPE
  5
33
100
AcDbSymbolTableRecord
100
AcDbLinetypeTableRecord
  2
DOTX2
 70
0
  3
Dot (2x) .  .  .  .  .  .  .  .  .  .  .  .  .
 72
65
 73
2
 40
12.6999999999999993
 49
0.0
 74
0
 49
-12.6999999999999993
 74
0
  0
LTYPE
  5
34
100
AcDbSymbolTableRecord
100
AcDbLinetypeTableRecord
  2
DASHED
 70
0
  3
Dashed __ __ __ __ __ __ __ __ __ __ __ __ __ _
 72
65
 73
2
 40
19.0500000000000007
 49
12.6999999999999993
 74
0
 49
-6.3499999999999996
 74
0
  0
LTYPE
  5
35
100
AcDbSymbolTableRecord
100
AcDbLinetypeTableRecord
  2
DASHED2
 70
0
  3
Dashed (.5x) _ _ _ _ _ _ _ _ _ _ _ _ _ _ _ _ _
 72
65
 73
2
 40
9.5250000000000004
 49
6.3499999999999996
 74
0
 49
-3.1749999999999998
 74
0
  0
LTYPE
  5
36
100
AcDbSymbolTableRecord
100
AcDbLinetypeTableRecord
  2
DASHEDX2
 70
0
  3
Dashed (2x) ____  ____  ____  ____  ____  ___
 72
65
 73
2
 40
38.1000000000000014
 49
25.3999999999999986
 74
0
 49
-12.6999999999999993
 74
0
  0
LTYPE
  5
37
100
AcDbSymbolTableRecord
100
AcDbLinetypeTableRecord
  2
DASHDOT
 70
0
  3
Dash dot __ . __ . __ . __ . __ . __ . __ . __
 72
65
 73
4
 40
25.3999999999999986
 49
12.6999999999999993
 74
0
 49
-6.3499999999999996
 74
0
 49
0.0
 74
0
 49
-6.3499999999999996
 74
0
  0
LTYPE
  5
38
100
AcDbSymbolTableRecord
100
AcDbLinetypeTableRecord
  2
DASHDOT2
 70
0
  3
Dash dot (.5x) _._._._._._._._._._._._._._._.
 72
65
 73
4
 40
12.6999999999999993
 49
6.3499999999999996
 74
0
 49
-3.1749999999999998
 74
0
 49
0.0
 74
0
 49
-3.1749999999999998
 74
0
  0
LTYPE
  5
39
100
AcDbSymbolTableRecord
100
AcDbLinetypeTableRecord
  2
DASHDOTX2
 70
0
  3
Dash dot (2x) ____  .  ____  .  ____  .  ___
 72
65
 73
4
 40
50.7999999999999972
 49
25.3999999999999986
 74
0
 49
-12.6999999999999993
 74
0
 49
0.0
 74
0
 49
-12.6999999999999993
 74
0
  0
LTYPE
  5
3A
100
AcDbSymbolTableRecord
100
AcDbLinetypeTableRecord
  2
DIVIDE
 70
0
  3
Divide ____ . . ____ . . ____ . . ____ . . ____
 72
65
 73
6
 40
31.75
 49
12.6999999999999993
 74
0
 49
-6.3499999999999996
 74
0
 49
0.0
 74
0
 49
-6.3499999999999996
 74
0
 49
0.0
 74
0
 49
-6.3499999999999996
 74
0
  0
LTYPE
  5
3B
100
AcDbSymbolTableRecord
100
AcDbLinetypeTableRecord
  2
DIVIDE2
 70
0
  3
Divide (.5x) __..__..__..__..__..__..__..__.._
 72
65
 73
6
 40
15.875
 49
6.3499999999999996
 74
0
 49
-3.1749999999999998
 74
0
 49
0.0
 74
0
 49
-3.1749999999999998
 74
0
 49
0.0
 74
0
 49
-3.1749999999999998
 74
0
  0
LTYPE
  5
3C
100
AcDbSymbolTableRecord
100
AcDbLinetypeTableRecord
  2
DIVIDEX2
 70
0
  3
Divide (2x) ________  .  .  ________  .  .  _
 72
65
 73
6
 40
63.5
 49
25.3999999999999986
 74
0
 49
-12.6999999999999993
 74
0
 49
0.0
 74
0
 49
-12.6999999999999993
 74
0
 49
0.0
 74
0
 49
-12.6999999999999993
 74
0
  0
LTYPE
  5
3D
100
AcDbSymbolTableRecord
100
AcDbLinetypeTableRecord
  2
CENTER
 70
0
  3
Center ____ _ ____ _ ____ _ ____ _ ____ _ ____
 72
65
 73
4
 40
50.7999999999999972
 49
31.75
 74
0
 49
-6.3499999999999996
 74
0
 49
6.3499999999999996
 74
0
 49
-6.3499999999999996
 74
0
  0
LTYPE
  5
3E
100
AcDbSymbolTableRecord
100
AcDbLinetypeTableRecord
  2
CENTER2
 70
0
  3
Center (.5x) ___ _ ___ _ ___ _ ___ _ ___ _ ___
 72
65
 73
4
 40
28.5749999999999993
 49
19.0500000000000007
 74
0
 49
-3.1749999999999998
 74
0
 49
3.1749999999999998
 74
0
 49
-3.1749999999999998
 74
0
  0
LTYPE
  5
3F
100
AcDbSymbolTableRecord
100
AcDbLinetypeTableRecord
  2
CENTERX2
 70
0
  3
Center (2x) ________  __  ________  __  _____
 72
65
 73
4
 40
101.5999999999999943
 49
63.5
 74
0
 49
-12.6999999999999993
 74
0
 49
12.6999999999999993
 74
0
 49
-12.6999999999999993
 74
0
  0
LTYPE
  5
40
100
AcDbSymbolTableRecord
100
AcDbLinetypeTableRecord
  2
BORDER
 70
0
  3
Border __ __ . __ __ . __ __ . __ __ . __ __ .
 72
65
 73
6
 40
44.4500000000000028
 49
12.6999999999999993
 74
0
 49
-6.3499999999999996
 74
0
 49
12.6999999999999993
 74
0
 49
-6.3499999999999996
 74
0
 49
0.0
 74
0
 49
-6.3499999999999996
 74
0
  0
LTYPE
  5
41
100
AcDbSymbolTableRecord
100
AcDbLinetypeTableRecord
  2
BORDER2
 70
0
  3
Border (.5x) __.__.__.__.__.__.__.__.__.__.__.
 72
65
 73
6
 40
22.2250000000000014
 49
6.3499999999999996
 74
0
 49
-3.1749999999999998
 74
0
 49
6.3499999999999996
 74
0
 49
-3.1749999999999998
 74
0
 49
0.0
 74
0
 49
-3.1749999999999998
 74
0
  0
LTYPE
  5
42
100
AcDbSymbolTableRecord
100
AcDbLinetypeTableRecord
  2
BORDERX2
 70
0
  3
Border (2x) ____  ____  .  ____  ____  .  ___
 72
65
 73
6
 40
88.9000000000000057
 49
25.3999999999999986
 74
0
 49
-12.6999999999999993
 74
0
 49
25.3999999999999986
 74
0
 49
-12.6999999999999993
 74
0
 49
0.0
 74
0
 49
-12.6999999999999993
 74
0
  0
ENDTAB
  0
TABLE
  2
LAYER
  5
2
100
AcDbSymbolTable
 70
1
  0
LAYER
  5
10
100
AcDbSymbolTableRecord
100
AcDbLayerTableRecord
  2
0
 70
0
 62
7
420
16777215
  6
CONTINUOUS
390
F
  0
ENDTAB
  0
TABLE
  2
STYLE
  5
3
100
AcDbSymbolTable
 70
1
  0
STYLE
  5
11
100
AcDbSymbolTableRecord
100
AcDbTextStyleTableRecord
  2
Standard
 70
0
 40
0.0
 41
0.75
 50
0.0
 71
0
 42
2.5
  3
txt
  4

  0
ENDTAB
  0
TABLE
  2
VIEW
  5
6
100
AcDbSymbolTable
 70
0
  0
ENDTAB
  0
TABLE
  2
UCS
  5
7
100
AcDbSymbolTable
 70
0
  0
ENDTAB
  0
TABLE
  2
APPID
  5
9
100
AcDbSymbolTable
 70
1
  0
APPID
  5
12
100
AcDbSymbolTableRecord
100
AcDbRegAppTableRecord
  2
ACAD
 70
0
  0
ENDTAB
  0
TABLE
  2
DIMSTYLE
  5
A
100
AcDbSymbolTable
 70
1
100
AcDbDimStyleTable
 71
0
  0
DIMSTYLE
105
27
100
AcDbSymbolTableRecord
100
AcDbDimStyleTableRecord
  2
Standard
 41
2.5
 42
0.625
 43
3.75
 44
1.25
 70
0
 73
0
 74
0
 77
1
 78
8
140
2.5
141
2.5
143
0.03937007874016
147
0.625
171
3
172
1
271
2
272
2
274
3
278
44
283
0
284
8
340
11
  0
ENDTAB
  0
TABLE
  2
BLOCK_RECORD
  5
1
100
AcDbSymbolTable
 70
1
  0
BLOCK_RECORD
  5
1F
100
AcDbSymbolTableRecord
100
AcDbBlockTableRecord
  2
*Model_Space
340
22
  0
BLOCK_RECORD
  5
1B
100
AcDbSymbolTableRecord
100
AcDbBlockTableRecord
  2
*Paper_Space
340
1E
  0
BLOCK_RECORD
  5
23
100
AcDbSymbolTableRecord
100
AcDbBlockTableRecord
  2
*Paper_Space0
340
26
  0
ENDTAB
  0
ENDSEC
  0
SECTION
  2
BLOCKS
  0
BLOCK
  5
20
100
AcDbEntity
  8
0
100
AcDbBlockBegin
  2
*Model_Space
 70
0
 10
0.0
 20
0.0
 30
0.0
  3
*Model_Space
  1

  0
ENDBLK
  5
21
100
AcDbEntity
  8
0
100
AcDbBlockEnd
  0
BLOCK
  5
1C
100
AcDbEntity
 67
1
  8
0
100
AcDbBlockBegin
  2
*Paper_Space
 70
0
 10
0.0
 20
0.0
 30
0.0
  3
*Paper_Space
  1

  0
ENDBLK
  5
1D
100
AcDbEntity
 67
1
  8
0
100
AcDbBlockEnd
  0
BLOCK
  5
24
100
AcDbEntity
  8
0
100
AcDbBlockBegin
  2
*Paper_Space0
 70
0
 10
0.0
 20
0.0
 30
0.0
  3
*Paper_Space0
  1

  0
ENDBLK
  5
25
100
AcDbEntity
  8
0
100
AcDbBlockEnd
  0
ENDSEC
  0
SECTION
  2
ENTITIES
  0
LINE
  5
43
100
AcDbEntity
100
AcDbLine
  8
0
 62
0
370
-1
  6
ByLayer
 10
0.409397
 20
0.0278863
 30
0.0
 11
0.450304
 21
0.116536
 31
0.0
  0
LINE
  5
44
100
AcDbEntity
100
AcDbLine
  8
0
 62
0
370
-1
  6
ByLayer
 10
0.450304
 20
0.116536
 30
0.0
 11
0.5036350000000001
 21
0.181694
 31
0.0
  0
LINE
  5
45
100
AcDbEntity
100
AcDbLine
  8
0
 62
0
370
-1
  6
ByLayer
 10
0.5036350000000001
 20
0.181694
 30
0.0
 11
0.5638570000000001
 21
0.227051
 31
0.0
  0
LINE
  5
46
100
AcDbEntity
100
AcDbLine
  8
0
 62
0
370
-1
  6
ByLayer
 10
0.5638570000000001
 20
0.227051
 30
0.0
 11
0.625433
 21
0.256076
 31
0.0
  0
LINE
  5
47
100
AcDbEntity
100
AcDbLine
  8
0
 62
0
370
-1
  6
ByLayer
 10
0.625433
 20
0.256076
 30
0.0
 11
0.682889
 21
0.272461
 31
0.0
  0
LINE
  5
48
100
AcDbEntity
100
AcDbLine
  8
0
 62
0
370
-1
  6
ByLayer
 10
0.682889
 20
0.272461
 30
0.0
 11
0.7307399999999999
 21
0.279676
 31
0.0
  0
LINE
  5
49
100
AcDbEntity
100
AcDbLine
  8
0
 62
0
370
-1
  6
ByLayer
 10
0.7307399999999999
 20
0.279676
 30
0.0
 11
0.76351
 21
0.281412
 31
0.0
  0
LINE
  5
4A
100
AcDbEntity
100
AcDbLine
  8
0
 62
0
370
-1
  6
ByLayer
 10
0.76351
 20
0.281412
 30
0.0
 11
0.775662
 21
0.281142
 31
0.0
  0
LINE
  5
4B
100
AcDbEntity
100
AcDbLine
  8
0
 62
0
370
-1
  6
ByLayer
 10
0.775662
 20
0.281142
 30
0.0
 11
0.956218
 21
0.395617
 31
0.0
  0
LINE
  5
4C
100
AcDbEntity
100
AcDbLine
  8
0
 62
0
370
-1
  6
ByLayer
 10
0.956218
 20
0.395617
 30
0.0
 11
0.931261
 21
0.533149
 31
0.0
  0
LINE
  5
4D
100
AcDbEntity
100
AcDbLine
  8
0
 62
0
370
-1
  6
ByLayer
 10
0.931261
 20
0.533149
 30
0.0
 11
0.906087
 21
0.604546
 31
0.0
  0
LINE
  5
4E
100
AcDbEntity
100
AcDbLine
  8
0
 62
0
370
-1
  6
ByLayer
 10
0.906087
 20
0.604546
 30
0.0
 11
0.896104
 21
0.682617
 31
0.0
  0
LINE
  5
4F
100
AcDbEntity
100
AcDbLine
  8
0
 62
0
370
-1
  6
ByLayer
 10
0.896104
 20
0.682617
 30
0.0
 11
0.905817
 21
0.769476
 31
0.0
  0
LINE
  5
50
100
AcDbEntity
100
AcDbLine
  8
0
 62
0
370
-1
  6
ByLayer
 10
0.905817
 20
0.769476
 30
0.0
 11
0.939833
 21
0.867133
 31
0.0
  0
LINE
  5
51
100
AcDbEntity
100
AcDbLine
  8
0
 62
0
370
-1
  6
ByLayer
 10
0.939833
 20
0.867133
 30
0.0
 11
0.931261
 21
1.0041199999999999
 31
0.0
  0
LINE
  5
52
100
AcDbEntity
100
AcDbLine
  8
0
 62
0
370
-1
  6
ByLayer
 10
0.931261
 20
1.0041199999999999
 30
0.0
 11
0.8919280000000001
 21
0.9762380000000001
 31
0.0
  0
LINE
  5
53
100
AcDbEntity
100
AcDbLine
  8
0
 62
0
370
-1
  6
ByLayer
 10
0.8919280000000001
 20
0.9762380000000001
 30
0.0
 11
0.858128
 21
0.971625
 31
0.0
  0
LINE
  5
54
100
AcDbEntity
100
AcDbLine
  8
0
 62
0
370
-1
  6
ByLayer
 10
0.858128
 20
0.971625
 30
0.0
 11
0.826606
 21
0.9768869999999999
 31
0.0
  0
LINE
  5
55
100
AcDbEntity
100
AcDbLine
  8
0
 62
0
370
-1
  6
ByLayer
 10
0.826606
 20
0.9768869999999999
 30
0.0
 11
0.7942709999999999
 21
0.978461
 31
0.0
  0
LINE
  5
56
100
AcDbEntity
100
AcDbLine
  8
0
 62
0
370
-1
  6
ByLayer
 10
0.7942709999999999
 20
0.978461
 30
0.0
 11
0.744792
 21
1.0015700000000001
 31
0.0
  0
LINE
  5
57
100
AcDbEntity
100
AcDbLine
  8
0
 62
0
370
-1
  6
ByLayer
 10
0.744792
 20
1.0015700000000001
 30
0.0
 11
0.696072
 21
1.02637
 31
0.0
  0
LINE
  5
58
100
AcDbEntity
100
AcDbLine
  8
0
 62
0
370
-1
  6
ByLayer
 10
0.696072
 20
1.02637
 30
0.0
 11
0.651421
 21
1.0614699999999999
 31
0.0
  0
LINE
  5
59
100
AcDbEntity
100
AcDbLine
  8
0
 62
0
370
-1
  6
ByLayer
 10
0.651421
 20
1.0614699999999999
 30
0.0
 11
0.614421
 21
1.1154500000000001
 31
0.0
  0
LINE
  5
5A
100
AcDbEntity
100
AcDbLine
  8
0
 62
0
370
-1
  6
ByLayer
 10
0.614421
 20
1.1154500000000001
 30
0.0
 11
0.578179
 21
1.16998
 31
0.0
  0
LINE
  5
5B
100
AcDbEntity
100
AcDbLine
  8
0
 62
0
370
-1
  6
ByLayer
 10
0.578179
 20
1.16998
 30
0.0
 11
0.552735
 21
1.22184
 31
0.0
  0
LINE
  5
5C
100
AcDbEntity
100
AcDbLine
  8
0
 62
0
370
-1
  6
ByLayer
 10
0.552735
 20
1.22184
 30
0.0
 11
0.534614
 21
1.27186
 31
0.0
  0
LINE
  5
5D
100
AcDbEntity
100
AcDbLine
  8
0
 62
0
370
-1
  6
ByLayer
 10
0.534614
 20
1.27186
 30
0.0
 11
0.520236
 21
1.3210200000000001
 31
0.0
  0
LINE
  5
5E
100
AcDbEntity
100
AcDbLine
  8
0
 62
0
370
-1
  6
ByLayer
 10
0.520236
 20
1.3210200000000001
 30
0.0
 11
0.5037430000000001
 21
1.4065700000000001
 31
0.0
  0
LINE
  5
5F
100
AcDbEntity
100
AcDbLine
  8
0
 62
0
370
-1
  6
ByLayer
 10
0.5037430000000001
 20
1.4065700000000001
 30
0.0
 11
0.502875
 21
1.4796
 31
0.0
  0
LINE
  5
60
100
AcDbEntity
100
AcDbLine
  8
0
 62
0
370
-1
  6
ByLayer
 10
0.502875
 20
1.4796
 30
0.0
 11
0.512804
 21
1.54406
 31
0.0
  0
LINE
  5
61
100
AcDbEntity
100
AcDbLine
  8
0
 62
0
370
-1
  6
ByLayer
 10
0.512804
 20
1.54406
 30
0.0
 11
0.5288079999999999
 21
1.60362
 31
0.0
  0
LINE
  5
62
100
AcDbEntity
100
AcDbLine
  8
0
 62
0
370
-1
  6
ByLayer
 10
0.5288079999999999
 20
1.60362
 30
0.0
 11
0.482585
 21
1.6504399999999999
 31
0.0
  0
LINE
  5
63
100
AcDbEntity
100
AcDbLine
  8
0
 62
0
370
-1
  6
ByLayer
 10
0.482585
 20
1.6504399999999999
 30
0.0
 11
0.446778
 21
1.7058899999999999
 31
0.0
  0
LINE
  5
64
100
AcDbEntity
100
AcDbLine
  8
0
 62
0
370
-1
  6
ByLayer
 10
0.446778
 20
1.7058899999999999
 30
0.0
 11
0.424154
 21
1.7722899999999999
 31
0.0
  0
LINE
  5
65
100
AcDbEntity
100
AcDbLine
  8
0
 62
0
370
-1
  6
ByLayer
 10
0.424154
 20
1.7722899999999999
 30
0.0
 11
0.417481
 21
1.8519399999999999
 31
0.0
  0
LINE
  5
66
100
AcDbEntity
100
AcDbLine
  8
0
 62
0
370
-1
  6
ByLayer
 10
0.417481
 20
1.8519399999999999
 30
0.0
 11
0.460667
 21
2.21061
 31
0.0
  0
LINE
  5
67
100
AcDbEntity
100
AcDbLine
  8
0
 62
0
370
-1
  6
ByLayer
 10
0.460667
 20
2.21061
 30
0.0
 11
0.438639
 21
2.4156900000000001
 31
0.0
  0
LINE
  5
68
100
AcDbEntity
100
AcDbLine
  8
0
 62
0
370
-1
  6
ByLayer
 10
0.438639
 20
2.4156900000000001
 30
0.0
 11
0.442437
 21
2.6574399999999998
 31
0.0
  0
LINE
  5
69
100
AcDbEntity
100
AcDbLine
  8
0
 62
0
370
-1
  6
ByLayer
 10
0.442437
 20
2.6574399999999998
 30
0.0
 11
0.348958
 21
2.7597100000000001
 31
0.0
  0
LINE
  5
6A
100
AcDbEntity
100
AcDbLine
  8
0
 62
0
370
-1
  6
ByLayer
 10
0.348958
 20
2.7597100000000001
 30
0.0
 11
0.315972
 21
2.7712599999999998
 31
0.0
  0
LINE
  5
6B
100
AcDbEntity
100
AcDbLine
  8
0
 62
0
370
-1
  6
ByLayer
 10
0.315972
 20
2.7712599999999998
 30
0.0
 11
0.282986
 21
2.7614399999999999
 31
0.0
  0
LINE
  5
6C
100
AcDbEntity
100
AcDbLine
  8
0
 62
0
370
-1
  6
ByLayer
 10
0.282986
 20
2.7614399999999999
 30
0.0
 11
0.25
 21
2.7390400000000001
 31
0.0
  0
LINE
  5
6D
100
AcDbEntity
100
AcDbLine
  8
0
 62
0
370
-1
  6
ByLayer
 10
0.25
 20
2.7390400000000001
 30
0.0
 11
0.217068
 21
2.71272
 31
0.0
  0
LINE
  5
6E
100
AcDbEntity
100
AcDbLine
  8
0
 62
0
370
-1
  6
ByLayer
 10
0.217068
 20
2.71272
 30
0.0
 11
0.19515
 21
2.7537500000000001
 31
0.0
  0
LINE
  5
6F
100
AcDbEntity
100
AcDbLine
  8
0
 62
0
370
-1
  6
ByLayer
 10
0.19515
 20
2.7537500000000001
 30
0.0
 11
0.171713
 21
2.7809699999999999
 31
0.0
  0
LINE
  5
70
100
AcDbEntity
100
AcDbLine
  8
0
 62
0
370
-1
  6
ByLayer
 10
0.171713
 20
2.7809699999999999
 30
0.0
 11
0.147081
 21
2.7974700000000001
 31
0.0
  0
LINE
  5
71
100
AcDbEntity
100
AcDbLine
  8
0
 62
0
370
-1
  6
ByLayer
 10
0.147081
 20
2.7974700000000001
 30
0.0
 11
0.121636
 21
2.80647
 31
0.0
  0
LINE
  5
72
100
AcDbEntity
100
AcDbLine
  8
0
 62
0
370
-1
  6
ByLayer
 10
0.121636
 20
2.80647
 30
0.0
 11
0.0957031
 21
2.8110400000000002
 31
0.0
  0
LINE
  5
73
100
AcDbEntity
100
AcDbLine
  8
0
 62
0
370
-1
  6
ByLayer
 10
0.0957031
 20
2.8110400000000002
 30
0.0
 11
0.0696072
 21
2.8142399999999999
 31
0.0
  0
LINE
  5
74
100
AcDbEntity
100
AcDbLine
  8
0
 62
0
370
-1
  6
ByLayer
 10
0.0696072
 20
2.8142399999999999
 30
0.0
 11
0.0437283
 21
2.81928
 31
0.0
  0
LINE
  5
75
100
AcDbEntity
100
AcDbLine
  8
0
 62
0
370
-1
  6
ByLayer
 10
0.0437283
 20
2.81928
 30
0.0
 11
0.0183919
 21
2.8292099999999998
 31
0.0
  0
LINE
  5
76
100
AcDbEntity
100
AcDbLine
  8
0
 62
0
370
-1
  6
ByLayer
 10
0.0183919
 20
2.8292099999999998
 30
0.0
 11
0.147894
 21
2.9055399999999998
 31
0.0
  0
LINE
  5
77
100
AcDbEntity
100
AcDbLine
  8
0
 62
0
370
-1
  6
ByLayer
 10
0.147894
 20
2.9055399999999998
 30
0.0
 11
0.219781
 21
2.9772099999999999
 31
0.0
  0
LINE
  5
78
100
AcDbEntity
100
AcDbLine
  8
0
 62
0
370
-1
  6
ByLayer
 10
0.219781
 20
2.9772099999999999
 30
0.0
 11
0.196289
 21
3.0145400000000002
 31
0.0
  0
LINE
  5
79
100
AcDbEntity
100
AcDbLine
  8
0
 62
0
370
-1
  6
ByLayer
 10
0.196289
 20
3.0145400000000002
 30
0.0
 11
0.18929
 21
3.0576099999999999
 31
0.0
  0
LINE
  5
7A
100
AcDbEntity
100
AcDbLine
  8
0
 62
0
370
-1
  6
ByLayer
 10
0.18929
 20
3.0576099999999999
 30
0.0
 11
0.183376
 21
3.10704
 31
0.0
  0
LINE
  5
7B
100
AcDbEntity
100
AcDbLine
  8
0
 62
0
370
-1
  6
ByLayer
 10
0.183376
 20
3.10704
 30
0.0
 11
0.163303
 21
3.1631399999999998
 31
0.0
  0
LINE
  5
7C
100
AcDbEntity
100
AcDbLine
  8
0
 62
0
370
-1
  6
ByLayer
 10
0.163303
 20
3.1631399999999998
 30
0.0
 11
0.167156
 21
3.27013
 31
0.0
  0
LINE
  5
7D
100
AcDbEntity
100
AcDbLine
  8
0
 62
0
370
-1
  6
ByLayer
 10
0.167156
 20
3.27013
 30
0.0
 11
0.210721
 21
3.2987199999999999
 31
0.0
  0
LINE
  5
7E
100
AcDbEntity
100
AcDbLine
  8
0
 62
0
370
-1
  6
ByLayer
 10
0.210721
 20
3.2987199999999999
 30
0.0
 11
0.26785
 21
3.3147799999999998
 31
0.0
  0
LINE
  5
7F
100
AcDbEntity
100
AcDbLine
  8
0
 62
0
370
-1
  6
ByLayer
 10
0.26785
 20
3.3147799999999998
 30
0.0
 11
0.315701
 21
3.3242799999999999
 31
0.0
  0
LINE
  5
80
100
AcDbEntity
100
AcDbLine
  8
0
 62
0
370
-1
  6
ByLayer
 10
0.315701
 20
3.3242799999999999
 30
0.0
 11
0.358615
 21
3.32362
 31
0.0
  0
LINE
  5
81
100
AcDbEntity
100
AcDbLine
  8
0
 62
0
370
-1
  6
ByLayer
 10
0.358615
 20
3.32362
 30
0.0
 11
0.400771
 21
3.3090299999999999
 31
0.0
  0
LINE
  5
82
100
AcDbEntity
100
AcDbLine
  8
0
 62
0
370
-1
  6
ByLayer
 10
0.400771
 20
3.3090299999999999
 30
0.0
 11
0.446506
 21
3.2768600000000001
 31
0.0
  0
LINE
  5
83
100
AcDbEntity
100
AcDbLine
  8
0
 62
0
370
-1
  6
ByLayer
 10
0.446506
 20
3.2768600000000001
 30
0.0
 11
0.500108
 21
3.22342
 31
0.0
  0
LINE
  5
84
100
AcDbEntity
100
AcDbLine
  8
0
 62
0
370
-1
  6
ByLayer
 10
0.500108
 20
3.22342
 30
0.0
 11
0.565756
 21
3.1450100000000001
 31
0.0
  0
LINE
  5
85
100
AcDbEntity
100
AcDbLine
  8
0
 62
0
370
-1
  6
ByLayer
 10
0.565756
 20
3.1450100000000001
 30
0.0
 11
0.647894
 21
3.0378799999999999
 31
0.0
  0
LINE
  5
86
100
AcDbEntity
100
AcDbLine
  8
0
 62
0
370
-1
  6
ByLayer
 10
0.647894
 20
3.0378799999999999
 30
0.0
 11
0.6694870000000001
 21
2.8823799999999999
 31
0.0
  0
LINE
  5
87
100
AcDbEntity
100
AcDbLine
  8
0
 62
0
370
-1
  6
ByLayer
 10
0.6694870000000001
 20
2.8823799999999999
 30
0.0
 11
0.73725
 21
2.7544400000000002
 31
0.0
  0
LINE
  5
88
100
AcDbEntity
100
AcDbLine
  8
0
 62
0
370
-1
  6
ByLayer
 10
0.73725
 20
2.7544400000000002
 30
0.0
 11
0.824164
 21
2.6454599999999999
 31
0.0
  0
LINE
  5
89
100
AcDbEntity
100
AcDbLine
  8
0
 62
0
370
-1
  6
ByLayer
 10
0.824164
 20
2.6454599999999999
 30
0.0
 11
0.903429
 21
2.5468199999999999
 31
0.0
  0
LINE
  5
8A
100
AcDbEntity
100
AcDbLine
  8
0
 62
0
370
-1
  6
ByLayer
 10
0.903429
 20
2.5468199999999999
 30
0.0
 11
0.9723850000000001
 21
2.37582
 31
0.0
  0
LINE
  5
8B
100
AcDbEntity
100
AcDbLine
  8
0
 62
0
370
-1
  6
ByLayer
 10
0.9723850000000001
 20
2.37582
 30
0.0
 11
1.0041800000000001
 21
2.34076
 31
0.0
  0
LINE
  5
8C
100
AcDbEntity
100
AcDbLine
  8
0
 62
0
370
-1
  6
ByLayer
 10
1.0041800000000001
 20
2.34076
 30
0.0
 11
1.04758
 21
2.31711
 31
0.0
  0
LINE
  5
8D
100
AcDbEntity
100
AcDbLine
  8
0
 62
0
370
-1
  6
ByLayer
 10
1.04758
 20
2.31711
 30
0.0
 11
1.0909800000000001
 21
2.29758
 31
0.0
  0
LINE
  5
8E
100
AcDbEntity
100
AcDbLine
  8
0
 62
0
370
-1
  6
ByLayer
 10
1.0909800000000001
 20
2.29758
 30
0.0
 11
1.12283
 21
2.27474
 31
0.0
  0
LINE
  5
8F
100
AcDbEntity
100
AcDbLine
  8
0
 62
0
370
-1
  6
ByLayer
 10
1.12283
 20
2.27474
 30
0.0
 11
1.20475
 21
2.2458200000000001
 31
0.0
  0
LINE
  5
90
100
AcDbEntity
100
AcDbLine
  8
0
 62
0
370
-1
  6
ByLayer
 10
1.20475
 20
2.2458200000000001
 30
0.0
 11
1.29199
 21
2.22065
 31
0.0
  0
LINE
  5
91
100
AcDbEntity
100
AcDbLine
  8
0
 62
0
370
-1
  6
ByLayer
 10
1.29199
 20
2.22065
 30
0.0
 11
1.3834599999999999
 21
2.1697600000000001
 31
0.0
  0
LINE
  5
92
100
AcDbEntity
100
AcDbLine
  8
0
 62
0
370
-1
  6
ByLayer
 10
1.3834599999999999
 20
2.1697600000000001
 30
0.0
 11
1.47831
 21
2.06358
 31
0.0
  0
LINE
  5
93
100
AcDbEntity
100
AcDbLine
  8
0
 62
0
370
-1
  6
ByLayer
 10
1.47831
 20
2.06358
 30
0.0
 11
1.62076
 21
2.1440999999999999
 31
0.0
  0
LINE
  5
94
100
AcDbEntity
100
AcDbLine
  8
0
 62
0
370
-1
  6
ByLayer
 10
1.62076
 20
2.1440999999999999
 30
0.0
 11
1.77908
 21
2.1516899999999999
 31
0.0
  0
LINE
  5
95
100
AcDbEntity
100
AcDbLine
  8
0
 62
0
370
-1
  6
ByLayer
 10
1.77908
 20
2.1516899999999999
 30
0.0
 11
1.70139
 21
2.2669299999999999
 31
0.0
  0
LINE
  5
96
100
AcDbEntity
100
AcDbLine
  8
0
 62
0
370
-1
  6
ByLayer
 10
1.70139
 20
2.2669299999999999
 30
0.0
 11
1.6677500000000001
 21
2.4085800000000002
 31
0.0
  0
LINE
  5
97
100
AcDbEntity
100
AcDbLine
  8
0
 62
0
370
-1
  6
ByLayer
 10
1.6677500000000001
 20
2.4085800000000002
 30
0.0
 11
1.6811499999999999
 21
2.4851399999999999
 31
0.0
  0
LINE
  5
98
100
AcDbEntity
100
AcDbLine
  8
0
 62
0
370
-1
  6
ByLayer
 10
1.6811499999999999
 20
2.4851399999999999
 30
0.0
 11
1.7016100000000001
 21
2.5545300000000002
 31
0.0
  0
LINE
  5
99
100
AcDbEntity
100
AcDbLine
  8
0
 62
0
370
-1
  6
ByLayer
 10
1.7016100000000001
 20
2.5545300000000002
 30
0.0
 11
1.7329600000000001
 21
2.61307
 31
0.0
  0
LINE
  5
9A
100
AcDbEntity
100
AcDbLine
  8
0
 62
0
370
-1
  6
ByLayer
 10
1.7329600000000001
 20
2.61307
 30
0.0
 11
1.77908
 21
2.6568999999999998
 31
0.0
  0
LINE
  5
9B
100
AcDbEntity
100
AcDbLine
  8
0
 62
0
370
-1
  6
ByLayer
 10
1.77908
 20
2.6568999999999998
 30
0.0
 11
1.9503600000000001
 21
2.7853699999999999
 31
0.0
  0
LINE
  5
9C
100
AcDbEntity
100
AcDbLine
  8
0
 62
0
370
-1
  6
ByLayer
 10
1.9503600000000001
 20
2.7853699999999999
 30
0.0
 11
1.9075599999999999
 21
2.5284900000000001
 31
0.0
  0
LINE
  5
9D
100
AcDbEntity
100
AcDbLine
  8
0
 62
0
370
-1
  6
ByLayer
 10
1.9075599999999999
 20
2.5284900000000001
 30
0.0
 11
1.9983200000000001
 21
2.6600000000000001
 31
0.0
  0
LINE
  5
9E
100
AcDbEntity
100
AcDbLine
  8
0
 62
0
370
-1
  6
ByLayer
 10
1.9983200000000001
 20
2.6600000000000001
 30
0.0
 11
2.1170800000000001
 21
2.7853699999999999
 31
0.0
  0
LINE
  5
9F
100
AcDbEntity
100
AcDbLine
  8
0
 62
0
370
-1
  6
ByLayer
 10
2.1170800000000001
 20
2.7853699999999999
 30
0.0
 11
2.0758999999999999
 21
2.59674
 31
0.0
  0
LINE
  5
A0
100
AcDbEntity
100
AcDbLine
  8
0
 62
0
370
-1
  6
ByLayer
 10
2.0758999999999999
 20
2.59674
 30
0.0
 11
2.0359699999999998
 21
2.4397199999999999
 31
0.0
  0
LINE
  5
A1
100
AcDbEntity
100
AcDbLine
  8
0
 62
0
370
-1
  6
ByLayer
 10
2.0359699999999998
 20
2.4397199999999999
 30
0.0
 11
2.24485
 21
2.71685
 31
0.0
  0
LINE
  5
A2
100
AcDbEntity
100
AcDbLine
  8
0
 62
0
370
-1
  6
ByLayer
 10
2.24485
 20
2.71685
 30
0.0
 11
2.2398099999999999
 21
2.5157400000000001
 31
0.0
  0
LINE
  5
A3
100
AcDbEntity
100
AcDbLine
  8
0
 62
0
370
-1
  6
ByLayer
 10
2.2398099999999999
 20
2.5157400000000001
 30
0.0
 11
2.3726099999999999
 21
2.3400599999999998
 31
0.0
  0
LINE
  5
A4
100
AcDbEntity
100
AcDbLine
  8
0
 62
0
370
-1
  6
ByLayer
 10
2.3726099999999999
 20
2.3400599999999998
 30
0.0
 11
2.3886099999999999
 21
2.2595999999999998
 31
0.0
  0
LINE
  5
A5
100
AcDbEntity
100
AcDbLine
  8
0
 62
0
370
-1
  6
ByLayer
 10
2.3886099999999999
 20
2.2595999999999998
 30
0.0
 11
2.4164400000000001
 21
2.1990599999999998
 31
0.0
  0
LINE
  5
A6
100
AcDbEntity
100
AcDbLine
  8
0
 62
0
370
-1
  6
ByLayer
 10
2.4164400000000001
 20
2.1990599999999998
 30
0.0
 11
2.4542600000000001
 21
2.1555399999999998
 31
0.0
  0
LINE
  5
A7
100
AcDbEntity
100
AcDbLine
  8
0
 62
0
370
-1
  6
ByLayer
 10
2.4542600000000001
 20
2.1555399999999998
 30
0.0
 11
2.5003700000000002
 21
2.1259700000000001
 31
0.0
  0
LINE
  5
A8
100
AcDbEntity
100
AcDbLine
  8
0
 62
0
370
-1
  6
ByLayer
 10
2.5003700000000002
 20
2.1259700000000001
 30
0.0
 11
2.5583800000000001
 21
2.0232199999999998
 31
0.0
  0
LINE
  5
A9
100
AcDbEntity
100
AcDbLine
  8
0
 62
0
370
-1
  6
ByLayer
 10
2.5583800000000001
 20
2.0232199999999998
 30
0.0
 11
2.4928900000000001
 21
1.9151499999999999
 31
0.0
  0
LINE
  5
AA
100
AcDbEntity
100
AcDbLine
  8
0
 62
0
370
-1
  6
ByLayer
 10
2.4928900000000001
 20
1.9151499999999999
 30
0.0
 11
2.4812799999999999
 21
1.80094
 31
0.0
  0
LINE
  5
AB
100
AcDbEntity
100
AcDbLine
  8
0
 62
0
370
-1
  6
ByLayer
 10
2.4812799999999999
 20
1.80094
 30
0.0
 11
2.4727100000000002
 21
1.6731799999999999
 31
0.0
  0
LINE
  5
AC
100
AcDbEntity
100
AcDbLine
  8
0
 62
0
370
-1
  6
ByLayer
 10
2.4727100000000002
 20
1.6731799999999999
 30
0.0
 11
2.5189900000000001
 21
1.6380300000000001
 31
0.0
  0
LINE
  5
AD
100
AcDbEntity
100
AcDbLine
  8
0
 62
0
370
-1
  6
ByLayer
 10
2.5189900000000001
 20
1.6380300000000001
 30
0.0
 11
2.5590299999999999
 21
1.58724
 31
0.0
  0
LINE
  5
AE
100
AcDbEntity
100
AcDbLine
  8
0
 62
0
370
-1
  6
ByLayer
 10
2.5590299999999999
 20
1.58724
 30
0.0
 11
2.5947800000000001
 21
1.5256700000000001
 31
0.0
  0
LINE
  5
AF
100
AcDbEntity
100
AcDbLine
  8
0
 62
0
370
-1
  6
ByLayer
 10
2.5947800000000001
 20
1.5256700000000001
 30
0.0
 11
2.6281500000000002
 21
1.45801
 31
0.0
  0
LINE
  5
B0
100
AcDbEntity
100
AcDbLine
  8
0
 62
0
370
-1
  6
ByLayer
 10
2.6281500000000002
 20
1.45801
 30
0.0
 11
2.5926100000000001
 21
1.3124499999999999
 31
0.0
  0
LINE
  5
B1
100
AcDbEntity
100
AcDbLine
  8
0
 62
0
370
-1
  6
ByLayer
 10
2.5926100000000001
 20
1.3124499999999999
 30
0.0
 11
2.4727100000000002
 21
1.2696400000000001
 31
0.0
  0
LINE
  5
B2
100
AcDbEntity
100
AcDbLine
  8
0
 62
0
370
-1
  6
ByLayer
 10
2.4727100000000002
 20
1.2696400000000001
 30
0.0
 11
2.3871000000000002
 21
1.14117
 31
0.0
  0
LINE
  5
B3
100
AcDbEntity
100
AcDbLine
  8
0
 62
0
370
-1
  6
ByLayer
 10
2.3871000000000002
 20
1.14117
 30
0.0
 11
2.3859599999999999
 21
1.0876699999999999
 31
0.0
  0
LINE
  5
B4
100
AcDbEntity
100
AcDbLine
  8
0
 62
0
370
-1
  6
ByLayer
 10
2.3859599999999999
 20
1.0876699999999999
 30
0.0
 11
2.3990800000000001
 21
1.0381899999999999
 31
0.0
  0
LINE
  5
B5
100
AcDbEntity
100
AcDbLine
  8
0
 62
0
370
-1
  6
ByLayer
 10
2.3990800000000001
 20
1.0381899999999999
 30
0.0
 11
2.4275699999999998
 21
0.99311
 31
0.0
  0
LINE
  5
B6
100
AcDbEntity
100
AcDbLine
  8
0
 62
0
370
-1
  6
ByLayer
 10
2.4275699999999998
 20
0.99311
 30
0.0
 11
2.4727100000000002
 21
0.952746
 31
0.0
  0
LINE
  5
B7
100
AcDbEntity
100
AcDbLine
  8
0
 62
0
370
-1
  6
ByLayer
 10
2.4727100000000002
 20
0.952746
 30
0.0
 11
2.5926100000000001
 21
0.807183
 31
0.0
  0
LINE
  5
B8
100
AcDbEntity
100
AcDbLine
  8
0
 62
0
370
-1
  6
ByLayer
 10
2.5926100000000001
 20
0.807183
 30
0.0
 11
2.6525599999999998
 21
0.678711
 31
0.0
  0
LINE
  5
B9
100
AcDbEntity
100
AcDbLine
  8
0
 62
0
370
-1
  6
ByLayer
 10
2.6525599999999998
 20
0.678711
 30
0.0
 11
2.7210800000000002
 21
0.421821
 31
0.0
  0
LINE
  5
BA
100
AcDbEntity
100
AcDbLine
  8
0
 62
0
370
-1
  6
ByLayer
 10
2.7210800000000002
 20
0.421821
 30
0.0
 11
2.7558600000000002
 21
0.298014
 31
0.0
  0
LINE
  5
BB
100
AcDbEntity
100
AcDbLine
  8
0
 62
0
370
-1
  6
ByLayer
 10
2.7558600000000002
 20
0.298014
 30
0.0
 11
2.7625799999999998
 21
0.333333
 31
0.0
  0
LINE
  5
BC
100
AcDbEntity
100
AcDbLine
  8
0
 62
0
370
-1
  6
ByLayer
 10
2.7625799999999998
 20
0.333333
 30
0.0
 11
2.7707799999999998
 21
0.358507
 31
0.0
  0
LINE
  5
BD
100
AcDbEntity
100
AcDbLine
  8
0
 62
0
370
-1
  6
ByLayer
 10
2.7707799999999998
 20
0.358507
 30
0.0
 11
2.7800600000000002
 21
0.375706
 31
0.0
  0
LINE
  5
BE
100
AcDbEntity
100
AcDbLine
  8
0
 62
0
370
-1
  6
ByLayer
 10
2.7800600000000002
 20
0.375706
 30
0.0
 11
2.7902100000000001
 21
0.387261
 31
0.0
  0
LINE
  5
BF
100
AcDbEntity
100
AcDbLine
  8
0
 62
0
370
-1
  6
ByLayer
 10
2.7902100000000001
 20
0.387261
 30
0.0
 11
2.8008299999999999
 21
0.3954
 31
0.0
  0
LINE
  5
C0
100
AcDbEntity
100
AcDbLine
  8
0
 62
0
370
-1
  6
ByLayer
 10
2.8008299999999999
 20
0.3954
 30
0.0
 11
2.8115800000000002
 21
0.402399
 31
0.0
  0
LINE
  5
C1
100
AcDbEntity
100
AcDbLine
  8
0
 62
0
370
-1
  6
ByLayer
 10
2.8115800000000002
 20
0.402399
 30
0.0
 11
2.8222100000000001
 21
0.410428
 31
0.0
  0
LINE
  5
C2
100
AcDbEntity
100
AcDbLine
  8
0
 62
0
370
-1
  6
ByLayer
 10
2.8222100000000001
 20
0.410428
 30
0.0
 11
2.8324199999999999
 21
0.421821
 31
0.0
  0
LINE
  5
C3
100
AcDbEntity
100
AcDbLine
  8
0
 62
0
370
-1
  6
ByLayer
 10
2.8324199999999999
 20
0.421821
 30
0.0
 11
2.9220999999999999
 21
0.435113
 31
0.0
  0
LINE
  5
C4
100
AcDbEntity
100
AcDbLine
  8
0
 62
0
370
-1
  6
ByLayer
 10
2.9220999999999999
 20
0.435113
 30
0.0
 11
2.9998300000000002
 21
0.415582
 31
0.0
  0
LINE
  5
C5
100
AcDbEntity
100
AcDbLine
  8
0
 62
0
370
-1
  6
ByLayer
 10
2.9998300000000002
 20
0.415582
 30
0.0
 11
3.06392
 21
0.386882
 31
0.0
  0
LINE
  5
C6
100
AcDbEntity
100
AcDbLine
  8
0
 62
0
370
-1
  6
ByLayer
 10
3.06392
 20
0.386882
 30
0.0
 11
3.1125699999999998
 21
0.372613
 31
0.0
  0
LINE
  5
C7
100
AcDbEntity
100
AcDbLine
  8
0
 62
0
370
-1
  6
ByLayer
 10
3.1125699999999998
 20
0.372613
 30
0.0
 11
3.0943499999999999
 21
0.36556
 31
0.0
  0
LINE
  5
C8
100
AcDbEntity
100
AcDbLine
  8
0
 62
0
370
-1
  6
ByLayer
 10
3.0943499999999999
 20
0.36556
 30
0.0
 11
3.0699299999999998
 21
0.363172
 31
0.0
  0
LINE
  5
C9
100
AcDbEntity
100
AcDbLine
  8
0
 62
0
370
-1
  6
ByLayer
 10
3.0699299999999998
 20
0.363172
 30
0.0
 11
3.0417200000000002
 21
0.363499
 31
0.0
  0
LINE
  5
CA
100
AcDbEntity
100
AcDbLine
  8
0
 62
0
370
-1
  6
ByLayer
 10
3.0417200000000002
 20
0.363499
 30
0.0
 11
3.0121500000000001
 21
0.364692
 31
0.0
  0
LINE
  5
CB
100
AcDbEntity
100
AcDbLine
  8
0
 62
0
370
-1
  6
ByLayer
 10
3.0121500000000001
 20
0.364692
 30
0.0
 11
2.9835600000000002
 21
0.364963
 31
0.0
  0
LINE
  5
CC
100
AcDbEntity
100
AcDbLine
  8
0
 62
0
370
-1
  6
ByLayer
 10
2.9835600000000002
 20
0.364963
 30
0.0
 11
2.9583300000000001
 21
0.362304
 31
0.0
  0
LINE
  5
CD
100
AcDbEntity
100
AcDbLine
  8
0
 62
0
370
-1
  6
ByLayer
 10
2.9583300000000001
 20
0.362304
 30
0.0
 11
2.93892
 21
0.354872
 31
0.0
  0
LINE
  5
CE
100
AcDbEntity
100
AcDbLine
  8
0
 62
0
370
-1
  6
ByLayer
 10
2.93892
 20
0.354872
 30
0.0
 11
2.9276800000000001
 21
0.340821
 31
0.0
  0
LINE
  5
CF
100
AcDbEntity
100
AcDbLine
  8
0
 62
0
370
-1
  6
ByLayer
 10
2.9276800000000001
 20
0.340821
 30
0.0
 11
2.91812
 21
0.333117
 31
0.0
  0
LINE
  5
D0
100
AcDbEntity
100
AcDbLine
  8
0
 62
0
370
-1
  6
ByLayer
 10
2.91812
 20
0.333117
 30
0.0
 11
2.8967499999999999
 21
0.326335
 31
0.0
  0
LINE
  5
D1
100
AcDbEntity
100
AcDbLine
  8
0
 62
0
370
-1
  6
ByLayer
 10
2.8967499999999999
 20
0.326335
 30
0.0
 11
2.8713099999999998
 21
0.31939
 31
0.0
  0
LINE
  5
D2
100
AcDbEntity
100
AcDbLine
  8
0
 62
0
370
-1
  6
ByLayer
 10
2.8713099999999998
 20
0.31939
 30
0.0
 11
2.8494999999999999
 21
0.311089
 31
0.0
  0
LINE
  5
D3
100
AcDbEntity
100
AcDbLine
  8
0
 62
0
370
-1
  6
ByLayer
 10
2.8494999999999999
 20
0.311089
 30
0.0
 11
2.8389199999999999
 21
0.300347
 31
0.0
  0
LINE
  5
D4
100
AcDbEntity
100
AcDbLine
  8
0
 62
0
370
-1
  6
ByLayer
 10
2.8389199999999999
 20
0.300347
 30
0.0
 11
2.8474400000000002
 21
0.286025
 31
0.0
  0
LINE
  5
D5
100
AcDbEntity
100
AcDbLine
  8
0
 62
0
370
-1
  6
ByLayer
 10
2.8474400000000002
 20
0.286025
 30
0.0
 11
2.8826499999999999
 21
0.266982
 31
0.0
  0
LINE
  5
D6
100
AcDbEntity
100
AcDbLine
  8
0
 62
0
370
-1
  6
ByLayer
 10
2.8826499999999999
 20
0.266982
 30
0.0
 11
2.9523100000000002
 21
0.241971
 31
0.0
  0
LINE
  5
D7
100
AcDbEntity
100
AcDbLine
  8
0
 62
0
370
-1
  6
ByLayer
 10
2.9523100000000002
 20
0.241971
 30
0.0
 11
3.0893099999999998
 21
0.224881
 31
0.0
  0
LINE
  5
D8
100
AcDbEntity
100
AcDbLine
  8
0
 62
0
370
-1
  6
ByLayer
 10
3.0893099999999998
 20
0.224881
 30
0.0
 11
3.1749700000000001
 21
0.224881
 31
0.0
  0
LINE
  5
D9
100
AcDbEntity
100
AcDbLine
  8
0
 62
0
370
-1
  6
ByLayer
 10
3.1749700000000001
 20
0.224881
 30
0.0
 11
3.1585299999999998
 21
0.214681
 31
0.0
  0
LINE
  5
DA
100
AcDbEntity
100
AcDbLine
  8
0
 62
0
370
-1
  6
ByLayer
 10
3.1585299999999998
 20
0.214681
 30
0.0
 11
3.14751
 21
0.204969
 31
0.0
  0
LINE
  5
DB
100
AcDbEntity
100
AcDbLine
  8
0
 62
0
370
-1
  6
ByLayer
 10
3.14751
 20
0.204969
 30
0.0
 11
3.1385700000000001
 21
0.195475
 31
0.0
  0
LINE
  5
DC
100
AcDbEntity
100
AcDbLine
  8
0
 62
0
370
-1
  6
ByLayer
 10
3.1385700000000001
 20
0.195475
 30
0.0
 11
3.1284700000000001
 21
0.185872
 31
0.0
  0
LINE
  5
DD
100
AcDbEntity
100
AcDbLine
  8
0
 62
0
370
-1
  6
ByLayer
 10
3.1284700000000001
 20
0.185872
 30
0.0
 11
3.1139299999999999
 21
0.175836
 31
0.0
  0
LINE
  5
DE
100
AcDbEntity
100
AcDbLine
  8
0
 62
0
370
-1
  6
ByLayer
 10
3.1139299999999999
 20
0.175836
 30
0.0
 11
3.0917400000000002
 21
0.165093
 31
0.0
  0
LINE
  5
DF
100
AcDbEntity
100
AcDbLine
  8
0
 62
0
370
-1
  6
ByLayer
 10
3.0917400000000002
 20
0.165093
 30
0.0
 11
3.0586500000000001
 21
0.153267
 31
0.0
  0
LINE
  5
E0
100
AcDbEntity
100
AcDbLine
  8
0
 62
0
370
-1
  6
ByLayer
 10
3.0586500000000001
 20
0.153267
 30
0.0
 11
3.01139
 21
0.140082
 31
0.0
  0
LINE
  5
E1
100
AcDbEntity
100
AcDbLine
  8
0
 62
0
370
-1
  6
ByLayer
 10
3.01139
 20
0.140082
 30
0.0
 11
2.9009299999999998
 21
0.156358
 31
0.0
  0
LINE
  5
E2
100
AcDbEntity
100
AcDbLine
  8
0
 62
0
370
-1
  6
ByLayer
 10
2.9009299999999998
 20
0.156358
 30
0.0
 11
2.90625
 21
0.134983
 31
0.0
  0
LINE
  5
E3
100
AcDbEntity
100
AcDbLine
  8
0
 62
0
370
-1
  6
ByLayer
 10
2.90625
 20
0.134983
 30
0.0
 11
2.9148200000000002
 21
0.113553
 31
0.0
  0
LINE
  5
E4
100
AcDbEntity
100
AcDbLine
  8
0
 62
0
370
-1
  6
ByLayer
 10
2.9148200000000002
 20
0.113553
 30
0.0
 11
2.9399999999999999
 21
0.0921224
 31
0.0
  0
LINE
  5
E5
100
AcDbEntity
100
AcDbLine
  8
0
 62
0
370
-1
  6
ByLayer
 10
2.9399999999999999
 20
0.0921224
 30
0.0
 11
2.9951099999999999
 21
0.0706922
 31
0.0
  0
LINE
  5
E6
100
AcDbEntity
100
AcDbLine
  8
0
 62
0
370
-1
  6
ByLayer
 10
2.9951099999999999
 20
0.0706922
 30
0.0
 11
3.12358
 21
0.0536025
 31
0.0
  0
LINE
  5
E7
100
AcDbEntity
100
AcDbLine
  8
0
 62
0
370
-1
  6
ByLayer
 10
3.12358
 20
0.0536025
 30
0.0
 11
2.9523100000000002
 21
0.0123698
 31
0.0
  0
LINE
  5
E8
100
AcDbEntity
100
AcDbLine
  8
0
 62
0
370
-1
  6
ByLayer
 10
2.9523100000000002
 20
0.0123698
 30
0.0
 11
2.8754300000000002
 21
0.0520833
 31
0.0
  0
LINE
  5
E9
100
AcDbEntity
100
AcDbLine
  8
0
 62
0
370
-1
  6
ByLayer
 10
2.8754300000000002
 20
0.0520833
 30
0.0
 11
2.7840699999999998
 21
0.0920139
 31
0.0
  0
LINE
  5
EA
100
AcDbEntity
100
AcDbLine
  8
0
 62
0
370
-1
  6
ByLayer
 10
2.7840699999999998
 20
0.0920139
 30
0.0
 11
2.69353
 21
0.14719
 31
0.0
  0
LINE
  5
EB
100
AcDbEntity
100
AcDbLine
  8
0
 62
0
370
-1
  6
ByLayer
 10
2.69353
 20
0.14719
 30
0.0
 11
2.61931
 21
0.232693
 31
0.0
  0
LINE
  5
EC
100
AcDbEntity
100
AcDbLine
  8
0
 62
0
370
-1
  6
ByLayer
 10
2.61931
 20
0.232693
 30
0.0
 11
2.6142599999999998
 21
0.300401
 31
0.0
  0
LINE
  5
ED
100
AcDbEntity
100
AcDbLine
  8
0
 62
0
370
-1
  6
ByLayer
 10
2.6142599999999998
 20
0.300401
 30
0.0
 11
2.58182
 21
0.381131
 31
0.0
  0
LINE
  5
EE
100
AcDbEntity
100
AcDbLine
  8
0
 62
0
370
-1
  6
ByLayer
 10
2.58182
 20
0.381131
 30
0.0
 11
2.5384199999999999
 21
0.464031
 31
0.0
  0
LINE
  5
EF
100
AcDbEntity
100
AcDbLine
  8
0
 62
0
370
-1
  6
ByLayer
 10
2.5384199999999999
 20
0.464031
 30
0.0
 11
2.5003700000000002
 21
0.538303
 31
0.0
  0
LINE
  5
F0
100
AcDbEntity
100
AcDbLine
  8
0
 62
0
370
-1
  6
ByLayer
 10
2.5003700000000002
 20
0.538303
 30
0.0
 11
2.3890600000000002
 21
0.594781
 31
0.0
  0
LINE
  5
F1
100
AcDbEntity
100
AcDbLine
  8
0
 62
0
370
-1
  6
ByLayer
 10
2.3890600000000002
 20
0.594781
 30
0.0
 11
2.3368600000000002
 21
0.611708
 31
0.0
  0
LINE
  5
F2
100
AcDbEntity
100
AcDbLine
  8
0
 62
0
370
-1
  6
ByLayer
 10
2.3368600000000002
 20
0.611708
 30
0.0
 11
2.2871700000000001
 21
0.6381289999999999
 31
0.0
  0
LINE
  5
F3
100
AcDbEntity
100
AcDbLine
  8
0
 62
0
370
-1
  6
ByLayer
 10
2.2871700000000001
 20
0.6381289999999999
 30
0.0
 11
2.2456100000000001
 21
0.676758
 31
0.0
  0
LINE
  5
F4
100
AcDbEntity
100
AcDbLine
  8
0
 62
0
370
-1
  6
ByLayer
 10
2.2456100000000001
 20
0.676758
 30
0.0
 11
2.2179899999999999
 21
0.730414
 31
0.0
  0
LINE
  5
F5
100
AcDbEntity
100
AcDbLine
  8
0
 62
0
370
-1
  6
ByLayer
 10
2.2179899999999999
 20
0.730414
 30
0.0
 11
2.2003599999999999
 21
0.7318789999999999
 31
0.0
  0
LINE
  5
F6
100
AcDbEntity
100
AcDbLine
  8
0
 62
0
370
-1
  6
ByLayer
 10
2.2003599999999999
 20
0.7318789999999999
 30
0.0
 11
2.1856
 21
0.739854
 31
0.0
  0
LINE
  5
F7
100
AcDbEntity
100
AcDbLine
  8
0
 62
0
370
-1
  6
ByLayer
 10
2.1856
 20
0.739854
 30
0.0
 11
2.1726399999999999
 21
0.751085
 31
0.0
  0
LINE
  5
F8
100
AcDbEntity
100
AcDbLine
  8
0
 62
0
370
-1
  6
ByLayer
 10
2.1726399999999999
 20
0.751085
 30
0.0
 11
2.1605799999999999
 21
0.762153
 31
0.0
  0
LINE
  5
F9
100
AcDbEntity
100
AcDbLine
  8
0
 62
0
370
-1
  6
ByLayer
 10
2.1605799999999999
 20
0.762153
 30
0.0
 11
2.1486000000000001
 21
0.769857
 31
0.0
  0
LINE
  5
FA
100
AcDbEntity
100
AcDbLine
  8
0
 62
0
370
-1
  6
ByLayer
 10
2.1486000000000001
 20
0.769857
 30
0.0
 11
2.13564
 21
0.770779
 31
0.0
  0
LINE
  5
FB
100
AcDbEntity
100
AcDbLine
  8
0
 62
0
370
-1
  6
ByLayer
 10
2.13564
 20
0.770779
 30
0.0
 11
2.1208200000000001
 21
0.761664
 31
0.0
  0
LINE
  5
FC
100
AcDbEntity
100
AcDbLine
  8
0
 62
0
370
-1
  6
ByLayer
 10
2.1208200000000001
 20
0.761664
 30
0.0
 11
2.1032500000000001
 21
0.73915
 31
0.0
  0
LINE
  5
FD
100
AcDbEntity
100
AcDbLine
  8
0
 62
0
370
-1
  6
ByLayer
 10
2.1032500000000001
 20
0.73915
 30
0.0
 11
2.0266899999999999
 21
0.693414
 31
0.0
  0
LINE
  5
FE
100
AcDbEntity
100
AcDbLine
  8
0
 62
0
370
-1
  6
ByLayer
 10
2.0266899999999999
 20
0.693414
 30
0.0
 11
1.9886699999999999
 21
0.719781
 31
0.0
  0
LINE
  5
FF
100
AcDbEntity
100
AcDbLine
  8
0
 62
0
370
-1
  6
ByLayer
 10
1.9886699999999999
 20
0.719781
 30
0.0
 11
1.9610399999999999
 21
0.733236
 31
0.0
  0
LINE
  5
100
100
AcDbEntity
100
AcDbLine
  8
0
 62
0
370
-1
  6
ByLayer
 10
1.9610399999999999
 20
0.733236
 30
0.0
 11
1.9416199999999999
 21
0.736382
 31
0.0
  0
LINE
  5
101
100
AcDbEntity
100
AcDbLine
  8
0
 62
0
370
-1
  6
ByLayer
 10
1.9416199999999999
 20
0.736382
 30
0.0
 11
1.92828
 21
0.7319329999999999
 31
0.0
  0
LINE
  5
102
100
AcDbEntity
100
AcDbLine
  8
0
 62
0
370
-1
  6
ByLayer
 10
1.92828
 20
0.7319329999999999
 30
0.0
 11
1.9189400000000001
 21
0.7224390000000001
 31
0.0
  0
LINE
  5
103
100
AcDbEntity
100
AcDbLine
  8
0
 62
0
370
-1
  6
ByLayer
 10
1.9189400000000001
 20
0.7224390000000001
 30
0.0
 11
1.91151
 21
0.7106130000000001
 31
0.0
  0
LINE
  5
104
100
AcDbEntity
100
AcDbLine
  8
0
 62
0
370
-1
  6
ByLayer
 10
1.91151
 20
0.7106130000000001
 30
0.0
 11
1.9038600000000001
 21
0.69911
 31
0.0
  0
LINE
  5
105
100
AcDbEntity
100
AcDbLine
  8
0
 62
0
370
-1
  6
ByLayer
 10
1.9038600000000001
 20
0.69911
 30
0.0
 11
1.8938200000000001
 21
0.690483
 31
0.0
  0
LINE
  5
106
100
AcDbEntity
100
AcDbLine
  8
0
 62
0
370
-1
  6
ByLayer
 10
1.8938200000000001
 20
0.690483
 30
0.0
 11
1.8797200000000001
 21
0.7067600000000001
 31
0.0
  0
LINE
  5
107
100
AcDbEntity
100
AcDbLine
  8
0
 62
0
370
-1
  6
ByLayer
 10
1.8797200000000001
 20
0.7067600000000001
 30
0.0
 11
1.87239
 21
0.722114
 31
0.0
  0
LINE
  5
108
100
AcDbEntity
100
AcDbLine
  8
0
 62
0
370
-1
  6
ByLayer
 10
1.87239
 20
0.722114
 30
0.0
 11
1.86757
 21
0.734754
 31
0.0
  0
LINE
  5
109
100
AcDbEntity
100
AcDbLine
  8
0
 62
0
370
-1
  6
ByLayer
 10
1.86757
 20
0.734754
 30
0.0
 11
1.86111
 21
0.743001
 31
0.0
  0
LINE
  5
10A
100
AcDbEntity
100
AcDbLine
  8
0
 62
0
370
-1
  6
ByLayer
 10
1.86111
 20
0.743001
 30
0.0
 11
1.8486800000000001
 21
0.744954
 31
0.0
  0
LINE
  5
10B
100
AcDbEntity
100
AcDbLine
  8
0
 62
0
370
-1
  6
ByLayer
 10
1.8486800000000001
 20
0.744954
 30
0.0
 11
1.8261099999999999
 21
0.738986
 31
0.0
  0
LINE
  5
10C
100
AcDbEntity
100
AcDbLine
  8
0
 62
0
370
-1
  6
ByLayer
 10
1.8261099999999999
 20
0.738986
 30
0.0
 11
1.78928
 21
0.723199
 31
0.0
  0
LINE
  5
10D
100
AcDbEntity
100
AcDbLine
  8
0
 62
0
370
-1
  6
ByLayer
 10
1.78928
 20
0.723199
 30
0.0
 11
1.73383
 21
0.695856
 31
0.0
  0
LINE
  5
10E
100
AcDbEntity
100
AcDbLine
  8
0
 62
0
370
-1
  6
ByLayer
 10
1.73383
 20
0.695856
 30
0.0
 11
1.7164699999999999
 21
0.687825
 31
0.0
  0
LINE
  5
10F
100
AcDbEntity
100
AcDbLine
  8
0
 62
0
370
-1
  6
ByLayer
 10
1.7164699999999999
 20
0.687825
 30
0.0
 11
1.6998200000000001
 21
0.677626
 31
0.0
  0
LINE
  5
110
100
AcDbEntity
100
AcDbLine
  8
0
 62
0
370
-1
  6
ByLayer
 10
1.6998200000000001
 20
0.677626
 30
0.0
 11
1.6832100000000001
 21
0.667426
 31
0.0
  0
LINE
  5
111
100
AcDbEntity
100
AcDbLine
  8
0
 62
0
370
-1
  6
ByLayer
 10
1.6832100000000001
 20
0.667426
 30
0.0
 11
1.66581
 21
0.65956
 31
0.0
  0
LINE
  5
112
100
AcDbEntity
100
AcDbLine
  8
0
 62
0
370
-1
  6
ByLayer
 10
1.66581
 20
0.65956
 30
0.0
 11
1.64686
 21
0.65625
 31
0.0
  0
LINE
  5
113
100
AcDbEntity
100
AcDbLine
  8
0
 62
0
370
-1
  6
ByLayer
 10
1.64686
 20
0.65625
 30
0.0
 11
1.62565
 21
0.659668
 31
0.0
  0
LINE
  5
114
100
AcDbEntity
100
AcDbLine
  8
0
 62
0
370
-1
  6
ByLayer
 10
1.62565
 20
0.659668
 30
0.0
 11
1.60151
 21
0.672146
 31
0.0
  0
LINE
  5
115
100
AcDbEntity
100
AcDbLine
  8
0
 62
0
370
-1
  6
ByLayer
 10
1.60151
 20
0.672146
 30
0.0
 11
1.5735699999999999
 21
0.695856
 31
0.0
  0
LINE
  5
116
100
AcDbEntity
100
AcDbLine
  8
0
 62
0
370
-1
  6
ByLayer
 10
1.5735699999999999
 20
0.695856
 30
0.0
 11
1.53532
 21
0.624132
 31
0.0
  0
LINE
  5
117
100
AcDbEntity
100
AcDbLine
  8
0
 62
0
370
-1
  6
ByLayer
 10
1.53532
 20
0.624132
 30
0.0
 11
1.4919199999999999
 21
0.567871
 31
0.0
  0
LINE
  5
118
100
AcDbEntity
100
AcDbLine
  8
0
 62
0
370
-1
  6
ByLayer
 10
1.4919199999999999
 20
0.567871
 30
0.0
 11
1.4441200000000001
 21
0.524794
 31
0.0
  0
LINE
  5
119
100
AcDbEntity
100
AcDbLine
  8
0
 62
0
370
-1
  6
ByLayer
 10
1.4441200000000001
 20
0.524794
 30
0.0
 11
1.3927400000000001
 21
0.492512
 31
0.0
  0
LINE
  5
11A
100
AcDbEntity
100
AcDbLine
  8
0
 62
0
370
-1
  6
ByLayer
 10
1.3927400000000001
 20
0.492512
 30
0.0
 11
1.33284
 21
0.43674
 31
0.0
  0
LINE
  5
11B
100
AcDbEntity
100
AcDbLine
  8
0
 62
0
370
-1
  6
ByLayer
 10
1.33284
 20
0.43674
 30
0.0
 11
1.3041400000000001
 21
0.375597
 31
0.0
  0
LINE
  5
11C
100
AcDbEntity
100
AcDbLine
  8
0
 62
0
370
-1
  6
ByLayer
 10
1.3041400000000001
 20
0.375597
 30
0.0
 11
1.27024
 21
0.316786
 31
0.0
  0
LINE
  5
11D
100
AcDbEntity
100
AcDbLine
  8
0
 62
0
370
-1
  6
ByLayer
 10
1.27024
 20
0.316786
 30
0.0
 11
1.19482
 21
0.26785
 31
0.0
  0
LINE
  5
11E
100
AcDbEntity
100
AcDbLine
  8
0
 62
0
370
-1
  6
ByLayer
 10
1.19482
 20
0.26785
 30
0.0
 11
1.05979
 21
0.227051
 31
0.0
  0
LINE
  5
11F
100
AcDbEntity
100
AcDbLine
  8
0
 62
0
370
-1
  6
ByLayer
 10
1.05979
 20
0.227051
 30
0.0
 11
0.98649
 21
0.218153
 31
0.0
  0
LINE
  5
120
100
AcDbEntity
100
AcDbLine
  8
0
 62
0
370
-1
  6
ByLayer
 10
0.98649
 20
0.218153
 30
0.0
 11
0.912706
 21
0.224881
 31
0.0
  0
LINE
  5
121
100
AcDbEntity
100
AcDbLine
  8
0
 62
0
370
-1
  6
ByLayer
 10
0.912706
 20
0.224881
 30
0.0
 11
0.839518
 21
0.130642
 31
0.0
  0
LINE
  5
122
100
AcDbEntity
100
AcDbLine
  8
0
 62
0
370
-1
  6
ByLayer
 10
0.839518
 20
0.130642
 30
0.0
 11
0.862793
 21
0.0364583
 31
0.0
  0
LINE
  5
123
100
AcDbEntity
100
AcDbLine
  8
0
 62
0
370
-1
  6
ByLayer
 10
0.862793
 20
0.0364583
 30
0.0
 11
0.711806
 21
0.0123698
 31
0.0
  0
LINE
  5
124
100
AcDbEntity
100
AcDbLine
  8
0
 62
0
370
-1
  6
ByLayer
 10
0.711806
 20
0.0123698
 30
0.0
 11
0.775662
 21
0.101291
 31
0.0
  0
LINE
  5
125
100
AcDbEntity
100
AcDbLine
  8
0
 62
0
370
-1
  6
ByLayer
 10
0.775662
 20
0.101291
 30
0.0
 11
0.739692
 21
0.187175
 31
0.0
  0
LINE
  5
126
100
AcDbEntity
100
AcDbLine
  8
0
 62
0
370
-1
  6
ByLayer
 10
0.739692
 20
0.187175
 30
0.0
 11
0.631293
 21
0.176867
 31
0.0
  0
LINE
  5
127
100
AcDbEntity
100
AcDbLine
  8
0
 62
0
370
-1
  6
ByLayer
 10
0.631293
 20
0.176867
 30
0.0
 11
0.409397
 21
0.0278863
 31
0.0
  0
LINE
  5
128
100
AcDbEntity
100
AcDbLine
  8
0
 62
0
370
-1
  6
ByLayer
 10
0.409397
 20
0.0278863
 30
0.0
 11
0.409397
 21
0.0278863
 31
0.0
  0
LINE
  5
129
100
AcDbEntity
100
AcDbLine
  8
0
 62
1
420
16711680
370
-1
  6
ByLayer
 10
0.409397
 20
0.0278863
 30
0.0
 11
0.450304
 21
0.116536
 31
0.0
  0
LINE
  5
12A
100
AcDbEntity
100
AcDbLine
  8
0
 62
1
420
16711680
370
-1
  6
ByLayer
 10
0.450304
 20
0.116536
 30
0.0
 11
0.5036350000000001
 21
0.181694
 31
0.0
  0
LINE
  5
12B
100
AcDbEntity
100
AcDbLine
  8
0
 62
1
420
16711680
370
-1
  6
ByLayer
 10
0.5036350000000001
 20
0.181694
 30
0.0
 11
0.5638570000000001
 21
0.227051
 31
0.0
  0
LINE
  5
12C
100
AcDbEntity
100
AcDbLine
  8
0
 62
1
420
16711680
370
-1
  6
ByLayer
 10
0.5638570000000001
 20
0.227051
 30
0.0
 11
0.625433
 21
0.256076
 31
0.0
  0
LINE
  5
12D
100
AcDbEntity
100
AcDbLine
  8
0
 62
1
420
16711680
370
-1
  6
ByLayer
 10
0.625433
 20
0.256076
 30
0.0
 11
0.682889
 21
0.272461
 31
0.0
  0
LINE
  5
12E
100
AcDbEntity
100
AcDbLine
  8
0
 62
1
420
16711680
370
-1
  6
ByLayer
 10
0.682889
 20
0.272461
 30
0.0
 11
0.7307399999999999
 21
0.279676
 31
0.0
  0
LINE
  5
12F
100
AcDbEntity
100
AcDbLine
  8
0
 62
1
420
16711680
370
-1
  6
ByLayer
 10
0.7307399999999999
 20
0.279676
 30
0.0
 11
0.76351
 21
0.281412
 31
0.0
  0
LINE
  5
130
100
AcDbEntity
100
AcDbLine
  8
0
 62
1
420
16711680
370
-1
  6
ByLayer
 10
0.76351
 20
0.281412
 30
0.0
 11
0.775662
 21
0.281142
 31
0.0
  0
LINE
  5
131
100
AcDbEntity
100
AcDbLine
  8
0
 62
1
420
16711680
370
-1
  6
ByLayer
 10
0.775662
 20
0.281142
 30
0.0
 11
0.956218
 21
0.395617
 31
0.0
  0
LINE
  5
132
100
AcDbEntity
100
AcDbLine
  8
0
 62
1
420
16711680
370
-1
  6
ByLayer
 10
0.956218
 20
0.395617
 30
0.0
 11
0.931261
 21
0.533149
 31
0.0
  0
LINE
  5
133
100
AcDbEntity
100
AcDbLine
  8
0
 62
1
420
16711680
370
-1
  6
ByLayer
 10
0.931261
 20
0.533149
 30
0.0
 11
0.906087
 21
0.604546
 31
0.0
  0
LINE
  5
134
100
AcDbEntity
100
AcDbLine
  8
0
 62
1
420
16711680
370
-1
  6
ByLayer
 10
0.906087
 20
0.604546
 30
0.0
 11
0.896104
 21
0.682617
 31
0.0
  0
LINE
  5
135
100
AcDbEntity
100
AcDbLine
  8
0
 62
1
420
16711680
370
-1
  6
ByLayer
 10
0.896104
 20
0.682617
 30
0.0
 11
0.905817
 21
0.769476
 31
0.0
  0
LINE
  5
136
100
AcDbEntity
100
AcDbLine
  8
0
 62
1
420
16711680
370
-1
  6
ByLayer
 10
0.905817
 20
0.769476
 30
0.0
 11
0.939833
 21
0.867133
 31
0.0
  0
LINE
  5
137
100
AcDbEntity
100
AcDbLine
  8
0
 62
1
420
16711680
370
-1
  6
ByLayer
 10
0.939833
 20
0.867133
 30
0.0
 11
0.931261
 21
1.0041199999999999
 31
0.0
  0
LINE
  5
138
100
AcDbEntity
100
AcDbLine
  8
0
 62
1
420
16711680
370
-1
  6
ByLayer
 10
0.931261
 20
1.0041199999999999
 30
0.0
 11
0.8919280000000001
 21
0.9762380000000001
 31
0.0
  0
LINE
  5
139
100
AcDbEntity
100
AcDbLine
  8
0
 62
1
420
16711680
370
-1
  6
ByLayer
 10
0.8919280000000001
 20
0.9762380000000001
 30
0.0
 11
0.858128
 21
0.971625
 31
0.0
  0
LINE
  5
13A
100
AcDbEntity
100
AcDbLine
  8
0
 62
1
420
16711680
370
-1
  6
ByLayer
 10
0.858128
 20
0.971625
 30
0.0
 11
0.826606
 21
0.9768869999999999
 31
0.0
  0
LINE
  5
13B
100
AcDbEntity
100
AcDbLine
  8
0
 62
1
420
16711680
370
-1
  6
ByLayer
 10
0.826606
 20
0.9768869999999999
 30
0.0
 11
0.7942709999999999
 21
0.978461
 31
0.0
  0
LINE
  5
13C
100
AcDbEntity
100
AcDbLine
  8
0
 62
1
420
16711680
370
-1
  6
ByLayer
 10
0.7942709999999999
 20
0.978461
 30
0.0
 11
0.744792
 21
1.0015700000000001
 31
0.0
  0
LINE
  5
13D
100
AcDbEntity
100
AcDbLine
  8
0
 62
1
420
16711680
370
-1
  6
ByLayer
 10
0.744792
 20
1.0015700000000001
 30
0.0
 11
0.696072
 21
1.02637
 31
0.0
  0
LINE
  5
13E
100
AcDbEntity
100
AcDbLine
  8
0
 62
1
420
16711680
370
-1
  6
ByLayer
 10
0.696072
 20
1.02637
 30
0.0
 11
0.651421
 21
1.0614699999999999
 31
0.0
  0
LINE
  5
13F
100
AcDbEntity
100
AcDbLine
  8
0
 62
1
420
16711680
370
-1
  6
ByLayer
 10
0.651421
 20
1.0614699999999999
 30
0.0
 11
0.614421
 21
1.1154500000000001
 31
0.0
  0
LINE
  5
140
100
AcDbEntity
100
AcDbLine
  8
0
 62
1
420
16711680
370
-1
  6
ByLayer
 10
0.614421
 20
1.1154500000000001
 30
0.0
 11
0.578179
 21
1.16998
 31
0.0
  0
LINE
  5
141
100
AcDbEntity
100
AcDbLine
  8
0
 62
1
420
16711680
370
-1
  6
ByLayer
 10
0.578179
 20
1.16998
 30
0.0
 11
0.552735
 21
1.22184
 31
0.0
  0
LINE
  5
142
100
AcDbEntity
100
AcDbLine
  8
0
 62
1
420
16711680
370
-1
  6
ByLayer
 10
0.552735
 20
1.22184
 30
0.0
 11
0.534614
 21
1.27186
 31
0.0
  0
LINE
  5
143
100
AcDbEntity
100
AcDbLine
  8
0
 62
1
420
16711680
370
-1
  6
ByLayer
 10
0.534614
 20
1.27186
 30
0.0
 11
0.520236
 21
1.3210200000000001
 31
0.0
  0
LINE
  5
144
100
AcDbEntity
100
AcDbLine
  8
0
 62
1
420
16711680
370
-1
  6
ByLayer
 10
0.520236
 20
1.3210200000000001
 30
0.0
 11
0.5037430000000001
 21
1.4065700000000001
 31
0.0
  0
LINE
  5
145
100
AcDbEntity
100
AcDbLine
  8
0
 62
1
420
16711680
370
-1
  6
ByLayer
 10
0.5037430000000001
 20
1.4065700000000001
 30
0.0
 11
0.502875
 21
1.4796
 31
0.0
  0
LINE
  5
146
100
AcDbEntity
100
AcDbLine
  8
0
 62
1
420
16711680
370
-1
  6
ByLayer
 10
0.502875
 20
1.4796
 30
0.0
 11
0.512804
 21
1.54406
 31
0.0
  0
LINE
  5
147
100
AcDbEntity
100
AcDbLine
  8
0
 62
1
420
16711680
370
-1
  6
ByLayer
 10
0.512804
 20
1.54406
 30
0.0
 11
0.5288079999999999
 21
1.60362
 31
0.0
  0
LINE
  5
148
100
AcDbEntity
100
AcDbLine
  8
0
 62
1
420
16711680
370
-1
  6
ByLayer
 10
0.5288079999999999
 20
1.60362
 30
0.0
 11
0.482585
 21
1.6504399999999999
 31
0.0
  0
LINE
  5
149
100
AcDbEntity
100
AcDbLine
  8
0
 62
1
420
16711680
370
-1
  6
ByLayer
 10
0.482585
 20
1.6504399999999999
 30
0.0
 11
0.446778
 21
1.7058899999999999
 31
0.0
  0
LINE
  5
14A
100
AcDbEntity
100
AcDbLine
  8
0
 62
1
420
16711680
370
-1
  6
ByLayer
 10
0.446778
 20
1.7058899999999999
 30
0.0
 11
0.424154
 21
1.7722899999999999
 31
0.0
  0
LINE
  5
14B
100
AcDbEntity
100
AcDbLine
  8
0
 62
1
420
16711680
370
-1
  6
ByLayer
 10
0.424154
 20
1.7722899999999999
 30
0.0
 11
0.417481
 21
1.8519399999999999
 31
0.0
  0
LINE
  5
14C
100
AcDbEntity
100
AcDbLine
  8
0
 62
1
420
16711680
370
-1
  6
ByLayer
 10
0.417481
 20
1.8519399999999999
 30
0.0
 11
0.460667
 21
2.21061
 31
0.0
  0
LINE
  5
14D
100
AcDbEntity
100
AcDbLine
  8
0
 62
1
420
16711680
370
-1
  6
ByLayer
 10
0.460667
 20
2.21061
 30
0.0
 11
0.438639
 21
2.4156900000000001
 31
0.0
  0
LINE
  5
14E
100
AcDbEntity
100
AcDbLine
  8
0
 62
1
420
16711680
370
-1
  6
ByLayer
 10
0.438639
 20
2.4156900000000001
 30
0.0
 11
0.442437
 21
2.6574399999999998
 31
0.0
  0
LINE
  5
14F
100
AcDbEntity
100
AcDbLine
  8
0
 62
1
420
16711680
370
-1
  6
ByLayer
 10
0.442437
 20
2.6574399999999998
 30
0.0
 11
0.348958
 21
2.7597100000000001
 31
0.0
  0
LINE
  5
150
100
AcDbEntity
100
AcDbLine
  8
0
 62
1
420
16711680
370
-1
  6
ByLayer
 10
0.348958
 20
2.7597100000000001
 30
0.0
 11
0.315972
 21
2.7712599999999998
 31
0.0
  0
LINE
  5
151
100
AcDbEntity
100
AcDbLine
  8
0
 62
1
420
16711680
370
-1
  6
ByLayer
 10
0.315972
 20
2.7712599999999998
 30
0.0
 11
0.282986
 21
2.7614399999999999
 31
0.0
  0
LINE
  5
152
100
AcDbEntity
100
AcDbLine
  8
0
 62
1
420
16711680
370
-1
  6
ByLayer
 10
0.282986
 20
2.7614399999999999
 30
0.0
 11
0.25
 21
2.7390400000000001
 31
0.0
  0
LINE
  5
153
100
AcDbEntity
100
AcDbLine
  8
0
 62
1
420
16711680
370
-1
  6
ByLayer
 10
0.25
 20
2.7390400000000001
 30
0.0
 11
0.217068
 21
2.71272
 31
0.0
  0
LINE
  5
154
100
AcDbEntity
100
AcDbLine
  8
0
 62
1
420
16711680
370
-1
  6
ByLayer
 10
0.217068
 20
2.71272
 30
0.0
 11
0.19515
 21
2.7537500000000001
 31
0.0
  0
LINE
  5
155
100
AcDbEntity
100
AcDbLine
  8
0
 62
1
420
16711680
370
-1
  6
ByLayer
 10
0.19515
 20
2.7537500000000001
 30
0.0
 11
0.171713
 21
2.7809699999999999
 31
0.0
  0
LINE
  5
156
100
AcDbEntity
100
AcDbLine
  8
0
 62
1
420
16711680
370
-1
  6
ByLayer
 10
0.171713
 20
2.7809699999999999
 30
0.0
 11
0.147081
 21
2.7974700000000001
 31
0.0
  0
LINE
  5
157
100
AcDbEntity
100
AcDbLine
  8
0
 62
1
420
16711680
370
-1
  6
ByLayer
 10
0.147081
 20
2.7974700000000001
 30
0.0
 11
0.121636
 21
2.80647
 31
0.0
  0
LINE
  5
158
100
AcDbEntity
100
AcDbLine
  8
0
 62
1
420
16711680
370
-1
  6
ByLayer
 10
0.121636
 20
2.80647
 30
0.0
 11
0.0957031
 21
2.8110400000000002
 31
0.0
  0
LINE
  5
159
100
AcDbEntity
100
AcDbLine
  8
0
 62
1
420
16711680
370
-1
  6
ByLayer
 10
0.0957031
 20
2.8110400000000002
 30
0.0
 11
0.0696072
 21
2.8142399999999999
 31
0.0
  0
LINE
  5
15A
100
AcDbEntity
100
AcDbLine
  8
0
 62
1
420
16711680
370
-1
  6
ByLayer
 10
0.0696072
 20
2.8142399999999999
 30
0.0
 11
0.0437283
 21
2.81928
 31
0.0
  0
LINE
  5
15B
100
AcDbEntity
100
AcDbLine
  8
0
 62
1
420
16711680
370
-1
  6
ByLayer
 10
0.0437283
 20
2.81928
 30
0.0
 11
0.0183919
 21
2.8292099999999998
 31
0.0
  0
LINE
  5
15C
100
AcDbEntity
100
AcDbLine
  8
0
 62
1
420
16711680
370
-1
  6
ByLayer
 10
0.0183919
 20
2.8292099999999998
 30
0.0
 11
0.147894
 21
2.9055399999999998
 31
0.0
  0
LINE
  5
15D
100
AcDbEntity
100
AcDbLine
  8
0
 62
1
420
16711680
370
-1
  6
ByLayer
 10
0.147894
 20
2.9055399999999998
 30
0.0
 11
0.219781
 21
2.9772099999999999
 31
0.0
  0
LINE
  5
15E
100
AcDbEntity
100
AcDbLine
  8
0
 62
1
420
16711680
370
-1
  6
ByLayer
 10
0.219781
 20
2.9772099999999999
 30
0.0
 11
0.196289
 21
3.0145400000000002
 31
0.0
  0
LINE
  5
15F
100
AcDbEntity
100
AcDbLine
  8
0
 62
1
420
16711680
370
-1
  6
ByLayer
 10
0.196289
 20
3.0145400000000002
 30
0.0
 11
0.18929
 21
3.0576099999999999
 31
0.0
  0
LINE
  5
160
100
AcDbEntity
100
AcDbLine
  8
0
 62
1
420
16711680
370
-1
  6
ByLayer
 10
0.18929
 20
3.0576099999999999
 30
0.0
 11
0.183376
 21
3.10704
 31
0.0
  0
LINE
  5
161
100
AcDbEntity
100
AcDbLine
  8
0
 62
1
420
16711680
370
-1
  6
ByLayer
 10
0.183376
 20
3.10704
 30
0.0
 11
0.163303
 21
3.1631399999999998
 31
0.0
  0
LINE
  5
162
100
AcDbEntity
100
AcDbLine
  8
0
 62
1
420
16711680
370
-1
  6
ByLayer
 10
0.163303
 20
3.1631399999999998
 30
0.0
 11
0.167156
 21
3.27013
 31
0.0
  0
LINE
  5
163
100
AcDbEntity
100
AcDbLine
  8
0
 62
1
420
16711680
370
-1
  6
ByLayer
 10
0.167156
 20
3.27013
 30
0.0
 11
0.210721
 21
3.2987199999999999
 31
0.0
  0
LINE
  5
164
100
AcDbEntity
100
AcDbLine
  8
0
 62
1
420
16711680
370
-1
  6
ByLayer
 10
0.210721
 20
3.2987199999999999
 30
0.0
 11
0.26785
 21
3.3147799999999998
 31
0.0
  0
LINE
  5
165
100
AcDbEntity
100
AcDbLine
  8
0
 62
1
420
16711680
370
-1
  6
ByLayer
 10
0.26785
 20
3.3147799999999998
 30
0.0
 11
0.315701
 21
3.3242799999999999
 31
0.0
  0
LINE
  5
166
100
AcDbEntity
100
AcDbLine
  8
0
 62
1
420
16711680
370
-1
  6
ByLayer
 10
0.315701
 20
3.3242799999999999
 30
0.0
 11
0.358615
 21
3.32362
 31
0.0
  0
LINE
  5
167
100
AcDbEntity
100
AcDbLine
  8
0
 62
1
420
16711680
370
-1
  6
ByLayer
 10
0.358615
 20
3.32362
 30
0.0
 11
0.400771
 21
3.3090299999999999
 31
0.0
  0
LINE
  5
168
100
AcDbEntity
100
AcDbLine
  8
0
 62
1
420
16711680
370
-1
  6
ByLayer
 10
0.400771
 20
3.3090299999999999
 30
0.0
 11
0.446506
 21
3.2768600000000001
 31
0.0
  0
LINE
  5
169
100
AcDbEntity
100
AcDbLine
  8
0
 62
1
420
16711680
370
-1
  6
ByLayer
 10
0.446506
 20
3.2768600000000001
 30
0.0
 11
0.500108
 21
3.22342
 31
0.0
  0
LINE
  5
16A
100
AcDbEntity
100
AcDbLine
  8
0
 62
1
420
16711680
370
-1
  6
ByLayer
 10
0.500108
 20
3.22342
 30
0.0
 11
0.565756
 21
3.1450100000000001
 31
0.0
  0
LINE
  5
16B
100
AcDbEntity
100
AcDbLine
  8
0
 62
1
420
16711680
370
-1
  6
ByLayer
 10
0.565756
 20
3.1450100000000001
 30
0.0
 11
0.647894
 21
3.0378799999999999
 31
0.0
  0
LINE
  5
16C
100
AcDbEntity
100
AcDbLine
  8
0
 62
1
420
16711680
370
-1
  6
ByLayer
 10
0.647894
 20
3.0378799999999999
 30
0.0
 11
0.6694870000000001
 21
2.8823799999999999
 31
0.0
  0
LINE
  5
16D
100
AcDbEntity
100
AcDbLine
  8
0
 62
1
420
16711680
370
-1
  6
ByLayer
 10
0.6694870000000001
 20
2.8823799999999999
 30
0.0
 11
0.73725
 21
2.7544400000000002
 31
0.0
  0
LINE
  5
16E
100
AcDbEntity
100
AcDbLine
  8
0
 62
1
420
16711680
370
-1
  6
ByLayer
 10
0.73725
 20
2.7544400000000002
 30
0.0
 11
0.824164
 21
2.6454599999999999
 31
0.0
  0
LINE
  5
16F
100
AcDbEntity
100
AcDbLine
  8
0
 62
1
420
16711680
370
-1
  6
ByLayer
 10
0.824164
 20
2.6454599999999999
 30
0.0
 11
0.903429
 21
2.5468199999999999
 31
0.0
  0
LINE
  5
170
100
AcDbEntity
100
AcDbLine
  8
0
 62
1
420
16711680
370
-1
  6
ByLayer
 10
0.903429
 20
2.5468199999999999
 30
0.0
 11
0.9723850000000001
 21
2.37582
 31
0.0
  0
LINE
  5
171
100
AcDbEntity
100
AcDbLine
  8
0
 62
1
420
16711680
370
-1
  6
ByLayer
 10
0.9723850000000001
 20
2.37582
 30
0.0
 11
1.0041800000000001
 21
2.34076
 31
0.0
  0
LINE
  5
172
100
AcDbEntity
100
AcDbLine
  8
0
 62
1
420
16711680
370
-1
  6
ByLayer
 10
1.0041800000000001
 20
2.34076
 30
0.0
 11
1.04758
 21
2.31711
 31
0.0
  0
LINE
  5
173
100
AcDbEntity
100
AcDbLine
  8
0
 62
1
420
16711680
370
-1
  6
ByLayer
 10
1.04758
 20
2.31711
 30
0.0
 11
1.0909800000000001
 21
2.29758
 31
0.0
  0
LINE
  5
174
100
AcDbEntity
100
AcDbLine
  8
0
 62
1
420
16711680
370
-1
  6
ByLayer
 10
1.0909800000000001
 20
2.29758
 30
0.0
 11
1.12283
 21
2.27474
 31
0.0
  0
LINE
  5
175
100
AcDbEntity
100
AcDbLine
  8
0
 62
1
420
16711680
370
-1
  6
ByLayer
 10
1.12283
 20
2.27474
 30
0.0
 11
1.20475
 21
2.2458200000000001
 31
0.0
  0
LINE
  5
176
100
AcDbEntity
100
AcDbLine
  8
0
 62
1
420
16711680
370
-1
  6
ByLayer
 10
1.20475
 20
2.2458200000000001
 30
0.0
 11
1.29199
 21
2.22065
 31
0.0
  0
LINE
  5
177
100
AcDbEntity
100
AcDbLine
  8
0
 62
1
420
16711680
370
-1
  6
ByLayer
 10
1.29199
 20
2.22065
 30
0.0
 11
1.3834599999999999
 21
2.1697600000000001
 31
0.0
  0
LINE
  5
178
100
AcDbEntity
100
AcDbLine
  8
0
 62
1
420
16711680
370
-1
  6
ByLayer
 10
1.3834599999999999
 20
2.1697600000000001
 30
0.0
 11
1.47831
 21
2.06358
 31
0.0
  0
LINE
  5
179
100
AcDbEntity
100
AcDbLine
  8
0
 62
1
420
16711680
370
-1
  6
ByLayer
 10
1.47831
 20
2.06358
 30
0.0
 11
1.62076
 21
2.1440999999999999
 31
0.0
  0
LINE
  5
17A
100
AcDbEntity
100
AcDbLine
  8
0
 62
1
420
16711680
370
-1
  6
ByLayer
 10
1.62076
 20
2.1440999999999999
 30
0.0
 11
1.77908
 21
2.1516899999999999
 31
0.0
  0
LINE
  5
17B
100
AcDbEntity
100
AcDbLine
  8
0
 62
1
420
16711680
370
-1
  6
ByLayer
 10
1.77908
 20
2.1516899999999999
 30
0.0
 11
1.70139
 21
2.2669299999999999
 31
0.0
  0
LINE
  5
17C
100
AcDbEntity
100
AcDbLine
  8
0
 62
1
420
16711680
370
-1
  6
ByLayer
 10
1.70139
 20
2.2669299999999999
 30
0.0
 11
1.6677500000000001
 21
2.4085800000000002
 31
0.0
  0
LINE
  5
17D
100
AcDbEntity
100
AcDbLine
  8
0
 62
1
420
16711680
370
-1
  6
ByLayer
 10
1.6677500000000001
 20
2.4085800000000002
 30
0.0
 11
1.6811499999999999
 21
2.4851399999999999
 31
0.0
  0
LINE
  5
17E
100
AcDbEntity
100
AcDbLine
  8
0
 62
1
420
16711680
370
-1
  6
ByLayer
 10
1.6811499999999999
 20
2.4851399999999999
 30
0.0
 11
1.7016100000000001
 21
2.5545300000000002
 31
0.0
  0
LINE
  5
17F
100
AcDbEntity
100
AcDbLine
  8
0
 62
1
420
16711680
370
-1
  6
ByLayer
 10
1.7016100000000001
 20
2.5545300000000002
 30
0.0
 11
1.7329600000000001
 21
2.61307
 31
0.0
  0
LINE
  5
180
100
AcDbEntity
100
AcDbLine
  8
0
 62
1
420
16711680
370
-1
  6
ByLayer
 10
1.7329600000000001
 20
2.61307
 30
0.0
 11
1.77908
 21
2.6568999999999998
 31
0.0
  0
LINE
  5
181
100
AcDbEntity
100
AcDbLine
  8
0
 62
1
420
16711680
370
-1
  6
ByLayer
 10
1.77908
 20
2.6568999999999998
 30
0.0
 11
1.9503600000000001
 21
2.7853699999999999
 31
0.0
  0
LINE
  5
182
100
AcDbEntity
100
AcDbLine
  8
0
 62
1
420
16711680
370
-1
  6
ByLayer
 10
1.9503600000000001
 20
2.7853699999999999
 30
0.0
 11
1.9075599999999999
 21
2.5284900000000001
 31
0.0
  0
LINE
  5
183
100
AcDbEntity
100
AcDbLine
  8
0
 62
1
420
16711680
370
-1
  6
ByLayer
 10
1.9075599999999999
 20
2.5284900000000001
 30
0.0
 11
1.9983200000000001
 21
2.6600000000000001
 31
0.0
  0
LINE
  5
184
100
AcDbEntity
100
AcDbLine
  8
0
 62
1
420
16711680
370
-1
  6
ByLayer
 10
1.9983200000000001
 20
2.6600000000000001
 30
0.0
 11
2.1170800000000001
 21
2.7853699999999999
 31
0.0
  0
LINE
  5
185
100
AcDbEntity
100
AcDbLine
  8
0
 62
1
420
16711680
370
-1
  6
ByLayer
 10
2.1170800000000001
 20
2.7853699999999999
 30
0.0
 11
2.0758999999999999
 21
2.59674
 31
0.0
  0
LINE
  5
186
100
AcDbEntity
100
AcDbLine
  8
0
 62
1
420
16711680
370
-1
  6
ByLayer
 10
2.0758999999999999
 20
2.59674
 30
0.0
 11
2.0359699999999998
 21
2.4397199999999999
 31
0.0
  0
LINE
  5
187
100
AcDbEntity
100
AcDbLine
  8
0
 62
1
420
16711680
370
-1
  6
ByLayer
 10
2.0359699999999998
 20
2.4397199999999999
 30
0.0
 11
2.24485
 21
2.71685
 31
0.0
  0
LINE
  5
188
100
AcDbEntity
100
AcDbLine
  8
0
 62
1
420
16711680
370
-1
  6
ByLayer
 10
2.24485
 20
2.71685
 30
0.0
 11
2.2398099999999999
 21
2.5157400000000001
 31
0.0
  0
LINE
  5
189
100
AcDbEntity
100
AcDbLine
  8
0
 62
1
420
16711680
370
-1
  6
ByLayer
 10
2.2398099999999999
 20
2.5157400000000001
 30
0.0
 11
2.3726099999999999
 21
2.3400599999999998
 31
0.0
  0
LINE
  5
18A
100
AcDbEntity
100
AcDbLine
  8
0
 62
1
420
16711680
370
-1
  6
ByLayer
 10
2.3726099999999999
 20
2.3400599999999998
 30
0.0
 11
2.3886099999999999
 21
2.2595999999999998
 31
0.0
  0
LINE
  5
18B
100
AcDbEntity
100
AcDbLine
  8
0
 62
1
420
16711680
370
-1
  6
ByLayer
 10
2.3886099999999999
 20
2.2595999999999998
 30
0.0
 11
2.4164400000000001
 21
2.1990599999999998
 31
0.0
  0
LINE
  5
18C
100
AcDbEntity
100
AcDbLine
  8
0
 62
1
420
16711680
370
-1
  6
ByLayer
 10
2.4164400000000001
 20
2.1990599999999998
 30
0.0
 11
2.4542600000000001
 21
2.1555399999999998
 31
0.0
  0
LINE
  5
18D
100
AcDbEntity
100
AcDbLine
  8
0
 62
1
420
16711680
370
-1
  6
ByLayer
 10
2.4542600000000001
 20
2.1555399999999998
 30
0.0
 11
2.5003700000000002
 21
2.1259700000000001
 31
0.0
  0
LINE
  5
18E
100
AcDbEntity
100
AcDbLine
  8
0
 62
1
420
16711680
370
-1
  6
ByLayer
 10
2.5003700000000002
 20
2.1259700000000001
 30
0.0
 11
2.5583800000000001
 21
2.0232199999999998
 31
0.0
  0
LINE
  5
18F
100
AcDbEntity
100
AcDbLine
  8
0
 62
1
420
16711680
370
-1
  6
ByLayer
 10
2.5583800000000001
 20
2.0232199999999998
 30
0.0
 11
2.4928900000000001
 21
1.9151499999999999
 31
0.0
  0
LINE
  5
190
100
AcDbEntity
100
AcDbLine
  8
0
 62
1
420
16711680
370
-1
  6
ByLayer
 10
2.4928900000000001
 20
1.9151499999999999
 30
0.0
 11
2.4812799999999999
 21
1.80094
 31
0.0
  0
LINE
  5
191
100
AcDbEntity
100
AcDbLine
  8
0
 62
1
420
16711680
370
-1
  6
ByLayer
 10
2.4812799999999999
 20
1.80094
 30
0.0
 11
2.4727100000000002
 21
1.6731799999999999
 31
0.0
  0
LINE
  5
192
100
AcDbEntity
100
AcDbLine
  8
0
 62
1
420
16711680
370
-1
  6
ByLayer
 10
2.4727100000000002
 20
1.6731799999999999
 30
0.0
 11
2.5189900000000001
 21
1.6380300000000001
 31
0.0
  0
LINE
  5
193
100
AcDbEntity
100
AcDbLine
  8
0
 62
1
420
16711680
370
-1
  6
ByLayer
 10
2.5189900000000001
 20
1.6380300000000001
 30
0.0
 11
2.5590299999999999
 21
1.58724
 31
0.0
  0
LINE
  5
194
100
AcDbEntity
100
AcDbLine
  8
0
 62
1
420
16711680
370
-1
  6
ByLayer
 10
2.5590299999999999
 20
1.58724
 30
0.0
 11
2.5947800000000001
 21
1.5256700000000001
 31
0.0
  0
LINE
  5
195
100
AcDbEntity
100
AcDbLine
  8
0
 62
1
420
16711680
370
-1
  6
ByLayer
 10
2.5947800000000001
 20
1.5256700000000001
 30
0.0
 11
2.6281500000000002
 21
1.45801
 31
0.0
  0
LINE
  5
196
100
AcDbEntity
100
AcDbLine
  8
0
 62
1
420
16711680
370
-1
  6
ByLayer
 10
2.6281500000000002
 20
1.45801
 30
0.0
 11
2.5926100000000001
 21
1.3124499999999999
 31
0.0
  0
LINE
  5
197
100
AcDbEntity
100
AcDbLine
  8
0
 62
1
420
16711680
370
-1
  6
ByLayer
 10
2.5926100000000001
 20
1.3124499999999999
 30
0.0
 11
2.4727100000000002
 21
1.2696400000000001
 31
0.0
  0
LINE
  5
198
100
AcDbEntity
100
AcDbLine
  8
0
 62
1
420
16711680
370
-1
  6
ByLayer
 10
2.4727100000000002
 20
1.2696400000000001
 30
0.0
 11
2.3871000000000002
 21
1.14117
 31
0.0
  0
LINE
  5
199
100
AcDbEntity
100
AcDbLine
  8
0
 62
1
420
16711680
370
-1
  6
ByLayer
 10
2.3871000000000002
 20
1.14117
 30
0.0
 11
2.3859599999999999
 21
1.0876699999999999
 31
0.0
  0
LINE
  5
19A
100
AcDbEntity
100
AcDbLine
  8
0
 62
1
420
16711680
370
-1
  6
ByLayer
 10
2.3859599999999999
 20
1.0876699999999999
 30
0.0
 11
2.3990800000000001
 21
1.0381899999999999
 31
0.0
  0
LINE
  5
19B
100
AcDbEntity
100
AcDbLine
  8
0
 62
1
420
16711680
370
-1
  6
ByLayer
 10
2.3990800000000001
 20
1.0381899999999999
 30
0.0
 11
2.4275699999999998
 21
0.99311
 31
0.0
  0
LINE
  5
19C
100
AcDbEntity
100
AcDbLine
  8
0
 62
1
420
16711680
370
-1
  6
ByLayer
 10
2.4275699999999998
 20
0.99311
 30
0.0
 11
2.4727100000000002
 21
0.952746
 31
0.0
  0
LINE
  5
19D
100
AcDbEntity
100
AcDbLine
  8
0
 62
1
420
16711680
370
-1
  6
ByLayer
 10
2.4727100000000002
 20
0.952746
 30
0.0
 11
2.5926100000000001
 21
0.807183
 31
0.0
  0
LINE
  5
19E
100
AcDbEntity
100
AcDbLine
  8
0
 62
1
420
16711680
370
-1
  6
ByLayer
 10
2.5926100000000001
 20
0.807183
 30
0.0
 11
2.6525599999999998
 21
0.678711
 31
0.0
  0
LINE
  5
19F
100
AcDbEntity
100
AcDbLine
  8
0
 62
1
420
16711680
370
-1
  6
ByLayer
 10
2.6525599999999998
 20
0.678711
 30
0.0
 11
2.7210800000000002
 21
0.421821
 31
0.0
  0
LINE
  5
1A0
100
AcDbEntity
100
AcDbLine
  8
0
 62
1
420
16711680
370
-1
  6
ByLayer
 10
2.7210800000000002
 20
0.421821
 30
0.0
 11
2.7558600000000002
 21
0.298014
 31
0.0
  0
LINE
  5
1A1
100
AcDbEntity
100
AcDbLine
  8
0
 62
1
420
16711680
370
-1
  6
ByLayer
 10
2.7558600000000002
 20
0.298014
 30
0.0
 11
2.7625799999999998
 21
0.333333
 31
0.0
  0
LINE
  5
1A2
100
AcDbEntity
100
AcDbLine
  8
0
 62
1
420
16711680
370
-1
  6
ByLayer
 10
2.7625799999999998
 20
0.333333
 30
0.0
 11
2.7707799999999998
 21
0.358507
 31
0.0
  0
LINE
  5
1A3
100
AcDbEntity
100
AcDbLine
  8
0
 62
1
420
16711680
370
-1
  6
ByLayer
 10
2.7707799999999998
 20
0.358507
 30
0.0
 11
2.7800600000000002
 21
0.375706
 31
0.0
  0
LINE
  5
1A4
100
AcDbEntity
100
AcDbLine
  8
0
 62
1
420
16711680
370
-1
  6
ByLayer
 10
2.7800600000000002
 20
0.375706
 30
0.0
 11
2.7902100000000001
 21
0.387261
 31
0.0
  0
LINE
  5
1A5
100
AcDbEntity
100
AcDbLine
  8
0
 62
1
420
16711680
370
-1
  6
ByLayer
 10
2.7902100000000001
 20
0.387261
 30
0.0
 11
2.8008299999999999
 21
0.3954
 31
0.0
  0
LINE
  5
1A6
100
AcDbEntity
100
AcDbLine
  8
0
 62
1
420
16711680
370
-1
  6
ByLayer
 10
2.8008299999999999
 20
0.3954
 30
0.0
 11
2.8115800000000002
 21
0.402399
 31
0.0
  0
LINE
  5
1A7
100
AcDbEntity
100
AcDbLine
  8
0
 62
1
420
16711680
370
-1
  6
ByLayer
 10
2.8115800000000002
 20
0.402399
 30
0.0
 11
2.8222100000000001
 21
0.410428
 31
0.0
  0
LINE
  5
1A8
100
AcDbEntity
100
AcDbLine
  8
0
 62
1
420
16711680
370
-1
  6
ByLayer
 10
2.8222100000000001
 20
0.410428
 30
0.0
 11
2.8324199999999999
 21
0.421821
 31
0.0
  0
LINE
  5
1A9
100
AcDbEntity
100
AcDbLine
  8
0
 62
1
420
16711680
370
-1
  6
ByLayer
 10
2.8324199999999999
 20
0.421821
 30
0.0
 11
2.9220999999999999
 21
0.435113
 31
0.0
  0
LINE
  5
1AA
100
AcDbEntity
100
AcDbLine
  8
0
 62
1
420
16711680
370
-1
  6
ByLayer
 10
2.9220999999999999
 20
0.435113
 30
0.0
 11
2.9998300000000002
 21
0.415582
 31
0.0
  0
LINE
  5
1AB
100
AcDbEntity
100
AcDbLine
  8
0
 62
1
420
16711680
370
-1
  6
ByLayer
 10
2.9998300000000002
 20
0.415582
 30
0.0
 11
3.06392
 21
0.386882
 31
0.0
  0
LINE
  5
1AC
100
AcDbEntity
100
AcDbLine
  8
0
 62
1
420
16711680
370
-1
  6
ByLayer
 10
3.06392
 20
0.386882
 30
0.0
 11
3.1125699999999998
 21
0.372613
 31
0.0
  0
LINE
  5
1AD
100
AcDbEntity
100
AcDbLine
  8
0
 62
1
420
16711680
370
-1
  6
ByLayer
 10
3.1125699999999998
 20
0.372613
 30
0.0
 11
3.0943499999999999
 21
0.36556
 31
0.0
  0
LINE
  5
1AE
100
AcDbEntity
100
AcDbLine
  8
0
 62
1
420
16711680
370
-1
  6
ByLayer
 10
3.0943499999999999
 20
0.36556
 30
0.0
 11
3.0699299999999998
 21
0.363172
 31
0.0
  0
LINE
  5
1AF
100
AcDbEntity
100
AcDbLine
  8
0
 62
1
420
16711680
370
-1
  6
ByLayer
 10
3.0699299999999998
 20
0.363172
 30
0.0
 11
3.0417200000000002
 21
0.363499
 31
0.0
  0
LINE
  5
1B0
100
AcDbEntity
100
AcDbLine
  8
0
 62
1
420
16711680
370
-1
  6
ByLayer
 10
3.0417200000000002
 20
0.363499
 30
0.0
 11
3.0121500000000001
 21
0.364692
 31
0.0
  0
LINE
  5
1B1
100
AcDbEntity
100
AcDbLine
  8
0
 62
1
420
16711680
370
-1
  6
ByLayer
 10
3.0121500000000001
 20
0.364692
 30
0.0
 11
2.9835600000000002
 21
0.364963
 31
0.0
  0
LINE
  5
1B2
100
AcDbEntity
100
AcDbLine
  8
0
 62
1
420
16711680
370
-1
  6
ByLayer
 10
2.9835600000000002
 20
0.364963
 30
0.0
 11
2.9583300000000001
 21
0.362304
 31
0.0
  0
LINE
  5
1B3
100
AcDbEntity
100
AcDbLine
  8
0
 62
1
420
16711680
370
-1
  6
ByLayer
 10
2.9583300000000001
 20
0.362304
 30
0.0
 11
2.93892
 21
0.354872
 31
0.0
  0
LINE
  5
1B4
100
AcDbEntity
100
AcDbLine
  8
0
 62
1
420
16711680
370
-1
  6
ByLayer
 10
2.93892
 20
0.354872
 30
0.0
 11
2.9276800000000001
 21
0.340821
 31
0.0
  0
LINE
  5
1B5
100
AcDbEntity
100
AcDbLine
  8
0
 62
1
420
16711680
370
-1
  6
ByLayer
 10
2.9276800000000001
 20
0.340821
 30
0.0
 11
2.91812
 21
0.333117
 31
0.0
  0
LINE
  5
1B6
100
AcDbEntity
100
AcDbLine
  8
0
 62
1
420
16711680
370
-1
  6
ByLayer
 10
2.91812
 20
0.333117
 30
0.0
 11
2.8967499999999999
 21
0.326335
 31
0.0
  0
LINE
  5
1B7
100
AcDbEntity
100
AcDbLine
  8
0
 62
1
420
16711680
370
-1
  6
ByLayer
 10
2.8967499999999999
 20
0.326335
 30
0.0
 11
2.8713099999999998
 21
0.31939
 31
0.0
  0
LINE
  5
1B8
100
AcDbEntity
100
AcDbLine
  8
0
 62
1
420
16711680
370
-1
  6
ByLayer
 10
2.8713099999999998
 20
0.31939
 30
0.0
 11
2.8494999999999999
 21
0.311089
 31
0.0
  0
LINE
  5
1B9
100
AcDbEntity
100
AcDbLine
  8
0
 62
1
420
16711680
370
-1
  6
ByLayer
 10
2.8494999999999999
 20
0.311089
 30
0.0
 11
2.8389199999999999
 21
0.300347
 31
0.0
  0
LINE
  5
1BA
100
AcDbEntity
100
AcDbLine
  8
0
 62
1
420
16711680
370
-1
  6
ByLayer
 10
2.8389199999999999
 20
0.300347
 30
0.0
 11
2.8474400000000002
 21
0.286025
 31
0.0
  0
LINE
  5
1BB
100
AcDbEntity
100
AcDbLine
  8
0
 62
1
420
16711680
370
-1
  6
ByLayer
 10
2.8474400000000002
 20
0.286025
 30
0.0
 11
2.8826499999999999
 21
0.266982
 31
0.0
  0
LINE
  5
1BC
100
AcDbEntity
100
AcDbLine
  8
0
 62
1
420
16711680
370
-1
  6
ByLayer
 10
2.8826499999999999
 20
0.266982
 30
0.0
 11
2.9523100000000002
 21
0.241971
 31
0.0
  0
LINE
  5
1BD
100
AcDbEntity
100
AcDbLine
  8
0
 62
1
420
16711680
370
-1
  6
ByLayer
 10
2.9523100000000002
 20
0.241971
 30
0.0
 11
3.0893099999999998
 21
0.224881
 31
0.0
  0
LINE
  5
1BE
100
AcDbEntity
100
AcDbLine
  8
0
 62
1
420
16711680
370
-1
  6
ByLayer
 10
3.0893099999999998
 20
0.224881
 30
0.0
 11
3.1749700000000001
 21
0.224881
 31
0.0
  0
LINE
  5
1BF
100
AcDbEntity
100
AcDbLine
  8
0
 62
1
420
16711680
370
-1
  6
ByLayer
 10
3.1749700000000001
 20
0.224881
 30
0.0
 11
3.1585299999999998
 21
0.214681
 31
0.0
  0
LINE
  5
1C0
100
AcDbEntity
100
AcDbLine
  8
0
 62
1
420
16711680
370
-1
  6
ByLayer
 10
3.1585299999999998
 20
0.214681
 30
0.0
 11
3.14751
 21
0.204969
 31
0.0
  0
LINE
  5
1C1
100
AcDbEntity
100
AcDbLine
  8
0
 62
1
420
16711680
370
-1
  6
ByLayer
 10
3.14751
 20
0.204969
 30
0.0
 11
3.1385700000000001
 21
0.195475
 31
0.0
  0
LINE
  5
1C2
100
AcDbEntity
100
AcDbLine
  8
0
 62
1
420
16711680
370
-1
  6
ByLayer
 10
3.1385700000000001
 20
0.195475
 30
0.0
 11
3.1284700000000001
 21
0.185872
 31
0.0
  0
LINE
  5
1C3
100
AcDbEntity
100
AcDbLine
  8
0
 62
1
420
16711680
370
-1
  6
ByLayer
 10
3.1284700000000001
 20
0.185872
 30
0.0
 11
3.1139299999999999
 21
0.175836
 31
0.0
  0
LINE
  5
1C4
100
AcDbEntity
100
AcDbLine
  8
0
 62
1
420
16711680
370
-1
  6
ByLayer
 10
3.1139299999999999
 20
0.175836
 30
0.0
 11
3.0917400000000002
 21
0.165093
 31
0.0
  0
LINE
  5
1C5
100
AcDbEntity
100
AcDbLine
  8
0
 62
1
420
16711680
370
-1
  6
ByLayer
 10
3.0917400000000002
 20
0.165093
 30
0.0
 11
3.0586500000000001
 21
0.153267
 31
0.0
  0
LINE
  5
1C6
100
AcDbEntity
100
AcDbLine
  8
0
 62
1
420
16711680
370
-1
  6
ByLayer
 10
3.0586500000000001
 20
0.153267
 30
0.0
 11
3.01139
 21
0.140082
 31
0.0
  0
LINE
  5
1C7
100
AcDbEntity
100
AcDbLine
  8
0
 62
1
420
16711680
370
-1
  6
ByLayer
 10
3.01139
 20
0.140082
 30
0.0
 11
2.9009299999999998
 21
0.156358
 31
0.0
  0
LINE
  5
1C8
100
AcDbEntity
100
AcDbLine
  8
0
 62
1
420
16711680
370
-1
  6
ByLayer
 10
2.9009299999999998
 20
0.156358
 30
0.0
 11
2.90625
 21
0.134983
 31
0.0
  0
LINE
  5
1C9
100
AcDbEntity
100
AcDbLine
  8
0
 62
1
420
16711680
370
-1
  6
ByLayer
 10
2.90625
 20
0.134983
 30
0.0
 11
2.9148200000000002
 21
0.113553
 31
0.0
  0
LINE
  5
1CA
100
AcDbEntity
100
AcDbLine
  8
0
 62
1
420
16711680
370
-1
  6
ByLayer
 10
2.9148200000000002
 20
0.113553
 30
0.0
 11
2.9399999999999999
 21
0.0921224
 31
0.0
  0
LINE
  5
1CB
100
AcDbEntity
100
AcDbLine
  8
0
 62
1
420
16711680
370
-1
  6
ByLayer
 10
2.9399999999999999
 20
0.0921224
 30
0.0
 11
2.9951099999999999
 21
0.0706922
 31
0.0
  0
LINE
  5
1CC
100
AcDbEntity
100
AcDbLine
  8
0
 62
1
420
16711680
370
-1
  6
ByLayer
 10
2.9951099999999999
 20
0.0706922
 30
0.0
 11
3.12358
 21
0.0536025
 31
0.0
  0
LINE
  5
1CD
100
AcDbEntity
100
AcDbLine
  8
0
 62
1
420
16711680
370
-1
  6
ByLayer
 10
3.12358
 20
0.0536025
 30
0.0
 11
2.9523100000000002
 21
0.0123698
 31
0.0
  0
LINE
  5
1CE
100
AcDbEntity
100
AcDbLine
  8
0
 62
1
420
16711680
370
-1
  6
ByLayer
 10
2.9523100000000002
 20
0.0123698
 30
0.0
 11
2.8754300000000002
 21
0.0520833
 31
0.0
  0
LINE
  5
1CF
100
AcDbEntity
100
AcDbLine
  8
0
 62
1
420
16711680
370
-1
  6
ByLayer
 10
2.8754300000000002
 20
0.0520833
 30
0.0
 11
2.7840699999999998
 21
0.0920139
 31
0.0
  0
LINE
  5
1D0
100
AcDbEntity
100
AcDbLine
  8
0
 62
1
420
16711680
370
-1
  6
ByLayer
 10
2.7840699999999998
 20
0.0920139
 30
0.0
 11
2.69353
 21
0.14719
 31
0.0
  0
LINE
  5
1D1
100
AcDbEntity
100
AcDbLine
  8
0
 62
1
420
16711680
370
-1
  6
ByLayer
 10
2.69353
 20
0.14719
 30
0.0
 11
2.61931
 21
0.232693
 31
0.0
  0
LINE
  5
1D2
100
AcDbEntity
100
AcDbLine
  8
0
 62
1
420
16711680
370
-1
  6
ByLayer
 10
2.61931
 20
0.232693
 30
0.0
 11
2.6142599999999998
 21
0.300401
 31
0.0
  0
LINE
  5
1D3
100
AcDbEntity
100
AcDbLine
  8
0
 62
1
420
16711680
370
-1
  6
ByLayer
 10
2.6142599999999998
 20
0.300401
 30
0.0
 11
2.58182
 21
0.381131
 31
0.0
  0
LINE
  5
1D4
100
AcDbEntity
100
AcDbLine
  8
0
 62
1
420
16711680
370
-1
  6
ByLayer
 10
2.58182
 20
0.381131
 30
0.0
 11
2.5384199999999999
 21
0.464031
 31
0.0
  0
LINE
  5
1D5
100
AcDbEntity
100
AcDbLine
  8
0
 62
1
420
16711680
370
-1
  6
ByLayer
 10
2.5384199999999999
 20
0.464031
 30
0.0
 11
2.5003700000000002
 21
0.538303
 31
0.0
  0
LINE
  5
1D6
100
AcDbEntity
100
AcDbLine
  8
0
 62
1
420
16711680
370
-1
  6
ByLayer
 10
2.5003700000000002
 20
0.538303
 30
0.0
 11
2.3890600000000002
 21
0.594781
 31
0.0
  0
LINE
  5
1D7
100
AcDbEntity
100
AcDbLine
  8
0
 62
1
420
16711680
370
-1
  6
ByLayer
 10
2.3890600000000002
 20
0.594781
 30
0.0
 11
2.3368600000000002
 21
0.611708
 31
0.0
  0
LINE
  5
1D8
100
AcDbEntity
100
AcDbLine
  8
0
 62
1
420
16711680
370
-1
  6
ByLayer
 10
2.3368600000000002
 20
0.611708
 30
0.0
 11
2.2871700000000001
 21
0.6381289999999999
 31
0.0
  0
LINE
  5
1D9
100
AcDbEntity
100
AcDbLine
  8
0
 62
1
420
16711680
370
-1
  6
ByLayer
 10
2.2871700000000001
 20
0.6381289999999999
 30
0.0
 11
2.2456100000000001
 21
0.676758
 31
0.0
  0
LINE
  5
1DA
100
AcDbEntity
100
AcDbLine
  8
0
 62
1
420
16711680
370
-1
  6
ByLayer
 10
2.2456100000000001
 20
0.676758
 30
0.0
 11
2.2179899999999999
 21
0.730414
 31
0.0
  0
LINE
  5
1DB
100
AcDbEntity
100
AcDbLine
  8
0
 62
1
420
16711680
370
-1
  6
ByLayer
 10
2.2179899999999999
 20
0.730414
 30
0.0
 11
2.2003599999999999
 21
0.7318789999999999
 31
0.0
  0
LINE
  5
1DC
100
AcDbEntity
100
AcDbLine
  8
0
 62
1
420
16711680
370
-1
  6
ByLayer
 10
2.2003599999999999
 20
0.7318789999999999
 30
0.0
 11
2.1856
 21
0.739854
 31
0.0
  0
LINE
  5
1DD
100
AcDbEntity
100
AcDbLine
  8
0
 62
1
420
16711680
370
-1
  6
ByLayer
 10
2.1856
 20
0.739854
 30
0.0
 11
2.1726399999999999
 21
0.751085
 31
0.0
  0
LINE
  5
1DE
100
AcDbEntity
100
AcDbLine
  8
0
 62
1
420
16711680
370
-1
  6
ByLayer
 10
2.1726399999999999
 20
0.751085
 30
0.0
 11
2.1605799999999999
 21
0.762153
 31
0.0
  0
LINE
  5
1DF
100
AcDbEntity
100
AcDbLine
  8
0
 62
1
420
16711680
370
-1
  6
ByLayer
 10
2.1605799999999999
 20
0.762153
 30
0.0
 11
2.1486000000000001
 21
0.769857
 31
0.0
  0
LINE
  5
1E0
100
AcDbEntity
100
AcDbLine
  8
0
 62
1
420
16711680
370
-1
  6
ByLayer
 10
2.1486000000000001
 20
0.769857
 30
0.0
 11
2.13564
 21
0.770779
 31
0.0
  0
LINE
  5
1E1
100
AcDbEntity
100
AcDbLine
  8
0
 62
1
420
16711680
370
-1
  6
ByLayer
 10
2.13564
 20
0.770779
 30
0.0
 11
2.1208200000000001
 21
0.761664
 31
0.0
  0
LINE
  5
1E2
100
AcDbEntity
100
AcDbLine
  8
0
 62
1
420
16711680
370
-1
  6
ByLayer
 10
2.1208200000000001
 20
0.761664
 30
0.0
 11
2.1032500000000001
 21
0.73915
 31
0.0
  0
LINE
  5
1E3
100
AcDbEntity
100
AcDbLine
  8
0
 62
1
420
16711680
370
-1
  6
ByLayer
 10
2.1032500000000001
 20
0.73915
 30
0.0
 11
2.0266899999999999
 21
0.693414
 31
0.0
  0
LINE
  5
1E4
100
AcDbEntity
100
AcDbLine
  8
0
 62
1
420
16711680
370
-1
  6
ByLayer
 10
2.0266899999999999
 20
0.693414
 30
0.0
 11
1.9886699999999999
 21
0.719781
 31
0.0
  0
LINE
  5
1E5
100
AcDbEntity
100
AcDbLine
  8
0
 62
1
420
16711680
370
-1
  6
ByLayer
 10
1.9886699999999999
 20
0.719781
 30
0.0
 11
1.9610399999999999
 21
0.733236
 31
0.0
  0
LINE
  5
1E6
100
AcDbEntity
100
AcDbLine
  8
0
 62
1
420
16711680
370
-1
  6
ByLayer
 10
1.9610399999999999
 20
0.733236
 30
0.0
 11
1.9416199999999999
 21
0.736382
 31
0.0
  0
LINE
  5
1E7
100
AcDbEntity
100
AcDbLine
  8
0
 62
1
420
16711680
370
-1
  6
ByLayer
 10
1.9416199999999999
 20
0.736382
 30
0.0
 11
1.92828
 21
0.7319329999999999
 31
0.0
  0
LINE
  5
1E8
100
AcDbEntity
100
AcDbLine
  8
0
 62
1
420
16711680
370
-1
  6
ByLayer
 10
1.92828
 20
0.7319329999999999
 30
0.0
 11
1.9189400000000001
 21
0.7224390000000001
 31
0.0
  0
LINE
  5
1E9
100
AcDbEntity
100
AcDbLine
  8
0
 62
1
420
16711680
370
-1
  6
ByLayer
 10
1.9189400000000001
 20
0.7224390000000001
 30
0.0
 11
1.91151
 21
0.7106130000000001
 31
0.0
  0
LINE
  5
1EA
100
AcDbEntity
100
AcDbLine
  8
0
 62
1
420
16711680
370
-1
  6
ByLayer
 10
1.91151
 20
0.7106130000000001
 30
0.0
 11
1.9038600000000001
 21
0.69911
 31
0.0
  0
LINE
  5
1EB
100
AcDbEntity
100
AcDbLine
  8
0
 62
1
420
16711680
370
-1
  6
ByLayer
 10
1.9038600000000001
 20
0.69911
 30
0.0
 11
1.8938200000000001
 21
0.690483
 31
0.0
  0
LINE
  5
1EC
100
AcDbEntity
100
AcDbLine
  8
0
 62
1
420
16711680
370
-1
  6
ByLayer
 10
1.8938200000000001
 20
0.690483
 30
0.0
 11
1.8797200000000001
 21
0.7067600000000001
 31
0.0
  0
LINE
  5
1ED
100
AcDbEntity
100
AcDbLine
  8
0
 62
1
420
16711680
370
-1
  6
ByLayer
 10
1.8797200000000001
 20
0.7067600000000001
 30
0.0
 11
1.87239
 21
0.722114
 31
0.0
  0
LINE
  5
1EE
100
AcDbEntity
100
AcDbLine
  8
0
 62
1
420
16711680
370
-1
  6
ByLayer
 10
1.87239
 20
0.722114
 30
0.0
 11
1.86757
 21
0.734754
 31
0.0
  0
LINE
  5
1EF
100
AcDbEntity
100
AcDbLine
  8
0
 62
1
420
16711680
370
-1
  6
ByLayer
 10
1.86757
 20
0.734754
 30
0.0
 11
1.86111
 21
0.743001
 31
0.0
  0
LINE
  5
1F0
100
AcDbEntity
100
AcDbLine
  8
0
 62
1
420
16711680
370
-1
  6
ByLayer
 10
1.86111
 20
0.743001
 30
0.0
 11
1.8486800000000001
 21
0.744954
 31
0.0
  0
LINE
  5
1F1
100
AcDbEntity
100
AcDbLine
  8
0
 62
1
420
16711680
370
-1
  6
ByLayer
 10
1.8486800000000001
 20
0.744954
 30
0.0
 11
1.8261099999999999
 21
0.738986
 31
0.0
  0
LINE
  5
1F2
100
AcDbEntity
100
AcDbLine
  8
0
 62
1
420
16711680
370
-1
  6
ByLayer
 10
1.8261099999999999
 20
0.738986
 30
0.0
 11
1.78928
 21
0.723199
 31
0.0
  0
LINE
  5
1F3
100
AcDbEntity
100
AcDbLine
  8
0
 62
1
420
16711680
370
-1
  6
ByLayer
 10
1.78928
 20
0.723199
 30
0.0
 11
1.73383
 21
0.695856
 31
0.0
  0
LINE
  5
1F4
100
AcDbEntity
100
AcDbLine
  8
0
 62
1
420
16711680
370
-1
  6
ByLayer
 10
1.73383
 20
0.695856
 30
0.0
 11
1.7164699999999999
 21
0.687825
 31
0.0
  0
LINE
  5
1F5
100
AcDbEntity
100
AcDbLine
  8
0
 62
1
420
16711680
370
-1
  6
ByLayer
 10
1.7164699999999999
 20
0.687825
 30
0.0
 11
1.6998200000000001
 21
0.677626
 31
0.0
  0
LINE
  5
1F6
100
AcDbEntity
100
AcDbLine
  8
0
 62
1
420
16711680
370
-1
  6
ByLayer
 10
1.6998200000000001
 20
0.677626
 30
0.0
 11
1.6832100000000001
 21
0.667426
 31
0.0
  0
LINE
  5
1F7
100
AcDbEntity
100
AcDbLine
  8
0
 62
1
420
16711680
370
-1
  6
ByLayer
 10
1.6832100000000001
 20
0.667426
 30
0.0
 11
1.66581
 21
0.65956
 31
0.0
  0
LINE
  5
1F8
100
AcDbEntity
100
AcDbLine
  8
0
 62
1
420
16711680
370
-1
  6
ByLayer
 10
1.66581
 20
0.65956
 30
0.0
 11
1.64686
 21
0.65625
 31
0.0
  0
LINE
  5
1F9
100
AcDbEntity
100
AcDbLine
  8
0
 62
1
420
16711680
370
-1
  6
ByLayer
 10
1.64686
 20
0.65625
 30
0.0
 11
1.62565
 21
0.659668
 31
0.0
  0
LINE
  5
1FA
100
AcDbEntity
100
AcDbLine
  8
0
 62
1
420
16711680
370
-1
  6
ByLayer
 10
1.62565
 20
0.659668
 30
0.0
 11
1.60151
 21
0.672146
 31
0.0
  0
LINE
  5
1FB
100
AcDbEntity
100
AcDbLine
  8
0
 62
1
420
16711680
370
-1
  6
ByLayer
 10
1.60151
 20
0.672146
 30
0.0
 11
1.5735699999999999
 21
0.695856
 31
0.0
  0
LINE
  5
1FC
100
AcDbEntity
100
AcDbLine
  8
0
 62
1
420
16711680
370
-1
  6
ByLayer
 10
1.5735699999999999
 20
0.695856
 30
0.0
 11
1.53532
 21
0.624132
 31
0.0
  0
LINE
  5
1FD
100
AcDbEntity
100
AcDbLine
  8
0
 62
1
420
16711680
370
-1
  6
ByLayer
 10
1.53532
 20
0.624132
 30
0.0
 11
1.4919199999999999
 21
0.567871
 31
0.0
  0
LINE
  5
1FE
100
AcDbEntity
100
AcDbLine
  8
0
 62
1
420
16711680
370
-1
  6
ByLayer
 10
1.4919199999999999
 20
0.567871
 30
0.0
 11
1.4441200000000001
 21
0.524794
 31
0.0
  0
LINE
  5
1FF
100
AcDbEntity
100
AcDbLine
  8
0
 62
1
420
16711680
370
-1
  6
ByLayer
 10
1.4441200000000001
 20
0.524794
 30
0.0
 11
1.3927400000000001
 21
0.492512
 31
0.0
  0
LINE
  5
200
100
AcDbEntity
100
AcDbLine
  8
0
 62
1
420
16711680
370
-1
  6
ByLayer
 10
1.3927400000000001
 20
0.492512
 30
0.0
 11
1.33284
 21
0.43674
 31
0.0
  0
LINE
  5
201
100
AcDbEntity
100
AcDbLine
  8
0
 62
1
420
16711680
370
-1
  6
ByLayer
 10
1.33284
 20
0.43674
 30
0.0
 11
1.3041400000000001
 21
0.375597
 31
0.0
  0
LINE
  5
202
100
AcDbEntity
100
AcDbLine
  8
0
 62
1
420
16711680
370
-1
  6
ByLayer
 10
1.3041400000000001
 20
0.375597
 30
0.0
 11
1.27024
 21
0.316786
 31
0.0
  0
LINE
  5
203
100
AcDbEntity
100
AcDbLine
  8
0
 62
1
420
16711680
370
-1
  6
ByLayer
 10
1.27024
 20
0.316786
 30
0.0
 11
1.19482
 21
0.26785
 31
0.0
  0
LINE
  5
204
100
AcDbEntity
100
AcDbLine
  8
0
 62
1
420
16711680
370
-1
  6
ByLayer
 10
1.19482
 20
0.26785
 30
0.0
 11
1.05979
 21
0.227051
 31
0.0
  0
LINE
  5
205
100
AcDbEntity
100
AcDbLine
  8
0
 62
1
420
16711680
370
-1
  6
ByLayer
 10
1.05979
 20
0.227051
 30
0.0
 11
0.98649
 21
0.218153
 31
0.0
  0
LINE
  5
206
100
AcDbEntity
100
AcDbLine
  8
0
 62
1
420
16711680
370
-1
  6
ByLayer
 10
0.98649
 20
0.218153
 30
0.0
 11
0.912706
 21
0.224881
 31
0.0
  0
LINE
  5
207
100
AcDbEntity
100
AcDbLine
  8
0
 62
1
420
16711680
370
-1
  6
ByLayer
 10
0.912706
 20
0.224881
 30
0.0
 11
0.839518
 21
0.130642
 31
0.0
  0
LINE
  5
208
100
AcDbEntity
100
AcDbLine
  8
0
 62
1
420
16711680
370
-1
  6
ByLayer
 10
0.839518
 20
0.130642
 30
0.0
 11
0.862793
 21
0.0364583
 31
0.0
  0
LINE
  5
209
100
AcDbEntity
100
AcDbLine
  8
0
 62
1
420
16711680
370
-1
  6
ByLayer
 10
0.862793
 20
0.0364583
 30
0.0
 11
0.711806
 21
0.0123698
 31
0.0
  0
LINE
  5
20A
100
AcDbEntity
100
AcDbLine
  8
0
 62
1
420
16711680
370
-1
  6
ByLayer
 10
0.711806
 20
0.0123698
 30
0.0
 11
0.775662
 21
0.101291
 31
0.0
  0
LINE
  5
20B
100
AcDbEntity
100
AcDbLine
  8
0
 62
1
420
16711680
370
-1
  6
ByLayer
 10
0.775662
 20
0.101291
 30
0.0
 11
0.739692
 21
0.187175
 31
0.0
  0
LINE
  5
20C
100
AcDbEntity
100
AcDbLine
  8
0
 62
1
420
16711680
370
-1
  6
ByLayer
 10
0.739692
 20
0.187175
 30
0.0
 11
0.631293
 21
0.176867
 31
0.0
  0
LINE
  5
20D
100
AcDbEntity
100
AcDbLine
  8
0
 62
1
420
16711680
370
-1
  6
ByLayer
 10
0.631293
 20
0.176867
 30
0.0
 11
0.409397
 21
0.0278863
 31
0.0
  0
LINE
  5
20E
100
AcDbEntity
100
AcDbLine
  8
0
 62
1
420
16711680
370
-1
  6
ByLayer
 10
0.409397
 20
0.0278863
 30
0.0
 11
0.409397
 21
0.0278863
 31
0.0
  0
ENDSEC
  0
SECTION
  2
OBJECTS
  0
DICTIONARY
  5
C
100
AcDbDictionary
280
0
281
1
  3
ACAD_GROUP
350
D
  3
ACAD_LAYOUT
350
1A
  3
ACAD_MLINESTYLE
350
17
  3
ACAD_PLOTSETTINGS
350
19
  3
ACAD_PLOTSTYLENAME
350
E
  3
AcDbVariableDictionary
350
20F
  0
DICTIONARY
  5
D
100
AcDbDictionary
280
0
281
1
  0
ACDBDICTIONARYWDFLT
  5
E
100
AcDbDictionary
281
1
  3
Normal
350
F
100
AcDbDictionaryWithDefault
340
F
  0
ACDBPLACEHOLDER
  5
F
  0
DICTIONARY
  5
17
100
AcDbDictionary
280
0
281
1
  3
Standard
350
18
  0
MLINESTYLE
  5
18
100
AcDbMlineStyle
  2
STANDARD
 70
0
  3

 62
256
 51
90.0
 52
90.0
 71
2
 49
0.5
 62
256
  6
BYLAYER
 49
-0.5
 62
256
  6
BYLAYER
  0
DICTIONARY
  5
19
100
AcDbDictionary
280
0
281
1
  0
DICTIONARY
  5
1A
100
AcDbDictionary
281
1
  3
Layout1
350
1E
  3
Layout2
350
26
  3
Model
350
22
  0
LAYOUT
  5
1E
100
AcDbPlotSettings
  1

  2
C:\Program Files\AutoCAD 2002\plotters\DWF ePlot (optimized for plotting).pc3
  4

  6

 40
0.0
 41
0.0
 42
0.0
 43
0.0
 44
0.0
 45
0.0
 46
0.0
 47
0.0
 48
0.0
 49
0.0
140
0.0
141
0.0
142
1.0
143
1.0
 70
688
 72
0
 73
0
 74
5
  7

 75
16
147
1.0
148
0.0
149
0.0
100
AcDbLayout
  1
Layout1
 70
1
 71
1
 10
0.0
 20
0.0
 11
420.0
 21
297.0
 12
0.0
 22
0.0
 32
0.0
 14
100000000000000000000.0
 24
100000000000000000000.0
 34
100000000000000000000.0
 15
-100000000000000000000.0
 25
-100000000000000000000.0
 35
-100000000000000000000.0
146
0.0
 13
0.0
 23
0.0
 33
0.0
 16
1.0
 26
0.0
 36
0.0
 17
0.0
 27
1.0
 37
0.0
 76
0
330
1B
  0
LAYOUT
  5
22
100
AcDbPlotSettings
  1

  2
C:\Program Files\AutoCAD 2002\plotters\DWF ePlot (optimized for plotting).pc3
  4

  6

 40
0.0
 41
0.0
 42
0.0
 43
0.0
 44
0.0
 45
0.0
 46
0.0
 47
0.0
 48
0.0
 49
0.0
140
0.0
141
0.0
142
1.0
143
1.0
 70
1712
 72
0
 73
0
 74
0
  7

 75
0
147
1.0
148
0.0
149
0.0
100
AcDbLayout
  1
Model
 70
1
 71
0
 10
0.0
 20
0.0
 11
12.0
 21
9.0
 12
0.0
 22
0.0
 32
0.0
 14
0.0
 24
0.0
 34
0.0
 15
0.0
 25
0.0
 35
0.0
146
0.0
 13
0.0
 23
0.0
 33
0.0
 16
1.0
 26
0.0
 36
0.0
 17
0.0
 27
1.0
 37
0.0
 76
0
330
1F
  0
LAYOUT
  5
26
100
AcDbPlotSettings
  1

  2
C:\Program Files\AutoCAD 2002\plotters\DWF ePlot (optimized for plotting).pc3
  4

  6

 40
0.0
 41
0.0
 42
0.0
 43
0.0
 44
0.0
 45
0.0
 46
0.0
 47
0.0
 48
0.0
 49
0.0
140
0.0
141
0.0
142
1.0
143
1.0
 70
688
 72
0
 73
0
 74
5
  7

 75
16
147
1.0
148
0.0
149
0.0
100
AcDbLayout
  1
Layout2
 70
1
 71
2
 10
0.0
 20
0.0
 11
12.0
 21
9.0
 12
0.0
 22
0.0
 32
0.0
 14
0.0
 24
0.0
 34
0.0
 15
0.0
 25
0.0
 35
0.0
146
0.0
 13
0.0
 23
0.0
 33
0.0
 16
1.0
 26
0.0
 36
0.0
 17
0.0
 27
1.0
 37
0.0
 76
0
330
23
  0
DICTIONARY
  5
20F
100
AcDbDictionary
281
1
  3
DIMASSOC
350
211
  3
HIDETEXT
350
210
  0
DICTIONARYVAR
  5
210
100
DictionaryVariables
280
0
  1
2
  0
DICTIONARYVAR
  5
211
100
DictionaryVariables
280
0
  1
1
  0
ENDSEC
  0
EOF
