  0
SECTION
  2
HEADER
  9
$ACADVER
  1
AC1009
  9
$EXTMIN
 10
0.0
 20
0.0
 30
0.0
  9
$EXTMAX
 10
1000.0
 20
1000.0
 30
0.0
  9
$FILLMODE
 70
 0
  9
$SPLFRAME
 70
 1
  0
ENDSEC
  0
SECTION
  2
TABLES
  0
TABLE
  2
LAYER
 70
1
  0
LAYER
  2
0
 70
     0
 62
     7
  6
CONTINUOUS
  0
ENDTAB
  0
ENDSEC
  0
SECTION
  2
ENTITIES
  0
POLYLINE
  8
0
 62
     0
 66
     1
 10
0
 20
0
 30
0.0
 70
     1
 40
0
 41
0
  0
VERTEX
  8
0
 10
2.55647
 20
0.0852322
 30
0.0
 40
0
 41
0
  0
VERTEX
  8
0
 10
2.48019
 20
0.142415
 30
0.0
 40
0
 41
0
  0
VERTEX
  8
0
 10
2.40625
 20
0.206218
 30
0.0
 40
0
 41
0
  0
VERTEX
  8
0
 10
2.34814
 20
0.26416
 30
0.0
 40
0
 41
0
  0
VERTEX
  8
0
 10
2.31939
 20
0.303819
 30
0.0
 40
0
 41
0
  0
VERTEX
  8
0
 10
2.29531
 20
0.340603
 30
0.0
 40
0
 41
0
  0
VERTEX
  8
0
 10
2.23833
 20
0.407335
 30
0.0
 40
0
 41
0
  0
VERTEX
  8
0
 10
2.14714
 20
0.505588
 30
0.0
 40
0
 41
0
  0
VERTEX
  8
0
 10
2.02024
 20
0.636882
 30
0.0
 40
0
 41
0
  0
VERTEX
  8
0
 10
1.9311
 20
0.729113
 30
0.0
 40
0
 41
0
  0
VERTEX
  8
0
 10
1.84625
 20
0.818956
 30
0.0
 40
0
 41
0
  0
VERTEX
  8
0
 10
1.77522
 20
0.896158
 30
0.0
 40
0
 41
0
  0
VERTEX
  8
0
 10
1.72771
 20
0.950413
 30
0.0
 40
0
 41
0
  0
VERTEX
  8
0
 10
1.69618
 20
0.98801
 30
0.0
 40
0
 41
0
  0
VERTEX
  8
0
 10
1.66889
 20
1.01991
 30
0.0
 40
0
 41
0
  0
VERTEX
  8
0
 10
1.64876
 20
1.04264
 30
0.0
 40
0
 41
0
  0
VERTEX
  8
0
 10
1.63867
 20
1.05295
 30
0.0
 40
0
 41
0
  0
VERTEX
  8
0
 10
1.63069
 20
1.07671
 30
0.0
 40
0
 41
0
  0
VERTEX
  8
0
 10
1.62554
 20
1.12375
 30
0.0
 40
0
 41
0
  0
VERTEX
  8
0
 10
1.61974
 20
1.16661
 30
0.0
 40
0
 41
0
  0
VERTEX
  8
0
 10
1.61057
 20
1.18018
 30
0.0
 40
0
 41
0
  0
VERTEX
  8
0
 10
1.60471
 20
1.16743
 30
0.0
 40
0
 41
0
  0
VERTEX
  8
0
 10
1.60715
 20
1.14686
 30
0.0
 40
0
 41
0
  0
VERTEX
  8
0
 10
1.60633
 20
1.12815
 30
0.0
 40
0
 41
0
  0
VERTEX
  8
0
 10
1.59392
 20
1.12028
 30
0.0
 40
0
 41
0
  0
VERTEX
  8
0
 10
1.57731
 20
1.12429
 30
0.0
 40
0
 41
0
  0
VERTEX
  8
0
 10
1.56407
 20
1.14111
 30
0.0
 40
0
 41
0
  0
VERTEX
  8
0
 10
1.55431
 20
1.15294
 30
0.0
 40
0
 41
0
  0
VERTEX
  8
0
 10
1.54194
 20
1.15267
 30
0.0
 40
0
 41
0
  0
VERTEX
  8
0
 10
1.5344
 20
1.15072
 30
0.0
 40
0
 41
0
  0
VERTEX
  8
0
 10
1.53694
 20
1.15885
 30
0.0
 40
0
 41
0
  0
VERTEX
  8
0
 10
1.53618
 20
1.17274
 30
0.0
 40
0
 41
0
  0
VERTEX
  8
0
 10
1.52735
 20
1.19927
 30
0.0
 40
0
 41
0
  0
VERTEX
  8
0
 10
1.51193
 20
1.2347
 30
0.0
 40
0
 41
0
  0
VERTEX
  8
0
 10
1.49137
 20
1.27517
 30
0.0
 40
0
 41
0
  0
VERTEX
  8
0
 10
1.47049
 20
1.31462
 30
0.0
 40
0
 41
0
  0
VERTEX
  8
0
 10
1.45497
 20
1.34635
 30
0.0
 40
0
 41
0
  0
VERTEX
  8
0
 10
1.44472
 20
1.37131
 30
0.0
 40
0
 41
0
  0
VERTEX
  8
0
 10
1.43951
 20
1.39035
 30
0.0
 40
0
 41
0
  0
VERTEX
  8
0
 10
1.43929
 20
1.40424
 30
0.0
 40
0
 41
0
  0
VERTEX
  8
0
 10
1.44396
 20
1.41385
 30
0.0
 40
0
 41
0
  0
VERTEX
  8
0
 10
1.45324
 20
1.41997
 30
0.0
 40
0
 41
0
  0
VERTEX
  8
0
 10
1.46713
 20
1.4235
 30
0.0
 40
0
 41
0
  0
VERTEX
  8
0
 10
1.46533
 20
1.42637
 30
0.0
 40
0
 41
0
  0
VERTEX
  8
0
 10
1.43832
 20
1.43044
 30
0.0
 40
0
 41
0
  0
VERTEX
  8
0
 10
1.39274
 20
1.43528
 30
0.0
 40
0
 41
0
  0
VERTEX
  8
0
 10
1.33534
 20
1.44026
 30
0.0
 40
0
 41
0
  0
VERTEX
  8
0
 10
1.27295
 20
1.44487
 30
0.0
 40
0
 41
0
  0
VERTEX
  8
0
 10
1.21224
 20
1.44857
 30
0.0
 40
0
 41
0
  0
VERTEX
  8
0
 10
1.15999
 20
1.45079
 30
0.0
 40
0
 41
0
  0
VERTEX
  8
0
 10
1.12299
 20
1.45101
 30
0.0
 40
0
 41
0
  0
VERTEX
  8
0
 10
1.07259
 20
1.44521
 30
0.0
 40
0
 41
0
  0
VERTEX
  8
0
 10
1.01845
 20
1.43349
 30
0.0
 40
0
 41
0
  0
VERTEX
  8
0
 10
0.972114
 20
1.42372
 30
0.0
 40
0
 41
0
  0
VERTEX
  8
0
 10
0.94439
 20
1.42383
 30
0.0
 40
0
 41
0
  0
VERTEX
  8
0
 10
0.939615
 20
1.43267
 30
0.0
 40
0
 41
0
  0
VERTEX
  8
0
 10
0.962131
 20
1.449
 30
0.0
 40
0
 41
0
  0
VERTEX
  8
0
 10
0.989312
 20
1.46664
 30
0.0
 40
0
 41
0
  0
VERTEX
  8
0
 10
1.00304
 20
1.48182
 30
0.0
 40
0
 41
0
  0
VERTEX
  8
0
 10
1.01063
 20
1.49035
 30
0.0
 40
0
 41
0
  0
VERTEX
  8
0
 10
1.02317
 20
1.49164
 30
0.0
 40
0
 41
0
  0
VERTEX
  8
0
 10
1.037
 20
1.49322
 30
0.0
 40
0
 41
0
  0
VERTEX
  8
0
 10
1.0478
 20
1.50201
 30
0.0
 40
0
 41
0
  0
VERTEX
  8
0
 10
1.04579
 20
1.51417
 30
0.0
 40
0
 41
0
  0
VERTEX
  8
0
 10
1.02013
 20
1.51438
 30
0.0
 40
0
 41
0
  0
VERTEX
  8
0
 10
0.975369
 20
1.50342
 30
0.0
 40
0
 41
0
  0
VERTEX
  8
0
 10
0.915961
 20
1.48188
 30
0.0
 40
0
 41
0
  0
VERTEX
  8
0
 10
0.854438
 20
1.46007
 30
0.0
 40
0
 41
0
  0
VERTEX
  8
0
 10
0.806967
 20
1.44933
 30
0.0
 40
0
 41
0
  0
VERTEX
  8
0
 10
0.77794
 20
1.45036
 30
0.0
 40
0
 41
0
  0
VERTEX
  8
0
 10
0.771647
 20
1.46365
 30
0.0
 40
0
 41
0
  0
VERTEX
  8
0
 10
0.779297
 20
1.47194
 30
0.0
 40
0
 41
0
  0
VERTEX
  8
0
 10
0.796169
 20
1.48275
 30
0.0
 40
0
 41
0
  0
VERTEX
  8
0
 10
0.819824
 20
1.49468
 30
0.0
 40
0
 41
0
  0
VERTEX
  8
0
 10
0.847765
 20
1.50635
 30
0.0
 40
0
 41
0
  0
VERTEX
  8
0
 10
0.902018
 20
1.53088
 30
0.0
 40
0
 41
0
  0
VERTEX
  8
0
 10
0.916667
 20
1.54725
 30
0.0
 40
0
 41
0
  0
VERTEX
  8
0
 10
0.892144
 20
1.55447
 30
0.0
 40
0
 41
0
  0
VERTEX
  8
0
 10
0.828885
 20
1.55143
 30
0.0
 40
0
 41
0
  0
VERTEX
  8
0
 10
0.791504
 20
1.54856
 30
0.0
 40
0
 41
0
  0
VERTEX
  8
0
 10
0.765733
 20
1.54844
 30
0.0
 40
0
 41
0
  0
VERTEX
  8
0
 10
0.751519
 20
1.55083
 30
0.0
 40
0
 41
0
  0
VERTEX
  8
0
 10
0.748589
 20
1.55544
 30
0.0
 40
0
 41
0
  0
VERTEX
  8
0
 10
0.75689
 20
1.56185
 30
0.0
 40
0
 41
0
  0
VERTEX
  8
0
 10
0.77615
 20
1.56982
 30
0.0
 40
0
 41
0
  0
VERTEX
  8
0
 10
0.806315
 20
1.579
 30
0.0
 40
0
 41
0
  0
VERTEX
  8
0
 10
0.847168
 20
1.58897
 30
0.0
 40
0
 41
0
  0
VERTEX
  8
0
 10
0.920682
 20
1.60107
 30
0.0
 40
0
 41
0
  0
VERTEX
  8
0
 10
1.00385
 20
1.6034
 30
0.0
 40
0
 41
0
  0
VERTEX
  8
0
 10
1.11475
 20
1.59549
 30
0.0
 40
0
 41
0
  0
VERTEX
  8
0
 10
1.27159
 20
1.57676
 30
0.0
 40
0
 41
0
  0
VERTEX
  8
0
 10
1.33247
 20
1.5695
 30
0.0
 40
0
 41
0
  0
VERTEX
  8
0
 10
1.38336
 20
1.56451
 30
0.0
 40
0
 41
0
  0
VERTEX
  8
0
 10
1.41894
 20
1.56239
 30
0.0
 40
0
 41
0
  0
VERTEX
  8
0
 10
1.43397
 20
1.56347
 30
0.0
 40
0
 41
0
  0
VERTEX
  8
0
 10
1.43104
 20
1.56847
 30
0.0
 40
0
 41
0
  0
VERTEX
  8
0
 10
1.41417
 20
1.57047
 30
0.0
 40
0
 41
0
  0
VERTEX
  8
0
 10
1.38807
 20
1.57508
 30
0.0
 40
0
 41
0
  0
VERTEX
  8
0
 10
1.37098
 20
1.58778
 30
0.0
 40
0
 41
0
  0
VERTEX
  8
0
 10
1.36404
 20
1.60726
 30
0.0
 40
0
 41
0
  0
VERTEX
  8
0
 10
1.36833
 20
1.63189
 30
0.0
 40
0
 41
0
  0
VERTEX
  8
0
 10
1.37218
 20
1.64947
 30
0.0
 40
0
 41
0
  0
VERTEX
  8
0
 10
1.36648
 20
1.66471
 30
0.0
 40
0
 41
0
  0
VERTEX
  8
0
 10
1.34793
 20
1.68207
 30
0.0
 40
0
 41
0
  0
VERTEX
  8
0
 10
1.31337
 20
1.70572
 30
0.0
 40
0
 41
0
  0
VERTEX
  8
0
 10
1.28304
 20
1.72624
 30
0.0
 40
0
 41
0
  0
VERTEX
  8
0
 10
1.24973
 20
1.75006
 30
0.0
 40
0
 41
0
  0
VERTEX
  8
0
 10
1.2175
 20
1.77431
 30
0.0
 40
0
 41
0
  0
VERTEX
  8
0
 10
1.19038
 20
1.79596
 30
0.0
 40
0
 41
0
  0
VERTEX
  8
0
 10
1.16732
 20
1.81358
 30
0.0
 40
0
 41
0
  0
VERTEX
  8
0
 10
1.14632
 20
1.82661
 30
0.0
 40
0
 41
0
  0
VERTEX
  8
0
 10
1.12961
 20
1.83393
 30
0.0
 40
0
 41
0
  0
VERTEX
  8
0
 10
1.11957
 20
1.83415
 30
0.0
 40
0
 41
0
  0
VERTEX
  8
0
 10
1.11193
 20
1.83208
 30
0.0
 40
0
 41
0
  0
VERTEX
  8
0
 10
1.11431
 20
1.84
 30
0.0
 40
0
 41
0
  0
VERTEX
  8
0
 10
1.11713
 20
1.85271
 30
0.0
 40
0
 41
0
  0
VERTEX
  8
0
 10
1.11111
 20
1.86242
 30
0.0
 40
0
 41
0
  0
VERTEX
  8
0
 10
1.10026
 20
1.85596
 30
0.0
 40
0
 41
0
  0
VERTEX
  8
0
 10
1.09044
 20
1.82747
 30
0.0
 40
0
 41
0
  0
VERTEX
  8
0
 10
1.08301
 20
1.78353
 30
0.0
 40
0
 41
0
  0
VERTEX
  8
0
 10
1.0797
 20
1.73063
 30
0.0
 40
0
 41
0
  0
VERTEX
  8
0
 10
1.07661
 20
1.69456
 30
0.0
 40
0
 41
0
  0
VERTEX
  8
0
 10
1.07026
 20
1.67958
 30
0.0
 40
0
 41
0
  0
VERTEX
  8
0
 10
1.0612
 20
1.68392
 30
0.0
 40
0
 41
0
  0
VERTEX
  8
0
 10
1.04291
 20
1.69569
 30
0.0
 40
0
 41
0
  0
VERTEX
  8
0
 10
1.01807
 20
1.71317
 30
0.0
 40
0
 41
0
  0
VERTEX
  8
0
 10
0.989367
 20
1.73443
 30
0.0
 40
0
 41
0
  0
VERTEX
  8
0
 10
0.959799
 20
1.75515
 30
0.0
 40
0
 41
0
  0
VERTEX
  8
0
 10
0.933376
 20
1.77061
 30
0.0
 40
0
 41
0
  0
VERTEX
  8
0
 10
0.912815
 20
1.77929
 30
0.0
 40
0
 41
0
  0
VERTEX
  8
0
 10
0.900825
 20
1.77989
 30
0.0
 40
0
 41
0
  0
VERTEX
  8
0
 10
0.892361
 20
1.77669
 30
0.0
 40
0
 41
0
  0
VERTEX
  8
0
 10
0.894965
 20
1.78201
 30
0.0
 40
0
 41
0
  0
VERTEX
  8
0
 10
0.890192
 20
1.79525
 30
0.0
 40
0
 41
0
  0
VERTEX
  8
0
 10
0.864094
 20
1.81087
 30
0.0
 40
0
 41
0
  0
VERTEX
  8
0
 10
0.835883
 20
1.82639
 30
0.0
 40
0
 41
0
  0
VERTEX
  8
0
 10
0.826118
 20
1.83908
 30
0.0
 40
0
 41
0
  0
VERTEX
  8
0
 10
0.82346
 20
1.8495
 30
0.0
 40
0
 41
0
  0
VERTEX
  8
0
 10
0.813911
 20
1.86865
 30
0.0
 40
0
 41
0
  0
VERTEX
  8
0
 10
0.799533
 20
1.89356
 30
0.0
 40
0
 41
0
  0
VERTEX
  8
0
 10
0.782335
 20
1.92096
 30
0.0
 40
0
 41
0
  0
VERTEX
  8
0
 10
0.764322
 20
1.94775
 30
0.0
 40
0
 41
0
  0
VERTEX
  8
0
 10
0.747612
 20
1.97076
 30
0.0
 40
0
 41
0
  0
VERTEX
  8
0
 10
0.734213
 20
1.98693
 30
0.0
 40
0
 41
0
  0
VERTEX
  8
0
 10
0.726183
 20
1.99294
 30
0.0
 40
0
 41
0
  0
VERTEX
  8
0
 10
0.715875
 20
1.9846
 30
0.0
 40
0
 41
0
  0
VERTEX
  8
0
 10
0.710503
 20
1.96506
 30
0.0
 40
0
 41
0
  0
VERTEX
  8
0
 10
0.711046
 20
1.94271
 30
0.0
 40
0
 41
0
  0
VERTEX
  8
0
 10
0.718479
 20
1.92594
 30
0.0
 40
0
 41
0
  0
VERTEX
  8
0
 10
0.726128
 20
1.91461
 30
0.0
 40
0
 41
0
  0
VERTEX
  8
0
 10
0.717176
 20
1.91118
 30
0.0
 40
0
 41
0
  0
VERTEX
  8
0
 10
0.698242
 20
1.90169
 30
0.0
 40
0
 41
0
  0
VERTEX
  8
0
 10
0.679253
 20
1.87636
 30
0.0
 40
0
 41
0
  0
VERTEX
  8
0
 10
0.662978
 20
1.84028
 30
0.0
 40
0
 41
0
  0
VERTEX
  8
0
 10
0.652399
 20
1.79833
 30
0.0
 40
0
 41
0
  0
VERTEX
  8
0
 10
0.650228
 20
1.75917
 30
0.0
 40
0
 41
0
  0
VERTEX
  8
0
 10
0.662218
 20
1.74744
 30
0.0
 40
0
 41
0
  0
VERTEX
  8
0
 10
0.672146
 20
1.74496
 30
0.0
 40
0
 41
0
  0
VERTEX
  8
0
 10
0.664714
 20
1.73719
 30
0.0
 40
0
 41
0
  0
VERTEX
  8
0
 10
0.657335
 20
1.72711
 30
0.0
 40
0
 41
0
  0
VERTEX
  8
0
 10
0.648654
 20
1.70692
 30
0.0
 40
0
 41
0
  0
VERTEX
  8
0
 10
0.639703
 20
1.67964
 30
0.0
 40
0
 41
0
  0
VERTEX
  8
0
 10
0.631674
 20
1.64806
 30
0.0
 40
0
 41
0
  0
VERTEX
  8
0
 10
0.612033
 20
1.58615
 30
0.0
 40
0
 41
0
  0
VERTEX
  8
0
 10
0.588758
 20
1.55539
 30
0.0
 40
0
 41
0
  0
VERTEX
  8
0
 10
0.573242
 20
1.5421
 30
0.0
 40
0
 41
0
  0
VERTEX
  8
0
 10
0.571397
 20
1.52903
 30
0.0
 40
0
 41
0
  0
VERTEX
  8
0
 10
0.572917
 20
1.51297
 30
0.0
 40
0
 41
0
  0
VERTEX
  8
0
 10
0.565429
 20
1.49224
 30
0.0
 40
0
 41
0
  0
VERTEX
  8
0
 10
0.554253
 20
1.47754
 30
0.0
 40
0
 41
0
  0
VERTEX
  8
0
 10
0.551053
 20
1.48861
 30
0.0
 40
0
 41
0
  0
VERTEX
  8
0
 10
0.548068
 20
1.49126
 30
0.0
 40
0
 41
0
  0
VERTEX
  8
0
 10
0.540364
 20
1.48346
 30
0.0
 40
0
 41
0
  0
VERTEX
  8
0
 10
0.529025
 20
1.46669
 30
0.0
 40
0
 41
0
  0
VERTEX
  8
0
 10
0.515246
 20
1.44243
 30
0.0
 40
0
 41
0
  0
VERTEX
  8
0
 10
0.490181
 20
1.3827
 30
0.0
 40
0
 41
0
  0
VERTEX
  8
0
 10
0.487522
 20
1.3374
 30
0.0
 40
0
 41
0
  0
VERTEX
  8
0
 10
0.48725
 20
1.30263
 30
0.0
 40
0
 41
0
  0
VERTEX
  8
0
 10
0.465386
 20
1.27794
 30
0.0
 40
0
 41
0
  0
VERTEX
  8
0
 10
0.448893
 20
1.26318
 30
0.0
 40
0
 41
0
  0
VERTEX
  8
0
 10
0.451172
 20
1.25705
 30
0.0
 40
0
 41
0
  0
VERTEX
  8
0
 10
0.464085
 20
1.25005
 30
0.0
 40
0
 41
0
  0
VERTEX
  8
0
 10
0.47309
 20
1.23318
 30
0.0
 40
0
 41
0
  0
VERTEX
  8
0
 10
0.478299
 20
1.22125
 30
0.0
 40
0
 41
0
  0
VERTEX
  8
0
 10
0.480903
 20
1.24002
 30
0.0
 40
0
 41
0
  0
VERTEX
  8
0
 10
0.486382
 20
1.26438
 30
0.0
 40
0
 41
0
  0
VERTEX
  8
0
 10
0.496203
 20
1.26991
 30
0.0
 40
0
 41
0
  0
VERTEX
  8
0
 10
0.505533
 20
1.25814
 30
0.0
 40
0
 41
0
  0
VERTEX
  8
0
 10
0.509765
 20
1.23058
 30
0.0
 40
0
 41
0
  0
VERTEX
  8
0
 10
0.506401
 20
1.20264
 30
0.0
 40
0
 41
0
  0
VERTEX
  8
0
 10
0.498156
 20
1.18473
 30
0.0
 40
0
 41
0
  0
VERTEX
  8
0
 10
0.487739
 20
1.18018
 30
0.0
 40
0
 41
0
  0
VERTEX
  8
0
 10
0.477919
 20
1.19222
 30
0.0
 40
0
 41
0
  0
VERTEX
  8
0
 10
0.472711
 20
1.1958
 30
0.0
 40
0
 41
0
  0
VERTEX
  8
0
 10
0.469943
 20
1.18034
 30
0.0
 40
0
 41
0
  0
VERTEX
  8
0
 10
0.463704
 20
1.15538
 30
0.0
 40
0
 41
0
  0
VERTEX
  8
0
 10
0.450304
 20
1.13596
 30
0.0
 40
0
 41
0
  0
VERTEX
  8
0
 10
0.436632
 20
1.13032
 30
0.0
 40
0
 41
0
  0
VERTEX
  8
0
 10
0.43826
 20
1.15478
 30
0.0
 40
0
 41
0
  0
VERTEX
  8
0
 10
0.437879
 20
1.185
 30
0.0
 40
0
 41
0
  0
VERTEX
  8
0
 10
0.427897
 20
1.20942
 30
0.0
 40
0
 41
0
  0
VERTEX
  8
0
 10
0.417806
 20
1.22569
 30
0.0
 40
0
 41
0
  0
VERTEX
  8
0
 10
0.427951
 20
1.22976
 30
0.0
 40
0
 41
0
  0
VERTEX
  8
0
 10
0.437825
 20
1.23416
 30
0.0
 40
0
 41
0
  0
VERTEX
  8
0
 10
0.427463
 20
1.25087
 30
0.0
 40
0
 41
0
  0
VERTEX
  8
0
 10
0.411296
 20
1.26416
 30
0.0
 40
0
 41
0
  0
VERTEX
  8
0
 10
0.399089
 20
1.25439
 30
0.0
 40
0
 41
0
  0
VERTEX
  8
0
 10
0.395236
 20
1.23817
 30
0.0
 40
0
 41
0
  0
VERTEX
  8
0
 10
0.401313
 20
1.22374
 30
0.0
 40
0
 41
0
  0
VERTEX
  8
0
 10
0.411079
 20
1.20063
 30
0.0
 40
0
 41
0
  0
VERTEX
  8
0
 10
0.413954
 20
1.16612
 30
0.0
 40
0
 41
0
  0
VERTEX
  8
0
 10
0.410156
 20
1.13287
 30
0.0
 40
0
 41
0
  0
VERTEX
  8
0
 10
0.399794
 20
1.11339
 30
0.0
 40
0
 41
0
  0
VERTEX
  8
0
 10
0.384114
 20
1.11448
 30
0.0
 40
0
 41
0
  0
VERTEX
  8
0
 10
0.366863
 20
1.12961
 30
0.0
 40
0
 41
0
  0
VERTEX
  8
0
 10
0.351128
 20
1.14486
 30
0.0
 40
0
 41
0
  0
VERTEX
  8
0
 10
0.339844
 20
1.14491
 30
0.0
 40
0
 41
0
  0
VERTEX
  8
0
 10
0.335124
 20
1.13167
 30
0.0
 40
0
 41
0
  0
VERTEX
  8
0
 10
0.33941
 20
1.10699
 30
0.0
 40
0
 41
0
  0
VERTEX
  8
0
 10
0.353624
 20
1.08539
 30
0.0
 40
0
 41
0
  0
VERTEX
  8
0
 10
0.381565
 20
1.08577
 30
0.0
 40
0
 41
0
  0
VERTEX
  8
0
 10
0.40549
 20
1.08767
 30
0.0
 40
0
 41
0
  0
VERTEX
  8
0
 10
0.414333
 20
1.07861
 30
0.0
 40
0
 41
0
  0
VERTEX
  8
0
 10
0.403538
 20
1.06901
 30
0.0
 40
0
 41
0
  0
VERTEX
  8
0
 10
0.375108
 20
1.0689
 30
0.0
 40
0
 41
0
  0
VERTEX
  8
0
 10
0.339301
 20
1.06711
 30
0.0
 40
0
 41
0
  0
VERTEX
  8
0
 10
0.319444
 20
1.05198
 30
0.0
 40
0
 41
0
  0
VERTEX
  8
0
 10
0.318088
 20
1.02805
 30
0.0
 40
0
 41
0
  0
VERTEX
  8
0
 10
0.337565
 20
0.999837
 30
0.0
 40
0
 41
0
  0
VERTEX
  8
0
 10
0.368056
 20
0.971192
 30
0.0
 40
0
 41
0
  0
VERTEX
  8
0
 10
0.415039
 20
1.01134
 30
0.0
 40
0
 41
0
  0
VERTEX
  8
0
 10
0.45714
 20
1.03988
 30
0.0
 40
0
 41
0
  0
VERTEX
  8
0
 10
0.492296
 20
1.05208
 30
0.0
 40
0
 41
0
  0
VERTEX
  8
0
 10
0.508247
 20
1.05653
 30
0.0
 40
0
 41
0
  0
VERTEX
  8
0
 10
0.528537
 20
1.06836
 30
0.0
 40
0
 41
0
  0
VERTEX
  8
0
 10
0.551107
 20
1.08632
 30
0.0
 40
0
 41
0
  0
VERTEX
  8
0
 10
0.57411
 20
1.10894
 30
0.0
 40
0
 41
0
  0
VERTEX
  8
0
 10
0.602756
 20
1.13976
 30
0.0
 40
0
 41
0
  0
VERTEX
  8
0
 10
0.632324
 20
1.17052
 30
0.0
 40
0
 41
0
  0
VERTEX
  8
0
 10
0.661567
 20
1.20003
 30
0.0
 40
0
 41
0
  0
VERTEX
  8
0
 10
0.689128
 20
1.227
 30
0.0
 40
0
 41
0
  0
VERTEX
  8
0
 10
0.713704
 20
1.25016
 30
0.0
 40
0
 41
0
  0
VERTEX
  8
0
 10
0.733942
 20
1.26828
 30
0.0
 40
0
 41
0
  0
VERTEX
  8
0
 10
0.748535
 20
1.28011
 30
0.0
 40
0
 41
0
  0
VERTEX
  8
0
 10
0.756239
 20
1.28429
 30
0.0
 40
0
 41
0
  0
VERTEX
  8
0
 10
0.763564
 20
1.28809
 30
0.0
 40
0
 41
0
  0
VERTEX
  8
0
 10
0.777181
 20
1.29834
 30
0.0
 40
0
 41
0
  0
VERTEX
  8
0
 10
0.795085
 20
1.31348
 30
0.0
 40
0
 41
0
  0
VERTEX
  8
0
 10
0.815429
 20
1.33198
 30
0.0
 40
0
 41
0
  0
VERTEX
  8
0
 10
0.855524
 20
1.36247
 30
0.0
 40
0
 41
0
  0
VERTEX
  8
0
 10
0.892958
 20
1.37782
 30
0.0
 40
0
 41
0
  0
VERTEX
  8
0
 10
0.923014
 20
1.37712
 30
0.0
 40
0
 41
0
  0
VERTEX
  8
0
 10
0.940918
 20
1.35927
 30
0.0
 40
0
 41
0
  0
VERTEX
  8
0
 10
0.95421
 20
1.34483
 30
0.0
 40
0
 41
0
  0
VERTEX
  8
0
 10
0.975369
 20
1.33881
 30
0.0
 40
0
 41
0
  0
VERTEX
  8
0
 10
0.991808
 20
1.33512
 30
0.0
 40
0
 41
0
  0
VERTEX
  8
0
 10
0.99414
 20
1.32612
 30
0.0
 40
0
 41
0
  0
VERTEX
  8
0
 10
0.999403
 20
1.3138
 30
0.0
 40
0
 41
0
  0
VERTEX
  8
0
 10
1.01964
 20
1.28955
 30
0.0
 40
0
 41
0
  0
VERTEX
  8
0
 10
1.05159
 20
1.25684
 30
0.0
 40
0
 41
0
  0
VERTEX
  8
0
 10
1.09212
 20
1.21924
 30
0.0
 40
0
 41
0
  0
VERTEX
  8
0
 10
1.13802
 20
1.17839
 30
0.0
 40
0
 41
0
  0
VERTEX
  8
0
 10
1.18484
 20
1.13661
 30
0.0
 40
0
 41
0
  0
VERTEX
  8
0
 10
1.22711
 20
1.09896
 30
0.0
 40
0
 41
0
  0
VERTEX
  8
0
 10
1.25928
 20
1.07015
 30
0.0
 40
0
 41
0
  0
VERTEX
  8
0
 10
1.28657
 20
1.04574
 30
0.0
 40
0
 41
0
  0
VERTEX
  8
0
 10
1.31565
 20
1.01986
 30
0.0
 40
0
 41
0
  0
VERTEX
  8
0
 10
1.34299
 20
0.995606
 30
0.0
 40
0
 41
0
  0
VERTEX
  8
0
 10
1.36518
 20
0.976019
 30
0.0
 40
0
 41
0
  0
VERTEX
  8
0
 10
1.37988
 20
0.960394
 30
0.0
 40
0
 41
0
  0
VERTEX
  8
0
 10
1.39481
 20
0.940158
 30
0.0
 40
0
 41
0
  0
VERTEX
  8
0
 10
1.40869
 20
0.917751
 30
0.0
 40
0
 41
0
  0
VERTEX
  8
0
 10
1.42046
 20
0.8954
 30
0.0
 40
0
 41
0
  0
VERTEX
  8
0
 10
1.42899
 20
0.875597
 30
0.0
 40
0
 41
0
  0
VERTEX
  8
0
 10
1.43311
 20
0.860622
 30
0.0
 40
0
 41
0
  0
VERTEX
  8
0
 10
1.43169
 20
0.85281
 30
0.0
 40
0
 41
0
  0
VERTEX
  8
0
 10
1.42372
 20
0.854492
 30
0.0
 40
0
 41
0
  0
VERTEX
  8
0
 10
1.40674
 20
0.851346
 30
0.0
 40
0
 41
0
  0
VERTEX
  8
0
 10
1.38151
 20
0.834201
 30
0.0
 40
0
 41
0
  0
VERTEX
  8
0
 10
1.36073
 20
0.817003
 30
0.0
 40
0
 41
0
  0
VERTEX
  8
0
 10
1.32726
 20
0.790093
 30
0.0
 40
0
 41
0
  0
VERTEX
  8
0
 10
1.2857
 20
0.757215
 30
0.0
 40
0
 41
0
  0
VERTEX
  8
0
 10
1.24072
 20
0.72206
 30
0.0
 40
0
 41
0
  0
VERTEX
  8
0
 10
1.19379
 20
0.685167
 30
0.0
 40
0
 41
0
  0
VERTEX
  8
0
 10
1.14714
 20
0.647624
 30
0.0
 40
0
 41
0
  0
VERTEX
  8
0
 10
1.10607
 20
0.613824
 30
0.0
 40
0
 41
0
  0
VERTEX
  8
0
 10
1.07601
 20
0.588108
 30
0.0
 40
0
 41
0
  0
VERTEX
  8
0
 10
1.03597
 20
0.553711
 30
0.0
 40
0
 41
0
  0
VERTEX
  8
0
 10
0.985026
 20
0.511285
 30
0.0
 40
0
 41
0
  0
VERTEX
  8
0
 10
0.927029
 20
0.463975
 30
0.0
 40
0
 41
0
  0
VERTEX
  8
0
 10
0.86594
 20
0.414931
 30
0.0
 40
0
 41
0
  0
VERTEX
  8
0
 10
0.80561
 20
0.367296
 30
0.0
 40
0
 41
0
  0
VERTEX
  8
0
 10
0.75
 20
0.32411
 30
0.0
 40
0
 41
0
  0
VERTEX
  8
0
 10
0.703017
 20
0.288465
 30
0.0
 40
0
 41
0
  0
VERTEX
  8
0
 10
0.668511
 20
0.263564
 30
0.0
 40
0
 41
0
  0
VERTEX
  8
0
 10
0.64209
 20
0.246039
 30
0.0
 40
0
 41
0
  0
VERTEX
  8
0
 10
0.620335
 20
0.234375
 30
0.0
 40
0
 41
0
  0
VERTEX
  8
0
 10
0.600911
 20
0.229438
 30
0.0
 40
0
 41
0
  0
VERTEX
  8
0
 10
0.581489
 20
0.231933
 30
0.0
 40
0
 41
0
  0
VERTEX
  8
0
 10
0.559625
 20
0.242567
 30
0.0
 40
0
 41
0
  0
VERTEX
  8
0
 10
0.533094
 20
0.262153
 30
0.0
 40
0
 41
0
  0
VERTEX
  8
0
 10
0.499511
 20
0.291342
 30
0.0
 40
0
 41
0
  0
VERTEX
  8
0
 10
0.456597
 20
0.330946
 30
0.0
 40
0
 41
0
  0
VERTEX
  8
0
 10
0.421821
 20
0.362468
 30
0.0
 40
0
 41
0
  0
VERTEX
  8
0
 10
0.391601
 20
0.388292
 30
0.0
 40
0
 41
0
  0
VERTEX
  8
0
 10
0.369194
 20
0.405707
 30
0.0
 40
0
 41
0
  0
VERTEX
  8
0
 10
0.357801
 20
0.41211
 30
0.0
 40
0
 41
0
  0
VERTEX
  8
0
 10
0.349501
 20
0.417156
 30
0.0
 40
0
 41
0
  0
VERTEX
  8
0
 10
0.345757
 20
0.429144
 30
0.0
 40
0
 41
0
  0
VERTEX
  8
0
 10
0.334581
 20
0.449001
 30
0.0
 40
0
 41
0
  0
VERTEX
  8
0
 10
0.308322
 20
0.472765
 30
0.0
 40
0
 41
0
  0
VERTEX
  8
0
 10
0.231988
 20
0.533963
 30
0.0
 40
0
 41
0
  0
VERTEX
  8
0
 10
0.155871
 20
0.604818
 30
0.0
 40
0
 41
0
  0
VERTEX
  8
0
 10
0.097385
 20
0.668024
 30
0.0
 40
0
 41
0
  0
VERTEX
  8
0
 10
0.0738932
 20
0.706108
 30
0.0
 40
0
 41
0
  0
VERTEX
  8
0
 10
0.0785047
 20
0.721897
 30
0.0
 40
0
 41
0
  0
VERTEX
  8
0
 10
0.0923394
 20
0.741644
 30
0.0
 40
0
 41
0
  0
VERTEX
  8
0
 10
0.114746
 20
0.764703
 30
0.0
 40
0
 41
0
  0
VERTEX
  8
0
 10
0.145182
 20
0.790364
 30
0.0
 40
0
 41
0
  0
VERTEX
  8
0
 10
0.231011
 20
0.858399
 30
0.0
 40
0
 41
0
  0
VERTEX
  8
0
 10
0.293457
 20
0.909506
 30
0.0
 40
0
 41
0
  0
VERTEX
  8
0
 10
0.33176
 20
0.943197
 30
0.0
 40
0
 41
0
  0
VERTEX
  8
0
 10
0.345215
 20
0.958822
 30
0.0
 40
0
 41
0
  0
VERTEX
  8
0
 10
0.336914
 20
0.976128
 30
0.0
 40
0
 41
0
  0
VERTEX
  8
0
 10
0.315701
 20
1.00597
 30
0.0
 40
0
 41
0
  0
VERTEX
  8
0
 10
0.295356
 20
1.04069
 30
0.0
 40
0
 41
0
  0
VERTEX
  8
0
 10
0.289333
 20
1.0695
 30
0.0
 40
0
 41
0
  0
VERTEX
  8
0
 10
0.284017
 20
1.10032
 30
0.0
 40
0
 41
0
  0
VERTEX
  8
0
 10
0.265354
 20
1.1397
 30
0.0
 40
0
 41
0
  0
VERTEX
  8
0
 10
0.244086
 20
1.17942
 30
0.0
 40
0
 41
0
  0
VERTEX
  8
0
 10
0.240614
 20
1.20893
 30
0.0
 40
0
 41
0
  0
VERTEX
  8
0
 10
0.25689
 20
1.2372
 30
0.0
 40
0
 41
0
  0
VERTEX
  8
0
 10
0.294868
 20
1.273
 30
0.0
 40
0
 41
0
  0
VERTEX
  8
0
 10
0.353028
 20
1.32302
 30
0.0
 40
0
 41
0
  0
VERTEX
  8
0
 10
0.351779
 20
1.44336
 30
0.0
 40
0
 41
0
  0
VERTEX
  8
0
 10
0.351942
 20
1.48742
 30
0.0
 40
0
 41
0
  0
VERTEX
  8
0
 10
0.353515
 20
1.51833
 30
0.0
 40
0
 41
0
  0
VERTEX
  8
0
 10
0.356065
 20
1.53336
 30
0.0
 40
0
 41
0
  0
VERTEX
  8
0
 10
0.359483
 20
1.52963
 30
0.0
 40
0
 41
0
  0
VERTEX
  8
0
 10
0.36415
 20
1.51844
 30
0.0
 40
0
 41
0
  0
VERTEX
  8
0
 10
0.368544
 20
1.52333
 30
0.0
 40
0
 41
0
  0
VERTEX
  8
0
 10
0.373047
 20
1.54531
 30
0.0
 40
0
 41
0
  0
VERTEX
  8
0
 10
0.377929
 20
1.5855
 30
0.0
 40
0
 41
0
  0
VERTEX
  8
0
 10
0.385092
 20
1.62999
 30
0.0
 40
0
 41
0
  0
VERTEX
  8
0
 10
0.397515
 20
1.68044
 30
0.0
 40
0
 41
0
  0
VERTEX
  8
0
 10
0.413954
 20
1.73281
 30
0.0
 40
0
 41
0
  0
VERTEX
  8
0
 10
0.433376
 20
1.78315
 30
0.0
 40
0
 41
0
  0
VERTEX
  8
0
 10
0.470378
 20
1.88954
 30
0.0
 40
0
 41
0
  0
VERTEX
  8
0
 10
0.48801
 20
1.99317
 30
0.0
 40
0
 41
0
  0
VERTEX
  8
0
 10
0.493381
 20
2.03965
 30
0.0
 40
0
 41
0
  0
VERTEX
  8
0
 10
0.501682
 20
2.09044
 30
0.0
 40
0
 41
0
  0
VERTEX
  8
0
 10
0.511719
 20
2.13949
 30
0.0
 40
0
 41
0
  0
VERTEX
  8
0
 10
0.522407
 20
2.18056
 30
0.0
 40
0
 41
0
  0
VERTEX
  8
0
 10
0.531683
 20
2.2136
 30
0.0
 40
0
 41
0
  0
VERTEX
  8
0
 10
0.537924
 20
2.24067
 30
0.0
 40
0
 41
0
  0
VERTEX
  8
0
 10
0.540582
 20
2.25896
 30
0.0
 40
0
 41
0
  0
VERTEX
  8
0
 10
0.539171
 20
2.26574
 30
0.0
 40
0
 41
0
  0
VERTEX
  8
0
 10
0.537435
 20
2.26882
 30
0.0
 40
0
 41
0
  0
VERTEX
  8
0
 10
0.545899
 20
2.27593
 30
0.0
 40
0
 41
0
  0
VERTEX
  8
0
 10
0.559028
 20
2.29606
 30
0.0
 40
0
 41
0
  0
VERTEX
  8
0
 10
0.568576
 20
2.33035
 30
0.0
 40
0
 41
0
  0
VERTEX
  8
0
 10
0.569933
 20
2.35992
 30
0.0
 40
0
 41
0
  0
VERTEX
  8
0
 10
0.562825
 20
2.36686
 30
0.0
 40
0
 41
0
  0
VERTEX
  8
0
 10
0.553874
 20
2.36692
 30
0.0
 40
0
 41
0
  0
VERTEX
  8
0
 10
0.5389
 20
2.37289
 30
0.0
 40
0
 41
0
  0
VERTEX
  8
0
 10
0.520019
 20
2.38374
 30
0.0
 40
0
 41
0
  0
VERTEX
  8
0
 10
0.499294
 20
2.39839
 30
0.0
 40
0
 41
0
  0
VERTEX
  8
0
 10
0.470269
 20
2.42025
 30
0.0
 40
0
 41
0
  0
VERTEX
  8
0
 10
0.439779
 20
2.44228
 30
0.0
 40
0
 41
0
  0
VERTEX
  8
0
 10
0.409125
 20
2.46343
 30
0.0
 40
0
 41
0
  0
VERTEX
  8
0
 10
0.379883
 20
2.48292
 30
0.0
 40
0
 41
0
  0
VERTEX
  8
0
 10
0.353407
 20
2.49968
 30
0.0
 40
0
 41
0
  0
VERTEX
  8
0
 10
0.331218
 20
2.51286
 30
0.0
 40
0
 41
0
  0
VERTEX
  8
0
 10
0.314725
 20
2.52143
 30
0.0
 40
0
 41
0
  0
VERTEX
  8
0
 10
0.305393
 20
2.52447
 30
0.0
 40
0
 41
0
  0
VERTEX
  8
0
 10
0.291015
 20
2.53276
 30
0.0
 40
0
 41
0
  0
VERTEX
  8
0
 10
0.273546
 20
2.55257
 30
0.0
 40
0
 41
0
  0
VERTEX
  8
0
 10
0.241319
 20
2.58649
 30
0.0
 40
0
 41
0
  0
VERTEX
  8
0
 10
0.194174
 20
2.62408
 30
0.0
 40
0
 41
0
  0
VERTEX
  8
0
 10
0.145779
 20
2.65549
 30
0.0
 40
0
 41
0
  0
VERTEX
  8
0
 10
0.11008
 20
2.67068
 30
0.0
 40
0
 41
0
  0
VERTEX
  8
0
 10
0.0859375
 20
2.68056
 30
0.0
 40
0
 41
0
  0
VERTEX
  8
0
 10
0.0658637
 20
2.69846
 30
0.0
 40
0
 41
0
  0
VERTEX
  8
0
 10
0.0565864
 20
2.72211
 30
0.0
 40
0
 41
0
  0
VERTEX
  8
0
 10
0.0741644
 20
2.74588
 30
0.0
 40
0
 41
0
  0
VERTEX
  8
0
 10
0.097385
 20
2.76269
 30
0.0
 40
0
 41
0
  0
VERTEX
  8
0
 10
0.11735
 20
2.76953
 30
0.0
 40
0
 41
0
  0
VERTEX
  8
0
 10
0.12717
 20
2.76687
 30
0.0
 40
0
 41
0
  0
VERTEX
  8
0
 10
0.116157
 20
2.75738
 30
0.0
 40
0
 41
0
  0
VERTEX
  8
0
 10
0.106174
 20
2.74636
 30
0.0
 40
0
 41
0
  0
VERTEX
  8
0
 10
0.122938
 20
2.7379
 30
0.0
 40
0
 41
0
  0
VERTEX
  8
0
 10
0.171442
 20
2.72581
 30
0.0
 40
0
 41
0
  0
VERTEX
  8
0
 10
0.212239
 20
2.71972
 30
0.0
 40
0
 41
0
  0
VERTEX
  8
0
 10
0.240343
 20
2.72017
 30
0.0
 40
0
 41
0
  0
VERTEX
  8
0
 10
0.250814
 20
2.72738
 30
0.0
 40
0
 41
0
  0
VERTEX
  8
0
 10
0.261719
 20
2.73736
 30
0.0
 40
0
 41
0
  0
VERTEX
  8
0
 10
0.290744
 20
2.74197
 30
0.0
 40
0
 41
0
  0
VERTEX
  8
0
 10
0.332303
 20
2.74192
 30
0.0
 40
0
 41
0
  0
VERTEX
  8
0
 10
0.380751
 20
2.7379
 30
0.0
 40
0
 41
0
  0
VERTEX
  8
0
 10
0.430556
 20
2.73053
 30
0.0
 40
0
 41
0
  0
VERTEX
  8
0
 10
0.476019
 20
2.72038
 30
0.0
 40
0
 41
0
  0
VERTEX
  8
0
 10
0.511556
 20
2.70822
 30
0.0
 40
0
 41
0
  0
VERTEX
  8
0
 10
0.531683
 20
2.69467
 30
0.0
 40
0
 41
0
  0
VERTEX
  8
0
 10
0.56174
 20
2.6754
 30
0.0
 40
0
 41
0
  0
VERTEX
  8
0
 10
0.597493
 20
2.6959
 30
0.0
 40
0
 41
0
  0
VERTEX
  8
0
 10
0.611871
 20
2.71647
 30
0.0
 40
0
 41
0
  0
VERTEX
  8
0
 10
0.607747
 20
2.73101
 30
0.0
 40
0
 41
0
  0
VERTEX
  8
0
 10
0.585015
 20
2.73969
 30
0.0
 40
0
 41
0
  0
VERTEX
  8
0
 10
0.543511
 20
2.74251
 30
0.0
 40
0
 41
0
  0
VERTEX
  8
0
 10
0.514486
 20
2.74479
 30
0.0
 40
0
 41
0
  0
VERTEX
  8
0
 10
0.479926
 20
2.75086
 30
0.0
 40
0
 41
0
  0
VERTEX
  8
0
 10
0.444119
 20
2.75988
 30
0.0
 40
0
 41
0
  0
VERTEX
  8
0
 10
0.411458
 20
2.77089
 30
0.0
 40
0
 41
0
  0
VERTEX
  8
0
 10
0.382921
 20
2.78179
 30
0.0
 40
0
 41
0
  0
VERTEX
  8
0
 10
0.358507
 20
2.79036
 30
0.0
 40
0
 41
0
  0
VERTEX
  8
0
 10
0.340875
 20
2.79579
 30
0.0
 40
0
 41
0
  0
VERTEX
  8
0
 10
0.332574
 20
2.79719
 30
0.0
 40
0
 41
0
  0
VERTEX
  8
0
 10
0.290961
 20
2.79812
 30
0.0
 40
0
 41
0
  0
VERTEX
  8
0
 10
0.205946
 20
2.80382
 30
0.0
 40
0
 41
0
  0
VERTEX
  8
0
 10
0.113498
 20
2.81153
 30
0.0
 40
0
 41
0
  0
VERTEX
  8
0
 10
0.0498047
 20
2.81858
 30
0.0
 40
0
 41
0
  0
VERTEX
  8
0
 10
0.01926
 20
2.82894
 30
0.0
 40
0
 41
0
  0
VERTEX
  8
0
 10
0.00613064
 20
2.84754
 30
0.0
 40
0
 41
0
  0
VERTEX
  8
0
 10
0.0104709
 20
2.87435
 30
0.0
 40
0
 41
0
  0
VERTEX
  8
0
 10
0.032335
 20
2.90918
 30
0.0
 40
0
 41
0
  0
VERTEX
  8
0
 10
0.0483399
 20
2.93614
 30
0.0
 40
0
 41
0
  0
VERTEX
  8
0
 10
0.0493707
 20
2.95301
 30
0.0
 40
0
 41
0
  0
VERTEX
  8
0
 10
0.0484483
 20
2.95865
 30
0.0
 40
0
 41
0
  0
VERTEX
  8
0
 10
0.0600043
 20
2.95828
 30
0.0
 40
0
 41
0
  0
VERTEX
  8
0
 10
0.0733507
 20
2.96039
 30
0.0
 40
0
 41
0
  0
VERTEX
  8
0
 10
0.0767144
 20
2.97179
 30
0.0
 40
0
 41
0
  0
VERTEX
  8
0
 10
0.0783419
 20
2.98193
 30
0.0
 40
0
 41
0
  0
VERTEX
  8
0
 10
0.0877821
 20
2.98068
 30
0.0
 40
0
 41
0
  0
VERTEX
  8
0
 10
0.10498
 20
2.98014
 30
0.0
 40
0
 41
0
  0
VERTEX
  8
0
 10
0.125597
 20
2.99164
 30
0.0
 40
0
 41
0
  0
VERTEX
  8
0
 10
0.157553
 20
3.01465
 30
0.0
 40
0
 41
0
  0
VERTEX
  8
0
 10
0.196018
 20
3.03532
 30
0.0
 40
0
 41
0
  0
VERTEX
  8
0
 10
0.233615
 20
3.05024
 30
0.0
 40
0
 41
0
  0
VERTEX
  8
0
 10
0.263075
 20
3.05593
 30
0.0
 40
0
 41
0
  0
VERTEX
  8
0
 10
0.285536
 20
3.06119
 30
0.0
 40
0
 41
0
  0
VERTEX
  8
0
 10
0.301215
 20
3.07378
 30
0.0
 40
0
 41
0
  0
VERTEX
  8
0
 10
0.343099
 20
3.11242
 30
0.0
 40
0
 41
0
  0
VERTEX
  8
0
 10
0.404406
 20
3.13374
 30
0.0
 40
0
 41
0
  0
VERTEX
  8
0
 10
0.473469
 20
3.13579
 30
0.0
 40
0
 41
0
  0
VERTEX
  8
0
 10
0.538738
 20
3.11637
 30
0.0
 40
0
 41
0
  0
VERTEX
  8
0
 10
0.571994
 20
3.08919
 30
0.0
 40
0
 41
0
  0
VERTEX
  8
0
 10
0.597982
 20
3.04964
 30
0.0
 40
0
 41
0
  0
VERTEX
  8
0
 10
0.612847
 20
3.00575
 30
0.0
 40
0
 41
0
  0
VERTEX
  8
0
 10
0.612685
 20
2.96544
 30
0.0
 40
0
 41
0
  0
VERTEX
  8
0
 10
0.610949
 20
2.9426
 30
0.0
 40
0
 41
0
  0
VERTEX
  8
0
 10
0.618489
 20
2.93326
 30
0.0
 40
0
 41
0
  0
VERTEX
  8
0
 10
0.628256
 20
2.93929
 30
0.0
 40
0
 41
0
  0
VERTEX
  8
0
 10
0.632378
 20
2.95372
 30
0.0
 40
0
 41
0
  0
VERTEX
  8
0
 10
0.633464
 20
2.96436
 30
0.0
 40
0
 41
0
  0
VERTEX
  8
0
 10
0.637315
 20
2.97054
 30
0.0
 40
0
 41
0
  0
VERTEX
  8
0
 10
0.64464
 20
2.97179
 30
0.0
 40
0
 41
0
  0
VERTEX
  8
0
 10
0.65625
 20
2.96789
 30
0.0
 40
0
 41
0
  0
VERTEX
  8
0
 10
0.672851
 20
2.95833
 30
0.0
 40
0
 41
0
  0
VERTEX
  8
0
 10
0.695313
 20
2.94287
 30
0.0
 40
0
 41
0
  0
VERTEX
  8
0
 10
0.724283
 20
2.92106
 30
0.0
 40
0
 41
0
  0
VERTEX
  8
0
 10
0.760579
 20
2.89253
 30
0.0
 40
0
 41
0
  0
VERTEX
  8
0
 10
0.808376
 20
2.85303
 30
0.0
 40
0
 41
0
  0
VERTEX
  8
0
 10
0.83865
 20
2.82394
 30
0.0
 40
0
 41
0
  0
VERTEX
  8
0
 10
0.853353
 20
2.80306
 30
0.0
 40
0
 41
0
  0
VERTEX
  8
0
 10
0.854546
 20
2.78808
 30
0.0
 40
0
 41
0
  0
VERTEX
  8
0
 10
0.851887
 20
2.77339
 30
0.0
 40
0
 41
0
  0
VERTEX
  8
0
 10
0.861763
 20
2.77513
 30
0.0
 40
0
 41
0
  0
VERTEX
  8
0
 10
0.872993
 20
2.78857
 30
0.0
 40
0
 41
0
  0
VERTEX
  8
0
 10
0.877713
 20
2.80692
 30
0.0
 40
0
 41
0
  0
VERTEX
  8
0
 10
0.88341
 20
2.82872
 30
0.0
 40
0
 41
0
  0
VERTEX
  8
0
 10
0.897244
 20
2.85038
 30
0.0
 40
0
 41
0
  0
VERTEX
  8
0
 10
0.95535
 20
2.912
 30
0.0
 40
0
 41
0
  0
VERTEX
  8
0
 10
1.00673
 20
2.96012
 30
0.0
 40
0
 41
0
  0
VERTEX
  8
0
 10
1.05523
 20
2.99821
 30
0.0
 40
0
 41
0
  0
VERTEX
  8
0
 10
1.10482
 20
3.02957
 30
0.0
 40
0
 41
0
  0
VERTEX
  8
0
 10
1.13618
 20
3.04769
 30
0.0
 40
0
 41
0
  0
VERTEX
  8
0
 10
1.16292
 20
3.06369
 30
0.0
 40
0
 41
0
  0
VERTEX
  8
0
 10
1.18218
 20
3.0759
 30
0.0
 40
0
 41
0
  0
VERTEX
  8
0
 10
1.19113
 20
3.08251
 30
0.0
 40
0
 41
0
  0
VERTEX
  8
0
 10
1.23286
 20
3.10954
 30
0.0
 40
0
 41
0
  0
VERTEX
  8
0
 10
1.30832
 20
3.14611
 30
0.0
 40
0
 41
0
  0
VERTEX
  8
0
 10
1.38938
 20
3.17958
 30
0.0
 40
0
 41
0
  0
VERTEX
  8
0
 10
1.44792
 20
3.19743
 30
0.0
 40
0
 41
0
  0
VERTEX
  8
0
 10
1.50444
 20
3.21143
 30
0.0
 40
0
 41
0
  0
VERTEX
  8
0
 10
1.55724
 20
3.23215
 30
0.0
 40
0
 41
0
  0
VERTEX
  8
0
 10
1.59896
 20
3.2494
 30
0.0
 40
0
 41
0
  0
VERTEX
  8
0
 10
1.65082
 20
3.26226
 30
0.0
 40
0
 41
0
  0
VERTEX
  8
0
 10
1.71935
 20
3.27197
 30
0.0
 40
0
 41
0
  0
VERTEX
  8
0
 10
1.81119
 20
3.27974
 30
0.0
 40
0
 41
0
  0
VERTEX
  8
0
 10
1.88997
 20
3.28657
 30
0.0
 40
0
 41
0
  0
VERTEX
  8
0
 10
1.96451
 20
3.29503
 30
0.0
 40
0
 41
0
  0
VERTEX
  8
0
 10
1.99257
 20
3.29796
 30
0.0
 40
0
 41
0
  0
VERTEX
  8
0
 10
2.01531
 20
3.29844
 30
0.0
 40
0
 41
0
  0
VERTEX
  8
0
 10
2.03049
 20
3.29665
 30
0.0
 40
0
 41
0
  0
VERTEX
  8
0
 10
2.03608
 20
3.29258
 30
0.0
 40
0
 41
0
  0
VERTEX
  8
0
 10
2.04249
 20
3.28131
 30
0.0
 40
0
 41
0
  0
VERTEX
  8
0
 10
2.06006
 20
3.25944
 30
0.0
 40
0
 41
0
  0
VERTEX
  8
0
 10
2.08604
 20
3.23014
 30
0.0
 40
0
 41
0
  0
VERTEX
  8
0
 10
2.11783
 20
3.19661
 30
0.0
 40
0
 41
0
  0
VERTEX
  8
0
 10
2.15044
 20
3.16108
 30
0.0
 40
0
 41
0
  0
VERTEX
  8
0
 10
2.17632
 20
3.12858
 30
0.0
 40
0
 41
0
  0
VERTEX
  8
0
 10
2.19342
 20
3.10206
 30
0.0
 40
0
 41
0
  0
VERTEX
  8
0
 10
2.1996
 20
3.08436
 30
0.0
 40
0
 41
0
  0
VERTEX
  8
0
 10
2.20671
 20
3.0625
 30
0.0
 40
0
 41
0
  0
VERTEX
  8
0
 10
2.23031
 20
3.05572
 30
0.0
 40
0
 41
0
  0
VERTEX
  8
0
 10
2.24501
 20
3.05469
 30
0.0
 40
0
 41
0
  0
VERTEX
  8
0
 10
2.24794
 20
3.05057
 30
0.0
 40
0
 41
0
  0
VERTEX
  8
0
 10
2.23813
 20
3.04156
 30
0.0
 40
0
 41
0
  0
VERTEX
  8
0
 10
2.21463
 20
3.02582
 30
0.0
 40
0
 41
0
  0
VERTEX
  8
0
 10
2.18679
 20
3.01101
 30
0.0
 40
0
 41
0
  0
VERTEX
  8
0
 10
2.15582
 20
3.00196
 30
0.0
 40
0
 41
0
  0
VERTEX
  8
0
 10
2.11501
 20
2.99739
 30
0.0
 40
0
 41
0
  0
VERTEX
  8
0
 10
2.05789
 20
2.9961
 30
0.0
 40
0
 41
0
  0
VERTEX
  8
0
 10
1.98301
 20
2.99854
 30
0.0
 40
0
 41
0
  0
VERTEX
  8
0
 10
1.91531
 20
3.00786
 30
0.0
 40
0
 41
0
  0
VERTEX
  8
0
 10
1.84017
 20
3.02692
 30
0.0
 40
0
 41
0
  0
VERTEX
  8
0
 10
1.74306
 20
3.0586
 30
0.0
 40
0
 41
0
  0
VERTEX
  8
0
 10
1.70779
 20
3.0701
 30
0.0
 40
0
 41
0
  0
VERTEX
  8
0
 10
1.67231
 20
3.08046
 30
0.0
 40
0
 41
0
  0
VERTEX
  8
0
 10
1.64074
 20
3.0886
 30
0.0
 40
0
 41
0
  0
VERTEX
  8
0
 10
1.61714
 20
3.09332
 30
0.0
 40
0
 41
0
  0
VERTEX
  8
0
 10
1.58811
 20
3.10146
 30
0.0
 40
0
 41
0
  0
VERTEX
  8
0
 10
1.58046
 20
3.11193
 30
0.0
 40
0
 41
0
  0
VERTEX
  8
0
 10
1.57607
 20
3.1166
 30
0.0
 40
0
 41
0
  0
VERTEX
  8
0
 10
1.55854
 20
3.12007
 30
0.0
 40
0
 41
0
  0
VERTEX
  8
0
 10
1.53065
 20
3.12218
 30
0.0
 40
0
 41
0
  0
VERTEX
  8
0
 10
1.49517
 20
3.1225
 30
0.0
 40
0
 41
0
  0
VERTEX
  8
0
 10
1.46126
 20
3.12142
 30
0.0
 40
0
 41
0
  0
VERTEX
  8
0
 10
1.43761
 20
3.11963
 30
0.0
 40
0
 41
0
  0
VERTEX
  8
0
 10
1.42632
 20
3.1174
 30
0.0
 40
0
 41
0
  0
VERTEX
  8
0
 10
1.42964
 20
3.1149
 30
0.0
 40
0
 41
0
  0
VERTEX
  8
0
 10
1.47342
 20
3.10097
 30
0.0
 40
0
 41
0
  0
VERTEX
  8
0
 10
1.48708
 20
3.08681
 30
0.0
 40
0
 41
0
  0
VERTEX
  8
0
 10
1.47086
 20
3.07471
 30
0.0
 40
0
 41
0
  0
VERTEX
  8
0
 10
1.42497
 20
3.06706
 30
0.0
 40
0
 41
0
  0
VERTEX
  8
0
 10
1.39117
 20
3.06153
 30
0.0
 40
0
 41
0
  0
VERTEX
  8
0
 10
1.37326
 20
3.05294
 30
0.0
 40
0
 41
0
  0
VERTEX
  8
0
 10
1.35965
 20
3.04546
 30
0.0
 40
0
 41
0
  0
VERTEX
  8
0
 10
1.33621
 20
3.04232
 30
0.0
 40
0
 41
0
  0
VERTEX
  8
0
 10
1.31331
 20
3.03678
 30
0.0
 40
0
 41
0
  0
VERTEX
  8
0
 10
1.27523
 20
3.02181
 30
0.0
 40
0
 41
0
  0
VERTEX
  8
0
 10
1.22678
 20
2.99989
 30
0.0
 40
0
 41
0
  0
VERTEX
  8
0
 10
1.17291
 20
2.97353
 30
0.0
 40
0
 41
0
  0
VERTEX
  8
0
 10
1.11865
 20
2.94521
 30
0.0
 40
0
 41
0
  0
VERTEX
  8
0
 10
1.06885
 20
2.91749
 30
0.0
 40
0
 41
0
  0
VERTEX
  8
0
 10
1.02848
 20
2.89274
 30
0.0
 40
0
 41
0
  0
VERTEX
  8
0
 10
1.0025
 20
2.87358
 30
0.0
 40
0
 41
0
  0
VERTEX
  8
0
 10
0.971408
 20
2.84169
 30
0.0
 40
0
 41
0
  0
VERTEX
  8
0
 10
0.954807
 20
2.81526
 30
0.0
 40
0
 41
0
  0
VERTEX
  8
0
 10
0.952692
 20
2.79476
 30
0.0
 40
0
 41
0
  0
VERTEX
  8
0
 10
0.965332
 20
2.78039
 30
0.0
 40
0
 41
0
  0
VERTEX
  8
0
 10
0.979656
 20
2.76449
 30
0.0
 40
0
 41
0
  0
VERTEX
  8
0
 10
0.980089
 20
2.74306
 30
0.0
 40
0
 41
0
  0
VERTEX
  8
0
 10
0.980794
 20
2.73324
 30
0.0
 40
0
 41
0
  0
VERTEX
  8
0
 10
0.994954
 20
2.73426
 30
0.0
 40
0
 41
0
  0
VERTEX
  8
0
 10
1.0262
 20
2.74718
 30
0.0
 40
0
 41
0
  0
VERTEX
  8
0
 10
1.07829
 20
2.77317
 30
0.0
 40
0
 41
0
  0
VERTEX
  8
0
 10
1.12207
 20
2.79676
 30
0.0
 40
0
 41
0
  0
VERTEX
  8
0
 10
1.16303
 20
2.82036
 30
0.0
 40
0
 41
0
  0
VERTEX
  8
0
 10
1.19651
 20
2.84136
 30
0.0
 40
0
 41
0
  0
VERTEX
  8
0
 10
1.21799
 20
2.85682
 30
0.0
 40
0
 41
0
  0
VERTEX
  8
0
 10
1.23866
 20
2.87244
 30
0.0
 40
0
 41
0
  0
VERTEX
  8
0
 10
1.23334
 20
2.86171
 30
0.0
 40
0
 41
0
  0
VERTEX
  8
0
 10
1.22721
 20
2.85118
 30
0.0
 40
0
 41
0
  0
VERTEX
  8
0
 10
1.2328
 20
2.84901
 30
0.0
 40
0
 41
0
  0
VERTEX
  8
0
 10
1.25233
 20
2.85562
 30
0.0
 40
0
 41
0
  0
VERTEX
  8
0
 10
1.28825
 20
2.87136
 30
0.0
 40
0
 41
0
  0
VERTEX
  8
0
 10
1.36724
 20
2.90326
 30
0.0
 40
0
 41
0
  0
VERTEX
  8
0
 10
1.44043
 20
2.92507
 30
0.0
 40
0
 41
0
  0
VERTEX
  8
0
 10
1.49951
 20
2.93489
 30
0.0
 40
0
 41
0
  0
VERTEX
  8
0
 10
1.53614
 20
2.93072
 30
0.0
 40
0
 41
0
  0
VERTEX
  8
0
 10
1.56267
 20
2.90126
 30
0.0
 40
0
 41
0
  0
VERTEX
  8
0
 10
1.58914
 20
2.84592
 30
0.0
 40
0
 41
0
  0
VERTEX
  8
0
 10
1.6135
 20
2.77354
 30
0.0
 40
0
 41
0
  0
VERTEX
  8
0
 10
1.63396
 20
2.69299
 30
0.0
 40
0
 41
0
  0
VERTEX
  8
0
 10
1.64844
 20
2.61307
 30
0.0
 40
0
 41
0
  0
VERTEX
  8
0
 10
1.65517
 20
2.54258
 30
0.0
 40
0
 41
0
  0
VERTEX
  8
0
 10
1.65213
 20
2.4904
 30
0.0
 40
0
 41
0
  0
VERTEX
  8
0
 10
1.63747
 20
2.46533
 30
0.0
 40
0
 41
0
  0
VERTEX
  8
0
 10
1.62756
 20
2.45975
 30
0.0
 40
0
 41
0
  0
VERTEX
  8
0
 10
1.6371
 20
2.45736
 30
0.0
 40
0
 41
0
  0
VERTEX
  8
0
 10
1.64774
 20
2.44558
 30
0.0
 40
0
 41
0
  0
VERTEX
  8
0
 10
1.64621
 20
2.412
 30
0.0
 40
0
 41
0
  0
VERTEX
  8
0
 10
1.64328
 20
2.39187
 30
0.0
 40
0
 41
0
  0
VERTEX
  8
0
 10
1.64333
 20
2.38163
 30
0.0
 40
0
 41
0
  0
VERTEX
  8
0
 10
1.64654
 20
2.38064
 30
0.0
 40
0
 41
0
  0
VERTEX
  8
0
 10
1.65315
 20
2.38818
 30
0.0
 40
0
 41
0
  0
VERTEX
  8
0
 10
1.66347
 20
2.41764
 30
0.0
 40
0
 41
0
  0
VERTEX
  8
0
 10
1.66792
 20
2.45969
 30
0.0
 40
0
 41
0
  0
VERTEX
  8
0
 10
1.66878
 20
2.493
 30
0.0
 40
0
 41
0
  0
VERTEX
  8
0
 10
1.67546
 20
2.50717
 30
0.0
 40
0
 41
0
  0
VERTEX
  8
0
 10
1.69417
 20
2.50532
 30
0.0
 40
0
 41
0
  0
VERTEX
  8
0
 10
1.73139
 20
2.49044
 30
0.0
 40
0
 41
0
  0
VERTEX
  8
0
 10
1.76628
 20
2.47017
 30
0.0
 40
0
 41
0
  0
VERTEX
  8
0
 10
1.7724
 20
2.44997
 30
0.0
 40
0
 41
0
  0
VERTEX
  8
0
 10
1.77051
 20
2.43365
 30
0.0
 40
0
 41
0
  0
VERTEX
  8
0
 10
1.77675
 20
2.42247
 30
0.0
 40
0
 41
0
  0
VERTEX
  8
0
 10
1.78657
 20
2.42606
 30
0.0
 40
0
 41
0
  0
VERTEX
  8
0
 10
1.79318
 20
2.44504
 30
0.0
 40
0
 41
0
  0
VERTEX
  8
0
 10
1.79753
 20
2.45931
 30
0.0
 40
0
 41
0
  0
VERTEX
  8
0
 10
1.80783
 20
2.45953
 30
0.0
 40
0
 41
0
  0
VERTEX
  8
0
 10
1.82915
 20
2.44319
 30
0.0
 40
0
 41
0
  0
VERTEX
  8
0
 10
1.86649
 20
2.40776
 30
0.0
 40
0
 41
0
  0
VERTEX
  8
0
 10
1.89632
 20
2.37608
 30
0.0
 40
0
 41
0
  0
VERTEX
  8
0
 10
1.92676
 20
2.33951
 30
0.0
 40
0
 41
0
  0
VERTEX
  8
0
 10
1.95415
 20
2.30263
 30
0.0
 40
0
 41
0
  0
VERTEX
  8
0
 10
1.97499
 20
2.26992
 30
0.0
 40
0
 41
0
  0
VERTEX
  8
0
 10
1.99137
 20
2.24317
 30
0.0
 40
0
 41
0
  0
VERTEX
  8
0
 10
2.00672
 20
2.22244
 30
0.0
 40
0
 41
0
  0
VERTEX
  8
0
 10
2.01932
 20
2.20979
 30
0.0
 40
0
 41
0
  0
VERTEX
  8
0
 10
2.02746
 20
2.20731
 30
0.0
 40
0
 41
0
  0
VERTEX
  8
0
 10
2.0339
 20
2.20876
 30
0.0
 40
0
 41
0
  0
VERTEX
  8
0
 10
2.03157
 20
2.20107
 30
0.0
 40
0
 41
0
  0
VERTEX
  8
0
 10
2.03358
 20
2.18067
 30
0.0
 40
0
 41
0
  0
VERTEX
  8
0
 10
2.05089
 20
2.15126
 30
0.0
 40
0
 41
0
  0
VERTEX
  8
0
 10
2.06879
 20
2.12614
 30
0.0
 40
0
 41
0
  0
VERTEX
  8
0
 10
2.0726
 20
2.11561
 30
0.0
 40
0
 41
0
  0
VERTEX
  8
0
 10
2.07553
 20
2.10568
 30
0.0
 40
0
 41
0
  0
VERTEX
  8
0
 10
2.08817
 20
2.07861
 30
0.0
 40
0
 41
0
  0
VERTEX
  8
0
 10
2.10856
 20
2.03851
 30
0.0
 40
0
 41
0
  0
VERTEX
  8
0
 10
2.1346
 20
1.98953
 30
0.0
 40
0
 41
0
  0
VERTEX
  8
0
 10
2.16233
 20
1.93821
 30
0.0
 40
0
 41
0
  0
VERTEX
  8
0
 10
2.18733
 20
1.8915
 30
0.0
 40
0
 41
0
  0
VERTEX
  8
0
 10
2.20692
 20
1.85465
 30
0.0
 40
0
 41
0
  0
VERTEX
  8
0
 10
2.21832
 20
1.83279
 30
0.0
 40
0
 41
0
  0
VERTEX
  8
0
 10
2.23682
 20
1.80871
 30
0.0
 40
0
 41
0
  0
VERTEX
  8
0
 10
2.25982
 20
1.79368
 30
0.0
 40
0
 41
0
  0
VERTEX
  8
0
 10
2.27149
 20
1.78863
 30
0.0
 40
0
 41
0
  0
VERTEX
  8
0
 10
2.27268
 20
1.78315
 30
0.0
 40
0
 41
0
  0
VERTEX
  8
0
 10
2.26232
 20
1.77582
 30
0.0
 40
0
 41
0
  0
VERTEX
  8
0
 10
2.23936
 20
1.76519
 30
0.0
 40
0
 41
0
  0
VERTEX
  8
0
 10
2.20247
 20
1.75
 30
0.0
 40
0
 41
0
  0
VERTEX
  8
0
 10
2.17919
 20
1.74169
 30
0.0
 40
0
 41
0
  0
VERTEX
  8
0
 10
2.13857
 20
1.73085
 30
0.0
 40
0
 41
0
  0
VERTEX
  8
0
 10
2.11106
 20
1.72168
 30
0.0
 40
0
 41
0
  0
VERTEX
  8
0
 10
2.09549
 20
1.71376
 30
0.0
 40
0
 41
0
  0
VERTEX
  8
0
 10
2.0906
 20
1.70654
 30
0.0
 40
0
 41
0
  0
VERTEX
  8
0
 10
2.07667
 20
1.6964
 30
0.0
 40
0
 41
0
  0
VERTEX
  8
0
 10
2.03956
 20
1.68647
 30
0.0
 40
0
 41
0
  0
VERTEX
  8
0
 10
1.98606
 20
1.67757
 30
0.0
 40
0
 41
0
  0
VERTEX
  8
0
 10
1.92324
 20
1.67025
 30
0.0
 40
0
 41
0
  0
VERTEX
  8
0
 10
1.85786
 20
1.66525
 30
0.0
 40
0
 41
0
  0
VERTEX
  8
0
 10
1.79688
 20
1.66319
 30
0.0
 40
0
 41
0
  0
VERTEX
  8
0
 10
1.74724
 20
1.66476
 30
0.0
 40
0
 41
0
  0
VERTEX
  8
0
 10
1.71582
 20
1.67057
 30
0.0
 40
0
 41
0
  0
VERTEX
  8
0
 10
1.7015
 20
1.67622
 30
0.0
 40
0
 41
0
  0
VERTEX
  8
0
 10
1.69629
 20
1.67708
 30
0.0
 40
0
 41
0
  0
VERTEX
  8
0
 10
1.69993
 20
1.67264
 30
0.0
 40
0
 41
0
  0
VERTEX
  8
0
 10
1.71218
 20
1.66222
 30
0.0
 40
0
 41
0
  0
VERTEX
  8
0
 10
1.72601
 20
1.64567
 30
0.0
 40
0
 41
0
  0
VERTEX
  8
0
 10
1.72624
 20
1.63314
 30
0.0
 40
0
 41
0
  0
VERTEX
  8
0
 10
1.727
 20
1.62929
 30
0.0
 40
0
 41
0
  0
VERTEX
  8
0
 10
1.74229
 20
1.6334
 30
0.0
 40
0
 41
0
  0
VERTEX
  8
0
 10
1.759
 20
1.63704
 30
0.0
 40
0
 41
0
  0
VERTEX
  8
0
 10
1.75917
 20
1.62896
 30
0.0
 40
0
 41
0
  0
VERTEX
  8
0
 10
1.75863
 20
1.62239
 30
0.0
 40
0
 41
0
  0
VERTEX
  8
0
 10
1.76361
 20
1.61219
 30
0.0
 40
0
 41
0
  0
VERTEX
  8
0
 10
1.77458
 20
1.59787
 30
0.0
 40
0
 41
0
  0
VERTEX
  8
0
 10
1.7921
 20
1.57889
 30
0.0
 40
0
 41
0
  0
VERTEX
  8
0
 10
1.81668
 20
1.55469
 30
0.0
 40
0
 41
0
  0
VERTEX
  8
0
 10
1.84879
 20
1.52474
 30
0.0
 40
0
 41
0
  0
VERTEX
  8
0
 10
1.889
 20
1.4885
 30
0.0
 40
0
 41
0
  0
VERTEX
  8
0
 10
1.93787
 20
1.44542
 30
0.0
 40
0
 41
0
  0
VERTEX
  8
0
 10
1.98178
 20
1.40175
 30
0.0
 40
0
 41
0
  0
VERTEX
  8
0
 10
1.99496
 20
1.37326
 30
0.0
 40
0
 41
0
  0
VERTEX
  8
0
 10
1.97721
 20
1.35845
 30
0.0
 40
0
 41
0
  0
VERTEX
  8
0
 10
1.9285
 20
1.35596
 30
0.0
 40
0
 41
0
  0
VERTEX
  8
0
 10
1.88286
 20
1.36079
 30
0.0
 40
0
 41
0
  0
VERTEX
  8
0
 10
1.86686
 20
1.36768
 30
0.0
 40
0
 41
0
  0
VERTEX
  8
0
 10
1.8361
 20
1.38135
 30
0.0
 40
0
 41
0
  0
VERTEX
  8
0
 10
1.75526
 20
1.39893
 30
0.0
 40
0
 41
0
  0
VERTEX
  8
0
 10
1.65869
 20
1.41411
 30
0.0
 40
0
 41
0
  0
VERTEX
  8
0
 10
1.58068
 20
1.42057
 30
0.0
 40
0
 41
0
  0
VERTEX
  8
0
 10
1.53168
 20
1.41906
 30
0.0
 40
0
 41
0
  0
VERTEX
  8
0
 10
1.523
 20
1.41493
 30
0.0
 40
0
 41
0
  0
VERTEX
  8
0
 10
1.55311
 20
1.40896
 30
0.0
 40
0
 41
0
  0
VERTEX
  8
0
 10
1.62044
 20
1.40181
 30
0.0
 40
0
 41
0
  0
VERTEX
  8
0
 10
1.67453
 20
1.39686
 30
0.0
 40
0
 41
0
  0
VERTEX
  8
0
 10
1.71582
 20
1.39204
 30
0.0
 40
0
 41
0
  0
VERTEX
  8
0
 10
1.74636
 20
1.38623
 30
0.0
 40
0
 41
0
  0
VERTEX
  8
0
 10
1.76828
 20
1.37853
 30
0.0
 40
0
 41
0
  0
VERTEX
  8
0
 10
1.78364
 20
1.36784
 30
0.0
 40
0
 41
0
  0
VERTEX
  8
0
 10
1.79454
 20
1.35308
 30
0.0
 40
0
 41
0
  0
VERTEX
  8
0
 10
1.803
 20
1.33333
 30
0.0
 40
0
 41
0
  0
VERTEX
  8
0
 10
1.81114
 20
1.30751
 30
0.0
 40
0
 41
0
  0
VERTEX
  8
0
 10
1.81907
 20
1.27892
 30
0.0
 40
0
 41
0
  0
VERTEX
  8
0
 10
1.82563
 20
1.25201
 30
0.0
 40
0
 41
0
  0
VERTEX
  8
0
 10
1.83003
 20
1.22993
 30
0.0
 40
0
 41
0
  0
VERTEX
  8
0
 10
1.83165
 20
1.21555
 30
0.0
 40
0
 41
0
  0
VERTEX
  8
0
 10
1.83963
 20
1.18918
 30
0.0
 40
0
 41
0
  0
VERTEX
  8
0
 10
1.85894
 20
1.15793
 30
0.0
 40
0
 41
0
  0
VERTEX
  8
0
 10
1.87815
 20
1.12923
 30
0.0
 40
0
 41
0
  0
VERTEX
  8
0
 10
1.88618
 20
1.10883
 30
0.0
 40
0
 41
0
  0
VERTEX
  8
0
 10
1.89133
 20
1.10064
 30
0.0
 40
0
 41
0
  0
VERTEX
  8
0
 10
1.90386
 20
1.10113
 30
0.0
 40
0
 41
0
  0
VERTEX
  8
0
 10
1.92572
 20
1.09598
 30
0.0
 40
0
 41
0
  0
VERTEX
  8
0
 10
1.95356
 20
1.07389
 30
0.0
 40
0
 41
0
  0
VERTEX
  8
0
 10
1.98014
 20
1.05235
 30
0.0
 40
0
 41
0
  0
VERTEX
  8
0
 10
1.99929
 20
1.04834
 30
0.0
 40
0
 41
0
  0
VERTEX
  8
0
 10
2.00624
 20
1.04997
 30
0.0
 40
0
 41
0
  0
VERTEX
  8
0
 10
2.00364
 20
1.04161
 30
0.0
 40
0
 41
0
  0
VERTEX
  8
0
 10
2.0045
 20
1.02327
 30
0.0
 40
0
 41
0
  0
VERTEX
  8
0
 10
2.02001
 20
1.00054
 30
0.0
 40
0
 41
0
  0
VERTEX
  8
0
 10
2.03635
 20
0.978028
 30
0.0
 40
0
 41
0
  0
VERTEX
  8
0
 10
2.06185
 20
0.93571
 30
0.0
 40
0
 41
0
  0
VERTEX
  8
0
 10
2.09289
 20
0.879719
 30
0.0
 40
0
 41
0
  0
VERTEX
  8
0
 10
2.12614
 20
0.816081
 30
0.0
 40
0
 41
0
  0
VERTEX
  8
0
 10
2.16818
 20
0.735732
 30
0.0
 40
0
 41
0
  0
VERTEX
  8
0
 10
2.19949
 20
0.684028
 30
0.0
 40
0
 41
0
  0
VERTEX
  8
0
 10
2.22532
 20
0.653429
 30
0.0
 40
0
 41
0
  0
VERTEX
  8
0
 10
2.25103
 20
0.636176
 30
0.0
 40
0
 41
0
  0
VERTEX
  8
0
 10
2.29492
 20
0.6014
 30
0.0
 40
0
 41
0
  0
VERTEX
  8
0
 10
2.33751
 20
0.540799
 30
0.0
 40
0
 41
0
  0
VERTEX
  8
0
 10
2.35519
 20
0.512099
 30
0.0
 40
0
 41
0
  0
VERTEX
  8
0
 10
2.37153
 20
0.490451
 30
0.0
 40
0
 41
0
  0
VERTEX
  8
0
 10
2.38487
 20
0.477701
 30
0.0
 40
0
 41
0
  0
VERTEX
  8
0
 10
2.39382
 20
0.475532
 30
0.0
 40
0
 41
0
  0
VERTEX
  8
0
 10
2.40147
 20
0.477593
 30
0.0
 40
0
 41
0
  0
VERTEX
  8
0
 10
2.39849
 20
0.468696
 30
0.0
 40
0
 41
0
  0
VERTEX
  8
0
 10
2.40494
 20
0.451551
 30
0.0
 40
0
 41
0
  0
VERTEX
  8
0
 10
2.43158
 20
0.416342
 30
0.0
 40
0
 41
0
  0
VERTEX
  8
0
 10
2.47607
 20
0.365886
 30
0.0
 40
0
 41
0
  0
VERTEX
  8
0
 10
2.53597
 20
0.30306
 30
0.0
 40
0
 41
0
  0
VERTEX
  8
0
 10
2.58137
 20
0.257324
 30
0.0
 40
0
 41
0
  0
VERTEX
  8
0
 10
2.62001
 20
0.219456
 30
0.0
 40
0
 41
0
  0
VERTEX
  8
0
 10
2.65153
 20
0.189669
 30
0.0
 40
0
 41
0
  0
VERTEX
  8
0
 10
2.67583
 20
0.16824
 30
0.0
 40
0
 41
0
  0
VERTEX
  8
0
 10
2.69254
 20
0.155219
 30
0.0
 40
0
 41
0
  0
VERTEX
  8
0
 10
2.70161
 20
0.150879
 30
0.0
 40
0
 41
0
  0
VERTEX
  8
0
 10
2.70275
 20
0.155382
 30
0.0
 40
0
 41
0
  0
VERTEX
  8
0
 10
2.69575
 20
0.168892
 30
0.0
 40
0
 41
0
  0
VERTEX
  8
0
 10
2.69282
 20
0.177843
 30
0.0
 40
0
 41
0
  0
VERTEX
  8
0
 10
2.70199
 20
0.174804
 30
0.0
 40
0
 41
0
  0
VERTEX
  8
0
 10
2.71099
 20
0.164225
 30
0.0
 40
0
 41
0
  0
VERTEX
  8
0
 10
2.71035
 20
0.152615
 30
0.0
 40
0
 41
0
  0
VERTEX
  8
0
 10
2.71169
 20
0.143989
 30
0.0
 40
0
 41
0
  0
VERTEX
  8
0
 10
2.72689
 20
0.136122
 30
0.0
 40
0
 41
0
  0
VERTEX
  8
0
 10
2.75575
 20
0.129069
 30
0.0
 40
0
 41
0
  0
VERTEX
  8
0
 10
2.79818
 20
0.122938
 30
0.0
 40
0
 41
0
  0
VERTEX
  8
0
 10
2.82676
 20
0.114855
 30
0.0
 40
0
 41
0
  0
VERTEX
  8
0
 10
2.83599
 20
0.102376
 30
0.0
 40
0
 41
0
  0
VERTEX
  8
0
 10
2.82585
 20
0.0898981
 30
0.0
 40
0
 41
0
  0
VERTEX
  8
0
 10
2.79665
 20
0.0819228
 30
0.0
 40
0
 41
0
  0
VERTEX
  8
0
 10
2.75157
 20
0.0769857
 30
0.0
 40
0
 41
0
  0
VERTEX
  8
0
 10
2.79243
 20
0.066569
 30
0.0
 40
0
 41
0
  0
VERTEX
  8
0
 10
2.85363
 20
0.0447592
 30
0.0
 40
0
 41
0
  0
VERTEX
  8
0
 10
2.87131
 20
0.0222439
 30
0.0
 40
0
 41
0
  0
VERTEX
  8
0
 10
2.85949
 20
0.0105794
 30
0.0
 40
0
 41
0
  0
VERTEX
  8
0
 10
2.8349
 20
0.00580512
 30
0.0
 40
0
 41
0
  0
VERTEX
  8
0
 10
2.803
 20
0.00819228
 30
0.0
 40
0
 41
0
  0
VERTEX
  8
0
 10
2.76942
 20
0.0179579
 30
0.0
 40
0
 41
0
  0
VERTEX
  8
0
 10
2.73753
 20
0.0266385
 30
0.0
 40
0
 41
0
  0
VERTEX
  8
0
 10
2.71961
 20
0.022461
 30
0.0
 40
0
 41
0
  0
VERTEX
  8
0
 10
2.70176
 20
0.0109592
 30
0.0
 40
0
 41
0
  0
VERTEX
  8
0
 10
2.67242
 20
0.0161133
 30
0.0
 40
0
 41
0
  0
VERTEX
  8
0
 10
2.62582
 20
0.0402018
 30
0.0
 40
0
 41
0
  0
VERTEX
  8
0
 10
2.55647
 20
0.0852322
 30
0.0
 40
0
 41
0
  0
SEQEND
 8
0
  0
POLYLINE
  8
0
 62
     0
 66
     1
 10
0
 20
0
 30
0.0
 70
     1
 40
0
 41
0
  0
VERTEX
  8
0
 10
0.754829
 20
2.0721
 30
0.0
 40
0
 41
0
  0
VERTEX
  8
0
 10
0.752333
 20
2.08751
 30
0.0
 40
0
 41
0
  0
VERTEX
  8
0
 10
0.741428
 20
2.07471
 30
0.0
 40
0
 41
0
  0
VERTEX
  8
0
 10
0.731717
 20
2.05664
 30
0.0
 40
0
 41
0
  0
VERTEX
  8
0
 10
0.728461
 20
2.04368
 30
0.0
 40
0
 41
0
  0
VERTEX
  8
0
 10
0.731717
 20
2.03776
 30
0.0
 40
0
 41
0
  0
VERTEX
  8
0
 10
0.741428
 20
2.04064
 30
0.0
 40
0
 41
0
  0
VERTEX
  8
0
 10
0.750976
 20
2.05339
 30
0.0
 40
0
 41
0
  0
VERTEX
  8
0
 10
0.754829
 20
2.0721
 30
0.0
 40
0
 41
0
  0
SEQEND
 8
0
  0
POLYLINE
  8
0
 62
     0
 66
     1
 10
0
 20
0
 30
0.0
 70
     1
 40
0
 41
0
  0
VERTEX
  8
0
 10
1.61361
 20
2.4904
 30
0.0
 40
0
 41
0
  0
VERTEX
  8
0
 10
1.60764
 20
2.50504
 30
0.0
 40
0
 41
0
  0
VERTEX
  8
0
 10
1.59338
 20
2.51568
 30
0.0
 40
0
 41
0
  0
VERTEX
  8
0
 10
1.57829
 20
2.51443
 30
0.0
 40
0
 41
0
  0
VERTEX
  8
0
 10
1.57579
 20
2.49137
 30
0.0
 40
0
 41
0
  0
VERTEX
  8
0
 10
1.58285
 20
2.47254
 30
0.0
 40
0
 41
0
  0
VERTEX
  8
0
 10
1.59571
 20
2.46599
 30
0.0
 40
0
 41
0
  0
VERTEX
  8
0
 10
1.60807
 20
2.4719
 30
0.0
 40
0
 41
0
  0
VERTEX
  8
0
 10
1.61361
 20
2.4904
 30
0.0
 40
0
 41
0
  0
SEQEND
 8
0
  0
POLYLINE
  8
0
 62
     0
 66
     1
 10
0
 20
0
 30
0.0
 70
     1
 40
0
 41
0
  0
VERTEX
  8
0
 10
0.278049
 20
3.01503
 30
0.0
 40
0
 41
0
  0
VERTEX
  8
0
 10
0.276475
 20
3.03435
 30
0.0
 40
0
 41
0
  0
VERTEX
  8
0
 10
0.27284
 20
3.04232
 30
0.0
 40
0
 41
0
  0
VERTEX
  8
0
 10
0.267036
 20
3.03435
 30
0.0
 40
0
 41
0
  0
VERTEX
  8
0
 10
0.260471
 20
3.01503
 30
0.0
 40
0
 41
0
  0
VERTEX
  8
0
 10
0.25906
 20
2.99582
 30
0.0
 40
0
 41
0
  0
VERTEX
  8
0
 10
0.265733
 20
2.98779
 30
0.0
 40
0
 41
0
  0
VERTEX
  8
0
 10
0.274414
 20
2.99582
 30
0.0
 40
0
 41
0
  0
VERTEX
  8
0
 10
0.278049
 20
3.01503
 30
0.0
 40
0
 41
0
  0
SEQEND
 8
0
  0
POLYLINE
  8
0
 62
     0
 66
     1
 10
0
 20
0
 30
0.0
 70
     1
 40
0
 41
0
  0
VERTEX
  8
0
 10
2.79671
 20
0.148872
 30
0.0
 40
0
 41
0
  0
VERTEX
  8
0
 10
2.81174
 20
0.151531
 30
0.0
 40
0
 41
0
  0
VERTEX
  8
0
 10
2.82281
 20
0.147786
 30
0.0
 40
0
 41
0
  0
VERTEX
  8
0
 10
2.8209
 20
0.142307
 30
0.0
 40
0
 41
0
  0
VERTEX
  8
0
 10
2.8049
 20
0.140625
 30
0.0
 40
0
 41
0
  0
VERTEX
  8
0
 10
2.79075
 20
0.143392
 30
0.0
 40
0
 41
0
  0
VERTEX
  8
0
 10
2.79671
 20
0.148872
 30
0.0
 40
0
 41
0
  0
SEQEND
 8
0
  0
POLYLINE
  8
0
 62
     0
 66
     1
 10
0
 20
0
 30
0.0
 70
     1
 40
0
 41
0
  0
VERTEX
  8
0
 10
0.298503
 20
0.970865
 30
0.0
 40
0
 41
0
  0
VERTEX
  8
0
 10
0.296767
 20
0.980524
 30
0.0
 40
0
 41
0
  0
VERTEX
  8
0
 10
0.304525
 20
0.984483
 30
0.0
 40
0
 41
0
  0
VERTEX
  8
0
 10
0.314669
 20
0.980524
 30
0.0
 40
0
 41
0
  0
VERTEX
  8
0
 10
0.318956
 20
0.970865
 30
0.0
 40
0
 41
0
  0
VERTEX
  8
0
 10
0.312933
 20
0.957249
 30
0.0
 40
0
 41
0
  0
VERTEX
  8
0
 10
0.306207
 20
0.961262
 30
0.0
 40
0
 41
0
  0
VERTEX
  8
0
 10
0.298503
 20
0.970865
 30
0.0
 40
0
 41
0
  0
SEQEND
 8
0
  0
POLYLINE
  8
0
 62
     0
 66
     1
 10
0
 20
0
 30
0.0
 70
     1
 40
0
 41
0
  0
VERTEX
  8
0
 10
0.518229
 20
1.27799
 30
0.0
 40
0
 41
0
  0
VERTEX
  8
0
 10
0.511447
 20
1.29877
 30
0.0
 40
0
 41
0
  0
VERTEX
  8
0
 10
0.510633
 20
1.30897
 30
0.0
 40
0
 41
0
  0
VERTEX
  8
0
 10
0.5153
 20
1.30756
 30
0.0
 40
0
 41
0
  0
VERTEX
  8
0
 10
0.525011
 20
1.29351
 30
0.0
 40
0
 41
0
  0
VERTEX
  8
0
 10
0.533365
 20
1.27409
 30
0.0
 40
0
 41
0
  0
VERTEX
  8
0
 10
0.533094
 20
1.26226
 30
0.0
 40
0
 41
0
  0
VERTEX
  8
0
 10
0.526096
 20
1.26427
 30
0.0
 40
0
 41
0
  0
VERTEX
  8
0
 10
0.518229
 20
1.27799
 30
0.0
 40
0
 41
0
  0
SEQEND
 8
0
  0
POLYLINE
  8
0
 62
     0
 66
     1
 10
0
 20
0
 30
0.0
 70
     1
 40
0
 41
0
  0
VERTEX
  8
0
 10
0.956054
 20
1.40235
 30
0.0
 40
0
 41
0
  0
VERTEX
  8
0
 10
0.97309
 20
1.40522
 30
0.0
 40
0
 41
0
  0
VERTEX
  8
0
 10
0.990126
 20
1.40235
 30
0.0
 40
0
 41
0
  0
VERTEX
  8
0
 10
0.992133
 20
1.39751
 30
0.0
 40
0
 41
0
  0
VERTEX
  8
0
 10
0.97309
 20
1.39546
 30
0.0
 40
0
 41
0
  0
VERTEX
  8
0
 10
0.953993
 20
1.39751
 30
0.0
 40
0
 41
0
  0
VERTEX
  8
0
 10
0.956054
 20
1.40235
 30
0.0
 40
0
 41
0
  0
SEQEND
 8
0
  0
POLYLINE
  8
0
 62
     0
 66
     1
 10
0
 20
0
 30
0.0
 70
     1
 40
0
 41
0
  0
VERTEX
  8
0
 10
0.891331
 20
1.4464
 30
0.0
 40
0
 41
0
  0
VERTEX
  8
0
 10
0.89784
 20
1.45751
 30
0.0
 40
0
 41
0
  0
VERTEX
  8
0
 10
0.913683
 20
1.46713
 30
0.0
 40
0
 41
0
  0
VERTEX
  8
0
 10
0.928657
 20
1.47026
 30
0.0
 40
0
 41
0
  0
VERTEX
  8
0
 10
0.918836
 20
1.45497
 30
0.0
 40
0
 41
0
  0
VERTEX
  8
0
 10
0.897678
 20
1.43528
 30
0.0
 40
0
 41
0
  0
VERTEX
  8
0
 10
0.891331
 20
1.4464
 30
0.0
 40
0
 41
0
  0
SEQEND
 8
0
  0
POLYLINE
  8
0
 62
     0
 66
     1
 10
0
 20
0
 30
0.0
 70
     1
 40
0
 41
0
  0
VERTEX
  8
0
 10
0.840494
 20
1.53906
 30
0.0
 40
0
 41
0
  0
VERTEX
  8
0
 10
0.862414
 20
1.5415
 30
0.0
 40
0
 41
0
  0
VERTEX
  8
0
 10
0.881347
 20
1.53851
 30
0.0
 40
0
 41
0
  0
VERTEX
  8
0
 10
0.881185
 20
1.5339
 30
0.0
 40
0
 41
0
  0
VERTEX
  8
0
 10
0.85726
 20
1.53228
 30
0.0
 40
0
 41
0
  0
VERTEX
  8
0
 10
0.835449
 20
1.5345
 30
0.0
 40
0
 41
0
  0
VERTEX
  8
0
 10
0.840494
 20
1.53906
 30
0.0
 40
0
 41
0
  0
SEQEND
 8
0
  0
POLYLINE
  8
0
 62
     0
 66
     1
 10
0
 20
0
 30
0.0
 70
     1
 40
0
 41
0
  0
VERTEX
  8
0
 10
0.557454
 20
2.71522
 30
0.0
 40
0
 41
0
  0
VERTEX
  8
0
 10
0.555718
 20
2.72487
 30
0.0
 40
0
 41
0
  0
VERTEX
  8
0
 10
0.563422
 20
2.72885
 30
0.0
 40
0
 41
0
  0
VERTEX
  8
0
 10
0.573622
 20
2.72487
 30
0.0
 40
0
 41
0
  0
VERTEX
  8
0
 10
0.577854
 20
2.71522
 30
0.0
 40
0
 41
0
  0
VERTEX
  8
0
 10
0.571886
 20
2.70161
 30
0.0
 40
0
 41
0
  0
VERTEX
  8
0
 10
0.565158
 20
2.70562
 30
0.0
 40
0
 41
0
  0
VERTEX
  8
0
 10
0.557454
 20
2.71522
 30
0.0
 40
0
 41
0
  0
SEQEND
 8
0
  0
POLYLINE
  8
0
 62
     0
 66
     1
 10
0
 20
0
 30
0.0
 70
     1
 40
0
 41
0
  0
VERTEX
  8
0
 10
0.346192
 20
2.76932
 30
0.0
 40
0
 41
0
  0
VERTEX
  8
0
 10
0.35216
 20
2.77636
 30
0.0
 40
0
 41
0
  0
VERTEX
  8
0
 10
0.366644
 20
2.77468
 30
0.0
 40
0
 41
0
  0
VERTEX
  8
0
 10
0.381076
 20
2.76758
 30
0.0
 40
0
 41
0
  0
VERTEX
  8
0
 10
0.387099
 20
2.7615
 30
0.0
 40
0
 41
0
  0
VERTEX
  8
0
 10
0.381076
 20
2.75771
 30
0.0
 40
0
 41
0
  0
VERTEX
  8
0
 10
0.366644
 20
2.75612
 30
0.0
 40
0
 41
0
  0
VERTEX
  8
0
 10
0.35216
 20
2.76004
 30
0.0
 40
0
 41
0
  0
VERTEX
  8
0
 10
0.346192
 20
2.76932
 30
0.0
 40
0
 41
0
  0
SEQEND
 8
0
  0
POLYLINE
  8
0
 62
     1
 66
     1
 10
0
 20
0
 30
0.0
 70
     1
 40
0.8
 41
0.8
  0
VERTEX
  8
0
 10
2.55647
 20
0.0852322
 30
0.0
 40
0.0111111
 41
0.0111111
  0
VERTEX
  8
0
 10
2.48019
 20
0.142415
 30
0.0
 40
0.0111111
 41
0.0111111
  0
VERTEX
  8
0
 10
2.40625
 20
0.206218
 30
0.0
 40
0.0111111
 41
0.0111111
  0
VERTEX
  8
0
 10
2.34814
 20
0.26416
 30
0.0
 40
0.0111111
 41
0.0111111
  0
VERTEX
  8
0
 10
2.31939
 20
0.303819
 30
0.0
 40
0.0111111
 41
0.0111111
  0
VERTEX
  8
0
 10
2.29531
 20
0.340603
 30
0.0
 40
0.0111111
 41
0.0111111
  0
VERTEX
  8
0
 10
2.23833
 20
0.407335
 30
0.0
 40
0.0111111
 41
0.0111111
  0
VERTEX
  8
0
 10
2.14714
 20
0.505588
 30
0.0
 40
0.0111111
 41
0.0111111
  0
VERTEX
  8
0
 10
2.02024
 20
0.636882
 30
0.0
 40
0.0111111
 41
0.0111111
  0
VERTEX
  8
0
 10
1.9311
 20
0.729113
 30
0.0
 40
0.0111111
 41
0.0111111
  0
VERTEX
  8
0
 10
1.84625
 20
0.818956
 30
0.0
 40
0.0111111
 41
0.0111111
  0
VERTEX
  8
0
 10
1.77522
 20
0.896158
 30
0.0
 40
0.0111111
 41
0.0111111
  0
VERTEX
  8
0
 10
1.72771
 20
0.950413
 30
0.0
 40
0.0111111
 41
0.0111111
  0
VERTEX
  8
0
 10
1.69618
 20
0.98801
 30
0.0
 40
0.0111111
 41
0.0111111
  0
VERTEX
  8
0
 10
1.66889
 20
1.01991
 30
0.0
 40
0.0111111
 41
0.0111111
  0
VERTEX
  8
0
 10
1.64876
 20
1.04264
 30
0.0
 40
0.0111111
 41
0.0111111
  0
VERTEX
  8
0
 10
1.63867
 20
1.05295
 30
0.0
 40
0.0111111
 41
0.0111111
  0
VERTEX
  8
0
 10
1.63069
 20
1.07671
 30
0.0
 40
0.0111111
 41
0.0111111
  0
VERTEX
  8
0
 10
1.62554
 20
1.12375
 30
0.0
 40
0.0111111
 41
0.0111111
  0
VERTEX
  8
0
 10
1.61974
 20
1.16661
 30
0.0
 40
0.0111111
 41
0.0111111
  0
VERTEX
  8
0
 10
1.61057
 20
1.18018
 30
0.0
 40
0.0111111
 41
0.0111111
  0
VERTEX
  8
0
 10
1.60471
 20
1.16743
 30
0.0
 40
0.0111111
 41
0.0111111
  0
VERTEX
  8
0
 10
1.60715
 20
1.14686
 30
0.0
 40
0.0111111
 41
0.0111111
  0
VERTEX
  8
0
 10
1.60633
 20
1.12815
 30
0.0
 40
0.0111111
 41
0.0111111
  0
VERTEX
  8
0
 10
1.59392
 20
1.12028
 30
0.0
 40
0.0111111
 41
0.0111111
  0
VERTEX
  8
0
 10
1.57731
 20
1.12429
 30
0.0
 40
0.0111111
 41
0.0111111
  0
VERTEX
  8
0
 10
1.56407
 20
1.14111
 30
0.0
 40
0.0111111
 41
0.0111111
  0
VERTEX
  8
0
 10
1.55431
 20
1.15294
 30
0.0
 40
0.0111111
 41
0.0111111
  0
VERTEX
  8
0
 10
1.54194
 20
1.15267
 30
0.0
 40
0.0111111
 41
0.0111111
  0
VERTEX
  8
0
 10
1.5344
 20
1.15072
 30
0.0
 40
0.0111111
 41
0.0111111
  0
VERTEX
  8
0
 10
1.53694
 20
1.15885
 30
0.0
 40
0.0111111
 41
0.0111111
  0
VERTEX
  8
0
 10
1.53618
 20
1.17274
 30
0.0
 40
0.0111111
 41
0.0111111
  0
VERTEX
  8
0
 10
1.52735
 20
1.19927
 30
0.0
 40
0.0111111
 41
0.0111111
  0
VERTEX
  8
0
 10
1.51193
 20
1.2347
 30
0.0
 40
0.0111111
 41
0.0111111
  0
VERTEX
  8
0
 10
1.49137
 20
1.27517
 30
0.0
 40
0.0111111
 41
0.0111111
  0
VERTEX
  8
0
 10
1.47049
 20
1.31462
 30
0.0
 40
0.0111111
 41
0.0111111
  0
VERTEX
  8
0
 10
1.45497
 20
1.34635
 30
0.0
 40
0.0111111
 41
0.0111111
  0
VERTEX
  8
0
 10
1.44472
 20
1.37131
 30
0.0
 40
0.0111111
 41
0.0111111
  0
VERTEX
  8
0
 10
1.43951
 20
1.39035
 30
0.0
 40
0.0111111
 41
0.0111111
  0
VERTEX
  8
0
 10
1.43929
 20
1.40424
 30
0.0
 40
0.0111111
 41
0.0111111
  0
VERTEX
  8
0
 10
1.44396
 20
1.41385
 30
0.0
 40
0.0111111
 41
0.0111111
  0
VERTEX
  8
0
 10
1.45324
 20
1.41997
 30
0.0
 40
0.0111111
 41
0.0111111
  0
VERTEX
  8
0
 10
1.46713
 20
1.4235
 30
0.0
 40
0.0111111
 41
0.0111111
  0
VERTEX
  8
0
 10
1.46533
 20
1.42637
 30
0.0
 40
0.0111111
 41
0.0111111
  0
VERTEX
  8
0
 10
1.43832
 20
1.43044
 30
0.0
 40
0.0111111
 41
0.0111111
  0
VERTEX
  8
0
 10
1.39274
 20
1.43528
 30
0.0
 40
0.0111111
 41
0.0111111
  0
VERTEX
  8
0
 10
1.33534
 20
1.44026
 30
0.0
 40
0.0111111
 41
0.0111111
  0
VERTEX
  8
0
 10
1.27295
 20
1.44487
 30
0.0
 40
0.0111111
 41
0.0111111
  0
VERTEX
  8
0
 10
1.21224
 20
1.44857
 30
0.0
 40
0.0111111
 41
0.0111111
  0
VERTEX
  8
0
 10
1.15999
 20
1.45079
 30
0.0
 40
0.0111111
 41
0.0111111
  0
VERTEX
  8
0
 10
1.12299
 20
1.45101
 30
0.0
 40
0.0111111
 41
0.0111111
  0
VERTEX
  8
0
 10
1.07259
 20
1.44521
 30
0.0
 40
0.0111111
 41
0.0111111
  0
VERTEX
  8
0
 10
1.01845
 20
1.43349
 30
0.0
 40
0.0111111
 41
0.0111111
  0
VERTEX
  8
0
 10
0.972114
 20
1.42372
 30
0.0
 40
0.0111111
 41
0.0111111
  0
VERTEX
  8
0
 10
0.94439
 20
1.42383
 30
0.0
 40
0.0111111
 41
0.0111111
  0
VERTEX
  8
0
 10
0.939615
 20
1.43267
 30
0.0
 40
0.0111111
 41
0.0111111
  0
VERTEX
  8
0
 10
0.962131
 20
1.449
 30
0.0
 40
0.0111111
 41
0.0111111
  0
VERTEX
  8
0
 10
0.989312
 20
1.46664
 30
0.0
 40
0.0111111
 41
0.0111111
  0
VERTEX
  8
0
 10
1.00304
 20
1.48182
 30
0.0
 40
0.0111111
 41
0.0111111
  0
VERTEX
  8
0
 10
1.01063
 20
1.49035
 30
0.0
 40
0.0111111
 41
0.0111111
  0
VERTEX
  8
0
 10
1.02317
 20
1.49164
 30
0.0
 40
0.0111111
 41
0.0111111
  0
VERTEX
  8
0
 10
1.037
 20
1.49322
 30
0.0
 40
0.0111111
 41
0.0111111
  0
VERTEX
  8
0
 10
1.0478
 20
1.50201
 30
0.0
 40
0.0111111
 41
0.0111111
  0
VERTEX
  8
0
 10
1.04579
 20
1.51417
 30
0.0
 40
0.0111111
 41
0.0111111
  0
VERTEX
  8
0
 10
1.02013
 20
1.51438
 30
0.0
 40
0.0111111
 41
0.0111111
  0
VERTEX
  8
0
 10
0.975369
 20
1.50342
 30
0.0
 40
0.0111111
 41
0.0111111
  0
VERTEX
  8
0
 10
0.915961
 20
1.48188
 30
0.0
 40
0.0111111
 41
0.0111111
  0
VERTEX
  8
0
 10
0.854438
 20
1.46007
 30
0.0
 40
0.0111111
 41
0.0111111
  0
VERTEX
  8
0
 10
0.806967
 20
1.44933
 30
0.0
 40
0.0111111
 41
0.0111111
  0
VERTEX
  8
0
 10
0.77794
 20
1.45036
 30
0.0
 40
0.0111111
 41
0.0111111
  0
VERTEX
  8
0
 10
0.771647
 20
1.46365
 30
0.0
 40
0.0111111
 41
0.0111111
  0
VERTEX
  8
0
 10
0.779297
 20
1.47194
 30
0.0
 40
0.0111111
 41
0.0111111
  0
VERTEX
  8
0
 10
0.796169
 20
1.48275
 30
0.0
 40
0.0111111
 41
0.0111111
  0
VERTEX
  8
0
 10
0.819824
 20
1.49468
 30
0.0
 40
0.0111111
 41
0.0111111
  0
VERTEX
  8
0
 10
0.847765
 20
1.50635
 30
0.0
 40
0.0111111
 41
0.0111111
  0
VERTEX
  8
0
 10
0.902018
 20
1.53088
 30
0.0
 40
0.0111111
 41
0.0111111
  0
VERTEX
  8
0
 10
0.916667
 20
1.54725
 30
0.0
 40
0.0111111
 41
0.0111111
  0
VERTEX
  8
0
 10
0.892144
 20
1.55447
 30
0.0
 40
0.0111111
 41
0.0111111
  0
VERTEX
  8
0
 10
0.828885
 20
1.55143
 30
0.0
 40
0.0111111
 41
0.0111111
  0
VERTEX
  8
0
 10
0.791504
 20
1.54856
 30
0.0
 40
0.0111111
 41
0.0111111
  0
VERTEX
  8
0
 10
0.765733
 20
1.54844
 30
0.0
 40
0.0111111
 41
0.0111111
  0
VERTEX
  8
0
 10
0.751519
 20
1.55083
 30
0.0
 40
0.0111111
 41
0.0111111
  0
VERTEX
  8
0
 10
0.748589
 20
1.55544
 30
0.0
 40
0.0111111
 41
0.0111111
  0
VERTEX
  8
0
 10
0.75689
 20
1.56185
 30
0.0
 40
0.0111111
 41
0.0111111
  0
VERTEX
  8
0
 10
0.77615
 20
1.56982
 30
0.0
 40
0.0111111
 41
0.0111111
  0
VERTEX
  8
0
 10
0.806315
 20
1.579
 30
0.0
 40
0.0111111
 41
0.0111111
  0
VERTEX
  8
0
 10
0.847168
 20
1.58897
 30
0.0
 40
0.0111111
 41
0.0111111
  0
VERTEX
  8
0
 10
0.920682
 20
1.60107
 30
0.0
 40
0.0111111
 41
0.0111111
  0
VERTEX
  8
0
 10
1.00385
 20
1.6034
 30
0.0
 40
0.0111111
 41
0.0111111
  0
VERTEX
  8
0
 10
1.11475
 20
1.59549
 30
0.0
 40
0.0111111
 41
0.0111111
  0
VERTEX
  8
0
 10
1.27159
 20
1.57676
 30
0.0
 40
0.0111111
 41
0.0111111
  0
VERTEX
  8
0
 10
1.33247
 20
1.5695
 30
0.0
 40
0.0111111
 41
0.0111111
  0
VERTEX
  8
0
 10
1.38336
 20
1.56451
 30
0.0
 40
0.0111111
 41
0.0111111
  0
VERTEX
  8
0
 10
1.41894
 20
1.56239
 30
0.0
 40
0.0111111
 41
0.0111111
  0
VERTEX
  8
0
 10
1.43397
 20
1.56347
 30
0.0
 40
0.0111111
 41
0.0111111
  0
VERTEX
  8
0
 10
1.43104
 20
1.56847
 30
0.0
 40
0.0111111
 41
0.0111111
  0
VERTEX
  8
0
 10
1.41417
 20
1.57047
 30
0.0
 40
0.0111111
 41
0.0111111
  0
VERTEX
  8
0
 10
1.38807
 20
1.57508
 30
0.0
 40
0.0111111
 41
0.0111111
  0
VERTEX
  8
0
 10
1.37098
 20
1.58778
 30
0.0
 40
0.0111111
 41
0.0111111
  0
VERTEX
  8
0
 10
1.36404
 20
1.60726
 30
0.0
 40
0.0111111
 41
0.0111111
  0
VERTEX
  8
0
 10
1.36833
 20
1.63189
 30
0.0
 40
0.0111111
 41
0.0111111
  0
VERTEX
  8
0
 10
1.37218
 20
1.64947
 30
0.0
 40
0.0111111
 41
0.0111111
  0
VERTEX
  8
0
 10
1.36648
 20
1.66471
 30
0.0
 40
0.0111111
 41
0.0111111
  0
VERTEX
  8
0
 10
1.34793
 20
1.68207
 30
0.0
 40
0.0111111
 41
0.0111111
  0
VERTEX
  8
0
 10
1.31337
 20
1.70572
 30
0.0
 40
0.0111111
 41
0.0111111
  0
VERTEX
  8
0
 10
1.28304
 20
1.72624
 30
0.0
 40
0.0111111
 41
0.0111111
  0
VERTEX
  8
0
 10
1.24973
 20
1.75006
 30
0.0
 40
0.0111111
 41
0.0111111
  0
VERTEX
  8
0
 10
1.2175
 20
1.77431
 30
0.0
 40
0.0111111
 41
0.0111111
  0
VERTEX
  8
0
 10
1.19038
 20
1.79596
 30
0.0
 40
0.0111111
 41
0.0111111
  0
VERTEX
  8
0
 10
1.16732
 20
1.81358
 30
0.0
 40
0.0111111
 41
0.0111111
  0
VERTEX
  8
0
 10
1.14632
 20
1.82661
 30
0.0
 40
0.0111111
 41
0.0111111
  0
VERTEX
  8
0
 10
1.12961
 20
1.83393
 30
0.0
 40
0.0111111
 41
0.0111111
  0
VERTEX
  8
0
 10
1.11957
 20
1.83415
 30
0.0
 40
0.0111111
 41
0.0111111
  0
VERTEX
  8
0
 10
1.11193
 20
1.83208
 30
0.0
 40
0.0111111
 41
0.0111111
  0
VERTEX
  8
0
 10
1.11431
 20
1.84
 30
0.0
 40
0.0111111
 41
0.0111111
  0
VERTEX
  8
0
 10
1.11713
 20
1.85271
 30
0.0
 40
0.0111111
 41
0.0111111
  0
VERTEX
  8
0
 10
1.11111
 20
1.86242
 30
0.0
 40
0.0111111
 41
0.0111111
  0
VERTEX
  8
0
 10
1.10026
 20
1.85596
 30
0.0
 40
0.0111111
 41
0.0111111
  0
VERTEX
  8
0
 10
1.09044
 20
1.82747
 30
0.0
 40
0.0111111
 41
0.0111111
  0
VERTEX
  8
0
 10
1.08301
 20
1.78353
 30
0.0
 40
0.0111111
 41
0.0111111
  0
VERTEX
  8
0
 10
1.0797
 20
1.73063
 30
0.0
 40
0.0111111
 41
0.0111111
  0
VERTEX
  8
0
 10
1.07661
 20
1.69456
 30
0.0
 40
0.0111111
 41
0.0111111
  0
VERTEX
  8
0
 10
1.07026
 20
1.67958
 30
0.0
 40
0.0111111
 41
0.0111111
  0
VERTEX
  8
0
 10
1.0612
 20
1.68392
 30
0.0
 40
0.0111111
 41
0.0111111
  0
VERTEX
  8
0
 10
1.04291
 20
1.69569
 30
0.0
 40
0.0111111
 41
0.0111111
  0
VERTEX
  8
0
 10
1.01807
 20
1.71317
 30
0.0
 40
0.0111111
 41
0.0111111
  0
VERTEX
  8
0
 10
0.989367
 20
1.73443
 30
0.0
 40
0.0111111
 41
0.0111111
  0
VERTEX
  8
0
 10
0.959799
 20
1.75515
 30
0.0
 40
0.0111111
 41
0.0111111
  0
VERTEX
  8
0
 10
0.933376
 20
1.77061
 30
0.0
 40
0.0111111
 41
0.0111111
  0
VERTEX
  8
0
 10
0.912815
 20
1.77929
 30
0.0
 40
0.0111111
 41
0.0111111
  0
VERTEX
  8
0
 10
0.900825
 20
1.77989
 30
0.0
 40
0.0111111
 41
0.0111111
  0
VERTEX
  8
0
 10
0.892361
 20
1.77669
 30
0.0
 40
0.0111111
 41
0.0111111
  0
VERTEX
  8
0
 10
0.894965
 20
1.78201
 30
0.0
 40
0.0111111
 41
0.0111111
  0
VERTEX
  8
0
 10
0.890192
 20
1.79525
 30
0.0
 40
0.0111111
 41
0.0111111
  0
VERTEX
  8
0
 10
0.864094
 20
1.81087
 30
0.0
 40
0.0111111
 41
0.0111111
  0
VERTEX
  8
0
 10
0.835883
 20
1.82639
 30
0.0
 40
0.0111111
 41
0.0111111
  0
VERTEX
  8
0
 10
0.826118
 20
1.83908
 30
0.0
 40
0.0111111
 41
0.0111111
  0
VERTEX
  8
0
 10
0.82346
 20
1.8495
 30
0.0
 40
0.0111111
 41
0.0111111
  0
VERTEX
  8
0
 10
0.813911
 20
1.86865
 30
0.0
 40
0.0111111
 41
0.0111111
  0
VERTEX
  8
0
 10
0.799533
 20
1.89356
 30
0.0
 40
0.0111111
 41
0.0111111
  0
VERTEX
  8
0
 10
0.782335
 20
1.92096
 30
0.0
 40
0.0111111
 41
0.0111111
  0
VERTEX
  8
0
 10
0.764322
 20
1.94775
 30
0.0
 40
0.0111111
 41
0.0111111
  0
VERTEX
  8
0
 10
0.747612
 20
1.97076
 30
0.0
 40
0.0111111
 41
0.0111111
  0
VERTEX
  8
0
 10
0.734213
 20
1.98693
 30
0.0
 40
0.0111111
 41
0.0111111
  0
VERTEX
  8
0
 10
0.726183
 20
1.99294
 30
0.0
 40
0.0111111
 41
0.0111111
  0
VERTEX
  8
0
 10
0.715875
 20
1.9846
 30
0.0
 40
0.0111111
 41
0.0111111
  0
VERTEX
  8
0
 10
0.710503
 20
1.96506
 30
0.0
 40
0.0111111
 41
0.0111111
  0
VERTEX
  8
0
 10
0.711046
 20
1.94271
 30
0.0
 40
0.0111111
 41
0.0111111
  0
VERTEX
  8
0
 10
0.718479
 20
1.92594
 30
0.0
 40
0.0111111
 41
0.0111111
  0
VERTEX
  8
0
 10
0.726128
 20
1.91461
 30
0.0
 40
0.0111111
 41
0.0111111
  0
VERTEX
  8
0
 10
0.717176
 20
1.91118
 30
0.0
 40
0.0111111
 41
0.0111111
  0
VERTEX
  8
0
 10
0.698242
 20
1.90169
 30
0.0
 40
0.0111111
 41
0.0111111
  0
VERTEX
  8
0
 10
0.679253
 20
1.87636
 30
0.0
 40
0.0111111
 41
0.0111111
  0
VERTEX
  8
0
 10
0.662978
 20
1.84028
 30
0.0
 40
0.0111111
 41
0.0111111
  0
VERTEX
  8
0
 10
0.652399
 20
1.79833
 30
0.0
 40
0.0111111
 41
0.0111111
  0
VERTEX
  8
0
 10
0.650228
 20
1.75917
 30
0.0
 40
0.0111111
 41
0.0111111
  0
VERTEX
  8
0
 10
0.662218
 20
1.74744
 30
0.0
 40
0.0111111
 41
0.0111111
  0
VERTEX
  8
0
 10
0.672146
 20
1.74496
 30
0.0
 40
0.0111111
 41
0.0111111
  0
VERTEX
  8
0
 10
0.664714
 20
1.73719
 30
0.0
 40
0.0111111
 41
0.0111111
  0
VERTEX
  8
0
 10
0.657335
 20
1.72711
 30
0.0
 40
0.0111111
 41
0.0111111
  0
VERTEX
  8
0
 10
0.648654
 20
1.70692
 30
0.0
 40
0.0111111
 41
0.0111111
  0
VERTEX
  8
0
 10
0.639703
 20
1.67964
 30
0.0
 40
0.0111111
 41
0.0111111
  0
VERTEX
  8
0
 10
0.631674
 20
1.64806
 30
0.0
 40
0.0111111
 41
0.0111111
  0
VERTEX
  8
0
 10
0.612033
 20
1.58615
 30
0.0
 40
0.0111111
 41
0.0111111
  0
VERTEX
  8
0
 10
0.588758
 20
1.55539
 30
0.0
 40
0.0111111
 41
0.0111111
  0
VERTEX
  8
0
 10
0.573242
 20
1.5421
 30
0.0
 40
0.0111111
 41
0.0111111
  0
VERTEX
  8
0
 10
0.571397
 20
1.52903
 30
0.0
 40
0.0111111
 41
0.0111111
  0
VERTEX
  8
0
 10
0.572917
 20
1.51297
 30
0.0
 40
0.0111111
 41
0.0111111
  0
VERTEX
  8
0
 10
0.565429
 20
1.49224
 30
0.0
 40
0.0111111
 41
0.0111111
  0
VERTEX
  8
0
 10
0.554253
 20
1.47754
 30
0.0
 40
0.0111111
 41
0.0111111
  0
VERTEX
  8
0
 10
0.551053
 20
1.48861
 30
0.0
 40
0.0111111
 41
0.0111111
  0
VERTEX
  8
0
 10
0.548068
 20
1.49126
 30
0.0
 40
0.0111111
 41
0.0111111
  0
VERTEX
  8
0
 10
0.540364
 20
1.48346
 30
0.0
 40
0.0111111
 41
0.0111111
  0
VERTEX
  8
0
 10
0.529025
 20
1.46669
 30
0.0
 40
0.0111111
 41
0.0111111
  0
VERTEX
  8
0
 10
0.515246
 20
1.44243
 30
0.0
 40
0.0111111
 41
0.0111111
  0
VERTEX
  8
0
 10
0.490181
 20
1.3827
 30
0.0
 40
0.0111111
 41
0.0111111
  0
VERTEX
  8
0
 10
0.487522
 20
1.3374
 30
0.0
 40
0.0111111
 41
0.0111111
  0
VERTEX
  8
0
 10
0.48725
 20
1.30263
 30
0.0
 40
0.0111111
 41
0.0111111
  0
VERTEX
  8
0
 10
0.465386
 20
1.27794
 30
0.0
 40
0.0111111
 41
0.0111111
  0
VERTEX
  8
0
 10
0.448893
 20
1.26318
 30
0.0
 40
0.0111111
 41
0.0111111
  0
VERTEX
  8
0
 10
0.451172
 20
1.25705
 30
0.0
 40
0.0111111
 41
0.0111111
  0
VERTEX
  8
0
 10
0.464085
 20
1.25005
 30
0.0
 40
0.0111111
 41
0.0111111
  0
VERTEX
  8
0
 10
0.47309
 20
1.23318
 30
0.0
 40
0.0111111
 41
0.0111111
  0
VERTEX
  8
0
 10
0.478299
 20
1.22125
 30
0.0
 40
0.0111111
 41
0.0111111
  0
VERTEX
  8
0
 10
0.480903
 20
1.24002
 30
0.0
 40
0.0111111
 41
0.0111111
  0
VERTEX
  8
0
 10
0.486382
 20
1.26438
 30
0.0
 40
0.0111111
 41
0.0111111
  0
VERTEX
  8
0
 10
0.496203
 20
1.26991
 30
0.0
 40
0.0111111
 41
0.0111111
  0
VERTEX
  8
0
 10
0.505533
 20
1.25814
 30
0.0
 40
0.0111111
 41
0.0111111
  0
VERTEX
  8
0
 10
0.509765
 20
1.23058
 30
0.0
 40
0.0111111
 41
0.0111111
  0
VERTEX
  8
0
 10
0.506401
 20
1.20264
 30
0.0
 40
0.0111111
 41
0.0111111
  0
VERTEX
  8
0
 10
0.498156
 20
1.18473
 30
0.0
 40
0.0111111
 41
0.0111111
  0
VERTEX
  8
0
 10
0.487739
 20
1.18018
 30
0.0
 40
0.0111111
 41
0.0111111
  0
VERTEX
  8
0
 10
0.477919
 20
1.19222
 30
0.0
 40
0.0111111
 41
0.0111111
  0
VERTEX
  8
0
 10
0.472711
 20
1.1958
 30
0.0
 40
0.0111111
 41
0.0111111
  0
VERTEX
  8
0
 10
0.469943
 20
1.18034
 30
0.0
 40
0.0111111
 41
0.0111111
  0
VERTEX
  8
0
 10
0.463704
 20
1.15538
 30
0.0
 40
0.0111111
 41
0.0111111
  0
VERTEX
  8
0
 10
0.450304
 20
1.13596
 30
0.0
 40
0.0111111
 41
0.0111111
  0
VERTEX
  8
0
 10
0.436632
 20
1.13032
 30
0.0
 40
0.0111111
 41
0.0111111
  0
VERTEX
  8
0
 10
0.43826
 20
1.15478
 30
0.0
 40
0.0111111
 41
0.0111111
  0
VERTEX
  8
0
 10
0.437879
 20
1.185
 30
0.0
 40
0.0111111
 41
0.0111111
  0
VERTEX
  8
0
 10
0.427897
 20
1.20942
 30
0.0
 40
0.0111111
 41
0.0111111
  0
VERTEX
  8
0
 10
0.417806
 20
1.22569
 30
0.0
 40
0.0111111
 41
0.0111111
  0
VERTEX
  8
0
 10
0.427951
 20
1.22976
 30
0.0
 40
0.0111111
 41
0.0111111
  0
VERTEX
  8
0
 10
0.437825
 20
1.23416
 30
0.0
 40
0.0111111
 41
0.0111111
  0
VERTEX
  8
0
 10
0.427463
 20
1.25087
 30
0.0
 40
0.0111111
 41
0.0111111
  0
VERTEX
  8
0
 10
0.411296
 20
1.26416
 30
0.0
 40
0.0111111
 41
0.0111111
  0
VERTEX
  8
0
 10
0.399089
 20
1.25439
 30
0.0
 40
0.0111111
 41
0.0111111
  0
VERTEX
  8
0
 10
0.395236
 20
1.23817
 30
0.0
 40
0.0111111
 41
0.0111111
  0
VERTEX
  8
0
 10
0.401313
 20
1.22374
 30
0.0
 40
0.0111111
 41
0.0111111
  0
VERTEX
  8
0
 10
0.411079
 20
1.20063
 30
0.0
 40
0.0111111
 41
0.0111111
  0
VERTEX
  8
0
 10
0.413954
 20
1.16612
 30
0.0
 40
0.0111111
 41
0.0111111
  0
VERTEX
  8
0
 10
0.410156
 20
1.13287
 30
0.0
 40
0.0111111
 41
0.0111111
  0
VERTEX
  8
0
 10
0.399794
 20
1.11339
 30
0.0
 40
0.0111111
 41
0.0111111
  0
VERTEX
  8
0
 10
0.384114
 20
1.11448
 30
0.0
 40
0.0111111
 41
0.0111111
  0
VERTEX
  8
0
 10
0.366863
 20
1.12961
 30
0.0
 40
0.0111111
 41
0.0111111
  0
VERTEX
  8
0
 10
0.351128
 20
1.14486
 30
0.0
 40
0.0111111
 41
0.0111111
  0
VERTEX
  8
0
 10
0.339844
 20
1.14491
 30
0.0
 40
0.0111111
 41
0.0111111
  0
VERTEX
  8
0
 10
0.335124
 20
1.13167
 30
0.0
 40
0.0111111
 41
0.0111111
  0
VERTEX
  8
0
 10
0.33941
 20
1.10699
 30
0.0
 40
0.0111111
 41
0.0111111
  0
VERTEX
  8
0
 10
0.353624
 20
1.08539
 30
0.0
 40
0.0111111
 41
0.0111111
  0
VERTEX
  8
0
 10
0.381565
 20
1.08577
 30
0.0
 40
0.0111111
 41
0.0111111
  0
VERTEX
  8
0
 10
0.40549
 20
1.08767
 30
0.0
 40
0.0111111
 41
0.0111111
  0
VERTEX
  8
0
 10
0.414333
 20
1.07861
 30
0.0
 40
0.0111111
 41
0.0111111
  0
VERTEX
  8
0
 10
0.403538
 20
1.06901
 30
0.0
 40
0.0111111
 41
0.0111111
  0
VERTEX
  8
0
 10
0.375108
 20
1.0689
 30
0.0
 40
0.0111111
 41
0.0111111
  0
VERTEX
  8
0
 10
0.339301
 20
1.06711
 30
0.0
 40
0.0111111
 41
0.0111111
  0
VERTEX
  8
0
 10
0.319444
 20
1.05198
 30
0.0
 40
0.0111111
 41
0.0111111
  0
VERTEX
  8
0
 10
0.318088
 20
1.02805
 30
0.0
 40
0.0111111
 41
0.0111111
  0
VERTEX
  8
0
 10
0.337565
 20
0.999837
 30
0.0
 40
0.0111111
 41
0.0111111
  0
VERTEX
  8
0
 10
0.368056
 20
0.971192
 30
0.0
 40
0.0111111
 41
0.0111111
  0
VERTEX
  8
0
 10
0.415039
 20
1.01134
 30
0.0
 40
0.0111111
 41
0.0111111
  0
VERTEX
  8
0
 10
0.45714
 20
1.03988
 30
0.0
 40
0.0111111
 41
0.0111111
  0
VERTEX
  8
0
 10
0.492296
 20
1.05208
 30
0.0
 40
0.0111111
 41
0.0111111
  0
VERTEX
  8
0
 10
0.508247
 20
1.05653
 30
0.0
 40
0.0111111
 41
0.0111111
  0
VERTEX
  8
0
 10
0.528537
 20
1.06836
 30
0.0
 40
0.0111111
 41
0.0111111
  0
VERTEX
  8
0
 10
0.551107
 20
1.08632
 30
0.0
 40
0.0111111
 41
0.0111111
  0
VERTEX
  8
0
 10
0.57411
 20
1.10894
 30
0.0
 40
0.0111111
 41
0.0111111
  0
VERTEX
  8
0
 10
0.602756
 20
1.13976
 30
0.0
 40
0.0111111
 41
0.0111111
  0
VERTEX
  8
0
 10
0.632324
 20
1.17052
 30
0.0
 40
0.0111111
 41
0.0111111
  0
VERTEX
  8
0
 10
0.661567
 20
1.20003
 30
0.0
 40
0.0111111
 41
0.0111111
  0
VERTEX
  8
0
 10
0.689128
 20
1.227
 30
0.0
 40
0.0111111
 41
0.0111111
  0
VERTEX
  8
0
 10
0.713704
 20
1.25016
 30
0.0
 40
0.0111111
 41
0.0111111
  0
VERTEX
  8
0
 10
0.733942
 20
1.26828
 30
0.0
 40
0.0111111
 41
0.0111111
  0
VERTEX
  8
0
 10
0.748535
 20
1.28011
 30
0.0
 40
0.0111111
 41
0.0111111
  0
VERTEX
  8
0
 10
0.756239
 20
1.28429
 30
0.0
 40
0.0111111
 41
0.0111111
  0
VERTEX
  8
0
 10
0.763564
 20
1.28809
 30
0.0
 40
0.0111111
 41
0.0111111
  0
VERTEX
  8
0
 10
0.777181
 20
1.29834
 30
0.0
 40
0.0111111
 41
0.0111111
  0
VERTEX
  8
0
 10
0.795085
 20
1.31348
 30
0.0
 40
0.0111111
 41
0.0111111
  0
VERTEX
  8
0
 10
0.815429
 20
1.33198
 30
0.0
 40
0.0111111
 41
0.0111111
  0
VERTEX
  8
0
 10
0.855524
 20
1.36247
 30
0.0
 40
0.0111111
 41
0.0111111
  0
VERTEX
  8
0
 10
0.892958
 20
1.37782
 30
0.0
 40
0.0111111
 41
0.0111111
  0
VERTEX
  8
0
 10
0.923014
 20
1.37712
 30
0.0
 40
0.0111111
 41
0.0111111
  0
VERTEX
  8
0
 10
0.940918
 20
1.35927
 30
0.0
 40
0.0111111
 41
0.0111111
  0
VERTEX
  8
0
 10
0.95421
 20
1.34483
 30
0.0
 40
0.0111111
 41
0.0111111
  0
VERTEX
  8
0
 10
0.975369
 20
1.33881
 30
0.0
 40
0.0111111
 41
0.0111111
  0
VERTEX
  8
0
 10
0.991808
 20
1.33512
 30
0.0
 40
0.0111111
 41
0.0111111
  0
VERTEX
  8
0
 10
0.99414
 20
1.32612
 30
0.0
 40
0.0111111
 41
0.0111111
  0
VERTEX
  8
0
 10
0.999403
 20
1.3138
 30
0.0
 40
0.0111111
 41
0.0111111
  0
VERTEX
  8
0
 10
1.01964
 20
1.28955
 30
0.0
 40
0.0111111
 41
0.0111111
  0
VERTEX
  8
0
 10
1.05159
 20
1.25684
 30
0.0
 40
0.0111111
 41
0.0111111
  0
VERTEX
  8
0
 10
1.09212
 20
1.21924
 30
0.0
 40
0.0111111
 41
0.0111111
  0
VERTEX
  8
0
 10
1.13802
 20
1.17839
 30
0.0
 40
0.0111111
 41
0.0111111
  0
VERTEX
  8
0
 10
1.18484
 20
1.13661
 30
0.0
 40
0.0111111
 41
0.0111111
  0
VERTEX
  8
0
 10
1.22711
 20
1.09896
 30
0.0
 40
0.0111111
 41
0.0111111
  0
VERTEX
  8
0
 10
1.25928
 20
1.07015
 30
0.0
 40
0.0111111
 41
0.0111111
  0
VERTEX
  8
0
 10
1.28657
 20
1.04574
 30
0.0
 40
0.0111111
 41
0.0111111
  0
VERTEX
  8
0
 10
1.31565
 20
1.01986
 30
0.0
 40
0.0111111
 41
0.0111111
  0
VERTEX
  8
0
 10
1.34299
 20
0.995606
 30
0.0
 40
0.0111111
 41
0.0111111
  0
VERTEX
  8
0
 10
1.36518
 20
0.976019
 30
0.0
 40
0.0111111
 41
0.0111111
  0
VERTEX
  8
0
 10
1.37988
 20
0.960394
 30
0.0
 40
0.0111111
 41
0.0111111
  0
VERTEX
  8
0
 10
1.39481
 20
0.940158
 30
0.0
 40
0.0111111
 41
0.0111111
  0
VERTEX
  8
0
 10
1.40869
 20
0.917751
 30
0.0
 40
0.0111111
 41
0.0111111
  0
VERTEX
  8
0
 10
1.42046
 20
0.8954
 30
0.0
 40
0.0111111
 41
0.0111111
  0
VERTEX
  8
0
 10
1.42899
 20
0.875597
 30
0.0
 40
0.0111111
 41
0.0111111
  0
VERTEX
  8
0
 10
1.43311
 20
0.860622
 30
0.0
 40
0.0111111
 41
0.0111111
  0
VERTEX
  8
0
 10
1.43169
 20
0.85281
 30
0.0
 40
0.0111111
 41
0.0111111
  0
VERTEX
  8
0
 10
1.42372
 20
0.854492
 30
0.0
 40
0.0111111
 41
0.0111111
  0
VERTEX
  8
0
 10
1.40674
 20
0.851346
 30
0.0
 40
0.0111111
 41
0.0111111
  0
VERTEX
  8
0
 10
1.38151
 20
0.834201
 30
0.0
 40
0.0111111
 41
0.0111111
  0
VERTEX
  8
0
 10
1.36073
 20
0.817003
 30
0.0
 40
0.0111111
 41
0.0111111
  0
VERTEX
  8
0
 10
1.32726
 20
0.790093
 30
0.0
 40
0.0111111
 41
0.0111111
  0
VERTEX
  8
0
 10
1.2857
 20
0.757215
 30
0.0
 40
0.0111111
 41
0.0111111
  0
VERTEX
  8
0
 10
1.24072
 20
0.72206
 30
0.0
 40
0.0111111
 41
0.0111111
  0
VERTEX
  8
0
 10
1.19379
 20
0.685167
 30
0.0
 40
0.0111111
 41
0.0111111
  0
VERTEX
  8
0
 10
1.14714
 20
0.647624
 30
0.0
 40
0.0111111
 41
0.0111111
  0
VERTEX
  8
0
 10
1.10607
 20
0.613824
 30
0.0
 40
0.0111111
 41
0.0111111
  0
VERTEX
  8
0
 10
1.07601
 20
0.588108
 30
0.0
 40
0.0111111
 41
0.0111111
  0
VERTEX
  8
0
 10
1.03597
 20
0.553711
 30
0.0
 40
0.0111111
 41
0.0111111
  0
VERTEX
  8
0
 10
0.985026
 20
0.511285
 30
0.0
 40
0.0111111
 41
0.0111111
  0
VERTEX
  8
0
 10
0.927029
 20
0.463975
 30
0.0
 40
0.0111111
 41
0.0111111
  0
VERTEX
  8
0
 10
0.86594
 20
0.414931
 30
0.0
 40
0.0111111
 41
0.0111111
  0
VERTEX
  8
0
 10
0.80561
 20
0.367296
 30
0.0
 40
0.0111111
 41
0.0111111
  0
VERTEX
  8
0
 10
0.75
 20
0.32411
 30
0.0
 40
0.0111111
 41
0.0111111
  0
VERTEX
  8
0
 10
0.703017
 20
0.288465
 30
0.0
 40
0.0111111
 41
0.0111111
  0
VERTEX
  8
0
 10
0.668511
 20
0.263564
 30
0.0
 40
0.0111111
 41
0.0111111
  0
VERTEX
  8
0
 10
0.64209
 20
0.246039
 30
0.0
 40
0.0111111
 41
0.0111111
  0
VERTEX
  8
0
 10
0.620335
 20
0.234375
 30
0.0
 40
0.0111111
 41
0.0111111
  0
VERTEX
  8
0
 10
0.600911
 20
0.229438
 30
0.0
 40
0.0111111
 41
0.0111111
  0
VERTEX
  8
0
 10
0.581489
 20
0.231933
 30
0.0
 40
0.0111111
 41
0.0111111
  0
VERTEX
  8
0
 10
0.559625
 20
0.242567
 30
0.0
 40
0.0111111
 41
0.0111111
  0
VERTEX
  8
0
 10
0.533094
 20
0.262153
 30
0.0
 40
0.0111111
 41
0.0111111
  0
VERTEX
  8
0
 10
0.499511
 20
0.291342
 30
0.0
 40
0.0111111
 41
0.0111111
  0
VERTEX
  8
0
 10
0.456597
 20
0.330946
 30
0.0
 40
0.0111111
 41
0.0111111
  0
VERTEX
  8
0
 10
0.421821
 20
0.362468
 30
0.0
 40
0.0111111
 41
0.0111111
  0
VERTEX
  8
0
 10
0.391601
 20
0.388292
 30
0.0
 40
0.0111111
 41
0.0111111
  0
VERTEX
  8
0
 10
0.369194
 20
0.405707
 30
0.0
 40
0.0111111
 41
0.0111111
  0
VERTEX
  8
0
 10
0.357801
 20
0.41211
 30
0.0
 40
0.0111111
 41
0.0111111
  0
VERTEX
  8
0
 10
0.349501
 20
0.417156
 30
0.0
 40
0.0111111
 41
0.0111111
  0
VERTEX
  8
0
 10
0.345757
 20
0.429144
 30
0.0
 40
0.0111111
 41
0.0111111
  0
VERTEX
  8
0
 10
0.334581
 20
0.449001
 30
0.0
 40
0.0111111
 41
0.0111111
  0
VERTEX
  8
0
 10
0.308322
 20
0.472765
 30
0.0
 40
0.0111111
 41
0.0111111
  0
VERTEX
  8
0
 10
0.231988
 20
0.533963
 30
0.0
 40
0.0111111
 41
0.0111111
  0
VERTEX
  8
0
 10
0.155871
 20
0.604818
 30
0.0
 40
0.0111111
 41
0.0111111
  0
VERTEX
  8
0
 10
0.097385
 20
0.668024
 30
0.0
 40
0.0111111
 41
0.0111111
  0
VERTEX
  8
0
 10
0.0738932
 20
0.706108
 30
0.0
 40
0.0111111
 41
0.0111111
  0
VERTEX
  8
0
 10
0.0785047
 20
0.721897
 30
0.0
 40
0.0111111
 41
0.0111111
  0
VERTEX
  8
0
 10
0.0923394
 20
0.741644
 30
0.0
 40
0.0111111
 41
0.0111111
  0
VERTEX
  8
0
 10
0.114746
 20
0.764703
 30
0.0
 40
0.0111111
 41
0.0111111
  0
VERTEX
  8
0
 10
0.145182
 20
0.790364
 30
0.0
 40
0.0111111
 41
0.0111111
  0
VERTEX
  8
0
 10
0.231011
 20
0.858399
 30
0.0
 40
0.0111111
 41
0.0111111
  0
VERTEX
  8
0
 10
0.293457
 20
0.909506
 30
0.0
 40
0.0111111
 41
0.0111111
  0
VERTEX
  8
0
 10
0.33176
 20
0.943197
 30
0.0
 40
0.0111111
 41
0.0111111
  0
VERTEX
  8
0
 10
0.345215
 20
0.958822
 30
0.0
 40
0.0111111
 41
0.0111111
  0
VERTEX
  8
0
 10
0.336914
 20
0.976128
 30
0.0
 40
0.0111111
 41
0.0111111
  0
VERTEX
  8
0
 10
0.315701
 20
1.00597
 30
0.0
 40
0.0111111
 41
0.0111111
  0
VERTEX
  8
0
 10
0.295356
 20
1.04069
 30
0.0
 40
0.0111111
 41
0.0111111
  0
VERTEX
  8
0
 10
0.289333
 20
1.0695
 30
0.0
 40
0.0111111
 41
0.0111111
  0
VERTEX
  8
0
 10
0.284017
 20
1.10032
 30
0.0
 40
0.0111111
 41
0.0111111
  0
VERTEX
  8
0
 10
0.265354
 20
1.1397
 30
0.0
 40
0.0111111
 41
0.0111111
  0
VERTEX
  8
0
 10
0.244086
 20
1.17942
 30
0.0
 40
0.0111111
 41
0.0111111
  0
VERTEX
  8
0
 10
0.240614
 20
1.20893
 30
0.0
 40
0.0111111
 41
0.0111111
  0
VERTEX
  8
0
 10
0.25689
 20
1.2372
 30
0.0
 40
0.0111111
 41
0.0111111
  0
VERTEX
  8
0
 10
0.294868
 20
1.273
 30
0.0
 40
0.0111111
 41
0.0111111
  0
VERTEX
  8
0
 10
0.353028
 20
1.32302
 30
0.0
 40
0.0111111
 41
0.0111111
  0
VERTEX
  8
0
 10
0.351779
 20
1.44336
 30
0.0
 40
0.0111111
 41
0.0111111
  0
VERTEX
  8
0
 10
0.351942
 20
1.48742
 30
0.0
 40
0.0111111
 41
0.0111111
  0
VERTEX
  8
0
 10
0.353515
 20
1.51833
 30
0.0
 40
0.0111111
 41
0.0111111
  0
VERTEX
  8
0
 10
0.356065
 20
1.53336
 30
0.0
 40
0.0111111
 41
0.0111111
  0
VERTEX
  8
0
 10
0.359483
 20
1.52963
 30
0.0
 40
0.0111111
 41
0.0111111
  0
VERTEX
  8
0
 10
0.36415
 20
1.51844
 30
0.0
 40
0.0111111
 41
0.0111111
  0
VERTEX
  8
0
 10
0.368544
 20
1.52333
 30
0.0
 40
0.0111111
 41
0.0111111
  0
VERTEX
  8
0
 10
0.373047
 20
1.54531
 30
0.0
 40
0.0111111
 41
0.0111111
  0
VERTEX
  8
0
 10
0.377929
 20
1.5855
 30
0.0
 40
0.0111111
 41
0.0111111
  0
VERTEX
  8
0
 10
0.385092
 20
1.62999
 30
0.0
 40
0.0111111
 41
0.0111111
  0
VERTEX
  8
0
 10
0.397515
 20
1.68044
 30
0.0
 40
0.0111111
 41
0.0111111
  0
VERTEX
  8
0
 10
0.413954
 20
1.73281
 30
0.0
 40
0.0111111
 41
0.0111111
  0
VERTEX
  8
0
 10
0.433376
 20
1.78315
 30
0.0
 40
0.0111111
 41
0.0111111
  0
VERTEX
  8
0
 10
0.470378
 20
1.88954
 30
0.0
 40
0.0111111
 41
0.0111111
  0
VERTEX
  8
0
 10
0.48801
 20
1.99317
 30
0.0
 40
0.0111111
 41
0.0111111
  0
VERTEX
  8
0
 10
0.493381
 20
2.03965
 30
0.0
 40
0.0111111
 41
0.0111111
  0
VERTEX
  8
0
 10
0.501682
 20
2.09044
 30
0.0
 40
0.0111111
 41
0.0111111
  0
VERTEX
  8
0
 10
0.511719
 20
2.13949
 30
0.0
 40
0.0111111
 41
0.0111111
  0
VERTEX
  8
0
 10
0.522407
 20
2.18056
 30
0.0
 40
0.0111111
 41
0.0111111
  0
VERTEX
  8
0
 10
0.531683
 20
2.2136
 30
0.0
 40
0.0111111
 41
0.0111111
  0
VERTEX
  8
0
 10
0.537924
 20
2.24067
 30
0.0
 40
0.0111111
 41
0.0111111
  0
VERTEX
  8
0
 10
0.540582
 20
2.25896
 30
0.0
 40
0.0111111
 41
0.0111111
  0
VERTEX
  8
0
 10
0.539171
 20
2.26574
 30
0.0
 40
0.0111111
 41
0.0111111
  0
VERTEX
  8
0
 10
0.537435
 20
2.26882
 30
0.0
 40
0.0111111
 41
0.0111111
  0
VERTEX
  8
0
 10
0.545899
 20
2.27593
 30
0.0
 40
0.0111111
 41
0.0111111
  0
VERTEX
  8
0
 10
0.559028
 20
2.29606
 30
0.0
 40
0.0111111
 41
0.0111111
  0
VERTEX
  8
0
 10
0.568576
 20
2.33035
 30
0.0
 40
0.0111111
 41
0.0111111
  0
VERTEX
  8
0
 10
0.569933
 20
2.35992
 30
0.0
 40
0.0111111
 41
0.0111111
  0
VERTEX
  8
0
 10
0.562825
 20
2.36686
 30
0.0
 40
0.0111111
 41
0.0111111
  0
VERTEX
  8
0
 10
0.553874
 20
2.36692
 30
0.0
 40
0.0111111
 41
0.0111111
  0
VERTEX
  8
0
 10
0.5389
 20
2.37289
 30
0.0
 40
0.0111111
 41
0.0111111
  0
VERTEX
  8
0
 10
0.520019
 20
2.38374
 30
0.0
 40
0.0111111
 41
0.0111111
  0
VERTEX
  8
0
 10
0.499294
 20
2.39839
 30
0.0
 40
0.0111111
 41
0.0111111
  0
VERTEX
  8
0
 10
0.470269
 20
2.42025
 30
0.0
 40
0.0111111
 41
0.0111111
  0
VERTEX
  8
0
 10
0.439779
 20
2.44228
 30
0.0
 40
0.0111111
 41
0.0111111
  0
VERTEX
  8
0
 10
0.409125
 20
2.46343
 30
0.0
 40
0.0111111
 41
0.0111111
  0
VERTEX
  8
0
 10
0.379883
 20
2.48292
 30
0.0
 40
0.0111111
 41
0.0111111
  0
VERTEX
  8
0
 10
0.353407
 20
2.49968
 30
0.0
 40
0.0111111
 41
0.0111111
  0
VERTEX
  8
0
 10
0.331218
 20
2.51286
 30
0.0
 40
0.0111111
 41
0.0111111
  0
VERTEX
  8
0
 10
0.314725
 20
2.52143
 30
0.0
 40
0.0111111
 41
0.0111111
  0
VERTEX
  8
0
 10
0.305393
 20
2.52447
 30
0.0
 40
0.0111111
 41
0.0111111
  0
VERTEX
  8
0
 10
0.291015
 20
2.53276
 30
0.0
 40
0.0111111
 41
0.0111111
  0
VERTEX
  8
0
 10
0.273546
 20
2.55257
 30
0.0
 40
0.0111111
 41
0.0111111
  0
VERTEX
  8
0
 10
0.241319
 20
2.58649
 30
0.0
 40
0.0111111
 41
0.0111111
  0
VERTEX
  8
0
 10
0.194174
 20
2.62408
 30
0.0
 40
0.0111111
 41
0.0111111
  0
VERTEX
  8
0
 10
0.145779
 20
2.65549
 30
0.0
 40
0.0111111
 41
0.0111111
  0
VERTEX
  8
0
 10
0.11008
 20
2.67068
 30
0.0
 40
0.0111111
 41
0.0111111
  0
VERTEX
  8
0
 10
0.0859375
 20
2.68056
 30
0.0
 40
0.0111111
 41
0.0111111
  0
VERTEX
  8
0
 10
0.0658637
 20
2.69846
 30
0.0
 40
0.0111111
 41
0.0111111
  0
VERTEX
  8
0
 10
0.0565864
 20
2.72211
 30
0.0
 40
0.0111111
 41
0.0111111
  0
VERTEX
  8
0
 10
0.0741644
 20
2.74588
 30
0.0
 40
0.0111111
 41
0.0111111
  0
VERTEX
  8
0
 10
0.097385
 20
2.76269
 30
0.0
 40
0.0111111
 41
0.0111111
  0
VERTEX
  8
0
 10
0.11735
 20
2.76953
 30
0.0
 40
0.0111111
 41
0.0111111
  0
VERTEX
  8
0
 10
0.12717
 20
2.76687
 30
0.0
 40
0.0111111
 41
0.0111111
  0
VERTEX
  8
0
 10
0.116157
 20
2.75738
 30
0.0
 40
0.0111111
 41
0.0111111
  0
VERTEX
  8
0
 10
0.106174
 20
2.74636
 30
0.0
 40
0.0111111
 41
0.0111111
  0
VERTEX
  8
0
 10
0.122938
 20
2.7379
 30
0.0
 40
0.0111111
 41
0.0111111
  0
VERTEX
  8
0
 10
0.171442
 20
2.72581
 30
0.0
 40
0.0111111
 41
0.0111111
  0
VERTEX
  8
0
 10
0.212239
 20
2.71972
 30
0.0
 40
0.0111111
 41
0.0111111
  0
VERTEX
  8
0
 10
0.240343
 20
2.72017
 30
0.0
 40
0.0111111
 41
0.0111111
  0
VERTEX
  8
0
 10
0.250814
 20
2.72738
 30
0.0
 40
0.0111111
 41
0.0111111
  0
VERTEX
  8
0
 10
0.261719
 20
2.73736
 30
0.0
 40
0.0111111
 41
0.0111111
  0
VERTEX
  8
0
 10
0.290744
 20
2.74197
 30
0.0
 40
0.0111111
 41
0.0111111
  0
VERTEX
  8
0
 10
0.332303
 20
2.74192
 30
0.0
 40
0.0111111
 41
0.0111111
  0
VERTEX
  8
0
 10
0.380751
 20
2.7379
 30
0.0
 40
0.0111111
 41
0.0111111
  0
VERTEX
  8
0
 10
0.430556
 20
2.73053
 30
0.0
 40
0.0111111
 41
0.0111111
  0
VERTEX
  8
0
 10
0.476019
 20
2.72038
 30
0.0
 40
0.0111111
 41
0.0111111
  0
VERTEX
  8
0
 10
0.511556
 20
2.70822
 30
0.0
 40
0.0111111
 41
0.0111111
  0
VERTEX
  8
0
 10
0.531683
 20
2.69467
 30
0.0
 40
0.0111111
 41
0.0111111
  0
VERTEX
  8
0
 10
0.56174
 20
2.6754
 30
0.0
 40
0.0111111
 41
0.0111111
  0
VERTEX
  8
0
 10
0.597493
 20
2.6959
 30
0.0
 40
0.0111111
 41
0.0111111
  0
VERTEX
  8
0
 10
0.611871
 20
2.71647
 30
0.0
 40
0.0111111
 41
0.0111111
  0
VERTEX
  8
0
 10
0.607747
 20
2.73101
 30
0.0
 40
0.0111111
 41
0.0111111
  0
VERTEX
  8
0
 10
0.585015
 20
2.73969
 30
0.0
 40
0.0111111
 41
0.0111111
  0
VERTEX
  8
0
 10
0.543511
 20
2.74251
 30
0.0
 40
0.0111111
 41
0.0111111
  0
VERTEX
  8
0
 10
0.514486
 20
2.74479
 30
0.0
 40
0.0111111
 41
0.0111111
  0
VERTEX
  8
0
 10
0.479926
 20
2.75086
 30
0.0
 40
0.0111111
 41
0.0111111
  0
VERTEX
  8
0
 10
0.444119
 20
2.75988
 30
0.0
 40
0.0111111
 41
0.0111111
  0
VERTEX
  8
0
 10
0.411458
 20
2.77089
 30
0.0
 40
0.0111111
 41
0.0111111
  0
VERTEX
  8
0
 10
0.382921
 20
2.78179
 30
0.0
 40
0.0111111
 41
0.0111111
  0
VERTEX
  8
0
 10
0.358507
 20
2.79036
 30
0.0
 40
0.0111111
 41
0.0111111
  0
VERTEX
  8
0
 10
0.340875
 20
2.79579
 30
0.0
 40
0.0111111
 41
0.0111111
  0
VERTEX
  8
0
 10
0.332574
 20
2.79719
 30
0.0
 40
0.0111111
 41
0.0111111
  0
VERTEX
  8
0
 10
0.290961
 20
2.79812
 30
0.0
 40
0.0111111
 41
0.0111111
  0
VERTEX
  8
0
 10
0.205946
 20
2.80382
 30
0.0
 40
0.0111111
 41
0.0111111
  0
VERTEX
  8
0
 10
0.113498
 20
2.81153
 30
0.0
 40
0.0111111
 41
0.0111111
  0
VERTEX
  8
0
 10
0.0498047
 20
2.81858
 30
0.0
 40
0.0111111
 41
0.0111111
  0
VERTEX
  8
0
 10
0.01926
 20
2.82894
 30
0.0
 40
0.0111111
 41
0.0111111
  0
VERTEX
  8
0
 10
0.00613064
 20
2.84754
 30
0.0
 40
0.0111111
 41
0.0111111
  0
VERTEX
  8
0
 10
0.0104709
 20
2.87435
 30
0.0
 40
0.0111111
 41
0.0111111
  0
VERTEX
  8
0
 10
0.032335
 20
2.90918
 30
0.0
 40
0.0111111
 41
0.0111111
  0
VERTEX
  8
0
 10
0.0483399
 20
2.93614
 30
0.0
 40
0.0111111
 41
0.0111111
  0
VERTEX
  8
0
 10
0.0493707
 20
2.95301
 30
0.0
 40
0.0111111
 41
0.0111111
  0
VERTEX
  8
0
 10
0.0484483
 20
2.95865
 30
0.0
 40
0.0111111
 41
0.0111111
  0
VERTEX
  8
0
 10
0.0600043
 20
2.95828
 30
0.0
 40
0.0111111
 41
0.0111111
  0
VERTEX
  8
0
 10
0.0733507
 20
2.96039
 30
0.0
 40
0.0111111
 41
0.0111111
  0
VERTEX
  8
0
 10
0.0767144
 20
2.97179
 30
0.0
 40
0.0111111
 41
0.0111111
  0
VERTEX
  8
0
 10
0.0783419
 20
2.98193
 30
0.0
 40
0.0111111
 41
0.0111111
  0
VERTEX
  8
0
 10
0.0877821
 20
2.98068
 30
0.0
 40
0.0111111
 41
0.0111111
  0
VERTEX
  8
0
 10
0.10498
 20
2.98014
 30
0.0
 40
0.0111111
 41
0.0111111
  0
VERTEX
  8
0
 10
0.125597
 20
2.99164
 30
0.0
 40
0.0111111
 41
0.0111111
  0
VERTEX
  8
0
 10
0.157553
 20
3.01465
 30
0.0
 40
0.0111111
 41
0.0111111
  0
VERTEX
  8
0
 10
0.196018
 20
3.03532
 30
0.0
 40
0.0111111
 41
0.0111111
  0
VERTEX
  8
0
 10
0.233615
 20
3.05024
 30
0.0
 40
0.0111111
 41
0.0111111
  0
VERTEX
  8
0
 10
0.263075
 20
3.05593
 30
0.0
 40
0.0111111
 41
0.0111111
  0
VERTEX
  8
0
 10
0.285536
 20
3.06119
 30
0.0
 40
0.0111111
 41
0.0111111
  0
VERTEX
  8
0
 10
0.301215
 20
3.07378
 30
0.0
 40
0.0111111
 41
0.0111111
  0
VERTEX
  8
0
 10
0.343099
 20
3.11242
 30
0.0
 40
0.0111111
 41
0.0111111
  0
VERTEX
  8
0
 10
0.404406
 20
3.13374
 30
0.0
 40
0.0111111
 41
0.0111111
  0
VERTEX
  8
0
 10
0.473469
 20
3.13579
 30
0.0
 40
0.0111111
 41
0.0111111
  0
VERTEX
  8
0
 10
0.538738
 20
3.11637
 30
0.0
 40
0.0111111
 41
0.0111111
  0
VERTEX
  8
0
 10
0.571994
 20
3.08919
 30
0.0
 40
0.0111111
 41
0.0111111
  0
VERTEX
  8
0
 10
0.597982
 20
3.04964
 30
0.0
 40
0.0111111
 41
0.0111111
  0
VERTEX
  8
0
 10
0.612847
 20
3.00575
 30
0.0
 40
0.0111111
 41
0.0111111
  0
VERTEX
  8
0
 10
0.612685
 20
2.96544
 30
0.0
 40
0.0111111
 41
0.0111111
  0
VERTEX
  8
0
 10
0.610949
 20
2.9426
 30
0.0
 40
0.0111111
 41
0.0111111
  0
VERTEX
  8
0
 10
0.618489
 20
2.93326
 30
0.0
 40
0.0111111
 41
0.0111111
  0
VERTEX
  8
0
 10
0.628256
 20
2.93929
 30
0.0
 40
0.0111111
 41
0.0111111
  0
VERTEX
  8
0
 10
0.632378
 20
2.95372
 30
0.0
 40
0.0111111
 41
0.0111111
  0
VERTEX
  8
0
 10
0.633464
 20
2.96436
 30
0.0
 40
0.0111111
 41
0.0111111
  0
VERTEX
  8
0
 10
0.637315
 20
2.97054
 30
0.0
 40
0.0111111
 41
0.0111111
  0
VERTEX
  8
0
 10
0.64464
 20
2.97179
 30
0.0
 40
0.0111111
 41
0.0111111
  0
VERTEX
  8
0
 10
0.65625
 20
2.96789
 30
0.0
 40
0.0111111
 41
0.0111111
  0
VERTEX
  8
0
 10
0.672851
 20
2.95833
 30
0.0
 40
0.0111111
 41
0.0111111
  0
VERTEX
  8
0
 10
0.695313
 20
2.94287
 30
0.0
 40
0.0111111
 41
0.0111111
  0
VERTEX
  8
0
 10
0.724283
 20
2.92106
 30
0.0
 40
0.0111111
 41
0.0111111
  0
VERTEX
  8
0
 10
0.760579
 20
2.89253
 30
0.0
 40
0.0111111
 41
0.0111111
  0
VERTEX
  8
0
 10
0.808376
 20
2.85303
 30
0.0
 40
0.0111111
 41
0.0111111
  0
VERTEX
  8
0
 10
0.83865
 20
2.82394
 30
0.0
 40
0.0111111
 41
0.0111111
  0
VERTEX
  8
0
 10
0.853353
 20
2.80306
 30
0.0
 40
0.0111111
 41
0.0111111
  0
VERTEX
  8
0
 10
0.854546
 20
2.78808
 30
0.0
 40
0.0111111
 41
0.0111111
  0
VERTEX
  8
0
 10
0.851887
 20
2.77339
 30
0.0
 40
0.0111111
 41
0.0111111
  0
VERTEX
  8
0
 10
0.861763
 20
2.77513
 30
0.0
 40
0.0111111
 41
0.0111111
  0
VERTEX
  8
0
 10
0.872993
 20
2.78857
 30
0.0
 40
0.0111111
 41
0.0111111
  0
VERTEX
  8
0
 10
0.877713
 20
2.80692
 30
0.0
 40
0.0111111
 41
0.0111111
  0
VERTEX
  8
0
 10
0.88341
 20
2.82872
 30
0.0
 40
0.0111111
 41
0.0111111
  0
VERTEX
  8
0
 10
0.897244
 20
2.85038
 30
0.0
 40
0.0111111
 41
0.0111111
  0
VERTEX
  8
0
 10
0.95535
 20
2.912
 30
0.0
 40
0.0111111
 41
0.0111111
  0
VERTEX
  8
0
 10
1.00673
 20
2.96012
 30
0.0
 40
0.0111111
 41
0.0111111
  0
VERTEX
  8
0
 10
1.05523
 20
2.99821
 30
0.0
 40
0.0111111
 41
0.0111111
  0
VERTEX
  8
0
 10
1.10482
 20
3.02957
 30
0.0
 40
0.0111111
 41
0.0111111
  0
VERTEX
  8
0
 10
1.13618
 20
3.04769
 30
0.0
 40
0.0111111
 41
0.0111111
  0
VERTEX
  8
0
 10
1.16292
 20
3.06369
 30
0.0
 40
0.0111111
 41
0.0111111
  0
VERTEX
  8
0
 10
1.18218
 20
3.0759
 30
0.0
 40
0.0111111
 41
0.0111111
  0
VERTEX
  8
0
 10
1.19113
 20
3.08251
 30
0.0
 40
0.0111111
 41
0.0111111
  0
VERTEX
  8
0
 10
1.23286
 20
3.10954
 30
0.0
 40
0.0111111
 41
0.0111111
  0
VERTEX
  8
0
 10
1.30832
 20
3.14611
 30
0.0
 40
0.0111111
 41
0.0111111
  0
VERTEX
  8
0
 10
1.38938
 20
3.17958
 30
0.0
 40
0.0111111
 41
0.0111111
  0
VERTEX
  8
0
 10
1.44792
 20
3.19743
 30
0.0
 40
0.0111111
 41
0.0111111
  0
VERTEX
  8
0
 10
1.50444
 20
3.21143
 30
0.0
 40
0.0111111
 41
0.0111111
  0
VERTEX
  8
0
 10
1.55724
 20
3.23215
 30
0.0
 40
0.0111111
 41
0.0111111
  0
VERTEX
  8
0
 10
1.59896
 20
3.2494
 30
0.0
 40
0.0111111
 41
0.0111111
  0
VERTEX
  8
0
 10
1.65082
 20
3.26226
 30
0.0
 40
0.0111111
 41
0.0111111
  0
VERTEX
  8
0
 10
1.71935
 20
3.27197
 30
0.0
 40
0.0111111
 41
0.0111111
  0
VERTEX
  8
0
 10
1.81119
 20
3.27974
 30
0.0
 40
0.0111111
 41
0.0111111
  0
VERTEX
  8
0
 10
1.88997
 20
3.28657
 30
0.0
 40
0.0111111
 41
0.0111111
  0
VERTEX
  8
0
 10
1.96451
 20
3.29503
 30
0.0
 40
0.0111111
 41
0.0111111
  0
VERTEX
  8
0
 10
1.99257
 20
3.29796
 30
0.0
 40
0.0111111
 41
0.0111111
  0
VERTEX
  8
0
 10
2.01531
 20
3.29844
 30
0.0
 40
0.0111111
 41
0.0111111
  0
VERTEX
  8
0
 10
2.03049
 20
3.29665
 30
0.0
 40
0.0111111
 41
0.0111111
  0
VERTEX
  8
0
 10
2.03608
 20
3.29258
 30
0.0
 40
0.0111111
 41
0.0111111
  0
VERTEX
  8
0
 10
2.04249
 20
3.28131
 30
0.0
 40
0.0111111
 41
0.0111111
  0
VERTEX
  8
0
 10
2.06006
 20
3.25944
 30
0.0
 40
0.0111111
 41
0.0111111
  0
VERTEX
  8
0
 10
2.08604
 20
3.23014
 30
0.0
 40
0.0111111
 41
0.0111111
  0
VERTEX
  8
0
 10
2.11783
 20
3.19661
 30
0.0
 40
0.0111111
 41
0.0111111
  0
VERTEX
  8
0
 10
2.15044
 20
3.16108
 30
0.0
 40
0.0111111
 41
0.0111111
  0
VERTEX
  8
0
 10
2.17632
 20
3.12858
 30
0.0
 40
0.0111111
 41
0.0111111
  0
VERTEX
  8
0
 10
2.19342
 20
3.10206
 30
0.0
 40
0.0111111
 41
0.0111111
  0
VERTEX
  8
0
 10
2.1996
 20
3.08436
 30
0.0
 40
0.0111111
 41
0.0111111
  0
VERTEX
  8
0
 10
2.20671
 20
3.0625
 30
0.0
 40
0.0111111
 41
0.0111111
  0
VERTEX
  8
0
 10
2.23031
 20
3.05572
 30
0.0
 40
0.0111111
 41
0.0111111
  0
VERTEX
  8
0
 10
2.24501
 20
3.05469
 30
0.0
 40
0.0111111
 41
0.0111111
  0
VERTEX
  8
0
 10
2.24794
 20
3.05057
 30
0.0
 40
0.0111111
 41
0.0111111
  0
VERTEX
  8
0
 10
2.23813
 20
3.04156
 30
0.0
 40
0.0111111
 41
0.0111111
  0
VERTEX
  8
0
 10
2.21463
 20
3.02582
 30
0.0
 40
0.0111111
 41
0.0111111
  0
VERTEX
  8
0
 10
2.18679
 20
3.01101
 30
0.0
 40
0.0111111
 41
0.0111111
  0
VERTEX
  8
0
 10
2.15582
 20
3.00196
 30
0.0
 40
0.0111111
 41
0.0111111
  0
VERTEX
  8
0
 10
2.11501
 20
2.99739
 30
0.0
 40
0.0111111
 41
0.0111111
  0
VERTEX
  8
0
 10
2.05789
 20
2.9961
 30
0.0
 40
0.0111111
 41
0.0111111
  0
VERTEX
  8
0
 10
1.98301
 20
2.99854
 30
0.0
 40
0.0111111
 41
0.0111111
  0
VERTEX
  8
0
 10
1.91531
 20
3.00786
 30
0.0
 40
0.0111111
 41
0.0111111
  0
VERTEX
  8
0
 10
1.84017
 20
3.02692
 30
0.0
 40
0.0111111
 41
0.0111111
  0
VERTEX
  8
0
 10
1.74306
 20
3.0586
 30
0.0
 40
0.0111111
 41
0.0111111
  0
VERTEX
  8
0
 10
1.70779
 20
3.0701
 30
0.0
 40
0.0111111
 41
0.0111111
  0
VERTEX
  8
0
 10
1.67231
 20
3.08046
 30
0.0
 40
0.0111111
 41
0.0111111
  0
VERTEX
  8
0
 10
1.64074
 20
3.0886
 30
0.0
 40
0.0111111
 41
0.0111111
  0
VERTEX
  8
0
 10
1.61714
 20
3.09332
 30
0.0
 40
0.0111111
 41
0.0111111
  0
VERTEX
  8
0
 10
1.58811
 20
3.10146
 30
0.0
 40
0.0111111
 41
0.0111111
  0
VERTEX
  8
0
 10
1.58046
 20
3.11193
 30
0.0
 40
0.0111111
 41
0.0111111
  0
VERTEX
  8
0
 10
1.57607
 20
3.1166
 30
0.0
 40
0.0111111
 41
0.0111111
  0
VERTEX
  8
0
 10
1.55854
 20
3.12007
 30
0.0
 40
0.0111111
 41
0.0111111
  0
VERTEX
  8
0
 10
1.53065
 20
3.12218
 30
0.0
 40
0.0111111
 41
0.0111111
  0
VERTEX
  8
0
 10
1.49517
 20
3.1225
 30
0.0
 40
0.0111111
 41
0.0111111
  0
VERTEX
  8
0
 10
1.46126
 20
3.12142
 30
0.0
 40
0.0111111
 41
0.0111111
  0
VERTEX
  8
0
 10
1.43761
 20
3.11963
 30
0.0
 40
0.0111111
 41
0.0111111
  0
VERTEX
  8
0
 10
1.42632
 20
3.1174
 30
0.0
 40
0.0111111
 41
0.0111111
  0
VERTEX
  8
0
 10
1.42964
 20
3.1149
 30
0.0
 40
0.0111111
 41
0.0111111
  0
VERTEX
  8
0
 10
1.47342
 20
3.10097
 30
0.0
 40
0.0111111
 41
0.0111111
  0
VERTEX
  8
0
 10
1.48708
 20
3.08681
 30
0.0
 40
0.0111111
 41
0.0111111
  0
VERTEX
  8
0
 10
1.47086
 20
3.07471
 30
0.0
 40
0.0111111
 41
0.0111111
  0
VERTEX
  8
0
 10
1.42497
 20
3.06706
 30
0.0
 40
0.0111111
 41
0.0111111
  0
VERTEX
  8
0
 10
1.39117
 20
3.06153
 30
0.0
 40
0.0111111
 41
0.0111111
  0
VERTEX
  8
0
 10
1.37326
 20
3.05294
 30
0.0
 40
0.0111111
 41
0.0111111
  0
VERTEX
  8
0
 10
1.35965
 20
3.04546
 30
0.0
 40
0.0111111
 41
0.0111111
  0
VERTEX
  8
0
 10
1.33621
 20
3.04232
 30
0.0
 40
0.0111111
 41
0.0111111
  0
VERTEX
  8
0
 10
1.31331
 20
3.03678
 30
0.0
 40
0.0111111
 41
0.0111111
  0
VERTEX
  8
0
 10
1.27523
 20
3.02181
 30
0.0
 40
0.0111111
 41
0.0111111
  0
VERTEX
  8
0
 10
1.22678
 20
2.99989
 30
0.0
 40
0.0111111
 41
0.0111111
  0
VERTEX
  8
0
 10
1.17291
 20
2.97353
 30
0.0
 40
0.0111111
 41
0.0111111
  0
VERTEX
  8
0
 10
1.11865
 20
2.94521
 30
0.0
 40
0.0111111
 41
0.0111111
  0
VERTEX
  8
0
 10
1.06885
 20
2.91749
 30
0.0
 40
0.0111111
 41
0.0111111
  0
VERTEX
  8
0
 10
1.02848
 20
2.89274
 30
0.0
 40
0.0111111
 41
0.0111111
  0
VERTEX
  8
0
 10
1.0025
 20
2.87358
 30
0.0
 40
0.0111111
 41
0.0111111
  0
VERTEX
  8
0
 10
0.971408
 20
2.84169
 30
0.0
 40
0.0111111
 41
0.0111111
  0
VERTEX
  8
0
 10
0.954807
 20
2.81526
 30
0.0
 40
0.0111111
 41
0.0111111
  0
VERTEX
  8
0
 10
0.952692
 20
2.79476
 30
0.0
 40
0.0111111
 41
0.0111111
  0
VERTEX
  8
0
 10
0.965332
 20
2.78039
 30
0.0
 40
0.0111111
 41
0.0111111
  0
VERTEX
  8
0
 10
0.979656
 20
2.76449
 30
0.0
 40
0.0111111
 41
0.0111111
  0
VERTEX
  8
0
 10
0.980089
 20
2.74306
 30
0.0
 40
0.0111111
 41
0.0111111
  0
VERTEX
  8
0
 10
0.980794
 20
2.73324
 30
0.0
 40
0.0111111
 41
0.0111111
  0
VERTEX
  8
0
 10
0.994954
 20
2.73426
 30
0.0
 40
0.0111111
 41
0.0111111
  0
VERTEX
  8
0
 10
1.0262
 20
2.74718
 30
0.0
 40
0.0111111
 41
0.0111111
  0
VERTEX
  8
0
 10
1.07829
 20
2.77317
 30
0.0
 40
0.0111111
 41
0.0111111
  0
VERTEX
  8
0
 10
1.12207
 20
2.79676
 30
0.0
 40
0.0111111
 41
0.0111111
  0
VERTEX
  8
0
 10
1.16303
 20
2.82036
 30
0.0
 40
0.0111111
 41
0.0111111
  0
VERTEX
  8
0
 10
1.19651
 20
2.84136
 30
0.0
 40
0.0111111
 41
0.0111111
  0
VERTEX
  8
0
 10
1.21799
 20
2.85682
 30
0.0
 40
0.0111111
 41
0.0111111
  0
VERTEX
  8
0
 10
1.23866
 20
2.87244
 30
0.0
 40
0.0111111
 41
0.0111111
  0
VERTEX
  8
0
 10
1.23334
 20
2.86171
 30
0.0
 40
0.0111111
 41
0.0111111
  0
VERTEX
  8
0
 10
1.22721
 20
2.85118
 30
0.0
 40
0.0111111
 41
0.0111111
  0
VERTEX
  8
0
 10
1.2328
 20
2.84901
 30
0.0
 40
0.0111111
 41
0.0111111
  0
VERTEX
  8
0
 10
1.25233
 20
2.85562
 30
0.0
 40
0.0111111
 41
0.0111111
  0
VERTEX
  8
0
 10
1.28825
 20
2.87136
 30
0.0
 40
0.0111111
 41
0.0111111
  0
VERTEX
  8
0
 10
1.36724
 20
2.90326
 30
0.0
 40
0.0111111
 41
0.0111111
  0
VERTEX
  8
0
 10
1.44043
 20
2.92507
 30
0.0
 40
0.0111111
 41
0.0111111
  0
VERTEX
  8
0
 10
1.49951
 20
2.93489
 30
0.0
 40
0.0111111
 41
0.0111111
  0
VERTEX
  8
0
 10
1.53614
 20
2.93072
 30
0.0
 40
0.0111111
 41
0.0111111
  0
VERTEX
  8
0
 10
1.56267
 20
2.90126
 30
0.0
 40
0.0111111
 41
0.0111111
  0
VERTEX
  8
0
 10
1.58914
 20
2.84592
 30
0.0
 40
0.0111111
 41
0.0111111
  0
VERTEX
  8
0
 10
1.6135
 20
2.77354
 30
0.0
 40
0.0111111
 41
0.0111111
  0
VERTEX
  8
0
 10
1.63396
 20
2.69299
 30
0.0
 40
0.0111111
 41
0.0111111
  0
VERTEX
  8
0
 10
1.64844
 20
2.61307
 30
0.0
 40
0.0111111
 41
0.0111111
  0
VERTEX
  8
0
 10
1.65517
 20
2.54258
 30
0.0
 40
0.0111111
 41
0.0111111
  0
VERTEX
  8
0
 10
1.65213
 20
2.4904
 30
0.0
 40
0.0111111
 41
0.0111111
  0
VERTEX
  8
0
 10
1.63747
 20
2.46533
 30
0.0
 40
0.0111111
 41
0.0111111
  0
VERTEX
  8
0
 10
1.62756
 20
2.45975
 30
0.0
 40
0.0111111
 41
0.0111111
  0
VERTEX
  8
0
 10
1.6371
 20
2.45736
 30
0.0
 40
0.0111111
 41
0.0111111
  0
VERTEX
  8
0
 10
1.64774
 20
2.44558
 30
0.0
 40
0.0111111
 41
0.0111111
  0
VERTEX
  8
0
 10
1.64621
 20
2.412
 30
0.0
 40
0.0111111
 41
0.0111111
  0
VERTEX
  8
0
 10
1.64328
 20
2.39187
 30
0.0
 40
0.0111111
 41
0.0111111
  0
VERTEX
  8
0
 10
1.64333
 20
2.38163
 30
0.0
 40
0.0111111
 41
0.0111111
  0
VERTEX
  8
0
 10
1.64654
 20
2.38064
 30
0.0
 40
0.0111111
 41
0.0111111
  0
VERTEX
  8
0
 10
1.65315
 20
2.38818
 30
0.0
 40
0.0111111
 41
0.0111111
  0
VERTEX
  8
0
 10
1.66347
 20
2.41764
 30
0.0
 40
0.0111111
 41
0.0111111
  0
VERTEX
  8
0
 10
1.66792
 20
2.45969
 30
0.0
 40
0.0111111
 41
0.0111111
  0
VERTEX
  8
0
 10
1.66878
 20
2.493
 30
0.0
 40
0.0111111
 41
0.0111111
  0
VERTEX
  8
0
 10
1.67546
 20
2.50717
 30
0.0
 40
0.0111111
 41
0.0111111
  0
VERTEX
  8
0
 10
1.69417
 20
2.50532
 30
0.0
 40
0.0111111
 41
0.0111111
  0
VERTEX
  8
0
 10
1.73139
 20
2.49044
 30
0.0
 40
0.0111111
 41
0.0111111
  0
VERTEX
  8
0
 10
1.76628
 20
2.47017
 30
0.0
 40
0.0111111
 41
0.0111111
  0
VERTEX
  8
0
 10
1.7724
 20
2.44997
 30
0.0
 40
0.0111111
 41
0.0111111
  0
VERTEX
  8
0
 10
1.77051
 20
2.43365
 30
0.0
 40
0.0111111
 41
0.0111111
  0
VERTEX
  8
0
 10
1.77675
 20
2.42247
 30
0.0
 40
0.0111111
 41
0.0111111
  0
VERTEX
  8
0
 10
1.78657
 20
2.42606
 30
0.0
 40
0.0111111
 41
0.0111111
  0
VERTEX
  8
0
 10
1.79318
 20
2.44504
 30
0.0
 40
0.0111111
 41
0.0111111
  0
VERTEX
  8
0
 10
1.79753
 20
2.45931
 30
0.0
 40
0.0111111
 41
0.0111111
  0
VERTEX
  8
0
 10
1.80783
 20
2.45953
 30
0.0
 40
0.0111111
 41
0.0111111
  0
VERTEX
  8
0
 10
1.82915
 20
2.44319
 30
0.0
 40
0.0111111
 41
0.0111111
  0
VERTEX
  8
0
 10
1.86649
 20
2.40776
 30
0.0
 40
0.0111111
 41
0.0111111
  0
VERTEX
  8
0
 10
1.89632
 20
2.37608
 30
0.0
 40
0.0111111
 41
0.0111111
  0
VERTEX
  8
0
 10
1.92676
 20
2.33951
 30
0.0
 40
0.0111111
 41
0.0111111
  0
VERTEX
  8
0
 10
1.95415
 20
2.30263
 30
0.0
 40
0.0111111
 41
0.0111111
  0
VERTEX
  8
0
 10
1.97499
 20
2.26992
 30
0.0
 40
0.0111111
 41
0.0111111
  0
VERTEX
  8
0
 10
1.99137
 20
2.24317
 30
0.0
 40
0.0111111
 41
0.0111111
  0
VERTEX
  8
0
 10
2.00672
 20
2.22244
 30
0.0
 40
0.0111111
 41
0.0111111
  0
VERTEX
  8
0
 10
2.01932
 20
2.20979
 30
0.0
 40
0.0111111
 41
0.0111111
  0
VERTEX
  8
0
 10
2.02746
 20
2.20731
 30
0.0
 40
0.0111111
 41
0.0111111
  0
VERTEX
  8
0
 10
2.0339
 20
2.20876
 30
0.0
 40
0.0111111
 41
0.0111111
  0
VERTEX
  8
0
 10
2.03157
 20
2.20107
 30
0.0
 40
0.0111111
 41
0.0111111
  0
VERTEX
  8
0
 10
2.03358
 20
2.18067
 30
0.0
 40
0.0111111
 41
0.0111111
  0
VERTEX
  8
0
 10
2.05089
 20
2.15126
 30
0.0
 40
0.0111111
 41
0.0111111
  0
VERTEX
  8
0
 10
2.06879
 20
2.12614
 30
0.0
 40
0.0111111
 41
0.0111111
  0
VERTEX
  8
0
 10
2.0726
 20
2.11561
 30
0.0
 40
0.0111111
 41
0.0111111
  0
VERTEX
  8
0
 10
2.07553
 20
2.10568
 30
0.0
 40
0.0111111
 41
0.0111111
  0
VERTEX
  8
0
 10
2.08817
 20
2.07861
 30
0.0
 40
0.0111111
 41
0.0111111
  0
VERTEX
  8
0
 10
2.10856
 20
2.03851
 30
0.0
 40
0.0111111
 41
0.0111111
  0
VERTEX
  8
0
 10
2.1346
 20
1.98953
 30
0.0
 40
0.0111111
 41
0.0111111
  0
VERTEX
  8
0
 10
2.16233
 20
1.93821
 30
0.0
 40
0.0111111
 41
0.0111111
  0
VERTEX
  8
0
 10
2.18733
 20
1.8915
 30
0.0
 40
0.0111111
 41
0.0111111
  0
VERTEX
  8
0
 10
2.20692
 20
1.85465
 30
0.0
 40
0.0111111
 41
0.0111111
  0
VERTEX
  8
0
 10
2.21832
 20
1.83279
 30
0.0
 40
0.0111111
 41
0.0111111
  0
VERTEX
  8
0
 10
2.23682
 20
1.80871
 30
0.0
 40
0.0111111
 41
0.0111111
  0
VERTEX
  8
0
 10
2.25982
 20
1.79368
 30
0.0
 40
0.0111111
 41
0.0111111
  0
VERTEX
  8
0
 10
2.27149
 20
1.78863
 30
0.0
 40
0.0111111
 41
0.0111111
  0
VERTEX
  8
0
 10
2.27268
 20
1.78315
 30
0.0
 40
0.0111111
 41
0.0111111
  0
VERTEX
  8
0
 10
2.26232
 20
1.77582
 30
0.0
 40
0.0111111
 41
0.0111111
  0
VERTEX
  8
0
 10
2.23936
 20
1.76519
 30
0.0
 40
0.0111111
 41
0.0111111
  0
VERTEX
  8
0
 10
2.20247
 20
1.75
 30
0.0
 40
0.0111111
 41
0.0111111
  0
VERTEX
  8
0
 10
2.17919
 20
1.74169
 30
0.0
 40
0.0111111
 41
0.0111111
  0
VERTEX
  8
0
 10
2.13857
 20
1.73085
 30
0.0
 40
0.0111111
 41
0.0111111
  0
VERTEX
  8
0
 10
2.11106
 20
1.72168
 30
0.0
 40
0.0111111
 41
0.0111111
  0
VERTEX
  8
0
 10
2.09549
 20
1.71376
 30
0.0
 40
0.0111111
 41
0.0111111
  0
VERTEX
  8
0
 10
2.0906
 20
1.70654
 30
0.0
 40
0.0111111
 41
0.0111111
  0
VERTEX
  8
0
 10
2.07667
 20
1.6964
 30
0.0
 40
0.0111111
 41
0.0111111
  0
VERTEX
  8
0
 10
2.03956
 20
1.68647
 30
0.0
 40
0.0111111
 41
0.0111111
  0
VERTEX
  8
0
 10
1.98606
 20
1.67757
 30
0.0
 40
0.0111111
 41
0.0111111
  0
VERTEX
  8
0
 10
1.92324
 20
1.67025
 30
0.0
 40
0.0111111
 41
0.0111111
  0
VERTEX
  8
0
 10
1.85786
 20
1.66525
 30
0.0
 40
0.0111111
 41
0.0111111
  0
VERTEX
  8
0
 10
1.79688
 20
1.66319
 30
0.0
 40
0.0111111
 41
0.0111111
  0
VERTEX
  8
0
 10
1.74724
 20
1.66476
 30
0.0
 40
0.0111111
 41
0.0111111
  0
VERTEX
  8
0
 10
1.71582
 20
1.67057
 30
0.0
 40
0.0111111
 41
0.0111111
  0
VERTEX
  8
0
 10
1.7015
 20
1.67622
 30
0.0
 40
0.0111111
 41
0.0111111
  0
VERTEX
  8
0
 10
1.69629
 20
1.67708
 30
0.0
 40
0.0111111
 41
0.0111111
  0
VERTEX
  8
0
 10
1.69993
 20
1.67264
 30
0.0
 40
0.0111111
 41
0.0111111
  0
VERTEX
  8
0
 10
1.71218
 20
1.66222
 30
0.0
 40
0.0111111
 41
0.0111111
  0
VERTEX
  8
0
 10
1.72601
 20
1.64567
 30
0.0
 40
0.0111111
 41
0.0111111
  0
VERTEX
  8
0
 10
1.72624
 20
1.63314
 30
0.0
 40
0.0111111
 41
0.0111111
  0
VERTEX
  8
0
 10
1.727
 20
1.62929
 30
0.0
 40
0.0111111
 41
0.0111111
  0
VERTEX
  8
0
 10
1.74229
 20
1.6334
 30
0.0
 40
0.0111111
 41
0.0111111
  0
VERTEX
  8
0
 10
1.759
 20
1.63704
 30
0.0
 40
0.0111111
 41
0.0111111
  0
VERTEX
  8
0
 10
1.75917
 20
1.62896
 30
0.0
 40
0.0111111
 41
0.0111111
  0
VERTEX
  8
0
 10
1.75863
 20
1.62239
 30
0.0
 40
0.0111111
 41
0.0111111
  0
VERTEX
  8
0
 10
1.76361
 20
1.61219
 30
0.0
 40
0.0111111
 41
0.0111111
  0
VERTEX
  8
0
 10
1.77458
 20
1.59787
 30
0.0
 40
0.0111111
 41
0.0111111
  0
VERTEX
  8
0
 10
1.7921
 20
1.57889
 30
0.0
 40
0.0111111
 41
0.0111111
  0
VERTEX
  8
0
 10
1.81668
 20
1.55469
 30
0.0
 40
0.0111111
 41
0.0111111
  0
VERTEX
  8
0
 10
1.84879
 20
1.52474
 30
0.0
 40
0.0111111
 41
0.0111111
  0
VERTEX
  8
0
 10
1.889
 20
1.4885
 30
0.0
 40
0.0111111
 41
0.0111111
  0
VERTEX
  8
0
 10
1.93787
 20
1.44542
 30
0.0
 40
0.0111111
 41
0.0111111
  0
VERTEX
  8
0
 10
1.98178
 20
1.40175
 30
0.0
 40
0.0111111
 41
0.0111111
  0
VERTEX
  8
0
 10
1.99496
 20
1.37326
 30
0.0
 40
0.0111111
 41
0.0111111
  0
VERTEX
  8
0
 10
1.97721
 20
1.35845
 30
0.0
 40
0.0111111
 41
0.0111111
  0
VERTEX
  8
0
 10
1.9285
 20
1.35596
 30
0.0
 40
0.0111111
 41
0.0111111
  0
VERTEX
  8
0
 10
1.88286
 20
1.36079
 30
0.0
 40
0.0111111
 41
0.0111111
  0
VERTEX
  8
0
 10
1.86686
 20
1.36768
 30
0.0
 40
0.0111111
 41
0.0111111
  0
VERTEX
  8
0
 10
1.8361
 20
1.38135
 30
0.0
 40
0.0111111
 41
0.0111111
  0
VERTEX
  8
0
 10
1.75526
 20
1.39893
 30
0.0
 40
0.0111111
 41
0.0111111
  0
VERTEX
  8
0
 10
1.65869
 20
1.41411
 30
0.0
 40
0.0111111
 41
0.0111111
  0
VERTEX
  8
0
 10
1.58068
 20
1.42057
 30
0.0
 40
0.0111111
 41
0.0111111
  0
VERTEX
  8
0
 10
1.53168
 20
1.41906
 30
0.0
 40
0.0111111
 41
0.0111111
  0
VERTEX
  8
0
 10
1.523
 20
1.41493
 30
0.0
 40
0.0111111
 41
0.0111111
  0
VERTEX
  8
0
 10
1.55311
 20
1.40896
 30
0.0
 40
0.0111111
 41
0.0111111
  0
VERTEX
  8
0
 10
1.62044
 20
1.40181
 30
0.0
 40
0.0111111
 41
0.0111111
  0
VERTEX
  8
0
 10
1.67453
 20
1.39686
 30
0.0
 40
0.0111111
 41
0.0111111
  0
VERTEX
  8
0
 10
1.71582
 20
1.39204
 30
0.0
 40
0.0111111
 41
0.0111111
  0
VERTEX
  8
0
 10
1.74636
 20
1.38623
 30
0.0
 40
0.0111111
 41
0.0111111
  0
VERTEX
  8
0
 10
1.76828
 20
1.37853
 30
0.0
 40
0.0111111
 41
0.0111111
  0
VERTEX
  8
0
 10
1.78364
 20
1.36784
 30
0.0
 40
0.0111111
 41
0.0111111
  0
VERTEX
  8
0
 10
1.79454
 20
1.35308
 30
0.0
 40
0.0111111
 41
0.0111111
  0
VERTEX
  8
0
 10
1.803
 20
1.33333
 30
0.0
 40
0.0111111
 41
0.0111111
  0
VERTEX
  8
0
 10
1.81114
 20
1.30751
 30
0.0
 40
0.0111111
 41
0.0111111
  0
VERTEX
  8
0
 10
1.81907
 20
1.27892
 30
0.0
 40
0.0111111
 41
0.0111111
  0
VERTEX
  8
0
 10
1.82563
 20
1.25201
 30
0.0
 40
0.0111111
 41
0.0111111
  0
VERTEX
  8
0
 10
1.83003
 20
1.22993
 30
0.0
 40
0.0111111
 41
0.0111111
  0
VERTEX
  8
0
 10
1.83165
 20
1.21555
 30
0.0
 40
0.0111111
 41
0.0111111
  0
VERTEX
  8
0
 10
1.83963
 20
1.18918
 30
0.0
 40
0.0111111
 41
0.0111111
  0
VERTEX
  8
0
 10
1.85894
 20
1.15793
 30
0.0
 40
0.0111111
 41
0.0111111
  0
VERTEX
  8
0
 10
1.87815
 20
1.12923
 30
0.0
 40
0.0111111
 41
0.0111111
  0
VERTEX
  8
0
 10
1.88618
 20
1.10883
 30
0.0
 40
0.0111111
 41
0.0111111
  0
VERTEX
  8
0
 10
1.89133
 20
1.10064
 30
0.0
 40
0.0111111
 41
0.0111111
  0
VERTEX
  8
0
 10
1.90386
 20
1.10113
 30
0.0
 40
0.0111111
 41
0.0111111
  0
VERTEX
  8
0
 10
1.92572
 20
1.09598
 30
0.0
 40
0.0111111
 41
0.0111111
  0
VERTEX
  8
0
 10
1.95356
 20
1.07389
 30
0.0
 40
0.0111111
 41
0.0111111
  0
VERTEX
  8
0
 10
1.98014
 20
1.05235
 30
0.0
 40
0.0111111
 41
0.0111111
  0
VERTEX
  8
0
 10
1.99929
 20
1.04834
 30
0.0
 40
0.0111111
 41
0.0111111
  0
VERTEX
  8
0
 10
2.00624
 20
1.04997
 30
0.0
 40
0.0111111
 41
0.0111111
  0
VERTEX
  8
0
 10
2.00364
 20
1.04161
 30
0.0
 40
0.0111111
 41
0.0111111
  0
VERTEX
  8
0
 10
2.0045
 20
1.02327
 30
0.0
 40
0.0111111
 41
0.0111111
  0
VERTEX
  8
0
 10
2.02001
 20
1.00054
 30
0.0
 40
0.0111111
 41
0.0111111
  0
VERTEX
  8
0
 10
2.03635
 20
0.978028
 30
0.0
 40
0.0111111
 41
0.0111111
  0
VERTEX
  8
0
 10
2.06185
 20
0.93571
 30
0.0
 40
0.0111111
 41
0.0111111
  0
VERTEX
  8
0
 10
2.09289
 20
0.879719
 30
0.0
 40
0.0111111
 41
0.0111111
  0
VERTEX
  8
0
 10
2.12614
 20
0.816081
 30
0.0
 40
0.0111111
 41
0.0111111
  0
VERTEX
  8
0
 10
2.16818
 20
0.735732
 30
0.0
 40
0.0111111
 41
0.0111111
  0
VERTEX
  8
0
 10
2.19949
 20
0.684028
 30
0.0
 40
0.0111111
 41
0.0111111
  0
VERTEX
  8
0
 10
2.22532
 20
0.653429
 30
0.0
 40
0.0111111
 41
0.0111111
  0
VERTEX
  8
0
 10
2.25103
 20
0.636176
 30
0.0
 40
0.0111111
 41
0.0111111
  0
VERTEX
  8
0
 10
2.29492
 20
0.6014
 30
0.0
 40
0.0111111
 41
0.0111111
  0
VERTEX
  8
0
 10
2.33751
 20
0.540799
 30
0.0
 40
0.0111111
 41
0.0111111
  0
VERTEX
  8
0
 10
2.35519
 20
0.512099
 30
0.0
 40
0.0111111
 41
0.0111111
  0
VERTEX
  8
0
 10
2.37153
 20
0.490451
 30
0.0
 40
0.0111111
 41
0.0111111
  0
VERTEX
  8
0
 10
2.38487
 20
0.477701
 30
0.0
 40
0.0111111
 41
0.0111111
  0
VERTEX
  8
0
 10
2.39382
 20
0.475532
 30
0.0
 40
0.0111111
 41
0.0111111
  0
VERTEX
  8
0
 10
2.40147
 20
0.477593
 30
0.0
 40
0.0111111
 41
0.0111111
  0
VERTEX
  8
0
 10
2.39849
 20
0.468696
 30
0.0
 40
0.0111111
 41
0.0111111
  0
VERTEX
  8
0
 10
2.40494
 20
0.451551
 30
0.0
 40
0.0111111
 41
0.0111111
  0
VERTEX
  8
0
 10
2.43158
 20
0.416342
 30
0.0
 40
0.0111111
 41
0.0111111
  0
VERTEX
  8
0
 10
2.47607
 20
0.365886
 30
0.0
 40
0.0111111
 41
0.0111111
  0
VERTEX
  8
0
 10
2.53597
 20
0.30306
 30
0.0
 40
0.0111111
 41
0.0111111
  0
VERTEX
  8
0
 10
2.58137
 20
0.257324
 30
0.0
 40
0.0111111
 41
0.0111111
  0
VERTEX
  8
0
 10
2.62001
 20
0.219456
 30
0.0
 40
0.0111111
 41
0.0111111
  0
VERTEX
  8
0
 10
2.65153
 20
0.189669
 30
0.0
 40
0.0111111
 41
0.0111111
  0
VERTEX
  8
0
 10
2.67583
 20
0.16824
 30
0.0
 40
0.0111111
 41
0.0111111
  0
VERTEX
  8
0
 10
2.69254
 20
0.155219
 30
0.0
 40
0.0111111
 41
0.0111111
  0
VERTEX
  8
0
 10
2.70161
 20
0.150879
 30
0.0
 40
0.0111111
 41
0.0111111
  0
VERTEX
  8
0
 10
2.70275
 20
0.155382
 30
0.0
 40
0.0111111
 41
0.0111111
  0
VERTEX
  8
0
 10
2.69575
 20
0.168892
 30
0.0
 40
0.0111111
 41
0.0111111
  0
VERTEX
  8
0
 10
2.69282
 20
0.177843
 30
0.0
 40
0.0111111
 41
0.0111111
  0
VERTEX
  8
0
 10
2.70199
 20
0.174804
 30
0.0
 40
0.0111111
 41
0.0111111
  0
VERTEX
  8
0
 10
2.71099
 20
0.164225
 30
0.0
 40
0.0111111
 41
0.0111111
  0
VERTEX
  8
0
 10
2.71035
 20
0.152615
 30
0.0
 40
0.0111111
 41
0.0111111
  0
VERTEX
  8
0
 10
2.71169
 20
0.143989
 30
0.0
 40
0.0111111
 41
0.0111111
  0
VERTEX
  8
0
 10
2.72689
 20
0.136122
 30
0.0
 40
0.0111111
 41
0.0111111
  0
VERTEX
  8
0
 10
2.75575
 20
0.129069
 30
0.0
 40
0.0111111
 41
0.0111111
  0
VERTEX
  8
0
 10
2.79818
 20
0.122938
 30
0.0
 40
0.0111111
 41
0.0111111
  0
VERTEX
  8
0
 10
2.82676
 20
0.114855
 30
0.0
 40
0.0111111
 41
0.0111111
  0
VERTEX
  8
0
 10
2.83599
 20
0.102376
 30
0.0
 40
0.0111111
 41
0.0111111
  0
VERTEX
  8
0
 10
2.82585
 20
0.0898981
 30
0.0
 40
0.0111111
 41
0.0111111
  0
VERTEX
  8
0
 10
2.79665
 20
0.0819228
 30
0.0
 40
0.0111111
 41
0.0111111
  0
VERTEX
  8
0
 10
2.75157
 20
0.0769857
 30
0.0
 40
0.0111111
 41
0.0111111
  0
VERTEX
  8
0
 10
2.79243
 20
0.066569
 30
0.0
 40
0.0111111
 41
0.0111111
  0
VERTEX
  8
0
 10
2.85363
 20
0.0447592
 30
0.0
 40
0.0111111
 41
0.0111111
  0
VERTEX
  8
0
 10
2.87131
 20
0.0222439
 30
0.0
 40
0.0111111
 41
0.0111111
  0
VERTEX
  8
0
 10
2.85949
 20
0.0105794
 30
0.0
 40
0.0111111
 41
0.0111111
  0
VERTEX
  8
0
 10
2.8349
 20
0.00580512
 30
0.0
 40
0.0111111
 41
0.0111111
  0
VERTEX
  8
0
 10
2.803
 20
0.00819228
 30
0.0
 40
0.0111111
 41
0.0111111
  0
VERTEX
  8
0
 10
2.76942
 20
0.0179579
 30
0.0
 40
0.0111111
 41
0.0111111
  0
VERTEX
  8
0
 10
2.73753
 20
0.0266385
 30
0.0
 40
0.0111111
 41
0.0111111
  0
VERTEX
  8
0
 10
2.71961
 20
0.022461
 30
0.0
 40
0.0111111
 41
0.0111111
  0
VERTEX
  8
0
 10
2.70176
 20
0.0109592
 30
0.0
 40
0.0111111
 41
0.0111111
  0
VERTEX
  8
0
 10
2.67242
 20
0.0161133
 30
0.0
 40
0.0111111
 41
0.0111111
  0
VERTEX
  8
0
 10
2.62582
 20
0.0402018
 30
0.0
 40
0.0111111
 41
0.0111111
  0
VERTEX
  8
0
 10
2.55647
 20
0.0852322
 30
0.0
 40
0.0111111
 41
0.0111111
  0
SEQEND
 8
0
  0
POLYLINE
  8
0
 62
     1
 66
     1
 10
0
 20
0
 30
0.0
 70
     1
 40
0.8
 41
0.8
  0
VERTEX
  8
0
 10
0.754829
 20
2.0721
 30
0.0
 40
0.0111111
 41
0.0111111
  0
VERTEX
  8
0
 10
0.752333
 20
2.08751
 30
0.0
 40
0.0111111
 41
0.0111111
  0
VERTEX
  8
0
 10
0.741428
 20
2.07471
 30
0.0
 40
0.0111111
 41
0.0111111
  0
VERTEX
  8
0
 10
0.731717
 20
2.05664
 30
0.0
 40
0.0111111
 41
0.0111111
  0
VERTEX
  8
0
 10
0.728461
 20
2.04368
 30
0.0
 40
0.0111111
 41
0.0111111
  0
VERTEX
  8
0
 10
0.731717
 20
2.03776
 30
0.0
 40
0.0111111
 41
0.0111111
  0
VERTEX
  8
0
 10
0.741428
 20
2.04064
 30
0.0
 40
0.0111111
 41
0.0111111
  0
VERTEX
  8
0
 10
0.750976
 20
2.05339
 30
0.0
 40
0.0111111
 41
0.0111111
  0
VERTEX
  8
0
 10
0.754829
 20
2.0721
 30
0.0
 40
0.0111111
 41
0.0111111
  0
SEQEND
 8
0
  0
POLYLINE
  8
0
 62
     1
 66
     1
 10
0
 20
0
 30
0.0
 70
     1
 40
0.8
 41
0.8
  0
VERTEX
  8
0
 10
1.61361
 20
2.4904
 30
0.0
 40
0.0111111
 41
0.0111111
  0
VERTEX
  8
0
 10
1.60764
 20
2.50504
 30
0.0
 40
0.0111111
 41
0.0111111
  0
VERTEX
  8
0
 10
1.59338
 20
2.51568
 30
0.0
 40
0.0111111
 41
0.0111111
  0
VERTEX
  8
0
 10
1.57829
 20
2.51443
 30
0.0
 40
0.0111111
 41
0.0111111
  0
VERTEX
  8
0
 10
1.57579
 20
2.49137
 30
0.0
 40
0.0111111
 41
0.0111111
  0
VERTEX
  8
0
 10
1.58285
 20
2.47254
 30
0.0
 40
0.0111111
 41
0.0111111
  0
VERTEX
  8
0
 10
1.59571
 20
2.46599
 30
0.0
 40
0.0111111
 41
0.0111111
  0
VERTEX
  8
0
 10
1.60807
 20
2.4719
 30
0.0
 40
0.0111111
 41
0.0111111
  0
VERTEX
  8
0
 10
1.61361
 20
2.4904
 30
0.0
 40
0.0111111
 41
0.0111111
  0
SEQEND
 8
0
  0
POLYLINE
  8
0
 62
     1
 66
     1
 10
0
 20
0
 30
0.0
 70
     1
 40
0.8
 41
0.8
  0
VERTEX
  8
0
 10
0.278049
 20
3.01503
 30
0.0
 40
0.0111111
 41
0.0111111
  0
VERTEX
  8
0
 10
0.276475
 20
3.03435
 30
0.0
 40
0.0111111
 41
0.0111111
  0
VERTEX
  8
0
 10
0.27284
 20
3.04232
 30
0.0
 40
0.0111111
 41
0.0111111
  0
VERTEX
  8
0
 10
0.267036
 20
3.03435
 30
0.0
 40
0.0111111
 41
0.0111111
  0
VERTEX
  8
0
 10
0.260471
 20
3.01503
 30
0.0
 40
0.0111111
 41
0.0111111
  0
VERTEX
  8
0
 10
0.25906
 20
2.99582
 30
0.0
 40
0.0111111
 41
0.0111111
  0
VERTEX
  8
0
 10
0.265733
 20
2.98779
 30
0.0
 40
0.0111111
 41
0.0111111
  0
VERTEX
  8
0
 10
0.274414
 20
2.99582
 30
0.0
 40
0.0111111
 41
0.0111111
  0
VERTEX
  8
0
 10
0.278049
 20
3.01503
 30
0.0
 40
0.0111111
 41
0.0111111
  0
SEQEND
 8
0
  0
POLYLINE
  8
0
 62
     1
 66
     1
 10
0
 20
0
 30
0.0
 70
     1
 40
0.8
 41
0.8
  0
VERTEX
  8
0
 10
2.79671
 20
0.148872
 30
0.0
 40
0.0111111
 41
0.0111111
  0
VERTEX
  8
0
 10
2.81174
 20
0.151531
 30
0.0
 40
0.0111111
 41
0.0111111
  0
VERTEX
  8
0
 10
2.82281
 20
0.147786
 30
0.0
 40
0.0111111
 41
0.0111111
  0
VERTEX
  8
0
 10
2.8209
 20
0.142307
 30
0.0
 40
0.0111111
 41
0.0111111
  0
VERTEX
  8
0
 10
2.8049
 20
0.140625
 30
0.0
 40
0.0111111
 41
0.0111111
  0
VERTEX
  8
0
 10
2.79075
 20
0.143392
 30
0.0
 40
0.0111111
 41
0.0111111
  0
VERTEX
  8
0
 10
2.79671
 20
0.148872
 30
0.0
 40
0.0111111
 41
0.0111111
  0
SEQEND
 8
0
  0
POLYLINE
  8
0
 62
     1
 66
     1
 10
0
 20
0
 30
0.0
 70
     1
 40
0.8
 41
0.8
  0
VERTEX
  8
0
 10
0.298503
 20
0.970865
 30
0.0
 40
0.0111111
 41
0.0111111
  0
VERTEX
  8
0
 10
0.296767
 20
0.980524
 30
0.0
 40
0.0111111
 41
0.0111111
  0
VERTEX
  8
0
 10
0.304525
 20
0.984483
 30
0.0
 40
0.0111111
 41
0.0111111
  0
VERTEX
  8
0
 10
0.314669
 20
0.980524
 30
0.0
 40
0.0111111
 41
0.0111111
  0
VERTEX
  8
0
 10
0.318956
 20
0.970865
 30
0.0
 40
0.0111111
 41
0.0111111
  0
VERTEX
  8
0
 10
0.312933
 20
0.957249
 30
0.0
 40
0.0111111
 41
0.0111111
  0
VERTEX
  8
0
 10
0.306207
 20
0.961262
 30
0.0
 40
0.0111111
 41
0.0111111
  0
VERTEX
  8
0
 10
0.298503
 20
0.970865
 30
0.0
 40
0.0111111
 41
0.0111111
  0
SEQEND
 8
0
  0
POLYLINE
  8
0
 62
     1
 66
     1
 10
0
 20
0
 30
0.0
 70
     1
 40
0.8
 41
0.8
  0
VERTEX
  8
0
 10
0.518229
 20
1.27799
 30
0.0
 40
0.0111111
 41
0.0111111
  0
VERTEX
  8
0
 10
0.511447
 20
1.29877
 30
0.0
 40
0.0111111
 41
0.0111111
  0
VERTEX
  8
0
 10
0.510633
 20
1.30897
 30
0.0
 40
0.0111111
 41
0.0111111
  0
VERTEX
  8
0
 10
0.5153
 20
1.30756
 30
0.0
 40
0.0111111
 41
0.0111111
  0
VERTEX
  8
0
 10
0.525011
 20
1.29351
 30
0.0
 40
0.0111111
 41
0.0111111
  0
VERTEX
  8
0
 10
0.533365
 20
1.27409
 30
0.0
 40
0.0111111
 41
0.0111111
  0
VERTEX
  8
0
 10
0.533094
 20
1.26226
 30
0.0
 40
0.0111111
 41
0.0111111
  0
VERTEX
  8
0
 10
0.526096
 20
1.26427
 30
0.0
 40
0.0111111
 41
0.0111111
  0
VERTEX
  8
0
 10
0.518229
 20
1.27799
 30
0.0
 40
0.0111111
 41
0.0111111
  0
SEQEND
 8
0
  0
POLYLINE
  8
0
 62
     1
 66
     1
 10
0
 20
0
 30
0.0
 70
     1
 40
0.8
 41
0.8
  0
VERTEX
  8
0
 10
0.956054
 20
1.40235
 30
0.0
 40
0.0111111
 41
0.0111111
  0
VERTEX
  8
0
 10
0.97309
 20
1.40522
 30
0.0
 40
0.0111111
 41
0.0111111
  0
VERTEX
  8
0
 10
0.990126
 20
1.40235
 30
0.0
 40
0.0111111
 41
0.0111111
  0
VERTEX
  8
0
 10
0.992133
 20
1.39751
 30
0.0
 40
0.0111111
 41
0.0111111
  0
VERTEX
  8
0
 10
0.97309
 20
1.39546
 30
0.0
 40
0.0111111
 41
0.0111111
  0
VERTEX
  8
0
 10
0.953993
 20
1.39751
 30
0.0
 40
0.0111111
 41
0.0111111
  0
VERTEX
  8
0
 10
0.956054
 20
1.40235
 30
0.0
 40
0.0111111
 41
0.0111111
  0
SEQEND
 8
0
  0
POLYLINE
  8
0
 62
     1
 66
     1
 10
0
 20
0
 30
0.0
 70
     1
 40
0.8
 41
0.8
  0
VERTEX
  8
0
 10
0.891331
 20
1.4464
 30
0.0
 40
0.0111111
 41
0.0111111
  0
VERTEX
  8
0
 10
0.89784
 20
1.45751
 30
0.0
 40
0.0111111
 41
0.0111111
  0
VERTEX
  8
0
 10
0.913683
 20
1.46713
 30
0.0
 40
0.0111111
 41
0.0111111
  0
VERTEX
  8
0
 10
0.928657
 20
1.47026
 30
0.0
 40
0.0111111
 41
0.0111111
  0
VERTEX
  8
0
 10
0.918836
 20
1.45497
 30
0.0
 40
0.0111111
 41
0.0111111
  0
VERTEX
  8
0
 10
0.897678
 20
1.43528
 30
0.0
 40
0.0111111
 41
0.0111111
  0
VERTEX
  8
0
 10
0.891331
 20
1.4464
 30
0.0
 40
0.0111111
 41
0.0111111
  0
SEQEND
 8
0
  0
POLYLINE
  8
0
 62
     1
 66
     1
 10
0
 20
0
 30
0.0
 70
     1
 40
0.8
 41
0.8
  0
VERTEX
  8
0
 10
0.840494
 20
1.53906
 30
0.0
 40
0.0111111
 41
0.0111111
  0
VERTEX
  8
0
 10
0.862414
 20
1.5415
 30
0.0
 40
0.0111111
 41
0.0111111
  0
VERTEX
  8
0
 10
0.881347
 20
1.53851
 30
0.0
 40
0.0111111
 41
0.0111111
  0
VERTEX
  8
0
 10
0.881185
 20
1.5339
 30
0.0
 40
0.0111111
 41
0.0111111
  0
VERTEX
  8
0
 10
0.85726
 20
1.53228
 30
0.0
 40
0.0111111
 41
0.0111111
  0
VERTEX
  8
0
 10
0.835449
 20
1.5345
 30
0.0
 40
0.0111111
 41
0.0111111
  0
VERTEX
  8
0
 10
0.840494
 20
1.53906
 30
0.0
 40
0.0111111
 41
0.0111111
  0
SEQEND
 8
0
  0
POLYLINE
  8
0
 62
     1
 66
     1
 10
0
 20
0
 30
0.0
 70
     1
 40
0.8
 41
0.8
  0
VERTEX
  8
0
 10
0.557454
 20
2.71522
 30
0.0
 40
0.0111111
 41
0.0111111
  0
VERTEX
  8
0
 10
0.555718
 20
2.72487
 30
0.0
 40
0.0111111
 41
0.0111111
  0
VERTEX
  8
0
 10
0.563422
 20
2.72885
 30
0.0
 40
0.0111111
 41
0.0111111
  0
VERTEX
  8
0
 10
0.573622
 20
2.72487
 30
0.0
 40
0.0111111
 41
0.0111111
  0
VERTEX
  8
0
 10
0.577854
 20
2.71522
 30
0.0
 40
0.0111111
 41
0.0111111
  0
VERTEX
  8
0
 10
0.571886
 20
2.70161
 30
0.0
 40
0.0111111
 41
0.0111111
  0
VERTEX
  8
0
 10
0.565158
 20
2.70562
 30
0.0
 40
0.0111111
 41
0.0111111
  0
VERTEX
  8
0
 10
0.557454
 20
2.71522
 30
0.0
 40
0.0111111
 41
0.0111111
  0
SEQEND
 8
0
  0
POLYLINE
  8
0
 62
     1
 66
     1
 10
0
 20
0
 30
0.0
 70
     1
 40
0.8
 41
0.8
  0
VERTEX
  8
0
 10
0.346192
 20
2.76932
 30
0.0
 40
0.0111111
 41
0.0111111
  0
VERTEX
  8
0
 10
0.35216
 20
2.77636
 30
0.0
 40
0.0111111
 41
0.0111111
  0
VERTEX
  8
0
 10
0.366644
 20
2.77468
 30
0.0
 40
0.0111111
 41
0.0111111
  0
VERTEX
  8
0
 10
0.381076
 20
2.76758
 30
0.0
 40
0.0111111
 41
0.0111111
  0
VERTEX
  8
0
 10
0.387099
 20
2.7615
 30
0.0
 40
0.0111111
 41
0.0111111
  0
VERTEX
  8
0
 10
0.381076
 20
2.75771
 30
0.0
 40
0.0111111
 41
0.0111111
  0
VERTEX
  8
0
 10
0.366644
 20
2.75612
 30
0.0
 40
0.0111111
 41
0.0111111
  0
VERTEX
  8
0
 10
0.35216
 20
2.76004
 30
0.0
 40
0.0111111
 41
0.0111111
  0
VERTEX
  8
0
 10
0.346192
 20
2.76932
 30
0.0
 40
0.0111111
 41
0.0111111
  0
SEQEND
 8
0
  0
ENDSEC
  0
EOF
