999
dxflib 2.2.0.0
  0
SECTION
  2
HEADER
  9
$ACADVER
  1
AC1015
  9
$HANDSEED
  5
FFFF
  9
$DIMASZ
 40
2.5
  9
$FILLMODE
 70
0
  9
$PLIMMIN
 10
0.0
 20
0.0
  9
$DIMEXE
 40
1.25
  9
$DIMGAP
 40
0.625
  9
$PLIMMAX
 10
210.0
 20
297.0
  9
$EXTMIN
 10
0.0
 20
0.0
 30
0.0
  9
$EXTMAX
 10
1000.0
 20
1000.0
 30
0.0
  9
$SPLFRAME
 70
1
  9
$INSUNITS
 70
4
  9
$DIMSTYLE
  2
Standard
  9
$CLAYER
  8
0
  9
$DIMEXO
 40
0.625
  9
$DIMTXT
 40
2.5
  9
$CLAYER
  8
0
  0
ENDSEC
  0
SECTION
  2
TABLES
  0
TABLE
  2
VPORT
  5
8
100
AcDbSymbolTable
 70
1
  0
VPORT
  5
30
100
AcDbSymbolTableRecord
100
AcDbViewportTableRecord
  2
*Active
 70
0
 10
0.0
 20
0.0
 11
1.0
 21
1.0
 12
286.3055555555554861
 22
148.5
 13
0.0
 23
0.0
 14
10.0
 24
10.0
 15
10.0
 25
10.0
 16
0.0
 26
0.0
 36
1.0
 17
0.0
 27
0.0
 37
0.0
 40
297.0
 41
1.92798353909465
 42
50.0
 43
0.0
 44
0.0
 50
0.0
 51
0.0
 71
0
 72
100
 73
1
 74
3
 75
1
 76
1
 77
0
 78
0
281
0
 65
1
110
0.0
120
0.0
130
0.0
111
1.0
121
0.0
131
0.0
112
0.0
122
1.0
132
0.0
 79
0
146
0.0
  0
ENDTAB
  0
TABLE
  2
LTYPE
  5
5
100
AcDbSymbolTable
 70
21
  0
LTYPE
  5
14
100
AcDbSymbolTableRecord
100
AcDbLinetypeTableRecord
  2
ByBlock
 70
0
  3

 72
65
 73
0
 40
0.0
  0
LTYPE
  5
15
100
AcDbSymbolTableRecord
100
AcDbLinetypeTableRecord
  2
ByLayer
 70
0
  3

 72
65
 73
0
 40
0.0
  0
LTYPE
  5
16
100
AcDbSymbolTableRecord
100
AcDbLinetypeTableRecord
  2
CONTINUOUS
 70
0
  3
Solid line
 72
65
 73
0
 40
0.0
  0
LTYPE
  5
31
100
AcDbSymbolTableRecord
100
AcDbLinetypeTableRecord
  2
DOT
 70
0
  3
Dot . . . . . . . . . . . . . . . . . . . . . .
 72
65
 73
2
 40
6.3499999999999996
 49
0.0
 74
0
 49
-6.3499999999999996
 74
0
  0
LTYPE
  5
32
100
AcDbSymbolTableRecord
100
AcDbLinetypeTableRecord
  2
DOT2
 70
0
  3
Dot (.5x) .....................................
 72
65
 73
2
 40
3.1749999999999998
 49
0.0
 74
0
 49
-3.1749999999999998
 74
0
  0
LTYPE
  5
33
100
AcDbSymbolTableRecord
100
AcDbLinetypeTableRecord
  2
DOTX2
 70
0
  3
Dot (2x) .  .  .  .  .  .  .  .  .  .  .  .  .
 72
65
 73
2
 40
12.6999999999999993
 49
0.0
 74
0
 49
-12.6999999999999993
 74
0
  0
LTYPE
  5
34
100
AcDbSymbolTableRecord
100
AcDbLinetypeTableRecord
  2
DASHED
 70
0
  3
Dashed __ __ __ __ __ __ __ __ __ __ __ __ __ _
 72
65
 73
2
 40
19.0500000000000007
 49
12.6999999999999993
 74
0
 49
-6.3499999999999996
 74
0
  0
LTYPE
  5
35
100
AcDbSymbolTableRecord
100
AcDbLinetypeTableRecord
  2
DASHED2
 70
0
  3
Dashed (.5x) _ _ _ _ _ _ _ _ _ _ _ _ _ _ _ _ _
 72
65
 73
2
 40
9.5250000000000004
 49
6.3499999999999996
 74
0
 49
-3.1749999999999998
 74
0
  0
LTYPE
  5
36
100
AcDbSymbolTableRecord
100
AcDbLinetypeTableRecord
  2
DASHEDX2
 70
0
  3
Dashed (2x) ____  ____  ____  ____  ____  ___
 72
65
 73
2
 40
38.1000000000000014
 49
25.3999999999999986
 74
0
 49
-12.6999999999999993
 74
0
  0
LTYPE
  5
37
100
AcDbSymbolTableRecord
100
AcDbLinetypeTableRecord
  2
DASHDOT
 70
0
  3
Dash dot __ . __ . __ . __ . __ . __ . __ . __
 72
65
 73
4
 40
25.3999999999999986
 49
12.6999999999999993
 74
0
 49
-6.3499999999999996
 74
0
 49
0.0
 74
0
 49
-6.3499999999999996
 74
0
  0
LTYPE
  5
38
100
AcDbSymbolTableRecord
100
AcDbLinetypeTableRecord
  2
DASHDOT2
 70
0
  3
Dash dot (.5x) _._._._._._._._._._._._._._._.
 72
65
 73
4
 40
12.6999999999999993
 49
6.3499999999999996
 74
0
 49
-3.1749999999999998
 74
0
 49
0.0
 74
0
 49
-3.1749999999999998
 74
0
  0
LTYPE
  5
39
100
AcDbSymbolTableRecord
100
AcDbLinetypeTableRecord
  2
DASHDOTX2
 70
0
  3
Dash dot (2x) ____  .  ____  .  ____  .  ___
 72
65
 73
4
 40
50.7999999999999972
 49
25.3999999999999986
 74
0
 49
-12.6999999999999993
 74
0
 49
0.0
 74
0
 49
-12.6999999999999993
 74
0
  0
LTYPE
  5
3A
100
AcDbSymbolTableRecord
100
AcDbLinetypeTableRecord
  2
DIVIDE
 70
0
  3
Divide ____ . . ____ . . ____ . . ____ . . ____
 72
65
 73
6
 40
31.75
 49
12.6999999999999993
 74
0
 49
-6.3499999999999996
 74
0
 49
0.0
 74
0
 49
-6.3499999999999996
 74
0
 49
0.0
 74
0
 49
-6.3499999999999996
 74
0
  0
LTYPE
  5
3B
100
AcDbSymbolTableRecord
100
AcDbLinetypeTableRecord
  2
DIVIDE2
 70
0
  3
Divide (.5x) __..__..__..__..__..__..__..__.._
 72
65
 73
6
 40
15.875
 49
6.3499999999999996
 74
0
 49
-3.1749999999999998
 74
0
 49
0.0
 74
0
 49
-3.1749999999999998
 74
0
 49
0.0
 74
0
 49
-3.1749999999999998
 74
0
  0
LTYPE
  5
3C
100
AcDbSymbolTableRecord
100
AcDbLinetypeTableRecord
  2
DIVIDEX2
 70
0
  3
Divide (2x) ________  .  .  ________  .  .  _
 72
65
 73
6
 40
63.5
 49
25.3999999999999986
 74
0
 49
-12.6999999999999993
 74
0
 49
0.0
 74
0
 49
-12.6999999999999993
 74
0
 49
0.0
 74
0
 49
-12.6999999999999993
 74
0
  0
LTYPE
  5
3D
100
AcDbSymbolTableRecord
100
AcDbLinetypeTableRecord
  2
CENTER
 70
0
  3
Center ____ _ ____ _ ____ _ ____ _ ____ _ ____
 72
65
 73
4
 40
50.7999999999999972
 49
31.75
 74
0
 49
-6.3499999999999996
 74
0
 49
6.3499999999999996
 74
0
 49
-6.3499999999999996
 74
0
  0
LTYPE
  5
3E
100
AcDbSymbolTableRecord
100
AcDbLinetypeTableRecord
  2
CENTER2
 70
0
  3
Center (.5x) ___ _ ___ _ ___ _ ___ _ ___ _ ___
 72
65
 73
4
 40
28.5749999999999993
 49
19.0500000000000007
 74
0
 49
-3.1749999999999998
 74
0
 49
3.1749999999999998
 74
0
 49
-3.1749999999999998
 74
0
  0
LTYPE
  5
3F
100
AcDbSymbolTableRecord
100
AcDbLinetypeTableRecord
  2
CENTERX2
 70
0
  3
Center (2x) ________  __  ________  __  _____
 72
65
 73
4
 40
101.5999999999999943
 49
63.5
 74
0
 49
-12.6999999999999993
 74
0
 49
12.6999999999999993
 74
0
 49
-12.6999999999999993
 74
0
  0
LTYPE
  5
40
100
AcDbSymbolTableRecord
100
AcDbLinetypeTableRecord
  2
BORDER
 70
0
  3
Border __ __ . __ __ . __ __ . __ __ . __ __ .
 72
65
 73
6
 40
44.4500000000000028
 49
12.6999999999999993
 74
0
 49
-6.3499999999999996
 74
0
 49
12.6999999999999993
 74
0
 49
-6.3499999999999996
 74
0
 49
0.0
 74
0
 49
-6.3499999999999996
 74
0
  0
LTYPE
  5
41
100
AcDbSymbolTableRecord
100
AcDbLinetypeTableRecord
  2
BORDER2
 70
0
  3
Border (.5x) __.__.__.__.__.__.__.__.__.__.__.
 72
65
 73
6
 40
22.2250000000000014
 49
6.3499999999999996
 74
0
 49
-3.1749999999999998
 74
0
 49
6.3499999999999996
 74
0
 49
-3.1749999999999998
 74
0
 49
0.0
 74
0
 49
-3.1749999999999998
 74
0
  0
LTYPE
  5
42
100
AcDbSymbolTableRecord
100
AcDbLinetypeTableRecord
  2
BORDERX2
 70
0
  3
Border (2x) ____  ____  .  ____  ____  .  ___
 72
65
 73
6
 40
88.9000000000000057
 49
25.3999999999999986
 74
0
 49
-12.6999999999999993
 74
0
 49
25.3999999999999986
 74
0
 49
-12.6999999999999993
 74
0
 49
0.0
 74
0
 49
-12.6999999999999993
 74
0
  0
ENDTAB
  0
TABLE
  2
LAYER
  5
2
100
AcDbSymbolTable
 70
1
  0
LAYER
  5
10
100
AcDbSymbolTableRecord
100
AcDbLayerTableRecord
  2
0
 70
0
 62
7
420
16777215
  6
CONTINUOUS
390
F
  0
ENDTAB
  0
TABLE
  2
STYLE
  5
3
100
AcDbSymbolTable
 70
1
  0
STYLE
  5
11
100
AcDbSymbolTableRecord
100
AcDbTextStyleTableRecord
  2
Standard
 70
0
 40
0.0
 41
0.75
 50
0.0
 71
0
 42
2.5
  3
txt
  4

  0
ENDTAB
  0
TABLE
  2
VIEW
  5
6
100
AcDbSymbolTable
 70
0
  0
ENDTAB
  0
TABLE
  2
UCS
  5
7
100
AcDbSymbolTable
 70
0
  0
ENDTAB
  0
TABLE
  2
APPID
  5
9
100
AcDbSymbolTable
 70
1
  0
APPID
  5
12
100
AcDbSymbolTableRecord
100
AcDbRegAppTableRecord
  2
ACAD
 70
0
  0
ENDTAB
  0
TABLE
  2
DIMSTYLE
  5
A
100
AcDbSymbolTable
 70
1
100
AcDbDimStyleTable
 71
0
  0
DIMSTYLE
105
27
100
AcDbSymbolTableRecord
100
AcDbDimStyleTableRecord
  2
Standard
 41
2.5
 42
0.625
 43
3.75
 44
1.25
 70
0
 73
0
 74
0
 77
1
 78
8
140
2.5
141
2.5
143
0.03937007874016
147
0.625
171
3
172
1
271
2
272
2
274
3
278
44
283
0
284
8
340
11
  0
ENDTAB
  0
TABLE
  2
BLOCK_RECORD
  5
1
100
AcDbSymbolTable
 70
1
  0
BLOCK_RECORD
  5
1F
100
AcDbSymbolTableRecord
100
AcDbBlockTableRecord
  2
*Model_Space
340
22
  0
BLOCK_RECORD
  5
1B
100
AcDbSymbolTableRecord
100
AcDbBlockTableRecord
  2
*Paper_Space
340
1E
  0
BLOCK_RECORD
  5
23
100
AcDbSymbolTableRecord
100
AcDbBlockTableRecord
  2
*Paper_Space0
340
26
  0
ENDTAB
  0
ENDSEC
  0
SECTION
  2
BLOCKS
  0
BLOCK
  5
20
100
AcDbEntity
  8
0
100
AcDbBlockBegin
  2
*Model_Space
 70
0
 10
0.0
 20
0.0
 30
0.0
  3
*Model_Space
  1

  0
ENDBLK
  5
21
100
AcDbEntity
  8
0
100
AcDbBlockEnd
  0
BLOCK
  5
1C
100
AcDbEntity
 67
1
  8
0
100
AcDbBlockBegin
  2
*Paper_Space
 70
0
 10
0.0
 20
0.0
 30
0.0
  3
*Paper_Space
  1

  0
ENDBLK
  5
1D
100
AcDbEntity
 67
1
  8
0
100
AcDbBlockEnd
  0
BLOCK
  5
24
100
AcDbEntity
  8
0
100
AcDbBlockBegin
  2
*Paper_Space0
 70
0
 10
0.0
 20
0.0
 30
0.0
  3
*Paper_Space0
  1

  0
ENDBLK
  5
25
100
AcDbEntity
  8
0
100
AcDbBlockEnd
  0
ENDSEC
  0
SECTION
  2
ENTITIES
  0
LWPOLYLINE
  5
43
  8
0
 62
0
370
-1
  6
ByLayer
100
AcDbEntity
100
AcDbPolyline
 90
449
 70
0
 10
0.379015
 20
2.3752800000000001
 10
0.405003
 20
2.3793899999999999
 10
0.429796
 20
2.3835700000000002
 10
0.461751
 20
2.3720699999999999
 10
0.626736
 20
2.3216700000000001
 10
0.709256
 20
2.28017
 10
0.717557
 20
2.3383799999999999
 10
0.730903
 20
2.3783099999999999
 10
0.749457
 20
2.4036900000000001
 10
0.773329
 20
2.41818
 10
0.802626
 20
2.4255100000000001
 10
0.837565
 20
2.4292500000000001
 10
0.878147
 20
2.4331700000000001
 10
0.924642
 20
2.4409200000000002
 10
0.871582
 20
2.5203500000000001
 10
0.820096
 20
2.5622199999999999
 10
0.770617
 20
2.5750799999999998
 10
0.723796
 20
2.5676000000000001
 10
0.680176
 20
2.5482900000000002
 10
0.6403
 20
2.5256699999999999
 10
0.60471
 20
2.5083600000000001
 10
0.574001
 20
2.5048300000000001
 10
0.546061
 20
2.5124300000000002
 10
0.52181
 20
2.52826
 10
0.499946
 20
2.5474700000000001
 10
0.479167
 20
2.56515
 10
0.497342
 20
2.58826
 10
0.494575
 20
2.6120299999999999
 10
0.481987
 20
2.62364
 10
0.462619
 20
2.6231499999999999
 10
0.45459
 20
2.6468600000000002
 10
0.46799
 20
2.6723599999999998
 10
0.438965
 20
2.6939600000000001
 10
0.393121
 20
2.6895099999999998
 10
0.372017
 20
2.6871299999999998
 10
0.342611
 20
2.6831700000000001
 10
0.314344
 20
2.68371
 10
0.296983
 20
2.6947199999999998
 10
0.3125
 20
2.74132
 10
0.335178
 20
2.7753899999999998
 10
0.365831
 20
2.7811400000000002
 10
0.384819
 20
2.8026800000000001
 10
0.397244
 20
2.8283499999999999
 10
0.408311
 20
2.8463099999999999
 10
0.448079
 20
2.8911699999999998
 10
0.469347
 20
2.8965999999999998
 10
0.482693
 20
2.91282
 10
0.489204
 20
2.9360400000000002
 10
0.490017
 20
2.9623499999999998
 10
0.486111
 20
2.9879600000000002
 10
0.478515
 20
3.0089000000000001
 10
0.468425
 20
3.0213800000000002
 10
0.456868
 20
3.02149
 10
0.448025
 20
3.03668
 10
0.433268
 20
3.0520800000000001
 10
0.416342
 20
3.06928
 10
0.401204
 20
3.0898500000000002
 10
0.391601
 20
3.11524
 10
0.391439
 20
3.14703
 10
0.404568
 20
3.1867899999999998
 10
0.434896
 20
3.2360000000000002
 10
0.434896
 20
3.2360000000000002
 10
0.383029
 20
3.2843499999999999
 10
0.376085
 20
3.3311099999999998
 10
0.403103
 20
3.3752200000000001
 10
0.453179
 20
3.4156399999999998
 10
0.515354
 20
3.4512200000000002
 10
0.578614
 20
3.4809600000000001
 10
0.632053
 20
3.5036900000000002
 10
0.664768
 20
3.51844
 10
0.754124
 20
3.55524
 10
0.861544
 20
3.5673900000000001
 10
0.95535
 20
3.5584899999999999
 10
1.00396
 20
3.5319600000000002
 10
1.1077999999999999
 20
3.5146000000000002
 10
1.19808
 20
3.4805299999999999
 10
1.26166
 20
3.4387500000000002
 10
1.2854300000000001
 20
3.3983300000000001
 10
1.3210200000000001
 20
3.3846500000000002
 10
1.3477699999999999
 20
3.3572099999999998
 10
1.3678399999999999
 20
3.3205300000000002
 10
1.38357
 20
3.27929
 10
1.39714
 20
3.2381700000000002
 10
1.41086
 20
3.2017600000000002
 10
1.4269700000000001
 20
3.17469
 10
1.4476899999999999
 20
3.1616200000000001
 10
1.44069
 20
3.0949399999999998
 10
1.43218
 20
3.02468
 10
1.4204600000000001
 20
2.9546399999999999
 10
1.4039699999999999
 20
2.8887200000000002
 10
1.38124
 20
2.8307799999999999
 10
1.35059
 20
2.7846700000000002
 10
1.3104899999999999
 20
2.7541799999999999
 10
1.25939
 20
2.7431100000000002
 10
1.23909
 20
2.74126
 10
1.2191799999999999
 20
2.7303600000000001
 10
1.20079
 20
2.7125699999999999
 10
1.1852199999999999
 20
2.69021
 10
1.17361
 20
2.66553
 10
1.16726
 20
2.64079
 10
1.1673199999999999
 20
2.61822
 10
1.1750799999999999
 20
2.6000999999999999
 10
1.2142999999999999
 20
2.5550099999999998
 10
1.24935
 20
2.5226799999999998
 10
1.2798400000000001
 20
2.5009700000000001
 10
1.3055000000000001
 20
2.4878999999999998
 10
1.3260099999999999
 20
2.4813299999999998
 10
1.3410899999999999
 20
2.4792800000000002
 10
1.35032
 20
2.4794900000000002
 10
1.3535200000000001
 20
2.4800300000000002
 10
1.38656
 20
2.47661
 10
1.4042399999999999
 20
2.4802499999999998
 10
1.41194
 20
2.48828
 10
1.4151
 20
2.49804
 10
1.4191100000000001
 20
2.5068299999999999
 10
1.4293100000000001
 20
2.51187
 10
1.4511700000000001
 20
2.51064
 10
1.4901800000000001
 20
2.5002200000000001
 10
1.5821400000000001
 20
2.53674
 10
1.6585799999999999
 20
2.5389599999999999
 10
1.7198899999999999
 20
2.5077099999999999
 10
1.76633
 20
2.4439000000000002
 10
1.7982899999999999
 20
2.3482500000000002
 10
1.8161400000000001
 20
2.2216800000000001
 10
1.8201499999999999
 20
2.06494
 10
1.8107599999999999
 20
1.8789
 10
1.8138099999999999
 20
1.7839
 10
1.80647
 20
1.6852799999999999
 10
1.81114
 20
1.58931
 10
1.85032
 20
1.5022800000000001
 10
1.8103899999999999
 20
1.51389
 10
1.77485
 20
1.52214
 10
1.7464200000000001
 20
1.5233300000000001
 10
1.7276
 20
1.5137799999999999
 10
1.7510300000000001
 20
1.4111800000000001
 10
1.7630699999999999
 20
1.30724
 10
1.76942
 20
1.20231
 10
1.77582
 20
1.0969
 10
1.7879700000000001
 20
0.991482
 10
1.8115300000000001
 20
0.886556
 10
1.8522099999999999
 20
0.7826070000000001
 10
1.91581
 20
0.679958
 10
1.90744
 20
0.671007
 10
1.88846
 20
0.661947
 10
1.8636699999999999
 20
0.653321
 10
1.8376300000000001
 20
0.645562
 10
1.81515
 20
0.63916
 10
1.80094
 20
0.634603
 10
1.79969
 20
0.632378
 10
1.81619
 20
0.632921
 10
1.7860799999999999
 20
0.654731
 10
1.75651
 20
0.672146
 10
1.7190700000000001
 20
0.680501
 10
1.6654199999999999
 20
0.67475
 10
1.6326499999999999
 20
0.655599
 10
1.61328
 20
0.642199
 10
1.5925
 20
0.636014
 10
1.5555000000000001
 20
0.6382370000000001
 10
1.4761200000000001
 20
0.639432
 10
1.3968100000000001
 20
0.669108
 10
1.3821600000000001
 20
0.65625
 10
1.3674599999999999
 20
0.647407
 10
1.35395
 20
0.638943
 10
1.3428800000000001
 20
0.627225
 10
1.3354999999999999
 20
0.608507
 10
1.3330599999999999
 20
0.579156
 10
1.3368100000000001
 20
0.535536
 10
1.3480399999999999
 20
0.473904
 10
1.42014
 20
0.41059
 10
1.4330000000000001
 20
0.406629
 10
1.43658
 20
0.397026
 10
1.4399999999999999
 20
0.382107
 10
1.45242
 20
0.361979
 10
1.4885600000000001
 20
0.26671
 10
1.43946
 20
0.110297
 10
1.35802
 20
0.0940212
 10
1.2842899999999999
 20
0.15625
 10
1.2348600000000001
 20
0.14209
 10
1.2321
 20
0.0883247
 10
1.0524100000000001
 20
0.0405274
 10
1.01877
 20
0.0393881
 10
0.9963109999999999
 20
0.0336914
 10
0.981282
 20
0.0255533
 10
0.9701070000000001
 20
0.0170356
 10
0.959147
 20
0.0101454
 10
0.944715
 20
0.00705294
 10
0.9232860000000001
 20
0.00976563
 10
0.891222
 20
0.0203993
 10
0.768392
 20
0.0828993
 10
0.759928
 20
0.131293
 10
0.766058
 20
0.139322
 10
0.7680129999999999
 20
0.143012
 10
0.778971
 20
0.149414
 10
0.812011
 20
0.165474
 10
0.803657
 20
0.177029
 10
0.727701
 20
0.178711
 10
0.644965
 20
0.181207
 10
0.5638030000000001
 20
0.190701
 10
0.492567
 20
0.213379
 10
0.474392
 20
0.227322
 10
0.456381
 20
0.24094
 10
0.439507
 20
0.252333
 10
0.42475
 20
0.259657
 10
0.413086
 20
0.261068
 10
0.405436
 20
0.254665
 10
0.402778
 20
0.238553
 10
0.406142
 20
0.210883
 10
0.38406
 20
0.192925
 10
0.355251
 20
0.17985
 10
0.320964
 20
0.177681
 10
0.282607
 20
0.192438
 10
0.0110677
 20
2.0338099999999999
 10
0.00710721
 20
2.1188199999999999
 10
0.0104167
 20
2.19943
 10
0.0297851
 20
2.2776700000000001
 10
0.074056
 20
2.3555299999999999
 10
0.0863715
 20
2.3678900000000001
 10
0.114963
 20
2.3892099999999998
 10
0.158963
 20
2.4078200000000001
 10
0.217557
 20
2.41194
 10
0.243326
 20
2.4110299999999998
 10
0.278917
 20
2.4060299999999999
 10
0.315267
 20
2.3977400000000002
 10
0.343533
 20
2.38672
 10
0.379015
 20
2.3752800000000001
 10
0.405003
 20
2.3794400000000002
 10
0.429796
 20
2.3836300000000001
 10
0.461751
 20
2.3721299999999998
 10
0.626736
 20
2.3216700000000001
 10
0.709256
 20
2.2801100000000001
 10
0.717557
 20
2.33832
 10
0.730903
 20
2.3783099999999999
 10
0.749457
 20
2.4036900000000001
 10
0.773329
 20
2.41818
 10
0.802626
 20
2.4255100000000001
 10
0.837565
 20
2.4292500000000001
 10
0.878147
 20
2.4331700000000001
 10
0.924642
 20
2.4409200000000002
 10
0.871582
 20
2.5203500000000001
 10
0.820096
 20
2.5622199999999999
 10
0.770617
 20
2.5750799999999998
 10
0.723796
 20
2.5676000000000001
 10
0.680176
 20
2.5482900000000002
 10
0.6403
 20
2.5256699999999999
 10
0.60471
 20
2.5083600000000001
 10
0.574001
 20
2.5048300000000001
 10
0.546061
 20
2.5124300000000002
 10
0.52181
 20
2.52826
 10
0.499946
 20
2.5474700000000001
 10
0.479167
 20
2.56515
 10
0.497342
 20
2.58826
 10
0.494575
 20
2.6120299999999999
 10
0.481987
 20
2.62364
 10
0.462619
 20
2.6231499999999999
 10
0.45459
 20
2.6468600000000002
 10
0.46799
 20
2.6723599999999998
 10
0.438965
 20
2.6939000000000002
 10
0.393121
 20
2.6895099999999998
 10
0.372017
 20
2.6871299999999998
 10
0.342611
 20
2.6831700000000001
 10
0.314344
 20
2.6836500000000001
 10
0.296983
 20
2.6947199999999998
 10
0.3125
 20
2.74132
 10
0.335178
 20
2.7753899999999998
 10
0.365831
 20
2.7811400000000002
 10
0.384819
 20
2.80274
 10
0.397244
 20
2.8283999999999998
 10
0.408311
 20
2.8463099999999999
 10
0.448079
 20
2.8911699999999998
 10
0.469347
 20
2.8965999999999998
 10
0.482693
 20
2.9128799999999999
 10
0.489204
 20
2.93608
 10
0.490017
 20
2.9624000000000001
 10
0.486111
 20
2.9879600000000002
 10
0.478515
 20
3.0089000000000001
 10
0.468425
 20
3.0213800000000002
 10
0.456868
 20
3.0214300000000001
 10
0.448025
 20
3.0366200000000001
 10
0.433268
 20
3.0520800000000001
 10
0.416342
 20
3.06928
 10
0.401204
 20
3.0898500000000002
 10
0.391601
 20
3.11524
 10
0.391439
 20
3.14703
 10
0.404568
 20
3.1867899999999998
 10
0.434896
 20
3.2360000000000002
 10
0.434896
 20
3.2360000000000002
 10
0.383029
 20
3.2843499999999999
 10
0.376085
 20
3.3311099999999998
 10
0.403103
 20
3.3752200000000001
 10
0.453179
 20
3.4156399999999998
 10
0.515354
 20
3.4512200000000002
 10
0.578614
 20
3.4809600000000001
 10
0.632053
 20
3.5036900000000002
 10
0.664768
 20
3.51844
 10
0.754124
 20
3.55524
 10
0.861544
 20
3.5673900000000001
 10
0.95535
 20
3.5584899999999999
 10
1.00396
 20
3.5319600000000002
 10
1.1077999999999999
 20
3.5146000000000002
 10
1.19808
 20
3.4805299999999999
 10
1.26166
 20
3.4387500000000002
 10
1.2854300000000001
 20
3.3983300000000001
 10
1.3210200000000001
 20
3.3846500000000002
 10
1.3477699999999999
 20
3.3572099999999998
 10
1.3678399999999999
 20
3.3205300000000002
 10
1.38357
 20
3.27929
 10
1.39714
 20
3.2381700000000002
 10
1.41086
 20
3.2017600000000002
 10
1.4269700000000001
 20
3.17469
 10
1.4476899999999999
 20
3.1616200000000001
 10
1.44069
 20
3.0949399999999998
 10
1.43218
 20
3.02468
 10
1.4204600000000001
 20
2.9546899999999998
 10
1.4039699999999999
 20
2.8887800000000001
 10
1.38124
 20
2.8308300000000002
 10
1.35059
 20
2.7847200000000001
 10
1.3104899999999999
 20
2.7542399999999998
 10
1.25939
 20
2.7431700000000001
 10
1.23909
 20
2.74132
 10
1.2191799999999999
 20
2.7303600000000001
 10
1.20079
 20
2.7125699999999999
 10
1.1852199999999999
 20
2.69021
 10
1.17361
 20
2.66553
 10
1.16726
 20
2.64079
 10
1.1673199999999999
 20
2.61822
 10
1.1750799999999999
 20
2.6000399999999999
 10
1.2142999999999999
 20
2.5549599999999999
 10
1.24935
 20
2.5226199999999999
 10
1.2798400000000001
 20
2.5009700000000001
 10
1.3055000000000001
 20
2.4878999999999998
 10
1.3260099999999999
 20
2.4813299999999998
 10
1.3410899999999999
 20
2.4792800000000002
 10
1.35032
 20
2.4794900000000002
 10
1.3535200000000001
 20
2.4800300000000002
 10
1.38656
 20
2.4765600000000001
 10
1.4042399999999999
 20
2.4801899999999999
 10
1.41194
 20
2.48828
 10
1.4151
 20
2.49804
 10
1.4191100000000001
 20
2.50678
 10
1.4293100000000001
 20
2.51187
 10
1.4511700000000001
 20
2.51064
 10
1.4901800000000001
 20
2.5002200000000001
 10
1.5821400000000001
 20
2.53674
 10
1.6585799999999999
 20
2.5389599999999999
 10
1.7198899999999999
 20
2.5077600000000002
 10
1.76633
 20
2.4439000000000002
 10
1.7982899999999999
 20
2.3482500000000002
 10
1.8161400000000001
 20
2.2216800000000001
 10
1.8201499999999999
 20
2.06494
 10
1.8107599999999999
 20
1.8789
 10
1.8138099999999999
 20
1.78396
 10
1.80647
 20
1.6852799999999999
 10
1.81114
 20
1.58931
 10
1.85032
 20
1.5022800000000001
 10
1.8103899999999999
 20
1.51389
 10
1.77485
 20
1.52214
 10
1.7464200000000001
 20
1.5233300000000001
 10
1.7276
 20
1.5137799999999999
 10
1.7510300000000001
 20
1.4111800000000001
 10
1.7630699999999999
 20
1.30718
 10
1.76942
 20
1.2022600000000001
 10
1.77582
 20
1.09684
 10
1.7879700000000001
 20
0.991482
 10
1.8115300000000001
 20
0.886556
 10
1.8522099999999999
 20
0.7825530000000001
 10
1.91581
 20
0.679904
 10
1.90744
 20
0.670953
 10
1.88846
 20
0.661947
 10
1.8636699999999999
 20
0.653321
 10
1.8376300000000001
 20
0.645562
 10
1.81515
 20
0.63916
 10
1.80094
 20
0.634603
 10
1.79969
 20
0.632378
 10
1.81619
 20
0.632921
 10
1.7860799999999999
 20
0.654731
 10
1.75651
 20
0.6722
 10
1.7190700000000001
 20
0.680447
 10
1.6654199999999999
 20
0.674696
 10
1.6326499999999999
 20
0.655544
 10
1.61328
 20
0.642199
 10
1.5925
 20
0.636014
 10
1.5555000000000001
 20
0.6382370000000001
 10
1.4761200000000001
 20
0.639432
 10
1.3968100000000001
 20
0.669108
 10
1.3821600000000001
 20
0.65625
 10
1.3674599999999999
 20
0.647407
 10
1.35395
 20
0.638943
 10
1.3428800000000001
 20
0.627225
 10
1.3354999999999999
 20
0.608507
 10
1.3330599999999999
 20
0.579156
 10
1.3368100000000001
 20
0.535536
 10
1.3480399999999999
 20
0.473904
 10
1.42014
 20
0.41059
 10
1.4330000000000001
 20
0.406629
 10
1.43658
 20
0.397026
 10
1.4399999999999999
 20
0.382107
 10
1.45242
 20
0.361979
 10
1.4885600000000001
 20
0.26671
 10
1.43946
 20
0.110297
 10
1.35802
 20
0.0940212
 10
1.2842899999999999
 20
0.156304
 10
1.2348600000000001
 20
0.14209
 10
1.2321
 20
0.0883247
 10
1.0524100000000001
 20
0.0405817
 10
1.01877
 20
0.0394422
 10
0.9963109999999999
 20
0.0337457
 10
0.981282
 20
0.0255533
 10
0.9701070000000001
 20
0.0170356
 10
0.959147
 20
0.0101454
 10
0.944715
 20
0.00705294
 10
0.9232860000000001
 20
0.00976563
 10
0.891222
 20
0.0203993
 10
0.768392
 20
0.0828993
 10
0.759928
 20
0.131293
 10
0.766058
 20
0.139322
 10
0.7680129999999999
 20
0.143012
 10
0.778971
 20
0.149414
 10
0.812011
 20
0.165474
 10
0.803657
 20
0.177029
 10
0.727701
 20
0.178711
 10
0.644965
 20
0.181207
 10
0.5638030000000001
 20
0.190701
 10
0.492567
 20
0.213379
 10
0.474392
 20
0.227322
 10
0.456381
 20
0.24094
 10
0.439507
 20
0.252333
 10
0.42475
 20
0.259657
 10
0.413086
 20
0.261068
 10
0.405436
 20
0.254665
 10
0.402778
 20
0.238553
 10
0.406142
 20
0.210883
 10
0.38406
 20
0.192979
 10
0.355251
 20
0.17985
 10
0.320964
 20
0.177681
 10
0.282607
 20
0.192438
 10
0.0110677
 20
2.0338099999999999
 10
0.00710721
 20
2.1188199999999999
 10
0.0104167
 20
2.19943
 10
0.0297851
 20
2.2776700000000001
 10
0.074056
 20
2.3555299999999999
 10
0.0863715
 20
2.3678900000000001
 10
0.114963
 20
2.3892099999999998
 10
0.158963
 20
2.4078200000000001
 10
0.217557
 20
2.41194
 10
0.243326
 20
2.4110299999999998
 10
0.278917
 20
2.4060299999999999
 10
0.315267
 20
2.3977400000000002
 10
0.343533
 20
2.38672
 10
0.379015
 20
2.3752800000000001
  0
ENDSEC
  0
SECTION
  2
OBJECTS
  0
DICTIONARY
  5
C
100
AcDbDictionary
280
0
281
1
  3
ACAD_GROUP
350
D
  3
ACAD_LAYOUT
350
1A
  3
ACAD_MLINESTYLE
350
17
  3
ACAD_PLOTSETTINGS
350
19
  3
ACAD_PLOTSTYLENAME
350
E
  3
AcDbVariableDictionary
350
44
  0
DICTIONARY
  5
D
100
AcDbDictionary
280
0
281
1
  0
ACDBDICTIONARYWDFLT
  5
E
100
AcDbDictionary
281
1
  3
Normal
350
F
100
AcDbDictionaryWithDefault
340
F
  0
ACDBPLACEHOLDER
  5
F
  0
DICTIONARY
  5
17
100
AcDbDictionary
280
0
281
1
  3
Standard
350
18
  0
MLINESTYLE
  5
18
100
AcDbMlineStyle
  2
STANDARD
 70
0
  3

 62
256
 51
90.0
 52
90.0
 71
2
 49
0.5
 62
256
  6
BYLAYER
 49
-0.5
 62
256
  6
BYLAYER
  0
DICTIONARY
  5
19
100
AcDbDictionary
280
0
281
1
  0
DICTIONARY
  5
1A
100
AcDbDictionary
281
1
  3
Layout1
350
1E
  3
Layout2
350
26
  3
Model
350
22
  0
LAYOUT
  5
1E
100
AcDbPlotSettings
  1

  2
C:\Program Files\AutoCAD 2002\plotters\DWF ePlot (optimized for plotting).pc3
  4

  6

 40
0.0
 41
0.0
 42
0.0
 43
0.0
 44
0.0
 45
0.0
 46
0.0
 47
0.0
 48
0.0
 49
0.0
140
0.0
141
0.0
142
1.0
143
1.0
 70
688
 72
0
 73
0
 74
5
  7

 75
16
147
1.0
148
0.0
149
0.0
100
AcDbLayout
  1
Layout1
 70
1
 71
1
 10
0.0
 20
0.0
 11
420.0
 21
297.0
 12
0.0
 22
0.0
 32
0.0
 14
100000000000000000000.0
 24
100000000000000000000.0
 34
100000000000000000000.0
 15
-100000000000000000000.0
 25
-100000000000000000000.0
 35
-100000000000000000000.0
146
0.0
 13
0.0
 23
0.0
 33
0.0
 16
1.0
 26
0.0
 36
0.0
 17
0.0
 27
1.0
 37
0.0
 76
0
330
1B
  0
LAYOUT
  5
22
100
AcDbPlotSettings
  1

  2
C:\Program Files\AutoCAD 2002\plotters\DWF ePlot (optimized for plotting).pc3
  4

  6

 40
0.0
 41
0.0
 42
0.0
 43
0.0
 44
0.0
 45
0.0
 46
0.0
 47
0.0
 48
0.0
 49
0.0
140
0.0
141
0.0
142
1.0
143
1.0
 70
1712
 72
0
 73
0
 74
0
  7

 75
0
147
1.0
148
0.0
149
0.0
100
AcDbLayout
  1
Model
 70
1
 71
0
 10
0.0
 20
0.0
 11
12.0
 21
9.0
 12
0.0
 22
0.0
 32
0.0
 14
0.0
 24
0.0
 34
0.0
 15
0.0
 25
0.0
 35
0.0
146
0.0
 13
0.0
 23
0.0
 33
0.0
 16
1.0
 26
0.0
 36
0.0
 17
0.0
 27
1.0
 37
0.0
 76
0
330
1F
  0
LAYOUT
  5
26
100
AcDbPlotSettings
  1

  2
C:\Program Files\AutoCAD 2002\plotters\DWF ePlot (optimized for plotting).pc3
  4

  6

 40
0.0
 41
0.0
 42
0.0
 43
0.0
 44
0.0
 45
0.0
 46
0.0
 47
0.0
 48
0.0
 49
0.0
140
0.0
141
0.0
142
1.0
143
1.0
 70
688
 72
0
 73
0
 74
5
  7

 75
16
147
1.0
148
0.0
149
0.0
100
AcDbLayout
  1
Layout2
 70
1
 71
2
 10
0.0
 20
0.0
 11
12.0
 21
9.0
 12
0.0
 22
0.0
 32
0.0
 14
0.0
 24
0.0
 34
0.0
 15
0.0
 25
0.0
 35
0.0
146
0.0
 13
0.0
 23
0.0
 33
0.0
 16
1.0
 26
0.0
 36
0.0
 17
0.0
 27
1.0
 37
0.0
 76
0
330
23
  0
DICTIONARY
  5
44
100
AcDbDictionary
281
1
  3
DIMASSOC
350
46
  3
HIDETEXT
350
45
  0
DICTIONARYVAR
  5
45
100
DictionaryVariables
280
0
  1
2
  0
DICTIONARYVAR
  5
46
100
DictionaryVariables
280
0
  1
1
  0
ENDSEC
  0
EOF
