999
dxflib 2.2.0.0
  0
SECTION
  2
HEADER
  9
$ACADVER
  1
AC1015
  9
$HANDSEED
  5
FFFF
  9
$DIMASZ
 40
2.5
  9
$FILLMODE
 70
0
  9
$PLIMMIN
 10
0.0
 20
0.0
  9
$DIMEXE
 40
1.25
  9
$DIMGAP
 40
0.625
  9
$PLIMMAX
 10
210.0
 20
297.0
  9
$EXTMIN
 10
0.0
 20
0.0
 30
0.0
  9
$EXTMAX
 10
1000.0
 20
1000.0
 30
0.0
  9
$SPLFRAME
 70
1
  9
$INSUNITS
 70
4
  9
$DIMSTYLE
  2
Standard
  9
$DIMEXO
 40
0.625
  9
$DIMTXT
 40
2.5
  9
$CLAYER
  8
0
  0
ENDSEC
  0
SECTION
  2
TABLES
  0
TABLE
  2
VPORT
  5
8
100
AcDbSymbolTable
 70
1
  0
VPORT
  5
30
100
AcDbSymbolTableRecord
100
AcDbViewportTableRecord
  2
*Active
 70
0
 10
0.0
 20
0.0
 11
1.0
 21
1.0
 12
286.3055555555554861
 22
148.5
 13
0.0
 23
0.0
 14
10.0
 24
10.0
 15
10.0
 25
10.0
 16
0.0
 26
0.0
 36
1.0
 17
0.0
 27
0.0
 37
0.0
 40
297.0
 41
1.92798353909465
 42
50.0
 43
0.0
 44
0.0
 50
0.0
 51
0.0
 71
0
 72
100
 73
1
 74
3
 75
1
 76
1
 77
0
 78
0
281
0
 65
1
110
0.0
120
0.0
130
0.0
111
1.0
121
0.0
131
0.0
112
0.0
122
1.0
132
0.0
 79
0
146
0.0
  0
ENDTAB
  0
TABLE
  2
LTYPE
  5
5
100
AcDbSymbolTable
 70
21
  0
LTYPE
  5
14
100
AcDbSymbolTableRecord
100
AcDbLinetypeTableRecord
  2
ByBlock
 70
0
  3

 72
65
 73
0
 40
0.0
  0
LTYPE
  5
15
100
AcDbSymbolTableRecord
100
AcDbLinetypeTableRecord
  2
ByLayer
 70
0
  3

 72
65
 73
0
 40
0.0
  0
LTYPE
  5
16
100
AcDbSymbolTableRecord
100
AcDbLinetypeTableRecord
  2
CONTINUOUS
 70
0
  3
Solid line
 72
65
 73
0
 40
0.0
  0
LTYPE
  5
31
100
AcDbSymbolTableRecord
100
AcDbLinetypeTableRecord
  2
DOT
 70
0
  3
Dot . . . . . . . . . . . . . . . . . . . . . .
 72
65
 73
2
 40
6.3499999999999996
 49
0.0
 74
0
 49
-6.3499999999999996
 74
0
  0
LTYPE
  5
32
100
AcDbSymbolTableRecord
100
AcDbLinetypeTableRecord
  2
DOT2
 70
0
  3
Dot (.5x) .....................................
 72
65
 73
2
 40
3.1749999999999998
 49
0.0
 74
0
 49
-3.1749999999999998
 74
0
  0
LTYPE
  5
33
100
AcDbSymbolTableRecord
100
AcDbLinetypeTableRecord
  2
DOTX2
 70
0
  3
Dot (2x) .  .  .  .  .  .  .  .  .  .  .  .  .
 72
65
 73
2
 40
12.6999999999999993
 49
0.0
 74
0
 49
-12.6999999999999993
 74
0
  0
LTYPE
  5
34
100
AcDbSymbolTableRecord
100
AcDbLinetypeTableRecord
  2
DASHED
 70
0
  3
Dashed __ __ __ __ __ __ __ __ __ __ __ __ __ _
 72
65
 73
2
 40
19.0500000000000007
 49
12.6999999999999993
 74
0
 49
-6.3499999999999996
 74
0
  0
LTYPE
  5
35
100
AcDbSymbolTableRecord
100
AcDbLinetypeTableRecord
  2
DASHED2
 70
0
  3
Dashed (.5x) _ _ _ _ _ _ _ _ _ _ _ _ _ _ _ _ _
 72
65
 73
2
 40
9.5250000000000004
 49
6.3499999999999996
 74
0
 49
-3.1749999999999998
 74
0
  0
LTYPE
  5
36
100
AcDbSymbolTableRecord
100
AcDbLinetypeTableRecord
  2
DASHEDX2
 70
0
  3
Dashed (2x) ____  ____  ____  ____  ____  ___
 72
65
 73
2
 40
38.1000000000000014
 49
25.3999999999999986
 74
0
 49
-12.6999999999999993
 74
0
  0
LTYPE
  5
37
100
AcDbSymbolTableRecord
100
AcDbLinetypeTableRecord
  2
DASHDOT
 70
0
  3
Dash dot __ . __ . __ . __ . __ . __ . __ . __
 72
65
 73
4
 40
25.3999999999999986
 49
12.6999999999999993
 74
0
 49
-6.3499999999999996
 74
0
 49
0.0
 74
0
 49
-6.3499999999999996
 74
0
  0
LTYPE
  5
38
100
AcDbSymbolTableRecord
100
AcDbLinetypeTableRecord
  2
DASHDOT2
 70
0
  3
Dash dot (.5x) _._._._._._._._._._._._._._._.
 72
65
 73
4
 40
12.6999999999999993
 49
6.3499999999999996
 74
0
 49
-3.1749999999999998
 74
0
 49
0.0
 74
0
 49
-3.1749999999999998
 74
0
  0
LTYPE
  5
39
100
AcDbSymbolTableRecord
100
AcDbLinetypeTableRecord
  2
DASHDOTX2
 70
0
  3
Dash dot (2x) ____  .  ____  .  ____  .  ___
 72
65
 73
4
 40
50.7999999999999972
 49
25.3999999999999986
 74
0
 49
-12.6999999999999993
 74
0
 49
0.0
 74
0
 49
-12.6999999999999993
 74
0
  0
LTYPE
  5
3A
100
AcDbSymbolTableRecord
100
AcDbLinetypeTableRecord
  2
DIVIDE
 70
0
  3
Divide ____ . . ____ . . ____ . . ____ . . ____
 72
65
 73
6
 40
31.75
 49
12.6999999999999993
 74
0
 49
-6.3499999999999996
 74
0
 49
0.0
 74
0
 49
-6.3499999999999996
 74
0
 49
0.0
 74
0
 49
-6.3499999999999996
 74
0
  0
LTYPE
  5
3B
100
AcDbSymbolTableRecord
100
AcDbLinetypeTableRecord
  2
DIVIDE2
 70
0
  3
Divide (.5x) __..__..__..__..__..__..__..__.._
 72
65
 73
6
 40
15.875
 49
6.3499999999999996
 74
0
 49
-3.1749999999999998
 74
0
 49
0.0
 74
0
 49
-3.1749999999999998
 74
0
 49
0.0
 74
0
 49
-3.1749999999999998
 74
0
  0
LTYPE
  5
3C
100
AcDbSymbolTableRecord
100
AcDbLinetypeTableRecord
  2
DIVIDEX2
 70
0
  3
Divide (2x) ________  .  .  ________  .  .  _
 72
65
 73
6
 40
63.5
 49
25.3999999999999986
 74
0
 49
-12.6999999999999993
 74
0
 49
0.0
 74
0
 49
-12.6999999999999993
 74
0
 49
0.0
 74
0
 49
-12.6999999999999993
 74
0
  0
LTYPE
  5
3D
100
AcDbSymbolTableRecord
100
AcDbLinetypeTableRecord
  2
CENTER
 70
0
  3
Center ____ _ ____ _ ____ _ ____ _ ____ _ ____
 72
65
 73
4
 40
50.7999999999999972
 49
31.75
 74
0
 49
-6.3499999999999996
 74
0
 49
6.3499999999999996
 74
0
 49
-6.3499999999999996
 74
0
  0
LTYPE
  5
3E
100
AcDbSymbolTableRecord
100
AcDbLinetypeTableRecord
  2
CENTER2
 70
0
  3
Center (.5x) ___ _ ___ _ ___ _ ___ _ ___ _ ___
 72
65
 73
4
 40
28.5749999999999993
 49
19.0500000000000007
 74
0
 49
-3.1749999999999998
 74
0
 49
3.1749999999999998
 74
0
 49
-3.1749999999999998
 74
0
  0
LTYPE
  5
3F
100
AcDbSymbolTableRecord
100
AcDbLinetypeTableRecord
  2
CENTERX2
 70
0
  3
Center (2x) ________  __  ________  __  _____
 72
65
 73
4
 40
101.5999999999999943
 49
63.5
 74
0
 49
-12.6999999999999993
 74
0
 49
12.6999999999999993
 74
0
 49
-12.6999999999999993
 74
0
  0
LTYPE
  5
40
100
AcDbSymbolTableRecord
100
AcDbLinetypeTableRecord
  2
BORDER
 70
0
  3
Border __ __ . __ __ . __ __ . __ __ . __ __ .
 72
65
 73
6
 40
44.4500000000000028
 49
12.6999999999999993
 74
0
 49
-6.3499999999999996
 74
0
 49
12.6999999999999993
 74
0
 49
-6.3499999999999996
 74
0
 49
0.0
 74
0
 49
-6.3499999999999996
 74
0
  0
LTYPE
  5
41
100
AcDbSymbolTableRecord
100
AcDbLinetypeTableRecord
  2
BORDER2
 70
0
  3
Border (.5x) __.__.__.__.__.__.__.__.__.__.__.
 72
65
 73
6
 40
22.2250000000000014
 49
6.3499999999999996
 74
0
 49
-3.1749999999999998
 74
0
 49
6.3499999999999996
 74
0
 49
-3.1749999999999998
 74
0
 49
0.0
 74
0
 49
-3.1749999999999998
 74
0
  0
LTYPE
  5
42
100
AcDbSymbolTableRecord
100
AcDbLinetypeTableRecord
  2
BORDERX2
 70
0
  3
Border (2x) ____  ____  .  ____  ____  .  ___
 72
65
 73
6
 40
88.9000000000000057
 49
25.3999999999999986
 74
0
 49
-12.6999999999999993
 74
0
 49
25.3999999999999986
 74
0
 49
-12.6999999999999993
 74
0
 49
0.0
 74
0
 49
-12.6999999999999993
 74
0
  0
ENDTAB
  0
TABLE
  2
LAYER
  5
2
100
AcDbSymbolTable
 70
1
  0
LAYER
  5
10
100
AcDbSymbolTableRecord
100
AcDbLayerTableRecord
  2
0
 70
0
 62
7
420
16777215
  6
CONTINUOUS
390
F
  0
ENDTAB
  0
TABLE
  2
STYLE
  5
3
100
AcDbSymbolTable
 70
1
  0
STYLE
  5
11
100
AcDbSymbolTableRecord
100
AcDbTextStyleTableRecord
  2
Standard
 70
0
 40
0.0
 41
0.75
 50
0.0
 71
0
 42
2.5
  3
txt
  4

  0
ENDTAB
  0
TABLE
  2
VIEW
  5
6
100
AcDbSymbolTable
 70
0
  0
ENDTAB
  0
TABLE
  2
UCS
  5
7
100
AcDbSymbolTable
 70
0
  0
ENDTAB
  0
TABLE
  2
APPID
  5
9
100
AcDbSymbolTable
 70
1
  0
APPID
  5
12
100
AcDbSymbolTableRecord
100
AcDbRegAppTableRecord
  2
ACAD
 70
0
  0
ENDTAB
  0
TABLE
  2
DIMSTYLE
  5
A
100
AcDbSymbolTable
 70
1
100
AcDbDimStyleTable
 71
0
  0
DIMSTYLE
105
27
100
AcDbSymbolTableRecord
100
AcDbDimStyleTableRecord
  2
Standard
 41
2.5
 42
0.625
 43
3.75
 44
1.25
 70
0
 73
0
 74
0
 77
1
 78
8
140
2.5
141
2.5
143
0.03937007874016
147
0.625
171
3
172
1
271
2
272
2
274
3
278
44
283
0
284
8
340
11
  0
ENDTAB
  0
TABLE
  2
BLOCK_RECORD
  5
1
100
AcDbSymbolTable
 70
1
  0
BLOCK_RECORD
  5
1F
100
AcDbSymbolTableRecord
100
AcDbBlockTableRecord
  2
*Model_Space
340
22
  0
BLOCK_RECORD
  5
1B
100
AcDbSymbolTableRecord
100
AcDbBlockTableRecord
  2
*Paper_Space
340
1E
  0
BLOCK_RECORD
  5
23
100
AcDbSymbolTableRecord
100
AcDbBlockTableRecord
  2
*Paper_Space0
340
26
  0
ENDTAB
  0
ENDSEC
  0
SECTION
  2
BLOCKS
  0
BLOCK
  5
20
100
AcDbEntity
  8
0
100
AcDbBlockBegin
  2
*Model_Space
 70
0
 10
0.0
 20
0.0
 30
0.0
  3
*Model_Space
  1

  0
ENDBLK
  5
21
100
AcDbEntity
  8
0
100
AcDbBlockEnd
  0
BLOCK
  5
1C
100
AcDbEntity
 67
1
  8
0
100
AcDbBlockBegin
  2
*Paper_Space
 70
0
 10
0.0
 20
0.0
 30
0.0
  3
*Paper_Space
  1

  0
ENDBLK
  5
1D
100
AcDbEntity
 67
1
  8
0
100
AcDbBlockEnd
  0
BLOCK
  5
24
100
AcDbEntity
  8
0
100
AcDbBlockBegin
  2
*Paper_Space0
 70
0
 10
0.0
 20
0.0
 30
0.0
  3
*Paper_Space0
  1

  0
ENDBLK
  5
25
100
AcDbEntity
  8
0
100
AcDbBlockEnd
  0
ENDSEC
  0
SECTION
  2
ENTITIES
  0
LWPOLYLINE
  5
43
  8
0
 62
0
370
-1
  6
ByLayer
100
AcDbEntity
100
AcDbPolyline
 90
595
 70
0
 10
2.5048300000000001
 20
2.5070000000000001
 10
2.56196
 20
2.42361
 10
2.6257100000000002
 20
2.34179
 10
2.6933099999999999
 20
2.2667600000000001
 10
2.7483200000000001
 20
2.2121200000000001
 10
2.7950300000000001
 20
2.1703600000000001
 10
2.8365800000000001
 20
2.14019
 10
2.8763100000000001
 20
2.1204999999999998
 10
2.9173200000000001
 20
2.11008
 10
2.9630000000000001
 20
2.10764
 10
3.0165000000000002
 20
2.1120299999999999
 10
3.0811700000000002
 20
2.12201
 10
3.1378599999999999
 20
2.1310799999999999
 10
3.1840299999999999
 20
2.1362800000000002
 10
3.2206000000000001
 20
2.1375299999999999
 10
3.2484899999999999
 20
2.1346500000000002
 10
3.2685599999999999
 20
2.1273300000000002
 10
3.2817400000000001
 20
2.1154999999999999
 10
3.2890100000000002
 20
2.0988500000000001
 10
3.2912400000000002
 20
2.0772499999999998
 10
3.27474
 20
2.02197
 10
3.2289400000000001
 20
1.97868
 10
3.1594000000000002
 20
1.94797
 10
3.0715599999999998
 20
1.9305000000000001
 10
2.97092
 20
1.92686
 10
2.8630100000000001
 20
1.93767
 10
2.7533599999999998
 20
1.9635400000000001
 10
2.6474000000000002
 20
2.0051000000000001
 10
2.4885000000000002
 20
2.0821900000000002
 10
2.5315699999999999
 20
1.79531
 10
2.5545300000000002
 20
1.60992
 10
2.5696099999999999
 20
1.4171499999999999
 10
2.5768800000000001
 20
1.22342
 10
2.5764999999999998
 20
1.0348299999999999
 10
2.5685799999999999
 20
0.857747
 10
2.5533299999999999
 20
0.69846
 10
2.5308199999999998
 20
0.563151
 10
2.5013100000000001
 20
0.458117
 10
2.4731399999999999
 20
0.384114
 10
2.45404
 20
0.329156
 10
2.4460099999999998
 20
0.289117
 10
2.4509599999999998
 20
0.259819
 10
2.47092
 20
0.237142
 10
2.5079199999999999
 20
0.21696
 10
2.56386
 20
0.19515
 10
2.6408499999999999
 20
0.167426
 10
2.6699199999999998
 20
0.153049
 10
2.6913499999999999
 20
0.134549
 10
2.7050299999999998
 20
0.11339
 10
2.7108300000000001
 20
0.0910374
 10
2.7086100000000002
 20
0.0688476
 10
2.6982900000000001
 20
0.0481771
 10
2.6797399999999998
 20
0.0304904
 10
2.6528900000000002
 20
0.0171983
 10
2.6150699999999998
 20
0.0106337
 10
2.5567500000000001
 20
0.00797526
 10
2.48583
 20
0.0093316
 10
2.4102600000000001
 20
0.0147026
 10
2.4102600000000001
 20
0.0147026
 10
2.2278600000000002
 20
0.0328233
 10
2.2552599999999998
 20
0.373156
 10
2.2692100000000002
 20
0.512315
 10
2.2870599999999999
 20
0.639486
 10
2.30647
 20
0.740722
 10
2.3251900000000001
 20
0.801812
 10
2.3370799999999998
 20
0.840711
 10
2.34022
 20
0.885688
 10
2.33561
 20
0.933322
 10
2.32437
 20
0.980035
 10
2.3075700000000001
 20
1.02241
 10
2.2862900000000002
 20
1.0570200000000001
 10
2.26172
 20
1.08029
 10
2.2348599999999998
 20
1.0888100000000001
 10
2.2166899999999998
 20
1.0788800000000001
 10
2.1976900000000001
 20
1.05176
 10
2.18018
 20
1.01166
 10
2.16635
 20
0.962674
 10
2.1397499999999998
 20
0.8944220000000001
 10
2.0876299999999999
 20
0.801758
 10
2.01736
 20
0.696832
 10
1.9366399999999999
 20
0.591851
 10
1.8787499999999999
 20
0.520562
 10
1.8341000000000001
 20
0.461751
 10
1.8017099999999999
 20
0.41314
 10
1.7806
 20
0.372504
 10
1.76986
 20
0.337457
 10
1.7685
 20
0.305718
 10
1.77556
 20
0.275065
 10
1.7900400000000001
 20
0.243164
 10
1.8117399999999999
 20
0.200575
 10
1.8294900000000001
 20
0.16135
 10
1.8414699999999999
 20
0.129883
 10
1.84592
 20
0.110514
 10
1.81793
 20
0.0800781
 10
1.7463599999999999
 20
0.0889214
 10
1.64985
 20
0.131402
 10
1.54704
 20
0.201768
 10
1.4019200000000001
 20
0.321832
 10
1.55165
 20
0.484375
 10
1.60975
 20
0.553874
 10
1.6573899999999999
 20
0.622831
 10
1.6896100000000001
 20
0.683376
 10
1.7014400000000001
 20
0.727485
 10
1.7090399999999999
 20
0.7643219999999999
 10
1.7297100000000001
 20
0.804958
 10
1.76031
 20
0.84451
 10
1.79775
 20
0.877983
 10
1.8696299999999999
 20
0.9506829999999999
 10
1.8892100000000001
 20
1.02295
 10
1.8571
 20
1.08941
 10
1.7737099999999999
 20
1.1447499999999999
 10
1.7257499999999999
 20
1.16753
 10
1.69119
 20
1.1902699999999999
 10
1.6697599999999999
 20
1.21712
 10
1.6612899999999999
 20
1.2523299999999999
 10
1.6655800000000001
 20
1.30002
 10
1.68235
 20
1.3643099999999999
 10
1.71149
 20
1.44943
 10
1.75271
 20
1.5593999999999999
 10
1.78993
 20
1.6705700000000001
 10
1.81776
 20
1.78017
 10
1.83361
 20
1.8755999999999999
 10
1.8346899999999999
 20
1.94417
 10
1.82829
 20
1.97342
 10
1.8188500000000001
 20
1.9876799999999999
 10
1.8056700000000001
 20
1.9860599999999999
 10
1.78803
 20
1.9675
 10
1.7651399999999999
 20
1.9310400000000001
 10
1.7363299999999999
 20
1.87565
 10
1.70085
 20
1.8004
 10
1.6579900000000001
 20
1.70421
 10
1.609
 20
1.5953200000000001
 10
1.5658099999999999
 20
1.5076000000000001
 10
1.52528
 20
1.4371799999999999
 10
1.4843200000000001
 20
1.3803700000000001
 10
1.4398299999999999
 20
1.3333900000000001
 10
1.3886700000000001
 20
1.29243
 10
1.3278000000000001
 20
1.2538
 10
1.25407
 20
1.2136499999999999
 10
1.14279
 20
1.1609700000000001
 10
1.05745
 20
1.1318900000000001
 10
0.996961
 20
1.12625
 10
0.960394
 20
1.1437200000000001
 10
0.913954
 20
1.1835899999999999
 10
0.876899
 20
1.1895100000000001
 10
0.850315
 20
1.16764
 10
0.835232
 20
1.12419
 10
0.832682
 20
1.0654300000000001
 10
0.843858
 20
0.9974499999999999
 10
0.869683
 20
0.92654
 10
0.91135
 20
0.858832
 10
0.938206
 20
0.810981
 10
0.959799
 20
0.7462029999999999
 10
0.97564
 20
0.670031
 10
0.985406
 20
0.587782
 10
0.988607
 20
0.504829
 10
0.984808
 20
0.42654
 10
0.973633
 20
0.358344
 10
0.954644
 20
0.305501
 10
0.94846
 20
0.277453
 10
0.958931
 20
0.250976
 10
0.984592
 20
0.228082
 10
1.0240899999999999
 20
0.210721
 10
1.07308
 20
0.190213
 10
1.10178
 20
0.165907
 10
1.11127
 20
0.13954
 10
1.1027
 20
0.112793
 10
1.0771500000000001
 20
0.0873481
 10
1.0357499999999999
 20
0.0649957
 10
0.9796
 20
0.047309
 10
0.9098850000000001
 20
0.0360786
 10
0.727974
 20
0.0183919
 10
0.760363
 20
0.291775
 10
0.772569
 20
0.428222
 10
0.77029
 20
0.523926
 10
0.752061
 20
0.590278
 10
0.716525
 20
0.638564
 10
0.693739
 20
0.658475
 10
0.6731780000000001
 20
0.671169
 10
0.653592
 20
0.676161
 10
0.633789
 20
0.673122
 10
0.612522
 20
0.661512
 10
0.588596
 20
0.64095
 10
0.560818
 20
0.611057
 10
0.528049
 20
0.571289
 10
0.476183
 20
0.513618
 10
0.418132
 20
0.460667
 10
0.360949
 20
0.41824
 10
0.31174
 20
0.392199
 10
0.262424
 20
0.367296
 10
0.235243
 20
0.333767
 10
0.227647
 20
0.285915
 10
0.237196
 20
0.217828
 10
0.244358
 20
0.159017
 10
0.238499
 20
0.116428
 10
0.221789
 20
0.0901693
 10
0.196235
 20
0.0802951
 10
0.164117
 20
0.0870225
 10
0.12755
 20
0.110406
 10
0.0886501
 20
0.150553
 10
0.0496419
 20
0.207628
 10
0.0270725
 20
0.248156
 10
0.0127496
 20
0.282172
 10
0.007704
 20
0.312933
 10
0.0129666
 20
0.343588
 10
0.0297308
 20
0.377387
 10
0.0590821
 20
0.417481
 10
0.102051
 20
0.467068
 10
0.159776
 20
0.529351
 10
0.304363
 20
0.725151
 10
0.371528
 20
0.920953
 10
0.399414
 20
1.1167499999999999
 10
0.316624
 20
0.96289
 10
0.277724
 20
0.903211
 10
0.233128
 20
0.854275
 10
0.188206
 20
0.821235
 10
0.148654
 20
0.809082
 10
0.114475
 20
0.812446
 10
0.0894097
 20
0.822103
 10
0.0734592
 20
0.837349
 10
0.0666233
 20
0.857476
 10
0.0691189
 20
0.88189
 10
0.0808376
 20
0.9098850000000001
 10
0.101997
 20
0.94081
 10
0.132596
 20
0.973904
 10
0.161729
 20
1.0120400000000001
 10
0.19005
 20
1.06657
 10
0.214247
 20
1.1302099999999999
 10
0.231119
 20
1.19564
 10
0.253093
 20
1.27067
 10
0.291396
 20
1.3602399999999999
 10
0.340494
 20
1.4531799999999999
 10
0.395182
 20
1.5381400000000001
 10
0.463433
 20
1.6409
 10
0.497233
 20
1.7194
 10
0.5013030000000001
 20
1.7923199999999999
 10
0.480251
 20
1.87819
 10
0.460124
 20
1.9546399999999999
 10
0.455458
 20
2.0167600000000001
 10
0.466581
 20
2.0698799999999999
 10
0.493815
 20
2.11931
 10
0.577094
 20
2.1826699999999999
 10
0.688422
 20
2.20486
 10
0.7994250000000001
 20
2.1856499999999999
 10
0.88189
 20
2.1245099999999999
 10
0.900933
 20
2.0835599999999999
 10
0.911512
 20
2.0295700000000001
 10
0.914279
 20
1.96733
 10
0.909722
 20
1.9017500000000001
 10
0.898438
 20
1.83751
 10
0.881022
 20
1.7795099999999999
 10
0.858128
 20
1.7325299999999999
 10
0.830294
 20
1.70139
 10
0.824219
 20
1.6765399999999999
 10
0.840657
 20
1.63232
 10
0.8763570000000001
 20
1.57514
 10
0.928168
 20
1.5110699999999999
 10
1.00884
 20
1.42763
 10
1.06999
 20
1.3886700000000001
 10
1.13053
 20
1.3880699999999999
 10
1.2095800000000001
 20
1.4196
 10
1.24962
 20
1.4426000000000001
 10
1.2856399999999999
 20
1.4724999999999999
 10
1.31928
 20
1.5119899999999999
 10
1.3520000000000001
 20
1.5640099999999999
 10
1.38531
 20
1.6312899999999999
 10
1.4209000000000001
 20
1.7166399999999999
 10
1.46018
 20
1.82281
 10
1.5048299999999999
 20
1.95269
 10
1.5848500000000001
 20
2.1726399999999999
 10
1.6636200000000001
 20
2.3486799999999999
 10
1.7439199999999999
 20
2.4863300000000002
 10
1.8284
 20
2.5909300000000002
 10
1.91428
 20
2.6852200000000002
 10
1.9573100000000001
 20
2.7538999999999998
 10
1.9640299999999999
 20
2.8140100000000001
 10
1.94086
 20
2.8822199999999998
 10
1.9130799999999999
 20
2.9997199999999999
 10
1.9176899999999999
 20
3.1353599999999999
 10
1.9501900000000001
 20
3.2586300000000001
 10
2.0063499999999999
 20
3.3391899999999999
 10
2.0998700000000001
 20
3.3740299999999999
 10
2.22418
 20
3.3791199999999999
 10
2.3490700000000002
 20
3.3566099999999999
 10
2.4446099999999999
 20
3.3085399999999998
 10
2.4867599999999999
 20
3.2618299999999998
 10
2.5081899999999999
 20
3.20356
 10
2.51112
 20
3.1208200000000001
 10
2.4977800000000001
 20
3.0008599999999999
 10
2.4809600000000001
 20
2.9101499999999998
 10
2.4604400000000002
 20
2.8358300000000001
 10
2.4387500000000002
 20
2.7855799999999999
 10
2.4185699999999999
 20
2.7671399999999999
 10
2.39974
 20
2.7533099999999999
 10
2.4018600000000001
 20
2.7151700000000001
 10
2.4219300000000001
 20
2.6579899999999999
 10
2.4572500000000002
 20
2.5868600000000002
 10
2.5048300000000001
 20
2.5070000000000001
 10
2.56196
 20
2.42361
 10
2.6257100000000002
 20
2.34179
 10
2.6933099999999999
 20
2.2667600000000001
 10
2.7483200000000001
 20
2.2121200000000001
 10
2.7950300000000001
 20
2.1703600000000001
 10
2.8365800000000001
 20
2.14019
 10
2.8763100000000001
 20
2.1204999999999998
 10
2.9173200000000001
 20
2.11008
 10
2.9630000000000001
 20
2.10764
 10
3.0165000000000002
 20
2.1120299999999999
 10
3.0811700000000002
 20
2.12201
 10
3.1378599999999999
 20
2.1310799999999999
 10
3.1840299999999999
 20
2.1362800000000002
 10
3.2206000000000001
 20
2.1375299999999999
 10
3.2484899999999999
 20
2.1346500000000002
 10
3.2685599999999999
 20
2.1273300000000002
 10
3.2817400000000001
 20
2.1154999999999999
 10
3.2890100000000002
 20
2.0988500000000001
 10
3.2912400000000002
 20
2.0772499999999998
 10
3.27474
 20
2.02197
 10
3.2289400000000001
 20
1.97868
 10
3.1594000000000002
 20
1.94797
 10
3.0715599999999998
 20
1.9305000000000001
 10
2.97092
 20
1.92686
 10
2.8630100000000001
 20
1.93767
 10
2.7533599999999998
 20
1.9635400000000001
 10
2.6474000000000002
 20
2.0051000000000001
 10
2.4885000000000002
 20
2.0821900000000002
 10
2.5315699999999999
 20
1.79531
 10
2.5545300000000002
 20
1.60992
 10
2.5696099999999999
 20
1.4171499999999999
 10
2.5768800000000001
 20
1.22342
 10
2.5764999999999998
 20
1.0348299999999999
 10
2.5685799999999999
 20
0.857747
 10
2.5533299999999999
 20
0.69846
 10
2.5308199999999998
 20
0.563151
 10
2.5013100000000001
 20
0.458117
 10
2.4731399999999999
 20
0.384114
 10
2.45404
 20
0.329156
 10
2.4460099999999998
 20
0.289117
 10
2.4509599999999998
 20
0.259819
 10
2.47092
 20
0.237142
 10
2.5079199999999999
 20
0.21696
 10
2.56386
 20
0.19515
 10
2.6408499999999999
 20
0.167426
 10
2.6699199999999998
 20
0.153049
 10
2.6913499999999999
 20
0.134549
 10
2.7050299999999998
 20
0.11339
 10
2.7108300000000001
 20
0.0910374
 10
2.7086100000000002
 20
0.0688476
 10
2.6982900000000001
 20
0.0481771
 10
2.6797399999999998
 20
0.0304904
 10
2.6528900000000002
 20
0.0171983
 10
2.6150699999999998
 20
0.0106337
 10
2.5567500000000001
 20
0.00797526
 10
2.48583
 20
0.0093316
 10
2.4102600000000001
 20
0.0147026
 10
2.4102600000000001
 20
0.0147026
 10
2.2278600000000002
 20
0.0328233
 10
2.2552599999999998
 20
0.373156
 10
2.2692100000000002
 20
0.512315
 10
2.2870599999999999
 20
0.639486
 10
2.30647
 20
0.740722
 10
2.3251900000000001
 20
0.801812
 10
2.3370799999999998
 20
0.840711
 10
2.34022
 20
0.885688
 10
2.33561
 20
0.933322
 10
2.32437
 20
0.980035
 10
2.3075700000000001
 20
1.02241
 10
2.2862900000000002
 20
1.0570200000000001
 10
2.26172
 20
1.08029
 10
2.2348599999999998
 20
1.0888100000000001
 10
2.2166899999999998
 20
1.0788800000000001
 10
2.1976900000000001
 20
1.05176
 10
2.18018
 20
1.01166
 10
2.16635
 20
0.962674
 10
2.1397499999999998
 20
0.8944220000000001
 10
2.0876299999999999
 20
0.801758
 10
2.01736
 20
0.696832
 10
1.9366399999999999
 20
0.591851
 10
1.8787499999999999
 20
0.520562
 10
1.8341000000000001
 20
0.461751
 10
1.8017099999999999
 20
0.41314
 10
1.7806
 20
0.372504
 10
1.76986
 20
0.337457
 10
1.7685
 20
0.305718
 10
1.77556
 20
0.275065
 10
1.7900400000000001
 20
0.243164
 10
1.8117399999999999
 20
0.200575
 10
1.8294900000000001
 20
0.16135
 10
1.8414699999999999
 20
0.129883
 10
1.84592
 20
0.110514
 10
1.81793
 20
0.0800781
 10
1.7463599999999999
 20
0.0889214
 10
1.64985
 20
0.131402
 10
1.54704
 20
0.201768
 10
1.4019200000000001
 20
0.321832
 10
1.55165
 20
0.484375
 10
1.60975
 20
0.553874
 10
1.6573899999999999
 20
0.622831
 10
1.6896100000000001
 20
0.683376
 10
1.7014400000000001
 20
0.727485
 10
1.7090399999999999
 20
0.7643219999999999
 10
1.7297100000000001
 20
0.804958
 10
1.76031
 20
0.84451
 10
1.79775
 20
0.877983
 10
1.8696299999999999
 20
0.9506829999999999
 10
1.8892100000000001
 20
1.02295
 10
1.8571
 20
1.08941
 10
1.7737099999999999
 20
1.1447499999999999
 10
1.7257499999999999
 20
1.16753
 10
1.69119
 20
1.1902699999999999
 10
1.6697599999999999
 20
1.21712
 10
1.6612899999999999
 20
1.2523299999999999
 10
1.6655800000000001
 20
1.30002
 10
1.68235
 20
1.3643099999999999
 10
1.71149
 20
1.44943
 10
1.75271
 20
1.5593999999999999
 10
1.78993
 20
1.6705700000000001
 10
1.81776
 20
1.78017
 10
1.83361
 20
1.8755999999999999
 10
1.8346899999999999
 20
1.94417
 10
1.82829
 20
1.97342
 10
1.8188500000000001
 20
1.9876799999999999
 10
1.8056700000000001
 20
1.9860599999999999
 10
1.78803
 20
1.9675
 10
1.7651399999999999
 20
1.9310400000000001
 10
1.7363299999999999
 20
1.87565
 10
1.70085
 20
1.8004
 10
1.6579900000000001
 20
1.70421
 10
1.609
 20
1.5953200000000001
 10
1.5658099999999999
 20
1.5076000000000001
 10
1.52528
 20
1.4371799999999999
 10
1.4843200000000001
 20
1.3803700000000001
 10
1.4398299999999999
 20
1.3333900000000001
 10
1.3886700000000001
 20
1.29243
 10
1.3278000000000001
 20
1.2538
 10
1.25407
 20
1.2136499999999999
 10
1.14279
 20
1.1609700000000001
 10
1.05745
 20
1.1318900000000001
 10
0.996961
 20
1.12625
 10
0.960394
 20
1.1437200000000001
 10
0.913954
 20
1.1835899999999999
 10
0.876899
 20
1.1895100000000001
 10
0.850315
 20
1.16764
 10
0.835232
 20
1.12419
 10
0.832682
 20
1.0654300000000001
 10
0.843858
 20
0.9974499999999999
 10
0.869683
 20
0.92654
 10
0.91135
 20
0.858832
 10
0.938206
 20
0.810981
 10
0.959799
 20
0.7462029999999999
 10
0.97564
 20
0.670031
 10
0.985406
 20
0.587782
 10
0.988607
 20
0.504829
 10
0.984808
 20
0.42654
 10
0.973633
 20
0.358344
 10
0.954644
 20
0.305501
 10
0.94846
 20
0.277453
 10
0.958931
 20
0.250976
 10
0.984592
 20
0.228082
 10
1.0240899999999999
 20
0.210721
 10
1.07308
 20
0.190213
 10
1.10178
 20
0.165907
 10
1.11127
 20
0.13954
 10
1.1027
 20
0.112793
 10
1.0771500000000001
 20
0.0873481
 10
1.0357499999999999
 20
0.0649957
 10
0.9796
 20
0.047309
 10
0.9098850000000001
 20
0.0360786
 10
0.727974
 20
0.0183919
 10
0.760363
 20
0.291775
 10
0.772569
 20
0.428222
 10
0.77029
 20
0.523926
 10
0.752061
 20
0.590278
 10
0.716525
 20
0.638564
 10
0.693739
 20
0.658475
 10
0.6731780000000001
 20
0.671169
 10
0.653592
 20
0.676161
 10
0.633789
 20
0.673122
 10
0.612522
 20
0.661512
 10
0.588596
 20
0.64095
 10
0.560818
 20
0.611057
 10
0.528049
 20
0.571289
 10
0.476183
 20
0.513618
 10
0.418132
 20
0.460667
 10
0.360949
 20
0.41824
 10
0.31174
 20
0.392199
 10
0.262424
 20
0.367296
 10
0.235243
 20
0.333767
 10
0.227647
 20
0.285915
 10
0.237196
 20
0.217828
 10
0.244358
 20
0.159017
 10
0.238499
 20
0.116428
 10
0.221789
 20
0.0901693
 10
0.196235
 20
0.0802951
 10
0.164117
 20
0.0870225
 10
0.12755
 20
0.110406
 10
0.0886501
 20
0.150553
 10
0.0496419
 20
0.207628
 10
0.0270725
 20
0.248156
 10
0.0127496
 20
0.282172
 10
0.007704
 20
0.312933
 10
0.0129666
 20
0.343588
 10
0.0297308
 20
0.377387
 10
0.0590821
 20
0.417481
 10
0.102051
 20
0.467068
 10
0.159776
 20
0.529351
 10
0.304363
 20
0.725151
 10
0.371528
 20
0.920953
 10
0.399414
 20
1.1167499999999999
 10
0.316624
 20
0.96289
 10
0.277724
 20
0.903211
 10
0.233128
 20
0.854275
 10
0.188206
 20
0.821235
 10
0.148654
 20
0.809082
 10
0.114475
 20
0.812446
 10
0.0894097
 20
0.822103
 10
0.0734592
 20
0.837349
 10
0.0666233
 20
0.857476
 10
0.0691189
 20
0.88189
 10
0.0808376
 20
0.9098850000000001
 10
0.101997
 20
0.94081
 10
0.132596
 20
0.973904
 10
0.161729
 20
1.0120400000000001
 10
0.19005
 20
1.06657
 10
0.214247
 20
1.1302099999999999
 10
0.231119
 20
1.19564
 10
0.253093
 20
1.27067
 10
0.291396
 20
1.3602399999999999
 10
0.340494
 20
1.4531799999999999
 10
0.395182
 20
1.5381400000000001
 10
0.463433
 20
1.6409
 10
0.497233
 20
1.7194
 10
0.5013030000000001
 20
1.7923199999999999
 10
0.480251
 20
1.87819
 10
0.460124
 20
1.9546399999999999
 10
0.455458
 20
2.0167600000000001
 10
0.466581
 20
2.0698799999999999
 10
0.493815
 20
2.11931
 10
0.577094
 20
2.1826699999999999
 10
0.688422
 20
2.20486
 10
0.7994250000000001
 20
2.1856499999999999
 10
0.88189
 20
2.1245099999999999
 10
0.900933
 20
2.0835599999999999
 10
0.911512
 20
2.0295700000000001
 10
0.914279
 20
1.96733
 10
0.909722
 20
1.9017500000000001
 10
0.898438
 20
1.83751
 10
0.881022
 20
1.7795099999999999
 10
0.858128
 20
1.7325299999999999
 10
0.830294
 20
1.70139
 10
0.824219
 20
1.6765399999999999
 10
0.840657
 20
1.63232
 10
0.8763570000000001
 20
1.57514
 10
0.928168
 20
1.5110699999999999
 10
1.00884
 20
1.42763
 10
1.06999
 20
1.3886700000000001
 10
1.13053
 20
1.3880699999999999
 10
1.2095800000000001
 20
1.4196
 10
1.24962
 20
1.4426000000000001
 10
1.2856399999999999
 20
1.4724999999999999
 10
1.31928
 20
1.5119899999999999
 10
1.3520000000000001
 20
1.5640099999999999
 10
1.38531
 20
1.6312899999999999
 10
1.4209000000000001
 20
1.7166399999999999
 10
1.46018
 20
1.82281
 10
1.5048299999999999
 20
1.95269
 10
1.5848500000000001
 20
2.1726399999999999
 10
1.6636200000000001
 20
2.3486799999999999
 10
1.7439199999999999
 20
2.4863300000000002
 10
1.8284
 20
2.5909300000000002
 10
1.91428
 20
2.6852200000000002
 10
1.9573100000000001
 20
2.7538999999999998
 10
1.9640299999999999
 20
2.8140100000000001
 10
1.94086
 20
2.8822199999999998
 10
1.9130799999999999
 20
2.9997199999999999
 10
1.9176899999999999
 20
3.1353599999999999
 10
1.9501900000000001
 20
3.2586300000000001
 10
2.0063499999999999
 20
3.3391899999999999
 10
2.0998700000000001
 20
3.3740299999999999
 10
2.22418
 20
3.3791199999999999
 10
2.3490700000000002
 20
3.3566099999999999
 10
2.4446099999999999
 20
3.3085399999999998
 10
2.4867599999999999
 20
3.2618299999999998
 10
2.5081899999999999
 20
3.20356
 10
2.51112
 20
3.1208200000000001
 10
2.4977800000000001
 20
3.0008599999999999
 10
2.4809600000000001
 20
2.9101499999999998
 10
2.4604400000000002
 20
2.8358300000000001
 10
2.4387500000000002
 20
2.7855799999999999
 10
2.4185699999999999
 20
2.7671399999999999
 10
2.39974
 20
2.7533099999999999
 10
2.4018600000000001
 20
2.7151700000000001
 10
2.4219300000000001
 20
2.6579899999999999
 10
2.4572500000000002
 20
2.5868600000000002
 10
2.5048300000000001
 20
2.5070000000000001
  0
ENDSEC
  0
SECTION
  2
OBJECTS
  0
DICTIONARY
  5
C
100
AcDbDictionary
280
0
281
1
  3
ACAD_GROUP
350
D
  3
ACAD_LAYOUT
350
1A
  3
ACAD_MLINESTYLE
350
17
  3
ACAD_PLOTSETTINGS
350
19
  3
ACAD_PLOTSTYLENAME
350
E
  3
AcDbVariableDictionary
350
44
  0
DICTIONARY
  5
D
100
AcDbDictionary
280
0
281
1
  0
ACDBDICTIONARYWDFLT
  5
E
100
AcDbDictionary
281
1
  3
Normal
350
F
100
AcDbDictionaryWithDefault
340
F
  0
ACDBPLACEHOLDER
  5
F
  0
DICTIONARY
  5
17
100
AcDbDictionary
280
0
281
1
  3
Standard
350
18
  0
MLINESTYLE
  5
18
100
AcDbMlineStyle
  2
STANDARD
 70
0
  3

 62
256
 51
90.0
 52
90.0
 71
2
 49
0.5
 62
256
  6
BYLAYER
 49
-0.5
 62
256
  6
BYLAYER
  0
DICTIONARY
  5
19
100
AcDbDictionary
280
0
281
1
  0
DICTIONARY
  5
1A
100
AcDbDictionary
281
1
  3
Layout1
350
1E
  3
Layout2
350
26
  3
Model
350
22
  0
LAYOUT
  5
1E
100
AcDbPlotSettings
  1

  2
C:\Program Files\AutoCAD 2002\plotters\DWF ePlot (optimized for plotting).pc3
  4

  6

 40
0.0
 41
0.0
 42
0.0
 43
0.0
 44
0.0
 45
0.0
 46
0.0
 47
0.0
 48
0.0
 49
0.0
140
0.0
141
0.0
142
1.0
143
1.0
 70
688
 72
0
 73
0
 74
5
  7

 75
16
147
1.0
148
0.0
149
0.0
100
AcDbLayout
  1
Layout1
 70
1
 71
1
 10
0.0
 20
0.0
 11
420.0
 21
297.0
 12
0.0
 22
0.0
 32
0.0
 14
100000000000000000000.0
 24
100000000000000000000.0
 34
100000000000000000000.0
 15
-100000000000000000000.0
 25
-100000000000000000000.0
 35
-100000000000000000000.0
146
0.0
 13
0.0
 23
0.0
 33
0.0
 16
1.0
 26
0.0
 36
0.0
 17
0.0
 27
1.0
 37
0.0
 76
0
330
1B
  0
LAYOUT
  5
22
100
AcDbPlotSettings
  1

  2
C:\Program Files\AutoCAD 2002\plotters\DWF ePlot (optimized for plotting).pc3
  4

  6

 40
0.0
 41
0.0
 42
0.0
 43
0.0
 44
0.0
 45
0.0
 46
0.0
 47
0.0
 48
0.0
 49
0.0
140
0.0
141
0.0
142
1.0
143
1.0
 70
1712
 72
0
 73
0
 74
0
  7

 75
0
147
1.0
148
0.0
149
0.0
100
AcDbLayout
  1
Model
 70
1
 71
0
 10
0.0
 20
0.0
 11
12.0
 21
9.0
 12
0.0
 22
0.0
 32
0.0
 14
0.0
 24
0.0
 34
0.0
 15
0.0
 25
0.0
 35
0.0
146
0.0
 13
0.0
 23
0.0
 33
0.0
 16
1.0
 26
0.0
 36
0.0
 17
0.0
 27
1.0
 37
0.0
 76
0
330
1F
  0
LAYOUT
  5
26
100
AcDbPlotSettings
  1

  2
C:\Program Files\AutoCAD 2002\plotters\DWF ePlot (optimized for plotting).pc3
  4

  6

 40
0.0
 41
0.0
 42
0.0
 43
0.0
 44
0.0
 45
0.0
 46
0.0
 47
0.0
 48
0.0
 49
0.0
140
0.0
141
0.0
142
1.0
143
1.0
 70
688
 72
0
 73
0
 74
5
  7

 75
16
147
1.0
148
0.0
149
0.0
100
AcDbLayout
  1
Layout2
 70
1
 71
2
 10
0.0
 20
0.0
 11
12.0
 21
9.0
 12
0.0
 22
0.0
 32
0.0
 14
0.0
 24
0.0
 34
0.0
 15
0.0
 25
0.0
 35
0.0
146
0.0
 13
0.0
 23
0.0
 33
0.0
 16
1.0
 26
0.0
 36
0.0
 17
0.0
 27
1.0
 37
0.0
 76
0
330
23
  0
DICTIONARY
  5
44
100
AcDbDictionary
281
1
  3
DIMASSOC
350
46
  3
HIDETEXT
350
45
  0
DICTIONARYVAR
  5
45
100
DictionaryVariables
280
0
  1
2
  0
DICTIONARYVAR
  5
46
100
DictionaryVariables
280
0
  1
1
  0
ENDSEC
  0
EOF
