999
dxflib 2.2.0.0
  0
SECTION
  2
HEADER
  9
$ACADVER
  1
AC1015
  9
$HANDSEED
  5
FFFF
  9
$DIMASZ
 40
2.5
  9
$FILLMODE
 70
0
  9
$PLIMMIN
 10
0.0
 20
0.0
  9
$DIMEXE
 40
1.25
  9
$DIMGAP
 40
0.625
  9
$PLIMMAX
 10
210.0
 20
297.0
  9
$EXTMIN
 10
0.0
 20
0.0
 30
0.0
  9
$EXTMAX
 10
1000.0
 20
1000.0
 30
0.0
  9
$SPLFRAME
 70
1
  9
$INSUNITS
 70
4
  9
$DIMSTYLE
  2
Standard
  9
$DIMEXO
 40
0.625
  9
$DIMTXT
 40
2.5
  9
$CLAYER
  8
0
  0
ENDSEC
  0
SECTION
  2
TABLES
  0
TABLE
  2
VPORT
  5
8
100
AcDbSymbolTable
 70
1
  0
VPORT
  5
30
100
AcDbSymbolTableRecord
100
AcDbViewportTableRecord
  2
*Active
 70
0
 10
0.0
 20
0.0
 11
1.0
 21
1.0
 12
286.3055555555554861
 22
148.5
 13
0.0
 23
0.0
 14
10.0
 24
10.0
 15
10.0
 25
10.0
 16
0.0
 26
0.0
 36
1.0
 17
0.0
 27
0.0
 37
0.0
 40
297.0
 41
1.92798353909465
 42
50.0
 43
0.0
 44
0.0
 50
0.0
 51
0.0
 71
0
 72
100
 73
1
 74
3
 75
1
 76
1
 77
0
 78
0
281
0
 65
1
110
0.0
120
0.0
130
0.0
111
1.0
121
0.0
131
0.0
112
0.0
122
1.0
132
0.0
 79
0
146
0.0
  0
ENDTAB
  0
TABLE
  2
LTYPE
  5
5
100
AcDbSymbolTable
 70
21
  0
LTYPE
  5
14
100
AcDbSymbolTableRecord
100
AcDbLinetypeTableRecord
  2
ByBlock
 70
0
  3

 72
65
 73
0
 40
0.0
  0
LTYPE
  5
15
100
AcDbSymbolTableRecord
100
AcDbLinetypeTableRecord
  2
ByLayer
 70
0
  3

 72
65
 73
0
 40
0.0
  0
LTYPE
  5
16
100
AcDbSymbolTableRecord
100
AcDbLinetypeTableRecord
  2
CONTINUOUS
 70
0
  3
Solid line
 72
65
 73
0
 40
0.0
  0
LTYPE
  5
31
100
AcDbSymbolTableRecord
100
AcDbLinetypeTableRecord
  2
DOT
 70
0
  3
Dot . . . . . . . . . . . . . . . . . . . . . .
 72
65
 73
2
 40
6.3499999999999996
 49
0.0
 74
0
 49
-6.3499999999999996
 74
0
  0
LTYPE
  5
32
100
AcDbSymbolTableRecord
100
AcDbLinetypeTableRecord
  2
DOT2
 70
0
  3
Dot (.5x) .....................................
 72
65
 73
2
 40
3.1749999999999998
 49
0.0
 74
0
 49
-3.1749999999999998
 74
0
  0
LTYPE
  5
33
100
AcDbSymbolTableRecord
100
AcDbLinetypeTableRecord
  2
DOTX2
 70
0
  3
Dot (2x) .  .  .  .  .  .  .  .  .  .  .  .  .
 72
65
 73
2
 40
12.6999999999999993
 49
0.0
 74
0
 49
-12.6999999999999993
 74
0
  0
LTYPE
  5
34
100
AcDbSymbolTableRecord
100
AcDbLinetypeTableRecord
  2
DASHED
 70
0
  3
Dashed __ __ __ __ __ __ __ __ __ __ __ __ __ _
 72
65
 73
2
 40
19.0500000000000007
 49
12.6999999999999993
 74
0
 49
-6.3499999999999996
 74
0
  0
LTYPE
  5
35
100
AcDbSymbolTableRecord
100
AcDbLinetypeTableRecord
  2
DASHED2
 70
0
  3
Dashed (.5x) _ _ _ _ _ _ _ _ _ _ _ _ _ _ _ _ _
 72
65
 73
2
 40
9.5250000000000004
 49
6.3499999999999996
 74
0
 49
-3.1749999999999998
 74
0
  0
LTYPE
  5
36
100
AcDbSymbolTableRecord
100
AcDbLinetypeTableRecord
  2
DASHEDX2
 70
0
  3
Dashed (2x) ____  ____  ____  ____  ____  ___
 72
65
 73
2
 40
38.1000000000000014
 49
25.3999999999999986
 74
0
 49
-12.6999999999999993
 74
0
  0
LTYPE
  5
37
100
AcDbSymbolTableRecord
100
AcDbLinetypeTableRecord
  2
DASHDOT
 70
0
  3
Dash dot __ . __ . __ . __ . __ . __ . __ . __
 72
65
 73
4
 40
25.3999999999999986
 49
12.6999999999999993
 74
0
 49
-6.3499999999999996
 74
0
 49
0.0
 74
0
 49
-6.3499999999999996
 74
0
  0
LTYPE
  5
38
100
AcDbSymbolTableRecord
100
AcDbLinetypeTableRecord
  2
DASHDOT2
 70
0
  3
Dash dot (.5x) _._._._._._._._._._._._._._._.
 72
65
 73
4
 40
12.6999999999999993
 49
6.3499999999999996
 74
0
 49
-3.1749999999999998
 74
0
 49
0.0
 74
0
 49
-3.1749999999999998
 74
0
  0
LTYPE
  5
39
100
AcDbSymbolTableRecord
100
AcDbLinetypeTableRecord
  2
DASHDOTX2
 70
0
  3
Dash dot (2x) ____  .  ____  .  ____  .  ___
 72
65
 73
4
 40
50.7999999999999972
 49
25.3999999999999986
 74
0
 49
-12.6999999999999993
 74
0
 49
0.0
 74
0
 49
-12.6999999999999993
 74
0
  0
LTYPE
  5
3A
100
AcDbSymbolTableRecord
100
AcDbLinetypeTableRecord
  2
DIVIDE
 70
0
  3
Divide ____ . . ____ . . ____ . . ____ . . ____
 72
65
 73
6
 40
31.75
 49
12.6999999999999993
 74
0
 49
-6.3499999999999996
 74
0
 49
0.0
 74
0
 49
-6.3499999999999996
 74
0
 49
0.0
 74
0
 49
-6.3499999999999996
 74
0
  0
LTYPE
  5
3B
100
AcDbSymbolTableRecord
100
AcDbLinetypeTableRecord
  2
DIVIDE2
 70
0
  3
Divide (.5x) __..__..__..__..__..__..__..__.._
 72
65
 73
6
 40
15.875
 49
6.3499999999999996
 74
0
 49
-3.1749999999999998
 74
0
 49
0.0
 74
0
 49
-3.1749999999999998
 74
0
 49
0.0
 74
0
 49
-3.1749999999999998
 74
0
  0
LTYPE
  5
3C
100
AcDbSymbolTableRecord
100
AcDbLinetypeTableRecord
  2
DIVIDEX2
 70
0
  3
Divide (2x) ________  .  .  ________  .  .  _
 72
65
 73
6
 40
63.5
 49
25.3999999999999986
 74
0
 49
-12.6999999999999993
 74
0
 49
0.0
 74
0
 49
-12.6999999999999993
 74
0
 49
0.0
 74
0
 49
-12.6999999999999993
 74
0
  0
LTYPE
  5
3D
100
AcDbSymbolTableRecord
100
AcDbLinetypeTableRecord
  2
CENTER
 70
0
  3
Center ____ _ ____ _ ____ _ ____ _ ____ _ ____
 72
65
 73
4
 40
50.7999999999999972
 49
31.75
 74
0
 49
-6.3499999999999996
 74
0
 49
6.3499999999999996
 74
0
 49
-6.3499999999999996
 74
0
  0
LTYPE
  5
3E
100
AcDbSymbolTableRecord
100
AcDbLinetypeTableRecord
  2
CENTER2
 70
0
  3
Center (.5x) ___ _ ___ _ ___ _ ___ _ ___ _ ___
 72
65
 73
4
 40
28.5749999999999993
 49
19.0500000000000007
 74
0
 49
-3.1749999999999998
 74
0
 49
3.1749999999999998
 74
0
 49
-3.1749999999999998
 74
0
  0
LTYPE
  5
3F
100
AcDbSymbolTableRecord
100
AcDbLinetypeTableRecord
  2
CENTERX2
 70
0
  3
Center (2x) ________  __  ________  __  _____
 72
65
 73
4
 40
101.5999999999999943
 49
63.5
 74
0
 49
-12.6999999999999993
 74
0
 49
12.6999999999999993
 74
0
 49
-12.6999999999999993
 74
0
  0
LTYPE
  5
40
100
AcDbSymbolTableRecord
100
AcDbLinetypeTableRecord
  2
BORDER
 70
0
  3
Border __ __ . __ __ . __ __ . __ __ . __ __ .
 72
65
 73
6
 40
44.4500000000000028
 49
12.6999999999999993
 74
0
 49
-6.3499999999999996
 74
0
 49
12.6999999999999993
 74
0
 49
-6.3499999999999996
 74
0
 49
0.0
 74
0
 49
-6.3499999999999996
 74
0
  0
LTYPE
  5
41
100
AcDbSymbolTableRecord
100
AcDbLinetypeTableRecord
  2
BORDER2
 70
0
  3
Border (.5x) __.__.__.__.__.__.__.__.__.__.__.
 72
65
 73
6
 40
22.2250000000000014
 49
6.3499999999999996
 74
0
 49
-3.1749999999999998
 74
0
 49
6.3499999999999996
 74
0
 49
-3.1749999999999998
 74
0
 49
0.0
 74
0
 49
-3.1749999999999998
 74
0
  0
LTYPE
  5
42
100
AcDbSymbolTableRecord
100
AcDbLinetypeTableRecord
  2
BORDERX2
 70
0
  3
Border (2x) ____  ____  .  ____  ____  .  ___
 72
65
 73
6
 40
88.9000000000000057
 49
25.3999999999999986
 74
0
 49
-12.6999999999999993
 74
0
 49
25.3999999999999986
 74
0
 49
-12.6999999999999993
 74
0
 49
0.0
 74
0
 49
-12.6999999999999993
 74
0
  0
ENDTAB
  0
TABLE
  2
LAYER
  5
2
100
AcDbSymbolTable
 70
1
  0
LAYER
  5
10
100
AcDbSymbolTableRecord
100
AcDbLayerTableRecord
  2
0
 70
0
 62
7
420
16777215
  6
CONTINUOUS
390
F
  0
ENDTAB
  0
TABLE
  2
STYLE
  5
3
100
AcDbSymbolTable
 70
1
  0
STYLE
  5
11
100
AcDbSymbolTableRecord
100
AcDbTextStyleTableRecord
  2
Standard
 70
0
 40
0.0
 41
0.75
 50
0.0
 71
0
 42
2.5
  3
txt
  4

  0
ENDTAB
  0
TABLE
  2
VIEW
  5
6
100
AcDbSymbolTable
 70
0
  0
ENDTAB
  0
TABLE
  2
UCS
  5
7
100
AcDbSymbolTable
 70
0
  0
ENDTAB
  0
TABLE
  2
APPID
  5
9
100
AcDbSymbolTable
 70
1
  0
APPID
  5
12
100
AcDbSymbolTableRecord
100
AcDbRegAppTableRecord
  2
ACAD
 70
0
  0
ENDTAB
  0
TABLE
  2
DIMSTYLE
  5
A
100
AcDbSymbolTable
 70
1
100
AcDbDimStyleTable
 71
0
  0
DIMSTYLE
105
27
100
AcDbSymbolTableRecord
100
AcDbDimStyleTableRecord
  2
Standard
 41
2.5
 42
0.625
 43
3.75
 44
1.25
 70
0
 73
0
 74
0
 77
1
 78
8
140
2.5
141
2.5
143
0.03937007874016
147
0.625
171
3
172
1
271
2
272
2
274
3
278
44
283
0
284
8
340
11
  0
ENDTAB
  0
TABLE
  2
BLOCK_RECORD
  5
1
100
AcDbSymbolTable
 70
1
  0
BLOCK_RECORD
  5
1F
100
AcDbSymbolTableRecord
100
AcDbBlockTableRecord
  2
*Model_Space
340
22
  0
BLOCK_RECORD
  5
1B
100
AcDbSymbolTableRecord
100
AcDbBlockTableRecord
  2
*Paper_Space
340
1E
  0
BLOCK_RECORD
  5
23
100
AcDbSymbolTableRecord
100
AcDbBlockTableRecord
  2
*Paper_Space0
340
26
  0
ENDTAB
  0
ENDSEC
  0
SECTION
  2
BLOCKS
  0
BLOCK
  5
20
100
AcDbEntity
  8
0
100
AcDbBlockBegin
  2
*Model_Space
 70
0
 10
0.0
 20
0.0
 30
0.0
  3
*Model_Space
  1

  0
ENDBLK
  5
21
100
AcDbEntity
  8
0
100
AcDbBlockEnd
  0
BLOCK
  5
1C
100
AcDbEntity
 67
1
  8
0
100
AcDbBlockBegin
  2
*Paper_Space
 70
0
 10
0.0
 20
0.0
 30
0.0
  3
*Paper_Space
  1

  0
ENDBLK
  5
1D
100
AcDbEntity
 67
1
  8
0
100
AcDbBlockEnd
  0
BLOCK
  5
24
100
AcDbEntity
  8
0
100
AcDbBlockBegin
  2
*Paper_Space0
 70
0
 10
0.0
 20
0.0
 30
0.0
  3
*Paper_Space0
  1

  0
ENDBLK
  5
25
100
AcDbEntity
  8
0
100
AcDbBlockEnd
  0
ENDSEC
  0
SECTION
  2
ENTITIES
  0
LINE
  5
43
100
AcDbEntity
100
AcDbLine
  8
0
 62
0
370
-1
  6
ByLayer
 10
0.4815
 20
0.0182292
 30
0.0
 11
0.40294
 21
0.0338542
 31
0.0
  0
LINE
  5
44
100
AcDbEntity
100
AcDbLine
  8
0
 62
0
370
-1
  6
ByLayer
 10
0.40294
 20
0.0338542
 30
0.0
 11
0.341797
 21
0.0481771
 31
0.0
  0
LINE
  5
45
100
AcDbEntity
100
AcDbLine
  8
0
 62
0
370
-1
  6
ByLayer
 10
0.341797
 20
0.0481771
 30
0.0
 11
0.296767
 21
0.062066
 31
0.0
  0
LINE
  5
46
100
AcDbEntity
100
AcDbLine
  8
0
 62
0
370
-1
  6
ByLayer
 10
0.296767
 20
0.062066
 30
0.0
 11
0.266547
 21
0.0762261
 31
0.0
  0
LINE
  5
47
100
AcDbEntity
100
AcDbLine
  8
0
 62
0
370
-1
  6
ByLayer
 10
0.266547
 20
0.0762261
 30
0.0
 11
0.249892
 21
0.0915799
 31
0.0
  0
LINE
  5
48
100
AcDbEntity
100
AcDbLine
  8
0
 62
0
370
-1
  6
ByLayer
 10
0.249892
 20
0.0915799
 30
0.0
 11
0.245606
 21
0.108778
 31
0.0
  0
LINE
  5
49
100
AcDbEntity
100
AcDbLine
  8
0
 62
0
370
-1
  6
ByLayer
 10
0.245606
 20
0.108778
 30
0.0
 11
0.252387
 21
0.128743
 31
0.0
  0
LINE
  5
4A
100
AcDbEntity
100
AcDbLine
  8
0
 62
0
370
-1
  6
ByLayer
 10
0.252387
 20
0.128743
 30
0.0
 11
0.269043
 21
0.152126
 31
0.0
  0
LINE
  5
4B
100
AcDbEntity
100
AcDbLine
  8
0
 62
0
370
-1
  6
ByLayer
 10
0.269043
 20
0.152126
 30
0.0
 11
0.286187
 21
0.192383
 31
0.0
  0
LINE
  5
4C
100
AcDbEntity
100
AcDbLine
  8
0
 62
0
370
-1
  6
ByLayer
 10
0.286187
 20
0.192383
 30
0.0
 11
0.280871
 21
0.247613
 31
0.0
  0
LINE
  5
4D
100
AcDbEntity
100
AcDbLine
  8
0
 62
0
370
-1
  6
ByLayer
 10
0.280871
 20
0.247613
 30
0.0
 11
0.252115
 21
0.321506
 31
0.0
  0
LINE
  5
4E
100
AcDbEntity
100
AcDbLine
  8
0
 62
0
370
-1
  6
ByLayer
 10
0.252115
 20
0.321506
 30
0.0
 11
0.199001
 21
0.417697
 31
0.0
  0
LINE
  5
4F
100
AcDbEntity
100
AcDbLine
  8
0
 62
0
370
-1
  6
ByLayer
 10
0.199001
 20
0.417697
 30
0.0
 11
0.134657
 21
0.547581
 31
0.0
  0
LINE
  5
50
100
AcDbEntity
100
AcDbLine
  8
0
 62
0
370
-1
  6
ByLayer
 10
0.134657
 20
0.547581
 30
0.0
 11
0.0957574
 21
0.680664
 31
0.0
  0
LINE
  5
51
100
AcDbEntity
100
AcDbLine
  8
0
 62
0
370
-1
  6
ByLayer
 10
0.0957574
 20
0.680664
 30
0.0
 11
0.0819228
 21
0.814725
 31
0.0
  0
LINE
  5
52
100
AcDbEntity
100
AcDbLine
  8
0
 62
0
370
-1
  6
ByLayer
 10
0.0819228
 20
0.814725
 30
0.0
 11
0.0927192
 21
0.947374
 31
0.0
  0
LINE
  5
53
100
AcDbEntity
100
AcDbLine
  8
0
 62
0
370
-1
  6
ByLayer
 10
0.0927192
 20
0.947374
 30
0.0
 11
0.127767
 21
1.07633
 31
0.0
  0
LINE
  5
54
100
AcDbEntity
100
AcDbLine
  8
0
 62
0
370
-1
  6
ByLayer
 10
0.127767
 20
1.07633
 30
0.0
 11
0.186632
 21
1.1993799999999999
 31
0.0
  0
LINE
  5
55
100
AcDbEntity
100
AcDbLine
  8
0
 62
0
370
-1
  6
ByLayer
 10
0.186632
 20
1.1993799999999999
 30
0.0
 11
0.268935
 21
1.3141799999999999
 31
0.0
  0
LINE
  5
56
100
AcDbEntity
100
AcDbLine
  8
0
 62
0
370
-1
  6
ByLayer
 10
0.268935
 20
1.3141799999999999
 30
0.0
 11
0.374294
 21
1.4184600000000001
 31
0.0
  0
LINE
  5
57
100
AcDbEntity
100
AcDbLine
  8
0
 62
0
370
-1
  6
ByLayer
 10
0.374294
 20
1.4184600000000001
 30
0.0
 11
0.425944
 21
1.46235
 31
0.0
  0
LINE
  5
58
100
AcDbEntity
100
AcDbLine
  8
0
 62
0
370
-1
  6
ByLayer
 10
0.425944
 20
1.46235
 30
0.0
 11
0.463542
 21
1.4962500000000001
 31
0.0
  0
LINE
  5
59
100
AcDbEntity
100
AcDbLine
  8
0
 62
0
370
-1
  6
ByLayer
 10
0.463542
 20
1.4962500000000001
 30
0.0
 11
0.487739
 21
1.5224
 31
0.0
  0
LINE
  5
5A
100
AcDbEntity
100
AcDbLine
  8
0
 62
0
370
-1
  6
ByLayer
 10
0.487739
 20
1.5224
 30
0.0
 11
0.499078
 21
1.5428599999999999
 31
0.0
  0
LINE
  5
5B
100
AcDbEntity
100
AcDbLine
  8
0
 62
0
370
-1
  6
ByLayer
 10
0.499078
 20
1.5428599999999999
 30
0.0
 11
0.498156
 21
1.5597399999999999
 31
0.0
  0
LINE
  5
5C
100
AcDbEntity
100
AcDbLine
  8
0
 62
0
370
-1
  6
ByLayer
 10
0.498156
 20
1.5597399999999999
 30
0.0
 11
0.485568
 21
1.5751900000000001
 31
0.0
  0
LINE
  5
5D
100
AcDbEntity
100
AcDbLine
  8
0
 62
0
370
-1
  6
ByLayer
 10
0.485568
 20
1.5751900000000001
 30
0.0
 11
0.46186
 21
1.59131
 31
0.0
  0
LINE
  5
5E
100
AcDbEntity
100
AcDbLine
  8
0
 62
0
370
-1
  6
ByLayer
 10
0.46186
 20
1.59131
 30
0.0
 11
0.427681
 21
1.61019
 31
0.0
  0
LINE
  5
5F
100
AcDbEntity
100
AcDbLine
  8
0
 62
0
370
-1
  6
ByLayer
 10
0.427681
 20
1.61019
 30
0.0
 11
0.370063
 21
1.63456
 31
0.0
  0
LINE
  5
60
100
AcDbEntity
100
AcDbLine
  8
0
 62
0
370
-1
  6
ByLayer
 10
0.370063
 20
1.63456
 30
0.0
 11
0.320367
 21
1.63781
 31
0.0
  0
LINE
  5
61
100
AcDbEntity
100
AcDbLine
  8
0
 62
0
370
-1
  6
ByLayer
 10
0.320367
 20
1.63781
 30
0.0
 11
0.270182
 21
1.6187100000000001
 31
0.0
  0
LINE
  5
62
100
AcDbEntity
100
AcDbLine
  8
0
 62
0
370
-1
  6
ByLayer
 10
0.270182
 20
1.6187100000000001
 30
0.0
 11
0.211154
 21
1.57585
 31
0.0
  0
LINE
  5
63
100
AcDbEntity
100
AcDbLine
  8
0
 62
0
370
-1
  6
ByLayer
 10
0.211154
 20
1.57585
 30
0.0
 11
0.173503
 21
1.5461100000000001
 31
0.0
  0
LINE
  5
64
100
AcDbEntity
100
AcDbLine
  8
0
 62
0
370
-1
  6
ByLayer
 10
0.173503
 20
1.5461100000000001
 30
0.0
 11
0.152181
 21
1.5325599999999999
 31
0.0
  0
LINE
  5
65
100
AcDbEntity
100
AcDbLine
  8
0
 62
0
370
-1
  6
ByLayer
 10
0.152181
 20
1.5325599999999999
 30
0.0
 11
0.148708
 21
1.5358099999999999
 31
0.0
  0
LINE
  5
66
100
AcDbEntity
100
AcDbLine
  8
0
 62
0
370
-1
  6
ByLayer
 10
0.148708
 20
1.5358099999999999
 30
0.0
 11
0.164714
 21
1.5565800000000001
 31
0.0
  0
LINE
  5
67
100
AcDbEntity
100
AcDbLine
  8
0
 62
0
370
-1
  6
ByLayer
 10
0.164714
 20
1.5565800000000001
 30
0.0
 11
0.191461
 21
1.5913600000000001
 31
0.0
  0
LINE
  5
68
100
AcDbEntity
100
AcDbLine
  8
0
 62
0
370
-1
  6
ByLayer
 10
0.191461
 20
1.5913600000000001
 30
0.0
 11
0.210721
 21
1.62463
 31
0.0
  0
LINE
  5
69
100
AcDbEntity
100
AcDbLine
  8
0
 62
0
370
-1
  6
ByLayer
 10
0.210721
 20
1.62463
 30
0.0
 11
0.222547
 21
1.65429
 31
0.0
  0
LINE
  5
6A
100
AcDbEntity
100
AcDbLine
  8
0
 62
0
370
-1
  6
ByLayer
 10
0.222547
 20
1.65429
 30
0.0
 11
0.226779
 21
1.6779999999999999
 31
0.0
  0
LINE
  5
6B
100
AcDbEntity
100
AcDbLine
  8
0
 62
0
370
-1
  6
ByLayer
 10
0.226779
 20
1.6779999999999999
 30
0.0
 11
0.223415
 21
1.69363
 31
0.0
  0
LINE
  5
6C
100
AcDbEntity
100
AcDbLine
  8
0
 62
0
370
-1
  6
ByLayer
 10
0.223415
 20
1.69363
 30
0.0
 11
0.212403
 21
1.69889
 31
0.0
  0
LINE
  5
6D
100
AcDbEntity
100
AcDbLine
  8
0
 62
0
370
-1
  6
ByLayer
 10
0.212403
 20
1.69889
 30
0.0
 11
0.193685
 21
1.69157
 31
0.0
  0
LINE
  5
6E
100
AcDbEntity
100
AcDbLine
  8
0
 62
0
370
-1
  6
ByLayer
 10
0.193685
 20
1.69157
 30
0.0
 11
0.16721
 21
1.6693199999999999
 31
0.0
  0
LINE
  5
6F
100
AcDbEntity
100
AcDbLine
  8
0
 62
0
370
-1
  6
ByLayer
 10
0.16721
 20
1.6693199999999999
 30
0.0
 11
0.130317
 21
1.6366099999999999
 31
0.0
  0
LINE
  5
70
100
AcDbEntity
100
AcDbLine
  8
0
 62
0
370
-1
  6
ByLayer
 10
0.130317
 20
1.6366099999999999
 30
0.0
 11
0.0991211
 21
1.61649
 31
0.0
  0
LINE
  5
71
100
AcDbEntity
100
AcDbLine
  8
0
 62
0
370
-1
  6
ByLayer
 10
0.0991211
 20
1.61649
 30
0.0
 11
0.074924
 21
1.6080700000000001
 31
0.0
  0
LINE
  5
72
100
AcDbEntity
100
AcDbLine
  8
0
 62
0
370
-1
  6
ByLayer
 10
0.074924
 20
1.6080700000000001
 30
0.0
 11
0.0589735
 21
1.6105700000000001
 31
0.0
  0
LINE
  5
73
100
AcDbEntity
100
AcDbLine
  8
0
 62
0
370
-1
  6
ByLayer
 10
0.0589735
 20
1.6105700000000001
 30
0.0
 11
0.0525717
 21
1.62304
 31
0.0
  0
LINE
  5
74
100
AcDbEntity
100
AcDbLine
  8
0
 62
0
370
-1
  6
ByLayer
 10
0.0525717
 20
1.62304
 30
0.0
 11
0.0569119
 21
1.64469
 31
0.0
  0
LINE
  5
75
100
AcDbEntity
100
AcDbLine
  8
0
 62
0
370
-1
  6
ByLayer
 10
0.0569119
 20
1.64469
 30
0.0
 11
0.073405
 21
1.6746399999999999
 31
0.0
  0
LINE
  5
76
100
AcDbEntity
100
AcDbLine
  8
0
 62
0
370
-1
  6
ByLayer
 10
0.073405
 20
1.6746399999999999
 30
0.0
 11
0.103299
 21
1.7120299999999999
 31
0.0
  0
LINE
  5
77
100
AcDbEntity
100
AcDbLine
  8
0
 62
0
370
-1
  6
ByLayer
 10
0.103299
 20
1.7120299999999999
 30
0.0
 11
0.133247
 21
1.74539
 31
0.0
  0
LINE
  5
78
100
AcDbEntity
100
AcDbLine
  8
0
 62
0
370
-1
  6
ByLayer
 10
0.133247
 20
1.74539
 30
0.0
 11
0.154622
 21
1.7701199999999999
 31
0.0
  0
LINE
  5
79
100
AcDbEntity
100
AcDbLine
  8
0
 62
0
370
-1
  6
ByLayer
 10
0.154622
 20
1.7701199999999999
 30
0.0
 11
0.167264
 21
1.7869999999999999
 31
0.0
  0
LINE
  5
7A
100
AcDbEntity
100
AcDbLine
  8
0
 62
0
370
-1
  6
ByLayer
 10
0.167264
 20
1.7869999999999999
 30
0.0
 11
0.171169
 21
1.7967599999999999
 31
0.0
  0
LINE
  5
7B
100
AcDbEntity
100
AcDbLine
  8
0
 62
0
370
-1
  6
ByLayer
 10
0.171169
 20
1.7967599999999999
 30
0.0
 11
0.166342
 21
1.80003
 31
0.0
  0
LINE
  5
7C
100
AcDbEntity
100
AcDbLine
  8
0
 62
0
370
-1
  6
ByLayer
 10
0.166342
 20
1.80003
 30
0.0
 11
0.152615
 21
1.7976399999999999
 31
0.0
  0
LINE
  5
7D
100
AcDbEntity
100
AcDbLine
  8
0
 62
0
370
-1
  6
ByLayer
 10
0.152615
 20
1.7976399999999999
 30
0.0
 11
0.129991
 21
1.7902499999999999
 31
0.0
  0
LINE
  5
7E
100
AcDbEntity
100
AcDbLine
  8
0
 62
0
370
-1
  6
ByLayer
 10
0.129991
 20
1.7902499999999999
 30
0.0
 11
0.09847
 21
1.7786
 31
0.0
  0
LINE
  5
7F
100
AcDbEntity
100
AcDbLine
  8
0
 62
0
370
-1
  6
ByLayer
 10
0.09847
 20
1.7786
 30
0.0
 11
0.0507813
 21
1.76275
 31
0.0
  0
LINE
  5
80
100
AcDbEntity
100
AcDbLine
  8
0
 62
0
370
-1
  6
ByLayer
 10
0.0507813
 20
1.76275
 30
0.0
 11
0.0297308
 21
1.7625299999999999
 31
0.0
  0
LINE
  5
81
100
AcDbEntity
100
AcDbLine
  8
0
 62
0
370
-1
  6
ByLayer
 10
0.0297308
 20
1.7625299999999999
 30
0.0
 11
0.0335286
 21
1.7797400000000001
 31
0.0
  0
LINE
  5
82
100
AcDbEntity
100
AcDbLine
  8
0
 62
0
370
-1
  6
ByLayer
 10
0.0335286
 20
1.7797400000000001
 30
0.0
 11
0.0604383
 21
1.8161400000000001
 31
0.0
  0
LINE
  5
83
100
AcDbEntity
100
AcDbLine
  8
0
 62
0
370
-1
  6
ByLayer
 10
0.0604383
 20
1.8161400000000001
 30
0.0
 11
0.082411
 21
1.8521099999999999
 31
0.0
  0
LINE
  5
84
100
AcDbEntity
100
AcDbLine
  8
0
 62
0
370
-1
  6
ByLayer
 10
0.082411
 20
1.8521099999999999
 30
0.0
 11
0.0926107
 21
1.88992
 31
0.0
  0
LINE
  5
85
100
AcDbEntity
100
AcDbLine
  8
0
 62
0
370
-1
  6
ByLayer
 10
0.0926107
 20
1.88992
 30
0.0
 11
0.0907661
 21
1.92736
 31
0.0
  0
LINE
  5
86
100
AcDbEntity
100
AcDbLine
  8
0
 62
0
370
-1
  6
ByLayer
 10
0.0907661
 20
1.92736
 30
0.0
 11
0.0766601
 21
1.96224
 31
0.0
  0
LINE
  5
87
100
AcDbEntity
100
AcDbLine
  8
0
 62
0
370
-1
  6
ByLayer
 10
0.0766601
 20
1.96224
 30
0.0
 11
0.0616319
 21
2.0083600000000001
 31
0.0
  0
LINE
  5
88
100
AcDbEntity
100
AcDbLine
  8
0
 62
0
370
-1
  6
ByLayer
 10
0.0616319
 20
2.0083600000000001
 30
0.0
 11
0.0534397
 21
2.0808900000000001
 31
0.0
  0
LINE
  5
89
100
AcDbEntity
100
AcDbLine
  8
0
 62
0
370
-1
  6
ByLayer
 10
0.0534397
 20
2.0808900000000001
 30
0.0
 11
0.0526801
 21
2.1699199999999998
 31
0.0
  0
LINE
  5
8A
100
AcDbEntity
100
AcDbLine
  8
0
 62
0
370
-1
  6
ByLayer
 10
0.0526801
 20
2.1699199999999998
 30
0.0
 11
0.0598415
 21
2.2655099999999999
 31
0.0
  0
LINE
  5
8B
100
AcDbEntity
100
AcDbLine
  8
0
 62
0
370
-1
  6
ByLayer
 10
0.0598415
 20
2.2655099999999999
 30
0.0
 11
0.0663519
 21
2.3704399999999999
 31
0.0
  0
LINE
  5
8C
100
AcDbEntity
100
AcDbLine
  8
0
 62
0
370
-1
  6
ByLayer
 10
0.0663519
 20
2.3704399999999999
 30
0.0
 11
0.0638564
 21
2.48475
 31
0.0
  0
LINE
  5
8D
100
AcDbEntity
100
AcDbLine
  8
0
 62
0
370
-1
  6
ByLayer
 10
0.0638564
 20
2.48475
 30
0.0
 11
0.0531683
 21
2.5947200000000001
 31
0.0
  0
LINE
  5
8E
100
AcDbEntity
100
AcDbLine
  8
0
 62
0
370
-1
  6
ByLayer
 10
0.0531683
 20
2.5947200000000001
 30
0.0
 11
0.0350478
 21
2.6864699999999999
 31
0.0
  0
LINE
  5
8F
100
AcDbEntity
100
AcDbLine
  8
0
 62
0
370
-1
  6
ByLayer
 10
0.0350478
 20
2.6864699999999999
 30
0.0
 11
0.0171983
 21
2.7599900000000002
 31
0.0
  0
LINE
  5
90
100
AcDbEntity
100
AcDbLine
  8
0
 62
0
370
-1
  6
ByLayer
 10
0.0171983
 20
2.7599900000000002
 30
0.0
 11
0.00737847
 21
2.8201499999999999
 31
0.0
  0
LINE
  5
91
100
AcDbEntity
100
AcDbLine
  8
0
 62
0
370
-1
  6
ByLayer
 10
0.00737847
 20
2.8201499999999999
 30
0.0
 11
0.00618489
 21
2.8607900000000002
 31
0.0
  0
LINE
  5
92
100
AcDbEntity
100
AcDbLine
  8
0
 62
0
370
-1
  6
ByLayer
 10
0.00618489
 20
2.8607900000000002
 30
0.0
 11
0.0143229
 21
2.8757100000000002
 31
0.0
  0
LINE
  5
93
100
AcDbEntity
100
AcDbLine
  8
0
 62
0
370
-1
  6
ByLayer
 10
0.0143229
 20
2.8757100000000002
 30
0.0
 11
0.0390625
 21
2.86361
 31
0.0
  0
LINE
  5
94
100
AcDbEntity
100
AcDbLine
  8
0
 62
0
370
-1
  6
ByLayer
 10
0.0390625
 20
2.86361
 30
0.0
 11
0.0832249
 21
2.8305099999999999
 31
0.0
  0
LINE
  5
95
100
AcDbEntity
100
AcDbLine
  8
0
 62
0
370
-1
  6
ByLayer
 10
0.0832249
 20
2.8305099999999999
 30
0.0
 11
0.140463
 21
2.7815699999999999
 31
0.0
  0
LINE
  5
96
100
AcDbEntity
100
AcDbLine
  8
0
 62
0
370
-1
  6
ByLayer
 10
0.140463
 20
2.7815699999999999
 30
0.0
 11
0.204699
 21
2.7217899999999999
 31
0.0
  0
LINE
  5
97
100
AcDbEntity
100
AcDbLine
  8
0
 62
0
370
-1
  6
ByLayer
 10
0.204699
 20
2.7217899999999999
 30
0.0
 11
0.292914
 21
2.64236
 31
0.0
  0
LINE
  5
98
100
AcDbEntity
100
AcDbLine
  8
0
 62
0
370
-1
  6
ByLayer
 10
0.292914
 20
2.64236
 30
0.0
 11
0.360026
 21
2.60303
 31
0.0
  0
LINE
  5
99
100
AcDbEntity
100
AcDbLine
  8
0
 62
0
370
-1
  6
ByLayer
 10
0.360026
 20
2.60303
 30
0.0
 11
0.423719
 21
2.5977600000000001
 31
0.0
  0
LINE
  5
9A
100
AcDbEntity
100
AcDbLine
  8
0
 62
0
370
-1
  6
ByLayer
 10
0.423719
 20
2.5977600000000001
 30
0.0
 11
0.501844
 21
2.6204399999999999
 31
0.0
  0
LINE
  5
9B
100
AcDbEntity
100
AcDbLine
  8
0
 62
0
370
-1
  6
ByLayer
 10
0.501844
 20
2.6204399999999999
 30
0.0
 11
0.645779
 21
2.65767
 31
0.0
  0
LINE
  5
9C
100
AcDbEntity
100
AcDbLine
  8
0
 62
0
370
-1
  6
ByLayer
 10
0.645779
 20
2.65767
 30
0.0
 11
0.807075
 21
2.67096
 31
0.0
  0
LINE
  5
9D
100
AcDbEntity
100
AcDbLine
  8
0
 62
0
370
-1
  6
ByLayer
 10
0.807075
 20
2.67096
 30
0.0
 11
0.967014
 21
2.6602600000000001
 31
0.0
  0
LINE
  5
9E
100
AcDbEntity
100
AcDbLine
  8
0
 62
0
370
-1
  6
ByLayer
 10
0.967014
 20
2.6602600000000001
 30
0.0
 11
1.1068199999999999
 21
2.6254300000000002
 31
0.0
  0
LINE
  5
9F
100
AcDbEntity
100
AcDbLine
  8
0
 62
0
370
-1
  6
ByLayer
 10
1.1068199999999999
 20
2.6254300000000002
 30
0.0
 11
1.17258
 21
2.60656
 31
0.0
  0
LINE
  5
A0
100
AcDbEntity
100
AcDbLine
  8
0
 62
0
370
-1
  6
ByLayer
 10
1.17258
 20
2.60656
 30
0.0
 11
1.22542
 21
2.6080700000000001
 31
0.0
  0
LINE
  5
A1
100
AcDbEntity
100
AcDbLine
  8
0
 62
0
370
-1
  6
ByLayer
 10
1.22542
 20
2.6080700000000001
 30
0.0
 11
1.27355
 21
2.6321699999999999
 31
0.0
  0
LINE
  5
A2
100
AcDbEntity
100
AcDbLine
  8
0
 62
0
370
-1
  6
ByLayer
 10
1.27355
 20
2.6321699999999999
 30
0.0
 11
1.32498
 21
2.6808299999999998
 31
0.0
  0
LINE
  5
A3
100
AcDbEntity
100
AcDbLine
  8
0
 62
0
370
-1
  6
ByLayer
 10
1.32498
 20
2.6808299999999998
 30
0.0
 11
1.3723399999999999
 21
2.7288899999999998
 31
0.0
  0
LINE
  5
A4
100
AcDbEntity
100
AcDbLine
  8
0
 62
0
370
-1
  6
ByLayer
 10
1.3723399999999999
 20
2.7288899999999998
 30
0.0
 11
1.4219900000000001
 21
2.7721399999999998
 31
0.0
  0
LINE
  5
A5
100
AcDbEntity
100
AcDbLine
  8
0
 62
0
370
-1
  6
ByLayer
 10
1.4219900000000001
 20
2.7721399999999998
 30
0.0
 11
1.47037
 21
2.8086000000000002
 31
0.0
  0
LINE
  5
A6
100
AcDbEntity
100
AcDbLine
  8
0
 62
0
370
-1
  6
ByLayer
 10
1.47037
 20
2.8086000000000002
 30
0.0
 11
1.51389
 21
2.8362099999999999
 31
0.0
  0
LINE
  5
A7
100
AcDbEntity
100
AcDbLine
  8
0
 62
0
370
-1
  6
ByLayer
 10
1.51389
 20
2.8362099999999999
 30
0.0
 11
1.5488299999999999
 21
2.85297
 31
0.0
  0
LINE
  5
A8
100
AcDbEntity
100
AcDbLine
  8
0
 62
0
370
-1
  6
ByLayer
 10
1.5488299999999999
 20
2.85297
 30
0.0
 11
1.57172
 21
2.8567800000000001
 31
0.0
  0
LINE
  5
A9
100
AcDbEntity
100
AcDbLine
  8
0
 62
0
370
-1
  6
ByLayer
 10
1.57172
 20
2.8567800000000001
 30
0.0
 11
1.57883
 21
2.84565
 31
0.0
  0
LINE
  5
AA
100
AcDbEntity
100
AcDbLine
  8
0
 62
0
370
-1
  6
ByLayer
 10
1.57883
 20
2.84565
 30
0.0
 11
1.5666800000000001
 21
2.8174899999999998
 31
0.0
  0
LINE
  5
AB
100
AcDbEntity
100
AcDbLine
  8
0
 62
0
370
-1
  6
ByLayer
 10
1.5666800000000001
 20
2.8174899999999998
 30
0.0
 11
1.55013
 21
2.7536900000000002
 31
0.0
  0
LINE
  5
AC
100
AcDbEntity
100
AcDbLine
  8
0
 62
0
370
-1
  6
ByLayer
 10
1.55013
 20
2.7536900000000002
 30
0.0
 11
1.5362899999999999
 21
2.63043
 31
0.0
  0
LINE
  5
AD
100
AcDbEntity
100
AcDbLine
  8
0
 62
0
370
-1
  6
ByLayer
 10
1.5362899999999999
 20
2.63043
 30
0.0
 11
1.52658
 21
2.46556
 31
0.0
  0
LINE
  5
AE
100
AcDbEntity
100
AcDbLine
  8
0
 62
0
370
-1
  6
ByLayer
 10
1.52658
 20
2.46556
 30
0.0
 11
1.52251
 21
2.2766899999999999
 31
0.0
  0
LINE
  5
AF
100
AcDbEntity
100
AcDbLine
  8
0
 62
0
370
-1
  6
ByLayer
 10
1.52251
 20
2.2766899999999999
 30
0.0
 11
1.52121
 21
2.141
 31
0.0
  0
LINE
  5
B0
100
AcDbEntity
100
AcDbLine
  8
0
 62
0
370
-1
  6
ByLayer
 10
1.52121
 20
2.141
 30
0.0
 11
1.5181800000000001
 21
2.0320100000000001
 31
0.0
  0
LINE
  5
B1
100
AcDbEntity
100
AcDbLine
  8
0
 62
0
370
-1
  6
ByLayer
 10
1.5181800000000001
 20
2.0320100000000001
 30
0.0
 11
1.51275
 21
1.9464600000000001
 31
0.0
  0
LINE
  5
B2
100
AcDbEntity
100
AcDbLine
  8
0
 62
0
370
-1
  6
ByLayer
 10
1.51275
 20
1.9464600000000001
 30
0.0
 11
1.5043899999999999
 21
1.8809199999999999
 31
0.0
  0
LINE
  5
B3
100
AcDbEntity
100
AcDbLine
  8
0
 62
0
370
-1
  6
ByLayer
 10
1.5043899999999999
 20
1.8809199999999999
 30
0.0
 11
1.49251
 21
1.83219
 31
0.0
  0
LINE
  5
B4
100
AcDbEntity
100
AcDbLine
  8
0
 62
0
370
-1
  6
ByLayer
 10
1.49251
 20
1.83219
 30
0.0
 11
1.47651
 21
1.79688
 31
0.0
  0
LINE
  5
B5
100
AcDbEntity
100
AcDbLine
  8
0
 62
0
370
-1
  6
ByLayer
 10
1.47651
 20
1.79688
 30
0.0
 11
1.4557199999999999
 21
1.77169
 31
0.0
  0
LINE
  5
B6
100
AcDbEntity
100
AcDbLine
  8
0
 62
0
370
-1
  6
ByLayer
 10
1.4557199999999999
 20
1.77169
 30
0.0
 11
1.42974
 21
1.75319
 31
0.0
  0
LINE
  5
B7
100
AcDbEntity
100
AcDbLine
  8
0
 62
0
370
-1
  6
ByLayer
 10
1.42974
 20
1.75319
 30
0.0
 11
1.39019
 21
1.7238500000000001
 31
0.0
  0
LINE
  5
B8
100
AcDbEntity
100
AcDbLine
  8
0
 62
0
370
-1
  6
ByLayer
 10
1.39019
 20
1.7238500000000001
 30
0.0
 11
1.36816
 21
1.68858
 31
0.0
  0
LINE
  5
B9
100
AcDbEntity
100
AcDbLine
  8
0
 62
0
370
-1
  6
ByLayer
 10
1.36816
 20
1.68858
 30
0.0
 11
1.3629
 21
1.6454599999999999
 31
0.0
  0
LINE
  5
BA
100
AcDbEntity
100
AcDbLine
  8
0
 62
0
370
-1
  6
ByLayer
 10
1.3629
 20
1.6454599999999999
 30
0.0
 11
1.3736999999999999
 21
1.5924400000000001
 31
0.0
  0
LINE
  5
BB
100
AcDbEntity
100
AcDbLine
  8
0
 62
0
370
-1
  6
ByLayer
 10
1.3736999999999999
 20
1.5924400000000001
 30
0.0
 11
1.3834599999999999
 21
1.56033
 31
0.0
  0
LINE
  5
BC
100
AcDbEntity
100
AcDbLine
  8
0
 62
0
370
-1
  6
ByLayer
 10
1.3834599999999999
 20
1.56033
 30
0.0
 11
1.3894899999999999
 21
1.53651
 31
0.0
  0
LINE
  5
BD
100
AcDbEntity
100
AcDbLine
  8
0
 62
0
370
-1
  6
ByLayer
 10
1.3894899999999999
 20
1.53651
 30
0.0
 11
1.39133
 21
1.52078
 31
0.0
  0
LINE
  5
BE
100
AcDbEntity
100
AcDbLine
  8
0
 62
0
370
-1
  6
ByLayer
 10
1.39133
 20
1.52078
 30
0.0
 11
1.38873
 21
1.5126900000000001
 31
0.0
  0
LINE
  5
BF
100
AcDbEntity
100
AcDbLine
  8
0
 62
0
370
-1
  6
ByLayer
 10
1.38873
 20
1.5126900000000001
 30
0.0
 11
1.3811800000000001
 21
1.5120400000000001
 31
0.0
  0
LINE
  5
C0
100
AcDbEntity
100
AcDbLine
  8
0
 62
0
370
-1
  6
ByLayer
 10
1.3811800000000001
 20
1.5120400000000001
 30
0.0
 11
1.36843
 21
1.51844
 31
0.0
  0
LINE
  5
C1
100
AcDbEntity
100
AcDbLine
  8
0
 62
0
370
-1
  6
ByLayer
 10
1.36843
 20
1.51844
 30
0.0
 11
1.3501000000000001
 21
1.53163
 31
0.0
  0
LINE
  5
C2
100
AcDbEntity
100
AcDbLine
  8
0
 62
0
370
-1
  6
ByLayer
 10
1.3501000000000001
 20
1.53163
 30
0.0
 11
1.32585
 21
1.55122
 31
0.0
  0
LINE
  5
C3
100
AcDbEntity
100
AcDbLine
  8
0
 62
0
370
-1
  6
ByLayer
 10
1.32585
 20
1.55122
 30
0.0
 11
1.2864
 21
1.5755300000000001
 31
0.0
  0
LINE
  5
C4
100
AcDbEntity
100
AcDbLine
  8
0
 62
0
370
-1
  6
ByLayer
 10
1.2864
 20
1.5755300000000001
 30
0.0
 11
1.2412099999999999
 21
1.5899000000000001
 31
0.0
  0
LINE
  5
C5
100
AcDbEntity
100
AcDbLine
  8
0
 62
0
370
-1
  6
ByLayer
 10
1.2412099999999999
 20
1.5899000000000001
 30
0.0
 11
1.1953100000000001
 21
1.59338
 31
0.0
  0
LINE
  5
C6
100
AcDbEntity
100
AcDbLine
  8
0
 62
0
370
-1
  6
ByLayer
 10
1.1953100000000001
 20
1.59338
 30
0.0
 11
1.15381
 21
1.5849
 31
0.0
  0
LINE
  5
C7
100
AcDbEntity
100
AcDbLine
  8
0
 62
0
370
-1
  6
ByLayer
 10
1.15381
 20
1.5849
 30
0.0
 11
1.1285799999999999
 21
1.5741700000000001
 31
0.0
  0
LINE
  5
C8
100
AcDbEntity
100
AcDbLine
  8
0
 62
0
370
-1
  6
ByLayer
 10
1.1285799999999999
 20
1.5741700000000001
 30
0.0
 11
1.11154
 21
1.5642400000000001
 31
0.0
  0
LINE
  5
C9
100
AcDbEntity
100
AcDbLine
  8
0
 62
0
370
-1
  6
ByLayer
 10
1.11154
 20
1.5642400000000001
 30
0.0
 11
1.10303
 21
1.5543100000000001
 31
0.0
  0
LINE
  5
CA
100
AcDbEntity
100
AcDbLine
  8
0
 62
0
370
-1
  6
ByLayer
 10
1.10303
 20
1.5543100000000001
 30
0.0
 11
1.1032999999999999
 21
1.5436799999999999
 31
0.0
  0
LINE
  5
CB
100
AcDbEntity
100
AcDbLine
  8
0
 62
0
370
-1
  6
ByLayer
 10
1.1032999999999999
 20
1.5436799999999999
 30
0.0
 11
1.1127400000000001
 21
1.5315700000000001
 31
0.0
  0
LINE
  5
CC
100
AcDbEntity
100
AcDbLine
  8
0
 62
0
370
-1
  6
ByLayer
 10
1.1127400000000001
 20
1.5315700000000001
 30
0.0
 11
1.13167
 21
1.51719
 31
0.0
  0
LINE
  5
CD
100
AcDbEntity
100
AcDbLine
  8
0
 62
0
370
-1
  6
ByLayer
 10
1.13167
 20
1.51719
 30
0.0
 11
1.1603699999999999
 21
1.49983
 31
0.0
  0
LINE
  5
CE
100
AcDbEntity
100
AcDbLine
  8
0
 62
0
370
-1
  6
ByLayer
 10
1.1603699999999999
 20
1.49983
 30
0.0
 11
1.19922
 21
1.47868
 31
0.0
  0
LINE
  5
CF
100
AcDbEntity
100
AcDbLine
  8
0
 62
0
370
-1
  6
ByLayer
 10
1.19922
 20
1.47868
 30
0.0
 11
1.31809
 21
1.39296
 31
0.0
  0
LINE
  5
D0
100
AcDbEntity
100
AcDbLine
  8
0
 62
0
370
-1
  6
ByLayer
 10
1.31809
 20
1.39296
 30
0.0
 11
1.4137900000000001
 21
1.2782100000000001
 31
0.0
  0
LINE
  5
D1
100
AcDbEntity
100
AcDbLine
  8
0
 62
0
370
-1
  6
ByLayer
 10
1.4137900000000001
 20
1.2782100000000001
 30
0.0
 11
1.48481
 21
1.1413800000000001
 31
0.0
  0
LINE
  5
D2
100
AcDbEntity
100
AcDbLine
  8
0
 62
0
370
-1
  6
ByLayer
 10
1.48481
 20
1.1413800000000001
 30
0.0
 11
1.52979
 21
0.989583
 31
0.0
  0
LINE
  5
D3
100
AcDbEntity
100
AcDbLine
  8
0
 62
0
370
-1
  6
ByLayer
 10
1.52979
 20
0.989583
 30
0.0
 11
1.54731
 21
0.829915
 31
0.0
  0
LINE
  5
D4
100
AcDbEntity
100
AcDbLine
  8
0
 62
0
370
-1
  6
ByLayer
 10
1.54731
 20
0.829915
 30
0.0
 11
1.53592
 21
0.6693249999999999
 31
0.0
  0
LINE
  5
D5
100
AcDbEntity
100
AcDbLine
  8
0
 62
0
370
-1
  6
ByLayer
 10
1.53592
 20
0.6693249999999999
 30
0.0
 11
1.4941899999999999
 21
0.514865
 31
0.0
  0
LINE
  5
D6
100
AcDbEntity
100
AcDbLine
  8
0
 62
0
370
-1
  6
ByLayer
 10
1.4941899999999999
 20
0.514865
 30
0.0
 11
1.42079
 21
0.373643
 31
0.0
  0
LINE
  5
D7
100
AcDbEntity
100
AcDbLine
  8
0
 62
0
370
-1
  6
ByLayer
 10
1.42079
 20
0.373643
 30
0.0
 11
1.3763000000000001
 21
0.304417
 31
0.0
  0
LINE
  5
D8
100
AcDbEntity
100
AcDbLine
  8
0
 62
0
370
-1
  6
ByLayer
 10
1.3763000000000001
 20
0.304417
 30
0.0
 11
1.3480399999999999
 21
0.251899
 31
0.0
  0
LINE
  5
D9
100
AcDbEntity
100
AcDbLine
  8
0
 62
0
370
-1
  6
ByLayer
 10
1.3480399999999999
 20
0.251899
 30
0.0
 11
1.3359399999999999
 21
0.216254
 31
0.0
  0
LINE
  5
DA
100
AcDbEntity
100
AcDbLine
  8
0
 62
0
370
-1
  6
ByLayer
 10
1.3359399999999999
 20
0.216254
 30
0.0
 11
1.3399000000000001
 21
0.197592
 31
0.0
  0
LINE
  5
DB
100
AcDbEntity
100
AcDbLine
  8
0
 62
0
370
-1
  6
ByLayer
 10
1.3399000000000001
 20
0.197592
 30
0.0
 11
1.35975
 21
0.19591
 31
0.0
  0
LINE
  5
DC
100
AcDbEntity
100
AcDbLine
  8
0
 62
0
370
-1
  6
ByLayer
 10
1.35975
 20
0.19591
 30
0.0
 11
1.3954599999999999
 21
0.211426
 31
0.0
  0
LINE
  5
DD
100
AcDbEntity
100
AcDbLine
  8
0
 62
0
370
-1
  6
ByLayer
 10
1.3954599999999999
 20
0.211426
 30
0.0
 11
1.4468300000000001
 21
0.244194
 31
0.0
  0
LINE
  5
DE
100
AcDbEntity
100
AcDbLine
  8
0
 62
0
370
-1
  6
ByLayer
 10
1.4468300000000001
 20
0.244194
 30
0.0
 11
1.51383
 21
0.294217
 31
0.0
  0
LINE
  5
DF
100
AcDbEntity
100
AcDbLine
  8
0
 62
0
370
-1
  6
ByLayer
 10
1.51383
 20
0.294217
 30
0.0
 11
1.57389
 21
0.350694
 31
0.0
  0
LINE
  5
E0
100
AcDbEntity
100
AcDbLine
  8
0
 62
0
370
-1
  6
ByLayer
 10
1.57389
 20
0.350694
 30
0.0
 11
1.6153999999999999
 21
0.411729
 31
0.0
  0
LINE
  5
E1
100
AcDbEntity
100
AcDbLine
  8
0
 62
0
370
-1
  6
ByLayer
 10
1.6153999999999999
 20
0.411729
 30
0.0
 11
1.63954
 21
0.4796
 31
0.0
  0
LINE
  5
E2
100
AcDbEntity
100
AcDbLine
  8
0
 62
0
370
-1
  6
ByLayer
 10
1.63954
 20
0.4796
 30
0.0
 11
1.6473500000000001
 21
0.556424
 31
0.0
  0
LINE
  5
E3
100
AcDbEntity
100
AcDbLine
  8
0
 62
0
370
-1
  6
ByLayer
 10
1.6473500000000001
 20
0.556424
 30
0.0
 11
1.6405700000000001
 21
0.667535
 31
0.0
  0
LINE
  5
E4
100
AcDbEntity
100
AcDbLine
  8
0
 62
0
370
-1
  6
ByLayer
 10
1.6405700000000001
 20
0.667535
 30
0.0
 11
1.62229
 21
0.815321
 31
0.0
  0
LINE
  5
E5
100
AcDbEntity
100
AcDbLine
  8
0
 62
0
370
-1
  6
ByLayer
 10
1.62229
 20
0.815321
 30
0.0
 11
1.5953200000000001
 21
0.985081
 31
0.0
  0
LINE
  5
E6
100
AcDbEntity
100
AcDbLine
  8
0
 62
0
370
-1
  6
ByLayer
 10
1.5953200000000001
 20
0.985081
 30
0.0
 11
1.56267
 21
1.16211
 31
0.0
  0
LINE
  5
E7
100
AcDbEntity
100
AcDbLine
  8
0
 62
0
370
-1
  6
ByLayer
 10
1.56267
 20
1.16211
 30
0.0
 11
1.5271300000000001
 21
1.3315999999999999
 31
0.0
  0
LINE
  5
E8
100
AcDbEntity
100
AcDbLine
  8
0
 62
0
370
-1
  6
ByLayer
 10
1.5271300000000001
 20
1.3315999999999999
 30
0.0
 11
1.4916
 21
1.47885
 31
0.0
  0
LINE
  5
E9
100
AcDbEntity
100
AcDbLine
  8
0
 62
0
370
-1
  6
ByLayer
 10
1.4916
 20
1.47885
 30
0.0
 11
1.4591000000000001
 21
1.58914
 31
0.0
  0
LINE
  5
EA
100
AcDbEntity
100
AcDbLine
  8
0
 62
0
370
-1
  6
ByLayer
 10
1.4591000000000001
 20
1.58914
 30
0.0
 11
1.4324600000000001
 21
1.64768
 31
0.0
  0
LINE
  5
EB
100
AcDbEntity
100
AcDbLine
  8
0
 62
0
370
-1
  6
ByLayer
 10
1.4324600000000001
 20
1.64768
 30
0.0
 11
1.4114599999999999
 21
1.6764300000000001
 31
0.0
  0
LINE
  5
EC
100
AcDbEntity
100
AcDbLine
  8
0
 62
0
370
-1
  6
ByLayer
 10
1.4114599999999999
 20
1.6764300000000001
 30
0.0
 11
1.4075
 21
1.6916199999999999
 31
0.0
  0
LINE
  5
ED
100
AcDbEntity
100
AcDbLine
  8
0
 62
0
370
-1
  6
ByLayer
 10
1.4075
 20
1.6916199999999999
 30
0.0
 11
1.4209000000000001
 21
1.69401
 31
0.0
  0
LINE
  5
EE
100
AcDbEntity
100
AcDbLine
  8
0
 62
0
370
-1
  6
ByLayer
 10
1.4209000000000001
 20
1.69401
 30
0.0
 11
1.4521500000000001
 21
1.68435
 31
0.0
  0
LINE
  5
EF
100
AcDbEntity
100
AcDbLine
  8
0
 62
0
370
-1
  6
ByLayer
 10
1.4521500000000001
 20
1.68435
 30
0.0
 11
1.4879599999999999
 21
1.6830000000000001
 31
0.0
  0
LINE
  5
F0
100
AcDbEntity
100
AcDbLine
  8
0
 62
0
370
-1
  6
ByLayer
 10
1.4879599999999999
 20
1.6830000000000001
 30
0.0
 11
1.5224599999999999
 21
1.7070799999999999
 31
0.0
  0
LINE
  5
F1
100
AcDbEntity
100
AcDbLine
  8
0
 62
0
370
-1
  6
ByLayer
 10
1.5224599999999999
 20
1.7070799999999999
 30
0.0
 11
1.55583
 21
1.7568299999999999
 31
0.0
  0
LINE
  5
F2
100
AcDbEntity
100
AcDbLine
  8
0
 62
0
370
-1
  6
ByLayer
 10
1.55583
 20
1.7568299999999999
 30
0.0
 11
1.58832
 21
1.8325100000000001
 31
0.0
  0
LINE
  5
F3
100
AcDbEntity
100
AcDbLine
  8
0
 62
0
370
-1
  6
ByLayer
 10
1.58832
 20
1.8325100000000001
 30
0.0
 11
1.6671
 21
1.9696100000000001
 31
0.0
  0
LINE
  5
F4
100
AcDbEntity
100
AcDbLine
  8
0
 62
0
370
-1
  6
ByLayer
 10
1.6671
 20
1.9696100000000001
 30
0.0
 11
1.7919400000000001
 21
2.08908
 31
0.0
  0
LINE
  5
F5
100
AcDbEntity
100
AcDbLine
  8
0
 62
0
370
-1
  6
ByLayer
 10
1.7919400000000001
 20
2.08908
 30
0.0
 11
1.9500299999999999
 21
2.1813799999999999
 31
0.0
  0
LINE
  5
F6
100
AcDbEntity
100
AcDbLine
  8
0
 62
0
370
-1
  6
ByLayer
 10
1.9500299999999999
 20
2.1813799999999999
 30
0.0
 11
2.1288999999999998
 21
2.2370299999999999
 31
0.0
  0
LINE
  5
F7
100
AcDbEntity
100
AcDbLine
  8
0
 62
0
370
-1
  6
ByLayer
 10
2.1288999999999998
 20
2.2370299999999999
 30
0.0
 11
2.2809699999999999
 21
2.26525
 31
0.0
  0
LINE
  5
F8
100
AcDbEntity
100
AcDbLine
  8
0
 62
0
370
-1
  6
ByLayer
 10
2.2809699999999999
 20
2.26525
 30
0.0
 11
2.1440399999999999
 21
2.2067600000000001
 31
0.0
  0
LINE
  5
F9
100
AcDbEntity
100
AcDbLine
  8
0
 62
0
370
-1
  6
ByLayer
 10
2.1440399999999999
 20
2.2067600000000001
 30
0.0
 11
2.0766100000000001
 21
2.1705700000000001
 31
0.0
  0
LINE
  5
FA
100
AcDbEntity
100
AcDbLine
  8
0
 62
0
370
-1
  6
ByLayer
 10
2.0766100000000001
 20
2.1705700000000001
 30
0.0
 11
2.0227400000000002
 21
2.1212499999999999
 31
0.0
  0
LINE
  5
FB
100
AcDbEntity
100
AcDbLine
  8
0
 62
0
370
-1
  6
ByLayer
 10
2.0227400000000002
 20
2.1212499999999999
 30
0.0
 11
1.98068
 21
2.05219
 31
0.0
  0
LINE
  5
FC
100
AcDbEntity
100
AcDbLine
  8
0
 62
0
370
-1
  6
ByLayer
 10
1.98068
 20
2.05219
 30
0.0
 11
1.9488300000000001
 21
1.9565999999999999
 31
0.0
  0
LINE
  5
FD
100
AcDbEntity
100
AcDbLine
  8
0
 62
0
370
-1
  6
ByLayer
 10
1.9488300000000001
 20
1.9565999999999999
 30
0.0
 11
1.92557
 21
1.82785
 31
0.0
  0
LINE
  5
FE
100
AcDbEntity
100
AcDbLine
  8
0
 62
0
370
-1
  6
ByLayer
 10
1.92557
 20
1.82785
 30
0.0
 11
1.9091800000000001
 21
1.6591800000000001
 31
0.0
  0
LINE
  5
FF
100
AcDbEntity
100
AcDbLine
  8
0
 62
0
370
-1
  6
ByLayer
 10
1.9091800000000001
 20
1.6591800000000001
 30
0.0
 11
1.8979999999999999
 21
1.4439
 31
0.0
  0
LINE
  5
100
100
AcDbEntity
100
AcDbLine
  8
0
 62
0
370
-1
  6
ByLayer
 10
1.8979999999999999
 20
1.4439
 30
0.0
 11
1.8905099999999999
 21
1.1752400000000001
 31
0.0
  0
LINE
  5
101
100
AcDbEntity
100
AcDbLine
  8
0
 62
0
370
-1
  6
ByLayer
 10
1.8905099999999999
 20
1.1752400000000001
 30
0.0
 11
1.88226
 21
0.905707
 31
0.0
  0
LINE
  5
102
100
AcDbEntity
100
AcDbLine
  8
0
 62
0
370
-1
  6
ByLayer
 10
1.88226
 20
0.905707
 30
0.0
 11
1.86849
 21
0.690213
 31
0.0
  0
LINE
  5
103
100
AcDbEntity
100
AcDbLine
  8
0
 62
0
370
-1
  6
ByLayer
 10
1.86849
 20
0.690213
 30
0.0
 11
1.8466800000000001
 21
0.521322
 31
0.0
  0
LINE
  5
104
100
AcDbEntity
100
AcDbLine
  8
0
 62
0
370
-1
  6
ByLayer
 10
1.8466800000000001
 20
0.521322
 30
0.0
 11
1.81413
 21
0.391439
 31
0.0
  0
LINE
  5
105
100
AcDbEntity
100
AcDbLine
  8
0
 62
0
370
-1
  6
ByLayer
 10
1.81413
 20
0.391439
 30
0.0
 11
1.7682800000000001
 21
0.293132
 31
0.0
  0
LINE
  5
106
100
AcDbEntity
100
AcDbLine
  8
0
 62
0
370
-1
  6
ByLayer
 10
1.7682800000000001
 20
0.293132
 30
0.0
 11
1.7065399999999999
 21
0.21875
 31
0.0
  0
LINE
  5
107
100
AcDbEntity
100
AcDbLine
  8
0
 62
0
370
-1
  6
ByLayer
 10
1.7065399999999999
 20
0.21875
 30
0.0
 11
1.62642
 21
0.160807
 31
0.0
  0
LINE
  5
108
100
AcDbEntity
100
AcDbLine
  8
0
 62
0
370
-1
  6
ByLayer
 10
1.62642
 20
0.160807
 30
0.0
 11
1.52522
 21
0.111816
 31
0.0
  0
LINE
  5
109
100
AcDbEntity
100
AcDbLine
  8
0
 62
0
370
-1
  6
ByLayer
 10
1.52522
 20
0.111816
 30
0.0
 11
1.43821
 21
0.0850151
 31
0.0
  0
LINE
  5
10A
100
AcDbEntity
100
AcDbLine
  8
0
 62
0
370
-1
  6
ByLayer
 10
1.43821
 20
0.0850151
 30
0.0
 11
1.3169500000000001
 21
0.0605469
 31
0.0
  0
LINE
  5
10B
100
AcDbEntity
100
AcDbLine
  8
0
 62
0
370
-1
  6
ByLayer
 10
1.3169500000000001
 20
0.0605469
 30
0.0
 11
1.1723600000000001
 21
0.0393881
 31
0.0
  0
LINE
  5
10C
100
AcDbEntity
100
AcDbLine
  8
0
 62
0
370
-1
  6
ByLayer
 10
1.1723600000000001
 20
0.0393881
 30
0.0
 11
1.0154099999999999
 21
0.0226237
 31
0.0
  0
LINE
  5
10D
100
AcDbEntity
100
AcDbLine
  8
0
 62
0
370
-1
  6
ByLayer
 10
1.0154099999999999
 20
0.0226237
 30
0.0
 11
0.8569329999999999
 21
0.011122
 31
0.0
  0
LINE
  5
10E
100
AcDbEntity
100
AcDbLine
  8
0
 62
0
370
-1
  6
ByLayer
 10
0.8569329999999999
 20
0.011122
 30
0.0
 11
0.707844
 21
0.00591363
 31
0.0
  0
LINE
  5
10F
100
AcDbEntity
100
AcDbLine
  8
0
 62
0
370
-1
  6
ByLayer
 10
0.707844
 20
0.00591363
 30
0.0
 11
0.579047
 21
0.00797526
 31
0.0
  0
LINE
  5
110
100
AcDbEntity
100
AcDbLine
  8
0
 62
0
370
-1
  6
ByLayer
 10
0.579047
 20
0.00797526
 30
0.0
 11
0.4815
 21
0.0182292
 31
0.0
  0
LINE
  5
111
100
AcDbEntity
100
AcDbLine
  8
0
 62
0
370
-1
  6
ByLayer
 10
0.4815
 20
0.0182292
 30
0.0
 11
0.4815
 21
0.0182292
 31
0.0
  0
LINE
  5
112
100
AcDbEntity
100
AcDbLine
  8
0
 62
0
370
-1
  6
ByLayer
 10
0.912381
 20
1.81125
 30
0.0
 11
0.916015
 21
1.831
 31
0.0
  0
LINE
  5
113
100
AcDbEntity
100
AcDbLine
  8
0
 62
0
370
-1
  6
ByLayer
 10
0.916015
 20
1.831
 30
0.0
 11
0.90294
 21
1.84711
 31
0.0
  0
LINE
  5
114
100
AcDbEntity
100
AcDbLine
  8
0
 62
0
370
-1
  6
ByLayer
 10
0.90294
 20
1.84711
 30
0.0
 11
0.875543
 21
1.8579600000000001
 31
0.0
  0
LINE
  5
115
100
AcDbEntity
100
AcDbLine
  8
0
 62
0
370
-1
  6
ByLayer
 10
0.875543
 20
1.8579600000000001
 30
0.0
 11
0.836317
 21
1.8619300000000001
 31
0.0
  0
LINE
  5
116
100
AcDbEntity
100
AcDbLine
  8
0
 62
0
370
-1
  6
ByLayer
 10
0.836317
 20
1.8619300000000001
 30
0.0
 11
0.797092
 21
1.8579600000000001
 31
0.0
  0
LINE
  5
117
100
AcDbEntity
100
AcDbLine
  8
0
 62
0
370
-1
  6
ByLayer
 10
0.797092
 20
1.8579600000000001
 30
0.0
 11
0.769694
 21
1.84711
 31
0.0
  0
LINE
  5
118
100
AcDbEntity
100
AcDbLine
  8
0
 62
0
370
-1
  6
ByLayer
 10
0.769694
 20
1.84711
 30
0.0
 11
0.756565
 21
1.831
 31
0.0
  0
LINE
  5
119
100
AcDbEntity
100
AcDbLine
  8
0
 62
0
370
-1
  6
ByLayer
 10
0.756565
 20
1.831
 30
0.0
 11
0.760308
 21
1.81125
 31
0.0
  0
LINE
  5
11A
100
AcDbEntity
100
AcDbLine
  8
0
 62
0
370
-1
  6
ByLayer
 10
0.760308
 20
1.81125
 30
0.0
 11
0.775988
 21
1.7916099999999999
 31
0.0
  0
LINE
  5
11B
100
AcDbEntity
100
AcDbLine
  8
0
 62
0
370
-1
  6
ByLayer
 10
0.775988
 20
1.7916099999999999
 30
0.0
 11
0.7955179999999999
 21
1.7755000000000001
 31
0.0
  0
LINE
  5
11C
100
AcDbEntity
100
AcDbLine
  8
0
 62
0
370
-1
  6
ByLayer
 10
0.7955179999999999
 20
1.7755000000000001
 30
0.0
 11
0.816461
 21
1.7645999999999999
 31
0.0
  0
LINE
  5
11D
100
AcDbEntity
100
AcDbLine
  8
0
 62
0
370
-1
  6
ByLayer
 10
0.816461
 20
1.7645999999999999
 30
0.0
 11
0.836317
 21
1.76058
 31
0.0
  0
LINE
  5
11E
100
AcDbEntity
100
AcDbLine
  8
0
 62
0
370
-1
  6
ByLayer
 10
0.836317
 20
1.76058
 30
0.0
 11
0.856119
 21
1.7645999999999999
 31
0.0
  0
LINE
  5
11F
100
AcDbEntity
100
AcDbLine
  8
0
 62
0
370
-1
  6
ByLayer
 10
0.856119
 20
1.7645999999999999
 30
0.0
 11
0.877115
 21
1.7755000000000001
 31
0.0
  0
LINE
  5
120
100
AcDbEntity
100
AcDbLine
  8
0
 62
0
370
-1
  6
ByLayer
 10
0.877115
 20
1.7755000000000001
 30
0.0
 11
0.896647
 21
1.7916099999999999
 31
0.0
  0
LINE
  5
121
100
AcDbEntity
100
AcDbLine
  8
0
 62
0
370
-1
  6
ByLayer
 10
0.896647
 20
1.7916099999999999
 30
0.0
 11
0.912381
 21
1.81125
 31
0.0
  0
LINE
  5
122
100
AcDbEntity
100
AcDbLine
  8
0
 62
0
370
-1
  6
ByLayer
 10
0.912381
 20
1.81125
 30
0.0
 11
0.912381
 21
1.81125
 31
0.0
  0
LINE
  5
123
100
AcDbEntity
100
AcDbLine
  8
0
 62
0
370
-1
  6
ByLayer
 10
0.631674
 20
2.0417200000000002
 30
0.0
 11
0.601454
 21
2.0702099999999999
 31
0.0
  0
LINE
  5
124
100
AcDbEntity
100
AcDbLine
  8
0
 62
0
370
-1
  6
ByLayer
 10
0.601454
 20
2.0702099999999999
 30
0.0
 11
0.567275
 21
2.08996
 31
0.0
  0
LINE
  5
125
100
AcDbEntity
100
AcDbLine
  8
0
 62
0
370
-1
  6
ByLayer
 10
0.567275
 20
2.08996
 30
0.0
 11
0.533257
 21
2.0990700000000002
 31
0.0
  0
LINE
  5
126
100
AcDbEntity
100
AcDbLine
  8
0
 62
0
370
-1
  6
ByLayer
 10
0.533257
 20
2.0990700000000002
 30
0.0
 11
0.5037430000000001
 21
2.0958600000000001
 31
0.0
  0
LINE
  5
127
100
AcDbEntity
100
AcDbLine
  8
0
 62
0
370
-1
  6
ByLayer
 10
0.5037430000000001
 20
2.0958600000000001
 30
0.0
 11
0.477268
 21
2.0942400000000001
 31
0.0
  0
LINE
  5
128
100
AcDbEntity
100
AcDbLine
  8
0
 62
0
370
-1
  6
ByLayer
 10
0.477268
 20
2.0942400000000001
 30
0.0
 11
0.451768
 21
2.10758
 31
0.0
  0
LINE
  5
129
100
AcDbEntity
100
AcDbLine
  8
0
 62
0
370
-1
  6
ByLayer
 10
0.451768
 20
2.10758
 30
0.0
 11
0.430067
 21
2.1335099999999998
 31
0.0
  0
LINE
  5
12A
100
AcDbEntity
100
AcDbLine
  8
0
 62
0
370
-1
  6
ByLayer
 10
0.430067
 20
2.1335099999999998
 30
0.0
 11
0.415201
 21
2.1696
 31
0.0
  0
LINE
  5
12B
100
AcDbEntity
100
AcDbLine
  8
0
 62
0
370
-1
  6
ByLayer
 10
0.415201
 20
2.1696
 30
0.0
 11
0.399849
 21
2.2033999999999998
 31
0.0
  0
LINE
  5
12C
100
AcDbEntity
100
AcDbLine
  8
0
 62
0
370
-1
  6
ByLayer
 10
0.399849
 20
2.2033999999999998
 30
0.0
 11
0.375217
 21
2.2311800000000002
 31
0.0
  0
LINE
  5
12D
100
AcDbEntity
100
AcDbLine
  8
0
 62
0
370
-1
  6
ByLayer
 10
0.375217
 20
2.2311800000000002
 30
0.0
 11
0.344835
 21
2.25217
 31
0.0
  0
LINE
  5
12E
100
AcDbEntity
100
AcDbLine
  8
0
 62
0
370
-1
  6
ByLayer
 10
0.344835
 20
2.25217
 30
0.0
 11
0.312121
 21
2.26525
 31
0.0
  0
LINE
  5
12F
100
AcDbEntity
100
AcDbLine
  8
0
 62
0
370
-1
  6
ByLayer
 10
0.312121
 20
2.26525
 30
0.0
 11
0.280544
 21
2.2696399999999999
 31
0.0
  0
LINE
  5
130
100
AcDbEntity
100
AcDbLine
  8
0
 62
0
370
-1
  6
ByLayer
 10
0.280544
 20
2.2696399999999999
 30
0.0
 11
0.253743
 21
2.2642099999999998
 31
0.0
  0
LINE
  5
131
100
AcDbEntity
100
AcDbLine
  8
0
 62
0
370
-1
  6
ByLayer
 10
0.253743
 20
2.2642099999999998
 30
0.0
 11
0.235081
 21
2.2481499999999999
 31
0.0
  0
LINE
  5
132
100
AcDbEntity
100
AcDbLine
  8
0
 62
0
370
-1
  6
ByLayer
 10
0.235081
 20
2.2481499999999999
 30
0.0
 11
0.228082
 21
2.2204299999999999
 31
0.0
  0
LINE
  5
133
100
AcDbEntity
100
AcDbLine
  8
0
 62
0
370
-1
  6
ByLayer
 10
0.228082
 20
2.2204299999999999
 30
0.0
 11
0.239367
 21
2.1875
 31
0.0
  0
LINE
  5
134
100
AcDbEntity
100
AcDbLine
  8
0
 62
0
370
-1
  6
ByLayer
 10
0.239367
 20
2.1875
 30
0.0
 11
0.270182
 21
2.14811
 31
0.0
  0
LINE
  5
135
100
AcDbEntity
100
AcDbLine
  8
0
 62
0
370
-1
  6
ByLayer
 10
0.270182
 20
2.14811
 30
0.0
 11
0.315647
 21
2.1055799999999998
 31
0.0
  0
LINE
  5
136
100
AcDbEntity
100
AcDbLine
  8
0
 62
0
370
-1
  6
ByLayer
 10
0.315647
 20
2.1055799999999998
 30
0.0
 11
0.371039
 21
2.06332
 31
0.0
  0
LINE
  5
137
100
AcDbEntity
100
AcDbLine
  8
0
 62
0
370
-1
  6
ByLayer
 10
0.371039
 20
2.06332
 30
0.0
 11
0.431532
 21
2.0245799999999998
 31
0.0
  0
LINE
  5
138
100
AcDbEntity
100
AcDbLine
  8
0
 62
0
370
-1
  6
ByLayer
 10
0.431532
 20
2.0245799999999998
 30
0.0
 11
0.49235
 21
1.99278
 31
0.0
  0
LINE
  5
139
100
AcDbEntity
100
AcDbLine
  8
0
 62
0
370
-1
  6
ByLayer
 10
0.49235
 20
1.99278
 30
0.0
 11
0.548719
 21
1.9712499999999999
 31
0.0
  0
LINE
  5
13A
100
AcDbEntity
100
AcDbLine
  8
0
 62
0
370
-1
  6
ByLayer
 10
0.548719
 20
1.9712499999999999
 30
0.0
 11
0.595919
 21
1.96332
 31
0.0
  0
LINE
  5
13B
100
AcDbEntity
100
AcDbLine
  8
0
 62
0
370
-1
  6
ByLayer
 10
0.595919
 20
1.96332
 30
0.0
 11
0.645128
 21
1.96631
 31
0.0
  0
LINE
  5
13C
100
AcDbEntity
100
AcDbLine
  8
0
 62
0
370
-1
  6
ByLayer
 10
0.645128
 20
1.96631
 30
0.0
 11
0.666287
 21
1.9777100000000001
 31
0.0
  0
LINE
  5
13D
100
AcDbEntity
100
AcDbLine
  8
0
 62
0
370
-1
  6
ByLayer
 10
0.666287
 20
1.9777100000000001
 30
0.0
 11
0.661187
 21
2.0015700000000001
 31
0.0
  0
LINE
  5
13E
100
AcDbEntity
100
AcDbLine
  8
0
 62
0
370
-1
  6
ByLayer
 10
0.661187
 20
2.0015700000000001
 30
0.0
 11
0.631674
 21
2.0417200000000002
 31
0.0
  0
LINE
  5
13F
100
AcDbEntity
100
AcDbLine
  8
0
 62
0
370
-1
  6
ByLayer
 10
0.631674
 20
2.0417200000000002
 30
0.0
 11
0.631674
 21
2.0417200000000002
 31
0.0
  0
LINE
  5
140
100
AcDbEntity
100
AcDbLine
  8
0
 62
0
370
-1
  6
ByLayer
 10
1.27658
 20
2.0735700000000001
 30
0.0
 11
1.32216
 21
2.1189200000000001
 31
0.0
  0
LINE
  5
141
100
AcDbEntity
100
AcDbLine
  8
0
 62
0
370
-1
  6
ByLayer
 10
1.32216
 20
2.1189200000000001
 30
0.0
 11
1.3560700000000001
 21
2.1582599999999998
 31
0.0
  0
LINE
  5
142
100
AcDbEntity
100
AcDbLine
  8
0
 62
0
370
-1
  6
ByLayer
 10
1.3560700000000001
 20
2.1582599999999998
 30
0.0
 11
1.37826
 21
2.19157
 31
0.0
  0
LINE
  5
143
100
AcDbEntity
100
AcDbLine
  8
0
 62
0
370
-1
  6
ByLayer
 10
1.37826
 20
2.19157
 30
0.0
 11
1.3886700000000001
 21
2.2188599999999998
 31
0.0
  0
LINE
  5
144
100
AcDbEntity
100
AcDbLine
  8
0
 62
0
370
-1
  6
ByLayer
 10
1.3886700000000001
 20
2.2188599999999998
 30
0.0
 11
1.38737
 21
2.2401300000000002
 31
0.0
  0
LINE
  5
145
100
AcDbEntity
100
AcDbLine
  8
0
 62
0
370
-1
  6
ByLayer
 10
1.38737
 20
2.2401300000000002
 30
0.0
 11
1.37435
 21
2.2553200000000002
 31
0.0
  0
LINE
  5
146
100
AcDbEntity
100
AcDbLine
  8
0
 62
0
370
-1
  6
ByLayer
 10
1.37435
 20
2.2553200000000002
 30
0.0
 11
1.34961
 21
2.2644299999999999
 31
0.0
  0
LINE
  5
147
100
AcDbEntity
100
AcDbLine
  8
0
 62
0
370
-1
  6
ByLayer
 10
1.34961
 20
2.2644299999999999
 30
0.0
 11
1.31315
 21
2.2674699999999999
 31
0.0
  0
LINE
  5
148
100
AcDbEntity
100
AcDbLine
  8
0
 62
0
370
-1
  6
ByLayer
 10
1.31315
 20
2.2674699999999999
 30
0.0
 11
1.27973
 21
2.25976
 31
0.0
  0
LINE
  5
149
100
AcDbEntity
100
AcDbLine
  8
0
 62
0
370
-1
  6
ByLayer
 10
1.27973
 20
2.25976
 30
0.0
 11
1.2485299999999999
 21
2.2387199999999998
 31
0.0
  0
LINE
  5
14A
100
AcDbEntity
100
AcDbLine
  8
0
 62
0
370
-1
  6
ByLayer
 10
1.2485299999999999
 20
2.2387199999999998
 30
0.0
 11
1.2230399999999999
 21
2.20763
 31
0.0
  0
LINE
  5
14B
100
AcDbEntity
100
AcDbLine
  8
0
 62
0
370
-1
  6
ByLayer
 10
1.2230399999999999
 20
2.20763
 30
0.0
 11
1.2067600000000001
 21
2.1696
 31
0.0
  0
LINE
  5
14C
100
AcDbEntity
100
AcDbLine
  8
0
 62
0
370
-1
  6
ByLayer
 10
1.2067600000000001
 20
2.1696
 30
0.0
 11
1.19184
 21
2.1335099999999998
 31
0.0
  0
LINE
  5
14D
100
AcDbEntity
100
AcDbLine
  8
0
 62
0
370
-1
  6
ByLayer
 10
1.19184
 20
2.1335099999999998
 30
0.0
 11
1.1701900000000001
 21
2.10758
 31
0.0
  0
LINE
  5
14E
100
AcDbEntity
100
AcDbLine
  8
0
 62
0
370
-1
  6
ByLayer
 10
1.1701900000000001
 20
2.10758
 30
0.0
 11
1.14469
 21
2.0942400000000001
 31
0.0
  0
LINE
  5
14F
100
AcDbEntity
100
AcDbLine
  8
0
 62
0
370
-1
  6
ByLayer
 10
1.14469
 20
2.0942400000000001
 30
0.0
 11
1.1182700000000001
 21
2.0958600000000001
 31
0.0
  0
LINE
  5
150
100
AcDbEntity
100
AcDbLine
  8
0
 62
0
370
-1
  6
ByLayer
 10
1.1182700000000001
 20
2.0958600000000001
 30
0.0
 11
1.0887
 21
2.0990700000000002
 31
0.0
  0
LINE
  5
151
100
AcDbEntity
100
AcDbLine
  8
0
 62
0
370
-1
  6
ByLayer
 10
1.0887
 20
2.0990700000000002
 30
0.0
 11
1.0546899999999999
 21
2.08996
 31
0.0
  0
LINE
  5
152
100
AcDbEntity
100
AcDbLine
  8
0
 62
0
370
-1
  6
ByLayer
 10
1.0546899999999999
 20
2.08996
 30
0.0
 11
1.02051
 21
2.0702099999999999
 31
0.0
  0
LINE
  5
153
100
AcDbEntity
100
AcDbLine
  8
0
 62
0
370
-1
  6
ByLayer
 10
1.02051
 20
2.0702099999999999
 30
0.0
 11
0.990343
 21
2.0417200000000002
 31
0.0
  0
LINE
  5
154
100
AcDbEntity
100
AcDbLine
  8
0
 62
0
370
-1
  6
ByLayer
 10
0.990343
 20
2.0417200000000002
 30
0.0
 11
0.9662539999999999
 21
2.0008599999999999
 31
0.0
  0
LINE
  5
155
100
AcDbEntity
100
AcDbLine
  8
0
 62
0
370
-1
  6
ByLayer
 10
0.9662539999999999
 20
2.0008599999999999
 30
0.0
 11
0.970324
 21
1.97401
 31
0.0
  0
LINE
  5
156
100
AcDbEntity
100
AcDbLine
  8
0
 62
0
370
-1
  6
ByLayer
 10
0.970324
 20
1.97401
 30
0.0
 11
0.997017
 21
1.9605600000000001
 31
0.0
  0
LINE
  5
157
100
AcDbEntity
100
AcDbLine
  8
0
 62
0
370
-1
  6
ByLayer
 10
0.997017
 20
1.9605600000000001
 30
0.0
 11
1.0407999999999999
 21
1.96001
 31
0.0
  0
LINE
  5
158
100
AcDbEntity
100
AcDbLine
  8
0
 62
0
370
-1
  6
ByLayer
 10
1.0407999999999999
 20
1.96001
 30
0.0
 11
1.0961399999999999
 21
1.97163
 31
0.0
  0
LINE
  5
159
100
AcDbEntity
100
AcDbLine
  8
0
 62
0
370
-1
  6
ByLayer
 10
1.0961399999999999
 20
1.97163
 30
0.0
 11
1.1575500000000001
 21
1.99485
 31
0.0
  0
LINE
  5
15A
100
AcDbEntity
100
AcDbLine
  8
0
 62
0
370
-1
  6
ByLayer
 10
1.1575500000000001
 20
1.99485
 30
0.0
 11
1.2195100000000001
 21
2.0290300000000001
 31
0.0
  0
LINE
  5
15B
100
AcDbEntity
100
AcDbLine
  8
0
 62
0
370
-1
  6
ByLayer
 10
1.2195100000000001
 20
2.0290300000000001
 30
0.0
 11
1.27658
 21
2.0735700000000001
 31
0.0
  0
LINE
  5
15C
100
AcDbEntity
100
AcDbLine
  8
0
 62
0
370
-1
  6
ByLayer
 10
1.27658
 20
2.0735700000000001
 30
0.0
 11
1.27658
 21
2.0735700000000001
 31
0.0
  0
LINE
  5
15D
100
AcDbEntity
100
AcDbLine
  8
0
 62
1
420
16711680
370
-1
  6
ByLayer
 10
0.4815
 20
0.0182292
 30
0.0
 11
0.40294
 21
0.0338542
 31
0.0
  0
LINE
  5
15E
100
AcDbEntity
100
AcDbLine
  8
0
 62
1
420
16711680
370
-1
  6
ByLayer
 10
0.40294
 20
0.0338542
 30
0.0
 11
0.341797
 21
0.0481771
 31
0.0
  0
LINE
  5
15F
100
AcDbEntity
100
AcDbLine
  8
0
 62
1
420
16711680
370
-1
  6
ByLayer
 10
0.341797
 20
0.0481771
 30
0.0
 11
0.296767
 21
0.062066
 31
0.0
  0
LINE
  5
160
100
AcDbEntity
100
AcDbLine
  8
0
 62
1
420
16711680
370
-1
  6
ByLayer
 10
0.296767
 20
0.062066
 30
0.0
 11
0.266547
 21
0.0762261
 31
0.0
  0
LINE
  5
161
100
AcDbEntity
100
AcDbLine
  8
0
 62
1
420
16711680
370
-1
  6
ByLayer
 10
0.266547
 20
0.0762261
 30
0.0
 11
0.249892
 21
0.0915799
 31
0.0
  0
LINE
  5
162
100
AcDbEntity
100
AcDbLine
  8
0
 62
1
420
16711680
370
-1
  6
ByLayer
 10
0.249892
 20
0.0915799
 30
0.0
 11
0.245606
 21
0.108778
 31
0.0
  0
LINE
  5
163
100
AcDbEntity
100
AcDbLine
  8
0
 62
1
420
16711680
370
-1
  6
ByLayer
 10
0.245606
 20
0.108778
 30
0.0
 11
0.252387
 21
0.128743
 31
0.0
  0
LINE
  5
164
100
AcDbEntity
100
AcDbLine
  8
0
 62
1
420
16711680
370
-1
  6
ByLayer
 10
0.252387
 20
0.128743
 30
0.0
 11
0.269043
 21
0.152126
 31
0.0
  0
LINE
  5
165
100
AcDbEntity
100
AcDbLine
  8
0
 62
1
420
16711680
370
-1
  6
ByLayer
 10
0.269043
 20
0.152126
 30
0.0
 11
0.286187
 21
0.192383
 31
0.0
  0
LINE
  5
166
100
AcDbEntity
100
AcDbLine
  8
0
 62
1
420
16711680
370
-1
  6
ByLayer
 10
0.286187
 20
0.192383
 30
0.0
 11
0.280871
 21
0.247613
 31
0.0
  0
LINE
  5
167
100
AcDbEntity
100
AcDbLine
  8
0
 62
1
420
16711680
370
-1
  6
ByLayer
 10
0.280871
 20
0.247613
 30
0.0
 11
0.252115
 21
0.321506
 31
0.0
  0
LINE
  5
168
100
AcDbEntity
100
AcDbLine
  8
0
 62
1
420
16711680
370
-1
  6
ByLayer
 10
0.252115
 20
0.321506
 30
0.0
 11
0.199001
 21
0.417697
 31
0.0
  0
LINE
  5
169
100
AcDbEntity
100
AcDbLine
  8
0
 62
1
420
16711680
370
-1
  6
ByLayer
 10
0.199001
 20
0.417697
 30
0.0
 11
0.134657
 21
0.547581
 31
0.0
  0
LINE
  5
16A
100
AcDbEntity
100
AcDbLine
  8
0
 62
1
420
16711680
370
-1
  6
ByLayer
 10
0.134657
 20
0.547581
 30
0.0
 11
0.0957574
 21
0.680664
 31
0.0
  0
LINE
  5
16B
100
AcDbEntity
100
AcDbLine
  8
0
 62
1
420
16711680
370
-1
  6
ByLayer
 10
0.0957574
 20
0.680664
 30
0.0
 11
0.0819228
 21
0.814725
 31
0.0
  0
LINE
  5
16C
100
AcDbEntity
100
AcDbLine
  8
0
 62
1
420
16711680
370
-1
  6
ByLayer
 10
0.0819228
 20
0.814725
 30
0.0
 11
0.0927192
 21
0.947374
 31
0.0
  0
LINE
  5
16D
100
AcDbEntity
100
AcDbLine
  8
0
 62
1
420
16711680
370
-1
  6
ByLayer
 10
0.0927192
 20
0.947374
 30
0.0
 11
0.127767
 21
1.07633
 31
0.0
  0
LINE
  5
16E
100
AcDbEntity
100
AcDbLine
  8
0
 62
1
420
16711680
370
-1
  6
ByLayer
 10
0.127767
 20
1.07633
 30
0.0
 11
0.186632
 21
1.1993799999999999
 31
0.0
  0
LINE
  5
16F
100
AcDbEntity
100
AcDbLine
  8
0
 62
1
420
16711680
370
-1
  6
ByLayer
 10
0.186632
 20
1.1993799999999999
 30
0.0
 11
0.268935
 21
1.3141799999999999
 31
0.0
  0
LINE
  5
170
100
AcDbEntity
100
AcDbLine
  8
0
 62
1
420
16711680
370
-1
  6
ByLayer
 10
0.268935
 20
1.3141799999999999
 30
0.0
 11
0.374294
 21
1.4184600000000001
 31
0.0
  0
LINE
  5
171
100
AcDbEntity
100
AcDbLine
  8
0
 62
1
420
16711680
370
-1
  6
ByLayer
 10
0.374294
 20
1.4184600000000001
 30
0.0
 11
0.425944
 21
1.46235
 31
0.0
  0
LINE
  5
172
100
AcDbEntity
100
AcDbLine
  8
0
 62
1
420
16711680
370
-1
  6
ByLayer
 10
0.425944
 20
1.46235
 30
0.0
 11
0.463542
 21
1.4962500000000001
 31
0.0
  0
LINE
  5
173
100
AcDbEntity
100
AcDbLine
  8
0
 62
1
420
16711680
370
-1
  6
ByLayer
 10
0.463542
 20
1.4962500000000001
 30
0.0
 11
0.487739
 21
1.5224
 31
0.0
  0
LINE
  5
174
100
AcDbEntity
100
AcDbLine
  8
0
 62
1
420
16711680
370
-1
  6
ByLayer
 10
0.487739
 20
1.5224
 30
0.0
 11
0.499078
 21
1.5428599999999999
 31
0.0
  0
LINE
  5
175
100
AcDbEntity
100
AcDbLine
  8
0
 62
1
420
16711680
370
-1
  6
ByLayer
 10
0.499078
 20
1.5428599999999999
 30
0.0
 11
0.498156
 21
1.5597399999999999
 31
0.0
  0
LINE
  5
176
100
AcDbEntity
100
AcDbLine
  8
0
 62
1
420
16711680
370
-1
  6
ByLayer
 10
0.498156
 20
1.5597399999999999
 30
0.0
 11
0.485568
 21
1.5751900000000001
 31
0.0
  0
LINE
  5
177
100
AcDbEntity
100
AcDbLine
  8
0
 62
1
420
16711680
370
-1
  6
ByLayer
 10
0.485568
 20
1.5751900000000001
 30
0.0
 11
0.46186
 21
1.59131
 31
0.0
  0
LINE
  5
178
100
AcDbEntity
100
AcDbLine
  8
0
 62
1
420
16711680
370
-1
  6
ByLayer
 10
0.46186
 20
1.59131
 30
0.0
 11
0.427681
 21
1.61019
 31
0.0
  0
LINE
  5
179
100
AcDbEntity
100
AcDbLine
  8
0
 62
1
420
16711680
370
-1
  6
ByLayer
 10
0.427681
 20
1.61019
 30
0.0
 11
0.370063
 21
1.63456
 31
0.0
  0
LINE
  5
17A
100
AcDbEntity
100
AcDbLine
  8
0
 62
1
420
16711680
370
-1
  6
ByLayer
 10
0.370063
 20
1.63456
 30
0.0
 11
0.320367
 21
1.63781
 31
0.0
  0
LINE
  5
17B
100
AcDbEntity
100
AcDbLine
  8
0
 62
1
420
16711680
370
-1
  6
ByLayer
 10
0.320367
 20
1.63781
 30
0.0
 11
0.270182
 21
1.6187100000000001
 31
0.0
  0
LINE
  5
17C
100
AcDbEntity
100
AcDbLine
  8
0
 62
1
420
16711680
370
-1
  6
ByLayer
 10
0.270182
 20
1.6187100000000001
 30
0.0
 11
0.211154
 21
1.5759000000000001
 31
0.0
  0
LINE
  5
17D
100
AcDbEntity
100
AcDbLine
  8
0
 62
1
420
16711680
370
-1
  6
ByLayer
 10
0.211154
 20
1.5759000000000001
 30
0.0
 11
0.173503
 21
1.5461100000000001
 31
0.0
  0
LINE
  5
17E
100
AcDbEntity
100
AcDbLine
  8
0
 62
1
420
16711680
370
-1
  6
ByLayer
 10
0.173503
 20
1.5461100000000001
 30
0.0
 11
0.152181
 21
1.5325599999999999
 31
0.0
  0
LINE
  5
17F
100
AcDbEntity
100
AcDbLine
  8
0
 62
1
420
16711680
370
-1
  6
ByLayer
 10
0.152181
 20
1.5325599999999999
 30
0.0
 11
0.148708
 21
1.5358099999999999
 31
0.0
  0
LINE
  5
180
100
AcDbEntity
100
AcDbLine
  8
0
 62
1
420
16711680
370
-1
  6
ByLayer
 10
0.148708
 20
1.5358099999999999
 30
0.0
 11
0.164714
 21
1.5565800000000001
 31
0.0
  0
LINE
  5
181
100
AcDbEntity
100
AcDbLine
  8
0
 62
1
420
16711680
370
-1
  6
ByLayer
 10
0.164714
 20
1.5565800000000001
 30
0.0
 11
0.191461
 21
1.5913600000000001
 31
0.0
  0
LINE
  5
182
100
AcDbEntity
100
AcDbLine
  8
0
 62
1
420
16711680
370
-1
  6
ByLayer
 10
0.191461
 20
1.5913600000000001
 30
0.0
 11
0.210721
 21
1.62463
 31
0.0
  0
LINE
  5
183
100
AcDbEntity
100
AcDbLine
  8
0
 62
1
420
16711680
370
-1
  6
ByLayer
 10
0.210721
 20
1.62463
 30
0.0
 11
0.222547
 21
1.65429
 31
0.0
  0
LINE
  5
184
100
AcDbEntity
100
AcDbLine
  8
0
 62
1
420
16711680
370
-1
  6
ByLayer
 10
0.222547
 20
1.65429
 30
0.0
 11
0.226779
 21
1.6779999999999999
 31
0.0
  0
LINE
  5
185
100
AcDbEntity
100
AcDbLine
  8
0
 62
1
420
16711680
370
-1
  6
ByLayer
 10
0.226779
 20
1.6779999999999999
 30
0.0
 11
0.223415
 21
1.69363
 31
0.0
  0
LINE
  5
186
100
AcDbEntity
100
AcDbLine
  8
0
 62
1
420
16711680
370
-1
  6
ByLayer
 10
0.223415
 20
1.69363
 30
0.0
 11
0.212403
 21
1.69889
 31
0.0
  0
LINE
  5
187
100
AcDbEntity
100
AcDbLine
  8
0
 62
1
420
16711680
370
-1
  6
ByLayer
 10
0.212403
 20
1.69889
 30
0.0
 11
0.193685
 21
1.69157
 31
0.0
  0
LINE
  5
188
100
AcDbEntity
100
AcDbLine
  8
0
 62
1
420
16711680
370
-1
  6
ByLayer
 10
0.193685
 20
1.69157
 30
0.0
 11
0.16721
 21
1.6693199999999999
 31
0.0
  0
LINE
  5
189
100
AcDbEntity
100
AcDbLine
  8
0
 62
1
420
16711680
370
-1
  6
ByLayer
 10
0.16721
 20
1.6693199999999999
 30
0.0
 11
0.130317
 21
1.6366099999999999
 31
0.0
  0
LINE
  5
18A
100
AcDbEntity
100
AcDbLine
  8
0
 62
1
420
16711680
370
-1
  6
ByLayer
 10
0.130317
 20
1.6366099999999999
 30
0.0
 11
0.0991211
 21
1.61649
 31
0.0
  0
LINE
  5
18B
100
AcDbEntity
100
AcDbLine
  8
0
 62
1
420
16711680
370
-1
  6
ByLayer
 10
0.0991211
 20
1.61649
 30
0.0
 11
0.074924
 21
1.6080700000000001
 31
0.0
  0
LINE
  5
18C
100
AcDbEntity
100
AcDbLine
  8
0
 62
1
420
16711680
370
-1
  6
ByLayer
 10
0.074924
 20
1.6080700000000001
 30
0.0
 11
0.0589735
 21
1.6105700000000001
 31
0.0
  0
LINE
  5
18D
100
AcDbEntity
100
AcDbLine
  8
0
 62
1
420
16711680
370
-1
  6
ByLayer
 10
0.0589735
 20
1.6105700000000001
 30
0.0
 11
0.0525717
 21
1.62304
 31
0.0
  0
LINE
  5
18E
100
AcDbEntity
100
AcDbLine
  8
0
 62
1
420
16711680
370
-1
  6
ByLayer
 10
0.0525717
 20
1.62304
 30
0.0
 11
0.0569119
 21
1.64469
 31
0.0
  0
LINE
  5
18F
100
AcDbEntity
100
AcDbLine
  8
0
 62
1
420
16711680
370
-1
  6
ByLayer
 10
0.0569119
 20
1.64469
 30
0.0
 11
0.073405
 21
1.6746399999999999
 31
0.0
  0
LINE
  5
190
100
AcDbEntity
100
AcDbLine
  8
0
 62
1
420
16711680
370
-1
  6
ByLayer
 10
0.073405
 20
1.6746399999999999
 30
0.0
 11
0.103299
 21
1.7120299999999999
 31
0.0
  0
LINE
  5
191
100
AcDbEntity
100
AcDbLine
  8
0
 62
1
420
16711680
370
-1
  6
ByLayer
 10
0.103299
 20
1.7120299999999999
 30
0.0
 11
0.133247
 21
1.74539
 31
0.0
  0
LINE
  5
192
100
AcDbEntity
100
AcDbLine
  8
0
 62
1
420
16711680
370
-1
  6
ByLayer
 10
0.133247
 20
1.74539
 30
0.0
 11
0.154622
 21
1.7701199999999999
 31
0.0
  0
LINE
  5
193
100
AcDbEntity
100
AcDbLine
  8
0
 62
1
420
16711680
370
-1
  6
ByLayer
 10
0.154622
 20
1.7701199999999999
 30
0.0
 11
0.167264
 21
1.7869999999999999
 31
0.0
  0
LINE
  5
194
100
AcDbEntity
100
AcDbLine
  8
0
 62
1
420
16711680
370
-1
  6
ByLayer
 10
0.167264
 20
1.7869999999999999
 30
0.0
 11
0.171169
 21
1.7967599999999999
 31
0.0
  0
LINE
  5
195
100
AcDbEntity
100
AcDbLine
  8
0
 62
1
420
16711680
370
-1
  6
ByLayer
 10
0.171169
 20
1.7967599999999999
 30
0.0
 11
0.166342
 21
1.80003
 31
0.0
  0
LINE
  5
196
100
AcDbEntity
100
AcDbLine
  8
0
 62
1
420
16711680
370
-1
  6
ByLayer
 10
0.166342
 20
1.80003
 30
0.0
 11
0.152615
 21
1.7976399999999999
 31
0.0
  0
LINE
  5
197
100
AcDbEntity
100
AcDbLine
  8
0
 62
1
420
16711680
370
-1
  6
ByLayer
 10
0.152615
 20
1.7976399999999999
 30
0.0
 11
0.129991
 21
1.7902499999999999
 31
0.0
  0
LINE
  5
198
100
AcDbEntity
100
AcDbLine
  8
0
 62
1
420
16711680
370
-1
  6
ByLayer
 10
0.129991
 20
1.7902499999999999
 30
0.0
 11
0.09847
 21
1.7786
 31
0.0
  0
LINE
  5
199
100
AcDbEntity
100
AcDbLine
  8
0
 62
1
420
16711680
370
-1
  6
ByLayer
 10
0.09847
 20
1.7786
 30
0.0
 11
0.0507813
 21
1.76275
 31
0.0
  0
LINE
  5
19A
100
AcDbEntity
100
AcDbLine
  8
0
 62
1
420
16711680
370
-1
  6
ByLayer
 10
0.0507813
 20
1.76275
 30
0.0
 11
0.0297308
 21
1.7625299999999999
 31
0.0
  0
LINE
  5
19B
100
AcDbEntity
100
AcDbLine
  8
0
 62
1
420
16711680
370
-1
  6
ByLayer
 10
0.0297308
 20
1.7625299999999999
 30
0.0
 11
0.0335286
 21
1.7797400000000001
 31
0.0
  0
LINE
  5
19C
100
AcDbEntity
100
AcDbLine
  8
0
 62
1
420
16711680
370
-1
  6
ByLayer
 10
0.0335286
 20
1.7797400000000001
 30
0.0
 11
0.0604383
 21
1.8161400000000001
 31
0.0
  0
LINE
  5
19D
100
AcDbEntity
100
AcDbLine
  8
0
 62
1
420
16711680
370
-1
  6
ByLayer
 10
0.0604383
 20
1.8161400000000001
 30
0.0
 11
0.082411
 21
1.8521099999999999
 31
0.0
  0
LINE
  5
19E
100
AcDbEntity
100
AcDbLine
  8
0
 62
1
420
16711680
370
-1
  6
ByLayer
 10
0.082411
 20
1.8521099999999999
 30
0.0
 11
0.0926107
 21
1.88992
 31
0.0
  0
LINE
  5
19F
100
AcDbEntity
100
AcDbLine
  8
0
 62
1
420
16711680
370
-1
  6
ByLayer
 10
0.0926107
 20
1.88992
 30
0.0
 11
0.0907661
 21
1.92736
 31
0.0
  0
LINE
  5
1A0
100
AcDbEntity
100
AcDbLine
  8
0
 62
1
420
16711680
370
-1
  6
ByLayer
 10
0.0907661
 20
1.92736
 30
0.0
 11
0.0766601
 21
1.96224
 31
0.0
  0
LINE
  5
1A1
100
AcDbEntity
100
AcDbLine
  8
0
 62
1
420
16711680
370
-1
  6
ByLayer
 10
0.0766601
 20
1.96224
 30
0.0
 11
0.0616319
 21
2.0083600000000001
 31
0.0
  0
LINE
  5
1A2
100
AcDbEntity
100
AcDbLine
  8
0
 62
1
420
16711680
370
-1
  6
ByLayer
 10
0.0616319
 20
2.0083600000000001
 30
0.0
 11
0.0534397
 21
2.0808900000000001
 31
0.0
  0
LINE
  5
1A3
100
AcDbEntity
100
AcDbLine
  8
0
 62
1
420
16711680
370
-1
  6
ByLayer
 10
0.0534397
 20
2.0808900000000001
 30
0.0
 11
0.0526801
 21
2.1699199999999998
 31
0.0
  0
LINE
  5
1A4
100
AcDbEntity
100
AcDbLine
  8
0
 62
1
420
16711680
370
-1
  6
ByLayer
 10
0.0526801
 20
2.1699199999999998
 30
0.0
 11
0.0598415
 21
2.2655099999999999
 31
0.0
  0
LINE
  5
1A5
100
AcDbEntity
100
AcDbLine
  8
0
 62
1
420
16711680
370
-1
  6
ByLayer
 10
0.0598415
 20
2.2655099999999999
 30
0.0
 11
0.0663519
 21
2.3704399999999999
 31
0.0
  0
LINE
  5
1A6
100
AcDbEntity
100
AcDbLine
  8
0
 62
1
420
16711680
370
-1
  6
ByLayer
 10
0.0663519
 20
2.3704399999999999
 30
0.0
 11
0.0638564
 21
2.48475
 31
0.0
  0
LINE
  5
1A7
100
AcDbEntity
100
AcDbLine
  8
0
 62
1
420
16711680
370
-1
  6
ByLayer
 10
0.0638564
 20
2.48475
 30
0.0
 11
0.0531683
 21
2.5947200000000001
 31
0.0
  0
LINE
  5
1A8
100
AcDbEntity
100
AcDbLine
  8
0
 62
1
420
16711680
370
-1
  6
ByLayer
 10
0.0531683
 20
2.5947200000000001
 30
0.0
 11
0.0350478
 21
2.6864699999999999
 31
0.0
  0
LINE
  5
1A9
100
AcDbEntity
100
AcDbLine
  8
0
 62
1
420
16711680
370
-1
  6
ByLayer
 10
0.0350478
 20
2.6864699999999999
 30
0.0
 11
0.0171983
 21
2.7599900000000002
 31
0.0
  0
LINE
  5
1AA
100
AcDbEntity
100
AcDbLine
  8
0
 62
1
420
16711680
370
-1
  6
ByLayer
 10
0.0171983
 20
2.7599900000000002
 30
0.0
 11
0.00737847
 21
2.8201499999999999
 31
0.0
  0
LINE
  5
1AB
100
AcDbEntity
100
AcDbLine
  8
0
 62
1
420
16711680
370
-1
  6
ByLayer
 10
0.00737847
 20
2.8201499999999999
 30
0.0
 11
0.00618489
 21
2.8607900000000002
 31
0.0
  0
LINE
  5
1AC
100
AcDbEntity
100
AcDbLine
  8
0
 62
1
420
16711680
370
-1
  6
ByLayer
 10
0.00618489
 20
2.8607900000000002
 30
0.0
 11
0.0143229
 21
2.8757100000000002
 31
0.0
  0
LINE
  5
1AD
100
AcDbEntity
100
AcDbLine
  8
0
 62
1
420
16711680
370
-1
  6
ByLayer
 10
0.0143229
 20
2.8757100000000002
 30
0.0
 11
0.0390625
 21
2.86361
 31
0.0
  0
LINE
  5
1AE
100
AcDbEntity
100
AcDbLine
  8
0
 62
1
420
16711680
370
-1
  6
ByLayer
 10
0.0390625
 20
2.86361
 30
0.0
 11
0.0832249
 21
2.8305099999999999
 31
0.0
  0
LINE
  5
1AF
100
AcDbEntity
100
AcDbLine
  8
0
 62
1
420
16711680
370
-1
  6
ByLayer
 10
0.0832249
 20
2.8305099999999999
 30
0.0
 11
0.140463
 21
2.7815699999999999
 31
0.0
  0
LINE
  5
1B0
100
AcDbEntity
100
AcDbLine
  8
0
 62
1
420
16711680
370
-1
  6
ByLayer
 10
0.140463
 20
2.7815699999999999
 30
0.0
 11
0.204699
 21
2.7217899999999999
 31
0.0
  0
LINE
  5
1B1
100
AcDbEntity
100
AcDbLine
  8
0
 62
1
420
16711680
370
-1
  6
ByLayer
 10
0.204699
 20
2.7217899999999999
 30
0.0
 11
0.292914
 21
2.64236
 31
0.0
  0
LINE
  5
1B2
100
AcDbEntity
100
AcDbLine
  8
0
 62
1
420
16711680
370
-1
  6
ByLayer
 10
0.292914
 20
2.64236
 30
0.0
 11
0.360026
 21
2.60303
 31
0.0
  0
LINE
  5
1B3
100
AcDbEntity
100
AcDbLine
  8
0
 62
1
420
16711680
370
-1
  6
ByLayer
 10
0.360026
 20
2.60303
 30
0.0
 11
0.423719
 21
2.5977600000000001
 31
0.0
  0
LINE
  5
1B4
100
AcDbEntity
100
AcDbLine
  8
0
 62
1
420
16711680
370
-1
  6
ByLayer
 10
0.423719
 20
2.5977600000000001
 30
0.0
 11
0.501844
 21
2.6204399999999999
 31
0.0
  0
LINE
  5
1B5
100
AcDbEntity
100
AcDbLine
  8
0
 62
1
420
16711680
370
-1
  6
ByLayer
 10
0.501844
 20
2.6204399999999999
 30
0.0
 11
0.645779
 21
2.65767
 31
0.0
  0
LINE
  5
1B6
100
AcDbEntity
100
AcDbLine
  8
0
 62
1
420
16711680
370
-1
  6
ByLayer
 10
0.645779
 20
2.65767
 30
0.0
 11
0.807075
 21
2.67096
 31
0.0
  0
LINE
  5
1B7
100
AcDbEntity
100
AcDbLine
  8
0
 62
1
420
16711680
370
-1
  6
ByLayer
 10
0.807075
 20
2.67096
 30
0.0
 11
0.967014
 21
2.66032
 31
0.0
  0
LINE
  5
1B8
100
AcDbEntity
100
AcDbLine
  8
0
 62
1
420
16711680
370
-1
  6
ByLayer
 10
0.967014
 20
2.66032
 30
0.0
 11
1.1068199999999999
 21
2.6254300000000002
 31
0.0
  0
LINE
  5
1B9
100
AcDbEntity
100
AcDbLine
  8
0
 62
1
420
16711680
370
-1
  6
ByLayer
 10
1.1068199999999999
 20
2.6254300000000002
 30
0.0
 11
1.17258
 21
2.60656
 31
0.0
  0
LINE
  5
1BA
100
AcDbEntity
100
AcDbLine
  8
0
 62
1
420
16711680
370
-1
  6
ByLayer
 10
1.17258
 20
2.60656
 30
0.0
 11
1.22542
 21
2.6080700000000001
 31
0.0
  0
LINE
  5
1BB
100
AcDbEntity
100
AcDbLine
  8
0
 62
1
420
16711680
370
-1
  6
ByLayer
 10
1.22542
 20
2.6080700000000001
 30
0.0
 11
1.27355
 21
2.6321699999999999
 31
0.0
  0
LINE
  5
1BC
100
AcDbEntity
100
AcDbLine
  8
0
 62
1
420
16711680
370
-1
  6
ByLayer
 10
1.27355
 20
2.6321699999999999
 30
0.0
 11
1.32498
 21
2.6808299999999998
 31
0.0
  0
LINE
  5
1BD
100
AcDbEntity
100
AcDbLine
  8
0
 62
1
420
16711680
370
-1
  6
ByLayer
 10
1.32498
 20
2.6808299999999998
 30
0.0
 11
1.3723399999999999
 21
2.7288899999999998
 31
0.0
  0
LINE
  5
1BE
100
AcDbEntity
100
AcDbLine
  8
0
 62
1
420
16711680
370
-1
  6
ByLayer
 10
1.3723399999999999
 20
2.7288899999999998
 30
0.0
 11
1.4219900000000001
 21
2.7721399999999998
 31
0.0
  0
LINE
  5
1BF
100
AcDbEntity
100
AcDbLine
  8
0
 62
1
420
16711680
370
-1
  6
ByLayer
 10
1.4219900000000001
 20
2.7721399999999998
 30
0.0
 11
1.47037
 21
2.8086000000000002
 31
0.0
  0
LINE
  5
1C0
100
AcDbEntity
100
AcDbLine
  8
0
 62
1
420
16711680
370
-1
  6
ByLayer
 10
1.47037
 20
2.8086000000000002
 30
0.0
 11
1.51389
 21
2.8362099999999999
 31
0.0
  0
LINE
  5
1C1
100
AcDbEntity
100
AcDbLine
  8
0
 62
1
420
16711680
370
-1
  6
ByLayer
 10
1.51389
 20
2.8362099999999999
 30
0.0
 11
1.5488299999999999
 21
2.85297
 31
0.0
  0
LINE
  5
1C2
100
AcDbEntity
100
AcDbLine
  8
0
 62
1
420
16711680
370
-1
  6
ByLayer
 10
1.5488299999999999
 20
2.85297
 30
0.0
 11
1.57172
 21
2.8567800000000001
 31
0.0
  0
LINE
  5
1C3
100
AcDbEntity
100
AcDbLine
  8
0
 62
1
420
16711680
370
-1
  6
ByLayer
 10
1.57172
 20
2.8567800000000001
 30
0.0
 11
1.57883
 21
2.84565
 31
0.0
  0
LINE
  5
1C4
100
AcDbEntity
100
AcDbLine
  8
0
 62
1
420
16711680
370
-1
  6
ByLayer
 10
1.57883
 20
2.84565
 30
0.0
 11
1.5666800000000001
 21
2.8174899999999998
 31
0.0
  0
LINE
  5
1C5
100
AcDbEntity
100
AcDbLine
  8
0
 62
1
420
16711680
370
-1
  6
ByLayer
 10
1.5666800000000001
 20
2.8174899999999998
 30
0.0
 11
1.55013
 21
2.7536900000000002
 31
0.0
  0
LINE
  5
1C6
100
AcDbEntity
100
AcDbLine
  8
0
 62
1
420
16711680
370
-1
  6
ByLayer
 10
1.55013
 20
2.7536900000000002
 30
0.0
 11
1.5362899999999999
 21
2.63049
 31
0.0
  0
LINE
  5
1C7
100
AcDbEntity
100
AcDbLine
  8
0
 62
1
420
16711680
370
-1
  6
ByLayer
 10
1.5362899999999999
 20
2.63049
 30
0.0
 11
1.52658
 21
2.46556
 31
0.0
  0
LINE
  5
1C8
100
AcDbEntity
100
AcDbLine
  8
0
 62
1
420
16711680
370
-1
  6
ByLayer
 10
1.52658
 20
2.46556
 30
0.0
 11
1.52251
 21
2.2766899999999999
 31
0.0
  0
LINE
  5
1C9
100
AcDbEntity
100
AcDbLine
  8
0
 62
1
420
16711680
370
-1
  6
ByLayer
 10
1.52251
 20
2.2766899999999999
 30
0.0
 11
1.52121
 21
2.141
 31
0.0
  0
LINE
  5
1CA
100
AcDbEntity
100
AcDbLine
  8
0
 62
1
420
16711680
370
-1
  6
ByLayer
 10
1.52121
 20
2.141
 30
0.0
 11
1.5181800000000001
 21
2.0320100000000001
 31
0.0
  0
LINE
  5
1CB
100
AcDbEntity
100
AcDbLine
  8
0
 62
1
420
16711680
370
-1
  6
ByLayer
 10
1.5181800000000001
 20
2.0320100000000001
 30
0.0
 11
1.51275
 21
1.9464600000000001
 31
0.0
  0
LINE
  5
1CC
100
AcDbEntity
100
AcDbLine
  8
0
 62
1
420
16711680
370
-1
  6
ByLayer
 10
1.51275
 20
1.9464600000000001
 30
0.0
 11
1.5043899999999999
 21
1.88097
 31
0.0
  0
LINE
  5
1CD
100
AcDbEntity
100
AcDbLine
  8
0
 62
1
420
16711680
370
-1
  6
ByLayer
 10
1.5043899999999999
 20
1.88097
 30
0.0
 11
1.49251
 21
1.8322499999999999
 31
0.0
  0
LINE
  5
1CE
100
AcDbEntity
100
AcDbLine
  8
0
 62
1
420
16711680
370
-1
  6
ByLayer
 10
1.49251
 20
1.8322499999999999
 30
0.0
 11
1.47651
 21
1.7969299999999999
 31
0.0
  0
LINE
  5
1CF
100
AcDbEntity
100
AcDbLine
  8
0
 62
1
420
16711680
370
-1
  6
ByLayer
 10
1.47651
 20
1.7969299999999999
 30
0.0
 11
1.4557199999999999
 21
1.77169
 31
0.0
  0
LINE
  5
1D0
100
AcDbEntity
100
AcDbLine
  8
0
 62
1
420
16711680
370
-1
  6
ByLayer
 10
1.4557199999999999
 20
1.77169
 30
0.0
 11
1.42974
 21
1.75319
 31
0.0
  0
LINE
  5
1D1
100
AcDbEntity
100
AcDbLine
  8
0
 62
1
420
16711680
370
-1
  6
ByLayer
 10
1.42974
 20
1.75319
 30
0.0
 11
1.39019
 21
1.7238500000000001
 31
0.0
  0
LINE
  5
1D2
100
AcDbEntity
100
AcDbLine
  8
0
 62
1
420
16711680
370
-1
  6
ByLayer
 10
1.39019
 20
1.7238500000000001
 30
0.0
 11
1.36816
 21
1.68858
 31
0.0
  0
LINE
  5
1D3
100
AcDbEntity
100
AcDbLine
  8
0
 62
1
420
16711680
370
-1
  6
ByLayer
 10
1.36816
 20
1.68858
 30
0.0
 11
1.3629
 21
1.6454599999999999
 31
0.0
  0
LINE
  5
1D4
100
AcDbEntity
100
AcDbLine
  8
0
 62
1
420
16711680
370
-1
  6
ByLayer
 10
1.3629
 20
1.6454599999999999
 30
0.0
 11
1.3736999999999999
 21
1.5924400000000001
 31
0.0
  0
LINE
  5
1D5
100
AcDbEntity
100
AcDbLine
  8
0
 62
1
420
16711680
370
-1
  6
ByLayer
 10
1.3736999999999999
 20
1.5924400000000001
 30
0.0
 11
1.3834599999999999
 21
1.56033
 31
0.0
  0
LINE
  5
1D6
100
AcDbEntity
100
AcDbLine
  8
0
 62
1
420
16711680
370
-1
  6
ByLayer
 10
1.3834599999999999
 20
1.56033
 30
0.0
 11
1.3894899999999999
 21
1.53651
 31
0.0
  0
LINE
  5
1D7
100
AcDbEntity
100
AcDbLine
  8
0
 62
1
420
16711680
370
-1
  6
ByLayer
 10
1.3894899999999999
 20
1.53651
 30
0.0
 11
1.39133
 21
1.52078
 31
0.0
  0
LINE
  5
1D8
100
AcDbEntity
100
AcDbLine
  8
0
 62
1
420
16711680
370
-1
  6
ByLayer
 10
1.39133
 20
1.52078
 30
0.0
 11
1.38873
 21
1.5126900000000001
 31
0.0
  0
LINE
  5
1D9
100
AcDbEntity
100
AcDbLine
  8
0
 62
1
420
16711680
370
-1
  6
ByLayer
 10
1.38873
 20
1.5126900000000001
 30
0.0
 11
1.3811800000000001
 21
1.5120400000000001
 31
0.0
  0
LINE
  5
1DA
100
AcDbEntity
100
AcDbLine
  8
0
 62
1
420
16711680
370
-1
  6
ByLayer
 10
1.3811800000000001
 20
1.5120400000000001
 30
0.0
 11
1.36843
 21
1.51844
 31
0.0
  0
LINE
  5
1DB
100
AcDbEntity
100
AcDbLine
  8
0
 62
1
420
16711680
370
-1
  6
ByLayer
 10
1.36843
 20
1.51844
 30
0.0
 11
1.3501000000000001
 21
1.53163
 31
0.0
  0
LINE
  5
1DC
100
AcDbEntity
100
AcDbLine
  8
0
 62
1
420
16711680
370
-1
  6
ByLayer
 10
1.3501000000000001
 20
1.53163
 30
0.0
 11
1.32585
 21
1.55122
 31
0.0
  0
LINE
  5
1DD
100
AcDbEntity
100
AcDbLine
  8
0
 62
1
420
16711680
370
-1
  6
ByLayer
 10
1.32585
 20
1.55122
 30
0.0
 11
1.2864
 21
1.5755300000000001
 31
0.0
  0
LINE
  5
1DE
100
AcDbEntity
100
AcDbLine
  8
0
 62
1
420
16711680
370
-1
  6
ByLayer
 10
1.2864
 20
1.5755300000000001
 30
0.0
 11
1.2412099999999999
 21
1.5899000000000001
 31
0.0
  0
LINE
  5
1DF
100
AcDbEntity
100
AcDbLine
  8
0
 62
1
420
16711680
370
-1
  6
ByLayer
 10
1.2412099999999999
 20
1.5899000000000001
 30
0.0
 11
1.1953100000000001
 21
1.59338
 31
0.0
  0
LINE
  5
1E0
100
AcDbEntity
100
AcDbLine
  8
0
 62
1
420
16711680
370
-1
  6
ByLayer
 10
1.1953100000000001
 20
1.59338
 30
0.0
 11
1.15381
 21
1.5849
 31
0.0
  0
LINE
  5
1E1
100
AcDbEntity
100
AcDbLine
  8
0
 62
1
420
16711680
370
-1
  6
ByLayer
 10
1.15381
 20
1.5849
 30
0.0
 11
1.1285799999999999
 21
1.5741700000000001
 31
0.0
  0
LINE
  5
1E2
100
AcDbEntity
100
AcDbLine
  8
0
 62
1
420
16711680
370
-1
  6
ByLayer
 10
1.1285799999999999
 20
1.5741700000000001
 30
0.0
 11
1.11154
 21
1.5642400000000001
 31
0.0
  0
LINE
  5
1E3
100
AcDbEntity
100
AcDbLine
  8
0
 62
1
420
16711680
370
-1
  6
ByLayer
 10
1.11154
 20
1.5642400000000001
 30
0.0
 11
1.10303
 21
1.5543100000000001
 31
0.0
  0
LINE
  5
1E4
100
AcDbEntity
100
AcDbLine
  8
0
 62
1
420
16711680
370
-1
  6
ByLayer
 10
1.10303
 20
1.5543100000000001
 30
0.0
 11
1.1032999999999999
 21
1.5436799999999999
 31
0.0
  0
LINE
  5
1E5
100
AcDbEntity
100
AcDbLine
  8
0
 62
1
420
16711680
370
-1
  6
ByLayer
 10
1.1032999999999999
 20
1.5436799999999999
 30
0.0
 11
1.1127400000000001
 21
1.5315700000000001
 31
0.0
  0
LINE
  5
1E6
100
AcDbEntity
100
AcDbLine
  8
0
 62
1
420
16711680
370
-1
  6
ByLayer
 10
1.1127400000000001
 20
1.5315700000000001
 30
0.0
 11
1.13167
 21
1.51719
 31
0.0
  0
LINE
  5
1E7
100
AcDbEntity
100
AcDbLine
  8
0
 62
1
420
16711680
370
-1
  6
ByLayer
 10
1.13167
 20
1.51719
 30
0.0
 11
1.1603699999999999
 21
1.49983
 31
0.0
  0
LINE
  5
1E8
100
AcDbEntity
100
AcDbLine
  8
0
 62
1
420
16711680
370
-1
  6
ByLayer
 10
1.1603699999999999
 20
1.49983
 30
0.0
 11
1.19922
 21
1.47868
 31
0.0
  0
LINE
  5
1E9
100
AcDbEntity
100
AcDbLine
  8
0
 62
1
420
16711680
370
-1
  6
ByLayer
 10
1.19922
 20
1.47868
 30
0.0
 11
1.31809
 21
1.39296
 31
0.0
  0
LINE
  5
1EA
100
AcDbEntity
100
AcDbLine
  8
0
 62
1
420
16711680
370
-1
  6
ByLayer
 10
1.31809
 20
1.39296
 30
0.0
 11
1.4137900000000001
 21
1.2782100000000001
 31
0.0
  0
LINE
  5
1EB
100
AcDbEntity
100
AcDbLine
  8
0
 62
1
420
16711680
370
-1
  6
ByLayer
 10
1.4137900000000001
 20
1.2782100000000001
 30
0.0
 11
1.48481
 21
1.1413800000000001
 31
0.0
  0
LINE
  5
1EC
100
AcDbEntity
100
AcDbLine
  8
0
 62
1
420
16711680
370
-1
  6
ByLayer
 10
1.48481
 20
1.1413800000000001
 30
0.0
 11
1.52979
 21
0.989583
 31
0.0
  0
LINE
  5
1ED
100
AcDbEntity
100
AcDbLine
  8
0
 62
1
420
16711680
370
-1
  6
ByLayer
 10
1.52979
 20
0.989583
 30
0.0
 11
1.54731
 21
0.829915
 31
0.0
  0
LINE
  5
1EE
100
AcDbEntity
100
AcDbLine
  8
0
 62
1
420
16711680
370
-1
  6
ByLayer
 10
1.54731
 20
0.829915
 30
0.0
 11
1.53592
 21
0.6693249999999999
 31
0.0
  0
LINE
  5
1EF
100
AcDbEntity
100
AcDbLine
  8
0
 62
1
420
16711680
370
-1
  6
ByLayer
 10
1.53592
 20
0.6693249999999999
 30
0.0
 11
1.4941899999999999
 21
0.514865
 31
0.0
  0
LINE
  5
1F0
100
AcDbEntity
100
AcDbLine
  8
0
 62
1
420
16711680
370
-1
  6
ByLayer
 10
1.4941899999999999
 20
0.514865
 30
0.0
 11
1.42079
 21
0.373643
 31
0.0
  0
LINE
  5
1F1
100
AcDbEntity
100
AcDbLine
  8
0
 62
1
420
16711680
370
-1
  6
ByLayer
 10
1.42079
 20
0.373643
 30
0.0
 11
1.3763000000000001
 21
0.304417
 31
0.0
  0
LINE
  5
1F2
100
AcDbEntity
100
AcDbLine
  8
0
 62
1
420
16711680
370
-1
  6
ByLayer
 10
1.3763000000000001
 20
0.304417
 30
0.0
 11
1.3480399999999999
 21
0.251899
 31
0.0
  0
LINE
  5
1F3
100
AcDbEntity
100
AcDbLine
  8
0
 62
1
420
16711680
370
-1
  6
ByLayer
 10
1.3480399999999999
 20
0.251899
 30
0.0
 11
1.3359399999999999
 21
0.216254
 31
0.0
  0
LINE
  5
1F4
100
AcDbEntity
100
AcDbLine
  8
0
 62
1
420
16711680
370
-1
  6
ByLayer
 10
1.3359399999999999
 20
0.216254
 30
0.0
 11
1.3399000000000001
 21
0.197592
 31
0.0
  0
LINE
  5
1F5
100
AcDbEntity
100
AcDbLine
  8
0
 62
1
420
16711680
370
-1
  6
ByLayer
 10
1.3399000000000001
 20
0.197592
 30
0.0
 11
1.35975
 21
0.19591
 31
0.0
  0
LINE
  5
1F6
100
AcDbEntity
100
AcDbLine
  8
0
 62
1
420
16711680
370
-1
  6
ByLayer
 10
1.35975
 20
0.19591
 30
0.0
 11
1.3954599999999999
 21
0.211426
 31
0.0
  0
LINE
  5
1F7
100
AcDbEntity
100
AcDbLine
  8
0
 62
1
420
16711680
370
-1
  6
ByLayer
 10
1.3954599999999999
 20
0.211426
 30
0.0
 11
1.4468300000000001
 21
0.244194
 31
0.0
  0
LINE
  5
1F8
100
AcDbEntity
100
AcDbLine
  8
0
 62
1
420
16711680
370
-1
  6
ByLayer
 10
1.4468300000000001
 20
0.244194
 30
0.0
 11
1.51383
 21
0.294217
 31
0.0
  0
LINE
  5
1F9
100
AcDbEntity
100
AcDbLine
  8
0
 62
1
420
16711680
370
-1
  6
ByLayer
 10
1.51383
 20
0.294217
 30
0.0
 11
1.57389
 21
0.350694
 31
0.0
  0
LINE
  5
1FA
100
AcDbEntity
100
AcDbLine
  8
0
 62
1
420
16711680
370
-1
  6
ByLayer
 10
1.57389
 20
0.350694
 30
0.0
 11
1.6153999999999999
 21
0.411729
 31
0.0
  0
LINE
  5
1FB
100
AcDbEntity
100
AcDbLine
  8
0
 62
1
420
16711680
370
-1
  6
ByLayer
 10
1.6153999999999999
 20
0.411729
 30
0.0
 11
1.63954
 21
0.4796
 31
0.0
  0
LINE
  5
1FC
100
AcDbEntity
100
AcDbLine
  8
0
 62
1
420
16711680
370
-1
  6
ByLayer
 10
1.63954
 20
0.4796
 30
0.0
 11
1.6473500000000001
 21
0.556424
 31
0.0
  0
LINE
  5
1FD
100
AcDbEntity
100
AcDbLine
  8
0
 62
1
420
16711680
370
-1
  6
ByLayer
 10
1.6473500000000001
 20
0.556424
 30
0.0
 11
1.6405700000000001
 21
0.667535
 31
0.0
  0
LINE
  5
1FE
100
AcDbEntity
100
AcDbLine
  8
0
 62
1
420
16711680
370
-1
  6
ByLayer
 10
1.6405700000000001
 20
0.667535
 30
0.0
 11
1.62229
 21
0.815321
 31
0.0
  0
LINE
  5
1FF
100
AcDbEntity
100
AcDbLine
  8
0
 62
1
420
16711680
370
-1
  6
ByLayer
 10
1.62229
 20
0.815321
 30
0.0
 11
1.5953200000000001
 21
0.985081
 31
0.0
  0
LINE
  5
200
100
AcDbEntity
100
AcDbLine
  8
0
 62
1
420
16711680
370
-1
  6
ByLayer
 10
1.5953200000000001
 20
0.985081
 30
0.0
 11
1.56267
 21
1.16211
 31
0.0
  0
LINE
  5
201
100
AcDbEntity
100
AcDbLine
  8
0
 62
1
420
16711680
370
-1
  6
ByLayer
 10
1.56267
 20
1.16211
 30
0.0
 11
1.5271300000000001
 21
1.3315999999999999
 31
0.0
  0
LINE
  5
202
100
AcDbEntity
100
AcDbLine
  8
0
 62
1
420
16711680
370
-1
  6
ByLayer
 10
1.5271300000000001
 20
1.3315999999999999
 30
0.0
 11
1.4916
 21
1.47885
 31
0.0
  0
LINE
  5
203
100
AcDbEntity
100
AcDbLine
  8
0
 62
1
420
16711680
370
-1
  6
ByLayer
 10
1.4916
 20
1.47885
 30
0.0
 11
1.4591000000000001
 21
1.58914
 31
0.0
  0
LINE
  5
204
100
AcDbEntity
100
AcDbLine
  8
0
 62
1
420
16711680
370
-1
  6
ByLayer
 10
1.4591000000000001
 20
1.58914
 30
0.0
 11
1.4324600000000001
 21
1.64768
 31
0.0
  0
LINE
  5
205
100
AcDbEntity
100
AcDbLine
  8
0
 62
1
420
16711680
370
-1
  6
ByLayer
 10
1.4324600000000001
 20
1.64768
 30
0.0
 11
1.4114599999999999
 21
1.6764300000000001
 31
0.0
  0
LINE
  5
206
100
AcDbEntity
100
AcDbLine
  8
0
 62
1
420
16711680
370
-1
  6
ByLayer
 10
1.4114599999999999
 20
1.6764300000000001
 30
0.0
 11
1.4075
 21
1.6916199999999999
 31
0.0
  0
LINE
  5
207
100
AcDbEntity
100
AcDbLine
  8
0
 62
1
420
16711680
370
-1
  6
ByLayer
 10
1.4075
 20
1.6916199999999999
 30
0.0
 11
1.4209000000000001
 21
1.69401
 31
0.0
  0
LINE
  5
208
100
AcDbEntity
100
AcDbLine
  8
0
 62
1
420
16711680
370
-1
  6
ByLayer
 10
1.4209000000000001
 20
1.69401
 30
0.0
 11
1.4521500000000001
 21
1.68435
 31
0.0
  0
LINE
  5
209
100
AcDbEntity
100
AcDbLine
  8
0
 62
1
420
16711680
370
-1
  6
ByLayer
 10
1.4521500000000001
 20
1.68435
 30
0.0
 11
1.4879599999999999
 21
1.6830000000000001
 31
0.0
  0
LINE
  5
20A
100
AcDbEntity
100
AcDbLine
  8
0
 62
1
420
16711680
370
-1
  6
ByLayer
 10
1.4879599999999999
 20
1.6830000000000001
 30
0.0
 11
1.5224599999999999
 21
1.7070799999999999
 31
0.0
  0
LINE
  5
20B
100
AcDbEntity
100
AcDbLine
  8
0
 62
1
420
16711680
370
-1
  6
ByLayer
 10
1.5224599999999999
 20
1.7070799999999999
 30
0.0
 11
1.55583
 21
1.7568299999999999
 31
0.0
  0
LINE
  5
20C
100
AcDbEntity
100
AcDbLine
  8
0
 62
1
420
16711680
370
-1
  6
ByLayer
 10
1.55583
 20
1.7568299999999999
 30
0.0
 11
1.58832
 21
1.8325100000000001
 31
0.0
  0
LINE
  5
20D
100
AcDbEntity
100
AcDbLine
  8
0
 62
1
420
16711680
370
-1
  6
ByLayer
 10
1.58832
 20
1.8325100000000001
 30
0.0
 11
1.6671
 21
1.9696100000000001
 31
0.0
  0
LINE
  5
20E
100
AcDbEntity
100
AcDbLine
  8
0
 62
1
420
16711680
370
-1
  6
ByLayer
 10
1.6671
 20
1.9696100000000001
 30
0.0
 11
1.7919400000000001
 21
2.08908
 31
0.0
  0
LINE
  5
20F
100
AcDbEntity
100
AcDbLine
  8
0
 62
1
420
16711680
370
-1
  6
ByLayer
 10
1.7919400000000001
 20
2.08908
 30
0.0
 11
1.9500299999999999
 21
2.1813799999999999
 31
0.0
  0
LINE
  5
210
100
AcDbEntity
100
AcDbLine
  8
0
 62
1
420
16711680
370
-1
  6
ByLayer
 10
1.9500299999999999
 20
2.1813799999999999
 30
0.0
 11
2.1288999999999998
 21
2.2370299999999999
 31
0.0
  0
LINE
  5
211
100
AcDbEntity
100
AcDbLine
  8
0
 62
1
420
16711680
370
-1
  6
ByLayer
 10
2.1288999999999998
 20
2.2370299999999999
 30
0.0
 11
2.2809699999999999
 21
2.26525
 31
0.0
  0
LINE
  5
212
100
AcDbEntity
100
AcDbLine
  8
0
 62
1
420
16711680
370
-1
  6
ByLayer
 10
2.2809699999999999
 20
2.26525
 30
0.0
 11
2.1440399999999999
 21
2.2067600000000001
 31
0.0
  0
LINE
  5
213
100
AcDbEntity
100
AcDbLine
  8
0
 62
1
420
16711680
370
-1
  6
ByLayer
 10
2.1440399999999999
 20
2.2067600000000001
 30
0.0
 11
2.0766100000000001
 21
2.1705700000000001
 31
0.0
  0
LINE
  5
214
100
AcDbEntity
100
AcDbLine
  8
0
 62
1
420
16711680
370
-1
  6
ByLayer
 10
2.0766100000000001
 20
2.1705700000000001
 30
0.0
 11
2.0227400000000002
 21
2.1212499999999999
 31
0.0
  0
LINE
  5
215
100
AcDbEntity
100
AcDbLine
  8
0
 62
1
420
16711680
370
-1
  6
ByLayer
 10
2.0227400000000002
 20
2.1212499999999999
 30
0.0
 11
1.98068
 21
2.05219
 31
0.0
  0
LINE
  5
216
100
AcDbEntity
100
AcDbLine
  8
0
 62
1
420
16711680
370
-1
  6
ByLayer
 10
1.98068
 20
2.05219
 30
0.0
 11
1.9488300000000001
 21
1.9565999999999999
 31
0.0
  0
LINE
  5
217
100
AcDbEntity
100
AcDbLine
  8
0
 62
1
420
16711680
370
-1
  6
ByLayer
 10
1.9488300000000001
 20
1.9565999999999999
 30
0.0
 11
1.92557
 21
1.82785
 31
0.0
  0
LINE
  5
218
100
AcDbEntity
100
AcDbLine
  8
0
 62
1
420
16711680
370
-1
  6
ByLayer
 10
1.92557
 20
1.82785
 30
0.0
 11
1.9091800000000001
 21
1.6591800000000001
 31
0.0
  0
LINE
  5
219
100
AcDbEntity
100
AcDbLine
  8
0
 62
1
420
16711680
370
-1
  6
ByLayer
 10
1.9091800000000001
 20
1.6591800000000001
 30
0.0
 11
1.8979999999999999
 21
1.4439
 31
0.0
  0
LINE
  5
21A
100
AcDbEntity
100
AcDbLine
  8
0
 62
1
420
16711680
370
-1
  6
ByLayer
 10
1.8979999999999999
 20
1.4439
 30
0.0
 11
1.8905099999999999
 21
1.1752400000000001
 31
0.0
  0
LINE
  5
21B
100
AcDbEntity
100
AcDbLine
  8
0
 62
1
420
16711680
370
-1
  6
ByLayer
 10
1.8905099999999999
 20
1.1752400000000001
 30
0.0
 11
1.88226
 21
0.905707
 31
0.0
  0
LINE
  5
21C
100
AcDbEntity
100
AcDbLine
  8
0
 62
1
420
16711680
370
-1
  6
ByLayer
 10
1.88226
 20
0.905707
 30
0.0
 11
1.86849
 21
0.690213
 31
0.0
  0
LINE
  5
21D
100
AcDbEntity
100
AcDbLine
  8
0
 62
1
420
16711680
370
-1
  6
ByLayer
 10
1.86849
 20
0.690213
 30
0.0
 11
1.8466800000000001
 21
0.521322
 31
0.0
  0
LINE
  5
21E
100
AcDbEntity
100
AcDbLine
  8
0
 62
1
420
16711680
370
-1
  6
ByLayer
 10
1.8466800000000001
 20
0.521322
 30
0.0
 11
1.81413
 21
0.391439
 31
0.0
  0
LINE
  5
21F
100
AcDbEntity
100
AcDbLine
  8
0
 62
1
420
16711680
370
-1
  6
ByLayer
 10
1.81413
 20
0.391439
 30
0.0
 11
1.7682800000000001
 21
0.293132
 31
0.0
  0
LINE
  5
220
100
AcDbEntity
100
AcDbLine
  8
0
 62
1
420
16711680
370
-1
  6
ByLayer
 10
1.7682800000000001
 20
0.293132
 30
0.0
 11
1.7065399999999999
 21
0.21875
 31
0.0
  0
LINE
  5
221
100
AcDbEntity
100
AcDbLine
  8
0
 62
1
420
16711680
370
-1
  6
ByLayer
 10
1.7065399999999999
 20
0.21875
 30
0.0
 11
1.62642
 21
0.160807
 31
0.0
  0
LINE
  5
222
100
AcDbEntity
100
AcDbLine
  8
0
 62
1
420
16711680
370
-1
  6
ByLayer
 10
1.62642
 20
0.160807
 30
0.0
 11
1.52522
 21
0.111816
 31
0.0
  0
LINE
  5
223
100
AcDbEntity
100
AcDbLine
  8
0
 62
1
420
16711680
370
-1
  6
ByLayer
 10
1.52522
 20
0.111816
 30
0.0
 11
1.43821
 21
0.0850151
 31
0.0
  0
LINE
  5
224
100
AcDbEntity
100
AcDbLine
  8
0
 62
1
420
16711680
370
-1
  6
ByLayer
 10
1.43821
 20
0.0850151
 30
0.0
 11
1.3169500000000001
 21
0.0605469
 31
0.0
  0
LINE
  5
225
100
AcDbEntity
100
AcDbLine
  8
0
 62
1
420
16711680
370
-1
  6
ByLayer
 10
1.3169500000000001
 20
0.0605469
 30
0.0
 11
1.1723600000000001
 21
0.0393881
 31
0.0
  0
LINE
  5
226
100
AcDbEntity
100
AcDbLine
  8
0
 62
1
420
16711680
370
-1
  6
ByLayer
 10
1.1723600000000001
 20
0.0393881
 30
0.0
 11
1.0154099999999999
 21
0.0226237
 31
0.0
  0
LINE
  5
227
100
AcDbEntity
100
AcDbLine
  8
0
 62
1
420
16711680
370
-1
  6
ByLayer
 10
1.0154099999999999
 20
0.0226237
 30
0.0
 11
0.8569329999999999
 21
0.011122
 31
0.0
  0
LINE
  5
228
100
AcDbEntity
100
AcDbLine
  8
0
 62
1
420
16711680
370
-1
  6
ByLayer
 10
0.8569329999999999
 20
0.011122
 30
0.0
 11
0.707844
 21
0.00591363
 31
0.0
  0
LINE
  5
229
100
AcDbEntity
100
AcDbLine
  8
0
 62
1
420
16711680
370
-1
  6
ByLayer
 10
0.707844
 20
0.00591363
 30
0.0
 11
0.579047
 21
0.00797526
 31
0.0
  0
LINE
  5
22A
100
AcDbEntity
100
AcDbLine
  8
0
 62
1
420
16711680
370
-1
  6
ByLayer
 10
0.579047
 20
0.00797526
 30
0.0
 11
0.4815
 21
0.0182292
 31
0.0
  0
LINE
  5
22B
100
AcDbEntity
100
AcDbLine
  8
0
 62
1
420
16711680
370
-1
  6
ByLayer
 10
0.4815
 20
0.0182292
 30
0.0
 11
0.4815
 21
0.0182292
 31
0.0
  0
LINE
  5
22C
100
AcDbEntity
100
AcDbLine
  8
0
 62
1
420
16711680
370
-1
  6
ByLayer
 10
0.912381
 20
1.81125
 30
0.0
 11
0.916015
 21
1.831
 31
0.0
  0
LINE
  5
22D
100
AcDbEntity
100
AcDbLine
  8
0
 62
1
420
16711680
370
-1
  6
ByLayer
 10
0.916015
 20
1.831
 30
0.0
 11
0.90294
 21
1.84711
 31
0.0
  0
LINE
  5
22E
100
AcDbEntity
100
AcDbLine
  8
0
 62
1
420
16711680
370
-1
  6
ByLayer
 10
0.90294
 20
1.84711
 30
0.0
 11
0.875543
 21
1.8579600000000001
 31
0.0
  0
LINE
  5
22F
100
AcDbEntity
100
AcDbLine
  8
0
 62
1
420
16711680
370
-1
  6
ByLayer
 10
0.875543
 20
1.8579600000000001
 30
0.0
 11
0.836317
 21
1.8619300000000001
 31
0.0
  0
LINE
  5
230
100
AcDbEntity
100
AcDbLine
  8
0
 62
1
420
16711680
370
-1
  6
ByLayer
 10
0.836317
 20
1.8619300000000001
 30
0.0
 11
0.797092
 21
1.8579600000000001
 31
0.0
  0
LINE
  5
231
100
AcDbEntity
100
AcDbLine
  8
0
 62
1
420
16711680
370
-1
  6
ByLayer
 10
0.797092
 20
1.8579600000000001
 30
0.0
 11
0.769694
 21
1.84711
 31
0.0
  0
LINE
  5
232
100
AcDbEntity
100
AcDbLine
  8
0
 62
1
420
16711680
370
-1
  6
ByLayer
 10
0.769694
 20
1.84711
 30
0.0
 11
0.756565
 21
1.831
 31
0.0
  0
LINE
  5
233
100
AcDbEntity
100
AcDbLine
  8
0
 62
1
420
16711680
370
-1
  6
ByLayer
 10
0.756565
 20
1.831
 30
0.0
 11
0.760308
 21
1.81125
 31
0.0
  0
LINE
  5
234
100
AcDbEntity
100
AcDbLine
  8
0
 62
1
420
16711680
370
-1
  6
ByLayer
 10
0.760308
 20
1.81125
 30
0.0
 11
0.775988
 21
1.7916099999999999
 31
0.0
  0
LINE
  5
235
100
AcDbEntity
100
AcDbLine
  8
0
 62
1
420
16711680
370
-1
  6
ByLayer
 10
0.775988
 20
1.7916099999999999
 30
0.0
 11
0.7955179999999999
 21
1.7755000000000001
 31
0.0
  0
LINE
  5
236
100
AcDbEntity
100
AcDbLine
  8
0
 62
1
420
16711680
370
-1
  6
ByLayer
 10
0.7955179999999999
 20
1.7755000000000001
 30
0.0
 11
0.816461
 21
1.7645999999999999
 31
0.0
  0
LINE
  5
237
100
AcDbEntity
100
AcDbLine
  8
0
 62
1
420
16711680
370
-1
  6
ByLayer
 10
0.816461
 20
1.7645999999999999
 30
0.0
 11
0.836317
 21
1.76058
 31
0.0
  0
LINE
  5
238
100
AcDbEntity
100
AcDbLine
  8
0
 62
1
420
16711680
370
-1
  6
ByLayer
 10
0.836317
 20
1.76058
 30
0.0
 11
0.856119
 21
1.7645999999999999
 31
0.0
  0
LINE
  5
239
100
AcDbEntity
100
AcDbLine
  8
0
 62
1
420
16711680
370
-1
  6
ByLayer
 10
0.856119
 20
1.7645999999999999
 30
0.0
 11
0.877115
 21
1.7755000000000001
 31
0.0
  0
LINE
  5
23A
100
AcDbEntity
100
AcDbLine
  8
0
 62
1
420
16711680
370
-1
  6
ByLayer
 10
0.877115
 20
1.7755000000000001
 30
0.0
 11
0.896647
 21
1.7916099999999999
 31
0.0
  0
LINE
  5
23B
100
AcDbEntity
100
AcDbLine
  8
0
 62
1
420
16711680
370
-1
  6
ByLayer
 10
0.896647
 20
1.7916099999999999
 30
0.0
 11
0.912381
 21
1.81125
 31
0.0
  0
LINE
  5
23C
100
AcDbEntity
100
AcDbLine
  8
0
 62
1
420
16711680
370
-1
  6
ByLayer
 10
0.912381
 20
1.81125
 30
0.0
 11
0.912381
 21
1.81125
 31
0.0
  0
LINE
  5
23D
100
AcDbEntity
100
AcDbLine
  8
0
 62
1
420
16711680
370
-1
  6
ByLayer
 10
0.631674
 20
2.0417200000000002
 30
0.0
 11
0.601454
 21
2.0702099999999999
 31
0.0
  0
LINE
  5
23E
100
AcDbEntity
100
AcDbLine
  8
0
 62
1
420
16711680
370
-1
  6
ByLayer
 10
0.601454
 20
2.0702099999999999
 30
0.0
 11
0.567275
 21
2.08996
 31
0.0
  0
LINE
  5
23F
100
AcDbEntity
100
AcDbLine
  8
0
 62
1
420
16711680
370
-1
  6
ByLayer
 10
0.567275
 20
2.08996
 30
0.0
 11
0.533257
 21
2.0990700000000002
 31
0.0
  0
LINE
  5
240
100
AcDbEntity
100
AcDbLine
  8
0
 62
1
420
16711680
370
-1
  6
ByLayer
 10
0.533257
 20
2.0990700000000002
 30
0.0
 11
0.5037430000000001
 21
2.0958600000000001
 31
0.0
  0
LINE
  5
241
100
AcDbEntity
100
AcDbLine
  8
0
 62
1
420
16711680
370
-1
  6
ByLayer
 10
0.5037430000000001
 20
2.0958600000000001
 30
0.0
 11
0.477268
 21
2.0942400000000001
 31
0.0
  0
LINE
  5
242
100
AcDbEntity
100
AcDbLine
  8
0
 62
1
420
16711680
370
-1
  6
ByLayer
 10
0.477268
 20
2.0942400000000001
 30
0.0
 11
0.451768
 21
2.10764
 31
0.0
  0
LINE
  5
243
100
AcDbEntity
100
AcDbLine
  8
0
 62
1
420
16711680
370
-1
  6
ByLayer
 10
0.451768
 20
2.10764
 30
0.0
 11
0.430067
 21
2.1335700000000002
 31
0.0
  0
LINE
  5
244
100
AcDbEntity
100
AcDbLine
  8
0
 62
1
420
16711680
370
-1
  6
ByLayer
 10
0.430067
 20
2.1335700000000002
 30
0.0
 11
0.415201
 21
2.1696499999999999
 31
0.0
  0
LINE
  5
245
100
AcDbEntity
100
AcDbLine
  8
0
 62
1
420
16711680
370
-1
  6
ByLayer
 10
0.415201
 20
2.1696499999999999
 30
0.0
 11
0.399849
 21
2.2033999999999998
 31
0.0
  0
LINE
  5
246
100
AcDbEntity
100
AcDbLine
  8
0
 62
1
420
16711680
370
-1
  6
ByLayer
 10
0.399849
 20
2.2033999999999998
 30
0.0
 11
0.375217
 21
2.23122
 31
0.0
  0
LINE
  5
247
100
AcDbEntity
100
AcDbLine
  8
0
 62
1
420
16711680
370
-1
  6
ByLayer
 10
0.375217
 20
2.23122
 30
0.0
 11
0.344835
 21
2.25217
 31
0.0
  0
LINE
  5
248
100
AcDbEntity
100
AcDbLine
  8
0
 62
1
420
16711680
370
-1
  6
ByLayer
 10
0.344835
 20
2.25217
 30
0.0
 11
0.312121
 21
2.2653099999999999
 31
0.0
  0
LINE
  5
249
100
AcDbEntity
100
AcDbLine
  8
0
 62
1
420
16711680
370
-1
  6
ByLayer
 10
0.312121
 20
2.2653099999999999
 30
0.0
 11
0.280544
 21
2.2696399999999999
 31
0.0
  0
LINE
  5
24A
100
AcDbEntity
100
AcDbLine
  8
0
 62
1
420
16711680
370
-1
  6
ByLayer
 10
0.280544
 20
2.2696399999999999
 30
0.0
 11
0.253743
 21
2.2642099999999998
 31
0.0
  0
LINE
  5
24B
100
AcDbEntity
100
AcDbLine
  8
0
 62
1
420
16711680
370
-1
  6
ByLayer
 10
0.253743
 20
2.2642099999999998
 30
0.0
 11
0.235081
 21
2.2481499999999999
 31
0.0
  0
LINE
  5
24C
100
AcDbEntity
100
AcDbLine
  8
0
 62
1
420
16711680
370
-1
  6
ByLayer
 10
0.235081
 20
2.2481499999999999
 30
0.0
 11
0.228082
 21
2.2204299999999999
 31
0.0
  0
LINE
  5
24D
100
AcDbEntity
100
AcDbLine
  8
0
 62
1
420
16711680
370
-1
  6
ByLayer
 10
0.228082
 20
2.2204299999999999
 30
0.0
 11
0.239367
 21
2.1875
 31
0.0
  0
LINE
  5
24E
100
AcDbEntity
100
AcDbLine
  8
0
 62
1
420
16711680
370
-1
  6
ByLayer
 10
0.239367
 20
2.1875
 30
0.0
 11
0.270182
 21
2.14811
 31
0.0
  0
LINE
  5
24F
100
AcDbEntity
100
AcDbLine
  8
0
 62
1
420
16711680
370
-1
  6
ByLayer
 10
0.270182
 20
2.14811
 30
0.0
 11
0.315647
 21
2.1055799999999998
 31
0.0
  0
LINE
  5
250
100
AcDbEntity
100
AcDbLine
  8
0
 62
1
420
16711680
370
-1
  6
ByLayer
 10
0.315647
 20
2.1055799999999998
 30
0.0
 11
0.371039
 21
2.06332
 31
0.0
  0
LINE
  5
251
100
AcDbEntity
100
AcDbLine
  8
0
 62
1
420
16711680
370
-1
  6
ByLayer
 10
0.371039
 20
2.06332
 30
0.0
 11
0.431532
 21
2.0245799999999998
 31
0.0
  0
LINE
  5
252
100
AcDbEntity
100
AcDbLine
  8
0
 62
1
420
16711680
370
-1
  6
ByLayer
 10
0.431532
 20
2.0245799999999998
 30
0.0
 11
0.49235
 21
1.99278
 31
0.0
  0
LINE
  5
253
100
AcDbEntity
100
AcDbLine
  8
0
 62
1
420
16711680
370
-1
  6
ByLayer
 10
0.49235
 20
1.99278
 30
0.0
 11
0.548719
 21
1.9712499999999999
 31
0.0
  0
LINE
  5
254
100
AcDbEntity
100
AcDbLine
  8
0
 62
1
420
16711680
370
-1
  6
ByLayer
 10
0.548719
 20
1.9712499999999999
 30
0.0
 11
0.595919
 21
1.96332
 31
0.0
  0
LINE
  5
255
100
AcDbEntity
100
AcDbLine
  8
0
 62
1
420
16711680
370
-1
  6
ByLayer
 10
0.595919
 20
1.96332
 30
0.0
 11
0.645128
 21
1.96631
 31
0.0
  0
LINE
  5
256
100
AcDbEntity
100
AcDbLine
  8
0
 62
1
420
16711680
370
-1
  6
ByLayer
 10
0.645128
 20
1.96631
 30
0.0
 11
0.666287
 21
1.9777100000000001
 31
0.0
  0
LINE
  5
257
100
AcDbEntity
100
AcDbLine
  8
0
 62
1
420
16711680
370
-1
  6
ByLayer
 10
0.666287
 20
1.9777100000000001
 30
0.0
 11
0.661187
 21
2.0015700000000001
 31
0.0
  0
LINE
  5
258
100
AcDbEntity
100
AcDbLine
  8
0
 62
1
420
16711680
370
-1
  6
ByLayer
 10
0.661187
 20
2.0015700000000001
 30
0.0
 11
0.631674
 21
2.0417200000000002
 31
0.0
  0
LINE
  5
259
100
AcDbEntity
100
AcDbLine
  8
0
 62
1
420
16711680
370
-1
  6
ByLayer
 10
0.631674
 20
2.0417200000000002
 30
0.0
 11
0.631674
 21
2.0417200000000002
 31
0.0
  0
LINE
  5
25A
100
AcDbEntity
100
AcDbLine
  8
0
 62
1
420
16711680
370
-1
  6
ByLayer
 10
1.27658
 20
2.0735700000000001
 30
0.0
 11
1.32216
 21
2.1189200000000001
 31
0.0
  0
LINE
  5
25B
100
AcDbEntity
100
AcDbLine
  8
0
 62
1
420
16711680
370
-1
  6
ByLayer
 10
1.32216
 20
2.1189200000000001
 30
0.0
 11
1.3560700000000001
 21
2.1582599999999998
 31
0.0
  0
LINE
  5
25C
100
AcDbEntity
100
AcDbLine
  8
0
 62
1
420
16711680
370
-1
  6
ByLayer
 10
1.3560700000000001
 20
2.1582599999999998
 30
0.0
 11
1.37826
 21
2.19157
 31
0.0
  0
LINE
  5
25D
100
AcDbEntity
100
AcDbLine
  8
0
 62
1
420
16711680
370
-1
  6
ByLayer
 10
1.37826
 20
2.19157
 30
0.0
 11
1.3886700000000001
 21
2.2188599999999998
 31
0.0
  0
LINE
  5
25E
100
AcDbEntity
100
AcDbLine
  8
0
 62
1
420
16711680
370
-1
  6
ByLayer
 10
1.3886700000000001
 20
2.2188599999999998
 30
0.0
 11
1.38737
 21
2.2401300000000002
 31
0.0
  0
LINE
  5
25F
100
AcDbEntity
100
AcDbLine
  8
0
 62
1
420
16711680
370
-1
  6
ByLayer
 10
1.38737
 20
2.2401300000000002
 30
0.0
 11
1.37435
 21
2.2553200000000002
 31
0.0
  0
LINE
  5
260
100
AcDbEntity
100
AcDbLine
  8
0
 62
1
420
16711680
370
-1
  6
ByLayer
 10
1.37435
 20
2.2553200000000002
 30
0.0
 11
1.34961
 21
2.2644299999999999
 31
0.0
  0
LINE
  5
261
100
AcDbEntity
100
AcDbLine
  8
0
 62
1
420
16711680
370
-1
  6
ByLayer
 10
1.34961
 20
2.2644299999999999
 30
0.0
 11
1.31315
 21
2.2674699999999999
 31
0.0
  0
LINE
  5
262
100
AcDbEntity
100
AcDbLine
  8
0
 62
1
420
16711680
370
-1
  6
ByLayer
 10
1.31315
 20
2.2674699999999999
 30
0.0
 11
1.27973
 21
2.25976
 31
0.0
  0
LINE
  5
263
100
AcDbEntity
100
AcDbLine
  8
0
 62
1
420
16711680
370
-1
  6
ByLayer
 10
1.27973
 20
2.25976
 30
0.0
 11
1.2485299999999999
 21
2.2387600000000001
 31
0.0
  0
LINE
  5
264
100
AcDbEntity
100
AcDbLine
  8
0
 62
1
420
16711680
370
-1
  6
ByLayer
 10
1.2485299999999999
 20
2.2387600000000001
 30
0.0
 11
1.2230399999999999
 21
2.2076799999999999
 31
0.0
  0
LINE
  5
265
100
AcDbEntity
100
AcDbLine
  8
0
 62
1
420
16711680
370
-1
  6
ByLayer
 10
1.2230399999999999
 20
2.2076799999999999
 30
0.0
 11
1.2067600000000001
 21
2.1696499999999999
 31
0.0
  0
LINE
  5
266
100
AcDbEntity
100
AcDbLine
  8
0
 62
1
420
16711680
370
-1
  6
ByLayer
 10
1.2067600000000001
 20
2.1696499999999999
 30
0.0
 11
1.19184
 21
2.1335700000000002
 31
0.0
  0
LINE
  5
267
100
AcDbEntity
100
AcDbLine
  8
0
 62
1
420
16711680
370
-1
  6
ByLayer
 10
1.19184
 20
2.1335700000000002
 30
0.0
 11
1.1701900000000001
 21
2.10764
 31
0.0
  0
LINE
  5
268
100
AcDbEntity
100
AcDbLine
  8
0
 62
1
420
16711680
370
-1
  6
ByLayer
 10
1.1701900000000001
 20
2.10764
 30
0.0
 11
1.14469
 21
2.0942400000000001
 31
0.0
  0
LINE
  5
269
100
AcDbEntity
100
AcDbLine
  8
0
 62
1
420
16711680
370
-1
  6
ByLayer
 10
1.14469
 20
2.0942400000000001
 30
0.0
 11
1.1182700000000001
 21
2.0958600000000001
 31
0.0
  0
LINE
  5
26A
100
AcDbEntity
100
AcDbLine
  8
0
 62
1
420
16711680
370
-1
  6
ByLayer
 10
1.1182700000000001
 20
2.0958600000000001
 30
0.0
 11
1.0887
 21
2.0990700000000002
 31
0.0
  0
LINE
  5
26B
100
AcDbEntity
100
AcDbLine
  8
0
 62
1
420
16711680
370
-1
  6
ByLayer
 10
1.0887
 20
2.0990700000000002
 30
0.0
 11
1.0546899999999999
 21
2.08996
 31
0.0
  0
LINE
  5
26C
100
AcDbEntity
100
AcDbLine
  8
0
 62
1
420
16711680
370
-1
  6
ByLayer
 10
1.0546899999999999
 20
2.08996
 30
0.0
 11
1.02051
 21
2.0702099999999999
 31
0.0
  0
LINE
  5
26D
100
AcDbEntity
100
AcDbLine
  8
0
 62
1
420
16711680
370
-1
  6
ByLayer
 10
1.02051
 20
2.0702099999999999
 30
0.0
 11
0.990343
 21
2.0417200000000002
 31
0.0
  0
LINE
  5
26E
100
AcDbEntity
100
AcDbLine
  8
0
 62
1
420
16711680
370
-1
  6
ByLayer
 10
0.990343
 20
2.0417200000000002
 30
0.0
 11
0.9662539999999999
 21
2.0008599999999999
 31
0.0
  0
LINE
  5
26F
100
AcDbEntity
100
AcDbLine
  8
0
 62
1
420
16711680
370
-1
  6
ByLayer
 10
0.9662539999999999
 20
2.0008599999999999
 30
0.0
 11
0.970324
 21
1.97401
 31
0.0
  0
LINE
  5
270
100
AcDbEntity
100
AcDbLine
  8
0
 62
1
420
16711680
370
-1
  6
ByLayer
 10
0.970324
 20
1.97401
 30
0.0
 11
0.997017
 21
1.9605600000000001
 31
0.0
  0
LINE
  5
271
100
AcDbEntity
100
AcDbLine
  8
0
 62
1
420
16711680
370
-1
  6
ByLayer
 10
0.997017
 20
1.9605600000000001
 30
0.0
 11
1.0407999999999999
 21
1.96001
 31
0.0
  0
LINE
  5
272
100
AcDbEntity
100
AcDbLine
  8
0
 62
1
420
16711680
370
-1
  6
ByLayer
 10
1.0407999999999999
 20
1.96001
 30
0.0
 11
1.0961399999999999
 21
1.97163
 31
0.0
  0
LINE
  5
273
100
AcDbEntity
100
AcDbLine
  8
0
 62
1
420
16711680
370
-1
  6
ByLayer
 10
1.0961399999999999
 20
1.97163
 30
0.0
 11
1.1575500000000001
 21
1.99485
 31
0.0
  0
LINE
  5
274
100
AcDbEntity
100
AcDbLine
  8
0
 62
1
420
16711680
370
-1
  6
ByLayer
 10
1.1575500000000001
 20
1.99485
 30
0.0
 11
1.2195100000000001
 21
2.0290300000000001
 31
0.0
  0
LINE
  5
275
100
AcDbEntity
100
AcDbLine
  8
0
 62
1
420
16711680
370
-1
  6
ByLayer
 10
1.2195100000000001
 20
2.0290300000000001
 30
0.0
 11
1.27658
 21
2.0735700000000001
 31
0.0
  0
LINE
  5
276
100
AcDbEntity
100
AcDbLine
  8
0
 62
1
420
16711680
370
-1
  6
ByLayer
 10
1.27658
 20
2.0735700000000001
 30
0.0
 11
1.27658
 21
2.0735700000000001
 31
0.0
  0
ENDSEC
  0
SECTION
  2
OBJECTS
  0
DICTIONARY
  5
C
100
AcDbDictionary
280
0
281
1
  3
ACAD_GROUP
350
D
  3
ACAD_LAYOUT
350
1A
  3
ACAD_MLINESTYLE
350
17
  3
ACAD_PLOTSETTINGS
350
19
  3
ACAD_PLOTSTYLENAME
350
E
  3
AcDbVariableDictionary
350
277
  0
DICTIONARY
  5
D
100
AcDbDictionary
280
0
281
1
  0
ACDBDICTIONARYWDFLT
  5
E
100
AcDbDictionary
281
1
  3
Normal
350
F
100
AcDbDictionaryWithDefault
340
F
  0
ACDBPLACEHOLDER
  5
F
  0
DICTIONARY
  5
17
100
AcDbDictionary
280
0
281
1
  3
Standard
350
18
  0
MLINESTYLE
  5
18
100
AcDbMlineStyle
  2
STANDARD
 70
0
  3

 62
256
 51
90.0
 52
90.0
 71
2
 49
0.5
 62
256
  6
BYLAYER
 49
-0.5
 62
256
  6
BYLAYER
  0
DICTIONARY
  5
19
100
AcDbDictionary
280
0
281
1
  0
DICTIONARY
  5
1A
100
AcDbDictionary
281
1
  3
Layout1
350
1E
  3
Layout2
350
26
  3
Model
350
22
  0
LAYOUT
  5
1E
100
AcDbPlotSettings
  1

  2
C:\Program Files\AutoCAD 2002\plotters\DWF ePlot (optimized for plotting).pc3
  4

  6

 40
0.0
 41
0.0
 42
0.0
 43
0.0
 44
0.0
 45
0.0
 46
0.0
 47
0.0
 48
0.0
 49
0.0
140
0.0
141
0.0
142
1.0
143
1.0
 70
688
 72
0
 73
0
 74
5
  7

 75
16
147
1.0
148
0.0
149
0.0
100
AcDbLayout
  1
Layout1
 70
1
 71
1
 10
0.0
 20
0.0
 11
420.0
 21
297.0
 12
0.0
 22
0.0
 32
0.0
 14
100000000000000000000.0
 24
100000000000000000000.0
 34
100000000000000000000.0
 15
-100000000000000000000.0
 25
-100000000000000000000.0
 35
-100000000000000000000.0
146
0.0
 13
0.0
 23
0.0
 33
0.0
 16
1.0
 26
0.0
 36
0.0
 17
0.0
 27
1.0
 37
0.0
 76
0
330
1B
  0
LAYOUT
  5
22
100
AcDbPlotSettings
  1

  2
C:\Program Files\AutoCAD 2002\plotters\DWF ePlot (optimized for plotting).pc3
  4

  6

 40
0.0
 41
0.0
 42
0.0
 43
0.0
 44
0.0
 45
0.0
 46
0.0
 47
0.0
 48
0.0
 49
0.0
140
0.0
141
0.0
142
1.0
143
1.0
 70
1712
 72
0
 73
0
 74
0
  7

 75
0
147
1.0
148
0.0
149
0.0
100
AcDbLayout
  1
Model
 70
1
 71
0
 10
0.0
 20
0.0
 11
12.0
 21
9.0
 12
0.0
 22
0.0
 32
0.0
 14
0.0
 24
0.0
 34
0.0
 15
0.0
 25
0.0
 35
0.0
146
0.0
 13
0.0
 23
0.0
 33
0.0
 16
1.0
 26
0.0
 36
0.0
 17
0.0
 27
1.0
 37
0.0
 76
0
330
1F
  0
LAYOUT
  5
26
100
AcDbPlotSettings
  1

  2
C:\Program Files\AutoCAD 2002\plotters\DWF ePlot (optimized for plotting).pc3
  4

  6

 40
0.0
 41
0.0
 42
0.0
 43
0.0
 44
0.0
 45
0.0
 46
0.0
 47
0.0
 48
0.0
 49
0.0
140
0.0
141
0.0
142
1.0
143
1.0
 70
688
 72
0
 73
0
 74
5
  7

 75
16
147
1.0
148
0.0
149
0.0
100
AcDbLayout
  1
Layout2
 70
1
 71
2
 10
0.0
 20
0.0
 11
12.0
 21
9.0
 12
0.0
 22
0.0
 32
0.0
 14
0.0
 24
0.0
 34
0.0
 15
0.0
 25
0.0
 35
0.0
146
0.0
 13
0.0
 23
0.0
 33
0.0
 16
1.0
 26
0.0
 36
0.0
 17
0.0
 27
1.0
 37
0.0
 76
0
330
23
  0
DICTIONARY
  5
277
100
AcDbDictionary
281
1
  3
DIMASSOC
350
279
  3
HIDETEXT
350
278
  0
DICTIONARYVAR
  5
278
100
DictionaryVariables
280
0
  1
2
  0
DICTIONARYVAR
  5
279
100
DictionaryVariables
280
0
  1
1
  0
ENDSEC
  0
EOF
