  0
SECTION
  2
HEADER
  9
$ACADVER
  1
AC1009
  9
$EXTMIN
 10
0.0
 20
0.0
 30
0.0
  9
$EXTMAX
 10
1000.0
 20
1000.0
 30
0.0
  9
$FILLMODE
 70
 0
  9
$SPLFRAME
 70
 1
  0
ENDSEC
  0
SECTION
  2
TABLES
  0
TABLE
  2
LAYER
 70
1
  0
LAYER
  2
0
 70
     0
 62
     7
  6
CONTINUOUS
  0
ENDTAB
  0
ENDSEC
  0
SECTION
  2
ENTITIES
  0
POLYLINE
  8
0
 62
     0
 66
     1
 10
0
 20
0
 30
0.0
 70
     1
 40
0
 41
0
  0
VERTEX
  8
0
 10
0.4815
 20
0.0182292
 30
0.0
 40
0
 41
0
  0
VERTEX
  8
0
 10
0.40294
 20
0.0338542
 30
0.0
 40
0
 41
0
  0
VERTEX
  8
0
 10
0.341797
 20
0.0481771
 30
0.0
 40
0
 41
0
  0
VERTEX
  8
0
 10
0.296767
 20
0.062066
 30
0.0
 40
0
 41
0
  0
VERTEX
  8
0
 10
0.266547
 20
0.0762261
 30
0.0
 40
0
 41
0
  0
VERTEX
  8
0
 10
0.249892
 20
0.0915799
 30
0.0
 40
0
 41
0
  0
VERTEX
  8
0
 10
0.245606
 20
0.108778
 30
0.0
 40
0
 41
0
  0
VERTEX
  8
0
 10
0.252387
 20
0.128743
 30
0.0
 40
0
 41
0
  0
VERTEX
  8
0
 10
0.269043
 20
0.152126
 30
0.0
 40
0
 41
0
  0
VERTEX
  8
0
 10
0.286187
 20
0.192383
 30
0.0
 40
0
 41
0
  0
VERTEX
  8
0
 10
0.280871
 20
0.247613
 30
0.0
 40
0
 41
0
  0
VERTEX
  8
0
 10
0.252115
 20
0.321506
 30
0.0
 40
0
 41
0
  0
VERTEX
  8
0
 10
0.199001
 20
0.417697
 30
0.0
 40
0
 41
0
  0
VERTEX
  8
0
 10
0.134657
 20
0.547581
 30
0.0
 40
0
 41
0
  0
VERTEX
  8
0
 10
0.0957574
 20
0.680664
 30
0.0
 40
0
 41
0
  0
VERTEX
  8
0
 10
0.0819228
 20
0.814725
 30
0.0
 40
0
 41
0
  0
VERTEX
  8
0
 10
0.0927192
 20
0.947374
 30
0.0
 40
0
 41
0
  0
VERTEX
  8
0
 10
0.127767
 20
1.07633
 30
0.0
 40
0
 41
0
  0
VERTEX
  8
0
 10
0.186632
 20
1.19938
 30
0.0
 40
0
 41
0
  0
VERTEX
  8
0
 10
0.268935
 20
1.31418
 30
0.0
 40
0
 41
0
  0
VERTEX
  8
0
 10
0.374294
 20
1.41846
 30
0.0
 40
0
 41
0
  0
VERTEX
  8
0
 10
0.425944
 20
1.46235
 30
0.0
 40
0
 41
0
  0
VERTEX
  8
0
 10
0.463542
 20
1.49625
 30
0.0
 40
0
 41
0
  0
VERTEX
  8
0
 10
0.487739
 20
1.5224
 30
0.0
 40
0
 41
0
  0
VERTEX
  8
0
 10
0.499078
 20
1.54286
 30
0.0
 40
0
 41
0
  0
VERTEX
  8
0
 10
0.498156
 20
1.55974
 30
0.0
 40
0
 41
0
  0
VERTEX
  8
0
 10
0.485568
 20
1.57519
 30
0.0
 40
0
 41
0
  0
VERTEX
  8
0
 10
0.46186
 20
1.59131
 30
0.0
 40
0
 41
0
  0
VERTEX
  8
0
 10
0.427681
 20
1.61019
 30
0.0
 40
0
 41
0
  0
VERTEX
  8
0
 10
0.370063
 20
1.63456
 30
0.0
 40
0
 41
0
  0
VERTEX
  8
0
 10
0.320367
 20
1.63781
 30
0.0
 40
0
 41
0
  0
VERTEX
  8
0
 10
0.270182
 20
1.61871
 30
0.0
 40
0
 41
0
  0
VERTEX
  8
0
 10
0.211154
 20
1.57585
 30
0.0
 40
0
 41
0
  0
VERTEX
  8
0
 10
0.173503
 20
1.54611
 30
0.0
 40
0
 41
0
  0
VERTEX
  8
0
 10
0.152181
 20
1.53256
 30
0.0
 40
0
 41
0
  0
VERTEX
  8
0
 10
0.148708
 20
1.53581
 30
0.0
 40
0
 41
0
  0
VERTEX
  8
0
 10
0.164714
 20
1.55658
 30
0.0
 40
0
 41
0
  0
VERTEX
  8
0
 10
0.191461
 20
1.59136
 30
0.0
 40
0
 41
0
  0
VERTEX
  8
0
 10
0.210721
 20
1.62463
 30
0.0
 40
0
 41
0
  0
VERTEX
  8
0
 10
0.222547
 20
1.65429
 30
0.0
 40
0
 41
0
  0
VERTEX
  8
0
 10
0.226779
 20
1.678
 30
0.0
 40
0
 41
0
  0
VERTEX
  8
0
 10
0.223415
 20
1.69363
 30
0.0
 40
0
 41
0
  0
VERTEX
  8
0
 10
0.212403
 20
1.69889
 30
0.0
 40
0
 41
0
  0
VERTEX
  8
0
 10
0.193685
 20
1.69157
 30
0.0
 40
0
 41
0
  0
VERTEX
  8
0
 10
0.16721
 20
1.66932
 30
0.0
 40
0
 41
0
  0
VERTEX
  8
0
 10
0.130317
 20
1.63661
 30
0.0
 40
0
 41
0
  0
VERTEX
  8
0
 10
0.0991211
 20
1.61649
 30
0.0
 40
0
 41
0
  0
VERTEX
  8
0
 10
0.074924
 20
1.60807
 30
0.0
 40
0
 41
0
  0
VERTEX
  8
0
 10
0.0589735
 20
1.61057
 30
0.0
 40
0
 41
0
  0
VERTEX
  8
0
 10
0.0525717
 20
1.62304
 30
0.0
 40
0
 41
0
  0
VERTEX
  8
0
 10
0.0569119
 20
1.64469
 30
0.0
 40
0
 41
0
  0
VERTEX
  8
0
 10
0.073405
 20
1.67464
 30
0.0
 40
0
 41
0
  0
VERTEX
  8
0
 10
0.103299
 20
1.71203
 30
0.0
 40
0
 41
0
  0
VERTEX
  8
0
 10
0.133247
 20
1.74539
 30
0.0
 40
0
 41
0
  0
VERTEX
  8
0
 10
0.154622
 20
1.77012
 30
0.0
 40
0
 41
0
  0
VERTEX
  8
0
 10
0.167264
 20
1.787
 30
0.0
 40
0
 41
0
  0
VERTEX
  8
0
 10
0.171169
 20
1.79676
 30
0.0
 40
0
 41
0
  0
VERTEX
  8
0
 10
0.166342
 20
1.80003
 30
0.0
 40
0
 41
0
  0
VERTEX
  8
0
 10
0.152615
 20
1.79764
 30
0.0
 40
0
 41
0
  0
VERTEX
  8
0
 10
0.129991
 20
1.79025
 30
0.0
 40
0
 41
0
  0
VERTEX
  8
0
 10
0.09847
 20
1.7786
 30
0.0
 40
0
 41
0
  0
VERTEX
  8
0
 10
0.0507813
 20
1.76275
 30
0.0
 40
0
 41
0
  0
VERTEX
  8
0
 10
0.0297308
 20
1.76253
 30
0.0
 40
0
 41
0
  0
VERTEX
  8
0
 10
0.0335286
 20
1.77974
 30
0.0
 40
0
 41
0
  0
VERTEX
  8
0
 10
0.0604383
 20
1.81614
 30
0.0
 40
0
 41
0
  0
VERTEX
  8
0
 10
0.082411
 20
1.85211
 30
0.0
 40
0
 41
0
  0
VERTEX
  8
0
 10
0.0926107
 20
1.88992
 30
0.0
 40
0
 41
0
  0
VERTEX
  8
0
 10
0.0907661
 20
1.92736
 30
0.0
 40
0
 41
0
  0
VERTEX
  8
0
 10
0.0766601
 20
1.96224
 30
0.0
 40
0
 41
0
  0
VERTEX
  8
0
 10
0.0616319
 20
2.00836
 30
0.0
 40
0
 41
0
  0
VERTEX
  8
0
 10
0.0534397
 20
2.08089
 30
0.0
 40
0
 41
0
  0
VERTEX
  8
0
 10
0.0526801
 20
2.16992
 30
0.0
 40
0
 41
0
  0
VERTEX
  8
0
 10
0.0598415
 20
2.26551
 30
0.0
 40
0
 41
0
  0
VERTEX
  8
0
 10
0.0663519
 20
2.37044
 30
0.0
 40
0
 41
0
  0
VERTEX
  8
0
 10
0.0638564
 20
2.48475
 30
0.0
 40
0
 41
0
  0
VERTEX
  8
0
 10
0.0531683
 20
2.59472
 30
0.0
 40
0
 41
0
  0
VERTEX
  8
0
 10
0.0350478
 20
2.68647
 30
0.0
 40
0
 41
0
  0
VERTEX
  8
0
 10
0.0171983
 20
2.75999
 30
0.0
 40
0
 41
0
  0
VERTEX
  8
0
 10
0.00737847
 20
2.82015
 30
0.0
 40
0
 41
0
  0
VERTEX
  8
0
 10
0.00618489
 20
2.86079
 30
0.0
 40
0
 41
0
  0
VERTEX
  8
0
 10
0.0143229
 20
2.87571
 30
0.0
 40
0
 41
0
  0
VERTEX
  8
0
 10
0.0390625
 20
2.86361
 30
0.0
 40
0
 41
0
  0
VERTEX
  8
0
 10
0.0832249
 20
2.83051
 30
0.0
 40
0
 41
0
  0
VERTEX
  8
0
 10
0.140463
 20
2.78157
 30
0.0
 40
0
 41
0
  0
VERTEX
  8
0
 10
0.204699
 20
2.72179
 30
0.0
 40
0
 41
0
  0
VERTEX
  8
0
 10
0.292914
 20
2.64236
 30
0.0
 40
0
 41
0
  0
VERTEX
  8
0
 10
0.360026
 20
2.60303
 30
0.0
 40
0
 41
0
  0
VERTEX
  8
0
 10
0.423719
 20
2.59776
 30
0.0
 40
0
 41
0
  0
VERTEX
  8
0
 10
0.501844
 20
2.62044
 30
0.0
 40
0
 41
0
  0
VERTEX
  8
0
 10
0.645779
 20
2.65767
 30
0.0
 40
0
 41
0
  0
VERTEX
  8
0
 10
0.807075
 20
2.67096
 30
0.0
 40
0
 41
0
  0
VERTEX
  8
0
 10
0.967014
 20
2.66026
 30
0.0
 40
0
 41
0
  0
VERTEX
  8
0
 10
1.10682
 20
2.62543
 30
0.0
 40
0
 41
0
  0
VERTEX
  8
0
 10
1.17258
 20
2.60656
 30
0.0
 40
0
 41
0
  0
VERTEX
  8
0
 10
1.22542
 20
2.60807
 30
0.0
 40
0
 41
0
  0
VERTEX
  8
0
 10
1.27355
 20
2.63217
 30
0.0
 40
0
 41
0
  0
VERTEX
  8
0
 10
1.32498
 20
2.68083
 30
0.0
 40
0
 41
0
  0
VERTEX
  8
0
 10
1.37234
 20
2.72889
 30
0.0
 40
0
 41
0
  0
VERTEX
  8
0
 10
1.42199
 20
2.77214
 30
0.0
 40
0
 41
0
  0
VERTEX
  8
0
 10
1.47037
 20
2.8086
 30
0.0
 40
0
 41
0
  0
VERTEX
  8
0
 10
1.51389
 20
2.83621
 30
0.0
 40
0
 41
0
  0
VERTEX
  8
0
 10
1.54883
 20
2.85297
 30
0.0
 40
0
 41
0
  0
VERTEX
  8
0
 10
1.57172
 20
2.85678
 30
0.0
 40
0
 41
0
  0
VERTEX
  8
0
 10
1.57883
 20
2.84565
 30
0.0
 40
0
 41
0
  0
VERTEX
  8
0
 10
1.56668
 20
2.81749
 30
0.0
 40
0
 41
0
  0
VERTEX
  8
0
 10
1.55013
 20
2.75369
 30
0.0
 40
0
 41
0
  0
VERTEX
  8
0
 10
1.53629
 20
2.63043
 30
0.0
 40
0
 41
0
  0
VERTEX
  8
0
 10
1.52658
 20
2.46556
 30
0.0
 40
0
 41
0
  0
VERTEX
  8
0
 10
1.52251
 20
2.27669
 30
0.0
 40
0
 41
0
  0
VERTEX
  8
0
 10
1.52121
 20
2.141
 30
0.0
 40
0
 41
0
  0
VERTEX
  8
0
 10
1.51818
 20
2.03201
 30
0.0
 40
0
 41
0
  0
VERTEX
  8
0
 10
1.51275
 20
1.94646
 30
0.0
 40
0
 41
0
  0
VERTEX
  8
0
 10
1.50439
 20
1.88092
 30
0.0
 40
0
 41
0
  0
VERTEX
  8
0
 10
1.49251
 20
1.83219
 30
0.0
 40
0
 41
0
  0
VERTEX
  8
0
 10
1.47651
 20
1.79688
 30
0.0
 40
0
 41
0
  0
VERTEX
  8
0
 10
1.45572
 20
1.77169
 30
0.0
 40
0
 41
0
  0
VERTEX
  8
0
 10
1.42974
 20
1.75319
 30
0.0
 40
0
 41
0
  0
VERTEX
  8
0
 10
1.39019
 20
1.72385
 30
0.0
 40
0
 41
0
  0
VERTEX
  8
0
 10
1.36816
 20
1.68858
 30
0.0
 40
0
 41
0
  0
VERTEX
  8
0
 10
1.3629
 20
1.64546
 30
0.0
 40
0
 41
0
  0
VERTEX
  8
0
 10
1.3737
 20
1.59244
 30
0.0
 40
0
 41
0
  0
VERTEX
  8
0
 10
1.38346
 20
1.56033
 30
0.0
 40
0
 41
0
  0
VERTEX
  8
0
 10
1.38949
 20
1.53651
 30
0.0
 40
0
 41
0
  0
VERTEX
  8
0
 10
1.39133
 20
1.52078
 30
0.0
 40
0
 41
0
  0
VERTEX
  8
0
 10
1.38873
 20
1.51269
 30
0.0
 40
0
 41
0
  0
VERTEX
  8
0
 10
1.38118
 20
1.51204
 30
0.0
 40
0
 41
0
  0
VERTEX
  8
0
 10
1.36843
 20
1.51844
 30
0.0
 40
0
 41
0
  0
VERTEX
  8
0
 10
1.3501
 20
1.53163
 30
0.0
 40
0
 41
0
  0
VERTEX
  8
0
 10
1.32585
 20
1.55122
 30
0.0
 40
0
 41
0
  0
VERTEX
  8
0
 10
1.2864
 20
1.57553
 30
0.0
 40
0
 41
0
  0
VERTEX
  8
0
 10
1.24121
 20
1.5899
 30
0.0
 40
0
 41
0
  0
VERTEX
  8
0
 10
1.19531
 20
1.59338
 30
0.0
 40
0
 41
0
  0
VERTEX
  8
0
 10
1.15381
 20
1.5849
 30
0.0
 40
0
 41
0
  0
VERTEX
  8
0
 10
1.12858
 20
1.57417
 30
0.0
 40
0
 41
0
  0
VERTEX
  8
0
 10
1.11154
 20
1.56424
 30
0.0
 40
0
 41
0
  0
VERTEX
  8
0
 10
1.10303
 20
1.55431
 30
0.0
 40
0
 41
0
  0
VERTEX
  8
0
 10
1.1033
 20
1.54368
 30
0.0
 40
0
 41
0
  0
VERTEX
  8
0
 10
1.11274
 20
1.53157
 30
0.0
 40
0
 41
0
  0
VERTEX
  8
0
 10
1.13167
 20
1.51719
 30
0.0
 40
0
 41
0
  0
VERTEX
  8
0
 10
1.16037
 20
1.49983
 30
0.0
 40
0
 41
0
  0
VERTEX
  8
0
 10
1.19922
 20
1.47868
 30
0.0
 40
0
 41
0
  0
VERTEX
  8
0
 10
1.31809
 20
1.39296
 30
0.0
 40
0
 41
0
  0
VERTEX
  8
0
 10
1.41379
 20
1.27821
 30
0.0
 40
0
 41
0
  0
VERTEX
  8
0
 10
1.48481
 20
1.14138
 30
0.0
 40
0
 41
0
  0
VERTEX
  8
0
 10
1.52979
 20
0.989583
 30
0.0
 40
0
 41
0
  0
VERTEX
  8
0
 10
1.54731
 20
0.829915
 30
0.0
 40
0
 41
0
  0
VERTEX
  8
0
 10
1.53592
 20
0.669325
 30
0.0
 40
0
 41
0
  0
VERTEX
  8
0
 10
1.49419
 20
0.514865
 30
0.0
 40
0
 41
0
  0
VERTEX
  8
0
 10
1.42079
 20
0.373643
 30
0.0
 40
0
 41
0
  0
VERTEX
  8
0
 10
1.3763
 20
0.304417
 30
0.0
 40
0
 41
0
  0
VERTEX
  8
0
 10
1.34804
 20
0.251899
 30
0.0
 40
0
 41
0
  0
VERTEX
  8
0
 10
1.33594
 20
0.216254
 30
0.0
 40
0
 41
0
  0
VERTEX
  8
0
 10
1.3399
 20
0.197592
 30
0.0
 40
0
 41
0
  0
VERTEX
  8
0
 10
1.35975
 20
0.19591
 30
0.0
 40
0
 41
0
  0
VERTEX
  8
0
 10
1.39546
 20
0.211426
 30
0.0
 40
0
 41
0
  0
VERTEX
  8
0
 10
1.44683
 20
0.244194
 30
0.0
 40
0
 41
0
  0
VERTEX
  8
0
 10
1.51383
 20
0.294217
 30
0.0
 40
0
 41
0
  0
VERTEX
  8
0
 10
1.57389
 20
0.350694
 30
0.0
 40
0
 41
0
  0
VERTEX
  8
0
 10
1.6154
 20
0.411729
 30
0.0
 40
0
 41
0
  0
VERTEX
  8
0
 10
1.63954
 20
0.4796
 30
0.0
 40
0
 41
0
  0
VERTEX
  8
0
 10
1.64735
 20
0.556424
 30
0.0
 40
0
 41
0
  0
VERTEX
  8
0
 10
1.64057
 20
0.667535
 30
0.0
 40
0
 41
0
  0
VERTEX
  8
0
 10
1.62229
 20
0.815321
 30
0.0
 40
0
 41
0
  0
VERTEX
  8
0
 10
1.59532
 20
0.985081
 30
0.0
 40
0
 41
0
  0
VERTEX
  8
0
 10
1.56267
 20
1.16211
 30
0.0
 40
0
 41
0
  0
VERTEX
  8
0
 10
1.52713
 20
1.3316
 30
0.0
 40
0
 41
0
  0
VERTEX
  8
0
 10
1.4916
 20
1.47885
 30
0.0
 40
0
 41
0
  0
VERTEX
  8
0
 10
1.4591
 20
1.58914
 30
0.0
 40
0
 41
0
  0
VERTEX
  8
0
 10
1.43246
 20
1.64768
 30
0.0
 40
0
 41
0
  0
VERTEX
  8
0
 10
1.41146
 20
1.67643
 30
0.0
 40
0
 41
0
  0
VERTEX
  8
0
 10
1.4075
 20
1.69162
 30
0.0
 40
0
 41
0
  0
VERTEX
  8
0
 10
1.4209
 20
1.69401
 30
0.0
 40
0
 41
0
  0
VERTEX
  8
0
 10
1.45215
 20
1.68435
 30
0.0
 40
0
 41
0
  0
VERTEX
  8
0
 10
1.48796
 20
1.683
 30
0.0
 40
0
 41
0
  0
VERTEX
  8
0
 10
1.52246
 20
1.70708
 30
0.0
 40
0
 41
0
  0
VERTEX
  8
0
 10
1.55583
 20
1.75683
 30
0.0
 40
0
 41
0
  0
VERTEX
  8
0
 10
1.58832
 20
1.83251
 30
0.0
 40
0
 41
0
  0
VERTEX
  8
0
 10
1.6671
 20
1.96961
 30
0.0
 40
0
 41
0
  0
VERTEX
  8
0
 10
1.79194
 20
2.08908
 30
0.0
 40
0
 41
0
  0
VERTEX
  8
0
 10
1.95003
 20
2.18138
 30
0.0
 40
0
 41
0
  0
VERTEX
  8
0
 10
2.1289
 20
2.23703
 30
0.0
 40
0
 41
0
  0
VERTEX
  8
0
 10
2.28097
 20
2.26525
 30
0.0
 40
0
 41
0
  0
VERTEX
  8
0
 10
2.14404
 20
2.20676
 30
0.0
 40
0
 41
0
  0
VERTEX
  8
0
 10
2.07661
 20
2.17057
 30
0.0
 40
0
 41
0
  0
VERTEX
  8
0
 10
2.02274
 20
2.12125
 30
0.0
 40
0
 41
0
  0
VERTEX
  8
0
 10
1.98068
 20
2.05219
 30
0.0
 40
0
 41
0
  0
VERTEX
  8
0
 10
1.94883
 20
1.9566
 30
0.0
 40
0
 41
0
  0
VERTEX
  8
0
 10
1.92557
 20
1.82785
 30
0.0
 40
0
 41
0
  0
VERTEX
  8
0
 10
1.90918
 20
1.65918
 30
0.0
 40
0
 41
0
  0
VERTEX
  8
0
 10
1.898
 20
1.4439
 30
0.0
 40
0
 41
0
  0
VERTEX
  8
0
 10
1.89051
 20
1.17524
 30
0.0
 40
0
 41
0
  0
VERTEX
  8
0
 10
1.88226
 20
0.905707
 30
0.0
 40
0
 41
0
  0
VERTEX
  8
0
 10
1.86849
 20
0.690213
 30
0.0
 40
0
 41
0
  0
VERTEX
  8
0
 10
1.84668
 20
0.521322
 30
0.0
 40
0
 41
0
  0
VERTEX
  8
0
 10
1.81413
 20
0.391439
 30
0.0
 40
0
 41
0
  0
VERTEX
  8
0
 10
1.76828
 20
0.293132
 30
0.0
 40
0
 41
0
  0
VERTEX
  8
0
 10
1.70654
 20
0.21875
 30
0.0
 40
0
 41
0
  0
VERTEX
  8
0
 10
1.62642
 20
0.160807
 30
0.0
 40
0
 41
0
  0
VERTEX
  8
0
 10
1.52522
 20
0.111816
 30
0.0
 40
0
 41
0
  0
VERTEX
  8
0
 10
1.43821
 20
0.0850151
 30
0.0
 40
0
 41
0
  0
VERTEX
  8
0
 10
1.31695
 20
0.0605469
 30
0.0
 40
0
 41
0
  0
VERTEX
  8
0
 10
1.17236
 20
0.0393881
 30
0.0
 40
0
 41
0
  0
VERTEX
  8
0
 10
1.01541
 20
0.0226237
 30
0.0
 40
0
 41
0
  0
VERTEX
  8
0
 10
0.856933
 20
0.011122
 30
0.0
 40
0
 41
0
  0
VERTEX
  8
0
 10
0.707844
 20
0.00591363
 30
0.0
 40
0
 41
0
  0
VERTEX
  8
0
 10
0.579047
 20
0.00797526
 30
0.0
 40
0
 41
0
  0
VERTEX
  8
0
 10
0.4815
 20
0.0182292
 30
0.0
 40
0
 41
0
  0
SEQEND
 8
0
  0
POLYLINE
  8
0
 62
     0
 66
     1
 10
0
 20
0
 30
0.0
 70
     1
 40
0
 41
0
  0
VERTEX
  8
0
 10
0.912381
 20
1.81125
 30
0.0
 40
0
 41
0
  0
VERTEX
  8
0
 10
0.916015
 20
1.831
 30
0.0
 40
0
 41
0
  0
VERTEX
  8
0
 10
0.90294
 20
1.84711
 30
0.0
 40
0
 41
0
  0
VERTEX
  8
0
 10
0.875543
 20
1.85796
 30
0.0
 40
0
 41
0
  0
VERTEX
  8
0
 10
0.836317
 20
1.86193
 30
0.0
 40
0
 41
0
  0
VERTEX
  8
0
 10
0.797092
 20
1.85796
 30
0.0
 40
0
 41
0
  0
VERTEX
  8
0
 10
0.769694
 20
1.84711
 30
0.0
 40
0
 41
0
  0
VERTEX
  8
0
 10
0.756565
 20
1.831
 30
0.0
 40
0
 41
0
  0
VERTEX
  8
0
 10
0.760308
 20
1.81125
 30
0.0
 40
0
 41
0
  0
VERTEX
  8
0
 10
0.775988
 20
1.79161
 30
0.0
 40
0
 41
0
  0
VERTEX
  8
0
 10
0.795518
 20
1.7755
 30
0.0
 40
0
 41
0
  0
VERTEX
  8
0
 10
0.816461
 20
1.7646
 30
0.0
 40
0
 41
0
  0
VERTEX
  8
0
 10
0.836317
 20
1.76058
 30
0.0
 40
0
 41
0
  0
VERTEX
  8
0
 10
0.856119
 20
1.7646
 30
0.0
 40
0
 41
0
  0
VERTEX
  8
0
 10
0.877115
 20
1.7755
 30
0.0
 40
0
 41
0
  0
VERTEX
  8
0
 10
0.896647
 20
1.79161
 30
0.0
 40
0
 41
0
  0
VERTEX
  8
0
 10
0.912381
 20
1.81125
 30
0.0
 40
0
 41
0
  0
SEQEND
 8
0
  0
POLYLINE
  8
0
 62
     0
 66
     1
 10
0
 20
0
 30
0.0
 70
     1
 40
0
 41
0
  0
VERTEX
  8
0
 10
0.631674
 20
2.04172
 30
0.0
 40
0
 41
0
  0
VERTEX
  8
0
 10
0.601454
 20
2.07021
 30
0.0
 40
0
 41
0
  0
VERTEX
  8
0
 10
0.567275
 20
2.08996
 30
0.0
 40
0
 41
0
  0
VERTEX
  8
0
 10
0.533257
 20
2.09907
 30
0.0
 40
0
 41
0
  0
VERTEX
  8
0
 10
0.503743
 20
2.09586
 30
0.0
 40
0
 41
0
  0
VERTEX
  8
0
 10
0.477268
 20
2.09424
 30
0.0
 40
0
 41
0
  0
VERTEX
  8
0
 10
0.451768
 20
2.10758
 30
0.0
 40
0
 41
0
  0
VERTEX
  8
0
 10
0.430067
 20
2.13351
 30
0.0
 40
0
 41
0
  0
VERTEX
  8
0
 10
0.415201
 20
2.1696
 30
0.0
 40
0
 41
0
  0
VERTEX
  8
0
 10
0.399849
 20
2.2034
 30
0.0
 40
0
 41
0
  0
VERTEX
  8
0
 10
0.375217
 20
2.23118
 30
0.0
 40
0
 41
0
  0
VERTEX
  8
0
 10
0.344835
 20
2.25217
 30
0.0
 40
0
 41
0
  0
VERTEX
  8
0
 10
0.312121
 20
2.26525
 30
0.0
 40
0
 41
0
  0
VERTEX
  8
0
 10
0.280544
 20
2.26964
 30
0.0
 40
0
 41
0
  0
VERTEX
  8
0
 10
0.253743
 20
2.26421
 30
0.0
 40
0
 41
0
  0
VERTEX
  8
0
 10
0.235081
 20
2.24815
 30
0.0
 40
0
 41
0
  0
VERTEX
  8
0
 10
0.228082
 20
2.22043
 30
0.0
 40
0
 41
0
  0
VERTEX
  8
0
 10
0.239367
 20
2.1875
 30
0.0
 40
0
 41
0
  0
VERTEX
  8
0
 10
0.270182
 20
2.14811
 30
0.0
 40
0
 41
0
  0
VERTEX
  8
0
 10
0.315647
 20
2.10558
 30
0.0
 40
0
 41
0
  0
VERTEX
  8
0
 10
0.371039
 20
2.06332
 30
0.0
 40
0
 41
0
  0
VERTEX
  8
0
 10
0.431532
 20
2.02458
 30
0.0
 40
0
 41
0
  0
VERTEX
  8
0
 10
0.49235
 20
1.99278
 30
0.0
 40
0
 41
0
  0
VERTEX
  8
0
 10
0.548719
 20
1.97125
 30
0.0
 40
0
 41
0
  0
VERTEX
  8
0
 10
0.595919
 20
1.96332
 30
0.0
 40
0
 41
0
  0
VERTEX
  8
0
 10
0.645128
 20
1.96631
 30
0.0
 40
0
 41
0
  0
VERTEX
  8
0
 10
0.666287
 20
1.97771
 30
0.0
 40
0
 41
0
  0
VERTEX
  8
0
 10
0.661187
 20
2.00157
 30
0.0
 40
0
 41
0
  0
VERTEX
  8
0
 10
0.631674
 20
2.04172
 30
0.0
 40
0
 41
0
  0
SEQEND
 8
0
  0
POLYLINE
  8
0
 62
     0
 66
     1
 10
0
 20
0
 30
0.0
 70
     1
 40
0
 41
0
  0
VERTEX
  8
0
 10
1.27658
 20
2.07357
 30
0.0
 40
0
 41
0
  0
VERTEX
  8
0
 10
1.32216
 20
2.11892
 30
0.0
 40
0
 41
0
  0
VERTEX
  8
0
 10
1.35607
 20
2.15826
 30
0.0
 40
0
 41
0
  0
VERTEX
  8
0
 10
1.37826
 20
2.19157
 30
0.0
 40
0
 41
0
  0
VERTEX
  8
0
 10
1.38867
 20
2.21886
 30
0.0
 40
0
 41
0
  0
VERTEX
  8
0
 10
1.38737
 20
2.24013
 30
0.0
 40
0
 41
0
  0
VERTEX
  8
0
 10
1.37435
 20
2.25532
 30
0.0
 40
0
 41
0
  0
VERTEX
  8
0
 10
1.34961
 20
2.26443
 30
0.0
 40
0
 41
0
  0
VERTEX
  8
0
 10
1.31315
 20
2.26747
 30
0.0
 40
0
 41
0
  0
VERTEX
  8
0
 10
1.27973
 20
2.25976
 30
0.0
 40
0
 41
0
  0
VERTEX
  8
0
 10
1.24853
 20
2.23872
 30
0.0
 40
0
 41
0
  0
VERTEX
  8
0
 10
1.22304
 20
2.20763
 30
0.0
 40
0
 41
0
  0
VERTEX
  8
0
 10
1.20676
 20
2.1696
 30
0.0
 40
0
 41
0
  0
VERTEX
  8
0
 10
1.19184
 20
2.13351
 30
0.0
 40
0
 41
0
  0
VERTEX
  8
0
 10
1.17019
 20
2.10758
 30
0.0
 40
0
 41
0
  0
VERTEX
  8
0
 10
1.14469
 20
2.09424
 30
0.0
 40
0
 41
0
  0
VERTEX
  8
0
 10
1.11827
 20
2.09586
 30
0.0
 40
0
 41
0
  0
VERTEX
  8
0
 10
1.0887
 20
2.09907
 30
0.0
 40
0
 41
0
  0
VERTEX
  8
0
 10
1.05469
 20
2.08996
 30
0.0
 40
0
 41
0
  0
VERTEX
  8
0
 10
1.02051
 20
2.07021
 30
0.0
 40
0
 41
0
  0
VERTEX
  8
0
 10
0.990343
 20
2.04172
 30
0.0
 40
0
 41
0
  0
VERTEX
  8
0
 10
0.966254
 20
2.00086
 30
0.0
 40
0
 41
0
  0
VERTEX
  8
0
 10
0.970324
 20
1.97401
 30
0.0
 40
0
 41
0
  0
VERTEX
  8
0
 10
0.997017
 20
1.96056
 30
0.0
 40
0
 41
0
  0
VERTEX
  8
0
 10
1.0408
 20
1.96001
 30
0.0
 40
0
 41
0
  0
VERTEX
  8
0
 10
1.09614
 20
1.97163
 30
0.0
 40
0
 41
0
  0
VERTEX
  8
0
 10
1.15755
 20
1.99485
 30
0.0
 40
0
 41
0
  0
VERTEX
  8
0
 10
1.21951
 20
2.02903
 30
0.0
 40
0
 41
0
  0
VERTEX
  8
0
 10
1.27658
 20
2.07357
 30
0.0
 40
0
 41
0
  0
SEQEND
 8
0
  0
POLYLINE
  8
0
 62
     1
 66
     1
 10
0
 20
0
 30
0.0
 70
     1
 40
0.79937
 41
0.79937
  0
VERTEX
  8
0
 10
0.4815
 20
0.0182292
 30
0.0
 40
0.0111024
 41
0.0111024
  0
VERTEX
  8
0
 10
0.40294
 20
0.0338542
 30
0.0
 40
0.0111024
 41
0.0111024
  0
VERTEX
  8
0
 10
0.341797
 20
0.0481771
 30
0.0
 40
0.0111024
 41
0.0111024
  0
VERTEX
  8
0
 10
0.296767
 20
0.062066
 30
0.0
 40
0.0111024
 41
0.0111024
  0
VERTEX
  8
0
 10
0.266547
 20
0.0762261
 30
0.0
 40
0.0111024
 41
0.0111024
  0
VERTEX
  8
0
 10
0.249892
 20
0.0915799
 30
0.0
 40
0.0111024
 41
0.0111024
  0
VERTEX
  8
0
 10
0.245606
 20
0.108778
 30
0.0
 40
0.0111024
 41
0.0111024
  0
VERTEX
  8
0
 10
0.252387
 20
0.128743
 30
0.0
 40
0.0111024
 41
0.0111024
  0
VERTEX
  8
0
 10
0.269043
 20
0.152126
 30
0.0
 40
0.0111024
 41
0.0111024
  0
VERTEX
  8
0
 10
0.286187
 20
0.192383
 30
0.0
 40
0.0111024
 41
0.0111024
  0
VERTEX
  8
0
 10
0.280871
 20
0.247613
 30
0.0
 40
0.0111024
 41
0.0111024
  0
VERTEX
  8
0
 10
0.252115
 20
0.321506
 30
0.0
 40
0.0111024
 41
0.0111024
  0
VERTEX
  8
0
 10
0.199001
 20
0.417697
 30
0.0
 40
0.0111024
 41
0.0111024
  0
VERTEX
  8
0
 10
0.134657
 20
0.547581
 30
0.0
 40
0.0111024
 41
0.0111024
  0
VERTEX
  8
0
 10
0.0957574
 20
0.680664
 30
0.0
 40
0.0111024
 41
0.0111024
  0
VERTEX
  8
0
 10
0.0819228
 20
0.814725
 30
0.0
 40
0.0111024
 41
0.0111024
  0
VERTEX
  8
0
 10
0.0927192
 20
0.947374
 30
0.0
 40
0.0111024
 41
0.0111024
  0
VERTEX
  8
0
 10
0.127767
 20
1.07633
 30
0.0
 40
0.0111024
 41
0.0111024
  0
VERTEX
  8
0
 10
0.186632
 20
1.19938
 30
0.0
 40
0.0111024
 41
0.0111024
  0
VERTEX
  8
0
 10
0.268935
 20
1.31418
 30
0.0
 40
0.0111024
 41
0.0111024
  0
VERTEX
  8
0
 10
0.374294
 20
1.41846
 30
0.0
 40
0.0111024
 41
0.0111024
  0
VERTEX
  8
0
 10
0.425944
 20
1.46235
 30
0.0
 40
0.0111024
 41
0.0111024
  0
VERTEX
  8
0
 10
0.463542
 20
1.49625
 30
0.0
 40
0.0111024
 41
0.0111024
  0
VERTEX
  8
0
 10
0.487739
 20
1.5224
 30
0.0
 40
0.0111024
 41
0.0111024
  0
VERTEX
  8
0
 10
0.499078
 20
1.54286
 30
0.0
 40
0.0111024
 41
0.0111024
  0
VERTEX
  8
0
 10
0.498156
 20
1.55974
 30
0.0
 40
0.0111024
 41
0.0111024
  0
VERTEX
  8
0
 10
0.485568
 20
1.57519
 30
0.0
 40
0.0111024
 41
0.0111024
  0
VERTEX
  8
0
 10
0.46186
 20
1.59131
 30
0.0
 40
0.0111024
 41
0.0111024
  0
VERTEX
  8
0
 10
0.427681
 20
1.61019
 30
0.0
 40
0.0111024
 41
0.0111024
  0
VERTEX
  8
0
 10
0.370063
 20
1.63456
 30
0.0
 40
0.0111024
 41
0.0111024
  0
VERTEX
  8
0
 10
0.320367
 20
1.63781
 30
0.0
 40
0.0111024
 41
0.0111024
  0
VERTEX
  8
0
 10
0.270182
 20
1.61871
 30
0.0
 40
0.0111024
 41
0.0111024
  0
VERTEX
  8
0
 10
0.211154
 20
1.5759
 30
0.0
 40
0.0111024
 41
0.0111024
  0
VERTEX
  8
0
 10
0.173503
 20
1.54611
 30
0.0
 40
0.0111024
 41
0.0111024
  0
VERTEX
  8
0
 10
0.152181
 20
1.53256
 30
0.0
 40
0.0111024
 41
0.0111024
  0
VERTEX
  8
0
 10
0.148708
 20
1.53581
 30
0.0
 40
0.0111024
 41
0.0111024
  0
VERTEX
  8
0
 10
0.164714
 20
1.55658
 30
0.0
 40
0.0111024
 41
0.0111024
  0
VERTEX
  8
0
 10
0.191461
 20
1.59136
 30
0.0
 40
0.0111024
 41
0.0111024
  0
VERTEX
  8
0
 10
0.210721
 20
1.62463
 30
0.0
 40
0.0111024
 41
0.0111024
  0
VERTEX
  8
0
 10
0.222547
 20
1.65429
 30
0.0
 40
0.0111024
 41
0.0111024
  0
VERTEX
  8
0
 10
0.226779
 20
1.678
 30
0.0
 40
0.0111024
 41
0.0111024
  0
VERTEX
  8
0
 10
0.223415
 20
1.69363
 30
0.0
 40
0.0111024
 41
0.0111024
  0
VERTEX
  8
0
 10
0.212403
 20
1.69889
 30
0.0
 40
0.0111024
 41
0.0111024
  0
VERTEX
  8
0
 10
0.193685
 20
1.69157
 30
0.0
 40
0.0111024
 41
0.0111024
  0
VERTEX
  8
0
 10
0.16721
 20
1.66932
 30
0.0
 40
0.0111024
 41
0.0111024
  0
VERTEX
  8
0
 10
0.130317
 20
1.63661
 30
0.0
 40
0.0111024
 41
0.0111024
  0
VERTEX
  8
0
 10
0.0991211
 20
1.61649
 30
0.0
 40
0.0111024
 41
0.0111024
  0
VERTEX
  8
0
 10
0.074924
 20
1.60807
 30
0.0
 40
0.0111024
 41
0.0111024
  0
VERTEX
  8
0
 10
0.0589735
 20
1.61057
 30
0.0
 40
0.0111024
 41
0.0111024
  0
VERTEX
  8
0
 10
0.0525717
 20
1.62304
 30
0.0
 40
0.0111024
 41
0.0111024
  0
VERTEX
  8
0
 10
0.0569119
 20
1.64469
 30
0.0
 40
0.0111024
 41
0.0111024
  0
VERTEX
  8
0
 10
0.073405
 20
1.67464
 30
0.0
 40
0.0111024
 41
0.0111024
  0
VERTEX
  8
0
 10
0.103299
 20
1.71203
 30
0.0
 40
0.0111024
 41
0.0111024
  0
VERTEX
  8
0
 10
0.133247
 20
1.74539
 30
0.0
 40
0.0111024
 41
0.0111024
  0
VERTEX
  8
0
 10
0.154622
 20
1.77012
 30
0.0
 40
0.0111024
 41
0.0111024
  0
VERTEX
  8
0
 10
0.167264
 20
1.787
 30
0.0
 40
0.0111024
 41
0.0111024
  0
VERTEX
  8
0
 10
0.171169
 20
1.79676
 30
0.0
 40
0.0111024
 41
0.0111024
  0
VERTEX
  8
0
 10
0.166342
 20
1.80003
 30
0.0
 40
0.0111024
 41
0.0111024
  0
VERTEX
  8
0
 10
0.152615
 20
1.79764
 30
0.0
 40
0.0111024
 41
0.0111024
  0
VERTEX
  8
0
 10
0.129991
 20
1.79025
 30
0.0
 40
0.0111024
 41
0.0111024
  0
VERTEX
  8
0
 10
0.09847
 20
1.7786
 30
0.0
 40
0.0111024
 41
0.0111024
  0
VERTEX
  8
0
 10
0.0507813
 20
1.76275
 30
0.0
 40
0.0111024
 41
0.0111024
  0
VERTEX
  8
0
 10
0.0297308
 20
1.76253
 30
0.0
 40
0.0111024
 41
0.0111024
  0
VERTEX
  8
0
 10
0.0335286
 20
1.77974
 30
0.0
 40
0.0111024
 41
0.0111024
  0
VERTEX
  8
0
 10
0.0604383
 20
1.81614
 30
0.0
 40
0.0111024
 41
0.0111024
  0
VERTEX
  8
0
 10
0.082411
 20
1.85211
 30
0.0
 40
0.0111024
 41
0.0111024
  0
VERTEX
  8
0
 10
0.0926107
 20
1.88992
 30
0.0
 40
0.0111024
 41
0.0111024
  0
VERTEX
  8
0
 10
0.0907661
 20
1.92736
 30
0.0
 40
0.0111024
 41
0.0111024
  0
VERTEX
  8
0
 10
0.0766601
 20
1.96224
 30
0.0
 40
0.0111024
 41
0.0111024
  0
VERTEX
  8
0
 10
0.0616319
 20
2.00836
 30
0.0
 40
0.0111024
 41
0.0111024
  0
VERTEX
  8
0
 10
0.0534397
 20
2.08089
 30
0.0
 40
0.0111024
 41
0.0111024
  0
VERTEX
  8
0
 10
0.0526801
 20
2.16992
 30
0.0
 40
0.0111024
 41
0.0111024
  0
VERTEX
  8
0
 10
0.0598415
 20
2.26551
 30
0.0
 40
0.0111024
 41
0.0111024
  0
VERTEX
  8
0
 10
0.0663519
 20
2.37044
 30
0.0
 40
0.0111024
 41
0.0111024
  0
VERTEX
  8
0
 10
0.0638564
 20
2.48475
 30
0.0
 40
0.0111024
 41
0.0111024
  0
VERTEX
  8
0
 10
0.0531683
 20
2.59472
 30
0.0
 40
0.0111024
 41
0.0111024
  0
VERTEX
  8
0
 10
0.0350478
 20
2.68647
 30
0.0
 40
0.0111024
 41
0.0111024
  0
VERTEX
  8
0
 10
0.0171983
 20
2.75999
 30
0.0
 40
0.0111024
 41
0.0111024
  0
VERTEX
  8
0
 10
0.00737847
 20
2.82015
 30
0.0
 40
0.0111024
 41
0.0111024
  0
VERTEX
  8
0
 10
0.00618489
 20
2.86079
 30
0.0
 40
0.0111024
 41
0.0111024
  0
VERTEX
  8
0
 10
0.0143229
 20
2.87571
 30
0.0
 40
0.0111024
 41
0.0111024
  0
VERTEX
  8
0
 10
0.0390625
 20
2.86361
 30
0.0
 40
0.0111024
 41
0.0111024
  0
VERTEX
  8
0
 10
0.0832249
 20
2.83051
 30
0.0
 40
0.0111024
 41
0.0111024
  0
VERTEX
  8
0
 10
0.140463
 20
2.78157
 30
0.0
 40
0.0111024
 41
0.0111024
  0
VERTEX
  8
0
 10
0.204699
 20
2.72179
 30
0.0
 40
0.0111024
 41
0.0111024
  0
VERTEX
  8
0
 10
0.292914
 20
2.64236
 30
0.0
 40
0.0111024
 41
0.0111024
  0
VERTEX
  8
0
 10
0.360026
 20
2.60303
 30
0.0
 40
0.0111024
 41
0.0111024
  0
VERTEX
  8
0
 10
0.423719
 20
2.59776
 30
0.0
 40
0.0111024
 41
0.0111024
  0
VERTEX
  8
0
 10
0.501844
 20
2.62044
 30
0.0
 40
0.0111024
 41
0.0111024
  0
VERTEX
  8
0
 10
0.645779
 20
2.65767
 30
0.0
 40
0.0111024
 41
0.0111024
  0
VERTEX
  8
0
 10
0.807075
 20
2.67096
 30
0.0
 40
0.0111024
 41
0.0111024
  0
VERTEX
  8
0
 10
0.967014
 20
2.66032
 30
0.0
 40
0.0111024
 41
0.0111024
  0
VERTEX
  8
0
 10
1.10682
 20
2.62543
 30
0.0
 40
0.0111024
 41
0.0111024
  0
VERTEX
  8
0
 10
1.17258
 20
2.60656
 30
0.0
 40
0.0111024
 41
0.0111024
  0
VERTEX
  8
0
 10
1.22542
 20
2.60807
 30
0.0
 40
0.0111024
 41
0.0111024
  0
VERTEX
  8
0
 10
1.27355
 20
2.63217
 30
0.0
 40
0.0111024
 41
0.0111024
  0
VERTEX
  8
0
 10
1.32498
 20
2.68083
 30
0.0
 40
0.0111024
 41
0.0111024
  0
VERTEX
  8
0
 10
1.37234
 20
2.72889
 30
0.0
 40
0.0111024
 41
0.0111024
  0
VERTEX
  8
0
 10
1.42199
 20
2.77214
 30
0.0
 40
0.0111024
 41
0.0111024
  0
VERTEX
  8
0
 10
1.47037
 20
2.8086
 30
0.0
 40
0.0111024
 41
0.0111024
  0
VERTEX
  8
0
 10
1.51389
 20
2.83621
 30
0.0
 40
0.0111024
 41
0.0111024
  0
VERTEX
  8
0
 10
1.54883
 20
2.85297
 30
0.0
 40
0.0111024
 41
0.0111024
  0
VERTEX
  8
0
 10
1.57172
 20
2.85678
 30
0.0
 40
0.0111024
 41
0.0111024
  0
VERTEX
  8
0
 10
1.57883
 20
2.84565
 30
0.0
 40
0.0111024
 41
0.0111024
  0
VERTEX
  8
0
 10
1.56668
 20
2.81749
 30
0.0
 40
0.0111024
 41
0.0111024
  0
VERTEX
  8
0
 10
1.55013
 20
2.75369
 30
0.0
 40
0.0111024
 41
0.0111024
  0
VERTEX
  8
0
 10
1.53629
 20
2.63049
 30
0.0
 40
0.0111024
 41
0.0111024
  0
VERTEX
  8
0
 10
1.52658
 20
2.46556
 30
0.0
 40
0.0111024
 41
0.0111024
  0
VERTEX
  8
0
 10
1.52251
 20
2.27669
 30
0.0
 40
0.0111024
 41
0.0111024
  0
VERTEX
  8
0
 10
1.52121
 20
2.141
 30
0.0
 40
0.0111024
 41
0.0111024
  0
VERTEX
  8
0
 10
1.51818
 20
2.03201
 30
0.0
 40
0.0111024
 41
0.0111024
  0
VERTEX
  8
0
 10
1.51275
 20
1.94646
 30
0.0
 40
0.0111024
 41
0.0111024
  0
VERTEX
  8
0
 10
1.50439
 20
1.88097
 30
0.0
 40
0.0111024
 41
0.0111024
  0
VERTEX
  8
0
 10
1.49251
 20
1.83225
 30
0.0
 40
0.0111024
 41
0.0111024
  0
VERTEX
  8
0
 10
1.47651
 20
1.79693
 30
0.0
 40
0.0111024
 41
0.0111024
  0
VERTEX
  8
0
 10
1.45572
 20
1.77169
 30
0.0
 40
0.0111024
 41
0.0111024
  0
VERTEX
  8
0
 10
1.42974
 20
1.75319
 30
0.0
 40
0.0111024
 41
0.0111024
  0
VERTEX
  8
0
 10
1.39019
 20
1.72385
 30
0.0
 40
0.0111024
 41
0.0111024
  0
VERTEX
  8
0
 10
1.36816
 20
1.68858
 30
0.0
 40
0.0111024
 41
0.0111024
  0
VERTEX
  8
0
 10
1.3629
 20
1.64546
 30
0.0
 40
0.0111024
 41
0.0111024
  0
VERTEX
  8
0
 10
1.3737
 20
1.59244
 30
0.0
 40
0.0111024
 41
0.0111024
  0
VERTEX
  8
0
 10
1.38346
 20
1.56033
 30
0.0
 40
0.0111024
 41
0.0111024
  0
VERTEX
  8
0
 10
1.38949
 20
1.53651
 30
0.0
 40
0.0111024
 41
0.0111024
  0
VERTEX
  8
0
 10
1.39133
 20
1.52078
 30
0.0
 40
0.0111024
 41
0.0111024
  0
VERTEX
  8
0
 10
1.38873
 20
1.51269
 30
0.0
 40
0.0111024
 41
0.0111024
  0
VERTEX
  8
0
 10
1.38118
 20
1.51204
 30
0.0
 40
0.0111024
 41
0.0111024
  0
VERTEX
  8
0
 10
1.36843
 20
1.51844
 30
0.0
 40
0.0111024
 41
0.0111024
  0
VERTEX
  8
0
 10
1.3501
 20
1.53163
 30
0.0
 40
0.0111024
 41
0.0111024
  0
VERTEX
  8
0
 10
1.32585
 20
1.55122
 30
0.0
 40
0.0111024
 41
0.0111024
  0
VERTEX
  8
0
 10
1.2864
 20
1.57553
 30
0.0
 40
0.0111024
 41
0.0111024
  0
VERTEX
  8
0
 10
1.24121
 20
1.5899
 30
0.0
 40
0.0111024
 41
0.0111024
  0
VERTEX
  8
0
 10
1.19531
 20
1.59338
 30
0.0
 40
0.0111024
 41
0.0111024
  0
VERTEX
  8
0
 10
1.15381
 20
1.5849
 30
0.0
 40
0.0111024
 41
0.0111024
  0
VERTEX
  8
0
 10
1.12858
 20
1.57417
 30
0.0
 40
0.0111024
 41
0.0111024
  0
VERTEX
  8
0
 10
1.11154
 20
1.56424
 30
0.0
 40
0.0111024
 41
0.0111024
  0
VERTEX
  8
0
 10
1.10303
 20
1.55431
 30
0.0
 40
0.0111024
 41
0.0111024
  0
VERTEX
  8
0
 10
1.1033
 20
1.54368
 30
0.0
 40
0.0111024
 41
0.0111024
  0
VERTEX
  8
0
 10
1.11274
 20
1.53157
 30
0.0
 40
0.0111024
 41
0.0111024
  0
VERTEX
  8
0
 10
1.13167
 20
1.51719
 30
0.0
 40
0.0111024
 41
0.0111024
  0
VERTEX
  8
0
 10
1.16037
 20
1.49983
 30
0.0
 40
0.0111024
 41
0.0111024
  0
VERTEX
  8
0
 10
1.19922
 20
1.47868
 30
0.0
 40
0.0111024
 41
0.0111024
  0
VERTEX
  8
0
 10
1.31809
 20
1.39296
 30
0.0
 40
0.0111024
 41
0.0111024
  0
VERTEX
  8
0
 10
1.41379
 20
1.27821
 30
0.0
 40
0.0111024
 41
0.0111024
  0
VERTEX
  8
0
 10
1.48481
 20
1.14138
 30
0.0
 40
0.0111024
 41
0.0111024
  0
VERTEX
  8
0
 10
1.52979
 20
0.989583
 30
0.0
 40
0.0111024
 41
0.0111024
  0
VERTEX
  8
0
 10
1.54731
 20
0.829915
 30
0.0
 40
0.0111024
 41
0.0111024
  0
VERTEX
  8
0
 10
1.53592
 20
0.669325
 30
0.0
 40
0.0111024
 41
0.0111024
  0
VERTEX
  8
0
 10
1.49419
 20
0.514865
 30
0.0
 40
0.0111024
 41
0.0111024
  0
VERTEX
  8
0
 10
1.42079
 20
0.373643
 30
0.0
 40
0.0111024
 41
0.0111024
  0
VERTEX
  8
0
 10
1.3763
 20
0.304417
 30
0.0
 40
0.0111024
 41
0.0111024
  0
VERTEX
  8
0
 10
1.34804
 20
0.251899
 30
0.0
 40
0.0111024
 41
0.0111024
  0
VERTEX
  8
0
 10
1.33594
 20
0.216254
 30
0.0
 40
0.0111024
 41
0.0111024
  0
VERTEX
  8
0
 10
1.3399
 20
0.197592
 30
0.0
 40
0.0111024
 41
0.0111024
  0
VERTEX
  8
0
 10
1.35975
 20
0.19591
 30
0.0
 40
0.0111024
 41
0.0111024
  0
VERTEX
  8
0
 10
1.39546
 20
0.211426
 30
0.0
 40
0.0111024
 41
0.0111024
  0
VERTEX
  8
0
 10
1.44683
 20
0.244194
 30
0.0
 40
0.0111024
 41
0.0111024
  0
VERTEX
  8
0
 10
1.51383
 20
0.294217
 30
0.0
 40
0.0111024
 41
0.0111024
  0
VERTEX
  8
0
 10
1.57389
 20
0.350694
 30
0.0
 40
0.0111024
 41
0.0111024
  0
VERTEX
  8
0
 10
1.6154
 20
0.411729
 30
0.0
 40
0.0111024
 41
0.0111024
  0
VERTEX
  8
0
 10
1.63954
 20
0.4796
 30
0.0
 40
0.0111024
 41
0.0111024
  0
VERTEX
  8
0
 10
1.64735
 20
0.556424
 30
0.0
 40
0.0111024
 41
0.0111024
  0
VERTEX
  8
0
 10
1.64057
 20
0.667535
 30
0.0
 40
0.0111024
 41
0.0111024
  0
VERTEX
  8
0
 10
1.62229
 20
0.815321
 30
0.0
 40
0.0111024
 41
0.0111024
  0
VERTEX
  8
0
 10
1.59532
 20
0.985081
 30
0.0
 40
0.0111024
 41
0.0111024
  0
VERTEX
  8
0
 10
1.56267
 20
1.16211
 30
0.0
 40
0.0111024
 41
0.0111024
  0
VERTEX
  8
0
 10
1.52713
 20
1.3316
 30
0.0
 40
0.0111024
 41
0.0111024
  0
VERTEX
  8
0
 10
1.4916
 20
1.47885
 30
0.0
 40
0.0111024
 41
0.0111024
  0
VERTEX
  8
0
 10
1.4591
 20
1.58914
 30
0.0
 40
0.0111024
 41
0.0111024
  0
VERTEX
  8
0
 10
1.43246
 20
1.64768
 30
0.0
 40
0.0111024
 41
0.0111024
  0
VERTEX
  8
0
 10
1.41146
 20
1.67643
 30
0.0
 40
0.0111024
 41
0.0111024
  0
VERTEX
  8
0
 10
1.4075
 20
1.69162
 30
0.0
 40
0.0111024
 41
0.0111024
  0
VERTEX
  8
0
 10
1.4209
 20
1.69401
 30
0.0
 40
0.0111024
 41
0.0111024
  0
VERTEX
  8
0
 10
1.45215
 20
1.68435
 30
0.0
 40
0.0111024
 41
0.0111024
  0
VERTEX
  8
0
 10
1.48796
 20
1.683
 30
0.0
 40
0.0111024
 41
0.0111024
  0
VERTEX
  8
0
 10
1.52246
 20
1.70708
 30
0.0
 40
0.0111024
 41
0.0111024
  0
VERTEX
  8
0
 10
1.55583
 20
1.75683
 30
0.0
 40
0.0111024
 41
0.0111024
  0
VERTEX
  8
0
 10
1.58832
 20
1.83251
 30
0.0
 40
0.0111024
 41
0.0111024
  0
VERTEX
  8
0
 10
1.6671
 20
1.96961
 30
0.0
 40
0.0111024
 41
0.0111024
  0
VERTEX
  8
0
 10
1.79194
 20
2.08908
 30
0.0
 40
0.0111024
 41
0.0111024
  0
VERTEX
  8
0
 10
1.95003
 20
2.18138
 30
0.0
 40
0.0111024
 41
0.0111024
  0
VERTEX
  8
0
 10
2.1289
 20
2.23703
 30
0.0
 40
0.0111024
 41
0.0111024
  0
VERTEX
  8
0
 10
2.28097
 20
2.26525
 30
0.0
 40
0.0111024
 41
0.0111024
  0
VERTEX
  8
0
 10
2.14404
 20
2.20676
 30
0.0
 40
0.0111024
 41
0.0111024
  0
VERTEX
  8
0
 10
2.07661
 20
2.17057
 30
0.0
 40
0.0111024
 41
0.0111024
  0
VERTEX
  8
0
 10
2.02274
 20
2.12125
 30
0.0
 40
0.0111024
 41
0.0111024
  0
VERTEX
  8
0
 10
1.98068
 20
2.05219
 30
0.0
 40
0.0111024
 41
0.0111024
  0
VERTEX
  8
0
 10
1.94883
 20
1.9566
 30
0.0
 40
0.0111024
 41
0.0111024
  0
VERTEX
  8
0
 10
1.92557
 20
1.82785
 30
0.0
 40
0.0111024
 41
0.0111024
  0
VERTEX
  8
0
 10
1.90918
 20
1.65918
 30
0.0
 40
0.0111024
 41
0.0111024
  0
VERTEX
  8
0
 10
1.898
 20
1.4439
 30
0.0
 40
0.0111024
 41
0.0111024
  0
VERTEX
  8
0
 10
1.89051
 20
1.17524
 30
0.0
 40
0.0111024
 41
0.0111024
  0
VERTEX
  8
0
 10
1.88226
 20
0.905707
 30
0.0
 40
0.0111024
 41
0.0111024
  0
VERTEX
  8
0
 10
1.86849
 20
0.690213
 30
0.0
 40
0.0111024
 41
0.0111024
  0
VERTEX
  8
0
 10
1.84668
 20
0.521322
 30
0.0
 40
0.0111024
 41
0.0111024
  0
VERTEX
  8
0
 10
1.81413
 20
0.391439
 30
0.0
 40
0.0111024
 41
0.0111024
  0
VERTEX
  8
0
 10
1.76828
 20
0.293132
 30
0.0
 40
0.0111024
 41
0.0111024
  0
VERTEX
  8
0
 10
1.70654
 20
0.21875
 30
0.0
 40
0.0111024
 41
0.0111024
  0
VERTEX
  8
0
 10
1.62642
 20
0.160807
 30
0.0
 40
0.0111024
 41
0.0111024
  0
VERTEX
  8
0
 10
1.52522
 20
0.111816
 30
0.0
 40
0.0111024
 41
0.0111024
  0
VERTEX
  8
0
 10
1.43821
 20
0.0850151
 30
0.0
 40
0.0111024
 41
0.0111024
  0
VERTEX
  8
0
 10
1.31695
 20
0.0605469
 30
0.0
 40
0.0111024
 41
0.0111024
  0
VERTEX
  8
0
 10
1.17236
 20
0.0393881
 30
0.0
 40
0.0111024
 41
0.0111024
  0
VERTEX
  8
0
 10
1.01541
 20
0.0226237
 30
0.0
 40
0.0111024
 41
0.0111024
  0
VERTEX
  8
0
 10
0.856933
 20
0.011122
 30
0.0
 40
0.0111024
 41
0.0111024
  0
VERTEX
  8
0
 10
0.707844
 20
0.00591363
 30
0.0
 40
0.0111024
 41
0.0111024
  0
VERTEX
  8
0
 10
0.579047
 20
0.00797526
 30
0.0
 40
0.0111024
 41
0.0111024
  0
VERTEX
  8
0
 10
0.4815
 20
0.0182292
 30
0.0
 40
0.0111024
 41
0.0111024
  0
SEQEND
 8
0
  0
POLYLINE
  8
0
 62
     1
 66
     1
 10
0
 20
0
 30
0.0
 70
     1
 40
0.79937
 41
0.79937
  0
VERTEX
  8
0
 10
0.912381
 20
1.81125
 30
0.0
 40
0.0111024
 41
0.0111024
  0
VERTEX
  8
0
 10
0.916015
 20
1.831
 30
0.0
 40
0.0111024
 41
0.0111024
  0
VERTEX
  8
0
 10
0.90294
 20
1.84711
 30
0.0
 40
0.0111024
 41
0.0111024
  0
VERTEX
  8
0
 10
0.875543
 20
1.85796
 30
0.0
 40
0.0111024
 41
0.0111024
  0
VERTEX
  8
0
 10
0.836317
 20
1.86193
 30
0.0
 40
0.0111024
 41
0.0111024
  0
VERTEX
  8
0
 10
0.797092
 20
1.85796
 30
0.0
 40
0.0111024
 41
0.0111024
  0
VERTEX
  8
0
 10
0.769694
 20
1.84711
 30
0.0
 40
0.0111024
 41
0.0111024
  0
VERTEX
  8
0
 10
0.756565
 20
1.831
 30
0.0
 40
0.0111024
 41
0.0111024
  0
VERTEX
  8
0
 10
0.760308
 20
1.81125
 30
0.0
 40
0.0111024
 41
0.0111024
  0
VERTEX
  8
0
 10
0.775988
 20
1.79161
 30
0.0
 40
0.0111024
 41
0.0111024
  0
VERTEX
  8
0
 10
0.795518
 20
1.7755
 30
0.0
 40
0.0111024
 41
0.0111024
  0
VERTEX
  8
0
 10
0.816461
 20
1.7646
 30
0.0
 40
0.0111024
 41
0.0111024
  0
VERTEX
  8
0
 10
0.836317
 20
1.76058
 30
0.0
 40
0.0111024
 41
0.0111024
  0
VERTEX
  8
0
 10
0.856119
 20
1.7646
 30
0.0
 40
0.0111024
 41
0.0111024
  0
VERTEX
  8
0
 10
0.877115
 20
1.7755
 30
0.0
 40
0.0111024
 41
0.0111024
  0
VERTEX
  8
0
 10
0.896647
 20
1.79161
 30
0.0
 40
0.0111024
 41
0.0111024
  0
VERTEX
  8
0
 10
0.912381
 20
1.81125
 30
0.0
 40
0.0111024
 41
0.0111024
  0
SEQEND
 8
0
  0
POLYLINE
  8
0
 62
     1
 66
     1
 10
0
 20
0
 30
0.0
 70
     1
 40
0.79937
 41
0.79937
  0
VERTEX
  8
0
 10
0.631674
 20
2.04172
 30
0.0
 40
0.0111024
 41
0.0111024
  0
VERTEX
  8
0
 10
0.601454
 20
2.07021
 30
0.0
 40
0.0111024
 41
0.0111024
  0
VERTEX
  8
0
 10
0.567275
 20
2.08996
 30
0.0
 40
0.0111024
 41
0.0111024
  0
VERTEX
  8
0
 10
0.533257
 20
2.09907
 30
0.0
 40
0.0111024
 41
0.0111024
  0
VERTEX
  8
0
 10
0.503743
 20
2.09586
 30
0.0
 40
0.0111024
 41
0.0111024
  0
VERTEX
  8
0
 10
0.477268
 20
2.09424
 30
0.0
 40
0.0111024
 41
0.0111024
  0
VERTEX
  8
0
 10
0.451768
 20
2.10764
 30
0.0
 40
0.0111024
 41
0.0111024
  0
VERTEX
  8
0
 10
0.430067
 20
2.13357
 30
0.0
 40
0.0111024
 41
0.0111024
  0
VERTEX
  8
0
 10
0.415201
 20
2.16965
 30
0.0
 40
0.0111024
 41
0.0111024
  0
VERTEX
  8
0
 10
0.399849
 20
2.2034
 30
0.0
 40
0.0111024
 41
0.0111024
  0
VERTEX
  8
0
 10
0.375217
 20
2.23122
 30
0.0
 40
0.0111024
 41
0.0111024
  0
VERTEX
  8
0
 10
0.344835
 20
2.25217
 30
0.0
 40
0.0111024
 41
0.0111024
  0
VERTEX
  8
0
 10
0.312121
 20
2.26531
 30
0.0
 40
0.0111024
 41
0.0111024
  0
VERTEX
  8
0
 10
0.280544
 20
2.26964
 30
0.0
 40
0.0111024
 41
0.0111024
  0
VERTEX
  8
0
 10
0.253743
 20
2.26421
 30
0.0
 40
0.0111024
 41
0.0111024
  0
VERTEX
  8
0
 10
0.235081
 20
2.24815
 30
0.0
 40
0.0111024
 41
0.0111024
  0
VERTEX
  8
0
 10
0.228082
 20
2.22043
 30
0.0
 40
0.0111024
 41
0.0111024
  0
VERTEX
  8
0
 10
0.239367
 20
2.1875
 30
0.0
 40
0.0111024
 41
0.0111024
  0
VERTEX
  8
0
 10
0.270182
 20
2.14811
 30
0.0
 40
0.0111024
 41
0.0111024
  0
VERTEX
  8
0
 10
0.315647
 20
2.10558
 30
0.0
 40
0.0111024
 41
0.0111024
  0
VERTEX
  8
0
 10
0.371039
 20
2.06332
 30
0.0
 40
0.0111024
 41
0.0111024
  0
VERTEX
  8
0
 10
0.431532
 20
2.02458
 30
0.0
 40
0.0111024
 41
0.0111024
  0
VERTEX
  8
0
 10
0.49235
 20
1.99278
 30
0.0
 40
0.0111024
 41
0.0111024
  0
VERTEX
  8
0
 10
0.548719
 20
1.97125
 30
0.0
 40
0.0111024
 41
0.0111024
  0
VERTEX
  8
0
 10
0.595919
 20
1.96332
 30
0.0
 40
0.0111024
 41
0.0111024
  0
VERTEX
  8
0
 10
0.645128
 20
1.96631
 30
0.0
 40
0.0111024
 41
0.0111024
  0
VERTEX
  8
0
 10
0.666287
 20
1.97771
 30
0.0
 40
0.0111024
 41
0.0111024
  0
VERTEX
  8
0
 10
0.661187
 20
2.00157
 30
0.0
 40
0.0111024
 41
0.0111024
  0
VERTEX
  8
0
 10
0.631674
 20
2.04172
 30
0.0
 40
0.0111024
 41
0.0111024
  0
SEQEND
 8
0
  0
POLYLINE
  8
0
 62
     1
 66
     1
 10
0
 20
0
 30
0.0
 70
     1
 40
0.79937
 41
0.79937
  0
VERTEX
  8
0
 10
1.27658
 20
2.07357
 30
0.0
 40
0.0111024
 41
0.0111024
  0
VERTEX
  8
0
 10
1.32216
 20
2.11892
 30
0.0
 40
0.0111024
 41
0.0111024
  0
VERTEX
  8
0
 10
1.35607
 20
2.15826
 30
0.0
 40
0.0111024
 41
0.0111024
  0
VERTEX
  8
0
 10
1.37826
 20
2.19157
 30
0.0
 40
0.0111024
 41
0.0111024
  0
VERTEX
  8
0
 10
1.38867
 20
2.21886
 30
0.0
 40
0.0111024
 41
0.0111024
  0
VERTEX
  8
0
 10
1.38737
 20
2.24013
 30
0.0
 40
0.0111024
 41
0.0111024
  0
VERTEX
  8
0
 10
1.37435
 20
2.25532
 30
0.0
 40
0.0111024
 41
0.0111024
  0
VERTEX
  8
0
 10
1.34961
 20
2.26443
 30
0.0
 40
0.0111024
 41
0.0111024
  0
VERTEX
  8
0
 10
1.31315
 20
2.26747
 30
0.0
 40
0.0111024
 41
0.0111024
  0
VERTEX
  8
0
 10
1.27973
 20
2.25976
 30
0.0
 40
0.0111024
 41
0.0111024
  0
VERTEX
  8
0
 10
1.24853
 20
2.23876
 30
0.0
 40
0.0111024
 41
0.0111024
  0
VERTEX
  8
0
 10
1.22304
 20
2.20768
 30
0.0
 40
0.0111024
 41
0.0111024
  0
VERTEX
  8
0
 10
1.20676
 20
2.16965
 30
0.0
 40
0.0111024
 41
0.0111024
  0
VERTEX
  8
0
 10
1.19184
 20
2.13357
 30
0.0
 40
0.0111024
 41
0.0111024
  0
VERTEX
  8
0
 10
1.17019
 20
2.10764
 30
0.0
 40
0.0111024
 41
0.0111024
  0
VERTEX
  8
0
 10
1.14469
 20
2.09424
 30
0.0
 40
0.0111024
 41
0.0111024
  0
VERTEX
  8
0
 10
1.11827
 20
2.09586
 30
0.0
 40
0.0111024
 41
0.0111024
  0
VERTEX
  8
0
 10
1.0887
 20
2.09907
 30
0.0
 40
0.0111024
 41
0.0111024
  0
VERTEX
  8
0
 10
1.05469
 20
2.08996
 30
0.0
 40
0.0111024
 41
0.0111024
  0
VERTEX
  8
0
 10
1.02051
 20
2.07021
 30
0.0
 40
0.0111024
 41
0.0111024
  0
VERTEX
  8
0
 10
0.990343
 20
2.04172
 30
0.0
 40
0.0111024
 41
0.0111024
  0
VERTEX
  8
0
 10
0.966254
 20
2.00086
 30
0.0
 40
0.0111024
 41
0.0111024
  0
VERTEX
  8
0
 10
0.970324
 20
1.97401
 30
0.0
 40
0.0111024
 41
0.0111024
  0
VERTEX
  8
0
 10
0.997017
 20
1.96056
 30
0.0
 40
0.0111024
 41
0.0111024
  0
VERTEX
  8
0
 10
1.0408
 20
1.96001
 30
0.0
 40
0.0111024
 41
0.0111024
  0
VERTEX
  8
0
 10
1.09614
 20
1.97163
 30
0.0
 40
0.0111024
 41
0.0111024
  0
VERTEX
  8
0
 10
1.15755
 20
1.99485
 30
0.0
 40
0.0111024
 41
0.0111024
  0
VERTEX
  8
0
 10
1.21951
 20
2.02903
 30
0.0
 40
0.0111024
 41
0.0111024
  0
VERTEX
  8
0
 10
1.27658
 20
2.07357
 30
0.0
 40
0.0111024
 41
0.0111024
  0
SEQEND
 8
0
  0
ENDSEC
  0
EOF
