solid
  facet normal -0.866025 0.500000 0.000000
    outer loop
      vertex -0.577350 0.000000 0.000000
      vertex -0.577350 0.000000 1.000000
      vertex -0.288675 0.500000 0.000000
    endloop
  endfacet
  facet normal -0.866025 0.500000 0.000000
    outer loop
      vertex -0.288675 0.500000 0.000000
      vertex -0.577350 0.000000 1.000000
      vertex -0.288675 0.500000 1.000000
    endloop
  endfacet
  facet normal -0.866025 -0.500000 -0.000000
    outer loop
      vertex -0.577350 0.000000 0.000000
      vertex -0.288675 -0.500000 0.000000
      vertex -0.577350 0.000000 1.000000
    endloop
  endfacet
  facet normal -0.866025 -0.500000 0.000000
    outer loop
      vertex -0.577350 0.000000 1.000000
      vertex -0.288675 -0.500000 0.000000
      vertex -0.288675 -0.500000 1.000000
    endloop
  endfacet
  facet normal -0.000000 0.000000 -1.000000
    outer loop
      vertex -0.577350 0.000000 0.000000
      vertex -0.288675 0.500000 0.000000
      vertex -0.288675 -0.500000 0.000000
    endloop
  endfacet
  facet normal 0.000000 0.000000 -1.000000
    outer loop
      vertex -0.288675 -0.500000 0.000000
      vertex -0.288675 0.500000 0.000000
      vertex 0.288675 0.500000 0.000000
    endloop
  endfacet
  facet normal 0.000000 0.000000 -1.000000
    outer loop
      vertex -0.288675 -0.500000 0.000000
      vertex 0.288675 0.500000 0.000000
      vertex 0.577350 -0.000000 0.000000
    endloop
  endfacet
  facet normal -0.000000 0.000000 -1.000000
    outer loop
      vertex -0.288675 -0.500000 0.000000
      vertex 0.577350 -0.000000 0.000000
      vertex 0.288675 -0.500000 0.000000
    endloop
  endfacet
  facet normal 0.000000 1.000000 0.000000
    outer loop
      vertex -0.288675 0.500000 0.000000
      vertex -0.288675 0.500000 1.000000
      vertex 0.288675 0.500000 0.000000
    endloop
  endfacet
  facet normal 0.000000 1.000000 0.000000
    outer loop
      vertex 0.288675 0.500000 0.000000
      vertex -0.288675 0.500000 1.000000
      vertex 0.288675 0.500000 1.000000
    endloop
  endfacet
  facet normal 0.000000 0.000000 1.000000
    outer loop
      vertex -0.288675 0.500000 1.000000
      vertex -0.577350 0.000000 1.000000
      vertex -0.288675 -0.500000 1.000000
    endloop
  endfacet
  facet normal -0.000000 0.000000 1.000000
    outer loop
      vertex 0.577350 -0.000000 1.000000
      vertex -0.288675 0.500000 1.000000
      vertex 0.288675 -0.500000 1.000000
    endloop
  endfacet
  facet normal -0.000000 0.000000 1.000000
    outer loop
      vertex 0.288675 -0.500000 1.000000
      vertex -0.288675 0.500000 1.000000
      vertex -0.288675 -0.500000 1.000000
    endloop
  endfacet
  facet normal 0.000000 -0.000000 1.000000
    outer loop
      vertex 0.288675 0.500000 1.000000
      vertex -0.288675 0.500000 1.000000
      vertex 0.577350 -0.000000 1.000000
    endloop
  endfacet
  facet normal 0.000000 -1.000000 0.000000
    outer loop
      vertex -0.288675 -0.500000 1.000000
      vertex -0.288675 -0.500000 0.000000
      vertex 0.288675 -0.500000 0.000000
    endloop
  endfacet
  facet normal 0.000000 -1.000000 0.000000
    outer loop
      vertex 0.288675 -0.500000 1.000000
      vertex -0.288675 -0.500000 1.000000
      vertex 0.288675 -0.500000 0.000000
    endloop
  endfacet
  facet normal 0.866025 -0.500000 0.000000
    outer loop
      vertex 0.288675 -0.500000 1.000000
      vertex 0.288675 -0.500000 0.000000
      vertex 0.577350 -0.000000 0.000000
    endloop
  endfacet
  facet normal 0.866025 -0.500000 0.000000
    outer loop
      vertex 0.577350 -0.000000 1.000000
      vertex 0.288675 -0.500000 1.000000
      vertex 0.577350 -0.000000 0.000000
    endloop
  endfacet
  facet normal 0.866025 0.500000 0.000000
    outer loop
      vertex 0.577350 -0.000000 0.000000
      vertex 0.288675 0.500000 0.000000
      vertex 0.288675 0.500000 1.000000
    endloop
  endfacet
  facet normal 0.866025 0.500000 -0.000000
    outer loop
      vertex 0.577350 -0.000000 1.000000
      vertex 0.577350 -0.000000 0.000000
      vertex 0.288675 0.500000 1.000000
    endloop
  endfacet
endsolid
